<?xml version="1.0" encoding="utf-8" standalone="no"?>
<!DOCTYPE svg PUBLIC "-//W3C//DTD SVG 1.1//EN"
  "http://www.w3.org/Graphics/SVG/1.1/DTD/svg11.dtd">
<svg xmlns:xlink="http://www.w3.org/1999/xlink" width="418.146923pt" height="337.397538pt" viewBox="0 0 418.146923 337.397538" xmlns="http://www.w3.org/2000/svg" version="1.1">
 <metadata>
  <rdf:RDF xmlns:dc="http://purl.org/dc/elements/1.1/" xmlns:cc="http://creativecommons.org/ns#" xmlns:rdf="http://www.w3.org/1999/02/22-rdf-syntax-ns#">
   <cc:Work>
    <dc:type rdf:resource="http://purl.org/dc/dcmitype/StillImage"/>
    <dc:date>2025-01-21T17:17:50.949149</dc:date>
    <dc:format>image/svg+xml</dc:format>
    <dc:creator>
     <cc:Agent>
      <dc:title>Matplotlib v3.6.2, https://matplotlib.org/</dc:title>
     </cc:Agent>
    </dc:creator>
   </cc:Work>
  </rdf:RDF>
 </metadata>
 <defs>
  <style type="text/css">*{stroke-linejoin: round; stroke-linecap: butt}</style>
 </defs>
 <g id="figure_1">
  <g id="patch_1">
   <path d="M 0 337.397538 
L 418.146923 337.397538 
L 418.146923 0 
L 0 0 
z
" style="fill: #ffffff"/>
  </g>
  <g id="axes_1">
   <g id="patch_2">
    <path d="M 7.2 330.197538 
L 410.946923 330.197538 
L 410.946923 7.2 
L 7.2 7.2 
z
" style="fill: #ffffff"/>
   </g>
   <g id="PathCollection_1">
    <path d="M 116.920658 112.371889 
L 116.938897 112.230668 
L 119.083868 109.877831 
L 120.842054 108.914104 
L 122.192234 107.524993 
L 124.763449 105.822732 
L 125.505325 105.172155 
L 128.684845 103.135749 
L 129.118202 102.819318 
L 132.606241 100.803266 
L 133.16696 100.46648 
L 136.527637 98.773396 
L 137.877683 98.113643 
L 140.449033 97.011234 
L 143.633033 95.760805 
L 144.370429 95.497296 
L 148.291825 94.227061 
L 151.325478 93.407968 
L 152.213221 93.179306 
L 156.134617 92.347426 
L 160.056013 91.725317 
L 163.977409 91.307913 
L 167.898804 91.090616 
L 171.8202 91.070914 
L 175.741596 91.24908 
L 179.662992 91.627938 
L 183.584388 92.211303 
L 187.505784 93.000177 
L 189.256898 93.407968 
L 191.42718 94.008696 
L 195.348576 95.238202 
L 197.040996 95.760805 
L 199.269972 96.721055 
L 202.750193 98.113643 
L 203.191368 98.427772 
L 207.112764 100.395399 
L 210.975483 98.113643 
L 211.034159 98.077699 
L 212.122033 95.760805 
L 213.530763 93.407968 
L 214.955555 91.298889 
L 215.062353 91.05513 
L 216.322795 88.702293 
L 217.709529 86.349455 
L 218.876951 84.501312 
L 219.133305 83.996618 
L 220.442502 81.64378 
L 221.824422 79.290942 
L 222.798347 77.698464 
L 223.210358 76.938105 
L 224.544757 74.585267 
L 225.922344 72.23243 
L 226.719743 70.89446 
L 227.291531 69.879592 
L 228.642039 67.526755 
L 230.01313 65.173917 
L 230.641139 64.090156 
L 231.37752 62.82108 
L 232.739826 60.468242 
L 234.09995 58.115405 
L 234.562535 57.285869 
L 235.471625 55.762567 
L 236.84391 53.409729 
L 238.183702 51.056892 
L 238.483931 50.48195 
L 239.584781 48.704054 
L 240.968662 46.351217 
L 242.263139 43.998379 
L 242.405327 43.679739 
L 243.773747 41.645542 
L 245.195819 39.292704 
L 246.324097 36.939867 
L 246.326723 36.920443 
L 247.854341 34.587029 
L 246.326723 33.736923 
L 245.12861 32.234192 
L 242.405327 31.313445 
L 240.160292 29.881354 
L 238.483931 29.267656 
L 235.015893 27.528516 
L 234.562535 27.370115 
L 230.641139 25.668883 
L 229.613094 25.175679 
L 226.719743 24.087656 
L 223.526196 22.822841 
L 222.798347 22.587283 
L 218.876951 21.254819 
L 216.561743 20.470004 
L 214.955555 20.008303 
L 211.034159 18.892687 
L 208.18896 18.117166 
L 207.112764 17.862758 
L 203.191368 16.97729 
L 199.269972 16.164297 
L 197.143165 15.764329 
L 195.348576 15.466547 
L 191.42718 14.890051 
L 187.505784 14.401637 
L 183.584388 14.006711 
L 179.662992 13.709529 
L 175.741596 13.513222 
L 171.8202 13.419807 
L 167.898804 13.430193 
L 163.977409 13.5442 
L 160.056013 13.760586 
L 156.134617 14.077097 
L 152.213221 14.49054 
L 148.291825 14.996857 
L 144.370429 15.591223 
L 143.380947 15.764329 
L 140.449033 16.31846 
L 136.527637 17.145443 
L 132.606241 18.047035 
L 132.327249 18.117166 
L 128.684845 19.10648 
L 124.763449 20.234087 
L 123.991381 20.470004 
L 120.842054 21.511406 
L 117.016142 22.822841 
L 116.920658 22.858374 
L 112.999262 24.379081 
L 110.986536 25.175679 
L 109.077866 25.997673 
L 105.566381 27.528516 
L 105.15647 27.723786 
L 101.235074 29.605838 
L 100.658313 29.881354 
L 97.313678 31.634436 
L 96.148387 32.234192 
L 93.392282 33.80032 
L 91.963515 34.587029 
L 89.470886 36.113946 
L 88.056222 36.939867 
L 85.54949 38.583666 
L 84.390334 39.292704 
L 81.628094 41.213759 
L 80.942727 41.645542 
L 77.709854 43.998379 
L 77.706698 44.001101 
L 74.570658 46.351217 
L 73.785303 47.066067 
L 71.568282 48.704054 
L 69.863907 50.301778 
L 68.737462 51.056892 
L 66.163501 53.409729 
L 65.942511 53.725921 
L 63.183092 55.762567 
L 62.021115 57.660353 
L 60.991538 58.115405 
L 62.021115 60.468242 
L 62.021115 60.468242 
L 63.904252 62.82108 
L 65.942511 64.278167 
L 66.593322 65.173917 
L 68.95547 67.526755 
L 69.863907 68.257668 
L 71.327193 69.879592 
L 73.785303 72.23243 
L 73.785303 72.23243 
L 76.08197 74.585267 
L 77.706698 76.129301 
L 78.470638 76.938105 
L 80.827735 79.290942 
L 81.628094 80.06 
L 83.191404 81.64378 
L 85.54949 83.996618 
L 85.54949 83.996618 
L 87.919017 86.349455 
L 89.470886 87.914627 
L 90.277153 88.702293 
L 92.633497 91.05513 
L 93.392282 91.842905 
L 95.017745 93.407968 
L 97.313678 95.760805 
L 97.313678 95.760805 
L 99.753501 98.113643 
L 101.235074 99.702712 
L 102.102125 100.46648 
L 104.459609 102.819318 
L 105.15647 103.643746 
L 106.927472 105.172155 
L 109.077866 107.524993 
L 109.077866 107.524993 
L 111.844725 109.877831 
L 112.999262 111.65339 
L 116.767674 112.230668 
z
" clip-path="url(#pa43eef71f2)" style="fill: #add8e6"/>
   </g>
   <g id="PathCollection_2">
    <path d="M 14.964364 168.698769 
L 14.964364 168.698769 
L 14.964364 168.698769 
z
" clip-path="url(#pa43eef71f2)" style="fill: #add8e6"/>
    <path d="M 116.920658 112.371889 
L 116.938897 112.230668 
L 119.083868 109.877831 
L 120.842054 108.914104 
L 122.192234 107.524993 
L 124.763449 105.822732 
L 125.505325 105.172155 
L 128.684845 103.135749 
L 129.118202 102.819318 
L 132.606241 100.803266 
L 133.16696 100.46648 
L 136.527637 98.773396 
L 137.877683 98.113643 
L 140.449033 97.011234 
L 143.633033 95.760805 
L 144.370429 95.497296 
L 148.291825 94.227061 
L 151.325478 93.407968 
L 152.213221 93.179306 
L 156.134617 92.347426 
L 160.056013 91.725317 
L 163.977409 91.307913 
L 167.898804 91.090616 
L 171.8202 91.070914 
L 175.741596 91.24908 
L 179.662992 91.627938 
L 183.584388 92.211303 
L 187.505784 93.000177 
L 189.256898 93.407968 
L 191.42718 94.008696 
L 195.348576 95.238202 
L 197.040996 95.760805 
L 199.269972 96.721055 
L 202.750193 98.113643 
L 203.191368 98.427772 
L 207.112764 100.395399 
L 210.975483 98.113643 
L 211.034159 98.077699 
L 212.122033 95.760805 
L 213.530763 93.407968 
L 214.955555 91.298889 
L 215.062353 91.05513 
L 216.322795 88.702293 
L 217.709529 86.349455 
L 218.876951 84.501312 
L 219.133305 83.996618 
L 220.442502 81.64378 
L 221.824422 79.290942 
L 222.798347 77.698464 
L 223.210358 76.938105 
L 224.544757 74.585267 
L 225.922344 72.23243 
L 226.719743 70.89446 
L 227.291531 69.879592 
L 228.642039 67.526755 
L 230.01313 65.173917 
L 230.641139 64.090156 
L 231.37752 62.82108 
L 232.739826 60.468242 
L 234.09995 58.115405 
L 234.562535 57.285869 
L 235.471625 55.762567 
L 236.84391 53.409729 
L 238.183702 51.056892 
L 238.483931 50.48195 
L 239.584781 48.704054 
L 240.968662 46.351217 
L 242.263139 43.998379 
L 242.405327 43.679739 
L 243.773747 41.645542 
L 245.195819 39.292704 
L 246.324097 36.939867 
L 246.326723 36.920443 
L 247.854341 34.587029 
L 246.326723 33.736923 
L 245.12861 32.234192 
L 242.405327 31.313445 
L 240.160292 29.881354 
L 238.483931 29.267656 
L 235.015893 27.528516 
L 234.562535 27.370115 
L 230.641139 25.668883 
L 229.613094 25.175679 
L 226.719743 24.087656 
L 223.526196 22.822841 
L 222.798347 22.587283 
L 218.876951 21.254819 
L 216.561743 20.470004 
L 214.955555 20.008303 
L 211.034159 18.892687 
L 208.18896 18.117166 
L 207.112764 17.862758 
L 203.191368 16.97729 
L 199.269972 16.164297 
L 197.143165 15.764329 
L 195.348576 15.466547 
L 191.42718 14.890051 
L 187.505784 14.401637 
L 183.584388 14.006711 
L 179.662992 13.709529 
L 175.741596 13.513222 
L 171.8202 13.419807 
L 167.898804 13.430193 
L 163.977409 13.5442 
L 160.056013 13.760586 
L 156.134617 14.077097 
L 152.213221 14.49054 
L 148.291825 14.996857 
L 144.370429 15.591223 
L 143.380947 15.764329 
L 140.449033 16.31846 
L 136.527637 17.145443 
L 132.606241 18.047035 
L 132.327249 18.117166 
L 128.684845 19.10648 
L 124.763449 20.234087 
L 123.991381 20.470004 
L 120.842054 21.511406 
L 117.016142 22.822841 
L 116.920658 22.858374 
L 112.999262 24.379081 
L 110.986536 25.175679 
L 109.077866 25.997673 
L 105.566381 27.528516 
L 105.15647 27.723786 
L 101.235074 29.605838 
L 100.658313 29.881354 
L 97.313678 31.634436 
L 96.148387 32.234192 
L 93.392282 33.80032 
L 91.963515 34.587029 
L 89.470886 36.113946 
L 88.056222 36.939867 
L 85.54949 38.583666 
L 84.390334 39.292704 
L 81.628094 41.213759 
L 80.942727 41.645542 
L 77.709854 43.998379 
L 77.706698 44.001101 
L 74.570658 46.351217 
L 73.785303 47.066067 
L 71.568282 48.704054 
L 69.863907 50.301778 
L 68.737462 51.056892 
L 66.163501 53.409729 
L 65.942511 53.725921 
L 63.183092 55.762567 
L 62.021115 57.660353 
L 60.991538 58.115405 
L 62.021115 60.468242 
L 62.021115 60.468242 
L 63.904252 62.82108 
L 65.942511 64.278167 
L 66.593322 65.173917 
L 68.95547 67.526755 
L 69.863907 68.257668 
L 71.327193 69.879592 
L 73.785303 72.23243 
L 73.785303 72.23243 
L 76.08197 74.585267 
L 77.706698 76.129301 
L 78.470638 76.938105 
L 80.827735 79.290942 
L 81.628094 80.06 
L 83.191404 81.64378 
L 85.54949 83.996618 
L 85.54949 83.996618 
L 87.919017 86.349455 
L 89.470886 87.914627 
L 90.277153 88.702293 
L 92.633497 91.05513 
L 93.392282 91.842905 
L 95.017745 93.407968 
L 97.313678 95.760805 
L 97.313678 95.760805 
L 99.753501 98.113643 
L 101.235074 99.702712 
L 102.102125 100.46648 
L 104.459609 102.819318 
L 105.15647 103.643746 
L 106.927472 105.172155 
L 109.077866 107.524993 
L 109.077866 107.524993 
L 111.844725 109.877831 
L 112.999262 111.65339 
L 116.767674 112.230668 
z
M 116.767674 112.230668 
L 112.999262 111.65339 
L 111.844725 109.877831 
L 109.077866 107.524993 
L 109.077866 107.524993 
L 106.927472 105.172155 
L 105.15647 103.643746 
L 104.459609 102.819318 
L 102.102125 100.46648 
L 101.235074 99.702712 
L 99.753501 98.113643 
L 97.313678 95.760805 
L 97.313678 95.760805 
L 95.017745 93.407968 
L 93.392282 91.842905 
L 92.633497 91.05513 
L 90.277153 88.702293 
L 89.470886 87.914627 
L 87.919017 86.349455 
L 85.54949 83.996618 
L 85.54949 83.996618 
L 83.191404 81.64378 
L 81.628094 80.06 
L 80.827735 79.290942 
L 78.470638 76.938105 
L 77.706698 76.129301 
L 76.08197 74.585267 
L 73.785303 72.23243 
L 73.785303 72.23243 
L 71.327193 69.879592 
L 69.863907 68.257668 
L 68.95547 67.526755 
L 66.593322 65.173917 
L 65.942511 64.278167 
L 63.904252 62.82108 
L 62.021115 60.468242 
L 62.021115 60.468242 
L 60.991538 58.115405 
L 62.021115 57.660353 
L 63.183092 55.762567 
L 65.942511 53.725921 
L 66.163501 53.409729 
L 68.737462 51.056892 
L 69.863907 50.301778 
L 71.568282 48.704054 
L 73.785303 47.066067 
L 74.570658 46.351217 
L 77.706698 44.001101 
L 77.709854 43.998379 
L 80.942727 41.645542 
L 81.628094 41.213759 
L 84.390334 39.292704 
L 85.54949 38.583666 
L 88.056222 36.939867 
L 89.470886 36.113946 
L 91.963515 34.587029 
L 93.392282 33.80032 
L 96.148387 32.234192 
L 97.313678 31.634436 
L 100.658313 29.881354 
L 101.235074 29.605838 
L 105.15647 27.723786 
L 105.566381 27.528516 
L 109.077866 25.997673 
L 110.986536 25.175679 
L 112.999262 24.379081 
L 116.920658 22.858374 
L 117.016142 22.822841 
L 120.842054 21.511406 
L 123.991381 20.470004 
L 124.763449 20.234087 
L 128.684845 19.10648 
L 132.327249 18.117166 
L 132.606241 18.047035 
L 136.527637 17.145443 
L 140.449033 16.31846 
L 143.380947 15.764329 
L 144.370429 15.591223 
L 148.291825 14.996857 
L 152.213221 14.49054 
L 156.134617 14.077097 
L 160.056013 13.760586 
L 163.977409 13.5442 
L 167.898804 13.430193 
L 171.8202 13.419807 
L 175.741596 13.513222 
L 179.662992 13.709529 
L 183.584388 14.006711 
L 187.505784 14.401637 
L 191.42718 14.890051 
L 195.348576 15.466547 
L 197.143165 15.764329 
L 199.269972 16.164297 
L 203.191368 16.97729 
L 207.112764 17.862758 
L 208.18896 18.117166 
L 211.034159 18.892687 
L 214.955555 20.008303 
L 216.561743 20.470004 
L 218.876951 21.254819 
L 222.798347 22.587283 
L 223.526196 22.822841 
L 226.719743 24.087656 
L 229.613094 25.175679 
L 230.641139 25.668883 
L 234.562535 27.370115 
L 235.015893 27.528516 
L 238.483931 29.267656 
L 240.160292 29.881354 
L 242.405327 31.313445 
L 245.12861 32.234192 
L 246.326723 33.736923 
L 247.854341 34.587029 
L 246.326723 36.920443 
L 246.324097 36.939867 
L 245.195819 39.292704 
L 243.773747 41.645542 
L 242.405327 43.679739 
L 242.263139 43.998379 
L 240.968662 46.351217 
L 239.584781 48.704054 
L 238.483931 50.48195 
L 238.183702 51.056892 
L 236.84391 53.409729 
L 235.471625 55.762567 
L 234.562535 57.285869 
L 234.09995 58.115405 
L 232.739826 60.468242 
L 231.37752 62.82108 
L 230.641139 64.090156 
L 230.01313 65.173917 
L 228.642039 67.526755 
L 227.291531 69.879592 
L 226.719743 70.89446 
L 225.922344 72.23243 
L 224.544757 74.585267 
L 223.210358 76.938105 
L 222.798347 77.698464 
L 221.824422 79.290942 
L 220.442502 81.64378 
L 219.133305 83.996618 
L 218.876951 84.501312 
L 217.709529 86.349455 
L 216.322795 88.702293 
L 215.062353 91.05513 
L 214.955555 91.298889 
L 213.530763 93.407968 
L 212.122033 95.760805 
L 211.034159 98.077699 
L 210.975483 98.113643 
L 207.112764 100.395399 
L 203.191368 98.427772 
L 202.750193 98.113643 
L 199.269972 96.721055 
L 197.040996 95.760805 
L 195.348576 95.238202 
L 191.42718 94.008696 
L 189.256898 93.407968 
L 187.505784 93.000177 
L 183.584388 92.211303 
L 179.662992 91.627938 
L 175.741596 91.24908 
L 171.8202 91.070914 
L 167.898804 91.090616 
L 163.977409 91.307913 
L 160.056013 91.725317 
L 156.134617 92.347426 
L 152.213221 93.179306 
L 151.325478 93.407968 
L 148.291825 94.227061 
L 144.370429 95.497296 
L 143.633033 95.760805 
L 140.449033 97.011234 
L 137.877683 98.113643 
L 136.527637 98.773396 
L 133.16696 100.46648 
L 132.606241 100.803266 
L 129.118202 102.819318 
L 128.684845 103.135749 
L 125.505325 105.172155 
L 124.763449 105.822732 
L 122.192234 107.524993 
L 120.842054 108.914104 
L 119.083868 109.877831 
L 116.938897 112.230668 
L 116.920658 112.371889 
z
" clip-path="url(#pa43eef71f2)" style="fill: #add8e6"/>
    <path d="M 50.256927 48.704054 
L 50.256927 48.704054 
L 50.256927 48.704054 
L 50.256927 48.704054 
z
" clip-path="url(#pa43eef71f2)" style="fill: #add8e6"/>
    <path d="M 38.492739 36.939867 
L 38.492739 36.939867 
L 38.492739 36.939867 
L 38.492739 36.939867 
z
" clip-path="url(#pa43eef71f2)" style="fill: #add8e6"/>
   </g>
   <g id="PathCollection_3">
    <path d="M 14.964364 168.698769 
L 14.964364 168.698769 
L 14.964364 168.698769 
L 14.964364 168.698769 
z
" clip-path="url(#pa43eef71f2)" style="fill: #ffffff"/>
    <path d="M 116.920658 112.371889 
L 116.938897 112.230668 
L 119.083868 109.877831 
L 120.842054 108.914104 
L 122.192234 107.524993 
L 124.763449 105.822732 
L 125.505325 105.172155 
L 128.684845 103.135749 
L 129.118202 102.819318 
L 132.606241 100.803266 
L 133.16696 100.46648 
L 136.527637 98.773396 
L 137.877683 98.113643 
L 140.449033 97.011234 
L 143.633033 95.760805 
L 144.370429 95.497296 
L 148.291825 94.227061 
L 151.325478 93.407968 
L 152.213221 93.179306 
L 156.134617 92.347426 
L 160.056013 91.725317 
L 163.977409 91.307913 
L 167.898804 91.090616 
L 171.8202 91.070914 
L 175.741596 91.24908 
L 179.662992 91.627938 
L 183.584388 92.211303 
L 187.505784 93.000177 
L 189.256898 93.407968 
L 191.42718 94.008696 
L 195.348576 95.238202 
L 197.040996 95.760805 
L 199.269972 96.721055 
L 202.750193 98.113643 
L 203.191368 98.427772 
L 207.112764 100.395399 
L 210.975483 98.113643 
L 211.034159 98.077699 
L 212.122033 95.760805 
L 213.530763 93.407968 
L 214.955555 91.298889 
L 215.062353 91.05513 
L 216.322795 88.702293 
L 217.709529 86.349455 
L 218.876951 84.501312 
L 219.133305 83.996618 
L 220.442502 81.64378 
L 221.824422 79.290942 
L 222.798347 77.698464 
L 223.210358 76.938105 
L 224.544757 74.585267 
L 225.922344 72.23243 
L 226.719743 70.89446 
L 227.291531 69.879592 
L 228.642039 67.526755 
L 230.01313 65.173917 
L 230.641139 64.090156 
L 231.37752 62.82108 
L 232.739826 60.468242 
L 234.09995 58.115405 
L 234.562535 57.285869 
L 235.471625 55.762567 
L 236.84391 53.409729 
L 238.183702 51.056892 
L 238.483931 50.48195 
L 239.584781 48.704054 
L 240.968662 46.351217 
L 242.263139 43.998379 
L 242.405327 43.679739 
L 243.773747 41.645542 
L 245.195819 39.292704 
L 246.324097 36.939867 
L 246.326723 36.920443 
L 247.854341 34.587029 
L 246.326723 33.736923 
L 245.12861 32.234192 
L 242.405327 31.313445 
L 240.160292 29.881354 
L 238.483931 29.267656 
L 235.015893 27.528516 
L 234.562535 27.370115 
L 230.641139 25.668883 
L 229.613094 25.175679 
L 226.719743 24.087656 
L 223.526196 22.822841 
L 222.798347 22.587283 
L 218.876951 21.254819 
L 216.561743 20.470004 
L 214.955555 20.008303 
L 211.034159 18.892687 
L 208.18896 18.117166 
L 207.112764 17.862758 
L 203.191368 16.97729 
L 199.269972 16.164297 
L 197.143165 15.764329 
L 195.348576 15.466547 
L 191.42718 14.890051 
L 187.505784 14.401637 
L 183.584388 14.006711 
L 179.662992 13.709529 
L 175.741596 13.513222 
L 171.8202 13.419807 
L 167.898804 13.430193 
L 163.977409 13.5442 
L 160.056013 13.760586 
L 156.134617 14.077097 
L 152.213221 14.49054 
L 148.291825 14.996857 
L 144.370429 15.591223 
L 143.380947 15.764329 
L 140.449033 16.31846 
L 136.527637 17.145443 
L 132.606241 18.047035 
L 132.327249 18.117166 
L 128.684845 19.10648 
L 124.763449 20.234087 
L 123.991381 20.470004 
L 120.842054 21.511406 
L 117.016142 22.822841 
L 116.920658 22.858374 
L 112.999262 24.379081 
L 110.986536 25.175679 
L 109.077866 25.997673 
L 105.566381 27.528516 
L 105.15647 27.723786 
L 101.235074 29.605838 
L 100.658313 29.881354 
L 97.313678 31.634436 
L 96.148387 32.234192 
L 93.392282 33.80032 
L 91.963515 34.587029 
L 89.470886 36.113946 
L 88.056222 36.939867 
L 85.54949 38.583666 
L 84.390334 39.292704 
L 81.628094 41.213759 
L 80.942727 41.645542 
L 77.709854 43.998379 
L 77.706698 44.001101 
L 74.570658 46.351217 
L 73.785303 47.066067 
L 71.568282 48.704054 
L 69.863907 50.301778 
L 68.737462 51.056892 
L 66.163501 53.409729 
L 65.942511 53.725921 
L 63.183092 55.762567 
L 62.021115 57.660353 
L 60.991538 58.115405 
L 62.021115 60.468242 
L 62.021115 60.468242 
L 63.904252 62.82108 
L 65.942511 64.278167 
L 66.593322 65.173917 
L 68.95547 67.526755 
L 69.863907 68.257668 
L 71.327193 69.879592 
L 73.785303 72.23243 
L 73.785303 72.23243 
L 76.08197 74.585267 
L 77.706698 76.129301 
L 78.470638 76.938105 
L 80.827735 79.290942 
L 81.628094 80.06 
L 83.191404 81.64378 
L 85.54949 83.996618 
L 85.54949 83.996618 
L 87.919017 86.349455 
L 89.470886 87.914627 
L 90.277153 88.702293 
L 92.633497 91.05513 
L 93.392282 91.842905 
L 95.017745 93.407968 
L 97.313678 95.760805 
L 97.313678 95.760805 
L 99.753501 98.113643 
L 101.235074 99.702712 
L 102.102125 100.46648 
L 104.459609 102.819318 
L 105.15647 103.643746 
L 106.927472 105.172155 
L 109.077866 107.524993 
L 109.077866 107.524993 
L 111.844725 109.877831 
L 112.999262 111.65339 
L 116.767674 112.230668 
z
M 116.767674 112.230668 
L 112.999262 111.65339 
L 111.844725 109.877831 
L 109.077866 107.524993 
L 109.077866 107.524993 
L 106.927472 105.172155 
L 105.15647 103.643746 
L 104.459609 102.819318 
L 102.102125 100.46648 
L 101.235074 99.702712 
L 99.753501 98.113643 
L 97.313678 95.760805 
L 97.313678 95.760805 
L 95.017745 93.407968 
L 93.392282 91.842905 
L 92.633497 91.05513 
L 90.277153 88.702293 
L 89.470886 87.914627 
L 87.919017 86.349455 
L 85.54949 83.996618 
L 85.54949 83.996618 
L 83.191404 81.64378 
L 81.628094 80.06 
L 80.827735 79.290942 
L 78.470638 76.938105 
L 77.706698 76.129301 
L 76.08197 74.585267 
L 73.785303 72.23243 
L 73.785303 72.23243 
L 71.327193 69.879592 
L 69.863907 68.257668 
L 68.95547 67.526755 
L 66.593322 65.173917 
L 65.942511 64.278167 
L 63.904252 62.82108 
L 62.021115 60.468242 
L 62.021115 60.468242 
L 60.991538 58.115405 
L 62.021115 57.660353 
L 63.183092 55.762567 
L 65.942511 53.725921 
L 66.163501 53.409729 
L 68.737462 51.056892 
L 69.863907 50.301778 
L 71.568282 48.704054 
L 73.785303 47.066067 
L 74.570658 46.351217 
L 77.706698 44.001101 
L 77.709854 43.998379 
L 80.942727 41.645542 
L 81.628094 41.213759 
L 84.390334 39.292704 
L 85.54949 38.583666 
L 88.056222 36.939867 
L 89.470886 36.113946 
L 91.963515 34.587029 
L 93.392282 33.80032 
L 96.148387 32.234192 
L 97.313678 31.634436 
L 100.658313 29.881354 
L 101.235074 29.605838 
L 105.15647 27.723786 
L 105.566381 27.528516 
L 109.077866 25.997673 
L 110.986536 25.175679 
L 112.999262 24.379081 
L 116.920658 22.858374 
L 117.016142 22.822841 
L 120.842054 21.511406 
L 123.991381 20.470004 
L 124.763449 20.234087 
L 128.684845 19.10648 
L 132.327249 18.117166 
L 132.606241 18.047035 
L 136.527637 17.145443 
L 140.449033 16.31846 
L 143.380947 15.764329 
L 144.370429 15.591223 
L 148.291825 14.996857 
L 152.213221 14.49054 
L 156.134617 14.077097 
L 160.056013 13.760586 
L 163.977409 13.5442 
L 167.898804 13.430193 
L 171.8202 13.419807 
L 175.741596 13.513222 
L 179.662992 13.709529 
L 183.584388 14.006711 
L 187.505784 14.401637 
L 191.42718 14.890051 
L 195.348576 15.466547 
L 197.143165 15.764329 
L 199.269972 16.164297 
L 203.191368 16.97729 
L 207.112764 17.862758 
L 208.18896 18.117166 
L 211.034159 18.892687 
L 214.955555 20.008303 
L 216.561743 20.470004 
L 218.876951 21.254819 
L 222.798347 22.587283 
L 223.526196 22.822841 
L 226.719743 24.087656 
L 229.613094 25.175679 
L 230.641139 25.668883 
L 234.562535 27.370115 
L 235.015893 27.528516 
L 238.483931 29.267656 
L 240.160292 29.881354 
L 242.405327 31.313445 
L 245.12861 32.234192 
L 246.326723 33.736923 
L 247.854341 34.587029 
L 246.326723 36.920443 
L 246.324097 36.939867 
L 245.195819 39.292704 
L 243.773747 41.645542 
L 242.405327 43.679739 
L 242.263139 43.998379 
L 240.968662 46.351217 
L 239.584781 48.704054 
L 238.483931 50.48195 
L 238.183702 51.056892 
L 236.84391 53.409729 
L 235.471625 55.762567 
L 234.562535 57.285869 
L 234.09995 58.115405 
L 232.739826 60.468242 
L 231.37752 62.82108 
L 230.641139 64.090156 
L 230.01313 65.173917 
L 228.642039 67.526755 
L 227.291531 69.879592 
L 226.719743 70.89446 
L 225.922344 72.23243 
L 224.544757 74.585267 
L 223.210358 76.938105 
L 222.798347 77.698464 
L 221.824422 79.290942 
L 220.442502 81.64378 
L 219.133305 83.996618 
L 218.876951 84.501312 
L 217.709529 86.349455 
L 216.322795 88.702293 
L 215.062353 91.05513 
L 214.955555 91.298889 
L 213.530763 93.407968 
L 212.122033 95.760805 
L 211.034159 98.077699 
L 210.975483 98.113643 
L 207.112764 100.395399 
L 203.191368 98.427772 
L 202.750193 98.113643 
L 199.269972 96.721055 
L 197.040996 95.760805 
L 195.348576 95.238202 
L 191.42718 94.008696 
L 189.256898 93.407968 
L 187.505784 93.000177 
L 183.584388 92.211303 
L 179.662992 91.627938 
L 175.741596 91.24908 
L 171.8202 91.070914 
L 167.898804 91.090616 
L 163.977409 91.307913 
L 160.056013 91.725317 
L 156.134617 92.347426 
L 152.213221 93.179306 
L 151.325478 93.407968 
L 148.291825 94.227061 
L 144.370429 95.497296 
L 143.633033 95.760805 
L 140.449033 97.011234 
L 137.877683 98.113643 
L 136.527637 98.773396 
L 133.16696 100.46648 
L 132.606241 100.803266 
L 129.118202 102.819318 
L 128.684845 103.135749 
L 125.505325 105.172155 
L 124.763449 105.822732 
L 122.192234 107.524993 
L 120.842054 108.914104 
L 119.083868 109.877831 
L 116.938897 112.230668 
L 116.920658 112.371889 
z
" clip-path="url(#pa43eef71f2)" style="fill: #ffffff"/>
    <path d="M 50.256927 48.704054 
L 50.256927 48.704054 
L 50.256927 48.704054 
L 50.256927 48.704054 
z
M 50.256927 48.704054 
L 50.256927 48.704054 
L 50.256927 48.704054 
L 50.256927 48.704054 
z
" clip-path="url(#pa43eef71f2)" style="fill: #ffffff"/>
    <path d="M 38.492739 36.939867 
L 38.492739 36.939867 
L 38.492739 36.939867 
L 38.492739 36.939867 
z
M 38.492739 36.939867 
L 38.492739 36.939867 
L 38.492739 36.939867 
L 38.492739 36.939867 
z
" clip-path="url(#pa43eef71f2)" style="fill: #ffffff"/>
   </g>
   <g id="PathCollection_4">
    <path d="M 18.88576 168.698769 
L 22.807156 168.698769 
L 26.728552 168.698769 
L 30.649948 168.698769 
L 34.571343 168.698769 
L 38.492739 168.698769 
L 42.414135 168.698769 
L 46.335531 168.698769 
L 50.256927 168.698769 
L 54.178323 168.698769 
L 58.099719 168.698769 
L 62.021115 168.698769 
L 65.942511 168.698769 
L 69.863907 168.698769 
L 73.785303 168.698769 
L 77.706698 168.698769 
L 81.628094 168.698769 
L 85.54949 168.698769 
L 89.470886 168.698769 
L 93.392282 168.698769 
L 97.313678 168.698769 
L 101.235074 168.698769 
L 105.15647 168.698769 
L 109.077866 168.698769 
L 112.999262 168.698769 
L 116.920658 168.698769 
L 120.842054 168.698769 
L 124.763449 168.698769 
L 128.684845 168.698769 
L 132.606241 168.698769 
L 136.527637 168.698769 
L 140.449033 168.698769 
L 144.370429 168.698769 
L 148.291825 168.698769 
L 152.213221 168.698769 
L 156.134617 168.698769 
L 160.056013 168.698769 
L 163.977409 168.698769 
L 167.898804 166.345932 
L 171.8202 168.698769 
L 175.741596 168.698769 
L 179.662992 168.698769 
L 183.584388 168.698769 
L 187.505784 168.698769 
L 191.42718 168.698769 
L 195.348576 168.698769 
L 199.269972 168.698769 
L 203.191368 168.698769 
L 207.112764 168.698769 
L 211.034159 168.698769 
L 214.955555 168.698769 
L 218.876951 168.698769 
L 222.798347 168.698769 
L 226.719743 168.698769 
L 230.641139 168.698769 
L 234.562535 168.698769 
L 238.483931 166.345932 
L 242.405327 168.698769 
L 246.326723 168.698769 
L 250.248119 168.698769 
L 254.169515 168.698769 
L 258.09091 168.698769 
L 262.012306 168.698769 
L 265.933702 166.345932 
L 269.855098 168.698769 
L 273.776494 168.698769 
L 277.69789 168.698769 
L 281.619286 168.698769 
L 285.540682 166.345932 
L 289.462078 168.698769 
L 293.383474 168.698769 
L 297.30487 168.698769 
L 301.226265 168.698769 
L 305.147661 168.698769 
L 309.069057 168.698769 
L 312.990453 166.345932 
L 316.911849 168.698769 
L 320.833245 168.698769 
L 324.754641 168.698769 
L 328.676037 168.698769 
L 332.597433 168.698769 
L 336.518829 168.698769 
L 340.440225 168.698769 
L 344.36162 168.698769 
L 348.283016 168.698769 
L 352.204412 168.698769 
L 356.125808 168.698769 
L 360.047204 168.698769 
L 363.9686 168.698769 
L 367.889996 168.698769 
L 371.811392 168.698769 
L 375.732788 168.698769 
L 379.654184 168.698769 
L 383.57558 168.698769 
L 387.496976 168.698769 
L 391.418371 168.698769 
L 395.339767 168.698769 
L 399.261163 168.698769 
L 403.182559 168.698769 
L 403.182559 166.345932 
L 403.182559 163.993094 
L 403.182559 161.640257 
L 403.182559 159.287419 
L 403.182559 156.934581 
L 403.182559 154.581744 
L 403.182559 152.228906 
L 403.182559 149.876069 
L 403.182559 147.523231 
L 403.182559 145.170394 
L 403.182559 142.817556 
L 403.182559 140.464719 
L 403.182559 138.111881 
L 403.182559 135.759044 
L 403.182559 133.406206 
L 403.182559 131.053368 
L 403.182559 128.700531 
L 403.182559 126.347693 
L 403.182559 123.994856 
L 403.182559 121.642018 
L 403.182559 119.289181 
L 403.182559 116.936343 
L 403.182559 114.583506 
L 403.182559 112.230668 
L 403.182559 109.877831 
L 403.182559 107.524993 
L 403.182559 105.172155 
L 403.182559 102.819318 
L 403.182559 100.46648 
L 403.182559 98.113643 
L 403.182559 95.760805 
L 403.182559 93.407968 
L 403.182559 91.05513 
L 403.182559 88.702293 
L 403.182559 86.349455 
L 403.182559 83.996618 
L 403.182559 81.64378 
L 403.182559 79.290942 
L 403.182559 76.938105 
L 403.182559 74.585267 
L 403.182559 72.23243 
L 403.182559 69.879592 
L 403.182559 67.526755 
L 403.182559 65.173917 
L 403.182559 62.82108 
L 403.182559 60.468242 
L 403.182559 58.115405 
L 403.182559 55.762567 
L 403.182559 53.409729 
L 403.182559 51.056892 
L 403.182559 48.704054 
L 403.182559 46.351217 
L 403.182559 43.998379 
L 403.182559 41.645542 
L 403.182559 39.292704 
L 403.182559 36.939867 
L 403.182559 34.587029 
L 403.182559 32.234192 
L 403.182559 29.881354 
L 403.182559 27.528516 
L 403.182559 25.175679 
L 403.182559 22.822841 
L 403.182559 20.470004 
L 403.182559 18.117166 
L 403.182559 15.764329 
L 403.182559 13.411491 
L 403.182559 11.058654 
L 403.182559 8.705816 
L 403.182559 6.352978 
L 403.182559 4.000141 
L 403.182559 1.647303 
L 403.182559 -0.705534 
L 403.182559 -1 
M 14.964364 -1 
L 14.964364 -0.705534 
L 14.964364 1.647303 
L 14.964364 4.000141 
L 14.964364 6.352978 
L 14.964364 8.705816 
L 14.964364 11.058654 
L 14.964364 13.411491 
L 14.964364 15.764329 
L 14.964364 18.117166 
L 14.964364 20.470004 
L 14.964364 22.822841 
L 14.964364 25.175679 
L 14.964364 27.528516 
L 14.964364 29.881354 
L 14.964364 32.234192 
L 14.964364 34.587029 
L 14.964364 36.939867 
L 14.964364 39.292704 
L 14.964364 41.645542 
L 14.964364 43.998379 
L 14.964364 46.351217 
L 14.964364 48.704054 
L 14.964364 51.056892 
L 14.964364 53.409729 
L 14.964364 55.762567 
L 14.964364 58.115405 
L 14.964364 60.468242 
L 14.964364 62.82108 
L 14.964364 65.173917 
L 14.964364 67.526755 
L 14.964364 69.879592 
L 14.964364 72.23243 
L 14.964364 74.585267 
L 14.964364 76.938105 
L 14.964364 79.290942 
L 14.964364 81.64378 
L 14.964364 83.996618 
L 14.964364 86.349455 
L 14.964364 88.702293 
L 14.964364 91.05513 
L 14.964364 93.407968 
L 14.964364 95.760805 
L 14.964364 98.113643 
L 14.964364 100.46648 
L 14.964364 102.819318 
L 14.964364 105.172155 
L 14.964364 107.524993 
L 14.964364 109.877831 
L 14.964364 112.230668 
L 14.964364 114.583506 
L 14.964364 116.936343 
L 14.964364 119.289181 
L 14.964364 121.642018 
L 14.964364 123.994856 
L 14.964364 126.347693 
L 14.964364 128.700531 
L 14.964364 131.053368 
L 14.964364 133.406206 
L 14.964364 135.759044 
L 14.964364 138.111881 
L 14.964364 140.464719 
L 14.964364 142.817556 
L 14.964364 145.170394 
L 14.964364 147.523231 
L 14.964364 149.876069 
L 14.964364 152.228906 
L 14.964364 154.581744 
L 14.964364 156.934581 
L 14.964364 159.287419 
L 14.964364 161.640257 
L 14.964364 163.993094 
L 14.964364 166.345932 
L 14.964364 168.698769 
L 14.964364 168.698769 
L 18.88576 168.698769 
M 116.767674 112.230668 
L 112.999262 111.65339 
L 111.844725 109.877831 
L 109.077866 107.524993 
L 109.077866 107.524993 
L 106.927472 105.172155 
L 105.15647 103.643746 
L 104.459609 102.819318 
L 102.102125 100.46648 
L 101.235074 99.702712 
L 99.753501 98.113643 
L 97.313678 95.760805 
L 97.313678 95.760805 
L 95.017745 93.407968 
L 93.392282 91.842905 
L 92.633497 91.05513 
L 90.277153 88.702293 
L 89.470886 87.914627 
L 87.919017 86.349455 
L 85.54949 83.996618 
L 85.54949 83.996618 
L 83.191404 81.64378 
L 81.628094 80.06 
L 80.827735 79.290942 
L 78.470638 76.938105 
L 77.706698 76.129301 
L 76.08197 74.585267 
L 73.785303 72.23243 
L 73.785303 72.23243 
L 71.327193 69.879592 
L 69.863907 68.257668 
L 68.95547 67.526755 
L 66.593322 65.173917 
L 65.942511 64.278167 
L 63.904252 62.82108 
L 62.021115 60.468242 
L 62.021115 60.468242 
L 60.991538 58.115405 
L 62.021115 57.660353 
L 63.183092 55.762567 
L 65.942511 53.725921 
L 66.163501 53.409729 
L 68.737462 51.056892 
L 69.863907 50.301778 
L 71.568282 48.704054 
L 73.785303 47.066067 
L 74.570658 46.351217 
L 77.706698 44.001101 
L 77.709854 43.998379 
L 80.942727 41.645542 
L 81.628094 41.213759 
L 84.390334 39.292704 
L 85.54949 38.583666 
L 88.056222 36.939867 
L 89.470886 36.113946 
L 91.963515 34.587029 
L 93.392282 33.80032 
L 96.148387 32.234192 
L 97.313678 31.634436 
L 100.658313 29.881354 
L 101.235074 29.605838 
L 105.15647 27.723786 
L 105.566381 27.528516 
L 109.077866 25.997673 
L 110.986536 25.175679 
L 112.999262 24.379081 
L 116.920658 22.858374 
L 117.016142 22.822841 
L 120.842054 21.511406 
L 123.991381 20.470004 
L 124.763449 20.234087 
L 128.684845 19.10648 
L 132.327249 18.117166 
L 132.606241 18.047035 
L 136.527637 17.145443 
L 140.449033 16.31846 
L 143.380947 15.764329 
L 144.370429 15.591223 
L 148.291825 14.996857 
L 152.213221 14.49054 
L 156.134617 14.077097 
L 160.056013 13.760586 
L 163.977409 13.5442 
L 167.898804 13.430193 
L 171.8202 13.419807 
L 175.741596 13.513222 
L 179.662992 13.709529 
L 183.584388 14.006711 
L 187.505784 14.401637 
L 191.42718 14.890051 
L 195.348576 15.466547 
L 197.143165 15.764329 
L 199.269972 16.164297 
L 203.191368 16.97729 
L 207.112764 17.862758 
L 208.18896 18.117166 
L 211.034159 18.892687 
L 214.955555 20.008303 
L 216.561743 20.470004 
L 218.876951 21.254819 
L 222.798347 22.587283 
L 223.526196 22.822841 
L 226.719743 24.087656 
L 229.613094 25.175679 
L 230.641139 25.668883 
L 234.562535 27.370115 
L 235.015893 27.528516 
L 238.483931 29.267656 
L 240.160292 29.881354 
L 242.405327 31.313445 
L 245.12861 32.234192 
L 246.326723 33.736923 
L 247.854341 34.587029 
L 246.326723 36.920443 
L 246.324097 36.939867 
L 245.195819 39.292704 
L 243.773747 41.645542 
L 242.405327 43.679739 
L 242.263139 43.998379 
L 240.968662 46.351217 
L 239.584781 48.704054 
L 238.483931 50.48195 
L 238.183702 51.056892 
L 236.84391 53.409729 
L 235.471625 55.762567 
L 234.562535 57.285869 
L 234.09995 58.115405 
L 232.739826 60.468242 
L 231.37752 62.82108 
L 230.641139 64.090156 
L 230.01313 65.173917 
L 228.642039 67.526755 
L 227.291531 69.879592 
L 226.719743 70.89446 
L 225.922344 72.23243 
L 224.544757 74.585267 
L 223.210358 76.938105 
L 222.798347 77.698464 
L 221.824422 79.290942 
L 220.442502 81.64378 
L 219.133305 83.996618 
L 218.876951 84.501312 
L 217.709529 86.349455 
L 216.322795 88.702293 
L 215.062353 91.05513 
L 214.955555 91.298889 
L 213.530763 93.407968 
L 212.122033 95.760805 
L 211.034159 98.077699 
L 210.975483 98.113643 
L 207.112764 100.395399 
L 203.191368 98.427772 
L 202.750193 98.113643 
L 199.269972 96.721055 
L 197.040996 95.760805 
L 195.348576 95.238202 
L 191.42718 94.008696 
L 189.256898 93.407968 
L 187.505784 93.000177 
L 183.584388 92.211303 
L 179.662992 91.627938 
L 175.741596 91.24908 
L 171.8202 91.070914 
L 167.898804 91.090616 
L 163.977409 91.307913 
L 160.056013 91.725317 
L 156.134617 92.347426 
L 152.213221 93.179306 
L 151.325478 93.407968 
L 148.291825 94.227061 
L 144.370429 95.497296 
L 143.633033 95.760805 
L 140.449033 97.011234 
L 137.877683 98.113643 
L 136.527637 98.773396 
L 133.16696 100.46648 
L 132.606241 100.803266 
L 129.118202 102.819318 
L 128.684845 103.135749 
L 125.505325 105.172155 
L 124.763449 105.822732 
L 122.192234 107.524993 
L 120.842054 108.914104 
L 119.083868 109.877831 
L 116.938897 112.230668 
L 116.920658 112.371889 
L 116.767674 112.230668 
z
M 50.256927 48.704054 
L 50.256927 48.704054 
L 50.256927 48.704054 
L 50.256927 48.704054 
L 50.256927 48.704054 
z
M 38.492739 36.939867 
L 38.492739 36.939867 
L 38.492739 36.939867 
L 38.492739 36.939867 
L 38.492739 36.939867 
z
" clip-path="url(#pa43eef71f2)" style="fill: none"/>
   </g>
   <g id="matplotlib.axis_1">
    <g id="xtick_1">
     <g id="line2d_1">
      <defs>
       <path id="mc0531bf3f6" d="M 0 0 
L 0 3.5 
" style="stroke: #000000; stroke-width: 0.8"/>
      </defs>
      <g>
       <use xlink:href="#mc0531bf3f6" x="14.964364" y="168.698769" style="stroke: #000000; stroke-width: 0.8"/>
      </g>
     </g>
     <g id="text_1">
      <!-- −2 -->
      <g transform="translate(7.59327 183.297207) scale(0.1 -0.1)">
       <defs>
        <path id="DejaVuSans-2212" d="M 678 2272 
L 4684 2272 
L 4684 1741 
L 678 1741 
L 678 2272 
z
" transform="scale(0.015625)"/>
        <path id="DejaVuSans-32" d="M 1228 531 
L 3431 531 
L 3431 0 
L 469 0 
L 469 531 
Q 828 903 1448 1529 
Q 2069 2156 2228 2338 
Q 2531 2678 2651 2914 
Q 2772 3150 2772 3378 
Q 2772 3750 2511 3984 
Q 2250 4219 1831 4219 
Q 1534 4219 1204 4116 
Q 875 4013 500 3803 
L 500 4441 
Q 881 4594 1212 4672 
Q 1544 4750 1819 4750 
Q 2544 4750 2975 4387 
Q 3406 4025 3406 3419 
Q 3406 3131 3298 2873 
Q 3191 2616 2906 2266 
Q 2828 2175 2409 1742 
Q 1991 1309 1228 531 
z
" transform="scale(0.015625)"/>
       </defs>
       <use xlink:href="#DejaVuSans-2212"/>
       <use xlink:href="#DejaVuSans-32" x="83.789062"/>
      </g>
     </g>
    </g>
    <g id="xtick_2">
     <g id="line2d_2">
      <g>
       <use xlink:href="#mc0531bf3f6" x="92.608003" y="168.698769" style="stroke: #000000; stroke-width: 0.8"/>
      </g>
     </g>
     <g id="text_2">
      <!-- −1 -->
      <g transform="translate(85.236909 183.297207) scale(0.1 -0.1)">
       <defs>
        <path id="DejaVuSans-31" d="M 794 531 
L 1825 531 
L 1825 4091 
L 703 3866 
L 703 4441 
L 1819 4666 
L 2450 4666 
L 2450 531 
L 3481 531 
L 3481 0 
L 794 0 
L 794 531 
z
" transform="scale(0.015625)"/>
       </defs>
       <use xlink:href="#DejaVuSans-2212"/>
       <use xlink:href="#DejaVuSans-31" x="83.789062"/>
      </g>
     </g>
    </g>
    <g id="xtick_3">
     <g id="line2d_3">
      <g>
       <use xlink:href="#mc0531bf3f6" x="170.251642" y="168.698769" style="stroke: #000000; stroke-width: 0.8"/>
      </g>
     </g>
    </g>
    <g id="xtick_4">
     <g id="line2d_4">
      <g>
       <use xlink:href="#mc0531bf3f6" x="247.895281" y="168.698769" style="stroke: #000000; stroke-width: 0.8"/>
      </g>
     </g>
     <g id="text_3">
      <!-- 1 -->
      <g transform="translate(244.714031 183.297207) scale(0.1 -0.1)">
       <use xlink:href="#DejaVuSans-31"/>
      </g>
     </g>
    </g>
    <g id="xtick_5">
     <g id="line2d_5">
      <g>
       <use xlink:href="#mc0531bf3f6" x="325.53892" y="168.698769" style="stroke: #000000; stroke-width: 0.8"/>
      </g>
     </g>
     <g id="text_4">
      <!-- 2 -->
      <g transform="translate(322.35767 183.297207) scale(0.1 -0.1)">
       <use xlink:href="#DejaVuSans-32"/>
      </g>
     </g>
    </g>
    <g id="xtick_6">
     <g id="line2d_6">
      <g>
       <use xlink:href="#mc0531bf3f6" x="403.182559" y="168.698769" style="stroke: #000000; stroke-width: 0.8"/>
      </g>
     </g>
     <g id="text_5">
      <!-- 3 -->
      <g transform="translate(400.001309 183.297207) scale(0.1 -0.1)">
       <defs>
        <path id="DejaVuSans-33" d="M 2597 2516 
Q 3050 2419 3304 2112 
Q 3559 1806 3559 1356 
Q 3559 666 3084 287 
Q 2609 -91 1734 -91 
Q 1441 -91 1130 -33 
Q 819 25 488 141 
L 488 750 
Q 750 597 1062 519 
Q 1375 441 1716 441 
Q 2309 441 2620 675 
Q 2931 909 2931 1356 
Q 2931 1769 2642 2001 
Q 2353 2234 1838 2234 
L 1294 2234 
L 1294 2753 
L 1863 2753 
Q 2328 2753 2575 2939 
Q 2822 3125 2822 3475 
Q 2822 3834 2567 4026 
Q 2313 4219 1838 4219 
Q 1578 4219 1281 4162 
Q 984 4106 628 3988 
L 628 4550 
Q 988 4650 1302 4700 
Q 1616 4750 1894 4750 
Q 2613 4750 3031 4423 
Q 3450 4097 3450 3541 
Q 3450 3153 3228 2886 
Q 3006 2619 2597 2516 
z
" transform="scale(0.015625)"/>
       </defs>
       <use xlink:href="#DejaVuSans-33"/>
      </g>
     </g>
    </g>
    <g id="xtick_7">
     <g id="line2d_7">
      <defs>
       <path id="m4ce1d19630" d="M 0 0 
L 0 2 
" style="stroke: #000000; stroke-width: 0.6"/>
      </defs>
      <g>
       <use xlink:href="#m4ce1d19630" x="30.493092" y="168.698769" style="stroke: #000000; stroke-width: 0.6"/>
      </g>
     </g>
    </g>
    <g id="xtick_8">
     <g id="line2d_8">
      <g>
       <use xlink:href="#m4ce1d19630" x="46.02182" y="168.698769" style="stroke: #000000; stroke-width: 0.6"/>
      </g>
     </g>
    </g>
    <g id="xtick_9">
     <g id="line2d_9">
      <g>
       <use xlink:href="#m4ce1d19630" x="61.550547" y="168.698769" style="stroke: #000000; stroke-width: 0.6"/>
      </g>
     </g>
    </g>
    <g id="xtick_10">
     <g id="line2d_10">
      <g>
       <use xlink:href="#m4ce1d19630" x="77.079275" y="168.698769" style="stroke: #000000; stroke-width: 0.6"/>
      </g>
     </g>
    </g>
    <g id="xtick_11">
     <g id="line2d_11">
      <g>
       <use xlink:href="#m4ce1d19630" x="108.136731" y="168.698769" style="stroke: #000000; stroke-width: 0.6"/>
      </g>
     </g>
    </g>
    <g id="xtick_12">
     <g id="line2d_12">
      <g>
       <use xlink:href="#m4ce1d19630" x="123.665459" y="168.698769" style="stroke: #000000; stroke-width: 0.6"/>
      </g>
     </g>
    </g>
    <g id="xtick_13">
     <g id="line2d_13">
      <g>
       <use xlink:href="#m4ce1d19630" x="139.194186" y="168.698769" style="stroke: #000000; stroke-width: 0.6"/>
      </g>
     </g>
    </g>
    <g id="xtick_14">
     <g id="line2d_14">
      <g>
       <use xlink:href="#m4ce1d19630" x="154.722914" y="168.698769" style="stroke: #000000; stroke-width: 0.6"/>
      </g>
     </g>
    </g>
    <g id="xtick_15">
     <g id="line2d_15">
      <g>
       <use xlink:href="#m4ce1d19630" x="185.78037" y="168.698769" style="stroke: #000000; stroke-width: 0.6"/>
      </g>
     </g>
    </g>
    <g id="xtick_16">
     <g id="line2d_16">
      <g>
       <use xlink:href="#m4ce1d19630" x="201.309098" y="168.698769" style="stroke: #000000; stroke-width: 0.6"/>
      </g>
     </g>
    </g>
    <g id="xtick_17">
     <g id="line2d_17">
      <g>
       <use xlink:href="#m4ce1d19630" x="216.837825" y="168.698769" style="stroke: #000000; stroke-width: 0.6"/>
      </g>
     </g>
    </g>
    <g id="xtick_18">
     <g id="line2d_18">
      <g>
       <use xlink:href="#m4ce1d19630" x="232.366553" y="168.698769" style="stroke: #000000; stroke-width: 0.6"/>
      </g>
     </g>
    </g>
    <g id="xtick_19">
     <g id="line2d_19">
      <g>
       <use xlink:href="#m4ce1d19630" x="263.424009" y="168.698769" style="stroke: #000000; stroke-width: 0.6"/>
      </g>
     </g>
    </g>
    <g id="xtick_20">
     <g id="line2d_20">
      <g>
       <use xlink:href="#m4ce1d19630" x="278.952737" y="168.698769" style="stroke: #000000; stroke-width: 0.6"/>
      </g>
     </g>
    </g>
    <g id="xtick_21">
     <g id="line2d_21">
      <g>
       <use xlink:href="#m4ce1d19630" x="294.481464" y="168.698769" style="stroke: #000000; stroke-width: 0.6"/>
      </g>
     </g>
    </g>
    <g id="xtick_22">
     <g id="line2d_22">
      <g>
       <use xlink:href="#m4ce1d19630" x="310.010192" y="168.698769" style="stroke: #000000; stroke-width: 0.6"/>
      </g>
     </g>
    </g>
    <g id="xtick_23">
     <g id="line2d_23">
      <g>
       <use xlink:href="#m4ce1d19630" x="341.067648" y="168.698769" style="stroke: #000000; stroke-width: 0.6"/>
      </g>
     </g>
    </g>
    <g id="xtick_24">
     <g id="line2d_24">
      <g>
       <use xlink:href="#m4ce1d19630" x="356.596376" y="168.698769" style="stroke: #000000; stroke-width: 0.6"/>
      </g>
     </g>
    </g>
    <g id="xtick_25">
     <g id="line2d_25">
      <g>
       <use xlink:href="#m4ce1d19630" x="372.125104" y="168.698769" style="stroke: #000000; stroke-width: 0.6"/>
      </g>
     </g>
    </g>
    <g id="xtick_26">
     <g id="line2d_26">
      <g>
       <use xlink:href="#m4ce1d19630" x="387.653831" y="168.698769" style="stroke: #000000; stroke-width: 0.6"/>
      </g>
     </g>
    </g>
   </g>
   <g id="matplotlib.axis_2">
    <g id="ytick_1">
     <g id="line2d_27">
      <defs>
       <path id="m5f2a5aacfe" d="M 0 0 
L -3.5 0 
" style="stroke: #000000; stroke-width: 0.8"/>
      </defs>
      <g>
       <use xlink:href="#m5f2a5aacfe" x="170.251642" y="323.986047" style="stroke: #000000; stroke-width: 0.8"/>
      </g>
     </g>
     <g id="text_6">
      <!-- −2.0 -->
      <g transform="translate(138.96883 327.785266) scale(0.1 -0.1)">
       <defs>
        <path id="DejaVuSans-2e" d="M 684 794 
L 1344 794 
L 1344 0 
L 684 0 
L 684 794 
z
" transform="scale(0.015625)"/>
        <path id="DejaVuSans-30" d="M 2034 4250 
Q 1547 4250 1301 3770 
Q 1056 3291 1056 2328 
Q 1056 1369 1301 889 
Q 1547 409 2034 409 
Q 2525 409 2770 889 
Q 3016 1369 3016 2328 
Q 3016 3291 2770 3770 
Q 2525 4250 2034 4250 
z
M 2034 4750 
Q 2819 4750 3233 4129 
Q 3647 3509 3647 2328 
Q 3647 1150 3233 529 
Q 2819 -91 2034 -91 
Q 1250 -91 836 529 
Q 422 1150 422 2328 
Q 422 3509 836 4129 
Q 1250 4750 2034 4750 
z
" transform="scale(0.015625)"/>
       </defs>
       <use xlink:href="#DejaVuSans-2212"/>
       <use xlink:href="#DejaVuSans-32" x="83.789062"/>
       <use xlink:href="#DejaVuSans-2e" x="147.412109"/>
       <use xlink:href="#DejaVuSans-30" x="179.199219"/>
      </g>
     </g>
    </g>
    <g id="ytick_2">
     <g id="line2d_28">
      <g>
       <use xlink:href="#m5f2a5aacfe" x="170.251642" y="285.164228" style="stroke: #000000; stroke-width: 0.8"/>
      </g>
     </g>
     <g id="text_7">
      <!-- −1.5 -->
      <g transform="translate(138.96883 288.963447) scale(0.1 -0.1)">
       <defs>
        <path id="DejaVuSans-35" d="M 691 4666 
L 3169 4666 
L 3169 4134 
L 1269 4134 
L 1269 2991 
Q 1406 3038 1543 3061 
Q 1681 3084 1819 3084 
Q 2600 3084 3056 2656 
Q 3513 2228 3513 1497 
Q 3513 744 3044 326 
Q 2575 -91 1722 -91 
Q 1428 -91 1123 -41 
Q 819 9 494 109 
L 494 744 
Q 775 591 1075 516 
Q 1375 441 1709 441 
Q 2250 441 2565 725 
Q 2881 1009 2881 1497 
Q 2881 1984 2565 2268 
Q 2250 2553 1709 2553 
Q 1456 2553 1204 2497 
Q 953 2441 691 2322 
L 691 4666 
z
" transform="scale(0.015625)"/>
       </defs>
       <use xlink:href="#DejaVuSans-2212"/>
       <use xlink:href="#DejaVuSans-31" x="83.789062"/>
       <use xlink:href="#DejaVuSans-2e" x="147.412109"/>
       <use xlink:href="#DejaVuSans-35" x="179.199219"/>
      </g>
     </g>
    </g>
    <g id="ytick_3">
     <g id="line2d_29">
      <g>
       <use xlink:href="#m5f2a5aacfe" x="170.251642" y="246.342408" style="stroke: #000000; stroke-width: 0.8"/>
      </g>
     </g>
     <g id="text_8">
      <!-- −1.0 -->
      <g transform="translate(138.96883 250.141627) scale(0.1 -0.1)">
       <use xlink:href="#DejaVuSans-2212"/>
       <use xlink:href="#DejaVuSans-31" x="83.789062"/>
       <use xlink:href="#DejaVuSans-2e" x="147.412109"/>
       <use xlink:href="#DejaVuSans-30" x="179.199219"/>
      </g>
     </g>
    </g>
    <g id="ytick_4">
     <g id="line2d_30">
      <g>
       <use xlink:href="#m5f2a5aacfe" x="170.251642" y="207.520589" style="stroke: #000000; stroke-width: 0.8"/>
      </g>
     </g>
     <g id="text_9">
      <!-- −0.5 -->
      <g transform="translate(138.96883 211.319808) scale(0.1 -0.1)">
       <use xlink:href="#DejaVuSans-2212"/>
       <use xlink:href="#DejaVuSans-30" x="83.789062"/>
       <use xlink:href="#DejaVuSans-2e" x="147.412109"/>
       <use xlink:href="#DejaVuSans-35" x="179.199219"/>
      </g>
     </g>
    </g>
    <g id="ytick_5">
     <g id="line2d_31">
      <g>
       <use xlink:href="#m5f2a5aacfe" x="170.251642" y="168.698769" style="stroke: #000000; stroke-width: 0.8"/>
      </g>
     </g>
    </g>
    <g id="ytick_6">
     <g id="line2d_32">
      <g>
       <use xlink:href="#m5f2a5aacfe" x="170.251642" y="129.87695" style="stroke: #000000; stroke-width: 0.8"/>
      </g>
     </g>
     <g id="text_10">
      <!-- 0.5 -->
      <g transform="translate(147.348517 133.676168) scale(0.1 -0.1)">
       <use xlink:href="#DejaVuSans-30"/>
       <use xlink:href="#DejaVuSans-2e" x="63.623047"/>
       <use xlink:href="#DejaVuSans-35" x="95.410156"/>
      </g>
     </g>
    </g>
    <g id="ytick_7">
     <g id="line2d_33">
      <g>
       <use xlink:href="#m5f2a5aacfe" x="170.251642" y="91.05513" style="stroke: #000000; stroke-width: 0.8"/>
      </g>
     </g>
     <g id="text_11">
      <!-- 1.0 -->
      <g transform="translate(147.348517 94.854349) scale(0.1 -0.1)">
       <use xlink:href="#DejaVuSans-31"/>
       <use xlink:href="#DejaVuSans-2e" x="63.623047"/>
       <use xlink:href="#DejaVuSans-30" x="95.410156"/>
      </g>
     </g>
    </g>
    <g id="ytick_8">
     <g id="line2d_34">
      <g>
       <use xlink:href="#m5f2a5aacfe" x="170.251642" y="52.233311" style="stroke: #000000; stroke-width: 0.8"/>
      </g>
     </g>
     <g id="text_12">
      <!-- 1.5 -->
      <g transform="translate(147.348517 56.032529) scale(0.1 -0.1)">
       <use xlink:href="#DejaVuSans-31"/>
       <use xlink:href="#DejaVuSans-2e" x="63.623047"/>
       <use xlink:href="#DejaVuSans-35" x="95.410156"/>
      </g>
     </g>
    </g>
    <g id="ytick_9">
     <g id="line2d_35">
      <g>
       <use xlink:href="#m5f2a5aacfe" x="170.251642" y="13.411491" style="stroke: #000000; stroke-width: 0.8"/>
      </g>
     </g>
     <g id="text_13">
      <!-- 2.0 -->
      <g transform="translate(147.348517 17.21071) scale(0.1 -0.1)">
       <use xlink:href="#DejaVuSans-32"/>
       <use xlink:href="#DejaVuSans-2e" x="63.623047"/>
       <use xlink:href="#DejaVuSans-30" x="95.410156"/>
      </g>
     </g>
    </g>
    <g id="ytick_10">
     <g id="line2d_36">
      <defs>
       <path id="mba0a3080a2" d="M 0 0 
L -2 0 
" style="stroke: #000000; stroke-width: 0.6"/>
      </defs>
      <g>
       <use xlink:href="#mba0a3080a2" x="170.251642" y="316.221683" style="stroke: #000000; stroke-width: 0.6"/>
      </g>
     </g>
    </g>
    <g id="ytick_11">
     <g id="line2d_37">
      <g>
       <use xlink:href="#mba0a3080a2" x="170.251642" y="308.45732" style="stroke: #000000; stroke-width: 0.6"/>
      </g>
     </g>
    </g>
    <g id="ytick_12">
     <g id="line2d_38">
      <g>
       <use xlink:href="#mba0a3080a2" x="170.251642" y="300.692956" style="stroke: #000000; stroke-width: 0.6"/>
      </g>
     </g>
    </g>
    <g id="ytick_13">
     <g id="line2d_39">
      <g>
       <use xlink:href="#mba0a3080a2" x="170.251642" y="292.928592" style="stroke: #000000; stroke-width: 0.6"/>
      </g>
     </g>
    </g>
    <g id="ytick_14">
     <g id="line2d_40">
      <g>
       <use xlink:href="#mba0a3080a2" x="170.251642" y="277.399864" style="stroke: #000000; stroke-width: 0.6"/>
      </g>
     </g>
    </g>
    <g id="ytick_15">
     <g id="line2d_41">
      <g>
       <use xlink:href="#mba0a3080a2" x="170.251642" y="269.6355" style="stroke: #000000; stroke-width: 0.6"/>
      </g>
     </g>
    </g>
    <g id="ytick_16">
     <g id="line2d_42">
      <g>
       <use xlink:href="#mba0a3080a2" x="170.251642" y="261.871136" style="stroke: #000000; stroke-width: 0.6"/>
      </g>
     </g>
    </g>
    <g id="ytick_17">
     <g id="line2d_43">
      <g>
       <use xlink:href="#mba0a3080a2" x="170.251642" y="254.106772" style="stroke: #000000; stroke-width: 0.6"/>
      </g>
     </g>
    </g>
    <g id="ytick_18">
     <g id="line2d_44">
      <g>
       <use xlink:href="#mba0a3080a2" x="170.251642" y="238.578044" style="stroke: #000000; stroke-width: 0.6"/>
      </g>
     </g>
    </g>
    <g id="ytick_19">
     <g id="line2d_45">
      <g>
       <use xlink:href="#mba0a3080a2" x="170.251642" y="230.81368" style="stroke: #000000; stroke-width: 0.6"/>
      </g>
     </g>
    </g>
    <g id="ytick_20">
     <g id="line2d_46">
      <g>
       <use xlink:href="#mba0a3080a2" x="170.251642" y="223.049317" style="stroke: #000000; stroke-width: 0.6"/>
      </g>
     </g>
    </g>
    <g id="ytick_21">
     <g id="line2d_47">
      <g>
       <use xlink:href="#mba0a3080a2" x="170.251642" y="215.284953" style="stroke: #000000; stroke-width: 0.6"/>
      </g>
     </g>
    </g>
    <g id="ytick_22">
     <g id="line2d_48">
      <g>
       <use xlink:href="#mba0a3080a2" x="170.251642" y="199.756225" style="stroke: #000000; stroke-width: 0.6"/>
      </g>
     </g>
    </g>
    <g id="ytick_23">
     <g id="line2d_49">
      <g>
       <use xlink:href="#mba0a3080a2" x="170.251642" y="191.991861" style="stroke: #000000; stroke-width: 0.6"/>
      </g>
     </g>
    </g>
    <g id="ytick_24">
     <g id="line2d_50">
      <g>
       <use xlink:href="#mba0a3080a2" x="170.251642" y="184.227497" style="stroke: #000000; stroke-width: 0.6"/>
      </g>
     </g>
    </g>
    <g id="ytick_25">
     <g id="line2d_51">
      <g>
       <use xlink:href="#mba0a3080a2" x="170.251642" y="176.463133" style="stroke: #000000; stroke-width: 0.6"/>
      </g>
     </g>
    </g>
    <g id="ytick_26">
     <g id="line2d_52">
      <g>
       <use xlink:href="#mba0a3080a2" x="170.251642" y="160.934405" style="stroke: #000000; stroke-width: 0.6"/>
      </g>
     </g>
    </g>
    <g id="ytick_27">
     <g id="line2d_53">
      <g>
       <use xlink:href="#mba0a3080a2" x="170.251642" y="153.170041" style="stroke: #000000; stroke-width: 0.6"/>
      </g>
     </g>
    </g>
    <g id="ytick_28">
     <g id="line2d_54">
      <g>
       <use xlink:href="#mba0a3080a2" x="170.251642" y="145.405678" style="stroke: #000000; stroke-width: 0.6"/>
      </g>
     </g>
    </g>
    <g id="ytick_29">
     <g id="line2d_55">
      <g>
       <use xlink:href="#mba0a3080a2" x="170.251642" y="137.641314" style="stroke: #000000; stroke-width: 0.6"/>
      </g>
     </g>
    </g>
    <g id="ytick_30">
     <g id="line2d_56">
      <g>
       <use xlink:href="#mba0a3080a2" x="170.251642" y="122.112586" style="stroke: #000000; stroke-width: 0.6"/>
      </g>
     </g>
    </g>
    <g id="ytick_31">
     <g id="line2d_57">
      <g>
       <use xlink:href="#mba0a3080a2" x="170.251642" y="114.348222" style="stroke: #000000; stroke-width: 0.6"/>
      </g>
     </g>
    </g>
    <g id="ytick_32">
     <g id="line2d_58">
      <g>
       <use xlink:href="#mba0a3080a2" x="170.251642" y="106.583858" style="stroke: #000000; stroke-width: 0.6"/>
      </g>
     </g>
    </g>
    <g id="ytick_33">
     <g id="line2d_59">
      <g>
       <use xlink:href="#mba0a3080a2" x="170.251642" y="98.819494" style="stroke: #000000; stroke-width: 0.6"/>
      </g>
     </g>
    </g>
    <g id="ytick_34">
     <g id="line2d_60">
      <g>
       <use xlink:href="#mba0a3080a2" x="170.251642" y="83.290766" style="stroke: #000000; stroke-width: 0.6"/>
      </g>
     </g>
    </g>
    <g id="ytick_35">
     <g id="line2d_61">
      <g>
       <use xlink:href="#mba0a3080a2" x="170.251642" y="75.526402" style="stroke: #000000; stroke-width: 0.6"/>
      </g>
     </g>
    </g>
    <g id="ytick_36">
     <g id="line2d_62">
      <g>
       <use xlink:href="#mba0a3080a2" x="170.251642" y="67.762038" style="stroke: #000000; stroke-width: 0.6"/>
      </g>
     </g>
    </g>
    <g id="ytick_37">
     <g id="line2d_63">
      <g>
       <use xlink:href="#mba0a3080a2" x="170.251642" y="59.997675" style="stroke: #000000; stroke-width: 0.6"/>
      </g>
     </g>
    </g>
    <g id="ytick_38">
     <g id="line2d_64">
      <g>
       <use xlink:href="#mba0a3080a2" x="170.251642" y="44.468947" style="stroke: #000000; stroke-width: 0.6"/>
      </g>
     </g>
    </g>
    <g id="ytick_39">
     <g id="line2d_65">
      <g>
       <use xlink:href="#mba0a3080a2" x="170.251642" y="36.704583" style="stroke: #000000; stroke-width: 0.6"/>
      </g>
     </g>
    </g>
    <g id="ytick_40">
     <g id="line2d_66">
      <g>
       <use xlink:href="#mba0a3080a2" x="170.251642" y="28.940219" style="stroke: #000000; stroke-width: 0.6"/>
      </g>
     </g>
    </g>
    <g id="ytick_41">
     <g id="line2d_67">
      <g>
       <use xlink:href="#mba0a3080a2" x="170.251642" y="21.175855" style="stroke: #000000; stroke-width: 0.6"/>
      </g>
     </g>
    </g>
   </g>
   <g id="PathCollection_5">
    <path d="M 116.920658 112.371889 
L 116.767674 112.230668 
L 112.999262 111.65339 
L 111.844725 109.877831 
L 109.077866 107.524993 
L 109.077866 107.524993 
L 106.927472 105.172155 
L 105.15647 103.643746 
L 104.459609 102.819318 
L 102.102125 100.46648 
L 101.235074 99.702712 
L 99.753501 98.113643 
L 97.313678 95.760805 
L 97.313678 95.760805 
L 95.017745 93.407968 
L 93.392282 91.842905 
L 92.633497 91.05513 
L 90.277153 88.702293 
L 89.470886 87.914627 
L 87.919017 86.349455 
L 85.54949 83.996618 
L 85.54949 83.996618 
L 83.191404 81.64378 
L 81.628094 80.06 
L 80.827735 79.290942 
L 78.470638 76.938105 
L 77.706698 76.129301 
L 76.08197 74.585267 
L 73.785303 72.23243 
L 73.785303 72.23243 
L 71.327193 69.879592 
L 69.863907 68.257668 
L 68.95547 67.526755 
L 66.593322 65.173917 
L 65.942511 64.278167 
L 63.904252 62.82108 
L 62.021115 60.468242 
L 62.021115 60.468242 
L 60.991538 58.115405 
L 62.021115 57.660353 
L 63.183092 55.762567 
L 65.942511 53.725921 
L 66.163501 53.409729 
L 68.737462 51.056892 
L 69.863907 50.301778 
L 71.568282 48.704054 
L 73.785303 47.066067 
L 74.570658 46.351217 
L 77.706698 44.001101 
L 77.709854 43.998379 
L 80.942727 41.645542 
L 81.628094 41.213759 
L 84.390334 39.292704 
L 85.54949 38.583666 
L 88.056222 36.939867 
L 89.470886 36.113946 
L 91.963515 34.587029 
L 93.392282 33.80032 
L 96.148387 32.234192 
L 97.313678 31.634436 
L 100.658313 29.881354 
L 101.235074 29.605838 
L 105.15647 27.723786 
L 105.566381 27.528516 
L 109.077866 25.997673 
L 110.986536 25.175679 
L 112.999262 24.379081 
L 116.920658 22.858374 
L 117.016142 22.822841 
L 120.842054 21.511406 
L 123.991381 20.470004 
L 124.763449 20.234087 
L 128.684845 19.10648 
L 132.327249 18.117166 
L 132.606241 18.047035 
L 136.527637 17.145443 
L 140.449033 16.31846 
L 143.380947 15.764329 
L 144.370429 15.591223 
L 148.291825 14.996857 
L 152.213221 14.49054 
L 156.134617 14.077097 
L 160.056013 13.760586 
L 163.977409 13.5442 
L 167.898804 13.430193 
L 171.8202 13.419807 
L 175.741596 13.513222 
L 179.662992 13.709529 
L 183.584388 14.006711 
L 187.505784 14.401637 
L 191.42718 14.890051 
L 195.348576 15.466547 
L 197.143165 15.764329 
L 199.269972 16.164297 
L 203.191368 16.97729 
L 207.112764 17.862758 
L 208.18896 18.117166 
L 211.034159 18.892687 
L 214.955555 20.008303 
L 216.561743 20.470004 
L 218.876951 21.254819 
L 222.798347 22.587283 
L 223.526196 22.822841 
L 226.719743 24.087656 
L 229.613094 25.175679 
L 230.641139 25.668883 
L 234.562535 27.370115 
L 235.015893 27.528516 
L 238.483931 29.267656 
L 240.160292 29.881354 
L 242.405327 31.313445 
L 245.12861 32.234192 
L 246.326723 33.736923 
L 247.854341 34.587029 
L 246.326723 36.920443 
L 246.324097 36.939867 
L 245.195819 39.292704 
L 243.773747 41.645542 
L 242.405327 43.679739 
L 242.263139 43.998379 
L 240.968662 46.351217 
L 239.584781 48.704054 
L 238.483931 50.48195 
L 238.183702 51.056892 
L 236.84391 53.409729 
L 235.471625 55.762567 
L 234.562535 57.285869 
L 234.09995 58.115405 
L 232.739826 60.468242 
L 231.37752 62.82108 
L 230.641139 64.090156 
L 230.01313 65.173917 
L 228.642039 67.526755 
L 227.291531 69.879592 
L 226.719743 70.89446 
L 225.922344 72.23243 
L 224.544757 74.585267 
L 223.210358 76.938105 
L 222.798347 77.698464 
L 221.824422 79.290942 
L 220.442502 81.64378 
L 219.133305 83.996618 
L 218.876951 84.501312 
L 217.709529 86.349455 
L 216.322795 88.702293 
L 215.062353 91.05513 
L 214.955555 91.298889 
L 213.530763 93.407968 
L 212.122033 95.760805 
L 211.034159 98.077699 
L 210.975483 98.113643 
L 207.112764 100.395399 
L 203.191368 98.427772 
L 202.750193 98.113643 
L 199.269972 96.721055 
L 197.040996 95.760805 
L 195.348576 95.238202 
L 191.42718 94.008696 
L 189.256898 93.407968 
L 187.505784 93.000177 
L 183.584388 92.211303 
L 179.662992 91.627938 
L 175.741596 91.24908 
L 171.8202 91.070914 
L 167.898804 91.090616 
L 163.977409 91.307913 
L 160.056013 91.725317 
L 156.134617 92.347426 
L 152.213221 93.179306 
L 151.325478 93.407968 
L 148.291825 94.227061 
L 144.370429 95.497296 
L 143.633033 95.760805 
L 140.449033 97.011234 
L 137.877683 98.113643 
L 136.527637 98.773396 
L 133.16696 100.46648 
L 132.606241 100.803266 
L 129.118202 102.819318 
L 128.684845 103.135749 
L 125.505325 105.172155 
L 124.763449 105.822732 
L 122.192234 107.524993 
L 120.842054 108.914104 
L 119.083868 109.877831 
L 116.938897 112.230668 
L 116.920658 112.371889 
z
" clip-path="url(#pa43eef71f2)" style="fill: none; stroke: #add8e6; stroke-width: 1.5"/>
   </g>
   <g id="PathCollection_6">
    <path d="M 14.964364 168.698769 
L 14.964364 168.698769 
z
" clip-path="url(#pa43eef71f2)" style="fill: none; stroke: #ffffff; stroke-width: 1.5"/>
    <path d="M 116.920658 112.371889 
L 116.767674 112.230668 
L 112.999262 111.65339 
L 111.844725 109.877831 
L 109.077866 107.524993 
L 106.927472 105.172155 
L 105.15647 103.643746 
L 104.459609 102.819318 
L 65.942511 64.278167 
L 63.904252 62.82108 
L 62.021115 60.468242 
L 62.021115 60.468242 
L 60.991538 58.115405 
L 62.021115 57.660353 
L 63.183092 55.762567 
L 65.942511 53.725921 
L 66.163501 53.409729 
L 68.737462 51.056892 
L 69.863907 50.301778 
L 71.568282 48.704054 
L 74.570658 46.351217 
L 80.942727 41.645542 
L 81.628094 41.213759 
L 85.54949 38.583666 
L 89.470886 36.113946 
L 93.392282 33.80032 
L 97.313678 31.634436 
L 101.235074 29.605838 
L 105.566381 27.528516 
L 112.999262 24.379081 
L 117.016142 22.822841 
L 124.763449 20.234087 
L 132.606241 18.047035 
L 140.449033 16.31846 
L 144.370429 15.591223 
L 152.213221 14.49054 
L 160.056013 13.760586 
L 167.898804 13.430193 
L 175.741596 13.513222 
L 183.584388 14.006711 
L 191.42718 14.890051 
L 197.143165 15.764329 
L 203.191368 16.97729 
L 208.18896 18.117166 
L 216.561743 20.470004 
L 223.526196 22.822841 
L 230.641139 25.668883 
L 235.015893 27.528516 
L 238.483931 29.267656 
L 240.160292 29.881354 
L 242.405327 31.313445 
L 245.12861 32.234192 
L 246.326723 33.736923 
L 247.854341 34.587029 
L 246.324097 36.939867 
L 245.195819 39.292704 
L 243.773747 41.645542 
L 242.263139 43.998379 
L 239.584781 48.704054 
L 238.183702 51.056892 
L 230.641139 64.090156 
L 213.530763 93.407968 
L 212.122033 95.760805 
L 210.975483 98.113643 
L 207.112764 100.395399 
L 202.750193 98.113643 
L 195.348576 95.238202 
L 189.256898 93.407968 
L 187.505784 93.000177 
L 183.584388 92.211303 
L 179.662992 91.627938 
L 175.741596 91.24908 
L 171.8202 91.070914 
L 167.898804 91.090616 
L 163.977409 91.307913 
L 160.056013 91.725317 
L 156.134617 92.347426 
L 151.325478 93.407968 
L 148.291825 94.227061 
L 143.633033 95.760805 
L 137.877683 98.113643 
L 132.606241 100.803266 
L 128.684845 103.135749 
L 125.505325 105.172155 
L 124.763449 105.822732 
L 122.192234 107.524993 
L 120.842054 108.914104 
L 119.083868 109.877831 
L 116.920658 112.371889 
L 116.920658 112.371889 
" clip-path="url(#pa43eef71f2)" style="fill: none; stroke: #ffffff; stroke-width: 1.5"/>
    <path d="M 50.256927 48.704054 
L 50.256927 48.704054 
L 50.256927 48.704054 
L 50.256927 48.704054 
L 50.256927 48.704054 
z
" clip-path="url(#pa43eef71f2)" style="fill: none; stroke: #ffffff; stroke-width: 1.5"/>
    <path d="M 38.492739 36.939867 
L 38.492739 36.939867 
L 38.492739 36.939867 
L 38.492739 36.939867 
L 38.492739 36.939867 
z
" clip-path="url(#pa43eef71f2)" style="fill: none; stroke: #ffffff; stroke-width: 1.5"/>
   </g>
   <g id="PathCollection_7">
    <path d="M 14.964364 168.698769 
L 14.964364 168.698769 
" clip-path="url(#pa43eef71f2)" style="fill: none; stroke: #ffffff; stroke-width: 1.5"/>
    <path d="M 116.920658 112.371889 
L 116.767674 112.230668 
L 112.999262 111.65339 
L 111.844725 109.877831 
L 109.077866 107.524993 
L 106.927472 105.172155 
L 105.15647 103.643746 
L 104.459609 102.819318 
L 65.942511 64.278167 
L 63.904252 62.82108 
L 62.021115 60.468242 
L 62.021115 60.468242 
L 60.991538 58.115405 
L 62.021115 57.660353 
L 63.183092 55.762567 
L 65.942511 53.725921 
L 66.163501 53.409729 
L 68.737462 51.056892 
L 69.863907 50.301778 
L 71.568282 48.704054 
L 74.570658 46.351217 
L 80.942727 41.645542 
L 81.628094 41.213759 
L 85.54949 38.583666 
L 89.470886 36.113946 
L 93.392282 33.80032 
L 97.313678 31.634436 
L 101.235074 29.605838 
L 105.566381 27.528516 
L 112.999262 24.379081 
L 117.016142 22.822841 
L 124.763449 20.234087 
L 132.606241 18.047035 
L 140.449033 16.31846 
L 144.370429 15.591223 
L 152.213221 14.49054 
L 160.056013 13.760586 
L 167.898804 13.430193 
L 175.741596 13.513222 
L 183.584388 14.006711 
L 191.42718 14.890051 
L 197.143165 15.764329 
L 203.191368 16.97729 
L 208.18896 18.117166 
L 216.561743 20.470004 
L 223.526196 22.822841 
L 230.641139 25.668883 
L 235.015893 27.528516 
L 238.483931 29.267656 
L 240.160292 29.881354 
L 242.405327 31.313445 
L 245.12861 32.234192 
L 246.326723 33.736923 
L 247.854341 34.587029 
L 246.324097 36.939867 
L 245.195819 39.292704 
L 243.773747 41.645542 
L 242.263139 43.998379 
L 239.584781 48.704054 
L 238.183702 51.056892 
L 230.641139 64.090156 
L 213.530763 93.407968 
L 212.122033 95.760805 
L 210.975483 98.113643 
L 207.112764 100.395399 
L 202.750193 98.113643 
L 195.348576 95.238202 
L 189.256898 93.407968 
L 187.505784 93.000177 
L 183.584388 92.211303 
L 179.662992 91.627938 
L 175.741596 91.24908 
L 171.8202 91.070914 
L 167.898804 91.090616 
L 163.977409 91.307913 
L 160.056013 91.725317 
L 156.134617 92.347426 
L 151.325478 93.407968 
L 148.291825 94.227061 
L 143.633033 95.760805 
L 137.877683 98.113643 
L 132.606241 100.803266 
L 128.684845 103.135749 
L 125.505325 105.172155 
L 124.763449 105.822732 
L 122.192234 107.524993 
L 120.842054 108.914104 
L 119.083868 109.877831 
L 116.920658 112.371889 
L 116.920658 112.371889 
" clip-path="url(#pa43eef71f2)" style="fill: none; stroke: #ffffff; stroke-width: 1.5"/>
    <path d="M 50.256927 48.704054 
L 50.256927 48.704054 
L 50.256927 48.704054 
L 50.256927 48.704054 
L 50.256927 48.704054 
z
" clip-path="url(#pa43eef71f2)" style="fill: none; stroke: #ffffff; stroke-width: 1.5"/>
    <path d="M 38.492739 36.939867 
L 38.492739 36.939867 
L 38.492739 36.939867 
L 38.492739 36.939867 
L 38.492739 36.939867 
z
" clip-path="url(#pa43eef71f2)" style="fill: none; stroke: #ffffff; stroke-width: 1.5"/>
   </g>
   <g id="line2d_68">
    <path d="M 209.073462 168.698769 
L 208.974166 165.923914 
L 208.634719 162.878708 
L 208.129871 160.19151 
L 207.407277 157.447436 
L 206.366784 154.456922 
L 205.209883 151.815197 
L 203.770151 149.111957 
L 202.302191 146.792241 
L 200.566819 144.447507 
L 198.446308 142.011797 
L 196.379025 139.984774 
L 194.500193 138.381424 
L 191.845559 136.436773 
L 189.54925 135.012927 
L 187.007911 133.67933 
L 184.280686 132.500432 
L 181.361351 131.500543 
L 178.508772 130.765229 
L 175.438036 130.224947 
L 172.419778 129.93754 
L 169.513868 129.883961 
L 166.408937 130.067599 
L 163.314206 130.501837 
L 160.290427 131.176671 
L 157.418209 132.059492 
L 154.552864 133.192685 
L 151.727089 134.581697 
L 149.20776 136.075332 
L 146.562702 137.94218 
L 144.338665 139.791136 
L 142.80047 141.247597 
L 142.80047 141.247597 
" clip-path="url(#pa43eef71f2)" style="fill: none; stroke: #0000ff; stroke-linecap: square"/>
   </g>
   <g id="line2d_69">
    <path d="M 247.895281 168.698769 
L 247.812404 165.112282 
L 247.476925 160.649524 
L 246.884383 156.210468 
L 246.05449 151.892135 
L 245.090904 148.019807 
L 243.910562 144.144783 
L 242.739858 140.878035 
L 241.406051 137.624909 
L 239.482463 133.547267 
L 237.279945 129.510233 
L 234.825156 125.585013 
L 232.009262 121.639965 
L 229.870058 118.957648 
L 227.160949 115.879592 
L 224.880919 113.52471 
L 221.536523 110.403009 
L 217.976875 107.454693 
L 214.526042 104.915447 
L 211.309867 102.799172 
L 207.367887 100.501122 
L 203.931422 98.740159 
L 200.245348 97.082344 
L 197.249997 95.900256 
L 192.727032 94.379246 
L 189.23511 93.411568 
L 184.747966 92.420389 
L 180.438222 91.726253 
L 176.03633 91.270918 
L 171.881276 91.072234 
L 168.132043 91.084067 
L 163.737799 91.328849 
L 159.674161 91.778996 
L 155.304343 92.507477 
L 151.779431 93.284499 
L 147.428405 94.48533 
L 143.736185 95.722984 
L 139.612615 97.356042 
L 135.887414 99.073813 
L 131.893189 101.192001 
L 128.377074 103.314863 
L 125.274121 105.409297 
L 121.903158 107.945507 
L 118.886878 110.473382 
L 116.071188 113.083905 
L 115.349298 113.796426 
L 115.349298 113.796426 
" clip-path="url(#pa43eef71f2)" style="fill: none; stroke: #0000ff; stroke-linecap: square"/>
   </g>
   <g id="line2d_70">
    <path d="M 286.717101 168.698769 
L 286.588658 163.230513 
L 286.227361 158.029391 
L 285.665734 153.084981 
L 284.93685 148.413154 
L 284.120623 144.243542 
L 282.784911 138.690996 
L 281.560606 134.427534 
L 279.72464 128.951243 
L 278.138822 124.828967 
L 275.726599 119.310142 
L 273.190486 114.221275 
L 270.800896 109.927597 
L 267.579956 104.734699 
L 264.876137 100.798784 
L 261.862747 96.784873 
L 259.05592 93.346243 
L 256.253029 90.16238 
L 253.379061 87.126499 
L 248.847443 82.751674 
L 246.268089 80.46214 
L 241.477662 76.551837 
L 238.487872 74.316462 
L 234.224081 71.375956 
L 229.961317 68.703981 
L 225.896349 66.386162 
L 221.735424 64.230481 
L 216.920103 61.99236 
L 211.74627 59.875983 
L 207.141205 58.229936 
L 201.622507 56.53785 
L 196.818059 55.303758 
L 192.328412 54.344848 
L 186.923385 53.432746 
L 180.789522 52.711028 
L 175.558446 52.354277 
L 169.997764 52.233587 
L 164.850332 52.358626 
L 159.417736 52.738304 
L 153.537246 53.438924 
L 148.068267 54.365481 
L 143.875214 55.259415 
L 138.586445 56.62059 
L 133.221287 58.277051 
L 127.794035 60.248068 
L 123.802197 61.89684 
L 119.624178 63.812817 
L 114.482057 66.454178 
L 109.740836 69.186733 
L 105.250751 72.059817 
L 100.626785 75.33613 
L 96.904796 78.230856 
L 92.573647 81.921283 
L 88.600815 85.64851 
L 87.898126 86.345254 
L 87.898126 86.345254 
" clip-path="url(#pa43eef71f2)" style="fill: none; stroke: #0000ff; stroke-linecap: square"/>
   </g>
   <g id="line2d_71">
    <path d="M 325.53892 168.698769 
L 325.434996 163.018498 
L 325.154909 157.784716 
L 324.611813 151.755446 
L 323.803348 145.546832 
L 322.749675 139.398791 
L 321.364778 132.936236 
L 319.501641 125.820144 
L 317.619069 119.739806 
L 316.070814 115.304876 
L 314.05882 110.101549 
L 311.74671 104.719987 
L 309.15784 99.278262 
L 306.75754 94.669866 
L 304.311944 90.328021 
L 301.03124 84.968038 
L 298.05338 80.489618 
L 295.066745 76.311926 
L 291.083946 71.160608 
L 288.494267 68.036858 
L 283.792123 62.761534 
L 279.686818 58.52581 
L 275.709488 54.712886 
L 271.73188 51.157712 
L 267.287251 47.462515 
L 262.1329 43.511017 
L 258.152859 40.685041 
L 253.914896 37.875993 
L 248.478388 34.554389 
L 243.232137 31.629495 
L 238.957046 29.437482 
L 233.525298 26.886981 
L 228.978728 24.944576 
L 223.873086 22.96312 
L 219.303447 21.362219 
L 213.930334 19.680949 
L 208.283475 18.140746 
L 201.227604 16.532319 
L 194.819778 15.36728 
L 189.174573 14.568755 
L 184.175138 14.036961 
L 178.398224 13.625329 
L 172.134816 13.42291 
L 165.291683 13.490723 
L 160.177128 13.738636 
L 154.487984 14.21367 
L 147.960482 15.019744 
L 141.397883 16.115679 
L 135.219541 17.414631 
L 129.498109 18.854556 
L 124.363587 20.346401 
L 119.180309 22.050013 
L 113.853151 24.015152 
L 109.194221 25.918763 
L 104.644548 27.951308 
L 100.448597 29.984409 
L 94.163786 33.32973 
L 89.518932 36.047466 
L 84.692633 39.107895 
L 80.148622 42.225118 
L 75.706305 45.510628 
L 70.164299 49.969402 
L 65.095487 54.434507 
L 60.446955 58.894082 
L 60.446955 58.894082 
" clip-path="url(#pa43eef71f2)" style="fill: none; stroke: #0000ff; stroke-linecap: square"/>
   </g>
   <g id="line2d_72">
    <path d="M 170.251642 168.698769 
L 325.53892 168.698769 
L 325.53892 168.698769 
" clip-path="url(#pa43eef71f2)" style="fill: none; stroke: #ff0000; stroke-width: 1.75; stroke-linecap: square"/>
   </g>
   <g id="line2d_73">
    <path d="M 170.251642 168.698769 
L 320.247634 128.507464 
L 320.247634 128.507464 
" clip-path="url(#pa43eef71f2)" style="fill: none; stroke: #ff0000; stroke-width: 1.75; stroke-linecap: square"/>
   </g>
   <g id="line2d_74">
    <path d="M 170.251642 168.698769 
L 304.73437 91.05513 
L 304.73437 91.05513 
" clip-path="url(#pa43eef71f2)" style="fill: none; stroke: #ff0000; stroke-width: 1.75; stroke-linecap: square"/>
   </g>
   <g id="line2d_75">
    <path d="M 170.251642 168.698769 
L 280.056329 58.894082 
L 280.056329 58.894082 
" clip-path="url(#pa43eef71f2)" style="fill: none; stroke: #ff0000; stroke-width: 1.75; stroke-linecap: square"/>
   </g>
   <g id="line2d_76">
    <path d="M 170.251642 168.698769 
L 247.895281 34.216042 
L 247.895281 34.216042 
" clip-path="url(#pa43eef71f2)" style="fill: none; stroke: #ff0000; stroke-width: 1.75; stroke-linecap: square"/>
   </g>
   <g id="line2d_77">
    <path d="M 170.251642 168.698769 
L 210.442947 18.702777 
L 210.442947 18.702777 
" clip-path="url(#pa43eef71f2)" style="fill: none; stroke: #ff0000; stroke-width: 1.75; stroke-linecap: square"/>
   </g>
   <g id="line2d_78">
    <path d="M 170.251642 168.698769 
L 170.251642 13.411491 
L 170.251642 13.411491 
" clip-path="url(#pa43eef71f2)" style="fill: none; stroke: #ff0000; stroke-width: 1.75; stroke-linecap: square"/>
   </g>
   <g id="line2d_79">
    <path d="M 170.251642 168.698769 
L 130.060337 18.702777 
L 130.060337 18.702777 
" clip-path="url(#pa43eef71f2)" style="fill: none; stroke: #ff0000; stroke-width: 1.75; stroke-linecap: square"/>
   </g>
   <g id="line2d_80">
    <path d="M 170.251642 168.698769 
L 92.608003 34.216042 
L 92.608003 34.216042 
" clip-path="url(#pa43eef71f2)" style="fill: none; stroke: #ff0000; stroke-width: 1.75; stroke-linecap: square"/>
   </g>
   <g id="line2d_81">
    <path d="M 170.251642 168.698769 
L 60.446955 58.894082 
L 60.446955 58.894082 
" clip-path="url(#pa43eef71f2)" style="fill: none; stroke: #ff0000; stroke-width: 1.75; stroke-linecap: square"/>
   </g>
   <g id="patch_3">
    <path d="M 170.251642 330.197538 
L 170.251642 7.2 
" style="fill: none; stroke: #000000; stroke-width: 0.8; stroke-linejoin: miter; stroke-linecap: square"/>
   </g>
   <g id="patch_4">
    <path d="M 7.2 168.698769 
L 410.946923 168.698769 
" style="fill: none; stroke: #000000; stroke-width: 0.8; stroke-linejoin: miter; stroke-linecap: square"/>
   </g>
   <g id="text_14">
    <!-- $R$ -->
    <g transform="translate(149.402914 36.685526) scale(0.14 -0.14)">
     <defs>
      <path id="Cmmi10-52" d="M 313 0 
Q 250 0 250 84 
Q 253 100 262 139 
Q 272 178 289 201 
Q 306 225 331 225 
Q 722 225 878 269 
Q 959 297 997 441 
L 1875 3956 
Q 1888 4019 1888 4044 
Q 1888 4113 1813 4122 
Q 1691 4147 1350 4147 
Q 1288 4147 1288 4231 
Q 1291 4247 1300 4286 
Q 1309 4325 1326 4348 
Q 1344 4372 1369 4372 
L 3309 4372 
Q 3541 4372 3791 4319 
Q 4041 4266 4250 4152 
Q 4459 4038 4593 3848 
Q 4728 3659 4728 3406 
Q 4728 3084 4515 2831 
Q 4303 2578 3978 2408 
Q 3653 2238 3347 2169 
Q 3597 2078 3756 1879 
Q 3916 1681 3916 1422 
Q 3916 1388 3914 1370 
Q 3913 1353 3909 1331 
L 3859 763 
Q 3853 638 3847 550 
Q 3841 463 3841 409 
Q 3841 234 3892 129 
Q 3944 25 4097 25 
Q 4297 25 4448 211 
Q 4600 397 4647 616 
Q 4675 672 4709 672 
L 4769 672 
Q 4831 672 4831 588 
Q 4784 403 4682 237 
Q 4581 72 4426 -34 
Q 4272 -141 4091 -141 
Q 3716 -141 3452 26 
Q 3188 194 3188 550 
Q 3188 684 3213 788 
L 3353 1356 
Q 3378 1434 3378 1538 
Q 3378 1803 3198 1954 
Q 3019 2106 2747 2106 
L 1959 2106 
L 1538 416 
Q 1522 363 1522 325 
Q 1522 259 1600 250 
Q 1722 225 2059 225 
Q 2125 225 2125 141 
Q 2103 50 2090 25 
Q 2078 0 2016 0 
L 313 0 
z
M 1997 2272 
L 2706 2272 
Q 3403 2272 3756 2625 
Q 3919 2788 4014 3039 
Q 4109 3291 4109 3541 
Q 4109 3778 3970 3912 
Q 3831 4047 3626 4097 
Q 3422 4147 3175 4147 
L 2747 4147 
Q 2572 4147 2515 4117 
Q 2459 4088 2413 3928 
L 1997 2272 
z
" transform="scale(0.015625)"/>
     </defs>
     <use xlink:href="#Cmmi10-52" transform="translate(0 0.6875)"/>
    </g>
   </g>
  </g>
 </g>
 <defs>
  <clipPath id="pa43eef71f2">
   <rect x="7.2" y="7.2" width="403.746923" height="322.997538"/>
  </clipPath>
 </defs>
</svg>
