<?xml version="1.0" encoding="utf-8" standalone="no"?>
<!DOCTYPE svg PUBLIC "-//W3C//DTD SVG 1.1//EN"
  "http://www.w3.org/Graphics/SVG/1.1/DTD/svg11.dtd">
<svg xmlns:xlink="http://www.w3.org/1999/xlink" width="283.564615pt" height="337.397538pt" viewBox="0 0 283.564615 337.397538" xmlns="http://www.w3.org/2000/svg" version="1.1">
 <metadata>
  <rdf:RDF xmlns:dc="http://purl.org/dc/elements/1.1/" xmlns:cc="http://creativecommons.org/ns#" xmlns:rdf="http://www.w3.org/1999/02/22-rdf-syntax-ns#">
   <cc:Work>
    <dc:type rdf:resource="http://purl.org/dc/dcmitype/StillImage"/>
    <dc:date>2025-02-09T17:43:20.389563</dc:date>
    <dc:format>image/svg+xml</dc:format>
    <dc:creator>
     <cc:Agent>
      <dc:title>Matplotlib v3.6.2, https://matplotlib.org/</dc:title>
     </cc:Agent>
    </dc:creator>
   </cc:Work>
  </rdf:RDF>
 </metadata>
 <defs>
  <style type="text/css">*{stroke-linejoin: round; stroke-linecap: butt}</style>
 </defs>
 <g id="figure_1">
  <g id="patch_1">
   <path d="M 0 337.397538 
L 283.564615 337.397538 
L 283.564615 0 
L 0 0 
z
" style="fill: #ffffff"/>
  </g>
  <g id="axes_1">
   <g id="patch_2">
    <path d="M 7.2 330.197538 
L 276.364615 330.197538 
L 276.364615 7.2 
L 7.2 7.2 
z
" style="fill: #ffffff"/>
   </g>
   <g id="PathCollection_1">
    <path d="M 156.945039 147.55637 
L 157.990744 147.697863 
L 159.03645 147.191013 
L 159.843375 146.738952 
L 160.082155 146.656683 
L 161.127861 146.174165 
L 162.166911 145.693247 
L 162.173566 145.690645 
L 163.219272 145.223023 
L 164.264978 144.766439 
L 164.533723 144.647541 
L 165.310683 144.314237 
L 166.356389 143.873758 
L 167.021597 143.601835 
L 167.402094 143.442571 
L 168.4478 143.012065 
L 169.493505 142.602157 
L 169.615954 142.55613 
L 170.539211 142.181084 
L 171.584917 141.77702 
L 172.316199 141.510424 
L 172.630622 141.381675 
L 173.676328 140.978895 
L 174.722033 140.59877 
L 175.126764 140.464719 
L 175.767739 140.21017 
L 176.813445 139.826657 
L 177.85915 139.468868 
L 178.034343 139.419013 
L 178.904856 139.081801 
L 179.950561 138.712449 
L 180.996267 138.380843 
L 181.039658 138.373308 
L 182.041972 137.949875 
L 183.087406 137.327602 
L 182.773306 136.281896 
L 182.382766 135.236191 
L 182.041972 134.410996 
L 181.981323 134.190485 
L 181.594406 133.14478 
L 181.183772 132.099074 
L 180.996267 131.667639 
L 180.765623 131.053368 
L 180.336525 130.007663 
L 179.950561 129.102905 
L 179.89481 128.961957 
L 179.441687 127.916252 
L 178.978852 126.870546 
L 178.904856 126.711507 
L 178.500732 125.824841 
L 178.014882 124.779135 
L 177.85915 124.452467 
L 177.513422 123.733429 
L 177.004062 122.687724 
L 176.813445 122.29981 
L 176.47912 121.642018 
L 175.946896 120.596313 
L 175.767739 120.241999 
L 175.397257 119.550607 
L 174.844057 118.504902 
L 174.722033 118.268512 
L 174.267641 117.459196 
L 173.697097 116.41349 
L 173.676328 116.373463 
L 173.090885 115.367785 
L 172.630622 114.536539 
L 172.49325 114.322079 
L 171.869363 113.276374 
L 171.584917 112.753726 
L 171.23624 112.230668 
L 170.610145 111.184963 
L 170.539211 111.04241 
L 169.930169 110.139257 
L 169.493505 109.349283 
L 169.267716 109.093551 
L 168.587057 108.047846 
L 168.4478 107.605397 
L 167.627323 107.00214 
L 167.402094 106.477636 
L 167.241068 107.00214 
L 166.356389 107.377831 
L 165.557093 108.047846 
L 165.310683 108.15633 
L 164.264978 108.872771 
L 164.011949 109.093551 
L 163.219272 109.601265 
L 162.51401 110.139257 
L 162.173566 110.349875 
L 161.127861 111.102476 
L 161.026648 111.184963 
L 160.082155 111.855875 
L 159.599113 112.230668 
L 159.03645 112.625408 
L 158.175498 113.276374 
L 157.990744 113.406292 
L 156.945039 114.19553 
L 156.786049 114.322079 
L 155.899333 114.997215 
L 155.429904 115.367785 
L 154.853627 115.811559 
L 154.092451 116.41349 
L 153.807922 116.637084 
L 152.778988 117.459196 
L 152.762216 117.472761 
L 151.716511 118.329075 
L 151.499682 118.504902 
L 150.670805 119.200649 
L 150.243688 119.550607 
L 149.6251 120.086844 
L 149.01276 120.596313 
L 148.579394 120.987899 
L 147.808756 121.642018 
L 147.533688 121.904217 
L 146.633089 122.687724 
L 146.487983 122.836218 
L 145.486921 123.733429 
L 145.442277 123.783977 
L 144.396572 124.75633 
L 144.362873 124.779135 
L 143.350866 125.766407 
L 143.240943 125.824841 
L 142.30516 126.819246 
L 141.795444 126.870546 
L 142.30516 127.339824 
L 142.362625 127.916252 
L 143.350866 128.855337 
L 143.408053 128.961957 
L 144.396572 129.987121 
L 144.410127 130.007663 
L 145.369459 131.053368 
L 145.442277 131.117778 
L 146.304613 132.099074 
L 146.487983 132.280763 
L 147.217207 133.14478 
L 147.533688 133.487247 
L 148.105532 134.190485 
L 148.579394 134.74238 
L 148.967738 135.236191 
L 149.6251 136.051541 
L 149.801246 136.281896 
L 150.605655 137.327602 
L 150.670805 137.413311 
L 151.391227 138.373308 
L 151.716511 138.828731 
L 152.148042 139.419013 
L 152.762216 140.319529 
L 152.867818 140.464719 
L 153.575081 141.510424 
L 153.807922 141.899439 
L 154.258489 142.55613 
L 154.853627 143.558582 
L 154.885633 143.601835 
L 155.537811 144.647541 
L 155.899333 145.390095 
L 156.134391 145.693247 
L 156.729102 146.738952 
z
" clip-path="url(#pc2fe256b83)" style="fill: #add8e6"/>
   </g>
   <g id="PathCollection_2">
    <path d="M 156.945039 147.55637 
L 157.990744 147.697863 
L 159.03645 147.191013 
L 159.843375 146.738952 
L 160.082155 146.656683 
L 161.127861 146.174165 
L 162.166911 145.693247 
L 162.173566 145.690645 
L 163.219272 145.223023 
L 164.264978 144.766439 
L 164.533723 144.647541 
L 165.310683 144.314237 
L 166.356389 143.873758 
L 167.021597 143.601835 
L 167.402094 143.442571 
L 168.4478 143.012065 
L 169.493505 142.602157 
L 169.615954 142.55613 
L 170.539211 142.181084 
L 171.584917 141.77702 
L 172.316199 141.510424 
L 172.630622 141.381675 
L 173.676328 140.978895 
L 174.722033 140.59877 
L 175.126764 140.464719 
L 175.767739 140.21017 
L 176.813445 139.826657 
L 177.85915 139.468868 
L 178.034343 139.419013 
L 178.904856 139.081801 
L 179.950561 138.712449 
L 180.996267 138.380843 
L 181.039658 138.373308 
L 182.041972 137.949875 
L 183.087406 137.327602 
L 182.773306 136.281896 
L 182.382766 135.236191 
L 182.041972 134.410996 
L 181.981323 134.190485 
L 181.594406 133.14478 
L 181.183772 132.099074 
L 180.996267 131.667639 
L 180.765623 131.053368 
L 180.336525 130.007663 
L 179.950561 129.102905 
L 179.89481 128.961957 
L 179.441687 127.916252 
L 178.978852 126.870546 
L 178.904856 126.711507 
L 178.500732 125.824841 
L 178.014882 124.779135 
L 177.85915 124.452467 
L 177.513422 123.733429 
L 177.004062 122.687724 
L 176.813445 122.29981 
L 176.47912 121.642018 
L 175.946896 120.596313 
L 175.767739 120.241999 
L 175.397257 119.550607 
L 174.844057 118.504902 
L 174.722033 118.268512 
L 174.267641 117.459196 
L 173.697097 116.41349 
L 173.676328 116.373463 
L 173.090885 115.367785 
L 172.630622 114.536539 
L 172.49325 114.322079 
L 171.869363 113.276374 
L 171.584917 112.753726 
L 171.23624 112.230668 
L 170.610145 111.184963 
L 170.539211 111.04241 
L 169.930169 110.139257 
L 169.493505 109.349283 
L 169.267716 109.093551 
L 168.587057 108.047846 
L 168.4478 107.605397 
L 167.627323 107.00214 
L 167.402094 106.477636 
L 167.241068 107.00214 
L 166.356389 107.377831 
L 165.557093 108.047846 
L 165.310683 108.15633 
L 164.264978 108.872771 
L 164.011949 109.093551 
L 163.219272 109.601265 
L 162.51401 110.139257 
L 162.173566 110.349875 
L 161.127861 111.102476 
L 161.026648 111.184963 
L 160.082155 111.855875 
L 159.599113 112.230668 
L 159.03645 112.625408 
L 158.175498 113.276374 
L 157.990744 113.406292 
L 156.945039 114.19553 
L 156.786049 114.322079 
L 155.899333 114.997215 
L 155.429904 115.367785 
L 154.853627 115.811559 
L 154.092451 116.41349 
L 153.807922 116.637084 
L 152.778988 117.459196 
L 152.762216 117.472761 
L 151.716511 118.329075 
L 151.499682 118.504902 
L 150.670805 119.200649 
L 150.243688 119.550607 
L 149.6251 120.086844 
L 149.01276 120.596313 
L 148.579394 120.987899 
L 147.808756 121.642018 
L 147.533688 121.904217 
L 146.633089 122.687724 
L 146.487983 122.836218 
L 145.486921 123.733429 
L 145.442277 123.783977 
L 144.396572 124.75633 
L 144.362873 124.779135 
L 143.350866 125.766407 
L 143.240943 125.824841 
L 142.30516 126.819246 
L 141.795444 126.870546 
L 142.30516 127.339824 
L 142.362625 127.916252 
L 143.350866 128.855337 
L 143.408053 128.961957 
L 144.396572 129.987121 
L 144.410127 130.007663 
L 145.369459 131.053368 
L 145.442277 131.117778 
L 146.304613 132.099074 
L 146.487983 132.280763 
L 147.217207 133.14478 
L 147.533688 133.487247 
L 148.105532 134.190485 
L 148.579394 134.74238 
L 148.967738 135.236191 
L 149.6251 136.051541 
L 149.801246 136.281896 
L 150.605655 137.327602 
L 150.670805 137.413311 
L 151.391227 138.373308 
L 151.716511 138.828731 
L 152.148042 139.419013 
L 152.762216 140.319529 
L 152.867818 140.464719 
L 153.575081 141.510424 
L 153.807922 141.899439 
L 154.258489 142.55613 
L 154.853627 143.558582 
L 154.885633 143.601835 
L 155.537811 144.647541 
L 155.899333 145.390095 
L 156.134391 145.693247 
L 156.729102 146.738952 
z
M 156.729102 146.738952 
L 156.134391 145.693247 
L 155.899333 145.390095 
L 155.537811 144.647541 
L 154.885633 143.601835 
L 154.853627 143.558582 
L 154.258489 142.55613 
L 153.807922 141.899439 
L 153.575081 141.510424 
L 152.867818 140.464719 
L 152.762216 140.319529 
L 152.148042 139.419013 
L 151.716511 138.828731 
L 151.391227 138.373308 
L 150.670805 137.413311 
L 150.605655 137.327602 
L 149.801246 136.281896 
L 149.6251 136.051541 
L 148.967738 135.236191 
L 148.579394 134.74238 
L 148.105532 134.190485 
L 147.533688 133.487247 
L 147.217207 133.14478 
L 146.487983 132.280763 
L 146.304613 132.099074 
L 145.442277 131.117778 
L 145.369459 131.053368 
L 144.410127 130.007663 
L 144.396572 129.987121 
L 143.408053 128.961957 
L 143.350866 128.855337 
L 142.362625 127.916252 
L 142.30516 127.339824 
L 141.795444 126.870546 
L 142.30516 126.819246 
L 143.240943 125.824841 
L 143.350866 125.766407 
L 144.362873 124.779135 
L 144.396572 124.75633 
L 145.442277 123.783977 
L 145.486921 123.733429 
L 146.487983 122.836218 
L 146.633089 122.687724 
L 147.533688 121.904217 
L 147.808756 121.642018 
L 148.579394 120.987899 
L 149.01276 120.596313 
L 149.6251 120.086844 
L 150.243688 119.550607 
L 150.670805 119.200649 
L 151.499682 118.504902 
L 151.716511 118.329075 
L 152.762216 117.472761 
L 152.778988 117.459196 
L 153.807922 116.637084 
L 154.092451 116.41349 
L 154.853627 115.811559 
L 155.429904 115.367785 
L 155.899333 114.997215 
L 156.786049 114.322079 
L 156.945039 114.19553 
L 157.990744 113.406292 
L 158.175498 113.276374 
L 159.03645 112.625408 
L 159.599113 112.230668 
L 160.082155 111.855875 
L 161.026648 111.184963 
L 161.127861 111.102476 
L 162.173566 110.349875 
L 162.51401 110.139257 
L 163.219272 109.601265 
L 164.011949 109.093551 
L 164.264978 108.872771 
L 165.310683 108.15633 
L 165.557093 108.047846 
L 166.356389 107.377831 
L 167.241068 107.00214 
L 167.402094 106.477636 
L 167.627323 107.00214 
L 168.4478 107.605397 
L 168.587057 108.047846 
L 169.267716 109.093551 
L 169.493505 109.349283 
L 169.930169 110.139257 
L 170.539211 111.04241 
L 170.610145 111.184963 
L 171.23624 112.230668 
L 171.584917 112.753726 
L 171.869363 113.276374 
L 172.49325 114.322079 
L 172.630622 114.536539 
L 173.090885 115.367785 
L 173.676328 116.373463 
L 173.697097 116.41349 
L 174.267641 117.459196 
L 174.722033 118.268512 
L 174.844057 118.504902 
L 175.397257 119.550607 
L 175.767739 120.241999 
L 175.946896 120.596313 
L 176.47912 121.642018 
L 176.813445 122.29981 
L 177.004062 122.687724 
L 177.513422 123.733429 
L 177.85915 124.452467 
L 178.014882 124.779135 
L 178.500732 125.824841 
L 178.904856 126.711507 
L 178.978852 126.870546 
L 179.441687 127.916252 
L 179.89481 128.961957 
L 179.950561 129.102905 
L 180.336525 130.007663 
L 180.765623 131.053368 
L 180.996267 131.667639 
L 181.183772 132.099074 
L 181.594406 133.14478 
L 181.981323 134.190485 
L 182.041972 134.410996 
L 182.382766 135.236191 
L 182.773306 136.281896 
L 183.087406 137.327602 
L 182.041972 137.949875 
L 181.039658 138.373308 
L 180.996267 138.380843 
L 179.950561 138.712449 
L 178.904856 139.081801 
L 178.034343 139.419013 
L 177.85915 139.468868 
L 176.813445 139.826657 
L 175.767739 140.21017 
L 175.126764 140.464719 
L 174.722033 140.59877 
L 173.676328 140.978895 
L 172.630622 141.381675 
L 172.316199 141.510424 
L 171.584917 141.77702 
L 170.539211 142.181084 
L 169.615954 142.55613 
L 169.493505 142.602157 
L 168.4478 143.012065 
L 167.402094 143.442571 
L 167.021597 143.601835 
L 166.356389 143.873758 
L 165.310683 144.314237 
L 164.533723 144.647541 
L 164.264978 144.766439 
L 163.219272 145.223023 
L 162.173566 145.690645 
L 162.166911 145.693247 
L 161.127861 146.174165 
L 160.082155 146.656683 
L 159.843375 146.738952 
L 159.03645 147.191013 
L 157.990744 147.697863 
L 156.945039 147.55637 
z
" clip-path="url(#pc2fe256b83)" style="fill: #add8e6"/>
   </g>
   <g id="PathCollection_3">
    <path d="M 156.945039 147.55637 
L 157.990744 147.697863 
L 159.03645 147.191013 
L 159.843375 146.738952 
L 160.082155 146.656683 
L 161.127861 146.174165 
L 162.166911 145.693247 
L 162.173566 145.690645 
L 163.219272 145.223023 
L 164.264978 144.766439 
L 164.533723 144.647541 
L 165.310683 144.314237 
L 166.356389 143.873758 
L 167.021597 143.601835 
L 167.402094 143.442571 
L 168.4478 143.012065 
L 169.493505 142.602157 
L 169.615954 142.55613 
L 170.539211 142.181084 
L 171.584917 141.77702 
L 172.316199 141.510424 
L 172.630622 141.381675 
L 173.676328 140.978895 
L 174.722033 140.59877 
L 175.126764 140.464719 
L 175.767739 140.21017 
L 176.813445 139.826657 
L 177.85915 139.468868 
L 178.034343 139.419013 
L 178.904856 139.081801 
L 179.950561 138.712449 
L 180.996267 138.380843 
L 181.039658 138.373308 
L 182.041972 137.949875 
L 183.087406 137.327602 
L 182.773306 136.281896 
L 182.382766 135.236191 
L 182.041972 134.410996 
L 181.981323 134.190485 
L 181.594406 133.14478 
L 181.183772 132.099074 
L 180.996267 131.667639 
L 180.765623 131.053368 
L 180.336525 130.007663 
L 179.950561 129.102905 
L 179.89481 128.961957 
L 179.441687 127.916252 
L 178.978852 126.870546 
L 178.904856 126.711507 
L 178.500732 125.824841 
L 178.014882 124.779135 
L 177.85915 124.452467 
L 177.513422 123.733429 
L 177.004062 122.687724 
L 176.813445 122.29981 
L 176.47912 121.642018 
L 175.946896 120.596313 
L 175.767739 120.241999 
L 175.397257 119.550607 
L 174.844057 118.504902 
L 174.722033 118.268512 
L 174.267641 117.459196 
L 173.697097 116.41349 
L 173.676328 116.373463 
L 173.090885 115.367785 
L 172.630622 114.536539 
L 172.49325 114.322079 
L 171.869363 113.276374 
L 171.584917 112.753726 
L 171.23624 112.230668 
L 170.610145 111.184963 
L 170.539211 111.04241 
L 169.930169 110.139257 
L 169.493505 109.349283 
L 169.267716 109.093551 
L 168.587057 108.047846 
L 168.4478 107.605397 
L 167.627323 107.00214 
L 167.402094 106.477636 
L 167.241068 107.00214 
L 166.356389 107.377831 
L 165.557093 108.047846 
L 165.310683 108.15633 
L 164.264978 108.872771 
L 164.011949 109.093551 
L 163.219272 109.601265 
L 162.51401 110.139257 
L 162.173566 110.349875 
L 161.127861 111.102476 
L 161.026648 111.184963 
L 160.082155 111.855875 
L 159.599113 112.230668 
L 159.03645 112.625408 
L 158.175498 113.276374 
L 157.990744 113.406292 
L 156.945039 114.19553 
L 156.786049 114.322079 
L 155.899333 114.997215 
L 155.429904 115.367785 
L 154.853627 115.811559 
L 154.092451 116.41349 
L 153.807922 116.637084 
L 152.778988 117.459196 
L 152.762216 117.472761 
L 151.716511 118.329075 
L 151.499682 118.504902 
L 150.670805 119.200649 
L 150.243688 119.550607 
L 149.6251 120.086844 
L 149.01276 120.596313 
L 148.579394 120.987899 
L 147.808756 121.642018 
L 147.533688 121.904217 
L 146.633089 122.687724 
L 146.487983 122.836218 
L 145.486921 123.733429 
L 145.442277 123.783977 
L 144.396572 124.75633 
L 144.362873 124.779135 
L 143.350866 125.766407 
L 143.240943 125.824841 
L 142.30516 126.819246 
L 141.795444 126.870546 
L 142.30516 127.339824 
L 142.362625 127.916252 
L 143.350866 128.855337 
L 143.408053 128.961957 
L 144.396572 129.987121 
L 144.410127 130.007663 
L 145.369459 131.053368 
L 145.442277 131.117778 
L 146.304613 132.099074 
L 146.487983 132.280763 
L 147.217207 133.14478 
L 147.533688 133.487247 
L 148.105532 134.190485 
L 148.579394 134.74238 
L 148.967738 135.236191 
L 149.6251 136.051541 
L 149.801246 136.281896 
L 150.605655 137.327602 
L 150.670805 137.413311 
L 151.391227 138.373308 
L 151.716511 138.828731 
L 152.148042 139.419013 
L 152.762216 140.319529 
L 152.867818 140.464719 
L 153.575081 141.510424 
L 153.807922 141.899439 
L 154.258489 142.55613 
L 154.853627 143.558582 
L 154.885633 143.601835 
L 155.537811 144.647541 
L 155.899333 145.390095 
L 156.134391 145.693247 
L 156.729102 146.738952 
z
M 156.729102 146.738952 
L 156.134391 145.693247 
L 155.899333 145.390095 
L 155.537811 144.647541 
L 154.885633 143.601835 
L 154.853627 143.558582 
L 154.258489 142.55613 
L 153.807922 141.899439 
L 153.575081 141.510424 
L 152.867818 140.464719 
L 152.762216 140.319529 
L 152.148042 139.419013 
L 151.716511 138.828731 
L 151.391227 138.373308 
L 150.670805 137.413311 
L 150.605655 137.327602 
L 149.801246 136.281896 
L 149.6251 136.051541 
L 148.967738 135.236191 
L 148.579394 134.74238 
L 148.105532 134.190485 
L 147.533688 133.487247 
L 147.217207 133.14478 
L 146.487983 132.280763 
L 146.304613 132.099074 
L 145.442277 131.117778 
L 145.369459 131.053368 
L 144.410127 130.007663 
L 144.396572 129.987121 
L 143.408053 128.961957 
L 143.350866 128.855337 
L 142.362625 127.916252 
L 142.30516 127.339824 
L 141.795444 126.870546 
L 142.30516 126.819246 
L 143.240943 125.824841 
L 143.350866 125.766407 
L 144.362873 124.779135 
L 144.396572 124.75633 
L 145.442277 123.783977 
L 145.486921 123.733429 
L 146.487983 122.836218 
L 146.633089 122.687724 
L 147.533688 121.904217 
L 147.808756 121.642018 
L 148.579394 120.987899 
L 149.01276 120.596313 
L 149.6251 120.086844 
L 150.243688 119.550607 
L 150.670805 119.200649 
L 151.499682 118.504902 
L 151.716511 118.329075 
L 152.762216 117.472761 
L 152.778988 117.459196 
L 153.807922 116.637084 
L 154.092451 116.41349 
L 154.853627 115.811559 
L 155.429904 115.367785 
L 155.899333 114.997215 
L 156.786049 114.322079 
L 156.945039 114.19553 
L 157.990744 113.406292 
L 158.175498 113.276374 
L 159.03645 112.625408 
L 159.599113 112.230668 
L 160.082155 111.855875 
L 161.026648 111.184963 
L 161.127861 111.102476 
L 162.173566 110.349875 
L 162.51401 110.139257 
L 163.219272 109.601265 
L 164.011949 109.093551 
L 164.264978 108.872771 
L 165.310683 108.15633 
L 165.557093 108.047846 
L 166.356389 107.377831 
L 167.241068 107.00214 
L 167.402094 106.477636 
L 167.627323 107.00214 
L 168.4478 107.605397 
L 168.587057 108.047846 
L 169.267716 109.093551 
L 169.493505 109.349283 
L 169.930169 110.139257 
L 170.539211 111.04241 
L 170.610145 111.184963 
L 171.23624 112.230668 
L 171.584917 112.753726 
L 171.869363 113.276374 
L 172.49325 114.322079 
L 172.630622 114.536539 
L 173.090885 115.367785 
L 173.676328 116.373463 
L 173.697097 116.41349 
L 174.267641 117.459196 
L 174.722033 118.268512 
L 174.844057 118.504902 
L 175.397257 119.550607 
L 175.767739 120.241999 
L 175.946896 120.596313 
L 176.47912 121.642018 
L 176.813445 122.29981 
L 177.004062 122.687724 
L 177.513422 123.733429 
L 177.85915 124.452467 
L 178.014882 124.779135 
L 178.500732 125.824841 
L 178.904856 126.711507 
L 178.978852 126.870546 
L 179.441687 127.916252 
L 179.89481 128.961957 
L 179.950561 129.102905 
L 180.336525 130.007663 
L 180.765623 131.053368 
L 180.996267 131.667639 
L 181.183772 132.099074 
L 181.594406 133.14478 
L 181.981323 134.190485 
L 182.041972 134.410996 
L 182.382766 135.236191 
L 182.773306 136.281896 
L 183.087406 137.327602 
L 182.041972 137.949875 
L 181.039658 138.373308 
L 180.996267 138.380843 
L 179.950561 138.712449 
L 178.904856 139.081801 
L 178.034343 139.419013 
L 177.85915 139.468868 
L 176.813445 139.826657 
L 175.767739 140.21017 
L 175.126764 140.464719 
L 174.722033 140.59877 
L 173.676328 140.978895 
L 172.630622 141.381675 
L 172.316199 141.510424 
L 171.584917 141.77702 
L 170.539211 142.181084 
L 169.615954 142.55613 
L 169.493505 142.602157 
L 168.4478 143.012065 
L 167.402094 143.442571 
L 167.021597 143.601835 
L 166.356389 143.873758 
L 165.310683 144.314237 
L 164.533723 144.647541 
L 164.264978 144.766439 
L 163.219272 145.223023 
L 162.173566 145.690645 
L 162.166911 145.693247 
L 161.127861 146.174165 
L 160.082155 146.656683 
L 159.843375 146.738952 
L 159.03645 147.191013 
L 157.990744 147.697863 
L 156.945039 147.55637 
z
" clip-path="url(#pc2fe256b83)" style="fill: #ffffff"/>
   </g>
   <g id="PathCollection_4">
    <path d="M 91.065587 168.698769 
L 92.111293 168.698769 
L 93.156998 168.698769 
L 94.202704 168.698769 
L 95.24841 168.698769 
L 96.294115 168.698769 
L 97.339821 168.698769 
L 98.385526 168.698769 
L 99.431232 168.698769 
L 100.476937 168.698769 
L 101.522643 168.698769 
L 102.568349 168.698769 
L 103.614054 168.698769 
L 104.65976 168.698769 
L 105.705465 168.698769 
L 106.751171 167.653064 
L 107.796876 168.698769 
L 108.842582 168.698769 
L 109.888288 168.698769 
L 110.933993 168.698769 
L 111.979699 168.698769 
L 113.025404 168.698769 
L 114.07111 168.698769 
L 115.116815 168.698769 
L 116.162521 168.698769 
L 117.208227 168.698769 
L 118.253932 168.698769 
L 119.299638 168.698769 
L 120.345343 168.698769 
L 121.391049 168.698769 
L 122.436755 168.698769 
L 123.48246 168.698769 
L 124.528166 168.698769 
L 125.573871 168.698769 
L 126.619577 168.698769 
L 127.665282 168.698769 
L 128.710988 168.698769 
L 129.756694 168.698769 
L 130.802399 168.698769 
L 131.848105 168.698769 
L 132.89381 168.698769 
L 133.939516 168.698769 
L 134.985221 168.698769 
L 136.030927 168.698769 
L 137.076633 168.698769 
L 138.122338 168.698769 
L 139.168044 168.698769 
L 140.213749 168.698769 
L 141.259455 168.698769 
L 142.30516 168.698769 
L 143.350866 168.698769 
L 144.396572 168.698769 
L 145.442277 168.698769 
L 146.487983 168.698769 
L 147.533688 168.698769 
L 148.579394 168.698769 
L 149.6251 168.698769 
L 150.670805 168.698769 
L 151.716511 168.698769 
L 152.762216 168.698769 
L 153.807922 168.698769 
L 154.853627 168.698769 
L 155.899333 168.698769 
L 156.945039 168.698769 
L 157.990744 168.698769 
L 159.03645 168.698769 
L 160.082155 168.698769 
L 161.127861 168.698769 
L 162.173566 168.698769 
L 163.219272 168.698769 
L 164.264978 168.698769 
L 165.310683 168.698769 
L 166.356389 168.698769 
L 167.402094 168.698769 
L 168.4478 168.698769 
L 169.493505 168.698769 
L 170.539211 168.698769 
L 171.584917 168.698769 
L 172.630622 168.698769 
L 173.676328 168.698769 
L 174.722033 168.698769 
L 175.767739 168.698769 
L 176.813445 168.698769 
L 177.85915 168.698769 
L 178.904856 168.698769 
L 179.950561 168.698769 
L 180.996267 168.698769 
L 182.041972 167.653064 
L 183.087678 168.698769 
L 184.133384 168.698769 
L 185.179089 168.698769 
L 186.224795 168.698769 
L 187.2705 168.698769 
L 188.316206 168.698769 
L 189.361911 168.698769 
L 190.407617 168.698769 
L 191.453323 168.698769 
L 192.499028 168.698769 
L 193.544734 168.698769 
L 193.544734 167.653064 
L 193.544734 166.607358 
L 193.544734 165.561653 
L 193.544734 164.515947 
L 193.544734 163.470241 
L 193.544734 162.424536 
L 193.544734 161.37883 
L 193.544734 160.333125 
L 193.544734 159.287419 
L 193.544734 158.241713 
L 193.544734 157.196008 
L 193.544734 156.150302 
L 193.544734 155.104597 
L 193.544734 154.058891 
L 193.544734 153.013186 
L 193.544734 151.96748 
L 193.544734 150.921774 
L 193.544734 149.876069 
L 193.544734 148.830363 
L 193.544734 147.784658 
L 193.544734 146.738952 
L 193.544734 145.693247 
L 193.544734 144.647541 
L 193.544734 143.601835 
L 193.544734 142.55613 
L 193.544734 141.510424 
L 193.544734 140.464719 
L 193.544734 139.419013 
L 193.544734 138.373308 
L 193.544734 137.327602 
L 193.544734 136.281896 
L 193.544734 135.236191 
L 193.544734 134.190485 
L 193.544734 133.14478 
L 193.544734 132.099074 
L 193.544734 131.053368 
L 193.544734 130.007663 
L 193.544734 128.961957 
L 193.544734 127.916252 
L 193.544734 126.870546 
L 193.544734 125.824841 
L 193.544734 124.779135 
L 193.544734 123.733429 
L 193.544734 122.687724 
L 193.544734 121.642018 
L 193.544734 120.596313 
L 193.544734 119.550607 
L 193.544734 118.504902 
L 193.544734 117.459196 
L 193.544734 116.41349 
L 193.544734 115.367785 
L 193.544734 114.322079 
L 193.544734 113.276374 
L 193.544734 112.230668 
L 193.544734 111.184963 
L 193.544734 110.139257 
L 193.544734 109.093551 
L 193.544734 108.047846 
L 193.544734 107.00214 
L 193.544734 105.956435 
L 193.544734 104.910729 
L 193.544734 103.865023 
L 193.544734 102.819318 
L 193.544734 101.773612 
L 193.544734 100.727907 
L 193.544734 99.682201 
L 193.544734 98.636496 
L 193.544734 97.59079 
L 193.544734 96.545084 
L 193.544734 95.499379 
L 193.544734 94.453673 
L 193.544734 93.407968 
L 193.544734 92.362262 
L 193.544734 91.316557 
L 193.544734 90.270851 
L 193.544734 89.225145 
L 193.544734 88.17944 
L 193.544734 87.133734 
L 193.544734 86.088029 
L 193.544734 85.042323 
L 193.544734 83.996618 
L 193.544734 82.950912 
L 193.544734 81.905206 
L 193.544734 80.859501 
L 193.544734 79.813795 
L 193.544734 78.76809 
L 193.544734 77.722384 
L 193.544734 76.676679 
L 193.544734 75.630973 
L 193.544734 74.585267 
L 193.544734 73.539562 
L 193.544734 72.493856 
L 193.544734 71.448151 
L 193.544734 70.402445 
L 193.544734 69.356739 
L 193.544734 68.311034 
L 193.544734 67.265328 
L 193.544734 66.219623 
L 193.544734 65.173917 
L 192.499028 65.173917 
L 191.453323 65.173917 
L 190.407617 65.173917 
L 189.361911 65.173917 
L 188.316206 65.173917 
L 187.2705 65.173917 
L 186.224795 65.173917 
L 185.179089 65.173917 
L 184.133384 65.173917 
L 183.087678 65.173917 
L 182.041972 65.173917 
L 180.996267 65.173917 
L 179.950561 65.173917 
L 178.904856 65.173917 
L 177.85915 65.173917 
L 176.813445 65.173917 
L 175.767739 65.173917 
L 174.722033 65.173917 
L 173.676328 65.173917 
L 172.630622 65.173917 
L 171.584917 65.173917 
L 170.539211 65.173917 
L 169.493505 65.173917 
L 168.4478 65.173917 
L 167.402094 65.173917 
L 166.356389 65.173917 
L 165.310683 65.173917 
L 164.264978 65.173917 
L 163.219272 65.173917 
L 162.173566 65.173917 
L 161.127861 65.173917 
L 160.082155 65.173917 
L 159.03645 65.173917 
L 157.990744 65.173917 
L 156.945039 65.173917 
L 155.899333 65.173917 
L 154.853627 65.173917 
L 153.807922 65.173917 
L 152.762216 65.173917 
L 151.716511 65.173917 
L 150.670805 65.173917 
L 149.6251 65.173917 
L 148.579394 65.173917 
L 147.533688 65.173917 
L 146.487983 65.173917 
L 145.442277 65.173917 
L 144.396572 65.173917 
L 143.350866 65.173917 
L 142.30516 65.173917 
L 141.259455 65.173917 
L 140.213749 65.173917 
L 139.168044 65.173917 
L 138.122338 65.173917 
L 137.076633 65.173917 
L 136.030927 65.173917 
L 134.985221 65.173917 
L 133.939516 65.173917 
L 132.89381 65.173917 
L 131.848105 65.173917 
L 130.802399 65.173917 
L 129.756694 65.173917 
L 128.710988 65.173917 
L 127.665282 65.173917 
L 126.619577 65.173917 
L 125.573871 65.173917 
L 124.528166 65.173917 
L 123.48246 65.173917 
L 122.436755 65.173917 
L 121.391049 65.173917 
L 120.345343 65.173917 
L 119.299638 65.173917 
L 118.253932 65.173917 
L 117.208227 65.173917 
L 116.162521 65.173917 
L 115.116815 65.173917 
L 114.07111 65.173917 
L 113.025404 65.173917 
L 111.979699 65.173917 
L 110.933993 65.173917 
L 109.888288 65.173917 
L 108.842582 65.173917 
L 107.796876 65.173917 
L 106.751171 65.173917 
L 105.705465 65.173917 
L 104.65976 65.173917 
L 103.614054 65.173917 
L 102.568349 65.173917 
L 101.522643 65.173917 
L 100.476937 65.173917 
L 99.431232 65.173917 
L 98.385526 65.173917 
L 97.339821 65.173917 
L 96.294115 65.173917 
L 95.24841 65.173917 
L 94.202704 65.173917 
L 93.156998 65.173917 
L 92.111293 65.173917 
L 91.065587 65.173917 
L 90.019882 65.173917 
L 90.019882 66.219623 
L 90.019882 67.265328 
L 90.019882 68.311034 
L 90.019882 69.356739 
L 90.019882 70.402445 
L 90.019882 71.448151 
L 90.019882 72.493856 
L 90.019882 73.539562 
L 90.019882 74.585267 
L 90.019882 75.630973 
L 90.019882 76.676679 
L 90.019882 77.722384 
L 90.019882 78.76809 
L 90.019882 79.813795 
L 90.019882 80.859501 
L 90.019882 81.905206 
L 90.019882 82.950912 
L 90.019882 83.996618 
L 90.019882 85.042323 
L 90.019882 86.088029 
L 90.019882 87.133734 
L 90.019882 88.17944 
L 90.019882 89.225145 
L 90.019882 90.270851 
L 90.019882 91.316557 
L 90.019882 92.362262 
L 90.019882 93.407968 
L 90.019882 94.453673 
L 90.019882 95.499379 
L 90.019882 96.545084 
L 90.019882 97.59079 
L 90.019882 98.636496 
L 90.019882 99.682201 
L 90.019882 100.727907 
L 90.019882 101.773612 
L 90.019882 102.819318 
L 90.019882 103.865023 
L 90.019882 104.910729 
L 90.019882 105.956435 
L 90.019882 107.00214 
L 90.019882 108.047846 
L 90.019882 109.093551 
L 90.019882 110.139257 
L 90.019882 111.184963 
L 90.019882 112.230668 
L 90.019882 113.276374 
L 90.019882 114.322079 
L 90.019882 115.367785 
L 90.019882 116.41349 
L 90.019882 117.459196 
L 90.019882 118.504902 
L 90.019882 119.550607 
L 90.019882 120.596313 
L 90.019882 121.642018 
L 90.019882 122.687724 
L 90.019882 123.733429 
L 90.019882 124.779135 
L 90.019882 125.824841 
L 90.019882 126.870546 
L 90.019882 127.916252 
L 90.019882 128.961957 
L 90.019882 130.007663 
L 90.019882 131.053368 
L 90.019882 132.099074 
L 90.019882 133.14478 
L 90.019882 134.190485 
L 90.019882 135.236191 
L 90.019882 136.281896 
L 90.019882 137.327602 
L 90.019882 138.373308 
L 90.019882 139.419013 
L 90.019882 140.464719 
L 90.019882 141.510424 
L 90.019882 142.55613 
L 90.019882 143.601835 
L 90.019882 144.647541 
L 90.019882 145.693247 
L 90.019882 146.738952 
L 90.019882 147.784658 
L 90.019882 148.830363 
L 90.019882 149.876069 
L 90.019882 150.921774 
L 90.019882 151.96748 
L 90.019882 153.013186 
L 90.019882 154.058891 
L 90.019882 155.104597 
L 90.019882 156.150302 
L 90.019882 157.196008 
L 90.019882 158.241713 
L 90.019882 159.287419 
L 90.019882 160.333125 
L 90.019882 161.37883 
L 90.019882 162.424536 
L 90.019882 163.470241 
L 90.019882 164.515947 
L 90.019882 165.561653 
L 90.019882 166.607358 
L 90.019882 167.653064 
L 90.019882 168.698769 
L 91.065587 168.698769 
z
M 156.729102 146.738952 
L 156.134391 145.693247 
L 155.899333 145.390095 
L 155.537811 144.647541 
L 154.885633 143.601835 
L 154.853627 143.558582 
L 154.258489 142.55613 
L 153.807922 141.899439 
L 153.575081 141.510424 
L 152.867818 140.464719 
L 152.762216 140.319529 
L 152.148042 139.419013 
L 151.716511 138.828731 
L 151.391227 138.373308 
L 150.670805 137.413311 
L 150.605655 137.327602 
L 149.801246 136.281896 
L 149.6251 136.051541 
L 148.967738 135.236191 
L 148.579394 134.74238 
L 148.105532 134.190485 
L 147.533688 133.487247 
L 147.217207 133.14478 
L 146.487983 132.280763 
L 146.304613 132.099074 
L 145.442277 131.117778 
L 145.369459 131.053368 
L 144.410127 130.007663 
L 144.396572 129.987121 
L 143.408053 128.961957 
L 143.350866 128.855337 
L 142.362625 127.916252 
L 142.30516 127.339824 
L 141.795444 126.870546 
L 142.30516 126.819246 
L 143.240943 125.824841 
L 143.350866 125.766407 
L 144.362873 124.779135 
L 144.396572 124.75633 
L 145.442277 123.783977 
L 145.486921 123.733429 
L 146.487983 122.836218 
L 146.633089 122.687724 
L 147.533688 121.904217 
L 147.808756 121.642018 
L 148.579394 120.987899 
L 149.01276 120.596313 
L 149.6251 120.086844 
L 150.243688 119.550607 
L 150.670805 119.200649 
L 151.499682 118.504902 
L 151.716511 118.329075 
L 152.762216 117.472761 
L 152.778988 117.459196 
L 153.807922 116.637084 
L 154.092451 116.41349 
L 154.853627 115.811559 
L 155.429904 115.367785 
L 155.899333 114.997215 
L 156.786049 114.322079 
L 156.945039 114.19553 
L 157.990744 113.406292 
L 158.175498 113.276374 
L 159.03645 112.625408 
L 159.599113 112.230668 
L 160.082155 111.855875 
L 161.026648 111.184963 
L 161.127861 111.102476 
L 162.173566 110.349875 
L 162.51401 110.139257 
L 163.219272 109.601265 
L 164.011949 109.093551 
L 164.264978 108.872771 
L 165.310683 108.15633 
L 165.557093 108.047846 
L 166.356389 107.377831 
L 167.241068 107.00214 
L 167.402094 106.477636 
L 167.627323 107.00214 
L 168.4478 107.605397 
L 168.587057 108.047846 
L 169.267716 109.093551 
L 169.493505 109.349283 
L 169.930169 110.139257 
L 170.539211 111.04241 
L 170.610145 111.184963 
L 171.23624 112.230668 
L 171.584917 112.753726 
L 171.869363 113.276374 
L 172.49325 114.322079 
L 172.630622 114.536539 
L 173.090885 115.367785 
L 173.676328 116.373463 
L 173.697097 116.41349 
L 174.267641 117.459196 
L 174.722033 118.268512 
L 174.844057 118.504902 
L 175.397257 119.550607 
L 175.767739 120.241999 
L 175.946896 120.596313 
L 176.47912 121.642018 
L 176.813445 122.29981 
L 177.004062 122.687724 
L 177.513422 123.733429 
L 177.85915 124.452467 
L 178.014882 124.779135 
L 178.500732 125.824841 
L 178.904856 126.711507 
L 178.978852 126.870546 
L 179.441687 127.916252 
L 179.89481 128.961957 
L 179.950561 129.102905 
L 180.336525 130.007663 
L 180.765623 131.053368 
L 180.996267 131.667639 
L 181.183772 132.099074 
L 181.594406 133.14478 
L 181.981323 134.190485 
L 182.041972 134.410996 
L 182.382766 135.236191 
L 182.773306 136.281896 
L 183.087406 137.327602 
L 182.041972 137.949875 
L 181.039658 138.373308 
L 180.996267 138.380843 
L 179.950561 138.712449 
L 178.904856 139.081801 
L 178.034343 139.419013 
L 177.85915 139.468868 
L 176.813445 139.826657 
L 175.767739 140.21017 
L 175.126764 140.464719 
L 174.722033 140.59877 
L 173.676328 140.978895 
L 172.630622 141.381675 
L 172.316199 141.510424 
L 171.584917 141.77702 
L 170.539211 142.181084 
L 169.615954 142.55613 
L 169.493505 142.602157 
L 168.4478 143.012065 
L 167.402094 143.442571 
L 167.021597 143.601835 
L 166.356389 143.873758 
L 165.310683 144.314237 
L 164.533723 144.647541 
L 164.264978 144.766439 
L 163.219272 145.223023 
L 162.173566 145.690645 
L 162.166911 145.693247 
L 161.127861 146.174165 
L 160.082155 146.656683 
L 159.843375 146.738952 
L 159.03645 147.191013 
L 157.990744 147.697863 
L 156.945039 147.55637 
L 156.729102 146.738952 
z
" clip-path="url(#pc2fe256b83)" style="fill: none"/>
   </g>
   <g id="matplotlib.axis_1">
    <g id="xtick_1">
     <g id="line2d_1">
      <defs>
       <path id="m9f70dbea65" d="M 0 0 
L 0 3.5 
" style="stroke: #000000; stroke-width: 0.8"/>
      </defs>
      <g>
       <use xlink:href="#m9f70dbea65" x="38.257456" y="168.698769" style="stroke: #000000; stroke-width: 0.8"/>
      </g>
     </g>
     <g id="text_1">
      <!-- −20 -->
      <g transform="translate(27.705112 183.297207) scale(0.1 -0.1)">
       <defs>
        <path id="DejaVuSans-2212" d="M 678 2272 
L 4684 2272 
L 4684 1741 
L 678 1741 
L 678 2272 
z
" transform="scale(0.015625)"/>
        <path id="DejaVuSans-32" d="M 1228 531 
L 3431 531 
L 3431 0 
L 469 0 
L 469 531 
Q 828 903 1448 1529 
Q 2069 2156 2228 2338 
Q 2531 2678 2651 2914 
Q 2772 3150 2772 3378 
Q 2772 3750 2511 3984 
Q 2250 4219 1831 4219 
Q 1534 4219 1204 4116 
Q 875 4013 500 3803 
L 500 4441 
Q 881 4594 1212 4672 
Q 1544 4750 1819 4750 
Q 2544 4750 2975 4387 
Q 3406 4025 3406 3419 
Q 3406 3131 3298 2873 
Q 3191 2616 2906 2266 
Q 2828 2175 2409 1742 
Q 1991 1309 1228 531 
z
" transform="scale(0.015625)"/>
        <path id="DejaVuSans-30" d="M 2034 4250 
Q 1547 4250 1301 3770 
Q 1056 3291 1056 2328 
Q 1056 1369 1301 889 
Q 1547 409 2034 409 
Q 2525 409 2770 889 
Q 3016 1369 3016 2328 
Q 3016 3291 2770 3770 
Q 2525 4250 2034 4250 
z
M 2034 4750 
Q 2819 4750 3233 4129 
Q 3647 3509 3647 2328 
Q 3647 1150 3233 529 
Q 2819 -91 2034 -91 
Q 1250 -91 836 529 
Q 422 1150 422 2328 
Q 422 3509 836 4129 
Q 1250 4750 2034 4750 
z
" transform="scale(0.015625)"/>
       </defs>
       <use xlink:href="#DejaVuSans-2212"/>
       <use xlink:href="#DejaVuSans-32" x="83.789062"/>
       <use xlink:href="#DejaVuSans-30" x="147.412109"/>
      </g>
     </g>
    </g>
    <g id="xtick_2">
     <g id="line2d_2">
      <g>
       <use xlink:href="#m9f70dbea65" x="90.019882" y="168.698769" style="stroke: #000000; stroke-width: 0.8"/>
      </g>
     </g>
     <g id="text_2">
      <!-- −10 -->
      <g transform="translate(79.467538 183.297207) scale(0.1 -0.1)">
       <defs>
        <path id="DejaVuSans-31" d="M 794 531 
L 1825 531 
L 1825 4091 
L 703 3866 
L 703 4441 
L 1819 4666 
L 2450 4666 
L 2450 531 
L 3481 531 
L 3481 0 
L 794 0 
L 794 531 
z
" transform="scale(0.015625)"/>
       </defs>
       <use xlink:href="#DejaVuSans-2212"/>
       <use xlink:href="#DejaVuSans-31" x="83.789062"/>
       <use xlink:href="#DejaVuSans-30" x="147.412109"/>
      </g>
     </g>
    </g>
    <g id="xtick_3">
     <g id="line2d_3">
      <g>
       <use xlink:href="#m9f70dbea65" x="141.782308" y="168.698769" style="stroke: #000000; stroke-width: 0.8"/>
      </g>
     </g>
    </g>
    <g id="xtick_4">
     <g id="line2d_4">
      <g>
       <use xlink:href="#m9f70dbea65" x="193.544734" y="168.698769" style="stroke: #000000; stroke-width: 0.8"/>
      </g>
     </g>
     <g id="text_3">
      <!-- 10 -->
      <g transform="translate(187.182234 183.297207) scale(0.1 -0.1)">
       <use xlink:href="#DejaVuSans-31"/>
       <use xlink:href="#DejaVuSans-30" x="63.623047"/>
      </g>
     </g>
    </g>
    <g id="xtick_5">
     <g id="line2d_5">
      <g>
       <use xlink:href="#m9f70dbea65" x="245.30716" y="168.698769" style="stroke: #000000; stroke-width: 0.8"/>
      </g>
     </g>
     <g id="text_4">
      <!-- 20 -->
      <g transform="translate(238.94466 183.297207) scale(0.1 -0.1)">
       <use xlink:href="#DejaVuSans-32"/>
       <use xlink:href="#DejaVuSans-30" x="63.623047"/>
      </g>
     </g>
    </g>
    <g id="xtick_6">
     <g id="line2d_6">
      <defs>
       <path id="m6aff288828" d="M 0 0 
L 0 2 
" style="stroke: #000000; stroke-width: 0.6"/>
      </defs>
      <g>
       <use xlink:href="#m6aff288828" x="17.552485" y="168.698769" style="stroke: #000000; stroke-width: 0.6"/>
      </g>
     </g>
    </g>
    <g id="xtick_7">
     <g id="line2d_7">
      <g>
       <use xlink:href="#m6aff288828" x="27.90497" y="168.698769" style="stroke: #000000; stroke-width: 0.6"/>
      </g>
     </g>
    </g>
    <g id="xtick_8">
     <g id="line2d_8">
      <g>
       <use xlink:href="#m6aff288828" x="48.609941" y="168.698769" style="stroke: #000000; stroke-width: 0.6"/>
      </g>
     </g>
    </g>
    <g id="xtick_9">
     <g id="line2d_9">
      <g>
       <use xlink:href="#m6aff288828" x="58.962426" y="168.698769" style="stroke: #000000; stroke-width: 0.6"/>
      </g>
     </g>
    </g>
    <g id="xtick_10">
     <g id="line2d_10">
      <g>
       <use xlink:href="#m6aff288828" x="69.314911" y="168.698769" style="stroke: #000000; stroke-width: 0.6"/>
      </g>
     </g>
    </g>
    <g id="xtick_11">
     <g id="line2d_11">
      <g>
       <use xlink:href="#m6aff288828" x="79.667396" y="168.698769" style="stroke: #000000; stroke-width: 0.6"/>
      </g>
     </g>
    </g>
    <g id="xtick_12">
     <g id="line2d_12">
      <g>
       <use xlink:href="#m6aff288828" x="100.372367" y="168.698769" style="stroke: #000000; stroke-width: 0.6"/>
      </g>
     </g>
    </g>
    <g id="xtick_13">
     <g id="line2d_13">
      <g>
       <use xlink:href="#m6aff288828" x="110.724852" y="168.698769" style="stroke: #000000; stroke-width: 0.6"/>
      </g>
     </g>
    </g>
    <g id="xtick_14">
     <g id="line2d_14">
      <g>
       <use xlink:href="#m6aff288828" x="121.077337" y="168.698769" style="stroke: #000000; stroke-width: 0.6"/>
      </g>
     </g>
    </g>
    <g id="xtick_15">
     <g id="line2d_15">
      <g>
       <use xlink:href="#m6aff288828" x="131.429822" y="168.698769" style="stroke: #000000; stroke-width: 0.6"/>
      </g>
     </g>
    </g>
    <g id="xtick_16">
     <g id="line2d_16">
      <g>
       <use xlink:href="#m6aff288828" x="152.134793" y="168.698769" style="stroke: #000000; stroke-width: 0.6"/>
      </g>
     </g>
    </g>
    <g id="xtick_17">
     <g id="line2d_17">
      <g>
       <use xlink:href="#m6aff288828" x="162.487278" y="168.698769" style="stroke: #000000; stroke-width: 0.6"/>
      </g>
     </g>
    </g>
    <g id="xtick_18">
     <g id="line2d_18">
      <g>
       <use xlink:href="#m6aff288828" x="172.839763" y="168.698769" style="stroke: #000000; stroke-width: 0.6"/>
      </g>
     </g>
    </g>
    <g id="xtick_19">
     <g id="line2d_19">
      <g>
       <use xlink:href="#m6aff288828" x="183.192249" y="168.698769" style="stroke: #000000; stroke-width: 0.6"/>
      </g>
     </g>
    </g>
    <g id="xtick_20">
     <g id="line2d_20">
      <g>
       <use xlink:href="#m6aff288828" x="203.897219" y="168.698769" style="stroke: #000000; stroke-width: 0.6"/>
      </g>
     </g>
    </g>
    <g id="xtick_21">
     <g id="line2d_21">
      <g>
       <use xlink:href="#m6aff288828" x="214.249704" y="168.698769" style="stroke: #000000; stroke-width: 0.6"/>
      </g>
     </g>
    </g>
    <g id="xtick_22">
     <g id="line2d_22">
      <g>
       <use xlink:href="#m6aff288828" x="224.602189" y="168.698769" style="stroke: #000000; stroke-width: 0.6"/>
      </g>
     </g>
    </g>
    <g id="xtick_23">
     <g id="line2d_23">
      <g>
       <use xlink:href="#m6aff288828" x="234.954675" y="168.698769" style="stroke: #000000; stroke-width: 0.6"/>
      </g>
     </g>
    </g>
    <g id="xtick_24">
     <g id="line2d_24">
      <g>
       <use xlink:href="#m6aff288828" x="255.659645" y="168.698769" style="stroke: #000000; stroke-width: 0.6"/>
      </g>
     </g>
    </g>
    <g id="xtick_25">
     <g id="line2d_25">
      <g>
       <use xlink:href="#m6aff288828" x="266.01213" y="168.698769" style="stroke: #000000; stroke-width: 0.6"/>
      </g>
     </g>
    </g>
    <g id="xtick_26">
     <g id="line2d_26">
      <g>
       <use xlink:href="#m6aff288828" x="276.364615" y="168.698769" style="stroke: #000000; stroke-width: 0.6"/>
      </g>
     </g>
    </g>
   </g>
   <g id="matplotlib.axis_2">
    <g id="ytick_1">
     <g id="line2d_27">
      <defs>
       <path id="me8a242976f" d="M 0 0 
L -3.5 0 
" style="stroke: #000000; stroke-width: 0.8"/>
      </defs>
      <g>
       <use xlink:href="#me8a242976f" x="141.782308" y="323.986047" style="stroke: #000000; stroke-width: 0.8"/>
      </g>
     </g>
     <g id="text_5">
      <!-- −30 -->
      <g transform="translate(113.67762 327.785266) scale(0.1 -0.1)">
       <defs>
        <path id="DejaVuSans-33" d="M 2597 2516 
Q 3050 2419 3304 2112 
Q 3559 1806 3559 1356 
Q 3559 666 3084 287 
Q 2609 -91 1734 -91 
Q 1441 -91 1130 -33 
Q 819 25 488 141 
L 488 750 
Q 750 597 1062 519 
Q 1375 441 1716 441 
Q 2309 441 2620 675 
Q 2931 909 2931 1356 
Q 2931 1769 2642 2001 
Q 2353 2234 1838 2234 
L 1294 2234 
L 1294 2753 
L 1863 2753 
Q 2328 2753 2575 2939 
Q 2822 3125 2822 3475 
Q 2822 3834 2567 4026 
Q 2313 4219 1838 4219 
Q 1578 4219 1281 4162 
Q 984 4106 628 3988 
L 628 4550 
Q 988 4650 1302 4700 
Q 1616 4750 1894 4750 
Q 2613 4750 3031 4423 
Q 3450 4097 3450 3541 
Q 3450 3153 3228 2886 
Q 3006 2619 2597 2516 
z
" transform="scale(0.015625)"/>
       </defs>
       <use xlink:href="#DejaVuSans-2212"/>
       <use xlink:href="#DejaVuSans-33" x="83.789062"/>
       <use xlink:href="#DejaVuSans-30" x="147.412109"/>
      </g>
     </g>
    </g>
    <g id="ytick_2">
     <g id="line2d_28">
      <g>
       <use xlink:href="#me8a242976f" x="141.782308" y="272.223621" style="stroke: #000000; stroke-width: 0.8"/>
      </g>
     </g>
     <g id="text_6">
      <!-- −20 -->
      <g transform="translate(113.67762 276.02284) scale(0.1 -0.1)">
       <use xlink:href="#DejaVuSans-2212"/>
       <use xlink:href="#DejaVuSans-32" x="83.789062"/>
       <use xlink:href="#DejaVuSans-30" x="147.412109"/>
      </g>
     </g>
    </g>
    <g id="ytick_3">
     <g id="line2d_29">
      <g>
       <use xlink:href="#me8a242976f" x="141.782308" y="220.461195" style="stroke: #000000; stroke-width: 0.8"/>
      </g>
     </g>
     <g id="text_7">
      <!-- −10 -->
      <g transform="translate(113.67762 224.260414) scale(0.1 -0.1)">
       <use xlink:href="#DejaVuSans-2212"/>
       <use xlink:href="#DejaVuSans-31" x="83.789062"/>
       <use xlink:href="#DejaVuSans-30" x="147.412109"/>
      </g>
     </g>
    </g>
    <g id="ytick_4">
     <g id="line2d_30">
      <g>
       <use xlink:href="#me8a242976f" x="141.782308" y="168.698769" style="stroke: #000000; stroke-width: 0.8"/>
      </g>
     </g>
    </g>
    <g id="ytick_5">
     <g id="line2d_31">
      <g>
       <use xlink:href="#me8a242976f" x="141.782308" y="116.936343" style="stroke: #000000; stroke-width: 0.8"/>
      </g>
     </g>
     <g id="text_8">
      <!-- 10 -->
      <g transform="translate(122.057308 120.735562) scale(0.1 -0.1)">
       <use xlink:href="#DejaVuSans-31"/>
       <use xlink:href="#DejaVuSans-30" x="63.623047"/>
      </g>
     </g>
    </g>
    <g id="ytick_6">
     <g id="line2d_32">
      <g>
       <use xlink:href="#me8a242976f" x="141.782308" y="65.173917" style="stroke: #000000; stroke-width: 0.8"/>
      </g>
     </g>
     <g id="text_9">
      <!-- 20 -->
      <g transform="translate(122.057308 68.973136) scale(0.1 -0.1)">
       <use xlink:href="#DejaVuSans-32"/>
       <use xlink:href="#DejaVuSans-30" x="63.623047"/>
      </g>
     </g>
    </g>
    <g id="ytick_7">
     <g id="line2d_33">
      <g>
       <use xlink:href="#me8a242976f" x="141.782308" y="13.411491" style="stroke: #000000; stroke-width: 0.8"/>
      </g>
     </g>
     <g id="text_10">
      <!-- 30 -->
      <g transform="translate(122.057308 17.21071) scale(0.1 -0.1)">
       <use xlink:href="#DejaVuSans-33"/>
       <use xlink:href="#DejaVuSans-30" x="63.623047"/>
      </g>
     </g>
    </g>
    <g id="ytick_8">
     <g id="line2d_34">
      <defs>
       <path id="mef1d8da188" d="M 0 0 
L -2 0 
" style="stroke: #000000; stroke-width: 0.6"/>
      </defs>
      <g>
       <use xlink:href="#mef1d8da188" x="141.782308" y="313.633562" style="stroke: #000000; stroke-width: 0.6"/>
      </g>
     </g>
    </g>
    <g id="ytick_9">
     <g id="line2d_35">
      <g>
       <use xlink:href="#mef1d8da188" x="141.782308" y="303.281077" style="stroke: #000000; stroke-width: 0.6"/>
      </g>
     </g>
    </g>
    <g id="ytick_10">
     <g id="line2d_36">
      <g>
       <use xlink:href="#mef1d8da188" x="141.782308" y="292.928592" style="stroke: #000000; stroke-width: 0.6"/>
      </g>
     </g>
    </g>
    <g id="ytick_11">
     <g id="line2d_37">
      <g>
       <use xlink:href="#mef1d8da188" x="141.782308" y="282.576107" style="stroke: #000000; stroke-width: 0.6"/>
      </g>
     </g>
    </g>
    <g id="ytick_12">
     <g id="line2d_38">
      <g>
       <use xlink:href="#mef1d8da188" x="141.782308" y="261.871136" style="stroke: #000000; stroke-width: 0.6"/>
      </g>
     </g>
    </g>
    <g id="ytick_13">
     <g id="line2d_39">
      <g>
       <use xlink:href="#mef1d8da188" x="141.782308" y="251.518651" style="stroke: #000000; stroke-width: 0.6"/>
      </g>
     </g>
    </g>
    <g id="ytick_14">
     <g id="line2d_40">
      <g>
       <use xlink:href="#mef1d8da188" x="141.782308" y="241.166166" style="stroke: #000000; stroke-width: 0.6"/>
      </g>
     </g>
    </g>
    <g id="ytick_15">
     <g id="line2d_41">
      <g>
       <use xlink:href="#mef1d8da188" x="141.782308" y="230.81368" style="stroke: #000000; stroke-width: 0.6"/>
      </g>
     </g>
    </g>
    <g id="ytick_16">
     <g id="line2d_42">
      <g>
       <use xlink:href="#mef1d8da188" x="141.782308" y="210.10871" style="stroke: #000000; stroke-width: 0.6"/>
      </g>
     </g>
    </g>
    <g id="ytick_17">
     <g id="line2d_43">
      <g>
       <use xlink:href="#mef1d8da188" x="141.782308" y="199.756225" style="stroke: #000000; stroke-width: 0.6"/>
      </g>
     </g>
    </g>
    <g id="ytick_18">
     <g id="line2d_44">
      <g>
       <use xlink:href="#mef1d8da188" x="141.782308" y="189.40374" style="stroke: #000000; stroke-width: 0.6"/>
      </g>
     </g>
    </g>
    <g id="ytick_19">
     <g id="line2d_45">
      <g>
       <use xlink:href="#mef1d8da188" x="141.782308" y="179.051254" style="stroke: #000000; stroke-width: 0.6"/>
      </g>
     </g>
    </g>
    <g id="ytick_20">
     <g id="line2d_46">
      <g>
       <use xlink:href="#mef1d8da188" x="141.782308" y="158.346284" style="stroke: #000000; stroke-width: 0.6"/>
      </g>
     </g>
    </g>
    <g id="ytick_21">
     <g id="line2d_47">
      <g>
       <use xlink:href="#mef1d8da188" x="141.782308" y="147.993799" style="stroke: #000000; stroke-width: 0.6"/>
      </g>
     </g>
    </g>
    <g id="ytick_22">
     <g id="line2d_48">
      <g>
       <use xlink:href="#mef1d8da188" x="141.782308" y="137.641314" style="stroke: #000000; stroke-width: 0.6"/>
      </g>
     </g>
    </g>
    <g id="ytick_23">
     <g id="line2d_49">
      <g>
       <use xlink:href="#mef1d8da188" x="141.782308" y="127.288828" style="stroke: #000000; stroke-width: 0.6"/>
      </g>
     </g>
    </g>
    <g id="ytick_24">
     <g id="line2d_50">
      <g>
       <use xlink:href="#mef1d8da188" x="141.782308" y="106.583858" style="stroke: #000000; stroke-width: 0.6"/>
      </g>
     </g>
    </g>
    <g id="ytick_25">
     <g id="line2d_51">
      <g>
       <use xlink:href="#mef1d8da188" x="141.782308" y="96.231373" style="stroke: #000000; stroke-width: 0.6"/>
      </g>
     </g>
    </g>
    <g id="ytick_26">
     <g id="line2d_52">
      <g>
       <use xlink:href="#mef1d8da188" x="141.782308" y="85.878888" style="stroke: #000000; stroke-width: 0.6"/>
      </g>
     </g>
    </g>
    <g id="ytick_27">
     <g id="line2d_53">
      <g>
       <use xlink:href="#mef1d8da188" x="141.782308" y="75.526402" style="stroke: #000000; stroke-width: 0.6"/>
      </g>
     </g>
    </g>
    <g id="ytick_28">
     <g id="line2d_54">
      <g>
       <use xlink:href="#mef1d8da188" x="141.782308" y="54.821432" style="stroke: #000000; stroke-width: 0.6"/>
      </g>
     </g>
    </g>
    <g id="ytick_29">
     <g id="line2d_55">
      <g>
       <use xlink:href="#mef1d8da188" x="141.782308" y="44.468947" style="stroke: #000000; stroke-width: 0.6"/>
      </g>
     </g>
    </g>
    <g id="ytick_30">
     <g id="line2d_56">
      <g>
       <use xlink:href="#mef1d8da188" x="141.782308" y="34.116462" style="stroke: #000000; stroke-width: 0.6"/>
      </g>
     </g>
    </g>
    <g id="ytick_31">
     <g id="line2d_57">
      <g>
       <use xlink:href="#mef1d8da188" x="141.782308" y="23.763976" style="stroke: #000000; stroke-width: 0.6"/>
      </g>
     </g>
    </g>
   </g>
   <g id="PathCollection_5">
    <path d="M 156.945039 147.55637 
L 156.729102 146.738952 
L 156.134391 145.693247 
L 155.899333 145.390095 
L 155.537811 144.647541 
L 154.885633 143.601835 
L 154.853627 143.558582 
L 154.258489 142.55613 
L 153.807922 141.899439 
L 153.575081 141.510424 
L 152.867818 140.464719 
L 152.762216 140.319529 
L 152.148042 139.419013 
L 151.716511 138.828731 
L 151.391227 138.373308 
L 150.670805 137.413311 
L 150.605655 137.327602 
L 149.801246 136.281896 
L 149.6251 136.051541 
L 148.967738 135.236191 
L 148.579394 134.74238 
L 148.105532 134.190485 
L 147.533688 133.487247 
L 147.217207 133.14478 
L 146.487983 132.280763 
L 146.304613 132.099074 
L 145.442277 131.117778 
L 145.369459 131.053368 
L 144.410127 130.007663 
L 144.396572 129.987121 
L 143.408053 128.961957 
L 143.350866 128.855337 
L 142.362625 127.916252 
L 142.30516 127.339824 
L 141.795444 126.870546 
L 142.30516 126.819246 
L 143.240943 125.824841 
L 143.350866 125.766407 
L 144.362873 124.779135 
L 144.396572 124.75633 
L 145.442277 123.783977 
L 145.486921 123.733429 
L 146.487983 122.836218 
L 146.633089 122.687724 
L 147.533688 121.904217 
L 147.808756 121.642018 
L 148.579394 120.987899 
L 149.01276 120.596313 
L 149.6251 120.086844 
L 150.243688 119.550607 
L 150.670805 119.200649 
L 151.499682 118.504902 
L 151.716511 118.329075 
L 152.762216 117.472761 
L 152.778988 117.459196 
L 153.807922 116.637084 
L 154.092451 116.41349 
L 154.853627 115.811559 
L 155.429904 115.367785 
L 155.899333 114.997215 
L 156.786049 114.322079 
L 156.945039 114.19553 
L 157.990744 113.406292 
L 158.175498 113.276374 
L 159.03645 112.625408 
L 159.599113 112.230668 
L 160.082155 111.855875 
L 161.026648 111.184963 
L 161.127861 111.102476 
L 162.173566 110.349875 
L 162.51401 110.139257 
L 163.219272 109.601265 
L 164.011949 109.093551 
L 164.264978 108.872771 
L 165.310683 108.15633 
L 165.557093 108.047846 
L 166.356389 107.377831 
L 167.241068 107.00214 
L 167.402094 106.477636 
L 167.627323 107.00214 
L 168.4478 107.605397 
L 168.587057 108.047846 
L 169.267716 109.093551 
L 169.493505 109.349283 
L 169.930169 110.139257 
L 170.539211 111.04241 
L 170.610145 111.184963 
L 171.23624 112.230668 
L 171.584917 112.753726 
L 171.869363 113.276374 
L 172.49325 114.322079 
L 172.630622 114.536539 
L 173.090885 115.367785 
L 173.676328 116.373463 
L 173.697097 116.41349 
L 174.267641 117.459196 
L 174.722033 118.268512 
L 174.844057 118.504902 
L 175.397257 119.550607 
L 175.767739 120.241999 
L 175.946896 120.596313 
L 176.47912 121.642018 
L 176.813445 122.29981 
L 177.004062 122.687724 
L 177.513422 123.733429 
L 177.85915 124.452467 
L 178.014882 124.779135 
L 178.500732 125.824841 
L 178.904856 126.711507 
L 178.978852 126.870546 
L 179.441687 127.916252 
L 179.89481 128.961957 
L 179.950561 129.102905 
L 180.336525 130.007663 
L 180.765623 131.053368 
L 180.996267 131.667639 
L 181.183772 132.099074 
L 181.594406 133.14478 
L 181.981323 134.190485 
L 182.041972 134.410996 
L 182.382766 135.236191 
L 182.773306 136.281896 
L 183.087406 137.327602 
L 182.041972 137.949875 
L 181.039658 138.373308 
L 180.996267 138.380843 
L 179.950561 138.712449 
L 178.904856 139.081801 
L 178.034343 139.419013 
L 177.85915 139.468868 
L 176.813445 139.826657 
L 175.767739 140.21017 
L 175.126764 140.464719 
L 174.722033 140.59877 
L 173.676328 140.978895 
L 172.630622 141.381675 
L 172.316199 141.510424 
L 171.584917 141.77702 
L 170.539211 142.181084 
L 169.615954 142.55613 
L 169.493505 142.602157 
L 168.4478 143.012065 
L 167.402094 143.442571 
L 167.021597 143.601835 
L 166.356389 143.873758 
L 165.310683 144.314237 
L 164.533723 144.647541 
L 164.264978 144.766439 
L 163.219272 145.223023 
L 162.173566 145.690645 
L 162.166911 145.693247 
L 161.127861 146.174165 
L 160.082155 146.656683 
L 159.843375 146.738952 
L 159.03645 147.191013 
L 157.990744 147.697863 
L 156.945039 147.55637 
z
" clip-path="url(#pc2fe256b83)" style="fill: none; stroke: #add8e6; stroke-width: 1.5"/>
   </g>
   <g id="PathCollection_6">
    <path d="M 156.945039 147.55637 
L 156.729102 146.738952 
L 156.134391 145.693247 
L 155.899333 145.390095 
L 155.537811 144.647541 
L 154.885633 143.601835 
L 154.853627 143.558582 
L 154.258489 142.55613 
L 153.807922 141.899439 
L 153.575081 141.510424 
L 152.867818 140.464719 
L 152.762216 140.319529 
L 152.148042 139.419013 
L 151.716511 138.828731 
L 151.391227 138.373308 
L 150.670805 137.413311 
L 150.605655 137.327602 
L 149.801246 136.281896 
L 149.6251 136.051541 
L 148.967738 135.236191 
L 148.579394 134.74238 
L 148.105532 134.190485 
L 147.533688 133.487247 
L 147.217207 133.14478 
L 146.487983 132.280763 
L 146.304613 132.099074 
L 145.442277 131.117778 
L 145.369459 131.053368 
L 144.410127 130.007663 
L 144.396572 129.987121 
L 143.408053 128.961957 
L 143.350866 128.855337 
L 142.362625 127.916252 
L 142.30516 127.339824 
L 141.795444 126.870546 
L 142.30516 126.819246 
L 143.240943 125.824841 
L 143.350866 125.766407 
L 144.362873 124.779135 
L 144.396572 124.75633 
L 145.442277 123.783977 
L 145.486921 123.733429 
L 146.487983 122.836218 
L 146.633089 122.687724 
L 147.533688 121.904217 
L 147.808756 121.642018 
L 148.579394 120.987899 
L 149.01276 120.596313 
L 149.6251 120.086844 
L 150.243688 119.550607 
L 150.670805 119.200649 
L 151.499682 118.504902 
L 151.716511 118.329075 
L 152.762216 117.472761 
L 152.778988 117.459196 
L 153.807922 116.637084 
L 154.092451 116.41349 
L 154.853627 115.811559 
L 155.429904 115.367785 
L 155.899333 114.997215 
L 156.786049 114.322079 
L 156.945039 114.19553 
L 157.990744 113.406292 
L 158.175498 113.276374 
L 159.03645 112.625408 
L 159.599113 112.230668 
L 160.082155 111.855875 
L 161.026648 111.184963 
L 161.127861 111.102476 
L 162.173566 110.349875 
L 162.51401 110.139257 
L 163.219272 109.601265 
L 164.011949 109.093551 
L 164.264978 108.872771 
L 165.310683 108.15633 
L 165.557093 108.047846 
L 166.356389 107.377831 
L 167.241068 107.00214 
L 167.402094 106.477636 
L 167.627323 107.00214 
L 168.4478 107.605397 
L 168.587057 108.047846 
L 169.267716 109.093551 
L 169.493505 109.349283 
L 169.930169 110.139257 
L 170.539211 111.04241 
L 170.610145 111.184963 
L 171.23624 112.230668 
L 171.584917 112.753726 
L 171.869363 113.276374 
L 172.49325 114.322079 
L 172.630622 114.536539 
L 173.090885 115.367785 
L 173.676328 116.373463 
L 173.697097 116.41349 
L 174.267641 117.459196 
L 174.722033 118.268512 
L 174.844057 118.504902 
L 175.397257 119.550607 
L 175.767739 120.241999 
L 175.946896 120.596313 
L 176.47912 121.642018 
L 176.813445 122.29981 
L 177.004062 122.687724 
L 177.513422 123.733429 
L 177.85915 124.452467 
L 178.014882 124.779135 
L 178.500732 125.824841 
L 178.904856 126.711507 
L 178.978852 126.870546 
L 179.441687 127.916252 
L 179.89481 128.961957 
L 179.950561 129.102905 
L 180.336525 130.007663 
L 180.765623 131.053368 
L 180.996267 131.667639 
L 181.183772 132.099074 
L 181.594406 133.14478 
L 181.981323 134.190485 
L 182.041972 134.410996 
L 182.382766 135.236191 
L 182.773306 136.281896 
L 183.087406 137.327602 
L 182.041972 137.949875 
L 181.039658 138.373308 
L 180.996267 138.380843 
L 179.950561 138.712449 
L 178.904856 139.081801 
L 178.034343 139.419013 
L 177.85915 139.468868 
L 176.813445 139.826657 
L 175.767739 140.21017 
L 175.126764 140.464719 
L 174.722033 140.59877 
L 173.676328 140.978895 
L 172.630622 141.381675 
L 172.316199 141.510424 
L 171.584917 141.77702 
L 170.539211 142.181084 
L 169.615954 142.55613 
L 169.493505 142.602157 
L 168.4478 143.012065 
L 167.402094 143.442571 
L 167.021597 143.601835 
L 166.356389 143.873758 
L 165.310683 144.314237 
L 164.533723 144.647541 
L 164.264978 144.766439 
L 163.219272 145.223023 
L 162.173566 145.690645 
L 162.166911 145.693247 
L 161.127861 146.174165 
L 160.082155 146.656683 
L 159.843375 146.738952 
L 159.03645 147.191013 
L 157.990744 147.697863 
L 156.945039 147.55637 
z
" clip-path="url(#pc2fe256b83)" style="fill: none; stroke: #ffffff; stroke-width: 1.5"/>
   </g>
   <g id="PathCollection_7">
    <path d="M 156.945039 147.55637 
L 156.729102 146.738952 
L 156.134391 145.693247 
L 155.899333 145.390095 
L 155.537811 144.647541 
L 154.885633 143.601835 
L 154.853627 143.558582 
L 154.258489 142.55613 
L 153.807922 141.899439 
L 153.575081 141.510424 
L 152.867818 140.464719 
L 152.762216 140.319529 
L 152.148042 139.419013 
L 151.716511 138.828731 
L 151.391227 138.373308 
L 150.670805 137.413311 
L 150.605655 137.327602 
L 149.801246 136.281896 
L 149.6251 136.051541 
L 148.967738 135.236191 
L 148.579394 134.74238 
L 148.105532 134.190485 
L 147.533688 133.487247 
L 147.217207 133.14478 
L 146.487983 132.280763 
L 146.304613 132.099074 
L 145.442277 131.117778 
L 145.369459 131.053368 
L 144.410127 130.007663 
L 144.396572 129.987121 
L 143.408053 128.961957 
L 143.350866 128.855337 
L 142.362625 127.916252 
L 142.30516 127.339824 
L 141.795444 126.870546 
L 142.30516 126.819246 
L 143.240943 125.824841 
L 143.350866 125.766407 
L 144.362873 124.779135 
L 144.396572 124.75633 
L 145.442277 123.783977 
L 145.486921 123.733429 
L 146.487983 122.836218 
L 146.633089 122.687724 
L 147.533688 121.904217 
L 147.808756 121.642018 
L 148.579394 120.987899 
L 149.01276 120.596313 
L 149.6251 120.086844 
L 150.243688 119.550607 
L 150.670805 119.200649 
L 151.499682 118.504902 
L 151.716511 118.329075 
L 152.762216 117.472761 
L 152.778988 117.459196 
L 153.807922 116.637084 
L 154.092451 116.41349 
L 154.853627 115.811559 
L 155.429904 115.367785 
L 155.899333 114.997215 
L 156.786049 114.322079 
L 156.945039 114.19553 
L 157.990744 113.406292 
L 158.175498 113.276374 
L 159.03645 112.625408 
L 159.599113 112.230668 
L 160.082155 111.855875 
L 161.026648 111.184963 
L 161.127861 111.102476 
L 162.173566 110.349875 
L 162.51401 110.139257 
L 163.219272 109.601265 
L 164.011949 109.093551 
L 164.264978 108.872771 
L 165.310683 108.15633 
L 165.557093 108.047846 
L 166.356389 107.377831 
L 167.241068 107.00214 
L 167.402094 106.477636 
L 167.627323 107.00214 
L 168.4478 107.605397 
L 168.587057 108.047846 
L 169.267716 109.093551 
L 169.493505 109.349283 
L 169.930169 110.139257 
L 170.539211 111.04241 
L 170.610145 111.184963 
L 171.23624 112.230668 
L 171.584917 112.753726 
L 171.869363 113.276374 
L 172.49325 114.322079 
L 172.630622 114.536539 
L 173.090885 115.367785 
L 173.676328 116.373463 
L 173.697097 116.41349 
L 174.267641 117.459196 
L 174.722033 118.268512 
L 174.844057 118.504902 
L 175.397257 119.550607 
L 175.767739 120.241999 
L 175.946896 120.596313 
L 176.47912 121.642018 
L 176.813445 122.29981 
L 177.004062 122.687724 
L 177.513422 123.733429 
L 177.85915 124.452467 
L 178.014882 124.779135 
L 178.500732 125.824841 
L 178.904856 126.711507 
L 178.978852 126.870546 
L 179.441687 127.916252 
L 179.89481 128.961957 
L 179.950561 129.102905 
L 180.336525 130.007663 
L 180.765623 131.053368 
L 180.996267 131.667639 
L 181.183772 132.099074 
L 181.594406 133.14478 
L 181.981323 134.190485 
L 182.041972 134.410996 
L 182.382766 135.236191 
L 182.773306 136.281896 
L 183.087406 137.327602 
L 182.041972 137.949875 
L 181.039658 138.373308 
L 180.996267 138.380843 
L 179.950561 138.712449 
L 178.904856 139.081801 
L 178.034343 139.419013 
L 177.85915 139.468868 
L 176.813445 139.826657 
L 175.767739 140.21017 
L 175.126764 140.464719 
L 174.722033 140.59877 
L 173.676328 140.978895 
L 172.630622 141.381675 
L 172.316199 141.510424 
L 171.584917 141.77702 
L 170.539211 142.181084 
L 169.615954 142.55613 
L 169.493505 142.602157 
L 168.4478 143.012065 
L 167.402094 143.442571 
L 167.021597 143.601835 
L 166.356389 143.873758 
L 165.310683 144.314237 
L 164.533723 144.647541 
L 164.264978 144.766439 
L 163.219272 145.223023 
L 162.173566 145.690645 
L 162.166911 145.693247 
L 161.127861 146.174165 
L 160.082155 146.656683 
L 159.843375 146.738952 
L 159.03645 147.191013 
L 157.990744 147.697863 
L 156.945039 147.55637 
z
" clip-path="url(#pc2fe256b83)" style="fill: none; stroke: #ffffff; stroke-width: 1.5"/>
   </g>
   <g id="line2d_58">
    <path d="M 12.376243 168.698769 
L 141.782168 168.698769 
L 12.376243 168.698769 
" clip-path="url(#pc2fe256b83)" style="fill: none; stroke: #0000ff; stroke-linecap: square"/>
   </g>
   <g id="line2d_59">
    <path d="M 17.552485 220.461195 
L 34.385354 216.977385 
L 49.371658 213.649116 
L 62.710904 210.464126 
L 73.434339 207.715645 
L 84.927641 204.536573 
L 94.172668 201.758263 
L 102.53584 199.026494 
L 110.082935 196.330427 
L 116.677759 193.737996 
L 121.504573 191.655769 
L 126.5862 189.236756 
L 130.656346 187.07094 
L 134.176927 184.966625 
L 136.990685 183.064853 
L 139.721715 180.939621 
L 141.878584 178.954526 
L 143.574575 177.069259 
L 144.808164 175.371376 
L 145.7794 173.639849 
L 146.456782 171.921982 
L 146.838508 170.275308 
L 146.957177 168.53017 
L 146.833091 167.087054 
L 146.487455 165.575627 
L 145.914016 164.048281 
L 145.05915 162.427644 
L 143.874812 160.70823 
L 142.546453 159.140927 
L 140.525689 157.157877 
L 138.465292 155.437824 
L 135.495282 153.292711 
L 132.423632 151.351001 
L 128.496056 149.147161 
L 124.201682 146.992082 
L 119.310875 144.772961 
L 113.174107 142.250596 
L 106.88005 139.8921 
L 99.599566 137.384773 
L 90.425458 134.485965 
L 81.33504 131.837776 
L 70.299764 128.858866 
L 58.023203 125.787189 
L 44.204926 122.573822 
L 28.763861 119.22941 
L 17.552485 116.936343 
L 17.552485 116.936343 
" clip-path="url(#pc2fe256b83)" style="fill: none; stroke: #0000ff; stroke-linecap: square"/>
   </g>
   <g id="line2d_60">
    <path d="M 33.081213 272.223621 
L 45.556187 267.1072 
L 56.96616 262.182707 
L 67.799148 257.254174 
L 78.129057 252.284282 
L 87.385733 247.565119 
L 95.085969 243.41268 
L 102.470251 239.201273 
L 109.285317 235.077833 
L 115.606022 231.010085 
L 121.617852 226.877812 
L 127.21261 222.749151 
L 131.458725 219.391777 
L 136.40313 215.177646 
L 140.333053 211.533455 
L 143.801126 208.038125 
L 146.918634 204.606891 
L 149.642404 201.314884 
L 152.22728 197.84893 
L 154.538338 194.356717 
L 156.601046 190.778105 
L 158.211584 187.516646 
L 159.698199 183.897165 
L 160.654426 181.019346 
L 161.491156 177.78165 
L 162.088607 174.444887 
L 162.386954 171.581275 
L 162.48535 168.299181 
L 162.344542 165.260549 
L 162.022097 162.491819 
L 161.388212 159.158092 
L 160.477171 155.796179 
L 159.421952 152.765473 
L 157.973922 149.364976 
L 156.172851 145.830448 
L 154.018015 142.21437 
L 151.947591 139.153962 
L 149.14906 135.462199 
L 146.477435 132.285402 
L 143.505862 129.049827 
L 139.989614 125.533344 
L 135.942484 121.811279 
L 131.764739 118.256356 
L 127.111546 114.571013 
L 121.469006 110.413879 
L 115.312731 106.192846 
L 108.870437 102.061389 
L 101.589899 97.681069 
L 94.217319 93.504953 
L 86.465501 89.350709 
L 77.438906 84.772039 
L 67.374135 79.944844 
L 57.309514 75.367049 
L 46.740659 70.790029 
L 34.72647 65.834125 
L 33.081213 65.173917 
L 33.081213 65.173917 
" clip-path="url(#pc2fe256b83)" style="fill: none; stroke: #0000ff; stroke-linecap: square"/>
   </g>
   <g id="line2d_61">
    <path d="M 58.962426 323.986047 
L 69.839185 317.316776 
L 80.079558 310.751831 
L 88.950135 304.809339 
L 97.004214 299.179618 
L 105.599967 292.890067 
L 113.489525 286.822861 
L 120.740097 280.958268 
L 127.182531 275.477425 
L 133.567686 269.752425 
L 139.319588 264.302142 
L 144.638479 258.969792 
L 149.859357 253.409892 
L 154.528593 248.108384 
L 158.568419 243.217804 
L 161.941599 238.873637 
L 165.426277 234.083483 
L 168.666857 229.289987 
L 171.713706 224.408118 
L 174.382051 219.750699 
L 177.15463 214.411392 
L 179.533391 209.274307 
L 181.63298 204.126542 
L 183.463617 198.931159 
L 184.868486 194.237123 
L 186.158128 188.993832 
L 187.072687 184.237952 
L 187.735545 179.55907 
L 188.149736 175.083433 
L 188.349332 170.588251 
L 188.338689 166.342172 
L 188.097015 161.586237 
L 187.618467 156.876628 
L 186.885427 152.074657 
L 186.083579 148.064299 
L 184.884186 143.217758 
L 183.414338 138.314887 
L 181.932716 134.068252 
L 180.078067 129.393849 
L 178.079184 124.911121 
L 175.413634 119.565589 
L 172.536621 114.383159 
L 169.5223 109.437581 
L 166.225319 104.462771 
L 162.782574 99.649505 
L 158.512998 94.110473 
L 154.122987 88.81467 
L 149.676968 83.787276 
L 144.980913 78.781882 
L 140.024468 73.784839 
L 134.437029 68.44986 
L 128.073313 62.700237 
L 120.975208 56.634576 
L 113.493182 50.577562 
L 106.007323 44.813459 
L 97.613352 38.653615 
L 88.452759 32.248154 
L 80.146724 26.689768 
L 70.242198 20.333637 
L 61.22682 14.776124 
L 58.962426 13.411491 
L 58.962426 13.411491 
" clip-path="url(#pc2fe256b83)" style="fill: none; stroke: #0000ff; stroke-linecap: square"/>
   </g>
   <g id="line2d_62">
    <path d="M 271.188373 168.698769 
L 141.782318 168.698769 
L 271.188373 168.698769 
" clip-path="url(#pc2fe256b83)" style="fill: none; stroke: #ff0000; stroke-linecap: square"/>
   </g>
   <g id="line2d_63">
    <path d="M 266.01213 220.461195 
L 250.481149 217.255749 
L 235.1744 213.874586 
L 221.215459 210.553697 
L 208.743689 207.345986 
L 198.273587 204.431446 
L 189.132178 201.676817 
L 180.800269 198.948392 
L 173.049499 196.168029 
L 166.774819 193.691632 
L 160.879121 191.116907 
L 156.054304 188.765538 
L 151.733954 186.396862 
L 148.090263 184.118885 
L 145.523226 182.286615 
L 143.168248 180.355089 
L 141.449567 178.712987 
L 139.794909 176.824341 
L 138.698758 175.281256 
L 137.820766 173.713781 
L 137.251922 172.355604 
L 136.805963 170.733193 
L 136.622667 169.285062 
L 136.661617 167.626295 
L 136.958985 165.995588 
L 137.467834 164.474683 
L 138.276934 162.816993 
L 139.224788 161.335307 
L 140.498868 159.720999 
L 142.323877 157.818184 
L 144.343707 156.041453 
L 146.918988 154.086146 
L 150.025873 152.029735 
L 153.60383 149.938753 
L 157.632659 147.833607 
L 162.206199 145.675954 
L 167.616909 143.359499 
L 173.655414 141.002097 
L 181.348401 138.262134 
L 189.504048 135.60419 
L 198.999683 132.756343 
L 210.143459 129.678396 
L 222.495729 126.528365 
L 235.674464 123.408503 
L 250.726409 120.089528 
L 266.01213 116.936343 
L 266.01213 116.936343 
" clip-path="url(#pc2fe256b83)" style="fill: none; stroke: #ff0000; stroke-linecap: square"/>
   </g>
   <g id="line2d_64">
    <path d="M 250.483402 272.223621 
L 238.868118 267.468292 
L 227.713916 262.675516 
L 218.023677 258.303927 
L 207.705255 253.401272 
L 198.520226 248.785041 
L 190.389628 244.464433 
L 182.475183 240.007691 
L 175.453777 235.806521 
L 168.837897 231.591725 
L 163.100848 227.693533 
L 157.946165 223.956999 
L 153.098805 220.196479 
L 148.678481 216.510101 
L 144.260209 212.516605 
L 140.712378 209.024589 
L 137.104011 205.131272 
L 134.093337 201.531429 
L 131.359093 197.879822 
L 129.247281 194.710954 
L 127.247124 191.303658 
L 125.549669 187.944496 
L 124.089755 184.49396 
L 122.98773 181.277263 
L 122.173279 178.225877 
L 121.605383 175.311837 
L 121.213267 172.054021 
L 121.080239 169.189022 
L 121.13148 166.581202 
L 121.421039 163.36348 
L 121.975708 160.073055 
L 122.816764 156.696305 
L 123.894593 153.423796 
L 125.176086 150.274386 
L 126.835126 146.861659 
L 128.503631 143.898673 
L 130.509954 140.748667 
L 132.904332 137.401639 
L 135.50371 134.133027 
L 138.296805 130.93484 
L 141.839277 127.231898 
L 145.354934 123.8583 
L 149.412795 120.255615 
L 153.870087 116.584552 
L 159.118158 112.569131 
L 164.994358 108.389546 
L 170.446205 104.75564 
L 177.141797 100.557358 
L 184.111147 96.446069 
L 191.05837 92.568481 
L 200.011914 87.844874 
L 208.346099 83.683544 
L 218.569134 78.841888 
L 229.391525 73.985686 
L 240.384486 69.29553 
L 250.483402 65.173917 
L 250.483402 65.173917 
" clip-path="url(#pc2fe256b83)" style="fill: none; stroke: #ff0000; stroke-linecap: square"/>
   </g>
   <g id="line2d_65">
    <path d="M 224.602189 323.986047 
L 214.57227 317.846736 
L 204.967846 311.721083 
L 195.638571 305.508568 
L 187.103776 299.56705 
L 178.832463 293.539433 
L 170.496491 287.154781 
L 162.896844 281.01828 
L 155.788633 274.958333 
L 149.234293 269.046805 
L 144.081293 264.142437 
L 138.355767 258.379158 
L 133.407005 253.08121 
L 128.930745 247.984764 
L 124.60592 242.728227 
L 120.761983 237.720962 
L 116.724842 232.03725 
L 113.312531 226.80124 
L 110.126912 221.446032 
L 107.396748 216.380232 
L 104.930852 211.290027 
L 102.776546 206.282963 
L 100.896387 201.290394 
L 99.393099 196.664535 
L 97.992405 191.525773 
L 97.062456 187.347657 
L 96.218309 182.500171 
L 95.637198 177.76474 
L 95.29061 172.89482 
L 95.196802 168.343357 
L 95.340232 163.516716 
L 95.675358 159.248757 
L 96.270917 154.546669 
L 97.184988 149.447423 
L 98.276432 144.740492 
L 99.579736 140.117956 
L 101.260488 135.08237 
L 103.022237 130.510356 
L 104.866809 126.247843 
L 107.515273 120.786261 
L 109.983404 116.20561 
L 112.926627 111.21846 
L 115.963045 106.491002 
L 118.898672 102.239421 
L 122.801105 96.976787 
L 126.939902 91.787874 
L 131.84284 86.061475 
L 136.633697 80.825717 
L 141.803377 75.505335 
L 147.665928 69.817671 
L 154.010265 64.010157 
L 161.082951 57.894152 
L 168.37639 51.922243 
L 174.711539 46.972524 
L 182.991689 40.791611 
L 190.998723 35.086233 
L 198.991236 29.624428 
L 207.864984 23.801396 
L 218.179254 17.314297 
L 224.602189 13.411491 
L 224.602189 13.411491 
" clip-path="url(#pc2fe256b83)" style="fill: none; stroke: #ff0000; stroke-linecap: square"/>
   </g>
   <g id="patch_3">
    <path d="M 141.782308 330.197538 
L 141.782308 7.2 
" style="fill: none; stroke: #000000; stroke-width: 0.8; stroke-linejoin: miter; stroke-linecap: square"/>
   </g>
   <g id="patch_4">
    <path d="M 7.2 168.698769 
L 276.364615 168.698769 
" style="fill: none; stroke: #000000; stroke-width: 0.8; stroke-linejoin: miter; stroke-linecap: square"/>
   </g>
  </g>
 </g>
 <defs>
  <clipPath id="pc2fe256b83">
   <rect x="7.2" y="7.2" width="269.164615" height="322.997538"/>
  </clipPath>
 </defs>
</svg>
