<?xml version="1.0" encoding="utf-8" standalone="no"?>
<!DOCTYPE svg PUBLIC "-//W3C//DTD SVG 1.1//EN"
  "http://www.w3.org/Graphics/SVG/1.1/DTD/svg11.dtd">
<svg xmlns:xlink="http://www.w3.org/1999/xlink" width="319.953398pt" height="337.368321pt" viewBox="0 0 319.953398 337.368321" xmlns="http://www.w3.org/2000/svg" version="1.1">
 <metadata>
  <rdf:RDF xmlns:dc="http://purl.org/dc/elements/1.1/" xmlns:cc="http://creativecommons.org/ns#" xmlns:rdf="http://www.w3.org/1999/02/22-rdf-syntax-ns#">
   <cc:Work>
    <dc:type rdf:resource="http://purl.org/dc/dcmitype/StillImage"/>
    <dc:date>2025-02-05T17:01:30.347002</dc:date>
    <dc:format>image/svg+xml</dc:format>
    <dc:creator>
     <cc:Agent>
      <dc:title>Matplotlib v3.6.2, https://matplotlib.org/</dc:title>
     </cc:Agent>
    </dc:creator>
   </cc:Work>
  </rdf:RDF>
 </metadata>
 <defs>
  <style type="text/css">*{stroke-linejoin: round; stroke-linecap: butt}</style>
 </defs>
 <g id="figure_1">
  <g id="patch_1">
   <path d="M 0 337.368321 
L 319.953398 337.368321 
L 319.953398 0 
L 0 0 
z
" style="fill: #ffffff"/>
  </g>
  <g id="axes_1">
   <g id="patch_2">
    <path d="M 9.2274 330.168321 
L 304.511947 330.168321 
L 304.511947 7.2 
L 9.2274 7.2 
z
" style="fill: #ffffff"/>
   </g>
   <g id="PathCollection_1">
    <path d="M 273.953064 141.685581 
C 274.980191 141.685581 275.965388 141.277499 276.691677 140.55121 
C 277.417965 139.824922 277.826047 138.839725 277.826047 137.812598 
C 277.826047 136.785471 277.417965 135.800274 276.691677 135.073985 
C 275.965388 134.347696 274.980191 133.939614 273.953064 133.939614 
C 272.925937 133.939614 271.94074 134.347696 271.214451 135.073985 
C 270.488163 135.800274 270.080081 136.785471 270.080081 137.812598 
C 270.080081 138.839725 270.488163 139.824922 271.214451 140.55121 
C 271.94074 141.277499 272.925937 141.685581 273.953064 141.685581 
z
" clip-path="url(#p6b7ef36a2b)" style="fill: #0000ff"/>
   </g>
   <g id="matplotlib.axis_1">
    <g id="xtick_1">
     <g id="line2d_1">
      <defs>
       <path id="m80283f60a9" d="M 0 0 
L 0 3.5 
" style="stroke: #000000; stroke-width: 0.8"/>
      </defs>
      <g>
       <use xlink:href="#m80283f60a9" x="14.9" y="189.341456" style="stroke: #000000; stroke-width: 0.8"/>
      </g>
     </g>
     <g id="text_1">
      <!-- $-R$ -->
      <g transform="translate(7.2 203.939893) scale(0.1 -0.1)">
       <defs>
        <path id="Cmsy10-a1" d="M 653 1472 
Q 600 1472 565 1512 
Q 531 1553 531 1600 
Q 531 1647 565 1687 
Q 600 1728 653 1728 
L 4325 1728 
Q 4375 1728 4408 1687 
Q 4441 1647 4441 1600 
Q 4441 1553 4408 1512 
Q 4375 1472 4325 1472 
L 653 1472 
z
" transform="scale(0.015625)"/>
        <path id="Cmmi10-52" d="M 313 0 
Q 250 0 250 84 
Q 253 100 262 139 
Q 272 178 289 201 
Q 306 225 331 225 
Q 722 225 878 269 
Q 959 297 997 441 
L 1875 3956 
Q 1888 4019 1888 4044 
Q 1888 4113 1813 4122 
Q 1691 4147 1350 4147 
Q 1288 4147 1288 4231 
Q 1291 4247 1300 4286 
Q 1309 4325 1326 4348 
Q 1344 4372 1369 4372 
L 3309 4372 
Q 3541 4372 3791 4319 
Q 4041 4266 4250 4152 
Q 4459 4038 4593 3848 
Q 4728 3659 4728 3406 
Q 4728 3084 4515 2831 
Q 4303 2578 3978 2408 
Q 3653 2238 3347 2169 
Q 3597 2078 3756 1879 
Q 3916 1681 3916 1422 
Q 3916 1388 3914 1370 
Q 3913 1353 3909 1331 
L 3859 763 
Q 3853 638 3847 550 
Q 3841 463 3841 409 
Q 3841 234 3892 129 
Q 3944 25 4097 25 
Q 4297 25 4448 211 
Q 4600 397 4647 616 
Q 4675 672 4709 672 
L 4769 672 
Q 4831 672 4831 588 
Q 4784 403 4682 237 
Q 4581 72 4426 -34 
Q 4272 -141 4091 -141 
Q 3716 -141 3452 26 
Q 3188 194 3188 550 
Q 3188 684 3213 788 
L 3353 1356 
Q 3378 1434 3378 1538 
Q 3378 1803 3198 1954 
Q 3019 2106 2747 2106 
L 1959 2106 
L 1538 416 
Q 1522 363 1522 325 
Q 1522 259 1600 250 
Q 1722 225 2059 225 
Q 2125 225 2125 141 
Q 2103 50 2090 25 
Q 2078 0 2016 0 
L 313 0 
z
M 1997 2272 
L 2706 2272 
Q 3403 2272 3756 2625 
Q 3919 2788 4014 3039 
Q 4109 3291 4109 3541 
Q 4109 3778 3970 3912 
Q 3831 4047 3626 4097 
Q 3422 4147 3175 4147 
L 2747 4147 
Q 2572 4147 2515 4117 
Q 2459 4088 2413 3928 
L 1997 2272 
z
" transform="scale(0.015625)"/>
       </defs>
       <use xlink:href="#Cmsy10-a1" transform="translate(0 0.6875)"/>
       <use xlink:href="#Cmmi10-52" transform="translate(77.685547 0.6875)"/>
      </g>
     </g>
    </g>
    <g id="xtick_2">
     <g id="line2d_2">
      <g>
       <use xlink:href="#m80283f60a9" x="284.202791" y="189.341456" style="stroke: #000000; stroke-width: 0.8"/>
      </g>
     </g>
     <g id="text_2">
      <!-- $R$ -->
      <g transform="translate(280.402791 203.939893) scale(0.1 -0.1)">
       <use xlink:href="#Cmmi10-52" transform="translate(0 0.6875)"/>
      </g>
     </g>
    </g>
   </g>
   <g id="matplotlib.axis_2">
    <g id="ytick_1">
     <g id="line2d_3">
      <defs>
       <path id="m649bb11d4f" d="M 0 0 
L -3.5 0 
" style="stroke: #000000; stroke-width: 0.8"/>
      </defs>
      <g>
       <use xlink:href="#m649bb11d4f" x="149.551396" y="323.992852" style="stroke: #000000; stroke-width: 0.8"/>
      </g>
     </g>
     <g id="text_3">
      <!-- $-R$ -->
      <g transform="translate(127.151396 327.79207) scale(0.1 -0.1)">
       <use xlink:href="#Cmsy10-a1" transform="translate(0 0.6875)"/>
       <use xlink:href="#Cmmi10-52" transform="translate(77.685547 0.6875)"/>
      </g>
     </g>
    </g>
    <g id="ytick_2">
     <g id="line2d_4">
      <g>
       <use xlink:href="#m649bb11d4f" x="149.551396" y="54.69006" style="stroke: #000000; stroke-width: 0.8"/>
      </g>
     </g>
     <g id="text_4">
      <!-- $R$ -->
      <g transform="translate(134.951396 58.489279) scale(0.1 -0.1)">
       <use xlink:href="#Cmmi10-52" transform="translate(0 0.6875)"/>
      </g>
     </g>
    </g>
   </g>
   <g id="line2d_5">
    <path d="M 284.202791 189.341456 
L 284.138005 185.164989 
L 283.966598 181.369518 
L 283.320091 173.948776 
L 282.164097 165.999009 
L 281.171336 160.930373 
L 279.628939 154.544457 
L 278.155709 149.442471 
L 276.759705 145.193474 
L 275.170693 140.856505 
L 273.721872 137.257954 
L 270.732895 130.638453 
L 269.471685 128.103213 
L 265.907922 121.576 
L 262.239302 115.636407 
L 259.523018 111.641773 
L 255.537484 106.287574 
L 252.972134 103.114145 
L 247.503339 96.948733 
L 243.444347 92.826628 
L 240.448065 89.999653 
L 236.955371 86.913221 
L 231.1345 82.219117 
L 225.80372 78.361361 
L 220.925664 75.163034 
L 215.500123 71.945699 
L 209.014616 68.531176 
L 205.265975 66.757264 
L 198.849155 64.038905 
L 196.080061 62.984495 
L 187.755337 60.223459 
L 179.82246 58.136803 
L 174.068055 56.940807 
L 166.401097 55.74847 
L 161.069455 55.183591 
L 152.257228 54.71725 
L 144.135829 54.799009 
L 141.913148 54.906879 
L 136.175647 55.356055 
L 132.592376 55.762303 
L 123.811419 57.173185 
L 115.48658 59.070252 
L 111.730643 60.110697 
L 104.379139 62.493257 
L 97.07355 65.337125 
L 92.579777 67.336403 
L 89.09173 69.026755 
L 83.835146 71.815404 
L 77.371347 75.670708 
L 74.576906 77.49413 
L 68.712899 81.6561 
L 62.522739 86.594138 
L 57.808983 90.780165 
L 52.778722 95.714281 
L 49.360385 99.381689 
L 44.25976 105.408925 
L 41.196593 109.40251 
L 39.191363 112.194444 
L 35.946594 117.057659 
L 33.81045 120.529888 
L 30.246203 126.913342 
L 27.586723 132.283443 
L 25.413049 137.18142 
L 22.758872 144.013163 
L 21.116154 148.901537 
L 19.287601 155.248316 
L 17.61842 162.421421 
L 16.436198 169.059874 
L 15.606942 175.561704 
L 15.145128 181.220268 
L 14.939362 186.085885 
L 14.974518 193.820555 
L 15.413753 201.09267 
L 15.685708 203.866472 
L 16.257783 208.415294 
L 16.831465 212.066293 
L 18.190969 218.929234 
L 19.886986 225.647642 
L 21.351104 230.520134 
L 23.133628 235.704658 
L 26.081962 243.065727 
L 28.93969 249.206428 
L 31.950189 254.923119 
L 35.073346 260.234153 
L 38.272299 265.156765 
L 41.266336 269.37485 
L 44.200565 273.199674 
L 47.22482 276.864426 
L 52.804542 282.995311 
L 57.775739 287.871792 
L 60.697441 290.514442 
L 66.650758 295.447453 
L 73.495072 300.455964 
L 78.606406 303.787106 
L 84.899245 307.456221 
L 85.317267 307.684073 
L 91.034753 310.613056 
L 98.360362 313.882519 
L 106.101065 316.789748 
L 110.967148 318.346317 
L 118.864157 320.449395 
L 122.805035 321.30975 
L 129.44475 322.483189 
L 140.251416 323.671306 
L 146.461397 323.957392 
L 156.912503 323.791493 
L 161.313796 323.478119 
L 167.908267 322.735697 
L 172.711772 321.986076 
L 180.480172 320.392626 
L 186.499269 318.824478 
L 192.892156 316.82705 
L 198.031634 314.962572 
L 202.737256 313.043771 
L 209.90526 309.709265 
L 213.677668 307.742552 
L 219.469138 304.417551 
L 224.988687 300.87716 
L 230.224459 297.150802 
L 235.450256 293.03516 
L 239.527199 289.518065 
L 244.463374 284.854359 
L 248.88228 280.250057 
L 253.237211 275.249838 
L 257.03085 270.45351 
L 259.002548 267.772595 
L 262.317878 262.926228 
L 265.113601 258.45278 
L 268.437688 252.563667 
L 271.601873 246.215698 
L 273.917565 240.955933 
L 275.891262 235.916518 
L 276.727474 233.582201 
L 279.075705 226.144331 
L 280.532152 220.567084 
L 281.690616 215.230154 
L 282.471559 210.8642 
L 283.357721 204.403518 
L 283.82841 199.375483 
L 284.113036 194.257086 
L 284.202791 189.341456 
L 284.202791 189.341456 
" clip-path="url(#p6b7ef36a2b)" style="fill: none; stroke: #0000ff; stroke-linecap: square"/>
   </g>
   <g id="patch_3">
    <path d="M 273.953064 137.812598 
Q 248.188635 75.611763 223.279912 15.476787 
" clip-path="url(#p6b7ef36a2b)" style="fill: none; stroke: #ff0000; stroke-width: 2; stroke-linecap: round"/>
    <path d="M 222.487349 26.628999 
L 223.279912 15.476787 
L 231.726144 22.802165 
L 222.487349 26.628999 
z
" clip-path="url(#p6b7ef36a2b)" style="fill: #ff0000; stroke: #ff0000; stroke-width: 2; stroke-linecap: round"/>
   </g>
   <g id="patch_4">
    <path d="M 149.551396 330.168321 
L 149.551396 7.2 
" style="fill: none; stroke: #000000; stroke-width: 0.8; stroke-linejoin: miter; stroke-linecap: square"/>
   </g>
   <g id="patch_5">
    <path d="M 9.2274 189.341456 
L 304.511947 189.341456 
" style="fill: none; stroke: #000000; stroke-width: 0.8; stroke-linejoin: miter; stroke-linecap: square"/>
   </g>
   <g id="text_5">
    <!-- $\phi(t)$ -->
    <g transform="translate(284.913398 131.506826) scale(0.16 -0.16)">
     <defs>
      <path id="Cmmi10-c1" d="M 1241 -1247 
L 1528 -91 
Q 1203 -91 922 61 
Q 641 213 470 484 
Q 300 756 300 1075 
Q 300 1422 472 1737 
Q 644 2053 942 2311 
Q 1241 2569 1584 2708 
Q 1928 2847 2266 2847 
L 2650 4403 
Q 2663 4441 2700 4441 
L 2778 4441 
Q 2803 4441 2818 4419 
Q 2834 4397 2834 4378 
L 2450 2847 
Q 2691 2847 2916 2759 
Q 3141 2672 3314 2514 
Q 3488 2356 3584 2142 
Q 3681 1928 3681 1684 
Q 3681 1338 3509 1022 
Q 3338 706 3047 453 
Q 2756 200 2398 54 
Q 2041 -91 1716 -91 
L 1422 -1275 
Q 1409 -1313 1369 -1313 
L 1294 -1313 
Q 1269 -1313 1255 -1289 
Q 1241 -1266 1241 -1247 
z
M 1569 78 
L 2222 2681 
Q 2059 2681 1881 2615 
Q 1703 2550 1545 2450 
Q 1388 2350 1259 2222 
Q 1103 2066 984 1853 
Q 866 1641 805 1405 
Q 744 1169 744 941 
Q 744 700 847 503 
Q 950 306 1137 192 
Q 1325 78 1569 78 
z
M 1759 78 
Q 2000 78 2272 215 
Q 2544 353 2719 538 
Q 2959 775 3098 1120 
Q 3238 1466 3238 1819 
Q 3238 2056 3134 2254 
Q 3031 2453 2843 2567 
Q 2656 2681 2413 2681 
L 1759 78 
z
" transform="scale(0.015625)"/>
      <path id="Cmr10-28" d="M 1984 -1588 
Q 1628 -1306 1370 -942 
Q 1113 -578 948 -165 
Q 784 247 703 697 
Q 622 1147 622 1600 
Q 622 2059 703 2509 
Q 784 2959 951 3375 
Q 1119 3791 1378 4153 
Q 1638 4516 1984 4788 
Q 1984 4800 2016 4800 
L 2075 4800 
Q 2094 4800 2109 4783 
Q 2125 4766 2125 4744 
Q 2125 4716 2113 4703 
Q 1800 4397 1592 4047 
Q 1384 3697 1257 3301 
Q 1131 2906 1075 2482 
Q 1019 2059 1019 1600 
Q 1019 -434 2106 -1491 
Q 2125 -1509 2125 -1544 
Q 2125 -1559 2108 -1579 
Q 2091 -1600 2075 -1600 
L 2016 -1600 
Q 1984 -1600 1984 -1588 
z
" transform="scale(0.015625)"/>
      <path id="Cmmi10-74" d="M 397 519 
Q 397 613 416 697 
L 878 2534 
L 206 2534 
Q 141 2534 141 2619 
Q 166 2759 225 2759 
L 934 2759 
L 1191 3803 
Q 1216 3888 1291 3947 
Q 1366 4006 1459 4006 
Q 1541 4006 1595 3957 
Q 1650 3909 1650 3828 
Q 1650 3809 1648 3798 
Q 1647 3788 1644 3775 
L 1388 2759 
L 2047 2759 
Q 2113 2759 2113 2675 
Q 2109 2659 2100 2621 
Q 2091 2584 2075 2559 
Q 2059 2534 2028 2534 
L 1331 2534 
L 872 684 
Q 825 503 825 372 
Q 825 97 1013 97 
Q 1294 97 1511 361 
Q 1728 625 1844 941 
Q 1869 978 1894 978 
L 1972 978 
Q 1997 978 2012 961 
Q 2028 944 2028 922 
Q 2028 909 2022 903 
Q 1881 516 1612 222 
Q 1344 -72 997 -72 
Q 744 -72 570 93 
Q 397 259 397 519 
z
" transform="scale(0.015625)"/>
      <path id="Cmr10-29" d="M 416 -1600 
Q 359 -1600 359 -1544 
Q 359 -1516 372 -1503 
Q 1466 -434 1466 1600 
Q 1466 3634 384 4691 
Q 359 4706 359 4744 
Q 359 4766 376 4783 
Q 394 4800 416 4800 
L 475 4800 
Q 494 4800 506 4788 
Q 966 4425 1272 3906 
Q 1578 3388 1720 2800 
Q 1863 2213 1863 1600 
Q 1863 1147 1786 708 
Q 1709 269 1542 -157 
Q 1375 -584 1119 -945 
Q 863 -1306 506 -1588 
Q 494 -1600 475 -1600 
L 416 -1600 
z
" transform="scale(0.015625)"/>
     </defs>
     <use xlink:href="#Cmmi10-c1"/>
     <use xlink:href="#Cmr10-28" transform="translate(59.521484 0)"/>
     <use xlink:href="#Cmmi10-74" transform="translate(98.339844 0)"/>
     <use xlink:href="#Cmr10-29" transform="translate(134.423828 0)"/>
    </g>
   </g>
   <g id="text_6">
    <!-- $\phi'(t)$ -->
    <g transform="translate(256.188969 69.545992) scale(0.16 -0.16)">
     <defs>
      <path id="Cmsy10-30" d="M 225 347 
Q 184 359 184 409 
L 966 3316 
Q 1003 3434 1093 3506 
Q 1184 3578 1300 3578 
Q 1450 3578 1564 3479 
Q 1678 3381 1678 3231 
Q 1678 3166 1644 3084 
L 488 319 
Q 466 275 428 275 
Q 394 275 320 306 
Q 247 338 225 347 
z
" transform="scale(0.015625)"/>
     </defs>
     <use xlink:href="#Cmmi10-c1" transform="translate(0 0.601562)"/>
     <use xlink:href="#Cmsy10-30" transform="translate(71.117422 38.865625) scale(0.7)"/>
     <use xlink:href="#Cmr10-28" transform="translate(96.73793 0.601562)"/>
     <use xlink:href="#Cmmi10-74" transform="translate(135.556289 0.601562)"/>
     <use xlink:href="#Cmr10-29" transform="translate(171.640273 0.601562)"/>
    </g>
   </g>
  </g>
 </g>
 <defs>
  <clipPath id="p6b7ef36a2b">
   <rect x="9.2274" y="7.2" width="295.284547" height="322.968321"/>
  </clipPath>
 </defs>
</svg>
