<?xml version="1.0" encoding="utf-8" standalone="no"?>
<!DOCTYPE svg PUBLIC "-//W3C//DTD SVG 1.1//EN"
  "http://www.w3.org/Graphics/SVG/1.1/DTD/svg11.dtd">
<svg xmlns:xlink="http://www.w3.org/1999/xlink" width="329.289704pt" height="338.4pt" viewBox="0 0 329.289704 338.4" xmlns="http://www.w3.org/2000/svg" version="1.1">
 <metadata>
  <rdf:RDF xmlns:dc="http://purl.org/dc/elements/1.1/" xmlns:cc="http://creativecommons.org/ns#" xmlns:rdf="http://www.w3.org/1999/02/22-rdf-syntax-ns#">
   <cc:Work>
    <dc:type rdf:resource="http://purl.org/dc/dcmitype/StillImage"/>
    <dc:date>2025-02-09T17:43:26.337916</dc:date>
    <dc:format>image/svg+xml</dc:format>
    <dc:creator>
     <cc:Agent>
      <dc:title>Matplotlib v3.6.2, https://matplotlib.org/</dc:title>
     </cc:Agent>
    </dc:creator>
   </cc:Work>
  </rdf:RDF>
 </metadata>
 <defs>
  <style type="text/css">*{stroke-linejoin: round; stroke-linecap: butt}</style>
 </defs>
 <g id="figure_1">
  <g id="patch_1">
   <path d="M 0 338.4 
L 329.289704 338.4 
L 329.289704 0 
L 0 0 
z
" style="fill: #ffffff"/>
  </g>
  <g id="axes_1">
   <g id="patch_2">
    <path d="M 8.541317 331.2 
L 322.089704 331.2 
L 322.089704 7.2 
L 8.541317 7.2 
z
" style="fill: #ffffff"/>
   </g>
   <g id="PathCollection_1">
    <path d="M 17.616436 324.969231 
L 20.661777 324.969231 
L 23.707119 324.969231 
L 26.752461 324.969231 
L 29.797803 324.969231 
L 32.843144 324.969231 
L 35.888486 324.969231 
L 38.933828 324.969231 
L 41.97917 324.969231 
L 45.024511 324.969231 
L 48.069853 324.969231 
L 51.115195 324.969231 
L 54.160537 324.969231 
L 57.205878 324.969231 
L 60.25122 324.969231 
L 63.296562 324.969231 
L 66.341904 324.969231 
L 69.387245 324.969231 
L 72.432587 324.969231 
L 75.477929 324.969231 
L 78.523271 324.969231 
L 81.568612 324.969231 
L 84.613954 324.969231 
L 87.659296 324.969231 
L 90.704638 324.969231 
L 93.749979 324.969231 
L 96.795321 324.969231 
L 99.840663 324.969231 
L 102.886005 324.969231 
L 105.931346 324.969231 
L 108.976688 324.969231 
L 112.02203 324.969231 
L 115.067372 324.969231 
L 118.112713 324.969231 
L 121.158055 324.969231 
L 124.203397 324.969231 
L 127.248739 324.969231 
L 130.29408 324.969231 
L 133.339422 324.969231 
L 136.384764 324.969231 
L 139.430106 324.969231 
L 142.475447 324.969231 
L 145.520789 324.969231 
L 148.566131 324.969231 
L 151.611473 324.969231 
L 154.656814 324.969231 
L 157.702156 324.969231 
L 160.747498 324.969231 
L 163.79284 324.969231 
L 166.838182 324.969231 
L 169.883523 324.969231 
L 172.928865 324.969231 
L 175.974207 324.969231 
L 179.019549 324.969231 
L 182.06489 324.969231 
L 185.110232 324.969231 
L 188.155574 324.969231 
L 191.200916 324.969231 
L 194.246257 324.969231 
L 197.291599 324.969231 
L 200.336941 324.969231 
L 203.382283 324.969231 
L 206.427624 324.969231 
L 209.472966 324.969231 
L 212.518308 324.969231 
L 215.56365 324.969231 
L 218.608991 324.969231 
L 221.654333 324.969231 
L 224.699675 324.969231 
L 227.745017 324.969231 
L 230.790358 324.969231 
L 233.8357 324.969231 
L 236.881042 324.969231 
L 239.926384 324.969231 
L 242.971725 324.969231 
L 246.017067 324.969231 
L 249.062409 324.969231 
L 252.107751 324.969231 
L 255.153092 324.969231 
L 258.198434 324.969231 
L 261.243776 324.969231 
L 264.289118 324.969231 
L 267.334459 324.969231 
L 270.379801 324.969231 
L 273.425143 324.969231 
L 276.470485 324.969231 
L 279.515826 324.969231 
L 282.561168 324.969231 
L 285.60651 324.969231 
L 288.651852 324.969231 
L 291.697193 324.969231 
L 294.742535 324.969231 
L 297.787877 324.969231 
L 300.833219 324.969231 
L 303.87856 324.969231 
L 306.923902 324.969231 
L 309.969244 324.969231 
L 313.014586 324.969231 
L 316.059927 324.969231 
L 316.059927 321.822378 
L 316.059927 318.675524 
L 316.059927 315.528671 
L 316.059927 312.381818 
L 316.059927 309.234965 
L 316.059927 306.088112 
L 316.059927 302.941259 
L 316.059927 299.794406 
L 316.059927 296.647552 
L 316.059927 293.500699 
L 316.059927 290.353846 
L 316.059927 287.206993 
L 316.059927 284.06014 
L 316.059927 280.913287 
L 316.059927 277.766434 
L 316.059927 274.61958 
L 316.059927 271.472727 
L 316.059927 268.325874 
L 316.059927 265.179021 
L 316.059927 262.032168 
L 316.059927 258.885315 
L 316.059927 255.738462 
L 316.059927 252.591608 
L 316.059927 249.444755 
L 316.059927 246.297902 
L 316.059927 243.151049 
L 316.059927 240.004196 
L 316.059927 236.857343 
L 316.059927 233.71049 
L 316.059927 230.563636 
L 316.059927 227.416783 
L 316.059927 224.26993 
L 316.059927 221.123077 
L 316.059927 217.976224 
L 316.059927 214.829371 
L 316.059927 211.682517 
L 316.059927 208.535664 
L 316.059927 205.388811 
L 316.059927 202.241958 
L 316.059927 199.095105 
L 316.059927 195.948252 
L 316.059927 192.801399 
L 316.059927 189.654545 
L 316.059927 186.507692 
L 316.059927 183.360839 
L 316.059927 180.213986 
L 316.059927 177.067133 
L 316.059927 173.92028 
L 316.059927 170.773427 
L 316.059927 167.626573 
L 316.059927 164.47972 
L 316.059927 161.332867 
L 316.059927 158.186014 
L 316.059927 155.039161 
L 316.059927 151.892308 
L 316.059927 148.745455 
L 316.059927 145.598601 
L 316.059927 142.451748 
L 316.059927 139.304895 
L 316.059927 136.158042 
L 316.059927 133.011189 
L 316.059927 129.864336 
L 316.059927 126.717483 
L 316.059927 123.570629 
L 316.059927 120.423776 
L 316.059927 117.276923 
L 316.059927 114.13007 
L 316.059927 110.983217 
L 316.059927 107.836364 
L 316.059927 104.68951 
L 316.059927 101.542657 
L 316.059927 98.395804 
L 316.059927 95.248951 
L 316.059927 92.102098 
L 316.059927 88.955245 
L 316.059927 85.808392 
L 316.059927 82.661538 
L 316.059927 79.514685 
L 316.059927 76.367832 
L 316.059927 73.220979 
L 316.059927 70.074126 
L 316.059927 66.927273 
L 316.059927 63.78042 
L 316.059927 60.633566 
L 316.059927 57.486713 
L 316.059927 54.33986 
L 316.059927 51.193007 
L 316.059927 48.046154 
L 316.059927 44.899301 
L 316.059927 41.752448 
L 316.059927 38.605594 
L 316.059927 35.458741 
L 316.059927 32.311888 
L 316.059927 29.165035 
L 316.059927 26.018182 
L 316.059927 22.871329 
L 316.059927 19.724476 
L 316.059927 16.577622 
L 316.059927 13.430769 
L 313.014586 13.430769 
L 309.969244 13.430769 
L 306.923902 13.430769 
L 303.87856 13.430769 
L 300.833219 13.430769 
L 297.787877 13.430769 
L 294.742535 13.430769 
L 291.697193 13.430769 
L 288.651852 13.430769 
L 285.60651 13.430769 
L 282.561168 13.430769 
L 279.515826 13.430769 
L 276.470485 13.430769 
L 273.425143 13.430769 
L 270.379801 13.430769 
L 267.334459 13.430769 
L 264.289118 13.430769 
L 261.243776 13.430769 
L 258.198434 13.430769 
L 255.153092 13.430769 
L 252.107751 13.430769 
L 249.062409 13.430769 
L 246.017067 13.430769 
L 242.971725 13.430769 
L 239.926384 13.430769 
L 236.881042 13.430769 
L 233.8357 13.430769 
L 230.790358 13.430769 
L 227.745017 13.430769 
L 224.699675 13.430769 
L 221.654333 13.430769 
L 218.608991 13.430769 
L 215.56365 13.430769 
L 212.518308 13.430769 
L 209.472966 13.430769 
L 206.427624 13.430769 
L 203.382283 13.430769 
L 200.336941 13.430769 
L 197.291599 13.430769 
L 194.246257 13.430769 
L 191.200916 13.430769 
L 188.155574 13.430769 
L 185.110232 13.430769 
L 182.06489 13.430769 
L 179.019549 13.430769 
L 175.974207 13.430769 
L 172.928865 13.430769 
L 169.883523 13.430769 
L 166.838182 13.430769 
L 163.79284 13.430769 
L 160.747498 13.430769 
L 157.702156 13.430769 
L 154.656814 13.430769 
L 151.611473 13.430769 
L 148.566131 13.430769 
L 145.520789 13.430769 
L 142.475447 13.430769 
L 139.430106 13.430769 
L 136.384764 13.430769 
L 133.339422 13.430769 
L 130.29408 13.430769 
L 127.248739 13.430769 
L 124.203397 13.430769 
L 121.158055 13.430769 
L 118.112713 13.430769 
L 115.067372 13.430769 
L 112.02203 13.430769 
L 108.976688 13.430769 
L 105.931346 13.430769 
L 102.886005 13.430769 
L 99.840663 13.430769 
L 96.795321 13.430769 
L 93.749979 13.430769 
L 90.704638 13.430769 
L 87.659296 13.430769 
L 84.613954 13.430769 
L 81.568612 13.430769 
L 78.523271 13.430769 
L 75.477929 13.430769 
L 72.432587 13.430769 
L 69.387245 13.430769 
L 66.341904 13.430769 
L 63.296562 13.430769 
L 60.25122 13.430769 
L 57.205878 13.430769 
L 54.160537 13.430769 
L 51.115195 13.430769 
L 48.069853 13.430769 
L 45.024511 13.430769 
L 41.97917 13.430769 
L 38.933828 13.430769 
L 35.888486 13.430769 
L 32.843144 13.430769 
L 29.797803 13.430769 
L 26.752461 13.430769 
L 23.707119 13.430769 
L 20.661777 13.430769 
L 17.616436 13.430769 
L 14.571094 13.430769 
L 14.571094 16.577622 
L 14.571094 19.724476 
L 14.571094 22.871329 
L 14.571094 26.018182 
L 14.571094 29.165035 
L 14.571094 32.311888 
L 14.571094 35.458741 
L 14.571094 38.605594 
L 14.571094 41.752448 
L 14.571094 44.899301 
L 14.571094 48.046154 
L 14.571094 51.193007 
L 14.571094 54.33986 
L 14.571094 57.486713 
L 14.571094 60.633566 
L 14.571094 63.78042 
L 14.571094 66.927273 
L 14.571094 70.074126 
L 14.571094 73.220979 
L 14.571094 76.367832 
L 14.571094 79.514685 
L 14.571094 82.661538 
L 14.571094 85.808392 
L 14.571094 88.955245 
L 14.571094 92.102098 
L 14.571094 95.248951 
L 14.571094 98.395804 
L 14.571094 101.542657 
L 14.571094 104.68951 
L 14.571094 107.836364 
L 14.571094 110.983217 
L 14.571094 114.13007 
L 14.571094 117.276923 
L 14.571094 120.423776 
L 14.571094 123.570629 
L 14.571094 126.717483 
L 14.571094 129.864336 
L 14.571094 133.011189 
L 14.571094 136.158042 
L 14.571094 139.304895 
L 14.571094 142.451748 
L 14.571094 145.598601 
L 14.571094 148.745455 
L 14.571094 151.892308 
L 14.571094 155.039161 
L 14.571094 158.186014 
L 14.571094 161.332867 
L 14.571094 164.47972 
L 14.571094 167.626573 
L 14.571094 170.773427 
L 14.571094 173.92028 
L 14.571094 177.067133 
L 14.571094 180.213986 
L 14.571094 183.360839 
L 14.571094 186.507692 
L 14.571094 189.654545 
L 14.571094 192.801399 
L 14.571094 195.948252 
L 14.571094 199.095105 
L 14.571094 202.241958 
L 14.571094 205.388811 
L 14.571094 208.535664 
L 14.571094 211.682517 
L 14.571094 214.829371 
L 14.571094 217.976224 
L 14.571094 221.123077 
L 14.571094 224.26993 
L 14.571094 227.416783 
L 14.571094 230.563636 
L 14.571094 233.71049 
L 14.571094 236.857343 
L 14.571094 240.004196 
L 14.571094 243.151049 
L 14.571094 246.297902 
L 14.571094 249.444755 
L 14.571094 252.591608 
L 14.571094 255.738462 
L 14.571094 258.885315 
L 14.571094 262.032168 
L 14.571094 265.179021 
L 14.571094 268.325874 
L 14.571094 271.472727 
L 14.571094 274.61958 
L 14.571094 277.766434 
L 14.571094 280.913287 
L 14.571094 284.06014 
L 14.571094 287.206993 
L 14.571094 290.353846 
L 14.571094 293.500699 
L 14.571094 296.647552 
L 14.571094 299.794406 
L 14.571094 302.941259 
L 14.571094 306.088112 
L 14.571094 309.234965 
L 14.571094 312.381818 
L 14.571094 315.528671 
L 14.571094 318.675524 
L 14.571094 321.822378 
L 14.571094 324.969231 
z
M 163.686253 173.92028 
L 160.747498 171.076323 
L 160.591001 170.773427 
L 160.591001 167.626573 
L 160.747498 167.323677 
L 163.686253 164.47972 
L 163.79284 164.428146 
L 166.838182 164.428146 
L 166.944768 164.47972 
L 169.883523 167.323677 
L 170.04002 167.626573 
L 170.04002 170.773427 
L 169.883523 171.076323 
L 166.944768 173.92028 
L 166.838182 173.971854 
L 163.79284 173.971854 
z
" clip-path="url(#p1e102d9472)" style="fill: #add8e6"/>
   </g>
   <g id="PathCollection_2">
    <path d="M 163.79284 173.971854 
L 166.838182 173.971854 
L 166.944768 173.92028 
L 169.883523 171.076323 
L 170.04002 170.773427 
L 170.04002 167.626573 
L 169.883523 167.323677 
L 166.944768 164.47972 
L 166.838182 164.428146 
L 163.79284 164.428146 
L 163.686253 164.47972 
L 160.747498 167.323677 
L 160.591001 167.626573 
L 160.591001 170.773427 
L 160.747498 171.076323 
L 163.686253 173.92028 
z
M 163.686253 173.92028 
L 160.747498 171.076323 
L 160.591001 170.773427 
L 160.591001 167.626573 
L 160.747498 167.323677 
L 163.686253 164.47972 
L 163.79284 164.428146 
L 166.838182 164.428146 
L 166.944768 164.47972 
L 169.883523 167.323677 
L 170.04002 167.626573 
L 170.04002 170.773427 
L 169.883523 171.076323 
L 166.944768 173.92028 
L 166.838182 173.971854 
L 163.79284 173.971854 
z
" clip-path="url(#p1e102d9472)" style="fill: #add8e6"/>
   </g>
   <g id="PathCollection_3">
    <path d="M 163.79284 173.971854 
L 166.838182 173.971854 
L 166.944768 173.92028 
L 169.883523 171.076323 
L 170.04002 170.773427 
L 170.04002 167.626573 
L 169.883523 167.323677 
L 166.944768 164.47972 
L 166.838182 164.428146 
L 163.79284 164.428146 
L 163.686253 164.47972 
L 160.747498 167.323677 
L 160.591001 167.626573 
L 160.591001 170.773427 
L 160.747498 171.076323 
L 163.686253 173.92028 
z
M 163.686253 173.92028 
L 160.747498 171.076323 
L 160.591001 170.773427 
L 160.591001 167.626573 
L 160.747498 167.323677 
L 163.686253 164.47972 
L 163.79284 164.428146 
L 166.838182 164.428146 
L 166.944768 164.47972 
L 169.883523 167.323677 
L 170.04002 167.626573 
L 170.04002 170.773427 
L 169.883523 171.076323 
L 166.944768 173.92028 
L 166.838182 173.971854 
L 163.79284 173.971854 
z
" clip-path="url(#p1e102d9472)" style="fill: #ffffff"/>
   </g>
   <g id="PathCollection_4">
    <path d="M 163.79284 173.971854 
L 166.838182 173.971854 
L 166.944768 173.92028 
L 169.883523 171.076323 
L 170.04002 170.773427 
L 170.04002 167.626573 
L 169.883523 167.323677 
L 166.944768 164.47972 
L 166.838182 164.428146 
L 163.79284 164.428146 
L 163.686253 164.47972 
L 160.747498 167.323677 
L 160.591001 167.626573 
L 160.591001 170.773427 
L 160.747498 171.076323 
L 163.686253 173.92028 
L 163.79284 173.971854 
z
" clip-path="url(#p1e102d9472)" style="fill: none"/>
   </g>
   <g id="matplotlib.axis_1">
    <g id="xtick_1">
     <g id="line2d_1">
      <defs>
       <path id="m02f2035430" d="M 0 0 
L 0 3.5 
" style="stroke: #000000; stroke-width: 0.8"/>
      </defs>
      <g>
       <use xlink:href="#m02f2035430" x="14.571094" y="169.2" style="stroke: #000000; stroke-width: 0.8"/>
      </g>
     </g>
     <g id="text_1">
      <!-- −3 -->
      <g transform="translate(7.2 183.798438) scale(0.1 -0.1)">
       <defs>
        <path id="DejaVuSans-2212" d="M 678 2272 
L 4684 2272 
L 4684 1741 
L 678 1741 
L 678 2272 
z
" transform="scale(0.015625)"/>
        <path id="DejaVuSans-33" d="M 2597 2516 
Q 3050 2419 3304 2112 
Q 3559 1806 3559 1356 
Q 3559 666 3084 287 
Q 2609 -91 1734 -91 
Q 1441 -91 1130 -33 
Q 819 25 488 141 
L 488 750 
Q 750 597 1062 519 
Q 1375 441 1716 441 
Q 2309 441 2620 675 
Q 2931 909 2931 1356 
Q 2931 1769 2642 2001 
Q 2353 2234 1838 2234 
L 1294 2234 
L 1294 2753 
L 1863 2753 
Q 2328 2753 2575 2939 
Q 2822 3125 2822 3475 
Q 2822 3834 2567 4026 
Q 2313 4219 1838 4219 
Q 1578 4219 1281 4162 
Q 984 4106 628 3988 
L 628 4550 
Q 988 4650 1302 4700 
Q 1616 4750 1894 4750 
Q 2613 4750 3031 4423 
Q 3450 4097 3450 3541 
Q 3450 3153 3228 2886 
Q 3006 2619 2597 2516 
z
" transform="scale(0.015625)"/>
       </defs>
       <use xlink:href="#DejaVuSans-2212"/>
       <use xlink:href="#DejaVuSans-33" x="83.789062"/>
      </g>
     </g>
    </g>
    <g id="xtick_2">
     <g id="line2d_2">
      <g>
       <use xlink:href="#m02f2035430" x="64.819233" y="169.2" style="stroke: #000000; stroke-width: 0.8"/>
      </g>
     </g>
     <g id="text_2">
      <!-- −2 -->
      <g transform="translate(57.448139 183.798438) scale(0.1 -0.1)">
       <defs>
        <path id="DejaVuSans-32" d="M 1228 531 
L 3431 531 
L 3431 0 
L 469 0 
L 469 531 
Q 828 903 1448 1529 
Q 2069 2156 2228 2338 
Q 2531 2678 2651 2914 
Q 2772 3150 2772 3378 
Q 2772 3750 2511 3984 
Q 2250 4219 1831 4219 
Q 1534 4219 1204 4116 
Q 875 4013 500 3803 
L 500 4441 
Q 881 4594 1212 4672 
Q 1544 4750 1819 4750 
Q 2544 4750 2975 4387 
Q 3406 4025 3406 3419 
Q 3406 3131 3298 2873 
Q 3191 2616 2906 2266 
Q 2828 2175 2409 1742 
Q 1991 1309 1228 531 
z
" transform="scale(0.015625)"/>
       </defs>
       <use xlink:href="#DejaVuSans-2212"/>
       <use xlink:href="#DejaVuSans-32" x="83.789062"/>
      </g>
     </g>
    </g>
    <g id="xtick_3">
     <g id="line2d_3">
      <g>
       <use xlink:href="#m02f2035430" x="115.067372" y="169.2" style="stroke: #000000; stroke-width: 0.8"/>
      </g>
     </g>
     <g id="text_3">
      <!-- −1 -->
      <g transform="translate(107.696278 183.798438) scale(0.1 -0.1)">
       <defs>
        <path id="DejaVuSans-31" d="M 794 531 
L 1825 531 
L 1825 4091 
L 703 3866 
L 703 4441 
L 1819 4666 
L 2450 4666 
L 2450 531 
L 3481 531 
L 3481 0 
L 794 0 
L 794 531 
z
" transform="scale(0.015625)"/>
       </defs>
       <use xlink:href="#DejaVuSans-2212"/>
       <use xlink:href="#DejaVuSans-31" x="83.789062"/>
      </g>
     </g>
    </g>
    <g id="xtick_4">
     <g id="line2d_4">
      <g>
       <use xlink:href="#m02f2035430" x="165.315511" y="169.2" style="stroke: #000000; stroke-width: 0.8"/>
      </g>
     </g>
    </g>
    <g id="xtick_5">
     <g id="line2d_5">
      <g>
       <use xlink:href="#m02f2035430" x="215.56365" y="169.2" style="stroke: #000000; stroke-width: 0.8"/>
      </g>
     </g>
     <g id="text_4">
      <!-- 1 -->
      <g transform="translate(212.3824 183.798438) scale(0.1 -0.1)">
       <use xlink:href="#DejaVuSans-31"/>
      </g>
     </g>
    </g>
    <g id="xtick_6">
     <g id="line2d_6">
      <g>
       <use xlink:href="#m02f2035430" x="265.811789" y="169.2" style="stroke: #000000; stroke-width: 0.8"/>
      </g>
     </g>
     <g id="text_5">
      <!-- 2 -->
      <g transform="translate(262.630539 183.798438) scale(0.1 -0.1)">
       <use xlink:href="#DejaVuSans-32"/>
      </g>
     </g>
    </g>
    <g id="xtick_7">
     <g id="line2d_7">
      <g>
       <use xlink:href="#m02f2035430" x="316.059927" y="169.2" style="stroke: #000000; stroke-width: 0.8"/>
      </g>
     </g>
     <g id="text_6">
      <!-- 3 -->
      <g transform="translate(312.878677 183.798438) scale(0.1 -0.1)">
       <use xlink:href="#DejaVuSans-33"/>
      </g>
     </g>
    </g>
    <g id="xtick_8">
     <g id="line2d_8">
      <defs>
       <path id="m10f3cc776b" d="M 0 0 
L 0 2 
" style="stroke: #000000; stroke-width: 0.6"/>
      </defs>
      <g>
       <use xlink:href="#m10f3cc776b" x="24.620722" y="169.2" style="stroke: #000000; stroke-width: 0.6"/>
      </g>
     </g>
    </g>
    <g id="xtick_9">
     <g id="line2d_9">
      <g>
       <use xlink:href="#m10f3cc776b" x="34.670349" y="169.2" style="stroke: #000000; stroke-width: 0.6"/>
      </g>
     </g>
    </g>
    <g id="xtick_10">
     <g id="line2d_10">
      <g>
       <use xlink:href="#m10f3cc776b" x="44.719977" y="169.2" style="stroke: #000000; stroke-width: 0.6"/>
      </g>
     </g>
    </g>
    <g id="xtick_11">
     <g id="line2d_11">
      <g>
       <use xlink:href="#m10f3cc776b" x="54.769605" y="169.2" style="stroke: #000000; stroke-width: 0.6"/>
      </g>
     </g>
    </g>
    <g id="xtick_12">
     <g id="line2d_12">
      <g>
       <use xlink:href="#m10f3cc776b" x="74.86886" y="169.2" style="stroke: #000000; stroke-width: 0.6"/>
      </g>
     </g>
    </g>
    <g id="xtick_13">
     <g id="line2d_13">
      <g>
       <use xlink:href="#m10f3cc776b" x="84.918488" y="169.2" style="stroke: #000000; stroke-width: 0.6"/>
      </g>
     </g>
    </g>
    <g id="xtick_14">
     <g id="line2d_14">
      <g>
       <use xlink:href="#m10f3cc776b" x="94.968116" y="169.2" style="stroke: #000000; stroke-width: 0.6"/>
      </g>
     </g>
    </g>
    <g id="xtick_15">
     <g id="line2d_15">
      <g>
       <use xlink:href="#m10f3cc776b" x="105.017744" y="169.2" style="stroke: #000000; stroke-width: 0.6"/>
      </g>
     </g>
    </g>
    <g id="xtick_16">
     <g id="line2d_16">
      <g>
       <use xlink:href="#m10f3cc776b" x="125.116999" y="169.2" style="stroke: #000000; stroke-width: 0.6"/>
      </g>
     </g>
    </g>
    <g id="xtick_17">
     <g id="line2d_17">
      <g>
       <use xlink:href="#m10f3cc776b" x="135.166627" y="169.2" style="stroke: #000000; stroke-width: 0.6"/>
      </g>
     </g>
    </g>
    <g id="xtick_18">
     <g id="line2d_18">
      <g>
       <use xlink:href="#m10f3cc776b" x="145.216255" y="169.2" style="stroke: #000000; stroke-width: 0.6"/>
      </g>
     </g>
    </g>
    <g id="xtick_19">
     <g id="line2d_19">
      <g>
       <use xlink:href="#m10f3cc776b" x="155.265883" y="169.2" style="stroke: #000000; stroke-width: 0.6"/>
      </g>
     </g>
    </g>
    <g id="xtick_20">
     <g id="line2d_20">
      <g>
       <use xlink:href="#m10f3cc776b" x="175.365138" y="169.2" style="stroke: #000000; stroke-width: 0.6"/>
      </g>
     </g>
    </g>
    <g id="xtick_21">
     <g id="line2d_21">
      <g>
       <use xlink:href="#m10f3cc776b" x="185.414766" y="169.2" style="stroke: #000000; stroke-width: 0.6"/>
      </g>
     </g>
    </g>
    <g id="xtick_22">
     <g id="line2d_22">
      <g>
       <use xlink:href="#m10f3cc776b" x="195.464394" y="169.2" style="stroke: #000000; stroke-width: 0.6"/>
      </g>
     </g>
    </g>
    <g id="xtick_23">
     <g id="line2d_23">
      <g>
       <use xlink:href="#m10f3cc776b" x="205.514022" y="169.2" style="stroke: #000000; stroke-width: 0.6"/>
      </g>
     </g>
    </g>
    <g id="xtick_24">
     <g id="line2d_24">
      <g>
       <use xlink:href="#m10f3cc776b" x="225.613277" y="169.2" style="stroke: #000000; stroke-width: 0.6"/>
      </g>
     </g>
    </g>
    <g id="xtick_25">
     <g id="line2d_25">
      <g>
       <use xlink:href="#m10f3cc776b" x="235.662905" y="169.2" style="stroke: #000000; stroke-width: 0.6"/>
      </g>
     </g>
    </g>
    <g id="xtick_26">
     <g id="line2d_26">
      <g>
       <use xlink:href="#m10f3cc776b" x="245.712533" y="169.2" style="stroke: #000000; stroke-width: 0.6"/>
      </g>
     </g>
    </g>
    <g id="xtick_27">
     <g id="line2d_27">
      <g>
       <use xlink:href="#m10f3cc776b" x="255.762161" y="169.2" style="stroke: #000000; stroke-width: 0.6"/>
      </g>
     </g>
    </g>
    <g id="xtick_28">
     <g id="line2d_28">
      <g>
       <use xlink:href="#m10f3cc776b" x="275.861416" y="169.2" style="stroke: #000000; stroke-width: 0.6"/>
      </g>
     </g>
    </g>
    <g id="xtick_29">
     <g id="line2d_29">
      <g>
       <use xlink:href="#m10f3cc776b" x="285.911044" y="169.2" style="stroke: #000000; stroke-width: 0.6"/>
      </g>
     </g>
    </g>
    <g id="xtick_30">
     <g id="line2d_30">
      <g>
       <use xlink:href="#m10f3cc776b" x="295.960672" y="169.2" style="stroke: #000000; stroke-width: 0.6"/>
      </g>
     </g>
    </g>
    <g id="xtick_31">
     <g id="line2d_31">
      <g>
       <use xlink:href="#m10f3cc776b" x="306.0103" y="169.2" style="stroke: #000000; stroke-width: 0.6"/>
      </g>
     </g>
    </g>
   </g>
   <g id="matplotlib.axis_2">
    <g id="ytick_1">
     <g id="line2d_32">
      <defs>
       <path id="mea97a0f0b0" d="M 0 0 
L -3.5 0 
" style="stroke: #000000; stroke-width: 0.8"/>
      </defs>
      <g>
       <use xlink:href="#mea97a0f0b0" x="165.315511" y="319.944417" style="stroke: #000000; stroke-width: 0.8"/>
      </g>
     </g>
     <g id="text_7">
      <!-- −3 -->
      <g transform="translate(143.573323 323.743636) scale(0.1 -0.1)">
       <use xlink:href="#DejaVuSans-2212"/>
       <use xlink:href="#DejaVuSans-33" x="83.789062"/>
      </g>
     </g>
    </g>
    <g id="ytick_2">
     <g id="line2d_33">
      <g>
       <use xlink:href="#mea97a0f0b0" x="165.315511" y="269.696278" style="stroke: #000000; stroke-width: 0.8"/>
      </g>
     </g>
     <g id="text_8">
      <!-- −2 -->
      <g transform="translate(143.573323 273.495497) scale(0.1 -0.1)">
       <use xlink:href="#DejaVuSans-2212"/>
       <use xlink:href="#DejaVuSans-32" x="83.789062"/>
      </g>
     </g>
    </g>
    <g id="ytick_3">
     <g id="line2d_34">
      <g>
       <use xlink:href="#mea97a0f0b0" x="165.315511" y="219.448139" style="stroke: #000000; stroke-width: 0.8"/>
      </g>
     </g>
     <g id="text_9">
      <!-- −1 -->
      <g transform="translate(143.573323 223.247358) scale(0.1 -0.1)">
       <use xlink:href="#DejaVuSans-2212"/>
       <use xlink:href="#DejaVuSans-31" x="83.789062"/>
      </g>
     </g>
    </g>
    <g id="ytick_4">
     <g id="line2d_35">
      <g>
       <use xlink:href="#mea97a0f0b0" x="165.315511" y="169.2" style="stroke: #000000; stroke-width: 0.8"/>
      </g>
     </g>
    </g>
    <g id="ytick_5">
     <g id="line2d_36">
      <g>
       <use xlink:href="#mea97a0f0b0" x="165.315511" y="118.951861" style="stroke: #000000; stroke-width: 0.8"/>
      </g>
     </g>
     <g id="text_10">
      <!-- 1 -->
      <g transform="translate(151.953011 122.75108) scale(0.1 -0.1)">
       <use xlink:href="#DejaVuSans-31"/>
      </g>
     </g>
    </g>
    <g id="ytick_6">
     <g id="line2d_37">
      <g>
       <use xlink:href="#mea97a0f0b0" x="165.315511" y="68.703722" style="stroke: #000000; stroke-width: 0.8"/>
      </g>
     </g>
     <g id="text_11">
      <!-- 2 -->
      <g transform="translate(151.953011 72.502941) scale(0.1 -0.1)">
       <use xlink:href="#DejaVuSans-32"/>
      </g>
     </g>
    </g>
    <g id="ytick_7">
     <g id="line2d_38">
      <g>
       <use xlink:href="#mea97a0f0b0" x="165.315511" y="18.455583" style="stroke: #000000; stroke-width: 0.8"/>
      </g>
     </g>
     <g id="text_12">
      <!-- 3 -->
      <g transform="translate(151.953011 22.254802) scale(0.1 -0.1)">
       <use xlink:href="#DejaVuSans-33"/>
      </g>
     </g>
    </g>
    <g id="ytick_8">
     <g id="line2d_39">
      <defs>
       <path id="m02ba8f6728" d="M 0 0 
L -2 0 
" style="stroke: #000000; stroke-width: 0.6"/>
      </defs>
      <g>
       <use xlink:href="#m02ba8f6728" x="165.315511" y="329.994045" style="stroke: #000000; stroke-width: 0.6"/>
      </g>
     </g>
    </g>
    <g id="ytick_9">
     <g id="line2d_40">
      <g>
       <use xlink:href="#m02ba8f6728" x="165.315511" y="309.894789" style="stroke: #000000; stroke-width: 0.6"/>
      </g>
     </g>
    </g>
    <g id="ytick_10">
     <g id="line2d_41">
      <g>
       <use xlink:href="#m02ba8f6728" x="165.315511" y="299.845161" style="stroke: #000000; stroke-width: 0.6"/>
      </g>
     </g>
    </g>
    <g id="ytick_11">
     <g id="line2d_42">
      <g>
       <use xlink:href="#m02ba8f6728" x="165.315511" y="289.795533" style="stroke: #000000; stroke-width: 0.6"/>
      </g>
     </g>
    </g>
    <g id="ytick_12">
     <g id="line2d_43">
      <g>
       <use xlink:href="#m02ba8f6728" x="165.315511" y="279.745906" style="stroke: #000000; stroke-width: 0.6"/>
      </g>
     </g>
    </g>
    <g id="ytick_13">
     <g id="line2d_44">
      <g>
       <use xlink:href="#m02ba8f6728" x="165.315511" y="259.64665" style="stroke: #000000; stroke-width: 0.6"/>
      </g>
     </g>
    </g>
    <g id="ytick_14">
     <g id="line2d_45">
      <g>
       <use xlink:href="#m02ba8f6728" x="165.315511" y="249.597022" style="stroke: #000000; stroke-width: 0.6"/>
      </g>
     </g>
    </g>
    <g id="ytick_15">
     <g id="line2d_46">
      <g>
       <use xlink:href="#m02ba8f6728" x="165.315511" y="239.547395" style="stroke: #000000; stroke-width: 0.6"/>
      </g>
     </g>
    </g>
    <g id="ytick_16">
     <g id="line2d_47">
      <g>
       <use xlink:href="#m02ba8f6728" x="165.315511" y="229.497767" style="stroke: #000000; stroke-width: 0.6"/>
      </g>
     </g>
    </g>
    <g id="ytick_17">
     <g id="line2d_48">
      <g>
       <use xlink:href="#m02ba8f6728" x="165.315511" y="209.398511" style="stroke: #000000; stroke-width: 0.6"/>
      </g>
     </g>
    </g>
    <g id="ytick_18">
     <g id="line2d_49">
      <g>
       <use xlink:href="#m02ba8f6728" x="165.315511" y="199.348883" style="stroke: #000000; stroke-width: 0.6"/>
      </g>
     </g>
    </g>
    <g id="ytick_19">
     <g id="line2d_50">
      <g>
       <use xlink:href="#m02ba8f6728" x="165.315511" y="189.299256" style="stroke: #000000; stroke-width: 0.6"/>
      </g>
     </g>
    </g>
    <g id="ytick_20">
     <g id="line2d_51">
      <g>
       <use xlink:href="#m02ba8f6728" x="165.315511" y="179.249628" style="stroke: #000000; stroke-width: 0.6"/>
      </g>
     </g>
    </g>
    <g id="ytick_21">
     <g id="line2d_52">
      <g>
       <use xlink:href="#m02ba8f6728" x="165.315511" y="159.150372" style="stroke: #000000; stroke-width: 0.6"/>
      </g>
     </g>
    </g>
    <g id="ytick_22">
     <g id="line2d_53">
      <g>
       <use xlink:href="#m02ba8f6728" x="165.315511" y="149.100744" style="stroke: #000000; stroke-width: 0.6"/>
      </g>
     </g>
    </g>
    <g id="ytick_23">
     <g id="line2d_54">
      <g>
       <use xlink:href="#m02ba8f6728" x="165.315511" y="139.051117" style="stroke: #000000; stroke-width: 0.6"/>
      </g>
     </g>
    </g>
    <g id="ytick_24">
     <g id="line2d_55">
      <g>
       <use xlink:href="#m02ba8f6728" x="165.315511" y="129.001489" style="stroke: #000000; stroke-width: 0.6"/>
      </g>
     </g>
    </g>
    <g id="ytick_25">
     <g id="line2d_56">
      <g>
       <use xlink:href="#m02ba8f6728" x="165.315511" y="108.902233" style="stroke: #000000; stroke-width: 0.6"/>
      </g>
     </g>
    </g>
    <g id="ytick_26">
     <g id="line2d_57">
      <g>
       <use xlink:href="#m02ba8f6728" x="165.315511" y="98.852605" style="stroke: #000000; stroke-width: 0.6"/>
      </g>
     </g>
    </g>
    <g id="ytick_27">
     <g id="line2d_58">
      <g>
       <use xlink:href="#m02ba8f6728" x="165.315511" y="88.802978" style="stroke: #000000; stroke-width: 0.6"/>
      </g>
     </g>
    </g>
    <g id="ytick_28">
     <g id="line2d_59">
      <g>
       <use xlink:href="#m02ba8f6728" x="165.315511" y="78.75335" style="stroke: #000000; stroke-width: 0.6"/>
      </g>
     </g>
    </g>
    <g id="ytick_29">
     <g id="line2d_60">
      <g>
       <use xlink:href="#m02ba8f6728" x="165.315511" y="58.654094" style="stroke: #000000; stroke-width: 0.6"/>
      </g>
     </g>
    </g>
    <g id="ytick_30">
     <g id="line2d_61">
      <g>
       <use xlink:href="#m02ba8f6728" x="165.315511" y="48.604467" style="stroke: #000000; stroke-width: 0.6"/>
      </g>
     </g>
    </g>
    <g id="ytick_31">
     <g id="line2d_62">
      <g>
       <use xlink:href="#m02ba8f6728" x="165.315511" y="38.554839" style="stroke: #000000; stroke-width: 0.6"/>
      </g>
     </g>
    </g>
    <g id="ytick_32">
     <g id="line2d_63">
      <g>
       <use xlink:href="#m02ba8f6728" x="165.315511" y="28.505211" style="stroke: #000000; stroke-width: 0.6"/>
      </g>
     </g>
    </g>
    <g id="ytick_33">
     <g id="line2d_64">
      <g>
       <use xlink:href="#m02ba8f6728" x="165.315511" y="8.405955" style="stroke: #000000; stroke-width: 0.6"/>
      </g>
     </g>
    </g>
   </g>
   <g id="PathCollection_5">
    <path d="M 163.79284 173.971854 
L 166.838182 173.971854 
L 166.944768 173.92028 
L 169.883523 171.076323 
L 170.04002 170.773427 
L 170.04002 167.626573 
L 169.883523 167.323677 
L 166.944768 164.47972 
L 166.838182 164.428146 
L 163.79284 164.428146 
L 163.686253 164.47972 
L 160.747498 167.323677 
L 160.591001 167.626573 
L 160.591001 170.773427 
L 160.747498 171.076323 
L 163.686253 173.92028 
L 163.79284 173.971854 
z
" clip-path="url(#p1e102d9472)" style="fill: none; stroke: #add8e6; stroke-width: 1.5"/>
   </g>
   <g id="PathCollection_6">
    <path d="M 163.79284 173.971854 
L 166.838182 173.971854 
L 166.944768 173.92028 
L 169.883523 171.076323 
L 170.04002 170.773427 
L 170.04002 167.626573 
L 169.883523 167.323677 
L 166.944768 164.47972 
L 166.838182 164.428146 
L 163.79284 164.428146 
L 163.686253 164.47972 
L 160.747498 167.323677 
L 160.591001 167.626573 
L 160.591001 170.773427 
L 160.747498 171.076323 
L 163.686253 173.92028 
L 163.79284 173.971854 
z
" clip-path="url(#p1e102d9472)" style="fill: none; stroke: #ffffff; stroke-width: 1.5"/>
   </g>
   <g id="PathCollection_7">
    <path d="M 163.79284 173.971854 
L 166.838182 173.971854 
L 166.944768 173.92028 
L 169.883523 171.076323 
L 170.04002 170.773427 
L 170.04002 167.626573 
L 169.883523 167.323677 
L 166.944768 164.47972 
L 166.838182 164.428146 
L 163.79284 164.428146 
L 163.686253 164.47972 
L 160.747498 167.323677 
L 160.591001 167.626573 
L 160.591001 170.773427 
L 160.747498 171.076323 
L 163.686253 173.92028 
L 163.79284 173.971854 
z
" clip-path="url(#p1e102d9472)" style="fill: none; stroke: #ffffff; stroke-width: 1.5"/>
   </g>
   <g id="line2d_65">
    <path d="M 170.340325 169.2 
L 170.231571 168.160239 
L 169.877552 167.093693 
L 169.269291 166.098971 
L 168.534954 165.342029 
L 167.717394 164.786418 
L 166.757019 164.386393 
L 165.650673 164.186376 
L 164.604517 164.225742 
L 163.547279 164.496585 
L 162.523116 165.022526 
L 161.70791 165.70229 
L 161.061418 166.52578 
L 160.574466 167.535293 
L 160.334087 168.541083 
L 160.304358 169.570274 
L 160.500396 170.636462 
L 160.968824 171.720927 
L 161.494902 172.463695 
L 162.279142 173.203651 
L 163.231801 173.772407 
L 164.177012 174.094137 
L 165.314937 174.224814 
L 166.357595 174.115569 
L 167.391306 173.776006 
L 168.378059 173.183661 
L 169.136208 172.463591 
L 169.781365 171.503237 
L 170.1669 170.508732 
L 170.331728 169.493806 
L 170.340325 169.2 
L 170.340325 169.2 
" clip-path="url(#p1e102d9472)" style="fill: none; stroke: #ff0000; stroke-width: 1.5; stroke-linecap: square"/>
   </g>
   <g id="line2d_66">
    <path d="M 14.571094 169.2 
L 160.290697 169.2 
L 160.290697 169.2 
" clip-path="url(#p1e102d9472)" style="fill: none; stroke-dasharray: 7.4,3.2; stroke-dashoffset: 0; stroke: #ff0000; stroke-width: 2"/>
   </g>
   <g id="patch_3">
    <path d="M 165.315511 331.2 
L 165.315511 7.2 
" style="fill: none; stroke: #000000; stroke-width: 0.8; stroke-linejoin: miter; stroke-linecap: square"/>
   </g>
   <g id="patch_4">
    <path d="M 8.541317 169.2 
L 322.089704 169.2 
" style="fill: none; stroke: #000000; stroke-width: 0.8; stroke-linejoin: miter; stroke-linecap: square"/>
   </g>
  </g>
 </g>
 <defs>
  <clipPath id="p1e102d9472">
   <rect x="8.541317" y="7.2" width="313.548387" height="324"/>
  </clipPath>
 </defs>
</svg>
