<?xml version="1.0" encoding="utf-8" standalone="no"?>
<!DOCTYPE svg PUBLIC "-//W3C//DTD SVG 1.1//EN"
  "http://www.w3.org/Graphics/SVG/1.1/DTD/svg11.dtd">
<svg xmlns:xlink="http://www.w3.org/1999/xlink" width="345.067525pt" height="337.397538pt" viewBox="0 0 345.067525 337.397538" xmlns="http://www.w3.org/2000/svg" version="1.1">
 <metadata>
  <rdf:RDF xmlns:dc="http://purl.org/dc/elements/1.1/" xmlns:cc="http://creativecommons.org/ns#" xmlns:rdf="http://www.w3.org/1999/02/22-rdf-syntax-ns#">
   <cc:Work>
    <dc:type rdf:resource="http://purl.org/dc/dcmitype/StillImage"/>
    <dc:date>2025-01-22T18:36:25.787420</dc:date>
    <dc:format>image/svg+xml</dc:format>
    <dc:creator>
     <cc:Agent>
      <dc:title>Matplotlib v3.6.2, https://matplotlib.org/</dc:title>
     </cc:Agent>
    </dc:creator>
   </cc:Work>
  </rdf:RDF>
 </metadata>
 <defs>
  <style type="text/css">*{stroke-linejoin: round; stroke-linecap: butt}</style>
 </defs>
 <g id="figure_1">
  <g id="patch_1">
   <path d="M 0 337.397538 
L 345.067525 337.397538 
L 345.067525 0 
L 0 0 
z
" style="fill: #ffffff"/>
  </g>
  <g id="axes_1">
   <g id="patch_2">
    <path d="M 13.129915 330.197538 
L 336.127454 330.197538 
L 336.127454 7.2 
L 13.129915 7.2 
z
" style="fill: #ffffff"/>
   </g>
   <g id="PathCollection_1">
    <path d="M 176.197243 91.030874 
L 179.334359 91.030874 
L 182.471476 91.030874 
L 185.608593 91.030874 
L 188.74571 91.030874 
L 191.882826 91.030874 
L 195.019943 91.030874 
L 198.15706 91.030874 
L 201.294177 91.030874 
L 204.431293 91.030874 
L 207.56841 91.030874 
L 210.705527 91.030874 
L 213.842643 91.030874 
L 216.97976 91.030874 
L 220.116877 91.030874 
L 223.253994 91.030874 
L 226.39111 91.030874 
L 229.528227 91.030874 
L 232.665344 91.030874 
L 235.802461 91.030874 
L 238.939577 91.030874 
L 242.076694 91.030874 
L 245.213811 91.030874 
L 248.350927 91.030874 
L 251.488044 91.030874 
L 252.249028 88.702293 
L 252.249028 85.565176 
L 252.249028 82.428059 
L 252.249028 79.290942 
L 252.249028 76.153826 
L 252.249028 73.016709 
L 252.249028 69.879592 
L 252.249028 66.742476 
L 252.249028 63.605359 
L 252.249028 60.468242 
L 252.249028 57.331125 
L 252.249028 54.194009 
L 252.249028 51.056892 
L 252.249028 47.919775 
L 252.249028 44.782658 
L 252.249028 41.645542 
L 252.249028 38.508425 
L 252.249028 35.371308 
L 252.249028 32.234192 
L 252.249028 29.097075 
L 252.249028 25.959958 
L 252.249028 22.822841 
L 252.249028 19.685725 
L 252.249028 16.548608 
L 251.488044 13.411491 
L 248.350927 13.411491 
L 245.213811 13.411491 
L 242.076694 13.411491 
L 238.939577 13.411491 
L 235.802461 13.411491 
L 232.665344 13.411491 
L 229.528227 13.411491 
L 226.39111 13.411491 
L 223.253994 13.411491 
L 220.116877 13.411491 
L 216.97976 13.411491 
L 213.842643 13.411491 
L 210.705527 13.411491 
L 207.56841 13.411491 
L 204.431293 13.411491 
L 201.294177 13.411491 
L 198.15706 13.411491 
L 195.019943 13.411491 
L 191.882826 13.411491 
L 188.74571 13.411491 
L 185.608593 13.411491 
L 182.471476 13.411491 
L 179.334359 13.411491 
L 176.197243 13.411491 
L 174.660372 16.548608 
L 174.660372 19.685725 
L 174.660372 22.822841 
L 174.660372 25.959958 
L 174.660372 29.097075 
L 174.660372 32.234192 
L 174.660372 35.371308 
L 174.660372 38.508425 
L 174.660372 41.645542 
L 174.660372 44.782658 
L 174.660372 47.919775 
L 174.660372 51.056892 
L 174.660372 54.194009 
L 174.660372 57.331125 
L 174.660372 60.468242 
L 174.660372 63.605359 
L 174.660372 66.742476 
L 174.660372 69.879592 
L 174.660372 73.016709 
L 174.660372 76.153826 
L 174.660372 79.290942 
L 174.660372 82.428059 
L 174.660372 85.565176 
L 174.660372 88.702293 
z
" clip-path="url(#pae6d22e9d3)" style="fill: #add8e6"/>
   </g>
   <g id="PathCollection_2">
    <path d="M 176.197243 91.030874 
L 179.334359 91.030874 
L 182.471476 91.030874 
L 185.608593 91.030874 
L 188.74571 91.030874 
L 191.882826 91.030874 
L 195.019943 91.030874 
L 198.15706 91.030874 
L 201.294177 91.030874 
L 204.431293 91.030874 
L 207.56841 91.030874 
L 210.705527 91.030874 
L 213.842643 91.030874 
L 216.97976 91.030874 
L 220.116877 91.030874 
L 223.253994 91.030874 
L 226.39111 91.030874 
L 229.528227 91.030874 
L 232.665344 91.030874 
L 235.802461 91.030874 
L 238.939577 91.030874 
L 242.076694 91.030874 
L 245.213811 91.030874 
L 248.350927 91.030874 
L 251.488044 91.030874 
L 252.249028 88.702293 
L 252.249028 85.565176 
L 252.249028 82.428059 
L 252.249028 79.290942 
L 252.249028 76.153826 
L 252.249028 73.016709 
L 252.249028 69.879592 
L 252.249028 66.742476 
L 252.249028 63.605359 
L 252.249028 60.468242 
L 252.249028 57.331125 
L 252.249028 54.194009 
L 252.249028 51.056892 
L 252.249028 47.919775 
L 252.249028 44.782658 
L 252.249028 41.645542 
L 252.249028 38.508425 
L 252.249028 35.371308 
L 252.249028 32.234192 
L 252.249028 29.097075 
L 252.249028 25.959958 
L 252.249028 22.822841 
L 252.249028 19.685725 
L 252.249028 16.548608 
L 254.625161 13.411491 
L 257.762278 13.411491 
L 260.899394 13.411491 
L 264.036511 13.411491 
L 267.173628 13.411491 
L 270.310745 13.411491 
L 273.447861 13.411491 
L 276.584978 13.411491 
L 279.722095 13.411491 
L 282.859212 13.411491 
L 285.996328 13.411491 
L 289.133445 13.411491 
L 292.270562 13.411491 
L 295.407678 13.411491 
L 298.544795 13.411491 
L 301.681912 13.411491 
L 304.819029 13.411491 
L 307.956145 13.411491 
L 311.093262 13.411491 
L 314.230379 13.411491 
L 317.367496 13.411491 
L 320.504612 13.411491 
L 323.641729 13.411491 
L 326.778846 13.411491 
L 329.915962 13.411491 
L 329.915962 13.411491 
L 326.778846 13.411491 
L 323.641729 13.411491 
L 320.504612 13.411491 
L 317.367496 13.411491 
L 314.230379 13.411491 
L 311.093262 13.411491 
L 307.956145 13.411491 
L 304.819029 13.411491 
L 301.681912 13.411491 
L 298.544795 13.411491 
L 295.407678 13.411491 
L 292.270562 13.411491 
L 289.133445 13.411491 
L 285.996328 13.411491 
L 282.859212 13.411491 
L 279.722095 13.411491 
L 276.584978 13.411491 
L 273.447861 13.411491 
L 270.310745 13.411491 
L 267.173628 13.411491 
L 264.036511 13.411491 
L 260.899394 13.411491 
L 257.762278 13.411491 
L 254.625161 13.411491 
L 251.488044 13.411491 
L 248.350927 13.411491 
L 245.213811 13.411491 
L 242.076694 13.411491 
L 238.939577 13.411491 
L 235.802461 13.411491 
L 232.665344 13.411491 
L 229.528227 13.411491 
L 226.39111 13.411491 
L 223.253994 13.411491 
L 220.116877 13.411491 
L 216.97976 13.411491 
L 213.842643 13.411491 
L 210.705527 13.411491 
L 207.56841 13.411491 
L 204.431293 13.411491 
L 201.294177 13.411491 
L 198.15706 13.411491 
L 195.019943 13.411491 
L 191.882826 13.411491 
L 188.74571 13.411491 
L 185.608593 13.411491 
L 182.471476 13.411491 
L 179.334359 13.411491 
L 176.197243 13.411491 
L 173.060126 13.411491 
L 169.923009 13.411491 
L 166.785893 13.411491 
L 163.648776 13.411491 
L 160.511659 13.411491 
L 157.374542 13.411491 
L 154.237426 13.411491 
L 151.100309 13.411491 
L 147.963192 13.411491 
L 144.826075 13.411491 
L 141.688959 13.411491 
L 138.551842 13.411491 
L 135.414725 13.411491 
L 132.277609 13.411491 
L 129.140492 13.411491 
L 126.003375 13.411491 
L 122.866258 13.411491 
L 119.729142 13.411491 
L 116.592025 13.411491 
L 113.454908 13.411491 
L 110.317791 13.411491 
L 107.180675 13.411491 
L 104.043558 13.411491 
L 100.906441 13.411491 
L 97.769324 13.411491 
L 94.632208 13.411491 
L 91.495091 13.411491 
L 88.357974 13.411491 
L 85.220858 13.411491 
L 82.083741 13.411491 
L 78.946624 13.411491 
L 75.809507 13.411491 
L 72.672391 13.411491 
L 69.535274 13.411491 
L 66.398157 13.411491 
L 63.26104 13.411491 
L 60.123924 13.411491 
L 56.986807 13.411491 
L 53.84969 13.411491 
L 50.712574 13.411491 
L 47.575457 13.411491 
L 44.43834 13.411491 
L 41.301223 13.411491 
L 38.164107 13.411491 
L 35.02699 13.411491 
L 31.889873 13.411491 
L 28.752756 13.411491 
L 25.61564 13.411491 
L 22.478523 13.411491 
L 19.341406 13.411491 
L 19.341406 13.411491 
L 22.478523 13.411491 
L 25.61564 13.411491 
L 28.752756 13.411491 
L 31.889873 13.411491 
L 35.02699 13.411491 
L 38.164107 13.411491 
L 41.301223 13.411491 
L 44.43834 13.411491 
L 47.575457 13.411491 
L 50.712574 13.411491 
L 53.84969 13.411491 
L 56.986807 13.411491 
L 60.123924 13.411491 
L 63.26104 13.411491 
L 66.398157 13.411491 
L 69.535274 13.411491 
L 72.672391 13.411491 
L 75.809507 13.411491 
L 78.946624 13.411491 
L 82.083741 13.411491 
L 85.220858 13.411491 
L 88.357974 13.411491 
L 91.495091 13.411491 
L 94.632208 13.411491 
L 97.769324 13.411491 
L 100.906441 13.411491 
L 104.043558 13.411491 
L 107.180675 13.411491 
L 110.317791 13.411491 
L 113.454908 13.411491 
L 116.592025 13.411491 
L 119.729142 13.411491 
L 122.866258 13.411491 
L 126.003375 13.411491 
L 129.140492 13.411491 
L 132.277609 13.411491 
L 135.414725 13.411491 
L 138.551842 13.411491 
L 141.688959 13.411491 
L 144.826075 13.411491 
L 147.963192 13.411491 
L 151.100309 13.411491 
L 154.237426 13.411491 
L 157.374542 13.411491 
L 160.511659 13.411491 
L 163.648776 13.411491 
L 166.785893 13.411491 
L 169.923009 13.411491 
L 173.060126 13.411491 
L 174.660372 16.548608 
L 174.660372 19.685725 
L 174.660372 22.822841 
L 174.660372 25.959958 
L 174.660372 29.097075 
L 174.660372 32.234192 
L 174.660372 35.371308 
L 174.660372 38.508425 
L 174.660372 41.645542 
L 174.660372 44.782658 
L 174.660372 47.919775 
L 174.660372 51.056892 
L 174.660372 54.194009 
L 174.660372 57.331125 
L 174.660372 60.468242 
L 174.660372 63.605359 
L 174.660372 66.742476 
L 174.660372 69.879592 
L 174.660372 73.016709 
L 174.660372 76.153826 
L 174.660372 79.290942 
L 174.660372 82.428059 
L 174.660372 85.565176 
L 174.660372 88.702293 
z
M 174.660372 88.702293 
L 174.660372 85.565176 
L 174.660372 82.428059 
L 174.660372 79.290942 
L 174.660372 76.153826 
L 174.660372 73.016709 
L 174.660372 69.879592 
L 174.660372 66.742476 
L 174.660372 63.605359 
L 174.660372 60.468242 
L 174.660372 57.331125 
L 174.660372 54.194009 
L 174.660372 51.056892 
L 174.660372 47.919775 
L 174.660372 44.782658 
L 174.660372 41.645542 
L 174.660372 38.508425 
L 174.660372 35.371308 
L 174.660372 32.234192 
L 174.660372 29.097075 
L 174.660372 25.959958 
L 174.660372 22.822841 
L 174.660372 19.685725 
L 174.660372 16.548608 
L 176.197243 13.411491 
L 179.334359 13.411491 
L 182.471476 13.411491 
L 185.608593 13.411491 
L 188.74571 13.411491 
L 191.882826 13.411491 
L 195.019943 13.411491 
L 198.15706 13.411491 
L 201.294177 13.411491 
L 204.431293 13.411491 
L 207.56841 13.411491 
L 210.705527 13.411491 
L 213.842643 13.411491 
L 216.97976 13.411491 
L 220.116877 13.411491 
L 223.253994 13.411491 
L 226.39111 13.411491 
L 229.528227 13.411491 
L 232.665344 13.411491 
L 235.802461 13.411491 
L 238.939577 13.411491 
L 242.076694 13.411491 
L 245.213811 13.411491 
L 248.350927 13.411491 
L 251.488044 13.411491 
L 252.249028 16.548608 
L 252.249028 19.685725 
L 252.249028 22.822841 
L 252.249028 25.959958 
L 252.249028 29.097075 
L 252.249028 32.234192 
L 252.249028 35.371308 
L 252.249028 38.508425 
L 252.249028 41.645542 
L 252.249028 44.782658 
L 252.249028 47.919775 
L 252.249028 51.056892 
L 252.249028 54.194009 
L 252.249028 57.331125 
L 252.249028 60.468242 
L 252.249028 63.605359 
L 252.249028 66.742476 
L 252.249028 69.879592 
L 252.249028 73.016709 
L 252.249028 76.153826 
L 252.249028 79.290942 
L 252.249028 82.428059 
L 252.249028 85.565176 
L 252.249028 88.702293 
L 251.488044 91.030874 
L 248.350927 91.030874 
L 245.213811 91.030874 
L 242.076694 91.030874 
L 238.939577 91.030874 
L 235.802461 91.030874 
L 232.665344 91.030874 
L 229.528227 91.030874 
L 226.39111 91.030874 
L 223.253994 91.030874 
L 220.116877 91.030874 
L 216.97976 91.030874 
L 213.842643 91.030874 
L 210.705527 91.030874 
L 207.56841 91.030874 
L 204.431293 91.030874 
L 201.294177 91.030874 
L 198.15706 91.030874 
L 195.019943 91.030874 
L 191.882826 91.030874 
L 188.74571 91.030874 
L 185.608593 91.030874 
L 182.471476 91.030874 
L 179.334359 91.030874 
L 176.197243 91.030874 
z
" clip-path="url(#pae6d22e9d3)" style="fill: #add8e6"/>
   </g>
   <g id="PathCollection_3">
    <path d="M 176.197243 91.030874 
L 179.334359 91.030874 
L 182.471476 91.030874 
L 185.608593 91.030874 
L 188.74571 91.030874 
L 191.882826 91.030874 
L 195.019943 91.030874 
L 198.15706 91.030874 
L 201.294177 91.030874 
L 204.431293 91.030874 
L 207.56841 91.030874 
L 210.705527 91.030874 
L 213.842643 91.030874 
L 216.97976 91.030874 
L 220.116877 91.030874 
L 223.253994 91.030874 
L 226.39111 91.030874 
L 229.528227 91.030874 
L 232.665344 91.030874 
L 235.802461 91.030874 
L 238.939577 91.030874 
L 242.076694 91.030874 
L 245.213811 91.030874 
L 248.350927 91.030874 
L 251.488044 91.030874 
L 252.249028 88.702293 
L 252.249028 85.565176 
L 252.249028 82.428059 
L 252.249028 79.290942 
L 252.249028 76.153826 
L 252.249028 73.016709 
L 252.249028 69.879592 
L 252.249028 66.742476 
L 252.249028 63.605359 
L 252.249028 60.468242 
L 252.249028 57.331125 
L 252.249028 54.194009 
L 252.249028 51.056892 
L 252.249028 47.919775 
L 252.249028 44.782658 
L 252.249028 41.645542 
L 252.249028 38.508425 
L 252.249028 35.371308 
L 252.249028 32.234192 
L 252.249028 29.097075 
L 252.249028 25.959958 
L 252.249028 22.822841 
L 252.249028 19.685725 
L 252.249028 16.548608 
L 254.625161 13.411491 
L 257.762278 13.411491 
L 260.899394 13.411491 
L 264.036511 13.411491 
L 267.173628 13.411491 
L 270.310745 13.411491 
L 273.447861 13.411491 
L 276.584978 13.411491 
L 279.722095 13.411491 
L 282.859212 13.411491 
L 285.996328 13.411491 
L 289.133445 13.411491 
L 292.270562 13.411491 
L 295.407678 13.411491 
L 298.544795 13.411491 
L 301.681912 13.411491 
L 304.819029 13.411491 
L 307.956145 13.411491 
L 311.093262 13.411491 
L 314.230379 13.411491 
L 317.367496 13.411491 
L 320.504612 13.411491 
L 323.641729 13.411491 
L 326.778846 13.411491 
L 329.915962 13.411491 
L 329.915962 13.411491 
L 326.778846 13.411491 
L 323.641729 13.411491 
L 320.504612 13.411491 
L 317.367496 13.411491 
L 314.230379 13.411491 
L 311.093262 13.411491 
L 307.956145 13.411491 
L 304.819029 13.411491 
L 301.681912 13.411491 
L 298.544795 13.411491 
L 295.407678 13.411491 
L 292.270562 13.411491 
L 289.133445 13.411491 
L 285.996328 13.411491 
L 282.859212 13.411491 
L 279.722095 13.411491 
L 276.584978 13.411491 
L 273.447861 13.411491 
L 270.310745 13.411491 
L 267.173628 13.411491 
L 264.036511 13.411491 
L 260.899394 13.411491 
L 257.762278 13.411491 
L 254.625161 13.411491 
L 252.249028 16.548608 
L 252.249028 19.685725 
L 252.249028 22.822841 
L 252.249028 25.959958 
L 252.249028 29.097075 
L 252.249028 32.234192 
L 252.249028 35.371308 
L 252.249028 38.508425 
L 252.249028 41.645542 
L 252.249028 44.782658 
L 252.249028 47.919775 
L 252.249028 51.056892 
L 252.249028 54.194009 
L 252.249028 57.331125 
L 252.249028 60.468242 
L 252.249028 63.605359 
L 252.249028 66.742476 
L 252.249028 69.879592 
L 252.249028 73.016709 
L 252.249028 76.153826 
L 252.249028 79.290942 
L 252.249028 82.428059 
L 252.249028 85.565176 
L 252.249028 88.702293 
L 251.488044 91.030874 
L 248.350927 91.030874 
L 245.213811 91.030874 
L 242.076694 91.030874 
L 238.939577 91.030874 
L 235.802461 91.030874 
L 232.665344 91.030874 
L 229.528227 91.030874 
L 226.39111 91.030874 
L 223.253994 91.030874 
L 220.116877 91.030874 
L 216.97976 91.030874 
L 213.842643 91.030874 
L 210.705527 91.030874 
L 207.56841 91.030874 
L 204.431293 91.030874 
L 201.294177 91.030874 
L 198.15706 91.030874 
L 195.019943 91.030874 
L 191.882826 91.030874 
L 188.74571 91.030874 
L 185.608593 91.030874 
L 182.471476 91.030874 
L 179.334359 91.030874 
L 176.197243 91.030874 
L 174.660372 88.702293 
L 174.660372 85.565176 
L 174.660372 82.428059 
L 174.660372 79.290942 
L 174.660372 76.153826 
L 174.660372 73.016709 
L 174.660372 69.879592 
L 174.660372 66.742476 
L 174.660372 63.605359 
L 174.660372 60.468242 
L 174.660372 57.331125 
L 174.660372 54.194009 
L 174.660372 51.056892 
L 174.660372 47.919775 
L 174.660372 44.782658 
L 174.660372 41.645542 
L 174.660372 38.508425 
L 174.660372 35.371308 
L 174.660372 32.234192 
L 174.660372 29.097075 
L 174.660372 25.959958 
L 174.660372 22.822841 
L 174.660372 19.685725 
L 174.660372 16.548608 
L 173.060126 13.411491 
L 169.923009 13.411491 
L 166.785893 13.411491 
L 163.648776 13.411491 
L 160.511659 13.411491 
L 157.374542 13.411491 
L 154.237426 13.411491 
L 151.100309 13.411491 
L 147.963192 13.411491 
L 144.826075 13.411491 
L 141.688959 13.411491 
L 138.551842 13.411491 
L 135.414725 13.411491 
L 132.277609 13.411491 
L 129.140492 13.411491 
L 126.003375 13.411491 
L 122.866258 13.411491 
L 119.729142 13.411491 
L 116.592025 13.411491 
L 113.454908 13.411491 
L 110.317791 13.411491 
L 107.180675 13.411491 
L 104.043558 13.411491 
L 100.906441 13.411491 
L 97.769324 13.411491 
L 94.632208 13.411491 
L 91.495091 13.411491 
L 88.357974 13.411491 
L 85.220858 13.411491 
L 82.083741 13.411491 
L 78.946624 13.411491 
L 75.809507 13.411491 
L 72.672391 13.411491 
L 69.535274 13.411491 
L 66.398157 13.411491 
L 63.26104 13.411491 
L 60.123924 13.411491 
L 56.986807 13.411491 
L 53.84969 13.411491 
L 50.712574 13.411491 
L 47.575457 13.411491 
L 44.43834 13.411491 
L 41.301223 13.411491 
L 38.164107 13.411491 
L 35.02699 13.411491 
L 31.889873 13.411491 
L 28.752756 13.411491 
L 25.61564 13.411491 
L 22.478523 13.411491 
L 19.341406 13.411491 
L 19.341406 13.411491 
L 22.478523 13.411491 
L 25.61564 13.411491 
L 28.752756 13.411491 
L 31.889873 13.411491 
L 35.02699 13.411491 
L 38.164107 13.411491 
L 41.301223 13.411491 
L 44.43834 13.411491 
L 47.575457 13.411491 
L 50.712574 13.411491 
L 53.84969 13.411491 
L 56.986807 13.411491 
L 60.123924 13.411491 
L 63.26104 13.411491 
L 66.398157 13.411491 
L 69.535274 13.411491 
L 72.672391 13.411491 
L 75.809507 13.411491 
L 78.946624 13.411491 
L 82.083741 13.411491 
L 85.220858 13.411491 
L 88.357974 13.411491 
L 91.495091 13.411491 
L 94.632208 13.411491 
L 97.769324 13.411491 
L 100.906441 13.411491 
L 104.043558 13.411491 
L 107.180675 13.411491 
L 110.317791 13.411491 
L 113.454908 13.411491 
L 116.592025 13.411491 
L 119.729142 13.411491 
L 122.866258 13.411491 
L 126.003375 13.411491 
L 129.140492 13.411491 
L 132.277609 13.411491 
L 135.414725 13.411491 
L 138.551842 13.411491 
L 141.688959 13.411491 
L 144.826075 13.411491 
L 147.963192 13.411491 
L 151.100309 13.411491 
L 154.237426 13.411491 
L 157.374542 13.411491 
L 160.511659 13.411491 
L 163.648776 13.411491 
L 166.785893 13.411491 
L 169.923009 13.411491 
L 173.060126 13.411491 
L 174.660372 16.548608 
L 174.660372 19.685725 
L 174.660372 22.822841 
L 174.660372 25.959958 
L 174.660372 29.097075 
L 174.660372 32.234192 
L 174.660372 35.371308 
L 174.660372 38.508425 
L 174.660372 41.645542 
L 174.660372 44.782658 
L 174.660372 47.919775 
L 174.660372 51.056892 
L 174.660372 54.194009 
L 174.660372 57.331125 
L 174.660372 60.468242 
L 174.660372 63.605359 
L 174.660372 66.742476 
L 174.660372 69.879592 
L 174.660372 73.016709 
L 174.660372 76.153826 
L 174.660372 79.290942 
L 174.660372 82.428059 
L 174.660372 85.565176 
L 174.660372 88.702293 
z
" clip-path="url(#pae6d22e9d3)" style="fill: #ffffff"/>
   </g>
   <g id="PathCollection_4">
    <path d="M 22.478523 323.986047 
L 25.61564 323.986047 
L 28.752756 323.986047 
L 31.889873 323.986047 
L 35.02699 323.986047 
L 38.164107 323.986047 
L 41.301223 323.986047 
L 44.43834 323.986047 
L 47.575457 323.986047 
L 50.712574 323.986047 
L 53.84969 323.986047 
L 56.986807 323.986047 
L 60.123924 323.986047 
L 63.26104 323.986047 
L 66.398157 323.986047 
L 69.535274 323.986047 
L 72.672391 323.986047 
L 75.809507 323.986047 
L 78.946624 323.986047 
L 82.083741 323.986047 
L 85.220858 323.986047 
L 88.357974 323.986047 
L 91.495091 323.986047 
L 94.632208 323.986047 
L 97.769324 323.986047 
L 100.906441 323.986047 
L 104.043558 323.986047 
L 107.180675 323.986047 
L 110.317791 323.986047 
L 113.454908 323.986047 
L 116.592025 323.986047 
L 119.729142 323.986047 
L 122.866258 323.986047 
L 126.003375 323.986047 
L 129.140492 323.986047 
L 132.277609 323.986047 
L 135.414725 323.986047 
L 138.551842 323.986047 
L 141.688959 323.986047 
L 144.826075 323.986047 
L 147.963192 323.986047 
L 151.100309 323.986047 
L 154.237426 323.986047 
L 157.374542 323.986047 
L 160.511659 323.986047 
L 163.648776 323.986047 
L 166.785893 323.986047 
L 169.923009 323.986047 
L 173.060126 323.986047 
L 176.197243 323.986047 
L 179.334359 323.986047 
L 182.471476 323.986047 
L 185.608593 323.986047 
L 188.74571 323.986047 
L 191.882826 323.986047 
L 195.019943 323.986047 
L 198.15706 323.986047 
L 201.294177 323.986047 
L 204.431293 323.986047 
L 207.56841 323.986047 
L 210.705527 323.986047 
L 213.842643 323.986047 
L 216.97976 323.986047 
L 220.116877 323.986047 
L 223.253994 323.986047 
L 226.39111 323.986047 
L 229.528227 323.986047 
L 232.665344 323.986047 
L 235.802461 323.986047 
L 238.939577 323.986047 
L 242.076694 323.986047 
L 245.213811 323.986047 
L 248.350927 323.986047 
L 251.488044 323.986047 
L 254.625161 323.986047 
L 257.762278 323.986047 
L 260.899394 323.986047 
L 264.036511 323.986047 
L 267.173628 323.986047 
L 270.310745 323.986047 
L 273.447861 323.986047 
L 276.584978 323.986047 
L 279.722095 323.986047 
L 282.859212 323.986047 
L 285.996328 323.986047 
L 289.133445 323.986047 
L 292.270562 323.986047 
L 295.407678 323.986047 
L 298.544795 323.986047 
L 301.681912 323.986047 
L 304.819029 323.986047 
L 307.956145 323.986047 
L 311.093262 323.986047 
L 314.230379 323.986047 
L 317.367496 323.986047 
L 320.504612 323.986047 
L 323.641729 323.986047 
L 326.778846 323.986047 
L 329.915962 323.986047 
L 329.915962 320.848931 
L 329.915962 317.711814 
L 329.915962 314.574697 
L 329.915962 311.43758 
L 329.915962 308.300464 
L 329.915962 305.163347 
L 329.915962 302.02623 
L 329.915962 298.889114 
L 329.915962 295.751997 
L 329.915962 292.61488 
L 329.915962 289.477763 
L 329.915962 286.340647 
L 329.915962 283.20353 
L 329.915962 280.066413 
L 329.915962 276.929296 
L 329.915962 273.79218 
L 329.915962 270.655063 
L 329.915962 267.517946 
L 329.915962 264.380829 
L 329.915962 261.243713 
L 329.915962 258.106596 
L 329.915962 254.969479 
L 329.915962 251.832363 
L 329.915962 248.695246 
L 329.915962 245.558129 
L 329.915962 242.421012 
L 329.915962 239.283896 
L 329.915962 236.146779 
L 329.915962 233.009662 
L 329.915962 229.872545 
L 329.915962 226.735429 
L 329.915962 223.598312 
L 329.915962 220.461195 
L 329.915962 217.324079 
L 329.915962 214.186962 
L 329.915962 211.049845 
L 329.915962 207.912728 
L 329.915962 204.775612 
L 329.915962 201.638495 
L 329.915962 198.501378 
L 329.915962 195.364261 
L 329.915962 192.227145 
L 329.915962 189.090028 
L 329.915962 185.952911 
L 329.915962 182.815795 
L 329.915962 179.678678 
L 329.915962 176.541561 
L 329.915962 173.404444 
L 329.915962 170.267328 
L 329.915962 167.130211 
L 329.915962 163.993094 
L 329.915962 160.855977 
L 329.915962 157.718861 
L 329.915962 154.581744 
L 329.915962 151.444627 
L 329.915962 148.30751 
L 329.915962 145.170394 
L 329.915962 142.033277 
L 329.915962 138.89616 
L 329.915962 135.759044 
L 329.915962 132.621927 
L 329.915962 129.48481 
L 329.915962 126.347693 
L 329.915962 123.210577 
L 329.915962 120.07346 
L 329.915962 116.936343 
L 329.915962 113.799226 
L 329.915962 110.66211 
L 329.915962 107.524993 
L 329.915962 104.387876 
L 329.915962 101.25076 
L 329.915962 98.113643 
L 329.915962 94.976526 
L 329.915962 91.839409 
L 329.915962 88.702293 
L 329.915962 85.565176 
L 329.915962 82.428059 
L 329.915962 79.290942 
L 329.915962 76.153826 
L 329.915962 73.016709 
L 329.915962 69.879592 
L 329.915962 66.742476 
L 329.915962 63.605359 
L 329.915962 60.468242 
L 329.915962 57.331125 
L 329.915962 54.194009 
L 329.915962 51.056892 
L 329.915962 47.919775 
L 329.915962 44.782658 
L 329.915962 41.645542 
L 329.915962 38.508425 
L 329.915962 35.371308 
L 329.915962 32.234192 
L 329.915962 29.097075 
L 329.915962 25.959958 
L 329.915962 22.822841 
L 329.915962 19.685725 
L 329.915962 16.548608 
L 329.915962 13.411491 
L 326.778846 13.411491 
L 323.641729 13.411491 
L 320.504612 13.411491 
L 317.367496 13.411491 
L 314.230379 13.411491 
L 311.093262 13.411491 
L 307.956145 13.411491 
L 304.819029 13.411491 
L 301.681912 13.411491 
L 298.544795 13.411491 
L 295.407678 13.411491 
L 292.270562 13.411491 
L 289.133445 13.411491 
L 285.996328 13.411491 
L 282.859212 13.411491 
L 279.722095 13.411491 
L 276.584978 13.411491 
L 273.447861 13.411491 
L 270.310745 13.411491 
L 267.173628 13.411491 
L 264.036511 13.411491 
L 260.899394 13.411491 
L 257.762278 13.411491 
L 254.625161 13.411491 
L 252.249028 16.548608 
L 252.249028 19.685725 
L 252.249028 22.822841 
L 252.249028 25.959958 
L 252.249028 29.097075 
L 252.249028 32.234192 
L 252.249028 35.371308 
L 252.249028 38.508425 
L 252.249028 41.645542 
L 252.249028 44.782658 
L 252.249028 47.919775 
L 252.249028 51.056892 
L 252.249028 54.194009 
L 252.249028 57.331125 
L 252.249028 60.468242 
L 252.249028 63.605359 
L 252.249028 66.742476 
L 252.249028 69.879592 
L 252.249028 73.016709 
L 252.249028 76.153826 
L 252.249028 79.290942 
L 252.249028 82.428059 
L 252.249028 85.565176 
L 252.249028 88.702293 
L 251.488044 91.030874 
L 248.350927 91.030874 
L 245.213811 91.030874 
L 242.076694 91.030874 
L 238.939577 91.030874 
L 235.802461 91.030874 
L 232.665344 91.030874 
L 229.528227 91.030874 
L 226.39111 91.030874 
L 223.253994 91.030874 
L 220.116877 91.030874 
L 216.97976 91.030874 
L 213.842643 91.030874 
L 210.705527 91.030874 
L 207.56841 91.030874 
L 204.431293 91.030874 
L 201.294177 91.030874 
L 198.15706 91.030874 
L 195.019943 91.030874 
L 191.882826 91.030874 
L 188.74571 91.030874 
L 185.608593 91.030874 
L 182.471476 91.030874 
L 179.334359 91.030874 
L 176.197243 91.030874 
L 174.660372 88.702293 
L 174.660372 85.565176 
L 174.660372 82.428059 
L 174.660372 79.290942 
L 174.660372 76.153826 
L 174.660372 73.016709 
L 174.660372 69.879592 
L 174.660372 66.742476 
L 174.660372 63.605359 
L 174.660372 60.468242 
L 174.660372 57.331125 
L 174.660372 54.194009 
L 174.660372 51.056892 
L 174.660372 47.919775 
L 174.660372 44.782658 
L 174.660372 41.645542 
L 174.660372 38.508425 
L 174.660372 35.371308 
L 174.660372 32.234192 
L 174.660372 29.097075 
L 174.660372 25.959958 
L 174.660372 22.822841 
L 174.660372 19.685725 
L 174.660372 16.548608 
L 173.060126 13.411491 
L 169.923009 13.411491 
L 166.785893 13.411491 
L 163.648776 13.411491 
L 160.511659 13.411491 
L 157.374542 13.411491 
L 154.237426 13.411491 
L 151.100309 13.411491 
L 147.963192 13.411491 
L 144.826075 13.411491 
L 141.688959 13.411491 
L 138.551842 13.411491 
L 135.414725 13.411491 
L 132.277609 13.411491 
L 129.140492 13.411491 
L 126.003375 13.411491 
L 122.866258 13.411491 
L 119.729142 13.411491 
L 116.592025 13.411491 
L 113.454908 13.411491 
L 110.317791 13.411491 
L 107.180675 13.411491 
L 104.043558 13.411491 
L 100.906441 13.411491 
L 97.769324 13.411491 
L 94.632208 13.411491 
L 91.495091 13.411491 
L 88.357974 13.411491 
L 85.220858 13.411491 
L 82.083741 13.411491 
L 78.946624 13.411491 
L 75.809507 13.411491 
L 72.672391 13.411491 
L 69.535274 13.411491 
L 66.398157 13.411491 
L 63.26104 13.411491 
L 60.123924 13.411491 
L 56.986807 13.411491 
L 53.84969 13.411491 
L 50.712574 13.411491 
L 47.575457 13.411491 
L 44.43834 13.411491 
L 41.301223 13.411491 
L 38.164107 13.411491 
L 35.02699 13.411491 
L 31.889873 13.411491 
L 28.752756 13.411491 
L 25.61564 13.411491 
L 22.478523 13.411491 
L 19.341406 13.411491 
L 19.341406 16.548608 
L 19.341406 19.685725 
L 19.341406 22.822841 
L 19.341406 25.959958 
L 19.341406 29.097075 
L 19.341406 32.234192 
L 19.341406 35.371308 
L 19.341406 38.508425 
L 19.341406 41.645542 
L 19.341406 44.782658 
L 19.341406 47.919775 
L 19.341406 51.056892 
L 19.341406 54.194009 
L 19.341406 57.331125 
L 19.341406 60.468242 
L 19.341406 63.605359 
L 19.341406 66.742476 
L 19.341406 69.879592 
L 19.341406 73.016709 
L 19.341406 76.153826 
L 19.341406 79.290942 
L 19.341406 82.428059 
L 19.341406 85.565176 
L 19.341406 88.702293 
L 19.341406 91.839409 
L 19.341406 94.976526 
L 19.341406 98.113643 
L 19.341406 101.25076 
L 19.341406 104.387876 
L 19.341406 107.524993 
L 19.341406 110.66211 
L 19.341406 113.799226 
L 19.341406 116.936343 
L 19.341406 120.07346 
L 19.341406 123.210577 
L 19.341406 126.347693 
L 19.341406 129.48481 
L 19.341406 132.621927 
L 19.341406 135.759044 
L 19.341406 138.89616 
L 19.341406 142.033277 
L 19.341406 145.170394 
L 19.341406 148.30751 
L 19.341406 151.444627 
L 19.341406 154.581744 
L 19.341406 157.718861 
L 19.341406 160.855977 
L 19.341406 163.993094 
L 19.341406 167.130211 
L 19.341406 170.267328 
L 19.341406 173.404444 
L 19.341406 176.541561 
L 19.341406 179.678678 
L 19.341406 182.815795 
L 19.341406 185.952911 
L 19.341406 189.090028 
L 19.341406 192.227145 
L 19.341406 195.364261 
L 19.341406 198.501378 
L 19.341406 201.638495 
L 19.341406 204.775612 
L 19.341406 207.912728 
L 19.341406 211.049845 
L 19.341406 214.186962 
L 19.341406 217.324079 
L 19.341406 220.461195 
L 19.341406 223.598312 
L 19.341406 226.735429 
L 19.341406 229.872545 
L 19.341406 233.009662 
L 19.341406 236.146779 
L 19.341406 239.283896 
L 19.341406 242.421012 
L 19.341406 245.558129 
L 19.341406 248.695246 
L 19.341406 251.832363 
L 19.341406 254.969479 
L 19.341406 258.106596 
L 19.341406 261.243713 
L 19.341406 264.380829 
L 19.341406 267.517946 
L 19.341406 270.655063 
L 19.341406 273.79218 
L 19.341406 276.929296 
L 19.341406 280.066413 
L 19.341406 283.20353 
L 19.341406 286.340647 
L 19.341406 289.477763 
L 19.341406 292.61488 
L 19.341406 295.751997 
L 19.341406 298.889114 
L 19.341406 302.02623 
L 19.341406 305.163347 
L 19.341406 308.300464 
L 19.341406 311.43758 
L 19.341406 314.574697 
L 19.341406 317.711814 
L 19.341406 320.848931 
L 19.341406 323.986047 
L 22.478523 323.986047 
z
" clip-path="url(#pae6d22e9d3)" style="fill: none"/>
   </g>
   <g id="matplotlib.axis_1">
    <g id="xtick_1">
     <g id="line2d_1">
      <defs>
       <path id="m8430c20225" d="M 0 0 
L 0 3.5 
" style="stroke: #000000; stroke-width: 0.8"/>
      </defs>
      <g>
       <use xlink:href="#m8430c20225" x="19.341406" y="168.698769" style="stroke: #000000; stroke-width: 0.8"/>
      </g>
     </g>
     <g id="text_1">
      <!-- −2.0 -->
      <g transform="translate(7.2 183.297207) scale(0.1 -0.1)">
       <defs>
        <path id="DejaVuSans-2212" d="M 678 2272 
L 4684 2272 
L 4684 1741 
L 678 1741 
L 678 2272 
z
" transform="scale(0.015625)"/>
        <path id="DejaVuSans-32" d="M 1228 531 
L 3431 531 
L 3431 0 
L 469 0 
L 469 531 
Q 828 903 1448 1529 
Q 2069 2156 2228 2338 
Q 2531 2678 2651 2914 
Q 2772 3150 2772 3378 
Q 2772 3750 2511 3984 
Q 2250 4219 1831 4219 
Q 1534 4219 1204 4116 
Q 875 4013 500 3803 
L 500 4441 
Q 881 4594 1212 4672 
Q 1544 4750 1819 4750 
Q 2544 4750 2975 4387 
Q 3406 4025 3406 3419 
Q 3406 3131 3298 2873 
Q 3191 2616 2906 2266 
Q 2828 2175 2409 1742 
Q 1991 1309 1228 531 
z
" transform="scale(0.015625)"/>
        <path id="DejaVuSans-2e" d="M 684 794 
L 1344 794 
L 1344 0 
L 684 0 
L 684 794 
z
" transform="scale(0.015625)"/>
        <path id="DejaVuSans-30" d="M 2034 4250 
Q 1547 4250 1301 3770 
Q 1056 3291 1056 2328 
Q 1056 1369 1301 889 
Q 1547 409 2034 409 
Q 2525 409 2770 889 
Q 3016 1369 3016 2328 
Q 3016 3291 2770 3770 
Q 2525 4250 2034 4250 
z
M 2034 4750 
Q 2819 4750 3233 4129 
Q 3647 3509 3647 2328 
Q 3647 1150 3233 529 
Q 2819 -91 2034 -91 
Q 1250 -91 836 529 
Q 422 1150 422 2328 
Q 422 3509 836 4129 
Q 1250 4750 2034 4750 
z
" transform="scale(0.015625)"/>
       </defs>
       <use xlink:href="#DejaVuSans-2212"/>
       <use xlink:href="#DejaVuSans-32" x="83.789062"/>
       <use xlink:href="#DejaVuSans-2e" x="147.412109"/>
       <use xlink:href="#DejaVuSans-30" x="179.199219"/>
      </g>
     </g>
    </g>
    <g id="xtick_2">
     <g id="line2d_2">
      <g>
       <use xlink:href="#m8430c20225" x="58.163226" y="168.698769" style="stroke: #000000; stroke-width: 0.8"/>
      </g>
     </g>
     <g id="text_2">
      <!-- −1.5 -->
      <g transform="translate(46.02182 183.297207) scale(0.1 -0.1)">
       <defs>
        <path id="DejaVuSans-31" d="M 794 531 
L 1825 531 
L 1825 4091 
L 703 3866 
L 703 4441 
L 1819 4666 
L 2450 4666 
L 2450 531 
L 3481 531 
L 3481 0 
L 794 0 
L 794 531 
z
" transform="scale(0.015625)"/>
        <path id="DejaVuSans-35" d="M 691 4666 
L 3169 4666 
L 3169 4134 
L 1269 4134 
L 1269 2991 
Q 1406 3038 1543 3061 
Q 1681 3084 1819 3084 
Q 2600 3084 3056 2656 
Q 3513 2228 3513 1497 
Q 3513 744 3044 326 
Q 2575 -91 1722 -91 
Q 1428 -91 1123 -41 
Q 819 9 494 109 
L 494 744 
Q 775 591 1075 516 
Q 1375 441 1709 441 
Q 2250 441 2565 725 
Q 2881 1009 2881 1497 
Q 2881 1984 2565 2268 
Q 2250 2553 1709 2553 
Q 1456 2553 1204 2497 
Q 953 2441 691 2322 
L 691 4666 
z
" transform="scale(0.015625)"/>
       </defs>
       <use xlink:href="#DejaVuSans-2212"/>
       <use xlink:href="#DejaVuSans-31" x="83.789062"/>
       <use xlink:href="#DejaVuSans-2e" x="147.412109"/>
       <use xlink:href="#DejaVuSans-35" x="179.199219"/>
      </g>
     </g>
    </g>
    <g id="xtick_3">
     <g id="line2d_3">
      <g>
       <use xlink:href="#m8430c20225" x="96.985045" y="168.698769" style="stroke: #000000; stroke-width: 0.8"/>
      </g>
     </g>
     <g id="text_3">
      <!-- −1.0 -->
      <g transform="translate(84.843639 183.297207) scale(0.1 -0.1)">
       <use xlink:href="#DejaVuSans-2212"/>
       <use xlink:href="#DejaVuSans-31" x="83.789062"/>
       <use xlink:href="#DejaVuSans-2e" x="147.412109"/>
       <use xlink:href="#DejaVuSans-30" x="179.199219"/>
      </g>
     </g>
    </g>
    <g id="xtick_4">
     <g id="line2d_4">
      <g>
       <use xlink:href="#m8430c20225" x="135.806865" y="168.698769" style="stroke: #000000; stroke-width: 0.8"/>
      </g>
     </g>
     <g id="text_4">
      <!-- −0.5 -->
      <g transform="translate(123.665459 183.297207) scale(0.1 -0.1)">
       <use xlink:href="#DejaVuSans-2212"/>
       <use xlink:href="#DejaVuSans-30" x="83.789062"/>
       <use xlink:href="#DejaVuSans-2e" x="147.412109"/>
       <use xlink:href="#DejaVuSans-35" x="179.199219"/>
      </g>
     </g>
    </g>
    <g id="xtick_5">
     <g id="line2d_5">
      <g>
       <use xlink:href="#m8430c20225" x="174.628684" y="168.698769" style="stroke: #000000; stroke-width: 0.8"/>
      </g>
     </g>
    </g>
    <g id="xtick_6">
     <g id="line2d_6">
      <g>
       <use xlink:href="#m8430c20225" x="213.450504" y="168.698769" style="stroke: #000000; stroke-width: 0.8"/>
      </g>
     </g>
     <g id="text_5">
      <!-- 0.5 -->
      <g transform="translate(205.498941 183.297207) scale(0.1 -0.1)">
       <use xlink:href="#DejaVuSans-30"/>
       <use xlink:href="#DejaVuSans-2e" x="63.623047"/>
       <use xlink:href="#DejaVuSans-35" x="95.410156"/>
      </g>
     </g>
    </g>
    <g id="xtick_7">
     <g id="line2d_7">
      <g>
       <use xlink:href="#m8430c20225" x="252.272323" y="168.698769" style="stroke: #000000; stroke-width: 0.8"/>
      </g>
     </g>
     <g id="text_6">
      <!-- 1.0 -->
      <g transform="translate(244.320761 183.297207) scale(0.1 -0.1)">
       <use xlink:href="#DejaVuSans-31"/>
       <use xlink:href="#DejaVuSans-2e" x="63.623047"/>
       <use xlink:href="#DejaVuSans-30" x="95.410156"/>
      </g>
     </g>
    </g>
    <g id="xtick_8">
     <g id="line2d_8">
      <g>
       <use xlink:href="#m8430c20225" x="291.094143" y="168.698769" style="stroke: #000000; stroke-width: 0.8"/>
      </g>
     </g>
     <g id="text_7">
      <!-- 1.5 -->
      <g transform="translate(283.14258 183.297207) scale(0.1 -0.1)">
       <use xlink:href="#DejaVuSans-31"/>
       <use xlink:href="#DejaVuSans-2e" x="63.623047"/>
       <use xlink:href="#DejaVuSans-35" x="95.410156"/>
      </g>
     </g>
    </g>
    <g id="xtick_9">
     <g id="line2d_9">
      <g>
       <use xlink:href="#m8430c20225" x="329.915962" y="168.698769" style="stroke: #000000; stroke-width: 0.8"/>
      </g>
     </g>
     <g id="text_8">
      <!-- 2.0 -->
      <g transform="translate(321.9644 183.297207) scale(0.1 -0.1)">
       <use xlink:href="#DejaVuSans-32"/>
       <use xlink:href="#DejaVuSans-2e" x="63.623047"/>
       <use xlink:href="#DejaVuSans-30" x="95.410156"/>
      </g>
     </g>
    </g>
    <g id="xtick_10">
     <g id="line2d_10">
      <defs>
       <path id="me82d050d51" d="M 0 0 
L 0 2 
" style="stroke: #000000; stroke-width: 0.6"/>
      </defs>
      <g>
       <use xlink:href="#me82d050d51" x="27.10577" y="168.698769" style="stroke: #000000; stroke-width: 0.6"/>
      </g>
     </g>
    </g>
    <g id="xtick_11">
     <g id="line2d_11">
      <g>
       <use xlink:href="#me82d050d51" x="34.870134" y="168.698769" style="stroke: #000000; stroke-width: 0.6"/>
      </g>
     </g>
    </g>
    <g id="xtick_12">
     <g id="line2d_12">
      <g>
       <use xlink:href="#me82d050d51" x="42.634498" y="168.698769" style="stroke: #000000; stroke-width: 0.6"/>
      </g>
     </g>
    </g>
    <g id="xtick_13">
     <g id="line2d_13">
      <g>
       <use xlink:href="#me82d050d51" x="50.398862" y="168.698769" style="stroke: #000000; stroke-width: 0.6"/>
      </g>
     </g>
    </g>
    <g id="xtick_14">
     <g id="line2d_14">
      <g>
       <use xlink:href="#me82d050d51" x="65.92759" y="168.698769" style="stroke: #000000; stroke-width: 0.6"/>
      </g>
     </g>
    </g>
    <g id="xtick_15">
     <g id="line2d_15">
      <g>
       <use xlink:href="#me82d050d51" x="73.691954" y="168.698769" style="stroke: #000000; stroke-width: 0.6"/>
      </g>
     </g>
    </g>
    <g id="xtick_16">
     <g id="line2d_16">
      <g>
       <use xlink:href="#me82d050d51" x="81.456317" y="168.698769" style="stroke: #000000; stroke-width: 0.6"/>
      </g>
     </g>
    </g>
    <g id="xtick_17">
     <g id="line2d_17">
      <g>
       <use xlink:href="#me82d050d51" x="89.220681" y="168.698769" style="stroke: #000000; stroke-width: 0.6"/>
      </g>
     </g>
    </g>
    <g id="xtick_18">
     <g id="line2d_18">
      <g>
       <use xlink:href="#me82d050d51" x="104.749409" y="168.698769" style="stroke: #000000; stroke-width: 0.6"/>
      </g>
     </g>
    </g>
    <g id="xtick_19">
     <g id="line2d_19">
      <g>
       <use xlink:href="#me82d050d51" x="112.513773" y="168.698769" style="stroke: #000000; stroke-width: 0.6"/>
      </g>
     </g>
    </g>
    <g id="xtick_20">
     <g id="line2d_20">
      <g>
       <use xlink:href="#me82d050d51" x="120.278137" y="168.698769" style="stroke: #000000; stroke-width: 0.6"/>
      </g>
     </g>
    </g>
    <g id="xtick_21">
     <g id="line2d_21">
      <g>
       <use xlink:href="#me82d050d51" x="128.042501" y="168.698769" style="stroke: #000000; stroke-width: 0.6"/>
      </g>
     </g>
    </g>
    <g id="xtick_22">
     <g id="line2d_22">
      <g>
       <use xlink:href="#me82d050d51" x="143.571229" y="168.698769" style="stroke: #000000; stroke-width: 0.6"/>
      </g>
     </g>
    </g>
    <g id="xtick_23">
     <g id="line2d_23">
      <g>
       <use xlink:href="#me82d050d51" x="151.335593" y="168.698769" style="stroke: #000000; stroke-width: 0.6"/>
      </g>
     </g>
    </g>
    <g id="xtick_24">
     <g id="line2d_24">
      <g>
       <use xlink:href="#me82d050d51" x="159.099957" y="168.698769" style="stroke: #000000; stroke-width: 0.6"/>
      </g>
     </g>
    </g>
    <g id="xtick_25">
     <g id="line2d_25">
      <g>
       <use xlink:href="#me82d050d51" x="166.86432" y="168.698769" style="stroke: #000000; stroke-width: 0.6"/>
      </g>
     </g>
    </g>
    <g id="xtick_26">
     <g id="line2d_26">
      <g>
       <use xlink:href="#me82d050d51" x="182.393048" y="168.698769" style="stroke: #000000; stroke-width: 0.6"/>
      </g>
     </g>
    </g>
    <g id="xtick_27">
     <g id="line2d_27">
      <g>
       <use xlink:href="#me82d050d51" x="190.157412" y="168.698769" style="stroke: #000000; stroke-width: 0.6"/>
      </g>
     </g>
    </g>
    <g id="xtick_28">
     <g id="line2d_28">
      <g>
       <use xlink:href="#me82d050d51" x="197.921776" y="168.698769" style="stroke: #000000; stroke-width: 0.6"/>
      </g>
     </g>
    </g>
    <g id="xtick_29">
     <g id="line2d_29">
      <g>
       <use xlink:href="#me82d050d51" x="205.68614" y="168.698769" style="stroke: #000000; stroke-width: 0.6"/>
      </g>
     </g>
    </g>
    <g id="xtick_30">
     <g id="line2d_30">
      <g>
       <use xlink:href="#me82d050d51" x="221.214868" y="168.698769" style="stroke: #000000; stroke-width: 0.6"/>
      </g>
     </g>
    </g>
    <g id="xtick_31">
     <g id="line2d_31">
      <g>
       <use xlink:href="#me82d050d51" x="228.979232" y="168.698769" style="stroke: #000000; stroke-width: 0.6"/>
      </g>
     </g>
    </g>
    <g id="xtick_32">
     <g id="line2d_32">
      <g>
       <use xlink:href="#me82d050d51" x="236.743596" y="168.698769" style="stroke: #000000; stroke-width: 0.6"/>
      </g>
     </g>
    </g>
    <g id="xtick_33">
     <g id="line2d_33">
      <g>
       <use xlink:href="#me82d050d51" x="244.50796" y="168.698769" style="stroke: #000000; stroke-width: 0.6"/>
      </g>
     </g>
    </g>
    <g id="xtick_34">
     <g id="line2d_34">
      <g>
       <use xlink:href="#me82d050d51" x="260.036687" y="168.698769" style="stroke: #000000; stroke-width: 0.6"/>
      </g>
     </g>
    </g>
    <g id="xtick_35">
     <g id="line2d_35">
      <g>
       <use xlink:href="#me82d050d51" x="267.801051" y="168.698769" style="stroke: #000000; stroke-width: 0.6"/>
      </g>
     </g>
    </g>
    <g id="xtick_36">
     <g id="line2d_36">
      <g>
       <use xlink:href="#me82d050d51" x="275.565415" y="168.698769" style="stroke: #000000; stroke-width: 0.6"/>
      </g>
     </g>
    </g>
    <g id="xtick_37">
     <g id="line2d_37">
      <g>
       <use xlink:href="#me82d050d51" x="283.329779" y="168.698769" style="stroke: #000000; stroke-width: 0.6"/>
      </g>
     </g>
    </g>
    <g id="xtick_38">
     <g id="line2d_38">
      <g>
       <use xlink:href="#me82d050d51" x="298.858507" y="168.698769" style="stroke: #000000; stroke-width: 0.6"/>
      </g>
     </g>
    </g>
    <g id="xtick_39">
     <g id="line2d_39">
      <g>
       <use xlink:href="#me82d050d51" x="306.622871" y="168.698769" style="stroke: #000000; stroke-width: 0.6"/>
      </g>
     </g>
    </g>
    <g id="xtick_40">
     <g id="line2d_40">
      <g>
       <use xlink:href="#me82d050d51" x="314.387235" y="168.698769" style="stroke: #000000; stroke-width: 0.6"/>
      </g>
     </g>
    </g>
    <g id="xtick_41">
     <g id="line2d_41">
      <g>
       <use xlink:href="#me82d050d51" x="322.151599" y="168.698769" style="stroke: #000000; stroke-width: 0.6"/>
      </g>
     </g>
    </g>
   </g>
   <g id="matplotlib.axis_2">
    <g id="ytick_1">
     <g id="line2d_42">
      <defs>
       <path id="m2690c32308" d="M 0 0 
L -3.5 0 
" style="stroke: #000000; stroke-width: 0.8"/>
      </defs>
      <g>
       <use xlink:href="#m2690c32308" x="174.628684" y="323.986047" style="stroke: #000000; stroke-width: 0.8"/>
      </g>
     </g>
     <g id="text_9">
      <!-- −2.0 -->
      <g transform="translate(143.345872 327.785266) scale(0.1 -0.1)">
       <use xlink:href="#DejaVuSans-2212"/>
       <use xlink:href="#DejaVuSans-32" x="83.789062"/>
       <use xlink:href="#DejaVuSans-2e" x="147.412109"/>
       <use xlink:href="#DejaVuSans-30" x="179.199219"/>
      </g>
     </g>
    </g>
    <g id="ytick_2">
     <g id="line2d_43">
      <g>
       <use xlink:href="#m2690c32308" x="174.628684" y="285.164228" style="stroke: #000000; stroke-width: 0.8"/>
      </g>
     </g>
     <g id="text_10">
      <!-- −1.5 -->
      <g transform="translate(143.345872 288.963447) scale(0.1 -0.1)">
       <use xlink:href="#DejaVuSans-2212"/>
       <use xlink:href="#DejaVuSans-31" x="83.789062"/>
       <use xlink:href="#DejaVuSans-2e" x="147.412109"/>
       <use xlink:href="#DejaVuSans-35" x="179.199219"/>
      </g>
     </g>
    </g>
    <g id="ytick_3">
     <g id="line2d_44">
      <g>
       <use xlink:href="#m2690c32308" x="174.628684" y="246.342408" style="stroke: #000000; stroke-width: 0.8"/>
      </g>
     </g>
     <g id="text_11">
      <!-- −1.0 -->
      <g transform="translate(143.345872 250.141627) scale(0.1 -0.1)">
       <use xlink:href="#DejaVuSans-2212"/>
       <use xlink:href="#DejaVuSans-31" x="83.789062"/>
       <use xlink:href="#DejaVuSans-2e" x="147.412109"/>
       <use xlink:href="#DejaVuSans-30" x="179.199219"/>
      </g>
     </g>
    </g>
    <g id="ytick_4">
     <g id="line2d_45">
      <g>
       <use xlink:href="#m2690c32308" x="174.628684" y="207.520589" style="stroke: #000000; stroke-width: 0.8"/>
      </g>
     </g>
     <g id="text_12">
      <!-- −0.5 -->
      <g transform="translate(143.345872 211.319808) scale(0.1 -0.1)">
       <use xlink:href="#DejaVuSans-2212"/>
       <use xlink:href="#DejaVuSans-30" x="83.789062"/>
       <use xlink:href="#DejaVuSans-2e" x="147.412109"/>
       <use xlink:href="#DejaVuSans-35" x="179.199219"/>
      </g>
     </g>
    </g>
    <g id="ytick_5">
     <g id="line2d_46">
      <g>
       <use xlink:href="#m2690c32308" x="174.628684" y="168.698769" style="stroke: #000000; stroke-width: 0.8"/>
      </g>
     </g>
    </g>
    <g id="ytick_6">
     <g id="line2d_47">
      <g>
       <use xlink:href="#m2690c32308" x="174.628684" y="129.87695" style="stroke: #000000; stroke-width: 0.8"/>
      </g>
     </g>
     <g id="text_13">
      <!-- 0.5 -->
      <g transform="translate(151.725559 133.676168) scale(0.1 -0.1)">
       <use xlink:href="#DejaVuSans-30"/>
       <use xlink:href="#DejaVuSans-2e" x="63.623047"/>
       <use xlink:href="#DejaVuSans-35" x="95.410156"/>
      </g>
     </g>
    </g>
    <g id="ytick_7">
     <g id="line2d_48">
      <g>
       <use xlink:href="#m2690c32308" x="174.628684" y="91.05513" style="stroke: #000000; stroke-width: 0.8"/>
      </g>
     </g>
     <g id="text_14">
      <!-- 1.0 -->
      <g transform="translate(151.725559 94.854349) scale(0.1 -0.1)">
       <use xlink:href="#DejaVuSans-31"/>
       <use xlink:href="#DejaVuSans-2e" x="63.623047"/>
       <use xlink:href="#DejaVuSans-30" x="95.410156"/>
      </g>
     </g>
    </g>
    <g id="ytick_8">
     <g id="line2d_49">
      <g>
       <use xlink:href="#m2690c32308" x="174.628684" y="52.233311" style="stroke: #000000; stroke-width: 0.8"/>
      </g>
     </g>
     <g id="text_15">
      <!-- 1.5 -->
      <g transform="translate(151.725559 56.032529) scale(0.1 -0.1)">
       <use xlink:href="#DejaVuSans-31"/>
       <use xlink:href="#DejaVuSans-2e" x="63.623047"/>
       <use xlink:href="#DejaVuSans-35" x="95.410156"/>
      </g>
     </g>
    </g>
    <g id="ytick_9">
     <g id="line2d_50">
      <g>
       <use xlink:href="#m2690c32308" x="174.628684" y="13.411491" style="stroke: #000000; stroke-width: 0.8"/>
      </g>
     </g>
     <g id="text_16">
      <!-- 2.0 -->
      <g transform="translate(151.725559 17.21071) scale(0.1 -0.1)">
       <use xlink:href="#DejaVuSans-32"/>
       <use xlink:href="#DejaVuSans-2e" x="63.623047"/>
       <use xlink:href="#DejaVuSans-30" x="95.410156"/>
      </g>
     </g>
    </g>
    <g id="ytick_10">
     <g id="line2d_51">
      <defs>
       <path id="md28f91d6a6" d="M 0 0 
L -2 0 
" style="stroke: #000000; stroke-width: 0.6"/>
      </defs>
      <g>
       <use xlink:href="#md28f91d6a6" x="174.628684" y="316.221683" style="stroke: #000000; stroke-width: 0.6"/>
      </g>
     </g>
    </g>
    <g id="ytick_11">
     <g id="line2d_52">
      <g>
       <use xlink:href="#md28f91d6a6" x="174.628684" y="308.45732" style="stroke: #000000; stroke-width: 0.6"/>
      </g>
     </g>
    </g>
    <g id="ytick_12">
     <g id="line2d_53">
      <g>
       <use xlink:href="#md28f91d6a6" x="174.628684" y="300.692956" style="stroke: #000000; stroke-width: 0.6"/>
      </g>
     </g>
    </g>
    <g id="ytick_13">
     <g id="line2d_54">
      <g>
       <use xlink:href="#md28f91d6a6" x="174.628684" y="292.928592" style="stroke: #000000; stroke-width: 0.6"/>
      </g>
     </g>
    </g>
    <g id="ytick_14">
     <g id="line2d_55">
      <g>
       <use xlink:href="#md28f91d6a6" x="174.628684" y="277.399864" style="stroke: #000000; stroke-width: 0.6"/>
      </g>
     </g>
    </g>
    <g id="ytick_15">
     <g id="line2d_56">
      <g>
       <use xlink:href="#md28f91d6a6" x="174.628684" y="269.6355" style="stroke: #000000; stroke-width: 0.6"/>
      </g>
     </g>
    </g>
    <g id="ytick_16">
     <g id="line2d_57">
      <g>
       <use xlink:href="#md28f91d6a6" x="174.628684" y="261.871136" style="stroke: #000000; stroke-width: 0.6"/>
      </g>
     </g>
    </g>
    <g id="ytick_17">
     <g id="line2d_58">
      <g>
       <use xlink:href="#md28f91d6a6" x="174.628684" y="254.106772" style="stroke: #000000; stroke-width: 0.6"/>
      </g>
     </g>
    </g>
    <g id="ytick_18">
     <g id="line2d_59">
      <g>
       <use xlink:href="#md28f91d6a6" x="174.628684" y="238.578044" style="stroke: #000000; stroke-width: 0.6"/>
      </g>
     </g>
    </g>
    <g id="ytick_19">
     <g id="line2d_60">
      <g>
       <use xlink:href="#md28f91d6a6" x="174.628684" y="230.81368" style="stroke: #000000; stroke-width: 0.6"/>
      </g>
     </g>
    </g>
    <g id="ytick_20">
     <g id="line2d_61">
      <g>
       <use xlink:href="#md28f91d6a6" x="174.628684" y="223.049317" style="stroke: #000000; stroke-width: 0.6"/>
      </g>
     </g>
    </g>
    <g id="ytick_21">
     <g id="line2d_62">
      <g>
       <use xlink:href="#md28f91d6a6" x="174.628684" y="215.284953" style="stroke: #000000; stroke-width: 0.6"/>
      </g>
     </g>
    </g>
    <g id="ytick_22">
     <g id="line2d_63">
      <g>
       <use xlink:href="#md28f91d6a6" x="174.628684" y="199.756225" style="stroke: #000000; stroke-width: 0.6"/>
      </g>
     </g>
    </g>
    <g id="ytick_23">
     <g id="line2d_64">
      <g>
       <use xlink:href="#md28f91d6a6" x="174.628684" y="191.991861" style="stroke: #000000; stroke-width: 0.6"/>
      </g>
     </g>
    </g>
    <g id="ytick_24">
     <g id="line2d_65">
      <g>
       <use xlink:href="#md28f91d6a6" x="174.628684" y="184.227497" style="stroke: #000000; stroke-width: 0.6"/>
      </g>
     </g>
    </g>
    <g id="ytick_25">
     <g id="line2d_66">
      <g>
       <use xlink:href="#md28f91d6a6" x="174.628684" y="176.463133" style="stroke: #000000; stroke-width: 0.6"/>
      </g>
     </g>
    </g>
    <g id="ytick_26">
     <g id="line2d_67">
      <g>
       <use xlink:href="#md28f91d6a6" x="174.628684" y="160.934405" style="stroke: #000000; stroke-width: 0.6"/>
      </g>
     </g>
    </g>
    <g id="ytick_27">
     <g id="line2d_68">
      <g>
       <use xlink:href="#md28f91d6a6" x="174.628684" y="153.170041" style="stroke: #000000; stroke-width: 0.6"/>
      </g>
     </g>
    </g>
    <g id="ytick_28">
     <g id="line2d_69">
      <g>
       <use xlink:href="#md28f91d6a6" x="174.628684" y="145.405678" style="stroke: #000000; stroke-width: 0.6"/>
      </g>
     </g>
    </g>
    <g id="ytick_29">
     <g id="line2d_70">
      <g>
       <use xlink:href="#md28f91d6a6" x="174.628684" y="137.641314" style="stroke: #000000; stroke-width: 0.6"/>
      </g>
     </g>
    </g>
    <g id="ytick_30">
     <g id="line2d_71">
      <g>
       <use xlink:href="#md28f91d6a6" x="174.628684" y="122.112586" style="stroke: #000000; stroke-width: 0.6"/>
      </g>
     </g>
    </g>
    <g id="ytick_31">
     <g id="line2d_72">
      <g>
       <use xlink:href="#md28f91d6a6" x="174.628684" y="114.348222" style="stroke: #000000; stroke-width: 0.6"/>
      </g>
     </g>
    </g>
    <g id="ytick_32">
     <g id="line2d_73">
      <g>
       <use xlink:href="#md28f91d6a6" x="174.628684" y="106.583858" style="stroke: #000000; stroke-width: 0.6"/>
      </g>
     </g>
    </g>
    <g id="ytick_33">
     <g id="line2d_74">
      <g>
       <use xlink:href="#md28f91d6a6" x="174.628684" y="98.819494" style="stroke: #000000; stroke-width: 0.6"/>
      </g>
     </g>
    </g>
    <g id="ytick_34">
     <g id="line2d_75">
      <g>
       <use xlink:href="#md28f91d6a6" x="174.628684" y="83.290766" style="stroke: #000000; stroke-width: 0.6"/>
      </g>
     </g>
    </g>
    <g id="ytick_35">
     <g id="line2d_76">
      <g>
       <use xlink:href="#md28f91d6a6" x="174.628684" y="75.526402" style="stroke: #000000; stroke-width: 0.6"/>
      </g>
     </g>
    </g>
    <g id="ytick_36">
     <g id="line2d_77">
      <g>
       <use xlink:href="#md28f91d6a6" x="174.628684" y="67.762038" style="stroke: #000000; stroke-width: 0.6"/>
      </g>
     </g>
    </g>
    <g id="ytick_37">
     <g id="line2d_78">
      <g>
       <use xlink:href="#md28f91d6a6" x="174.628684" y="59.997675" style="stroke: #000000; stroke-width: 0.6"/>
      </g>
     </g>
    </g>
    <g id="ytick_38">
     <g id="line2d_79">
      <g>
       <use xlink:href="#md28f91d6a6" x="174.628684" y="44.468947" style="stroke: #000000; stroke-width: 0.6"/>
      </g>
     </g>
    </g>
    <g id="ytick_39">
     <g id="line2d_80">
      <g>
       <use xlink:href="#md28f91d6a6" x="174.628684" y="36.704583" style="stroke: #000000; stroke-width: 0.6"/>
      </g>
     </g>
    </g>
    <g id="ytick_40">
     <g id="line2d_81">
      <g>
       <use xlink:href="#md28f91d6a6" x="174.628684" y="28.940219" style="stroke: #000000; stroke-width: 0.6"/>
      </g>
     </g>
    </g>
    <g id="ytick_41">
     <g id="line2d_82">
      <g>
       <use xlink:href="#md28f91d6a6" x="174.628684" y="21.175855" style="stroke: #000000; stroke-width: 0.6"/>
      </g>
     </g>
    </g>
   </g>
   <g id="PathCollection_5">
    <path d="M 176.197243 91.030874 
L 174.660372 88.702293 
L 174.660372 85.565176 
L 174.660372 82.428059 
L 174.660372 79.290942 
L 174.660372 76.153826 
L 174.660372 73.016709 
L 174.660372 69.879592 
L 174.660372 66.742476 
L 174.660372 63.605359 
L 174.660372 60.468242 
L 174.660372 57.331125 
L 174.660372 54.194009 
L 174.660372 51.056892 
L 174.660372 47.919775 
L 174.660372 44.782658 
L 174.660372 41.645542 
L 174.660372 38.508425 
L 174.660372 35.371308 
L 174.660372 32.234192 
L 174.660372 29.097075 
L 174.660372 25.959958 
L 174.660372 22.822841 
L 174.660372 19.685725 
L 174.660372 16.548608 
L 176.197243 13.411491 
L 179.334359 13.411491 
L 182.471476 13.411491 
L 185.608593 13.411491 
L 188.74571 13.411491 
L 191.882826 13.411491 
L 195.019943 13.411491 
L 198.15706 13.411491 
L 201.294177 13.411491 
L 204.431293 13.411491 
L 207.56841 13.411491 
L 210.705527 13.411491 
L 213.842643 13.411491 
L 216.97976 13.411491 
L 220.116877 13.411491 
L 223.253994 13.411491 
L 226.39111 13.411491 
L 229.528227 13.411491 
L 232.665344 13.411491 
L 235.802461 13.411491 
L 238.939577 13.411491 
L 242.076694 13.411491 
L 245.213811 13.411491 
L 248.350927 13.411491 
L 251.488044 13.411491 
L 252.249028 16.548608 
L 252.249028 19.685725 
L 252.249028 22.822841 
L 252.249028 25.959958 
L 252.249028 29.097075 
L 252.249028 32.234192 
L 252.249028 35.371308 
L 252.249028 38.508425 
L 252.249028 41.645542 
L 252.249028 44.782658 
L 252.249028 47.919775 
L 252.249028 51.056892 
L 252.249028 54.194009 
L 252.249028 57.331125 
L 252.249028 60.468242 
L 252.249028 63.605359 
L 252.249028 66.742476 
L 252.249028 69.879592 
L 252.249028 73.016709 
L 252.249028 76.153826 
L 252.249028 79.290942 
L 252.249028 82.428059 
L 252.249028 85.565176 
L 252.249028 88.702293 
L 251.488044 91.030874 
L 248.350927 91.030874 
L 245.213811 91.030874 
L 242.076694 91.030874 
L 238.939577 91.030874 
L 235.802461 91.030874 
L 232.665344 91.030874 
L 229.528227 91.030874 
L 226.39111 91.030874 
L 223.253994 91.030874 
L 220.116877 91.030874 
L 216.97976 91.030874 
L 213.842643 91.030874 
L 210.705527 91.030874 
L 207.56841 91.030874 
L 204.431293 91.030874 
L 201.294177 91.030874 
L 198.15706 91.030874 
L 195.019943 91.030874 
L 191.882826 91.030874 
L 188.74571 91.030874 
L 185.608593 91.030874 
L 182.471476 91.030874 
L 179.334359 91.030874 
L 176.197243 91.030874 
z
" clip-path="url(#pae6d22e9d3)" style="fill: none; stroke: #add8e6; stroke-width: 1.5"/>
   </g>
   <g id="PathCollection_6">
    <path d="M 329.915962 13.411491 
L 254.625161 13.411491 
L 252.249028 16.548608 
L 252.249028 88.702293 
L 251.488044 91.030874 
L 176.197243 91.030874 
L 174.660372 88.702293 
L 174.660372 16.548608 
L 173.060126 13.411491 
L 19.341406 13.411491 
L 19.341406 13.411491 
" clip-path="url(#pae6d22e9d3)" style="fill: none; stroke: #ffffff; stroke-width: 1.5"/>
   </g>
   <g id="PathCollection_7">
    <path d="M 329.915962 13.411491 
L 254.625161 13.411491 
L 252.249028 16.548608 
L 252.249028 88.702293 
L 251.488044 91.030874 
L 176.197243 91.030874 
L 174.660372 88.702293 
L 174.660372 16.548608 
L 173.060126 13.411491 
L 19.341406 13.411491 
L 19.341406 13.411491 
" clip-path="url(#pae6d22e9d3)" style="fill: none; stroke: #ffffff; stroke-width: 1.5"/>
   </g>
   <g id="line2d_83">
    <path d="M 19.341406 323.986047 
L 19.341406 13.411491 
L 19.341406 13.411491 
" clip-path="url(#pae6d22e9d3)" style="fill: none; stroke: #0000ff; stroke-width: 1.5; stroke-linecap: square"/>
   </g>
   <g id="line2d_84">
    <path d="M 96.985045 323.986047 
L 96.985045 13.411491 
L 96.985045 13.411491 
" clip-path="url(#pae6d22e9d3)" style="fill: none; stroke: #0000ff; stroke-width: 1.5; stroke-linecap: square"/>
   </g>
   <g id="line2d_85">
    <path d="M 174.628684 323.986047 
L 174.628684 13.411491 
L 174.628684 13.411491 
" clip-path="url(#pae6d22e9d3)" style="fill: none; stroke: #0000ff; stroke-width: 1.5; stroke-linecap: square"/>
   </g>
   <g id="line2d_86">
    <path d="M 252.272323 323.986047 
L 252.272323 13.411491 
L 252.272323 13.411491 
" clip-path="url(#pae6d22e9d3)" style="fill: none; stroke: #0000ff; stroke-width: 1.5; stroke-linecap: square"/>
   </g>
   <g id="line2d_87">
    <path d="M 329.915962 323.986047 
L 329.915962 13.411491 
L 329.915962 13.411491 
" clip-path="url(#pae6d22e9d3)" style="fill: none; stroke: #0000ff; stroke-width: 1.5; stroke-linecap: square"/>
   </g>
   <g id="line2d_88">
    <path d="M 19.341406 323.986047 
L 329.915962 323.986047 
L 329.915962 323.986047 
" clip-path="url(#pae6d22e9d3)" style="fill: none; stroke: #ff0000; stroke-width: 1.5; stroke-linecap: square"/>
   </g>
   <g id="line2d_89">
    <path d="M 19.341406 246.342408 
L 329.915962 246.342408 
L 329.915962 246.342408 
" clip-path="url(#pae6d22e9d3)" style="fill: none; stroke: #ff0000; stroke-width: 1.5; stroke-linecap: square"/>
   </g>
   <g id="line2d_90">
    <path d="M 19.341406 168.698769 
L 329.915962 168.698769 
L 329.915962 168.698769 
" clip-path="url(#pae6d22e9d3)" style="fill: none; stroke: #ff0000; stroke-width: 1.5; stroke-linecap: square"/>
   </g>
   <g id="line2d_91">
    <path d="M 19.341406 91.05513 
L 329.915962 91.05513 
L 329.915962 91.05513 
" clip-path="url(#pae6d22e9d3)" style="fill: none; stroke: #ff0000; stroke-width: 1.5; stroke-linecap: square"/>
   </g>
   <g id="line2d_92">
    <path d="M 19.341406 13.411491 
L 329.915962 13.411491 
L 329.915962 13.411491 
" clip-path="url(#pae6d22e9d3)" style="fill: none; stroke: #ff0000; stroke-width: 1.5; stroke-linecap: square"/>
   </g>
   <g id="patch_3">
    <path d="M 174.628684 330.197538 
L 174.628684 7.2 
" style="fill: none; stroke: #000000; stroke-width: 0.8; stroke-linejoin: miter; stroke-linecap: square"/>
   </g>
   <g id="patch_4">
    <path d="M 13.129915 168.698769 
L 336.127454 168.698769 
" style="fill: none; stroke: #000000; stroke-width: 0.8; stroke-linejoin: miter; stroke-linecap: square"/>
   </g>
   <g id="text_17">
    <!-- $R$ -->
    <g transform="translate(208.130504 56.096436) scale(0.14 -0.14)">
     <defs>
      <path id="Cmmi10-52" d="M 313 0 
Q 250 0 250 84 
Q 253 100 262 139 
Q 272 178 289 201 
Q 306 225 331 225 
Q 722 225 878 269 
Q 959 297 997 441 
L 1875 3956 
Q 1888 4019 1888 4044 
Q 1888 4113 1813 4122 
Q 1691 4147 1350 4147 
Q 1288 4147 1288 4231 
Q 1291 4247 1300 4286 
Q 1309 4325 1326 4348 
Q 1344 4372 1369 4372 
L 3309 4372 
Q 3541 4372 3791 4319 
Q 4041 4266 4250 4152 
Q 4459 4038 4593 3848 
Q 4728 3659 4728 3406 
Q 4728 3084 4515 2831 
Q 4303 2578 3978 2408 
Q 3653 2238 3347 2169 
Q 3597 2078 3756 1879 
Q 3916 1681 3916 1422 
Q 3916 1388 3914 1370 
Q 3913 1353 3909 1331 
L 3859 763 
Q 3853 638 3847 550 
Q 3841 463 3841 409 
Q 3841 234 3892 129 
Q 3944 25 4097 25 
Q 4297 25 4448 211 
Q 4600 397 4647 616 
Q 4675 672 4709 672 
L 4769 672 
Q 4831 672 4831 588 
Q 4784 403 4682 237 
Q 4581 72 4426 -34 
Q 4272 -141 4091 -141 
Q 3716 -141 3452 26 
Q 3188 194 3188 550 
Q 3188 684 3213 788 
L 3353 1356 
Q 3378 1434 3378 1538 
Q 3378 1803 3198 1954 
Q 3019 2106 2747 2106 
L 1959 2106 
L 1538 416 
Q 1522 363 1522 325 
Q 1522 259 1600 250 
Q 1722 225 2059 225 
Q 2125 225 2125 141 
Q 2103 50 2090 25 
Q 2078 0 2016 0 
L 313 0 
z
M 1997 2272 
L 2706 2272 
Q 3403 2272 3756 2625 
Q 3919 2788 4014 3039 
Q 4109 3291 4109 3541 
Q 4109 3778 3970 3912 
Q 3831 4047 3626 4097 
Q 3422 4147 3175 4147 
L 2747 4147 
Q 2572 4147 2515 4117 
Q 2459 4088 2413 3928 
L 1997 2272 
z
" transform="scale(0.015625)"/>
     </defs>
     <use xlink:href="#Cmmi10-52" transform="translate(0 0.6875)"/>
    </g>
   </g>
  </g>
 </g>
 <defs>
  <clipPath id="pae6d22e9d3">
   <rect x="13.129915" y="7.2" width="322.997538" height="322.997538"/>
  </clipPath>
 </defs>
</svg>
