<?xml version="1.0" encoding="utf-8" standalone="no"?>
<!DOCTYPE svg PUBLIC "-//W3C//DTD SVG 1.1//EN"
  "http://www.w3.org/Graphics/SVG/1.1/DTD/svg11.dtd">
<svg xmlns:xlink="http://www.w3.org/1999/xlink" width="327.77486pt" height="338.4pt" viewBox="0 0 327.77486 338.4" xmlns="http://www.w3.org/2000/svg" version="1.1">
 <metadata>
  <rdf:RDF xmlns:dc="http://purl.org/dc/elements/1.1/" xmlns:cc="http://creativecommons.org/ns#" xmlns:rdf="http://www.w3.org/1999/02/22-rdf-syntax-ns#">
   <cc:Work>
    <dc:type rdf:resource="http://purl.org/dc/dcmitype/StillImage"/>
    <dc:date>2025-02-28T15:16:07.738852</dc:date>
    <dc:format>image/svg+xml</dc:format>
    <dc:creator>
     <cc:Agent>
      <dc:title>Matplotlib v3.6.2, https://matplotlib.org/</dc:title>
     </cc:Agent>
    </dc:creator>
   </cc:Work>
  </rdf:RDF>
 </metadata>
 <defs>
  <style type="text/css">*{stroke-linejoin: round; stroke-linecap: butt}</style>
 </defs>
 <g id="figure_1">
  <g id="patch_1">
   <path d="M 0 338.4 
L 327.77486 338.4 
L 327.77486 0 
L 0 0 
z
" style="fill: #ffffff"/>
  </g>
  <g id="axes_1">
   <g id="patch_2">
    <path d="M 8.906375 331.2 
L 320.57486 331.2 
L 320.57486 7.2 
L 8.906375 7.2 
z
" style="fill: #ffffff"/>
   </g>
   <g id="matplotlib.axis_1">
    <g id="xtick_1">
     <g id="line2d_1">
      <defs>
       <path id="m3c8f71e1c7" d="M 0 0 
L 0 3.5 
" style="stroke: #000000; stroke-width: 0.8"/>
      </defs>
      <g>
       <use xlink:href="#m3c8f71e1c7" x="14.9" y="169.2" style="stroke: #000000; stroke-width: 0.8"/>
      </g>
     </g>
     <g id="text_1">
      <!-- $-R$ -->
      <g transform="translate(7.2 183.798438) scale(0.1 -0.1)">
       <defs>
        <path id="Cmsy10-a1" d="M 653 1472 
Q 600 1472 565 1512 
Q 531 1553 531 1600 
Q 531 1647 565 1687 
Q 600 1728 653 1728 
L 4325 1728 
Q 4375 1728 4408 1687 
Q 4441 1647 4441 1600 
Q 4441 1553 4408 1512 
Q 4375 1472 4325 1472 
L 653 1472 
z
" transform="scale(0.015625)"/>
        <path id="Cmmi10-52" d="M 313 0 
Q 250 0 250 84 
Q 253 100 262 139 
Q 272 178 289 201 
Q 306 225 331 225 
Q 722 225 878 269 
Q 959 297 997 441 
L 1875 3956 
Q 1888 4019 1888 4044 
Q 1888 4113 1813 4122 
Q 1691 4147 1350 4147 
Q 1288 4147 1288 4231 
Q 1291 4247 1300 4286 
Q 1309 4325 1326 4348 
Q 1344 4372 1369 4372 
L 3309 4372 
Q 3541 4372 3791 4319 
Q 4041 4266 4250 4152 
Q 4459 4038 4593 3848 
Q 4728 3659 4728 3406 
Q 4728 3084 4515 2831 
Q 4303 2578 3978 2408 
Q 3653 2238 3347 2169 
Q 3597 2078 3756 1879 
Q 3916 1681 3916 1422 
Q 3916 1388 3914 1370 
Q 3913 1353 3909 1331 
L 3859 763 
Q 3853 638 3847 550 
Q 3841 463 3841 409 
Q 3841 234 3892 129 
Q 3944 25 4097 25 
Q 4297 25 4448 211 
Q 4600 397 4647 616 
Q 4675 672 4709 672 
L 4769 672 
Q 4831 672 4831 588 
Q 4784 403 4682 237 
Q 4581 72 4426 -34 
Q 4272 -141 4091 -141 
Q 3716 -141 3452 26 
Q 3188 194 3188 550 
Q 3188 684 3213 788 
L 3353 1356 
Q 3378 1434 3378 1538 
Q 3378 1803 3198 1954 
Q 3019 2106 2747 2106 
L 1959 2106 
L 1538 416 
Q 1522 363 1522 325 
Q 1522 259 1600 250 
Q 1722 225 2059 225 
Q 2125 225 2125 141 
Q 2103 50 2090 25 
Q 2078 0 2016 0 
L 313 0 
z
M 1997 2272 
L 2706 2272 
Q 3403 2272 3756 2625 
Q 3919 2788 4014 3039 
Q 4109 3291 4109 3541 
Q 4109 3778 3970 3912 
Q 3831 4047 3626 4097 
Q 3422 4147 3175 4147 
L 2747 4147 
Q 2572 4147 2515 4117 
Q 2459 4088 2413 3928 
L 1997 2272 
z
" transform="scale(0.015625)"/>
       </defs>
       <use xlink:href="#Cmsy10-a1" transform="translate(0 0.6875)"/>
       <use xlink:href="#Cmmi10-52" transform="translate(77.685547 0.6875)"/>
      </g>
     </g>
    </g>
    <g id="xtick_2">
     <g id="line2d_2">
      <g>
       <use xlink:href="#m3c8f71e1c7" x="123.938462" y="169.2" style="stroke: #000000; stroke-width: 0.8"/>
      </g>
     </g>
     <g id="text_2">
      <!-- $-\delta$ -->
      <g transform="translate(117.788462 183.798438) scale(0.1 -0.1)">
       <defs>
        <path id="Cmmi10-b1" d="M 1281 -97 
Q 1059 -97 868 -14 
Q 678 69 536 225 
Q 394 381 325 573 
Q 256 766 256 991 
Q 256 1391 445 1767 
Q 634 2144 961 2419 
Q 1288 2694 1672 2791 
Q 1484 3138 1386 3389 
Q 1288 3641 1288 3903 
Q 1288 4097 1378 4245 
Q 1469 4394 1628 4478 
Q 1788 4563 1984 4563 
Q 2175 4563 2741 4434 
Q 2888 4400 2888 4263 
Q 2888 4156 2809 4068 
Q 2731 3981 2625 3981 
Q 2547 3981 2484 4017 
Q 2422 4053 2287 4143 
Q 2153 4234 2047 4282 
Q 1941 4331 1825 4331 
Q 1694 4331 1589 4251 
Q 1484 4172 1484 4044 
Q 1484 3841 1664 3577 
Q 1844 3313 2175 2900 
Q 2553 2419 2553 1838 
Q 2553 1550 2470 1215 
Q 2388 881 2230 584 
Q 2072 288 1826 95 
Q 1581 -97 1281 -97 
z
M 1294 78 
Q 1544 78 1723 337 
Q 1903 597 1995 955 
Q 2088 1313 2088 1556 
Q 2088 2034 1753 2631 
Q 1416 2538 1172 2238 
Q 928 1938 803 1547 
Q 678 1156 678 806 
Q 678 500 837 289 
Q 997 78 1294 78 
z
" transform="scale(0.015625)"/>
       </defs>
       <use xlink:href="#Cmsy10-a1" transform="translate(0 0.703125)"/>
       <use xlink:href="#Cmmi10-b1" transform="translate(77.685547 0.703125)"/>
      </g>
     </g>
    </g>
    <g id="xtick_3">
     <g id="line2d_3">
      <g>
       <use xlink:href="#m3c8f71e1c7" x="217.4" y="169.2" style="stroke: #000000; stroke-width: 0.8"/>
      </g>
     </g>
     <g id="text_3">
      <!-- $\delta$ -->
      <g transform="translate(215.15 183.798438) scale(0.1 -0.1)">
       <use xlink:href="#Cmmi10-b1" transform="translate(0 0.703125)"/>
      </g>
     </g>
    </g>
   </g>
   <g id="matplotlib.axis_2"/>
   <g id="line2d_4">
    <path d="M 213.842832 151.316909 
L 212.310407 147.992047 
L 210.604911 144.93261 
L 209.043695 142.532318 
L 206.845594 139.619001 
L 204.10675 136.554984 
L 201.374308 133.972695 
L 197.819326 131.165317 
L 196.015064 129.939925 
L 192.98065 128.139491 
L 190.070458 126.686977 
L 186.287942 125.156605 
L 184.023328 124.41794 
L 180.030275 123.416426 
L 176.962682 122.894954 
L 173.334929 122.545323 
L 169.36412 122.487459 
L 165.328684 122.775401 
L 161.932307 123.293236 
L 158.33122 124.127411 
L 156.193152 124.76794 
L 153.414797 125.771331 
L 150.563133 127.015766 
L 147.870639 128.407979 
L 144.968694 130.171201 
L 141.689949 132.539858 
L 139.960737 133.975673 
L 137.274278 136.511441 
L 135.461873 138.472053 
L 132.762596 141.87141 
L 131.584618 143.584421 
L 129.668571 146.778789 
L 128.103378 149.914954 
L 126.844338 152.9783 
L 125.637711 156.712927 
L 124.786376 160.338371 
L 124.263009 163.702061 
L 124.081934 165.540961 
L 123.945387 168.395476 
L 123.960303 170.628597 
L 124.313347 175.10735 
L 124.945273 178.848031 
L 125.430893 180.915698 
L 126.670004 184.942708 
L 127.442928 186.955324 
L 129.03698 190.425469 
L 131.054863 193.988438 
L 133.064788 196.942939 
L 135.341025 199.788931 
L 137.397743 202.014218 
L 140.385062 204.789801 
L 143.320461 207.092078 
L 146.632452 209.274905 
L 149.186551 210.700111 
L 152.705448 212.340089 
L 155.052537 213.24411 
L 158.356392 214.279472 
L 161.692868 215.060546 
L 164.35421 215.502109 
L 167.007057 215.787051 
L 169.966114 215.925479 
L 173.400662 215.850874 
L 176.894066 215.51432 
L 179.084542 215.166807 
L 181.651566 214.621945 
L 185.217824 213.608369 
L 189.162236 212.115889 
L 190.990827 211.280845 
L 194.413997 209.448613 
L 197.63756 207.363779 
L 201.193932 204.583716 
L 203.639519 202.316837 
L 206.215107 199.535713 
L 207.985582 197.32925 
L 210.20163 194.118953 
L 211.857543 191.274595 
L 213.296688 188.348491 
L 213.842832 187.083091 
L 213.842832 187.083091 
" clip-path="url(#pfe218067b0)" style="fill: none; stroke: #0000ff; stroke-linecap: square"/>
   </g>
   <g id="line2d_5">
    <path d="M 314.581235 109.589696 
L 313.460551 106.952976 
L 309.735451 99.024224 
L 305.3792 90.986974 
L 302.911237 86.882899 
L 299.210433 81.21584 
L 294.368802 74.529681 
L 291.309016 70.660183 
L 288.387413 67.18783 
L 283.30407 61.601458 
L 277.817534 56.136768 
L 271.479348 50.450795 
L 265.992899 46.0032 
L 262.888935 43.662836 
L 256.107438 38.952674 
L 249.054351 34.590096 
L 240.150608 29.785541 
L 233.517826 26.672433 
L 225.522408 23.408429 
L 217.755375 20.717852 
L 211.679089 18.926101 
L 208.161125 18.010017 
L 203.658629 16.964154 
L 198.659791 15.966251 
L 193.672932 15.138704 
L 187.71451 14.36618 
L 183.304843 13.9441 
L 177.262217 13.570357 
L 172.593402 13.442654 
L 166.886303 13.476711 
L 161.561292 13.697271 
L 152.843866 14.454048 
L 143.454755 15.826516 
L 133.965126 17.816837 
L 127.054543 19.661335 
L 121.569825 21.371378 
L 117.462008 22.799711 
L 113.401628 24.339809 
L 108.297975 26.4629 
L 103.946839 28.44427 
L 96.042632 32.470618 
L 91.650282 34.961187 
L 84.145147 39.671485 
L 77.962346 44.02218 
L 71.743098 48.876796 
L 68.405395 51.700378 
L 65.177638 54.589455 
L 58.646364 60.964467 
L 54.52322 65.401361 
L 49.940123 70.76964 
L 47.668662 73.623259 
L 45.024085 77.127471 
L 41.777864 81.729611 
L 38.010976 87.555401 
L 34.818025 92.986463 
L 32.575512 97.129354 
L 28.516047 105.50914 
L 26.32249 110.650264 
L 23.09857 119.330637 
L 20.674069 127.18209 
L 18.870879 134.2527 
L 17.440468 141.182158 
L 16.361907 147.909084 
L 15.793099 152.543555 
L 15.404644 156.671577 
L 14.990512 163.890602 
L 14.906143 170.583352 
L 15.046964 175.964867 
L 15.294287 180.276105 
L 15.952287 187.275412 
L 16.962523 194.464624 
L 18.471058 202.362772 
L 20.440543 210.375169 
L 22.376863 216.880466 
L 24.951509 224.249058 
L 26.89563 229.143348 
L 29.837084 235.760946 
L 33.153272 242.36703 
L 36.970624 249.129567 
L 39.81912 253.71214 
L 44.708924 260.840899 
L 48.713686 266.106648 
L 50.691708 268.545092 
L 55.91183 274.53182 
L 60.882396 279.70296 
L 63.023643 281.789878 
L 66.741574 285.230579 
L 70.665425 288.629025 
L 74.062584 291.393327 
L 80.360909 296.119109 
L 82.308729 297.482793 
L 87.310753 300.78806 
L 93.927783 304.753692 
L 98.299302 307.137111 
L 106.141223 310.975137 
L 111.193433 313.167645 
L 117.805775 315.72477 
L 125.932446 318.406814 
L 128.872326 319.256896 
L 137.592512 321.416898 
L 142.612023 322.42156 
L 149.354269 323.504004 
L 154.306957 324.107486 
L 159.249691 324.55008 
L 163.920305 324.822959 
L 174.068954 324.932126 
L 181.863562 324.566471 
L 184.271913 324.374161 
L 189.679591 323.804849 
L 194.071377 323.201275 
L 198.732263 322.420493 
L 203.079794 321.560128 
L 208.274534 320.361815 
L 213.462848 318.975698 
L 218.050387 317.588272 
L 223.38162 315.779184 
L 227.57839 314.201382 
L 234.320949 311.370714 
L 242.75483 307.285914 
L 249.600672 303.490286 
L 257.840225 298.294039 
L 263.794611 294.066797 
L 268.870561 290.115474 
L 274.64657 285.186061 
L 278.647747 281.470625 
L 281.569743 278.585235 
L 285.700838 274.232293 
L 290.251046 269.021054 
L 294.428717 263.79198 
L 297.34412 259.850569 
L 300.424058 255.384326 
L 304.031722 249.689125 
L 306.290953 245.821157 
L 308.512853 241.74784 
L 312.772141 233.002947 
L 314.581235 228.810304 
L 314.581235 228.810304 
" clip-path="url(#pfe218067b0)" style="fill: none; stroke: #0000ff; stroke-linecap: square"/>
   </g>
   <g id="line2d_6">
    <path d="M 213.842832 151.316909 
L 314.581235 109.589696 
" clip-path="url(#pfe218067b0)" style="fill: none; stroke: #0000ff; stroke-width: 1.25; stroke-linecap: square"/>
   </g>
   <g id="line2d_7">
    <path d="M 213.842832 187.083091 
L 314.581235 228.810304 
" clip-path="url(#pfe218067b0)" style="fill: none; stroke: #0000ff; stroke-width: 1.25; stroke-linecap: square"/>
   </g>
   <g id="patch_3">
    <path d="M 280.81471 59.054521 
Q 280.261238 58.506556 281.296791 59.531805 
" clip-path="url(#pfe218067b0)" style="fill: none; stroke: #0000ff; stroke-width: 2; stroke-linecap: round"/>
    <path d="M 283.449905 65.88508 
L 281.296791 59.531805 
L 287.671279 61.621279 
L 283.449905 65.88508 
z
" clip-path="url(#pfe218067b0)" style="fill: #0000ff; stroke: #0000ff; stroke-width: 2; stroke-linecap: round"/>
   </g>
   <g id="patch_4">
    <path d="M 170.669231 13.430769 
Q 169.890398 13.434663 171.347604 13.427377 
" clip-path="url(#pfe218067b0)" style="fill: none; stroke: #0000ff; stroke-width: 2; stroke-linecap: round"/>
    <path d="M 177.362529 16.39734 
L 171.347604 13.427377 
L 177.33253 10.397415 
L 177.362529 16.39734 
z
" clip-path="url(#pfe218067b0)" style="fill: #0000ff; stroke: #0000ff; stroke-width: 2; stroke-linecap: round"/>
   </g>
   <g id="patch_5">
    <path d="M 60.523751 59.054521 
Q 59.975787 59.607992 61.001036 58.57244 
" clip-path="url(#pfe218067b0)" style="fill: none; stroke: #0000ff; stroke-width: 2; stroke-linecap: round"/>
    <path d="M 67.354311 56.419326 
L 61.001036 58.57244 
L 63.09051 52.197952 
L 67.354311 56.419326 
z
" clip-path="url(#pfe218067b0)" style="fill: #0000ff; stroke: #0000ff; stroke-width: 2; stroke-linecap: round"/>
   </g>
   <g id="patch_6">
    <path d="M 14.9 169.2 
Q 14.903894 169.978833 14.896608 168.521626 
" clip-path="url(#pfe218067b0)" style="fill: none; stroke: #0000ff; stroke-width: 2; stroke-linecap: round"/>
    <path d="M 17.866571 162.506701 
L 14.896608 168.521626 
L 11.866646 162.536701 
L 17.866571 162.506701 
z
" clip-path="url(#pfe218067b0)" style="fill: #0000ff; stroke: #0000ff; stroke-width: 2; stroke-linecap: round"/>
   </g>
   <g id="patch_7">
    <path d="M 60.523751 279.345479 
Q 61.077223 279.893444 60.04167 278.868195 
" clip-path="url(#pfe218067b0)" style="fill: none; stroke: #0000ff; stroke-width: 2; stroke-linecap: round"/>
    <path d="M 57.888557 272.51492 
L 60.04167 278.868195 
L 53.667182 276.778721 
L 57.888557 272.51492 
z
" clip-path="url(#pfe218067b0)" style="fill: #0000ff; stroke: #0000ff; stroke-width: 2; stroke-linecap: round"/>
   </g>
   <g id="patch_8">
    <path d="M 170.669231 324.969231 
Q 171.448064 324.965337 169.990857 324.972623 
" clip-path="url(#pfe218067b0)" style="fill: none; stroke: #0000ff; stroke-width: 2; stroke-linecap: round"/>
    <path d="M 163.975932 322.00266 
L 169.990857 324.972623 
L 164.005932 328.002585 
L 163.975932 322.00266 
z
" clip-path="url(#pfe218067b0)" style="fill: #0000ff; stroke: #0000ff; stroke-width: 2; stroke-linecap: round"/>
   </g>
   <g id="patch_9">
    <path d="M 280.81471 279.345479 
Q 281.362675 278.792008 280.337426 279.82756 
" clip-path="url(#pfe218067b0)" style="fill: none; stroke: #0000ff; stroke-width: 2; stroke-linecap: round"/>
    <path d="M 273.984151 281.980674 
L 280.337426 279.82756 
L 278.247952 286.202048 
L 273.984151 281.980674 
z
" clip-path="url(#pfe218067b0)" style="fill: #0000ff; stroke: #0000ff; stroke-width: 2; stroke-linecap: round"/>
   </g>
   <g id="patch_10">
    <path d="M 170.669231 122.469231 
Q 170.435581 122.470399 172.437971 122.460387 
" clip-path="url(#pfe218067b0)" style="fill: none; stroke: #0000ff; stroke-width: 2; stroke-linecap: round"/>
    <path d="M 178.452896 125.43035 
L 172.437971 122.460387 
L 178.422896 119.430425 
L 178.452896 125.43035 
z
" clip-path="url(#pfe218067b0)" style="fill: #0000ff; stroke: #0000ff; stroke-width: 2; stroke-linecap: round"/>
   </g>
   <g id="patch_11">
    <path d="M 123.938462 169.2 
Q 123.93963 169.43365 123.929618 167.43126 
" clip-path="url(#pfe218067b0)" style="fill: none; stroke: #0000ff; stroke-width: 2; stroke-linecap: round"/>
    <path d="M 126.89958 161.416335 
L 123.929618 167.43126 
L 120.899655 161.446335 
L 126.89958 161.416335 
z
" clip-path="url(#pfe218067b0)" style="fill: #0000ff; stroke: #0000ff; stroke-width: 2; stroke-linecap: round"/>
   </g>
   <g id="patch_12">
    <path d="M 170.669231 215.930769 
Q 170.902881 215.929601 168.900491 215.939613 
" clip-path="url(#pfe218067b0)" style="fill: none; stroke: #0000ff; stroke-width: 2; stroke-linecap: round"/>
    <path d="M 162.885566 212.96965 
L 168.900491 215.939613 
L 162.915566 218.969575 
L 162.885566 212.96965 
z
" clip-path="url(#pfe218067b0)" style="fill: #0000ff; stroke: #0000ff; stroke-width: 2; stroke-linecap: round"/>
   </g>
   <g id="patch_13">
    <path d="M 264.212033 130.453302 
Q 264.931593 130.155251 263.585296 130.712906 
" clip-path="url(#pfe218067b0)" style="fill: none; stroke: #0000ff; stroke-width: 2; stroke-linecap: round"/>
    <path d="M 256.893969 130.237368 
L 263.585296 130.712906 
L 259.190069 135.780645 
L 256.893969 130.237368 
z
" clip-path="url(#pfe218067b0)" style="fill: #0000ff; stroke: #0000ff; stroke-width: 2; stroke-linecap: round"/>
   </g>
   <g id="patch_14">
    <path d="M 264.212033 207.946698 
Q 264.931593 208.244749 263.585296 207.687094 
" clip-path="url(#pfe218067b0)" style="fill: none; stroke: #0000ff; stroke-width: 2; stroke-linecap: round"/>
    <path d="M 259.190069 202.619355 
L 263.585296 207.687094 
L 256.893969 208.162632 
L 259.190069 202.619355 
z
" clip-path="url(#pfe218067b0)" style="fill: #0000ff; stroke: #0000ff; stroke-width: 2; stroke-linecap: round"/>
   </g>
   <g id="patch_15">
    <path d="M 170.669231 331.2 
L 170.669231 7.2 
" style="fill: none; stroke: #000000; stroke-width: 0.8; stroke-linejoin: miter; stroke-linecap: square"/>
   </g>
   <g id="patch_16">
    <path d="M 8.906375 169.2 
L 320.57486 169.2 
" style="fill: none; stroke: #000000; stroke-width: 0.8; stroke-linejoin: miter; stroke-linecap: square"/>
   </g>
   <g id="text_4">
    <!-- $\gamma_R$ -->
    <g transform="translate(239.593846 25.441731) scale(0.16 -0.16)">
     <defs>
      <path id="Cmmi10-b0" d="M 1888 -1253 
Q 1888 -1109 1952 -834 
Q 2016 -559 2108 -248 
Q 2200 63 2266 263 
Q 2291 581 2291 744 
Q 2291 1156 2209 1511 
Q 2128 1866 1903 2105 
Q 1678 2344 1275 2344 
Q 1063 2344 852 2253 
Q 641 2163 489 2000 
Q 338 1838 281 1631 
Q 269 1594 231 1594 
L 153 1594 
Q 103 1594 103 1650 
L 103 1672 
Q 175 1959 358 2226 
Q 541 2494 805 2661 
Q 1069 2828 1363 2828 
Q 1663 2828 1881 2625 
Q 2100 2422 2231 2109 
Q 2363 1797 2420 1478 
Q 2478 1159 2478 878 
Q 2800 1753 3200 2534 
L 3297 2741 
Q 3316 2759 3341 2759 
L 3419 2759 
Q 3469 2759 3469 2700 
Q 3469 2688 3456 2663 
L 3359 2463 
Q 3081 1909 2848 1340 
Q 2616 772 2450 244 
Q 2425 28 2354 -347 
Q 2284 -722 2184 -1045 
Q 2084 -1369 1984 -1381 
Q 1888 -1381 1888 -1253 
z
" transform="scale(0.015625)"/>
     </defs>
     <use xlink:href="#Cmmi10-b0" transform="translate(0 0.8125)"/>
     <use xlink:href="#Cmmi10-52" transform="translate(51.708984 -16.19375) scale(0.7)"/>
    </g>
   </g>
   <g id="text_5">
    <!-- $\gamma_\delta$ -->
    <g transform="translate(140.103846 118.903269) scale(0.16 -0.16)">
     <use xlink:href="#Cmmi10-b0" transform="translate(0 0.8125)"/>
     <use xlink:href="#Cmmi10-b1" transform="translate(51.708984 -16.19375) scale(0.7)"/>
    </g>
   </g>
   <g id="text_6">
    <!-- $\gamma_\alpha$ -->
    <g transform="translate(240.39511 119.098879) scale(0.16 -0.16)">
     <defs>
      <path id="Cmmi10-ae" d="M 1288 -72 
Q 984 -72 748 72 
Q 513 216 384 459 
Q 256 703 256 1013 
Q 256 1447 498 1872 
Q 741 2297 1142 2562 
Q 1544 2828 1984 2828 
Q 2309 2828 2556 2658 
Q 2803 2488 2931 2205 
Q 3059 1922 3059 1600 
L 3066 1172 
Q 3284 1475 3436 1801 
Q 3588 2128 3669 2478 
Q 3681 2516 3719 2516 
L 3794 2516 
Q 3853 2516 3853 2456 
Q 3853 2450 3847 2438 
Q 3772 2144 3659 1873 
Q 3547 1603 3395 1350 
Q 3244 1097 3066 891 
Q 3066 97 3250 97 
Q 3369 97 3445 167 
Q 3522 238 3580 341 
Q 3638 444 3653 447 
L 3731 447 
Q 3781 447 3781 384 
Q 3781 225 3598 76 
Q 3416 -72 3238 -72 
Q 3006 -72 2853 78 
Q 2700 228 2644 469 
Q 2344 213 1994 70 
Q 1644 -72 1288 -72 
z
M 1300 97 
Q 1984 97 2613 659 
Q 2609 697 2603 751 
Q 2597 806 2597 813 
L 2597 1503 
Q 2597 2663 1972 2663 
Q 1597 2663 1315 2342 
Q 1034 2022 892 1576 
Q 750 1131 750 763 
Q 750 484 892 290 
Q 1034 97 1300 97 
z
" transform="scale(0.015625)"/>
     </defs>
     <use xlink:href="#Cmmi10-b0" transform="translate(0 0.8125)"/>
     <use xlink:href="#Cmmi10-ae" transform="translate(51.708984 -16.19375) scale(0.7)"/>
    </g>
   </g>
   <g id="text_7">
    <!-- $\gamma_{-\alpha}$ -->
    <g transform="translate(248.456649 221.515351) scale(0.16 -0.16)">
     <use xlink:href="#Cmmi10-b0" transform="translate(0 0.8125)"/>
     <use xlink:href="#Cmsy10-a1" transform="translate(51.708984 -16.19375) scale(0.7)"/>
     <use xlink:href="#Cmmi10-ae" transform="translate(106.088867 -16.19375) scale(0.7)"/>
    </g>
   </g>
  </g>
 </g>
 <defs>
  <clipPath id="pfe218067b0">
   <rect x="8.906375" y="7.2" width="311.668484" height="324"/>
  </clipPath>
 </defs>
</svg>
