<?xml version="1.0" encoding="utf-8" standalone="no"?>
<!DOCTYPE svg PUBLIC "-//W3C//DTD SVG 1.1//EN"
  "http://www.w3.org/Graphics/SVG/1.1/DTD/svg11.dtd">
<svg xmlns:xlink="http://www.w3.org/1999/xlink" width="283.564615pt" height="337.397538pt" viewBox="0 0 283.564615 337.397538" xmlns="http://www.w3.org/2000/svg" version="1.1">
 <metadata>
  <rdf:RDF xmlns:dc="http://purl.org/dc/elements/1.1/" xmlns:cc="http://creativecommons.org/ns#" xmlns:rdf="http://www.w3.org/1999/02/22-rdf-syntax-ns#">
   <cc:Work>
    <dc:type rdf:resource="http://purl.org/dc/dcmitype/StillImage"/>
    <dc:date>2025-01-22T15:38:41.575333</dc:date>
    <dc:format>image/svg+xml</dc:format>
    <dc:creator>
     <cc:Agent>
      <dc:title>Matplotlib v3.6.2, https://matplotlib.org/</dc:title>
     </cc:Agent>
    </dc:creator>
   </cc:Work>
  </rdf:RDF>
 </metadata>
 <defs>
  <style type="text/css">*{stroke-linejoin: round; stroke-linecap: butt}</style>
 </defs>
 <g id="figure_1">
  <g id="patch_1">
   <path d="M 0 337.397538 
L 283.564615 337.397538 
L 283.564615 0 
L 0 0 
z
" style="fill: #ffffff"/>
  </g>
  <g id="axes_1">
   <g id="patch_2">
    <path d="M 7.2 330.197538 
L 276.364615 330.197538 
L 276.364615 7.2 
L 7.2 7.2 
z
" style="fill: #ffffff"/>
   </g>
   <g id="PathCollection_1">
    <path d="M 156.945039 147.55637 
L 157.990744 147.697863 
L 159.03645 147.191013 
L 159.843375 146.738952 
L 160.082155 146.656683 
L 161.127861 146.174165 
L 162.166911 145.693247 
L 162.173566 145.690645 
L 163.219272 145.223023 
L 164.264978 144.766439 
L 164.533723 144.647541 
L 165.310683 144.314237 
L 166.356389 143.873758 
L 167.021597 143.601835 
L 167.402094 143.442571 
L 168.4478 143.012065 
L 169.493505 142.602157 
L 169.615954 142.55613 
L 170.539211 142.181084 
L 171.584917 141.77702 
L 172.316199 141.510424 
L 172.630622 141.381675 
L 173.676328 140.978895 
L 174.722033 140.59877 
L 175.126764 140.464719 
L 175.767739 140.21017 
L 176.813445 139.826657 
L 177.85915 139.468868 
L 178.034343 139.419013 
L 178.904856 139.081801 
L 179.950561 138.712449 
L 180.996267 138.380843 
L 181.039658 138.373308 
L 182.041972 137.949875 
L 183.087406 137.327602 
L 182.773306 136.281896 
L 182.382766 135.236191 
L 182.041972 134.410996 
L 181.981323 134.190485 
L 181.594406 133.14478 
L 181.183772 132.099074 
L 180.996267 131.667639 
L 180.765623 131.053368 
L 180.336525 130.007663 
L 179.950561 129.102905 
L 179.89481 128.961957 
L 179.441687 127.916252 
L 178.978852 126.870546 
L 178.904856 126.711507 
L 178.500732 125.824841 
L 178.014882 124.779135 
L 177.85915 124.452467 
L 177.513422 123.733429 
L 177.004062 122.687724 
L 176.813445 122.29981 
L 176.47912 121.642018 
L 175.946896 120.596313 
L 175.767739 120.241999 
L 175.397257 119.550607 
L 174.844057 118.504902 
L 174.722033 118.268512 
L 174.267641 117.459196 
L 173.697097 116.41349 
L 173.676328 116.373463 
L 173.090885 115.367785 
L 172.630622 114.536539 
L 172.49325 114.322079 
L 171.869363 113.276374 
L 171.584917 112.753726 
L 171.23624 112.230668 
L 170.610145 111.184963 
L 170.539211 111.04241 
L 169.930169 110.139257 
L 169.493505 109.349283 
L 169.267716 109.093551 
L 168.587057 108.047846 
L 168.4478 107.605397 
L 167.627323 107.00214 
L 167.402094 106.477636 
L 167.241068 107.00214 
L 166.356389 107.377831 
L 165.557093 108.047846 
L 165.310683 108.15633 
L 164.264978 108.872771 
L 164.011949 109.093551 
L 163.219272 109.601265 
L 162.51401 110.139257 
L 162.173566 110.349875 
L 161.127861 111.102476 
L 161.026648 111.184963 
L 160.082155 111.855875 
L 159.599113 112.230668 
L 159.03645 112.625408 
L 158.175498 113.276374 
L 157.990744 113.406292 
L 156.945039 114.19553 
L 156.786049 114.322079 
L 155.899333 114.997215 
L 155.429904 115.367785 
L 154.853627 115.811559 
L 154.092451 116.41349 
L 153.807922 116.637084 
L 152.778988 117.459196 
L 152.762216 117.472761 
L 151.716511 118.329075 
L 151.499682 118.504902 
L 150.670805 119.200649 
L 150.243688 119.550607 
L 149.6251 120.086844 
L 149.01276 120.596313 
L 148.579394 120.987899 
L 147.808756 121.642018 
L 147.533688 121.904217 
L 146.633089 122.687724 
L 146.487983 122.836218 
L 145.486921 123.733429 
L 145.442277 123.783977 
L 144.396572 124.75633 
L 144.362873 124.779135 
L 143.350866 125.766407 
L 143.240943 125.824841 
L 142.30516 126.819246 
L 141.795444 126.870546 
L 142.30516 127.339824 
L 142.362625 127.916252 
L 143.350866 128.855337 
L 143.408053 128.961957 
L 144.396572 129.987121 
L 144.410127 130.007663 
L 145.369459 131.053368 
L 145.442277 131.117778 
L 146.304613 132.099074 
L 146.487983 132.280763 
L 147.217207 133.14478 
L 147.533688 133.487247 
L 148.105532 134.190485 
L 148.579394 134.74238 
L 148.967738 135.236191 
L 149.6251 136.051541 
L 149.801246 136.281896 
L 150.605655 137.327602 
L 150.670805 137.413311 
L 151.391227 138.373308 
L 151.716511 138.828731 
L 152.148042 139.419013 
L 152.762216 140.319529 
L 152.867818 140.464719 
L 153.575081 141.510424 
L 153.807922 141.899439 
L 154.258489 142.55613 
L 154.853627 143.558582 
L 154.885633 143.601835 
L 155.537811 144.647541 
L 155.899333 145.390095 
L 156.134391 145.693247 
L 156.729102 146.738952 
z
" clip-path="url(#p060f5fef9c)" style="fill: #add8e6"/>
   </g>
   <g id="PathCollection_2">
    <path d="M 156.945039 147.55637 
L 157.990744 147.697863 
L 159.03645 147.191013 
L 159.843375 146.738952 
L 160.082155 146.656683 
L 161.127861 146.174165 
L 162.166911 145.693247 
L 162.173566 145.690645 
L 163.219272 145.223023 
L 164.264978 144.766439 
L 164.533723 144.647541 
L 165.310683 144.314237 
L 166.356389 143.873758 
L 167.021597 143.601835 
L 167.402094 143.442571 
L 168.4478 143.012065 
L 169.493505 142.602157 
L 169.615954 142.55613 
L 170.539211 142.181084 
L 171.584917 141.77702 
L 172.316199 141.510424 
L 172.630622 141.381675 
L 173.676328 140.978895 
L 174.722033 140.59877 
L 175.126764 140.464719 
L 175.767739 140.21017 
L 176.813445 139.826657 
L 177.85915 139.468868 
L 178.034343 139.419013 
L 178.904856 139.081801 
L 179.950561 138.712449 
L 180.996267 138.380843 
L 181.039658 138.373308 
L 182.041972 137.949875 
L 183.087406 137.327602 
L 182.773306 136.281896 
L 182.382766 135.236191 
L 182.041972 134.410996 
L 181.981323 134.190485 
L 181.594406 133.14478 
L 181.183772 132.099074 
L 180.996267 131.667639 
L 180.765623 131.053368 
L 180.336525 130.007663 
L 179.950561 129.102905 
L 179.89481 128.961957 
L 179.441687 127.916252 
L 178.978852 126.870546 
L 178.904856 126.711507 
L 178.500732 125.824841 
L 178.014882 124.779135 
L 177.85915 124.452467 
L 177.513422 123.733429 
L 177.004062 122.687724 
L 176.813445 122.29981 
L 176.47912 121.642018 
L 175.946896 120.596313 
L 175.767739 120.241999 
L 175.397257 119.550607 
L 174.844057 118.504902 
L 174.722033 118.268512 
L 174.267641 117.459196 
L 173.697097 116.41349 
L 173.676328 116.373463 
L 173.090885 115.367785 
L 172.630622 114.536539 
L 172.49325 114.322079 
L 171.869363 113.276374 
L 171.584917 112.753726 
L 171.23624 112.230668 
L 170.610145 111.184963 
L 170.539211 111.04241 
L 169.930169 110.139257 
L 169.493505 109.349283 
L 169.267716 109.093551 
L 168.587057 108.047846 
L 168.4478 107.605397 
L 167.627323 107.00214 
L 167.402094 106.477636 
L 167.241068 107.00214 
L 166.356389 107.377831 
L 165.557093 108.047846 
L 165.310683 108.15633 
L 164.264978 108.872771 
L 164.011949 109.093551 
L 163.219272 109.601265 
L 162.51401 110.139257 
L 162.173566 110.349875 
L 161.127861 111.102476 
L 161.026648 111.184963 
L 160.082155 111.855875 
L 159.599113 112.230668 
L 159.03645 112.625408 
L 158.175498 113.276374 
L 157.990744 113.406292 
L 156.945039 114.19553 
L 156.786049 114.322079 
L 155.899333 114.997215 
L 155.429904 115.367785 
L 154.853627 115.811559 
L 154.092451 116.41349 
L 153.807922 116.637084 
L 152.778988 117.459196 
L 152.762216 117.472761 
L 151.716511 118.329075 
L 151.499682 118.504902 
L 150.670805 119.200649 
L 150.243688 119.550607 
L 149.6251 120.086844 
L 149.01276 120.596313 
L 148.579394 120.987899 
L 147.808756 121.642018 
L 147.533688 121.904217 
L 146.633089 122.687724 
L 146.487983 122.836218 
L 145.486921 123.733429 
L 145.442277 123.783977 
L 144.396572 124.75633 
L 144.362873 124.779135 
L 143.350866 125.766407 
L 143.240943 125.824841 
L 142.30516 126.819246 
L 141.795444 126.870546 
L 142.30516 127.339824 
L 142.362625 127.916252 
L 143.350866 128.855337 
L 143.408053 128.961957 
L 144.396572 129.987121 
L 144.410127 130.007663 
L 145.369459 131.053368 
L 145.442277 131.117778 
L 146.304613 132.099074 
L 146.487983 132.280763 
L 147.217207 133.14478 
L 147.533688 133.487247 
L 148.105532 134.190485 
L 148.579394 134.74238 
L 148.967738 135.236191 
L 149.6251 136.051541 
L 149.801246 136.281896 
L 150.605655 137.327602 
L 150.670805 137.413311 
L 151.391227 138.373308 
L 151.716511 138.828731 
L 152.148042 139.419013 
L 152.762216 140.319529 
L 152.867818 140.464719 
L 153.575081 141.510424 
L 153.807922 141.899439 
L 154.258489 142.55613 
L 154.853627 143.558582 
L 154.885633 143.601835 
L 155.537811 144.647541 
L 155.899333 145.390095 
L 156.134391 145.693247 
L 156.729102 146.738952 
z
M 156.729102 146.738952 
L 156.134391 145.693247 
L 155.899333 145.390095 
L 155.537811 144.647541 
L 154.885633 143.601835 
L 154.853627 143.558582 
L 154.258489 142.55613 
L 153.807922 141.899439 
L 153.575081 141.510424 
L 152.867818 140.464719 
L 152.762216 140.319529 
L 152.148042 139.419013 
L 151.716511 138.828731 
L 151.391227 138.373308 
L 150.670805 137.413311 
L 150.605655 137.327602 
L 149.801246 136.281896 
L 149.6251 136.051541 
L 148.967738 135.236191 
L 148.579394 134.74238 
L 148.105532 134.190485 
L 147.533688 133.487247 
L 147.217207 133.14478 
L 146.487983 132.280763 
L 146.304613 132.099074 
L 145.442277 131.117778 
L 145.369459 131.053368 
L 144.410127 130.007663 
L 144.396572 129.987121 
L 143.408053 128.961957 
L 143.350866 128.855337 
L 142.362625 127.916252 
L 142.30516 127.339824 
L 141.795444 126.870546 
L 142.30516 126.819246 
L 143.240943 125.824841 
L 143.350866 125.766407 
L 144.362873 124.779135 
L 144.396572 124.75633 
L 145.442277 123.783977 
L 145.486921 123.733429 
L 146.487983 122.836218 
L 146.633089 122.687724 
L 147.533688 121.904217 
L 147.808756 121.642018 
L 148.579394 120.987899 
L 149.01276 120.596313 
L 149.6251 120.086844 
L 150.243688 119.550607 
L 150.670805 119.200649 
L 151.499682 118.504902 
L 151.716511 118.329075 
L 152.762216 117.472761 
L 152.778988 117.459196 
L 153.807922 116.637084 
L 154.092451 116.41349 
L 154.853627 115.811559 
L 155.429904 115.367785 
L 155.899333 114.997215 
L 156.786049 114.322079 
L 156.945039 114.19553 
L 157.990744 113.406292 
L 158.175498 113.276374 
L 159.03645 112.625408 
L 159.599113 112.230668 
L 160.082155 111.855875 
L 161.026648 111.184963 
L 161.127861 111.102476 
L 162.173566 110.349875 
L 162.51401 110.139257 
L 163.219272 109.601265 
L 164.011949 109.093551 
L 164.264978 108.872771 
L 165.310683 108.15633 
L 165.557093 108.047846 
L 166.356389 107.377831 
L 167.241068 107.00214 
L 167.402094 106.477636 
L 167.627323 107.00214 
L 168.4478 107.605397 
L 168.587057 108.047846 
L 169.267716 109.093551 
L 169.493505 109.349283 
L 169.930169 110.139257 
L 170.539211 111.04241 
L 170.610145 111.184963 
L 171.23624 112.230668 
L 171.584917 112.753726 
L 171.869363 113.276374 
L 172.49325 114.322079 
L 172.630622 114.536539 
L 173.090885 115.367785 
L 173.676328 116.373463 
L 173.697097 116.41349 
L 174.267641 117.459196 
L 174.722033 118.268512 
L 174.844057 118.504902 
L 175.397257 119.550607 
L 175.767739 120.241999 
L 175.946896 120.596313 
L 176.47912 121.642018 
L 176.813445 122.29981 
L 177.004062 122.687724 
L 177.513422 123.733429 
L 177.85915 124.452467 
L 178.014882 124.779135 
L 178.500732 125.824841 
L 178.904856 126.711507 
L 178.978852 126.870546 
L 179.441687 127.916252 
L 179.89481 128.961957 
L 179.950561 129.102905 
L 180.336525 130.007663 
L 180.765623 131.053368 
L 180.996267 131.667639 
L 181.183772 132.099074 
L 181.594406 133.14478 
L 181.981323 134.190485 
L 182.041972 134.410996 
L 182.382766 135.236191 
L 182.773306 136.281896 
L 183.087406 137.327602 
L 182.041972 137.949875 
L 181.039658 138.373308 
L 180.996267 138.380843 
L 179.950561 138.712449 
L 178.904856 139.081801 
L 178.034343 139.419013 
L 177.85915 139.468868 
L 176.813445 139.826657 
L 175.767739 140.21017 
L 175.126764 140.464719 
L 174.722033 140.59877 
L 173.676328 140.978895 
L 172.630622 141.381675 
L 172.316199 141.510424 
L 171.584917 141.77702 
L 170.539211 142.181084 
L 169.615954 142.55613 
L 169.493505 142.602157 
L 168.4478 143.012065 
L 167.402094 143.442571 
L 167.021597 143.601835 
L 166.356389 143.873758 
L 165.310683 144.314237 
L 164.533723 144.647541 
L 164.264978 144.766439 
L 163.219272 145.223023 
L 162.173566 145.690645 
L 162.166911 145.693247 
L 161.127861 146.174165 
L 160.082155 146.656683 
L 159.843375 146.738952 
L 159.03645 147.191013 
L 157.990744 147.697863 
L 156.945039 147.55637 
z
" clip-path="url(#p060f5fef9c)" style="fill: #add8e6"/>
   </g>
   <g id="PathCollection_3">
    <path d="M 156.945039 147.55637 
L 157.990744 147.697863 
L 159.03645 147.191013 
L 159.843375 146.738952 
L 160.082155 146.656683 
L 161.127861 146.174165 
L 162.166911 145.693247 
L 162.173566 145.690645 
L 163.219272 145.223023 
L 164.264978 144.766439 
L 164.533723 144.647541 
L 165.310683 144.314237 
L 166.356389 143.873758 
L 167.021597 143.601835 
L 167.402094 143.442571 
L 168.4478 143.012065 
L 169.493505 142.602157 
L 169.615954 142.55613 
L 170.539211 142.181084 
L 171.584917 141.77702 
L 172.316199 141.510424 
L 172.630622 141.381675 
L 173.676328 140.978895 
L 174.722033 140.59877 
L 175.126764 140.464719 
L 175.767739 140.21017 
L 176.813445 139.826657 
L 177.85915 139.468868 
L 178.034343 139.419013 
L 178.904856 139.081801 
L 179.950561 138.712449 
L 180.996267 138.380843 
L 181.039658 138.373308 
L 182.041972 137.949875 
L 183.087406 137.327602 
L 182.773306 136.281896 
L 182.382766 135.236191 
L 182.041972 134.410996 
L 181.981323 134.190485 
L 181.594406 133.14478 
L 181.183772 132.099074 
L 180.996267 131.667639 
L 180.765623 131.053368 
L 180.336525 130.007663 
L 179.950561 129.102905 
L 179.89481 128.961957 
L 179.441687 127.916252 
L 178.978852 126.870546 
L 178.904856 126.711507 
L 178.500732 125.824841 
L 178.014882 124.779135 
L 177.85915 124.452467 
L 177.513422 123.733429 
L 177.004062 122.687724 
L 176.813445 122.29981 
L 176.47912 121.642018 
L 175.946896 120.596313 
L 175.767739 120.241999 
L 175.397257 119.550607 
L 174.844057 118.504902 
L 174.722033 118.268512 
L 174.267641 117.459196 
L 173.697097 116.41349 
L 173.676328 116.373463 
L 173.090885 115.367785 
L 172.630622 114.536539 
L 172.49325 114.322079 
L 171.869363 113.276374 
L 171.584917 112.753726 
L 171.23624 112.230668 
L 170.610145 111.184963 
L 170.539211 111.04241 
L 169.930169 110.139257 
L 169.493505 109.349283 
L 169.267716 109.093551 
L 168.587057 108.047846 
L 168.4478 107.605397 
L 167.627323 107.00214 
L 167.402094 106.477636 
L 167.241068 107.00214 
L 166.356389 107.377831 
L 165.557093 108.047846 
L 165.310683 108.15633 
L 164.264978 108.872771 
L 164.011949 109.093551 
L 163.219272 109.601265 
L 162.51401 110.139257 
L 162.173566 110.349875 
L 161.127861 111.102476 
L 161.026648 111.184963 
L 160.082155 111.855875 
L 159.599113 112.230668 
L 159.03645 112.625408 
L 158.175498 113.276374 
L 157.990744 113.406292 
L 156.945039 114.19553 
L 156.786049 114.322079 
L 155.899333 114.997215 
L 155.429904 115.367785 
L 154.853627 115.811559 
L 154.092451 116.41349 
L 153.807922 116.637084 
L 152.778988 117.459196 
L 152.762216 117.472761 
L 151.716511 118.329075 
L 151.499682 118.504902 
L 150.670805 119.200649 
L 150.243688 119.550607 
L 149.6251 120.086844 
L 149.01276 120.596313 
L 148.579394 120.987899 
L 147.808756 121.642018 
L 147.533688 121.904217 
L 146.633089 122.687724 
L 146.487983 122.836218 
L 145.486921 123.733429 
L 145.442277 123.783977 
L 144.396572 124.75633 
L 144.362873 124.779135 
L 143.350866 125.766407 
L 143.240943 125.824841 
L 142.30516 126.819246 
L 141.795444 126.870546 
L 142.30516 127.339824 
L 142.362625 127.916252 
L 143.350866 128.855337 
L 143.408053 128.961957 
L 144.396572 129.987121 
L 144.410127 130.007663 
L 145.369459 131.053368 
L 145.442277 131.117778 
L 146.304613 132.099074 
L 146.487983 132.280763 
L 147.217207 133.14478 
L 147.533688 133.487247 
L 148.105532 134.190485 
L 148.579394 134.74238 
L 148.967738 135.236191 
L 149.6251 136.051541 
L 149.801246 136.281896 
L 150.605655 137.327602 
L 150.670805 137.413311 
L 151.391227 138.373308 
L 151.716511 138.828731 
L 152.148042 139.419013 
L 152.762216 140.319529 
L 152.867818 140.464719 
L 153.575081 141.510424 
L 153.807922 141.899439 
L 154.258489 142.55613 
L 154.853627 143.558582 
L 154.885633 143.601835 
L 155.537811 144.647541 
L 155.899333 145.390095 
L 156.134391 145.693247 
L 156.729102 146.738952 
z
M 156.729102 146.738952 
L 156.134391 145.693247 
L 155.899333 145.390095 
L 155.537811 144.647541 
L 154.885633 143.601835 
L 154.853627 143.558582 
L 154.258489 142.55613 
L 153.807922 141.899439 
L 153.575081 141.510424 
L 152.867818 140.464719 
L 152.762216 140.319529 
L 152.148042 139.419013 
L 151.716511 138.828731 
L 151.391227 138.373308 
L 150.670805 137.413311 
L 150.605655 137.327602 
L 149.801246 136.281896 
L 149.6251 136.051541 
L 148.967738 135.236191 
L 148.579394 134.74238 
L 148.105532 134.190485 
L 147.533688 133.487247 
L 147.217207 133.14478 
L 146.487983 132.280763 
L 146.304613 132.099074 
L 145.442277 131.117778 
L 145.369459 131.053368 
L 144.410127 130.007663 
L 144.396572 129.987121 
L 143.408053 128.961957 
L 143.350866 128.855337 
L 142.362625 127.916252 
L 142.30516 127.339824 
L 141.795444 126.870546 
L 142.30516 126.819246 
L 143.240943 125.824841 
L 143.350866 125.766407 
L 144.362873 124.779135 
L 144.396572 124.75633 
L 145.442277 123.783977 
L 145.486921 123.733429 
L 146.487983 122.836218 
L 146.633089 122.687724 
L 147.533688 121.904217 
L 147.808756 121.642018 
L 148.579394 120.987899 
L 149.01276 120.596313 
L 149.6251 120.086844 
L 150.243688 119.550607 
L 150.670805 119.200649 
L 151.499682 118.504902 
L 151.716511 118.329075 
L 152.762216 117.472761 
L 152.778988 117.459196 
L 153.807922 116.637084 
L 154.092451 116.41349 
L 154.853627 115.811559 
L 155.429904 115.367785 
L 155.899333 114.997215 
L 156.786049 114.322079 
L 156.945039 114.19553 
L 157.990744 113.406292 
L 158.175498 113.276374 
L 159.03645 112.625408 
L 159.599113 112.230668 
L 160.082155 111.855875 
L 161.026648 111.184963 
L 161.127861 111.102476 
L 162.173566 110.349875 
L 162.51401 110.139257 
L 163.219272 109.601265 
L 164.011949 109.093551 
L 164.264978 108.872771 
L 165.310683 108.15633 
L 165.557093 108.047846 
L 166.356389 107.377831 
L 167.241068 107.00214 
L 167.402094 106.477636 
L 167.627323 107.00214 
L 168.4478 107.605397 
L 168.587057 108.047846 
L 169.267716 109.093551 
L 169.493505 109.349283 
L 169.930169 110.139257 
L 170.539211 111.04241 
L 170.610145 111.184963 
L 171.23624 112.230668 
L 171.584917 112.753726 
L 171.869363 113.276374 
L 172.49325 114.322079 
L 172.630622 114.536539 
L 173.090885 115.367785 
L 173.676328 116.373463 
L 173.697097 116.41349 
L 174.267641 117.459196 
L 174.722033 118.268512 
L 174.844057 118.504902 
L 175.397257 119.550607 
L 175.767739 120.241999 
L 175.946896 120.596313 
L 176.47912 121.642018 
L 176.813445 122.29981 
L 177.004062 122.687724 
L 177.513422 123.733429 
L 177.85915 124.452467 
L 178.014882 124.779135 
L 178.500732 125.824841 
L 178.904856 126.711507 
L 178.978852 126.870546 
L 179.441687 127.916252 
L 179.89481 128.961957 
L 179.950561 129.102905 
L 180.336525 130.007663 
L 180.765623 131.053368 
L 180.996267 131.667639 
L 181.183772 132.099074 
L 181.594406 133.14478 
L 181.981323 134.190485 
L 182.041972 134.410996 
L 182.382766 135.236191 
L 182.773306 136.281896 
L 183.087406 137.327602 
L 182.041972 137.949875 
L 181.039658 138.373308 
L 180.996267 138.380843 
L 179.950561 138.712449 
L 178.904856 139.081801 
L 178.034343 139.419013 
L 177.85915 139.468868 
L 176.813445 139.826657 
L 175.767739 140.21017 
L 175.126764 140.464719 
L 174.722033 140.59877 
L 173.676328 140.978895 
L 172.630622 141.381675 
L 172.316199 141.510424 
L 171.584917 141.77702 
L 170.539211 142.181084 
L 169.615954 142.55613 
L 169.493505 142.602157 
L 168.4478 143.012065 
L 167.402094 143.442571 
L 167.021597 143.601835 
L 166.356389 143.873758 
L 165.310683 144.314237 
L 164.533723 144.647541 
L 164.264978 144.766439 
L 163.219272 145.223023 
L 162.173566 145.690645 
L 162.166911 145.693247 
L 161.127861 146.174165 
L 160.082155 146.656683 
L 159.843375 146.738952 
L 159.03645 147.191013 
L 157.990744 147.697863 
L 156.945039 147.55637 
z
" clip-path="url(#p060f5fef9c)" style="fill: #ffffff"/>
   </g>
   <g id="PathCollection_4">
    <path d="M 91.065587 168.698769 
L 92.111293 168.698769 
L 93.156998 168.698769 
L 94.202704 168.698769 
L 95.24841 168.698769 
L 96.294115 168.698769 
L 97.339821 168.698769 
L 98.385526 168.698769 
L 99.431232 168.698769 
L 100.476937 168.698769 
L 101.522643 168.698769 
L 102.568349 168.698769 
L 103.614054 168.698769 
L 104.65976 168.698769 
L 105.705465 168.698769 
L 106.751171 167.653064 
L 107.796876 168.698769 
L 108.842582 168.698769 
L 109.888288 168.698769 
L 110.933993 168.698769 
L 111.979699 168.698769 
L 113.025404 168.698769 
L 114.07111 168.698769 
L 115.116815 168.698769 
L 116.162521 168.698769 
L 117.208227 168.698769 
L 118.253932 168.698769 
L 119.299638 168.698769 
L 120.345343 168.698769 
L 121.391049 168.698769 
L 122.436755 168.698769 
L 123.48246 168.698769 
L 124.528166 168.698769 
L 125.573871 168.698769 
L 126.619577 168.698769 
L 127.665282 168.698769 
L 128.710988 168.698769 
L 129.756694 168.698769 
L 130.802399 168.698769 
L 131.848105 168.698769 
L 132.89381 168.698769 
L 133.939516 168.698769 
L 134.985221 168.698769 
L 136.030927 168.698769 
L 137.076633 168.698769 
L 138.122338 168.698769 
L 139.168044 168.698769 
L 140.213749 168.698769 
L 141.259455 168.698769 
L 142.30516 168.698769 
L 143.350866 168.698769 
L 144.396572 168.698769 
L 145.442277 168.698769 
L 146.487983 168.698769 
L 147.533688 168.698769 
L 148.579394 168.698769 
L 149.6251 168.698769 
L 150.670805 168.698769 
L 151.716511 168.698769 
L 152.762216 168.698769 
L 153.807922 168.698769 
L 154.853627 168.698769 
L 155.899333 168.698769 
L 156.945039 168.698769 
L 157.990744 168.698769 
L 159.03645 168.698769 
L 160.082155 168.698769 
L 161.127861 168.698769 
L 162.173566 168.698769 
L 163.219272 168.698769 
L 164.264978 168.698769 
L 165.310683 168.698769 
L 166.356389 168.698769 
L 167.402094 168.698769 
L 168.4478 168.698769 
L 169.493505 168.698769 
L 170.539211 168.698769 
L 171.584917 168.698769 
L 172.630622 168.698769 
L 173.676328 168.698769 
L 174.722033 168.698769 
L 175.767739 168.698769 
L 176.813445 168.698769 
L 177.85915 168.698769 
L 178.904856 168.698769 
L 179.950561 168.698769 
L 180.996267 168.698769 
L 182.041972 167.653064 
L 183.087678 168.698769 
L 184.133384 168.698769 
L 185.179089 168.698769 
L 186.224795 168.698769 
L 187.2705 168.698769 
L 188.316206 168.698769 
L 189.361911 168.698769 
L 190.407617 168.698769 
L 191.453323 168.698769 
L 192.499028 168.698769 
L 193.544734 168.698769 
L 193.544734 167.653064 
L 193.544734 166.607358 
L 193.544734 165.561653 
L 193.544734 164.515947 
L 193.544734 163.470241 
L 193.544734 162.424536 
L 193.544734 161.37883 
L 193.544734 160.333125 
L 193.544734 159.287419 
L 193.544734 158.241713 
L 193.544734 157.196008 
L 193.544734 156.150302 
L 193.544734 155.104597 
L 193.544734 154.058891 
L 193.544734 153.013186 
L 193.544734 151.96748 
L 193.544734 150.921774 
L 193.544734 149.876069 
L 193.544734 148.830363 
L 193.544734 147.784658 
L 193.544734 146.738952 
L 193.544734 145.693247 
L 193.544734 144.647541 
L 193.544734 143.601835 
L 193.544734 142.55613 
L 193.544734 141.510424 
L 193.544734 140.464719 
L 193.544734 139.419013 
L 193.544734 138.373308 
L 193.544734 137.327602 
L 193.544734 136.281896 
L 193.544734 135.236191 
L 193.544734 134.190485 
L 193.544734 133.14478 
L 193.544734 132.099074 
L 193.544734 131.053368 
L 193.544734 130.007663 
L 193.544734 128.961957 
L 193.544734 127.916252 
L 193.544734 126.870546 
L 193.544734 125.824841 
L 193.544734 124.779135 
L 193.544734 123.733429 
L 193.544734 122.687724 
L 193.544734 121.642018 
L 193.544734 120.596313 
L 193.544734 119.550607 
L 193.544734 118.504902 
L 193.544734 117.459196 
L 193.544734 116.41349 
L 193.544734 115.367785 
L 193.544734 114.322079 
L 193.544734 113.276374 
L 193.544734 112.230668 
L 193.544734 111.184963 
L 193.544734 110.139257 
L 193.544734 109.093551 
L 193.544734 108.047846 
L 193.544734 107.00214 
L 193.544734 105.956435 
L 193.544734 104.910729 
L 193.544734 103.865023 
L 193.544734 102.819318 
L 193.544734 101.773612 
L 193.544734 100.727907 
L 193.544734 99.682201 
L 193.544734 98.636496 
L 193.544734 97.59079 
L 193.544734 96.545084 
L 193.544734 95.499379 
L 193.544734 94.453673 
L 193.544734 93.407968 
L 193.544734 92.362262 
L 193.544734 91.316557 
L 193.544734 90.270851 
L 193.544734 89.225145 
L 193.544734 88.17944 
L 193.544734 87.133734 
L 193.544734 86.088029 
L 193.544734 85.042323 
L 193.544734 83.996618 
L 193.544734 82.950912 
L 193.544734 81.905206 
L 193.544734 80.859501 
L 193.544734 79.813795 
L 193.544734 78.76809 
L 193.544734 77.722384 
L 193.544734 76.676679 
L 193.544734 75.630973 
L 193.544734 74.585267 
L 193.544734 73.539562 
L 193.544734 72.493856 
L 193.544734 71.448151 
L 193.544734 70.402445 
L 193.544734 69.356739 
L 193.544734 68.311034 
L 193.544734 67.265328 
L 193.544734 66.219623 
L 193.544734 65.173917 
L 192.499028 65.173917 
L 191.453323 65.173917 
L 190.407617 65.173917 
L 189.361911 65.173917 
L 188.316206 65.173917 
L 187.2705 65.173917 
L 186.224795 65.173917 
L 185.179089 65.173917 
L 184.133384 65.173917 
L 183.087678 65.173917 
L 182.041972 65.173917 
L 180.996267 65.173917 
L 179.950561 65.173917 
L 178.904856 65.173917 
L 177.85915 65.173917 
L 176.813445 65.173917 
L 175.767739 65.173917 
L 174.722033 65.173917 
L 173.676328 65.173917 
L 172.630622 65.173917 
L 171.584917 65.173917 
L 170.539211 65.173917 
L 169.493505 65.173917 
L 168.4478 65.173917 
L 167.402094 65.173917 
L 166.356389 65.173917 
L 165.310683 65.173917 
L 164.264978 65.173917 
L 163.219272 65.173917 
L 162.173566 65.173917 
L 161.127861 65.173917 
L 160.082155 65.173917 
L 159.03645 65.173917 
L 157.990744 65.173917 
L 156.945039 65.173917 
L 155.899333 65.173917 
L 154.853627 65.173917 
L 153.807922 65.173917 
L 152.762216 65.173917 
L 151.716511 65.173917 
L 150.670805 65.173917 
L 149.6251 65.173917 
L 148.579394 65.173917 
L 147.533688 65.173917 
L 146.487983 65.173917 
L 145.442277 65.173917 
L 144.396572 65.173917 
L 143.350866 65.173917 
L 142.30516 65.173917 
L 141.259455 65.173917 
L 140.213749 65.173917 
L 139.168044 65.173917 
L 138.122338 65.173917 
L 137.076633 65.173917 
L 136.030927 65.173917 
L 134.985221 65.173917 
L 133.939516 65.173917 
L 132.89381 65.173917 
L 131.848105 65.173917 
L 130.802399 65.173917 
L 129.756694 65.173917 
L 128.710988 65.173917 
L 127.665282 65.173917 
L 126.619577 65.173917 
L 125.573871 65.173917 
L 124.528166 65.173917 
L 123.48246 65.173917 
L 122.436755 65.173917 
L 121.391049 65.173917 
L 120.345343 65.173917 
L 119.299638 65.173917 
L 118.253932 65.173917 
L 117.208227 65.173917 
L 116.162521 65.173917 
L 115.116815 65.173917 
L 114.07111 65.173917 
L 113.025404 65.173917 
L 111.979699 65.173917 
L 110.933993 65.173917 
L 109.888288 65.173917 
L 108.842582 65.173917 
L 107.796876 65.173917 
L 106.751171 65.173917 
L 105.705465 65.173917 
L 104.65976 65.173917 
L 103.614054 65.173917 
L 102.568349 65.173917 
L 101.522643 65.173917 
L 100.476937 65.173917 
L 99.431232 65.173917 
L 98.385526 65.173917 
L 97.339821 65.173917 
L 96.294115 65.173917 
L 95.24841 65.173917 
L 94.202704 65.173917 
L 93.156998 65.173917 
L 92.111293 65.173917 
L 91.065587 65.173917 
L 90.019882 65.173917 
L 90.019882 66.219623 
L 90.019882 67.265328 
L 90.019882 68.311034 
L 90.019882 69.356739 
L 90.019882 70.402445 
L 90.019882 71.448151 
L 90.019882 72.493856 
L 90.019882 73.539562 
L 90.019882 74.585267 
L 90.019882 75.630973 
L 90.019882 76.676679 
L 90.019882 77.722384 
L 90.019882 78.76809 
L 90.019882 79.813795 
L 90.019882 80.859501 
L 90.019882 81.905206 
L 90.019882 82.950912 
L 90.019882 83.996618 
L 90.019882 85.042323 
L 90.019882 86.088029 
L 90.019882 87.133734 
L 90.019882 88.17944 
L 90.019882 89.225145 
L 90.019882 90.270851 
L 90.019882 91.316557 
L 90.019882 92.362262 
L 90.019882 93.407968 
L 90.019882 94.453673 
L 90.019882 95.499379 
L 90.019882 96.545084 
L 90.019882 97.59079 
L 90.019882 98.636496 
L 90.019882 99.682201 
L 90.019882 100.727907 
L 90.019882 101.773612 
L 90.019882 102.819318 
L 90.019882 103.865023 
L 90.019882 104.910729 
L 90.019882 105.956435 
L 90.019882 107.00214 
L 90.019882 108.047846 
L 90.019882 109.093551 
L 90.019882 110.139257 
L 90.019882 111.184963 
L 90.019882 112.230668 
L 90.019882 113.276374 
L 90.019882 114.322079 
L 90.019882 115.367785 
L 90.019882 116.41349 
L 90.019882 117.459196 
L 90.019882 118.504902 
L 90.019882 119.550607 
L 90.019882 120.596313 
L 90.019882 121.642018 
L 90.019882 122.687724 
L 90.019882 123.733429 
L 90.019882 124.779135 
L 90.019882 125.824841 
L 90.019882 126.870546 
L 90.019882 127.916252 
L 90.019882 128.961957 
L 90.019882 130.007663 
L 90.019882 131.053368 
L 90.019882 132.099074 
L 90.019882 133.14478 
L 90.019882 134.190485 
L 90.019882 135.236191 
L 90.019882 136.281896 
L 90.019882 137.327602 
L 90.019882 138.373308 
L 90.019882 139.419013 
L 90.019882 140.464719 
L 90.019882 141.510424 
L 90.019882 142.55613 
L 90.019882 143.601835 
L 90.019882 144.647541 
L 90.019882 145.693247 
L 90.019882 146.738952 
L 90.019882 147.784658 
L 90.019882 148.830363 
L 90.019882 149.876069 
L 90.019882 150.921774 
L 90.019882 151.96748 
L 90.019882 153.013186 
L 90.019882 154.058891 
L 90.019882 155.104597 
L 90.019882 156.150302 
L 90.019882 157.196008 
L 90.019882 158.241713 
L 90.019882 159.287419 
L 90.019882 160.333125 
L 90.019882 161.37883 
L 90.019882 162.424536 
L 90.019882 163.470241 
L 90.019882 164.515947 
L 90.019882 165.561653 
L 90.019882 166.607358 
L 90.019882 167.653064 
L 90.019882 168.698769 
L 91.065587 168.698769 
z
M 156.729102 146.738952 
L 156.134391 145.693247 
L 155.899333 145.390095 
L 155.537811 144.647541 
L 154.885633 143.601835 
L 154.853627 143.558582 
L 154.258489 142.55613 
L 153.807922 141.899439 
L 153.575081 141.510424 
L 152.867818 140.464719 
L 152.762216 140.319529 
L 152.148042 139.419013 
L 151.716511 138.828731 
L 151.391227 138.373308 
L 150.670805 137.413311 
L 150.605655 137.327602 
L 149.801246 136.281896 
L 149.6251 136.051541 
L 148.967738 135.236191 
L 148.579394 134.74238 
L 148.105532 134.190485 
L 147.533688 133.487247 
L 147.217207 133.14478 
L 146.487983 132.280763 
L 146.304613 132.099074 
L 145.442277 131.117778 
L 145.369459 131.053368 
L 144.410127 130.007663 
L 144.396572 129.987121 
L 143.408053 128.961957 
L 143.350866 128.855337 
L 142.362625 127.916252 
L 142.30516 127.339824 
L 141.795444 126.870546 
L 142.30516 126.819246 
L 143.240943 125.824841 
L 143.350866 125.766407 
L 144.362873 124.779135 
L 144.396572 124.75633 
L 145.442277 123.783977 
L 145.486921 123.733429 
L 146.487983 122.836218 
L 146.633089 122.687724 
L 147.533688 121.904217 
L 147.808756 121.642018 
L 148.579394 120.987899 
L 149.01276 120.596313 
L 149.6251 120.086844 
L 150.243688 119.550607 
L 150.670805 119.200649 
L 151.499682 118.504902 
L 151.716511 118.329075 
L 152.762216 117.472761 
L 152.778988 117.459196 
L 153.807922 116.637084 
L 154.092451 116.41349 
L 154.853627 115.811559 
L 155.429904 115.367785 
L 155.899333 114.997215 
L 156.786049 114.322079 
L 156.945039 114.19553 
L 157.990744 113.406292 
L 158.175498 113.276374 
L 159.03645 112.625408 
L 159.599113 112.230668 
L 160.082155 111.855875 
L 161.026648 111.184963 
L 161.127861 111.102476 
L 162.173566 110.349875 
L 162.51401 110.139257 
L 163.219272 109.601265 
L 164.011949 109.093551 
L 164.264978 108.872771 
L 165.310683 108.15633 
L 165.557093 108.047846 
L 166.356389 107.377831 
L 167.241068 107.00214 
L 167.402094 106.477636 
L 167.627323 107.00214 
L 168.4478 107.605397 
L 168.587057 108.047846 
L 169.267716 109.093551 
L 169.493505 109.349283 
L 169.930169 110.139257 
L 170.539211 111.04241 
L 170.610145 111.184963 
L 171.23624 112.230668 
L 171.584917 112.753726 
L 171.869363 113.276374 
L 172.49325 114.322079 
L 172.630622 114.536539 
L 173.090885 115.367785 
L 173.676328 116.373463 
L 173.697097 116.41349 
L 174.267641 117.459196 
L 174.722033 118.268512 
L 174.844057 118.504902 
L 175.397257 119.550607 
L 175.767739 120.241999 
L 175.946896 120.596313 
L 176.47912 121.642018 
L 176.813445 122.29981 
L 177.004062 122.687724 
L 177.513422 123.733429 
L 177.85915 124.452467 
L 178.014882 124.779135 
L 178.500732 125.824841 
L 178.904856 126.711507 
L 178.978852 126.870546 
L 179.441687 127.916252 
L 179.89481 128.961957 
L 179.950561 129.102905 
L 180.336525 130.007663 
L 180.765623 131.053368 
L 180.996267 131.667639 
L 181.183772 132.099074 
L 181.594406 133.14478 
L 181.981323 134.190485 
L 182.041972 134.410996 
L 182.382766 135.236191 
L 182.773306 136.281896 
L 183.087406 137.327602 
L 182.041972 137.949875 
L 181.039658 138.373308 
L 180.996267 138.380843 
L 179.950561 138.712449 
L 178.904856 139.081801 
L 178.034343 139.419013 
L 177.85915 139.468868 
L 176.813445 139.826657 
L 175.767739 140.21017 
L 175.126764 140.464719 
L 174.722033 140.59877 
L 173.676328 140.978895 
L 172.630622 141.381675 
L 172.316199 141.510424 
L 171.584917 141.77702 
L 170.539211 142.181084 
L 169.615954 142.55613 
L 169.493505 142.602157 
L 168.4478 143.012065 
L 167.402094 143.442571 
L 167.021597 143.601835 
L 166.356389 143.873758 
L 165.310683 144.314237 
L 164.533723 144.647541 
L 164.264978 144.766439 
L 163.219272 145.223023 
L 162.173566 145.690645 
L 162.166911 145.693247 
L 161.127861 146.174165 
L 160.082155 146.656683 
L 159.843375 146.738952 
L 159.03645 147.191013 
L 157.990744 147.697863 
L 156.945039 147.55637 
L 156.729102 146.738952 
z
" clip-path="url(#p060f5fef9c)" style="fill: none"/>
   </g>
   <g id="matplotlib.axis_1">
    <g id="xtick_1">
     <g id="line2d_1">
      <defs>
       <path id="m659106976e" d="M 0 0 
L 0 3.5 
" style="stroke: #000000; stroke-width: 0.8"/>
      </defs>
      <g>
       <use xlink:href="#m659106976e" x="38.257456" y="168.698769" style="stroke: #000000; stroke-width: 0.8"/>
      </g>
     </g>
     <g id="text_1">
      <!-- −20 -->
      <g transform="translate(27.705112 183.297207) scale(0.1 -0.1)">
       <defs>
        <path id="DejaVuSans-2212" d="M 678 2272 
L 4684 2272 
L 4684 1741 
L 678 1741 
L 678 2272 
z
" transform="scale(0.015625)"/>
        <path id="DejaVuSans-32" d="M 1228 531 
L 3431 531 
L 3431 0 
L 469 0 
L 469 531 
Q 828 903 1448 1529 
Q 2069 2156 2228 2338 
Q 2531 2678 2651 2914 
Q 2772 3150 2772 3378 
Q 2772 3750 2511 3984 
Q 2250 4219 1831 4219 
Q 1534 4219 1204 4116 
Q 875 4013 500 3803 
L 500 4441 
Q 881 4594 1212 4672 
Q 1544 4750 1819 4750 
Q 2544 4750 2975 4387 
Q 3406 4025 3406 3419 
Q 3406 3131 3298 2873 
Q 3191 2616 2906 2266 
Q 2828 2175 2409 1742 
Q 1991 1309 1228 531 
z
" transform="scale(0.015625)"/>
        <path id="DejaVuSans-30" d="M 2034 4250 
Q 1547 4250 1301 3770 
Q 1056 3291 1056 2328 
Q 1056 1369 1301 889 
Q 1547 409 2034 409 
Q 2525 409 2770 889 
Q 3016 1369 3016 2328 
Q 3016 3291 2770 3770 
Q 2525 4250 2034 4250 
z
M 2034 4750 
Q 2819 4750 3233 4129 
Q 3647 3509 3647 2328 
Q 3647 1150 3233 529 
Q 2819 -91 2034 -91 
Q 1250 -91 836 529 
Q 422 1150 422 2328 
Q 422 3509 836 4129 
Q 1250 4750 2034 4750 
z
" transform="scale(0.015625)"/>
       </defs>
       <use xlink:href="#DejaVuSans-2212"/>
       <use xlink:href="#DejaVuSans-32" x="83.789062"/>
       <use xlink:href="#DejaVuSans-30" x="147.412109"/>
      </g>
     </g>
    </g>
    <g id="xtick_2">
     <g id="line2d_2">
      <g>
       <use xlink:href="#m659106976e" x="90.019882" y="168.698769" style="stroke: #000000; stroke-width: 0.8"/>
      </g>
     </g>
     <g id="text_2">
      <!-- −10 -->
      <g transform="translate(79.467538 183.297207) scale(0.1 -0.1)">
       <defs>
        <path id="DejaVuSans-31" d="M 794 531 
L 1825 531 
L 1825 4091 
L 703 3866 
L 703 4441 
L 1819 4666 
L 2450 4666 
L 2450 531 
L 3481 531 
L 3481 0 
L 794 0 
L 794 531 
z
" transform="scale(0.015625)"/>
       </defs>
       <use xlink:href="#DejaVuSans-2212"/>
       <use xlink:href="#DejaVuSans-31" x="83.789062"/>
       <use xlink:href="#DejaVuSans-30" x="147.412109"/>
      </g>
     </g>
    </g>
    <g id="xtick_3">
     <g id="line2d_3">
      <g>
       <use xlink:href="#m659106976e" x="141.782308" y="168.698769" style="stroke: #000000; stroke-width: 0.8"/>
      </g>
     </g>
    </g>
    <g id="xtick_4">
     <g id="line2d_4">
      <g>
       <use xlink:href="#m659106976e" x="193.544734" y="168.698769" style="stroke: #000000; stroke-width: 0.8"/>
      </g>
     </g>
     <g id="text_3">
      <!-- 10 -->
      <g transform="translate(187.182234 183.297207) scale(0.1 -0.1)">
       <use xlink:href="#DejaVuSans-31"/>
       <use xlink:href="#DejaVuSans-30" x="63.623047"/>
      </g>
     </g>
    </g>
    <g id="xtick_5">
     <g id="line2d_5">
      <g>
       <use xlink:href="#m659106976e" x="245.30716" y="168.698769" style="stroke: #000000; stroke-width: 0.8"/>
      </g>
     </g>
     <g id="text_4">
      <!-- 20 -->
      <g transform="translate(238.94466 183.297207) scale(0.1 -0.1)">
       <use xlink:href="#DejaVuSans-32"/>
       <use xlink:href="#DejaVuSans-30" x="63.623047"/>
      </g>
     </g>
    </g>
    <g id="xtick_6">
     <g id="line2d_6">
      <defs>
       <path id="m25f5e34fab" d="M 0 0 
L 0 2 
" style="stroke: #000000; stroke-width: 0.6"/>
      </defs>
      <g>
       <use xlink:href="#m25f5e34fab" x="17.552485" y="168.698769" style="stroke: #000000; stroke-width: 0.6"/>
      </g>
     </g>
    </g>
    <g id="xtick_7">
     <g id="line2d_7">
      <g>
       <use xlink:href="#m25f5e34fab" x="27.90497" y="168.698769" style="stroke: #000000; stroke-width: 0.6"/>
      </g>
     </g>
    </g>
    <g id="xtick_8">
     <g id="line2d_8">
      <g>
       <use xlink:href="#m25f5e34fab" x="48.609941" y="168.698769" style="stroke: #000000; stroke-width: 0.6"/>
      </g>
     </g>
    </g>
    <g id="xtick_9">
     <g id="line2d_9">
      <g>
       <use xlink:href="#m25f5e34fab" x="58.962426" y="168.698769" style="stroke: #000000; stroke-width: 0.6"/>
      </g>
     </g>
    </g>
    <g id="xtick_10">
     <g id="line2d_10">
      <g>
       <use xlink:href="#m25f5e34fab" x="69.314911" y="168.698769" style="stroke: #000000; stroke-width: 0.6"/>
      </g>
     </g>
    </g>
    <g id="xtick_11">
     <g id="line2d_11">
      <g>
       <use xlink:href="#m25f5e34fab" x="79.667396" y="168.698769" style="stroke: #000000; stroke-width: 0.6"/>
      </g>
     </g>
    </g>
    <g id="xtick_12">
     <g id="line2d_12">
      <g>
       <use xlink:href="#m25f5e34fab" x="100.372367" y="168.698769" style="stroke: #000000; stroke-width: 0.6"/>
      </g>
     </g>
    </g>
    <g id="xtick_13">
     <g id="line2d_13">
      <g>
       <use xlink:href="#m25f5e34fab" x="110.724852" y="168.698769" style="stroke: #000000; stroke-width: 0.6"/>
      </g>
     </g>
    </g>
    <g id="xtick_14">
     <g id="line2d_14">
      <g>
       <use xlink:href="#m25f5e34fab" x="121.077337" y="168.698769" style="stroke: #000000; stroke-width: 0.6"/>
      </g>
     </g>
    </g>
    <g id="xtick_15">
     <g id="line2d_15">
      <g>
       <use xlink:href="#m25f5e34fab" x="131.429822" y="168.698769" style="stroke: #000000; stroke-width: 0.6"/>
      </g>
     </g>
    </g>
    <g id="xtick_16">
     <g id="line2d_16">
      <g>
       <use xlink:href="#m25f5e34fab" x="152.134793" y="168.698769" style="stroke: #000000; stroke-width: 0.6"/>
      </g>
     </g>
    </g>
    <g id="xtick_17">
     <g id="line2d_17">
      <g>
       <use xlink:href="#m25f5e34fab" x="162.487278" y="168.698769" style="stroke: #000000; stroke-width: 0.6"/>
      </g>
     </g>
    </g>
    <g id="xtick_18">
     <g id="line2d_18">
      <g>
       <use xlink:href="#m25f5e34fab" x="172.839763" y="168.698769" style="stroke: #000000; stroke-width: 0.6"/>
      </g>
     </g>
    </g>
    <g id="xtick_19">
     <g id="line2d_19">
      <g>
       <use xlink:href="#m25f5e34fab" x="183.192249" y="168.698769" style="stroke: #000000; stroke-width: 0.6"/>
      </g>
     </g>
    </g>
    <g id="xtick_20">
     <g id="line2d_20">
      <g>
       <use xlink:href="#m25f5e34fab" x="203.897219" y="168.698769" style="stroke: #000000; stroke-width: 0.6"/>
      </g>
     </g>
    </g>
    <g id="xtick_21">
     <g id="line2d_21">
      <g>
       <use xlink:href="#m25f5e34fab" x="214.249704" y="168.698769" style="stroke: #000000; stroke-width: 0.6"/>
      </g>
     </g>
    </g>
    <g id="xtick_22">
     <g id="line2d_22">
      <g>
       <use xlink:href="#m25f5e34fab" x="224.602189" y="168.698769" style="stroke: #000000; stroke-width: 0.6"/>
      </g>
     </g>
    </g>
    <g id="xtick_23">
     <g id="line2d_23">
      <g>
       <use xlink:href="#m25f5e34fab" x="234.954675" y="168.698769" style="stroke: #000000; stroke-width: 0.6"/>
      </g>
     </g>
    </g>
    <g id="xtick_24">
     <g id="line2d_24">
      <g>
       <use xlink:href="#m25f5e34fab" x="255.659645" y="168.698769" style="stroke: #000000; stroke-width: 0.6"/>
      </g>
     </g>
    </g>
    <g id="xtick_25">
     <g id="line2d_25">
      <g>
       <use xlink:href="#m25f5e34fab" x="266.01213" y="168.698769" style="stroke: #000000; stroke-width: 0.6"/>
      </g>
     </g>
    </g>
    <g id="xtick_26">
     <g id="line2d_26">
      <g>
       <use xlink:href="#m25f5e34fab" x="276.364615" y="168.698769" style="stroke: #000000; stroke-width: 0.6"/>
      </g>
     </g>
    </g>
   </g>
   <g id="matplotlib.axis_2">
    <g id="ytick_1">
     <g id="line2d_27">
      <defs>
       <path id="mc0920692ee" d="M 0 0 
L -3.5 0 
" style="stroke: #000000; stroke-width: 0.8"/>
      </defs>
      <g>
       <use xlink:href="#mc0920692ee" x="141.782308" y="323.986047" style="stroke: #000000; stroke-width: 0.8"/>
      </g>
     </g>
     <g id="text_5">
      <!-- −30 -->
      <g transform="translate(113.67762 327.785266) scale(0.1 -0.1)">
       <defs>
        <path id="DejaVuSans-33" d="M 2597 2516 
Q 3050 2419 3304 2112 
Q 3559 1806 3559 1356 
Q 3559 666 3084 287 
Q 2609 -91 1734 -91 
Q 1441 -91 1130 -33 
Q 819 25 488 141 
L 488 750 
Q 750 597 1062 519 
Q 1375 441 1716 441 
Q 2309 441 2620 675 
Q 2931 909 2931 1356 
Q 2931 1769 2642 2001 
Q 2353 2234 1838 2234 
L 1294 2234 
L 1294 2753 
L 1863 2753 
Q 2328 2753 2575 2939 
Q 2822 3125 2822 3475 
Q 2822 3834 2567 4026 
Q 2313 4219 1838 4219 
Q 1578 4219 1281 4162 
Q 984 4106 628 3988 
L 628 4550 
Q 988 4650 1302 4700 
Q 1616 4750 1894 4750 
Q 2613 4750 3031 4423 
Q 3450 4097 3450 3541 
Q 3450 3153 3228 2886 
Q 3006 2619 2597 2516 
z
" transform="scale(0.015625)"/>
       </defs>
       <use xlink:href="#DejaVuSans-2212"/>
       <use xlink:href="#DejaVuSans-33" x="83.789062"/>
       <use xlink:href="#DejaVuSans-30" x="147.412109"/>
      </g>
     </g>
    </g>
    <g id="ytick_2">
     <g id="line2d_28">
      <g>
       <use xlink:href="#mc0920692ee" x="141.782308" y="272.223621" style="stroke: #000000; stroke-width: 0.8"/>
      </g>
     </g>
     <g id="text_6">
      <!-- −20 -->
      <g transform="translate(113.67762 276.02284) scale(0.1 -0.1)">
       <use xlink:href="#DejaVuSans-2212"/>
       <use xlink:href="#DejaVuSans-32" x="83.789062"/>
       <use xlink:href="#DejaVuSans-30" x="147.412109"/>
      </g>
     </g>
    </g>
    <g id="ytick_3">
     <g id="line2d_29">
      <g>
       <use xlink:href="#mc0920692ee" x="141.782308" y="220.461195" style="stroke: #000000; stroke-width: 0.8"/>
      </g>
     </g>
     <g id="text_7">
      <!-- −10 -->
      <g transform="translate(113.67762 224.260414) scale(0.1 -0.1)">
       <use xlink:href="#DejaVuSans-2212"/>
       <use xlink:href="#DejaVuSans-31" x="83.789062"/>
       <use xlink:href="#DejaVuSans-30" x="147.412109"/>
      </g>
     </g>
    </g>
    <g id="ytick_4">
     <g id="line2d_30">
      <g>
       <use xlink:href="#mc0920692ee" x="141.782308" y="168.698769" style="stroke: #000000; stroke-width: 0.8"/>
      </g>
     </g>
    </g>
    <g id="ytick_5">
     <g id="line2d_31">
      <g>
       <use xlink:href="#mc0920692ee" x="141.782308" y="116.936343" style="stroke: #000000; stroke-width: 0.8"/>
      </g>
     </g>
     <g id="text_8">
      <!-- 10 -->
      <g transform="translate(122.057308 120.735562) scale(0.1 -0.1)">
       <use xlink:href="#DejaVuSans-31"/>
       <use xlink:href="#DejaVuSans-30" x="63.623047"/>
      </g>
     </g>
    </g>
    <g id="ytick_6">
     <g id="line2d_32">
      <g>
       <use xlink:href="#mc0920692ee" x="141.782308" y="65.173917" style="stroke: #000000; stroke-width: 0.8"/>
      </g>
     </g>
     <g id="text_9">
      <!-- 20 -->
      <g transform="translate(122.057308 68.973136) scale(0.1 -0.1)">
       <use xlink:href="#DejaVuSans-32"/>
       <use xlink:href="#DejaVuSans-30" x="63.623047"/>
      </g>
     </g>
    </g>
    <g id="ytick_7">
     <g id="line2d_33">
      <g>
       <use xlink:href="#mc0920692ee" x="141.782308" y="13.411491" style="stroke: #000000; stroke-width: 0.8"/>
      </g>
     </g>
     <g id="text_10">
      <!-- 30 -->
      <g transform="translate(122.057308 17.21071) scale(0.1 -0.1)">
       <use xlink:href="#DejaVuSans-33"/>
       <use xlink:href="#DejaVuSans-30" x="63.623047"/>
      </g>
     </g>
    </g>
    <g id="ytick_8">
     <g id="line2d_34">
      <defs>
       <path id="m6f77335165" d="M 0 0 
L -2 0 
" style="stroke: #000000; stroke-width: 0.6"/>
      </defs>
      <g>
       <use xlink:href="#m6f77335165" x="141.782308" y="313.633562" style="stroke: #000000; stroke-width: 0.6"/>
      </g>
     </g>
    </g>
    <g id="ytick_9">
     <g id="line2d_35">
      <g>
       <use xlink:href="#m6f77335165" x="141.782308" y="303.281077" style="stroke: #000000; stroke-width: 0.6"/>
      </g>
     </g>
    </g>
    <g id="ytick_10">
     <g id="line2d_36">
      <g>
       <use xlink:href="#m6f77335165" x="141.782308" y="292.928592" style="stroke: #000000; stroke-width: 0.6"/>
      </g>
     </g>
    </g>
    <g id="ytick_11">
     <g id="line2d_37">
      <g>
       <use xlink:href="#m6f77335165" x="141.782308" y="282.576107" style="stroke: #000000; stroke-width: 0.6"/>
      </g>
     </g>
    </g>
    <g id="ytick_12">
     <g id="line2d_38">
      <g>
       <use xlink:href="#m6f77335165" x="141.782308" y="261.871136" style="stroke: #000000; stroke-width: 0.6"/>
      </g>
     </g>
    </g>
    <g id="ytick_13">
     <g id="line2d_39">
      <g>
       <use xlink:href="#m6f77335165" x="141.782308" y="251.518651" style="stroke: #000000; stroke-width: 0.6"/>
      </g>
     </g>
    </g>
    <g id="ytick_14">
     <g id="line2d_40">
      <g>
       <use xlink:href="#m6f77335165" x="141.782308" y="241.166166" style="stroke: #000000; stroke-width: 0.6"/>
      </g>
     </g>
    </g>
    <g id="ytick_15">
     <g id="line2d_41">
      <g>
       <use xlink:href="#m6f77335165" x="141.782308" y="230.81368" style="stroke: #000000; stroke-width: 0.6"/>
      </g>
     </g>
    </g>
    <g id="ytick_16">
     <g id="line2d_42">
      <g>
       <use xlink:href="#m6f77335165" x="141.782308" y="210.10871" style="stroke: #000000; stroke-width: 0.6"/>
      </g>
     </g>
    </g>
    <g id="ytick_17">
     <g id="line2d_43">
      <g>
       <use xlink:href="#m6f77335165" x="141.782308" y="199.756225" style="stroke: #000000; stroke-width: 0.6"/>
      </g>
     </g>
    </g>
    <g id="ytick_18">
     <g id="line2d_44">
      <g>
       <use xlink:href="#m6f77335165" x="141.782308" y="189.40374" style="stroke: #000000; stroke-width: 0.6"/>
      </g>
     </g>
    </g>
    <g id="ytick_19">
     <g id="line2d_45">
      <g>
       <use xlink:href="#m6f77335165" x="141.782308" y="179.051254" style="stroke: #000000; stroke-width: 0.6"/>
      </g>
     </g>
    </g>
    <g id="ytick_20">
     <g id="line2d_46">
      <g>
       <use xlink:href="#m6f77335165" x="141.782308" y="158.346284" style="stroke: #000000; stroke-width: 0.6"/>
      </g>
     </g>
    </g>
    <g id="ytick_21">
     <g id="line2d_47">
      <g>
       <use xlink:href="#m6f77335165" x="141.782308" y="147.993799" style="stroke: #000000; stroke-width: 0.6"/>
      </g>
     </g>
    </g>
    <g id="ytick_22">
     <g id="line2d_48">
      <g>
       <use xlink:href="#m6f77335165" x="141.782308" y="137.641314" style="stroke: #000000; stroke-width: 0.6"/>
      </g>
     </g>
    </g>
    <g id="ytick_23">
     <g id="line2d_49">
      <g>
       <use xlink:href="#m6f77335165" x="141.782308" y="127.288828" style="stroke: #000000; stroke-width: 0.6"/>
      </g>
     </g>
    </g>
    <g id="ytick_24">
     <g id="line2d_50">
      <g>
       <use xlink:href="#m6f77335165" x="141.782308" y="106.583858" style="stroke: #000000; stroke-width: 0.6"/>
      </g>
     </g>
    </g>
    <g id="ytick_25">
     <g id="line2d_51">
      <g>
       <use xlink:href="#m6f77335165" x="141.782308" y="96.231373" style="stroke: #000000; stroke-width: 0.6"/>
      </g>
     </g>
    </g>
    <g id="ytick_26">
     <g id="line2d_52">
      <g>
       <use xlink:href="#m6f77335165" x="141.782308" y="85.878888" style="stroke: #000000; stroke-width: 0.6"/>
      </g>
     </g>
    </g>
    <g id="ytick_27">
     <g id="line2d_53">
      <g>
       <use xlink:href="#m6f77335165" x="141.782308" y="75.526402" style="stroke: #000000; stroke-width: 0.6"/>
      </g>
     </g>
    </g>
    <g id="ytick_28">
     <g id="line2d_54">
      <g>
       <use xlink:href="#m6f77335165" x="141.782308" y="54.821432" style="stroke: #000000; stroke-width: 0.6"/>
      </g>
     </g>
    </g>
    <g id="ytick_29">
     <g id="line2d_55">
      <g>
       <use xlink:href="#m6f77335165" x="141.782308" y="44.468947" style="stroke: #000000; stroke-width: 0.6"/>
      </g>
     </g>
    </g>
    <g id="ytick_30">
     <g id="line2d_56">
      <g>
       <use xlink:href="#m6f77335165" x="141.782308" y="34.116462" style="stroke: #000000; stroke-width: 0.6"/>
      </g>
     </g>
    </g>
    <g id="ytick_31">
     <g id="line2d_57">
      <g>
       <use xlink:href="#m6f77335165" x="141.782308" y="23.763976" style="stroke: #000000; stroke-width: 0.6"/>
      </g>
     </g>
    </g>
   </g>
   <g id="PathCollection_5">
    <path d="M 156.945039 147.55637 
L 156.729102 146.738952 
L 156.134391 145.693247 
L 155.899333 145.390095 
L 155.537811 144.647541 
L 154.885633 143.601835 
L 154.853627 143.558582 
L 154.258489 142.55613 
L 153.807922 141.899439 
L 153.575081 141.510424 
L 152.867818 140.464719 
L 152.762216 140.319529 
L 152.148042 139.419013 
L 151.716511 138.828731 
L 151.391227 138.373308 
L 150.670805 137.413311 
L 150.605655 137.327602 
L 149.801246 136.281896 
L 149.6251 136.051541 
L 148.967738 135.236191 
L 148.579394 134.74238 
L 148.105532 134.190485 
L 147.533688 133.487247 
L 147.217207 133.14478 
L 146.487983 132.280763 
L 146.304613 132.099074 
L 145.442277 131.117778 
L 145.369459 131.053368 
L 144.410127 130.007663 
L 144.396572 129.987121 
L 143.408053 128.961957 
L 143.350866 128.855337 
L 142.362625 127.916252 
L 142.30516 127.339824 
L 141.795444 126.870546 
L 142.30516 126.819246 
L 143.240943 125.824841 
L 143.350866 125.766407 
L 144.362873 124.779135 
L 144.396572 124.75633 
L 145.442277 123.783977 
L 145.486921 123.733429 
L 146.487983 122.836218 
L 146.633089 122.687724 
L 147.533688 121.904217 
L 147.808756 121.642018 
L 148.579394 120.987899 
L 149.01276 120.596313 
L 149.6251 120.086844 
L 150.243688 119.550607 
L 150.670805 119.200649 
L 151.499682 118.504902 
L 151.716511 118.329075 
L 152.762216 117.472761 
L 152.778988 117.459196 
L 153.807922 116.637084 
L 154.092451 116.41349 
L 154.853627 115.811559 
L 155.429904 115.367785 
L 155.899333 114.997215 
L 156.786049 114.322079 
L 156.945039 114.19553 
L 157.990744 113.406292 
L 158.175498 113.276374 
L 159.03645 112.625408 
L 159.599113 112.230668 
L 160.082155 111.855875 
L 161.026648 111.184963 
L 161.127861 111.102476 
L 162.173566 110.349875 
L 162.51401 110.139257 
L 163.219272 109.601265 
L 164.011949 109.093551 
L 164.264978 108.872771 
L 165.310683 108.15633 
L 165.557093 108.047846 
L 166.356389 107.377831 
L 167.241068 107.00214 
L 167.402094 106.477636 
L 167.627323 107.00214 
L 168.4478 107.605397 
L 168.587057 108.047846 
L 169.267716 109.093551 
L 169.493505 109.349283 
L 169.930169 110.139257 
L 170.539211 111.04241 
L 170.610145 111.184963 
L 171.23624 112.230668 
L 171.584917 112.753726 
L 171.869363 113.276374 
L 172.49325 114.322079 
L 172.630622 114.536539 
L 173.090885 115.367785 
L 173.676328 116.373463 
L 173.697097 116.41349 
L 174.267641 117.459196 
L 174.722033 118.268512 
L 174.844057 118.504902 
L 175.397257 119.550607 
L 175.767739 120.241999 
L 175.946896 120.596313 
L 176.47912 121.642018 
L 176.813445 122.29981 
L 177.004062 122.687724 
L 177.513422 123.733429 
L 177.85915 124.452467 
L 178.014882 124.779135 
L 178.500732 125.824841 
L 178.904856 126.711507 
L 178.978852 126.870546 
L 179.441687 127.916252 
L 179.89481 128.961957 
L 179.950561 129.102905 
L 180.336525 130.007663 
L 180.765623 131.053368 
L 180.996267 131.667639 
L 181.183772 132.099074 
L 181.594406 133.14478 
L 181.981323 134.190485 
L 182.041972 134.410996 
L 182.382766 135.236191 
L 182.773306 136.281896 
L 183.087406 137.327602 
L 182.041972 137.949875 
L 181.039658 138.373308 
L 180.996267 138.380843 
L 179.950561 138.712449 
L 178.904856 139.081801 
L 178.034343 139.419013 
L 177.85915 139.468868 
L 176.813445 139.826657 
L 175.767739 140.21017 
L 175.126764 140.464719 
L 174.722033 140.59877 
L 173.676328 140.978895 
L 172.630622 141.381675 
L 172.316199 141.510424 
L 171.584917 141.77702 
L 170.539211 142.181084 
L 169.615954 142.55613 
L 169.493505 142.602157 
L 168.4478 143.012065 
L 167.402094 143.442571 
L 167.021597 143.601835 
L 166.356389 143.873758 
L 165.310683 144.314237 
L 164.533723 144.647541 
L 164.264978 144.766439 
L 163.219272 145.223023 
L 162.173566 145.690645 
L 162.166911 145.693247 
L 161.127861 146.174165 
L 160.082155 146.656683 
L 159.843375 146.738952 
L 159.03645 147.191013 
L 157.990744 147.697863 
L 156.945039 147.55637 
z
" clip-path="url(#p060f5fef9c)" style="fill: none; stroke: #add8e6; stroke-width: 1.5"/>
   </g>
   <g id="PathCollection_6">
    <path d="M 156.945039 147.55637 
L 156.729102 146.738952 
L 156.134391 145.693247 
L 155.899333 145.390095 
L 155.537811 144.647541 
L 154.885633 143.601835 
L 154.853627 143.558582 
L 154.258489 142.55613 
L 153.807922 141.899439 
L 153.575081 141.510424 
L 152.867818 140.464719 
L 152.762216 140.319529 
L 152.148042 139.419013 
L 151.716511 138.828731 
L 151.391227 138.373308 
L 150.670805 137.413311 
L 150.605655 137.327602 
L 149.801246 136.281896 
L 149.6251 136.051541 
L 148.967738 135.236191 
L 148.579394 134.74238 
L 148.105532 134.190485 
L 147.533688 133.487247 
L 147.217207 133.14478 
L 146.487983 132.280763 
L 146.304613 132.099074 
L 145.442277 131.117778 
L 145.369459 131.053368 
L 144.410127 130.007663 
L 144.396572 129.987121 
L 143.408053 128.961957 
L 143.350866 128.855337 
L 142.362625 127.916252 
L 142.30516 127.339824 
L 141.795444 126.870546 
L 142.30516 126.819246 
L 143.240943 125.824841 
L 143.350866 125.766407 
L 144.362873 124.779135 
L 144.396572 124.75633 
L 145.442277 123.783977 
L 145.486921 123.733429 
L 146.487983 122.836218 
L 146.633089 122.687724 
L 147.533688 121.904217 
L 147.808756 121.642018 
L 148.579394 120.987899 
L 149.01276 120.596313 
L 149.6251 120.086844 
L 150.243688 119.550607 
L 150.670805 119.200649 
L 151.499682 118.504902 
L 151.716511 118.329075 
L 152.762216 117.472761 
L 152.778988 117.459196 
L 153.807922 116.637084 
L 154.092451 116.41349 
L 154.853627 115.811559 
L 155.429904 115.367785 
L 155.899333 114.997215 
L 156.786049 114.322079 
L 156.945039 114.19553 
L 157.990744 113.406292 
L 158.175498 113.276374 
L 159.03645 112.625408 
L 159.599113 112.230668 
L 160.082155 111.855875 
L 161.026648 111.184963 
L 161.127861 111.102476 
L 162.173566 110.349875 
L 162.51401 110.139257 
L 163.219272 109.601265 
L 164.011949 109.093551 
L 164.264978 108.872771 
L 165.310683 108.15633 
L 165.557093 108.047846 
L 166.356389 107.377831 
L 167.241068 107.00214 
L 167.402094 106.477636 
L 167.627323 107.00214 
L 168.4478 107.605397 
L 168.587057 108.047846 
L 169.267716 109.093551 
L 169.493505 109.349283 
L 169.930169 110.139257 
L 170.539211 111.04241 
L 170.610145 111.184963 
L 171.23624 112.230668 
L 171.584917 112.753726 
L 171.869363 113.276374 
L 172.49325 114.322079 
L 172.630622 114.536539 
L 173.090885 115.367785 
L 173.676328 116.373463 
L 173.697097 116.41349 
L 174.267641 117.459196 
L 174.722033 118.268512 
L 174.844057 118.504902 
L 175.397257 119.550607 
L 175.767739 120.241999 
L 175.946896 120.596313 
L 176.47912 121.642018 
L 176.813445 122.29981 
L 177.004062 122.687724 
L 177.513422 123.733429 
L 177.85915 124.452467 
L 178.014882 124.779135 
L 178.500732 125.824841 
L 178.904856 126.711507 
L 178.978852 126.870546 
L 179.441687 127.916252 
L 179.89481 128.961957 
L 179.950561 129.102905 
L 180.336525 130.007663 
L 180.765623 131.053368 
L 180.996267 131.667639 
L 181.183772 132.099074 
L 181.594406 133.14478 
L 181.981323 134.190485 
L 182.041972 134.410996 
L 182.382766 135.236191 
L 182.773306 136.281896 
L 183.087406 137.327602 
L 182.041972 137.949875 
L 181.039658 138.373308 
L 180.996267 138.380843 
L 179.950561 138.712449 
L 178.904856 139.081801 
L 178.034343 139.419013 
L 177.85915 139.468868 
L 176.813445 139.826657 
L 175.767739 140.21017 
L 175.126764 140.464719 
L 174.722033 140.59877 
L 173.676328 140.978895 
L 172.630622 141.381675 
L 172.316199 141.510424 
L 171.584917 141.77702 
L 170.539211 142.181084 
L 169.615954 142.55613 
L 169.493505 142.602157 
L 168.4478 143.012065 
L 167.402094 143.442571 
L 167.021597 143.601835 
L 166.356389 143.873758 
L 165.310683 144.314237 
L 164.533723 144.647541 
L 164.264978 144.766439 
L 163.219272 145.223023 
L 162.173566 145.690645 
L 162.166911 145.693247 
L 161.127861 146.174165 
L 160.082155 146.656683 
L 159.843375 146.738952 
L 159.03645 147.191013 
L 157.990744 147.697863 
L 156.945039 147.55637 
z
" clip-path="url(#p060f5fef9c)" style="fill: none; stroke: #ffffff; stroke-width: 1.5"/>
   </g>
   <g id="PathCollection_7">
    <path d="M 156.945039 147.55637 
L 156.729102 146.738952 
L 156.134391 145.693247 
L 155.899333 145.390095 
L 155.537811 144.647541 
L 154.885633 143.601835 
L 154.853627 143.558582 
L 154.258489 142.55613 
L 153.807922 141.899439 
L 153.575081 141.510424 
L 152.867818 140.464719 
L 152.762216 140.319529 
L 152.148042 139.419013 
L 151.716511 138.828731 
L 151.391227 138.373308 
L 150.670805 137.413311 
L 150.605655 137.327602 
L 149.801246 136.281896 
L 149.6251 136.051541 
L 148.967738 135.236191 
L 148.579394 134.74238 
L 148.105532 134.190485 
L 147.533688 133.487247 
L 147.217207 133.14478 
L 146.487983 132.280763 
L 146.304613 132.099074 
L 145.442277 131.117778 
L 145.369459 131.053368 
L 144.410127 130.007663 
L 144.396572 129.987121 
L 143.408053 128.961957 
L 143.350866 128.855337 
L 142.362625 127.916252 
L 142.30516 127.339824 
L 141.795444 126.870546 
L 142.30516 126.819246 
L 143.240943 125.824841 
L 143.350866 125.766407 
L 144.362873 124.779135 
L 144.396572 124.75633 
L 145.442277 123.783977 
L 145.486921 123.733429 
L 146.487983 122.836218 
L 146.633089 122.687724 
L 147.533688 121.904217 
L 147.808756 121.642018 
L 148.579394 120.987899 
L 149.01276 120.596313 
L 149.6251 120.086844 
L 150.243688 119.550607 
L 150.670805 119.200649 
L 151.499682 118.504902 
L 151.716511 118.329075 
L 152.762216 117.472761 
L 152.778988 117.459196 
L 153.807922 116.637084 
L 154.092451 116.41349 
L 154.853627 115.811559 
L 155.429904 115.367785 
L 155.899333 114.997215 
L 156.786049 114.322079 
L 156.945039 114.19553 
L 157.990744 113.406292 
L 158.175498 113.276374 
L 159.03645 112.625408 
L 159.599113 112.230668 
L 160.082155 111.855875 
L 161.026648 111.184963 
L 161.127861 111.102476 
L 162.173566 110.349875 
L 162.51401 110.139257 
L 163.219272 109.601265 
L 164.011949 109.093551 
L 164.264978 108.872771 
L 165.310683 108.15633 
L 165.557093 108.047846 
L 166.356389 107.377831 
L 167.241068 107.00214 
L 167.402094 106.477636 
L 167.627323 107.00214 
L 168.4478 107.605397 
L 168.587057 108.047846 
L 169.267716 109.093551 
L 169.493505 109.349283 
L 169.930169 110.139257 
L 170.539211 111.04241 
L 170.610145 111.184963 
L 171.23624 112.230668 
L 171.584917 112.753726 
L 171.869363 113.276374 
L 172.49325 114.322079 
L 172.630622 114.536539 
L 173.090885 115.367785 
L 173.676328 116.373463 
L 173.697097 116.41349 
L 174.267641 117.459196 
L 174.722033 118.268512 
L 174.844057 118.504902 
L 175.397257 119.550607 
L 175.767739 120.241999 
L 175.946896 120.596313 
L 176.47912 121.642018 
L 176.813445 122.29981 
L 177.004062 122.687724 
L 177.513422 123.733429 
L 177.85915 124.452467 
L 178.014882 124.779135 
L 178.500732 125.824841 
L 178.904856 126.711507 
L 178.978852 126.870546 
L 179.441687 127.916252 
L 179.89481 128.961957 
L 179.950561 129.102905 
L 180.336525 130.007663 
L 180.765623 131.053368 
L 180.996267 131.667639 
L 181.183772 132.099074 
L 181.594406 133.14478 
L 181.981323 134.190485 
L 182.041972 134.410996 
L 182.382766 135.236191 
L 182.773306 136.281896 
L 183.087406 137.327602 
L 182.041972 137.949875 
L 181.039658 138.373308 
L 180.996267 138.380843 
L 179.950561 138.712449 
L 178.904856 139.081801 
L 178.034343 139.419013 
L 177.85915 139.468868 
L 176.813445 139.826657 
L 175.767739 140.21017 
L 175.126764 140.464719 
L 174.722033 140.59877 
L 173.676328 140.978895 
L 172.630622 141.381675 
L 172.316199 141.510424 
L 171.584917 141.77702 
L 170.539211 142.181084 
L 169.615954 142.55613 
L 169.493505 142.602157 
L 168.4478 143.012065 
L 167.402094 143.442571 
L 167.021597 143.601835 
L 166.356389 143.873758 
L 165.310683 144.314237 
L 164.533723 144.647541 
L 164.264978 144.766439 
L 163.219272 145.223023 
L 162.173566 145.690645 
L 162.166911 145.693247 
L 161.127861 146.174165 
L 160.082155 146.656683 
L 159.843375 146.738952 
L 159.03645 147.191013 
L 157.990744 147.697863 
L 156.945039 147.55637 
z
" clip-path="url(#p060f5fef9c)" style="fill: none; stroke: #ffffff; stroke-width: 1.5"/>
   </g>
   <g id="line2d_58">
    <path d="M 12.376243 168.698769 
L 141.781377 168.698769 
L 12.376243 168.698769 
" clip-path="url(#p060f5fef9c)" style="fill: none; stroke: #0000ff; stroke-linecap: square"/>
   </g>
   <g id="line2d_59">
    <path d="M 17.552485 220.461195 
L 34.417576 216.970475 
L 48.8223 213.775461 
L 62.944402 210.406208 
L 75.413634 207.186889 
L 86.080126 204.202093 
L 95.707797 201.273995 
L 103.325644 198.755683 
L 110.581878 196.142857 
L 116.602626 193.769041 
L 122.547409 191.180583 
L 126.835628 189.110641 
L 131.252248 186.732031 
L 134.744215 184.601519 
L 137.727993 182.523328 
L 140.080427 180.632391 
L 142.078961 178.750225 
L 143.594114 177.04506 
L 144.904632 175.219989 
L 145.853823 173.481377 
L 146.454717 171.928607 
L 146.780766 170.617367 
L 146.949347 169.135295 
L 146.892935 167.533192 
L 146.628476 166.084541 
L 146.152725 164.614092 
L 145.431517 163.075854 
L 144.361763 161.366211 
L 143.141142 159.808363 
L 141.510545 158.077997 
L 139.799652 156.52401 
L 137.458631 154.67395 
L 134.310766 152.51631 
L 130.760488 150.385375 
L 126.688833 148.212581 
L 121.69365 145.827193 
L 116.128442 143.433448 
L 109.824502 140.970456 
L 102.525153 138.367396 
L 94.082711 135.611117 
L 84.55243 132.752742 
L 73.925105 129.812328 
L 62.45809 126.870794 
L 49.338909 123.74088 
L 35.179181 120.590677 
L 19.591465 117.345758 
L 17.552485 116.936343 
L 17.552485 116.936343 
" clip-path="url(#p060f5fef9c)" style="fill: none; stroke: #0000ff; stroke-linecap: square"/>
   </g>
   <g id="line2d_60">
    <path d="M 33.081213 272.223621 
L 45.876908 266.972148 
L 57.618258 261.893404 
L 68.404116 256.970828 
L 77.487092 252.601721 
L 86.663153 247.943612 
L 95.458804 243.205751 
L 102.125017 239.403757 
L 109.781712 234.767436 
L 116.450195 230.446529 
L 121.446633 226.999553 
L 127.403134 222.602987 
L 132.406068 218.611916 
L 137.036119 214.610227 
L 140.470602 211.400274 
L 143.966661 207.863489 
L 147.217272 204.260829 
L 150.054831 200.786988 
L 152.631562 197.268845 
L 154.910029 193.749655 
L 156.72688 190.540827 
L 158.261257 187.407017 
L 159.531683 184.344281 
L 160.67042 180.96547 
L 161.482773 177.81979 
L 162.006167 175.011104 
L 162.366685 171.859068 
L 162.487121 168.812871 
L 162.396659 165.959226 
L 162.090866 162.968952 
L 161.485569 159.590451 
L 160.650766 156.365899 
L 159.645987 153.358775 
L 158.243045 149.950253 
L 156.844571 147.080991 
L 155.121385 143.999732 
L 153.166439 140.914767 
L 150.741666 137.509505 
L 147.814776 133.839411 
L 144.707444 130.325292 
L 141.537674 127.044913 
L 137.567177 123.268825 
L 133.260343 119.499467 
L 128.782392 115.86474 
L 123.743166 112.052651 
L 117.911548 107.938941 
L 111.243499 103.552751 
L 104.562571 99.436099 
L 97.620285 95.402953 
L 89.074771 90.724317 
L 80.472151 86.282247 
L 70.712366 81.516274 
L 60.953273 76.997983 
L 49.5328 71.978158 
L 37.626106 67.008123 
L 33.081213 65.173917 
L 33.081213 65.173917 
" clip-path="url(#p060f5fef9c)" style="fill: none; stroke: #0000ff; stroke-linecap: square"/>
   </g>
   <g id="line2d_61">
    <path d="M 58.962426 323.986047 
L 67.775319 318.605082 
L 78.04164 312.082268 
L 87.441771 305.837979 
L 95.77576 300.05389 
L 104.410649 293.779151 
L 112.331881 287.73247 
L 119.495102 281.986868 
L 125.829067 276.651964 
L 131.726889 271.435639 
L 137.832051 265.741025 
L 143.063067 260.581451 
L 148.638852 254.741834 
L 153.497563 249.309028 
L 157.869093 244.087112 
L 161.958169 238.851635 
L 165.721276 233.661753 
L 168.921622 228.896955 
L 172.250781 223.502514 
L 174.907142 218.783213 
L 177.136841 214.447636 
L 179.508687 209.330997 
L 181.433691 204.646835 
L 183.31874 199.374404 
L 184.620326 195.126988 
L 185.883048 190.21967 
L 186.728046 186.182713 
L 187.548007 181.063756 
L 188.027706 176.667681 
L 188.309021 172.027713 
L 188.359483 167.403148 
L 188.21365 163.327186 
L 187.865024 159.01278 
L 187.248955 154.255099 
L 186.375951 149.429637 
L 185.343153 144.955228 
L 184.250228 140.996485 
L 182.527235 135.706537 
L 180.574633 130.589132 
L 178.609289 126.054004 
L 176.348619 121.371823 
L 173.608782 116.25457 
L 170.644241 111.228597 
L 167.429185 106.233343 
L 164.024662 101.346379 
L 160.411497 96.520943 
L 156.971482 92.209114 
L 152.259 86.669423 
L 147.662004 81.60434 
L 142.772411 76.521823 
L 136.778533 70.650225 
L 130.571101 64.919006 
L 124.242061 59.38444 
L 117.062737 53.42756 
L 109.655635 47.58838 
L 102.87064 42.476448 
L 93.83795 35.976245 
L 85.514434 30.256319 
L 77.300177 24.834265 
L 68.262525 19.09558 
L 58.962426 13.411491 
L 58.962426 13.411491 
" clip-path="url(#p060f5fef9c)" style="fill: none; stroke: #0000ff; stroke-linecap: square"/>
   </g>
   <g id="line2d_62">
    <path d="M 271.188373 168.698769 
L 141.782639 168.698769 
L 271.188373 168.698769 
" clip-path="url(#p060f5fef9c)" style="fill: none; stroke: #ff0000; stroke-linecap: square"/>
   </g>
   <g id="line2d_63">
    <path d="M 266.01213 220.461195 
L 249.411724 217.027206 
L 233.819737 213.563078 
L 220.392097 210.349547 
L 208.857231 207.376389 
L 198.210241 204.413089 
L 188.3272 201.423142 
L 180.21864 198.748679 
L 172.84486 196.090797 
L 166.74491 193.679239 
L 160.685857 191.027481 
L 155.631285 188.546102 
L 151.733364 186.396517 
L 148.256475 184.230073 
L 145.267977 182.09073 
L 142.785791 180.010314 
L 140.813858 178.032698 
L 139.425359 176.339018 
L 138.40229 174.797193 
L 137.493362 172.984963 
L 136.970644 171.44624 
L 136.665064 169.804019 
L 136.613887 168.296337 
L 136.806962 166.659266 
L 137.188984 165.224677 
L 137.823512 163.678093 
L 138.799394 161.959867 
L 139.922971 160.411644 
L 141.300692 158.839656 
L 143.083589 157.117883 
L 145.088092 155.446595 
L 147.764199 153.499137 
L 150.72412 151.601579 
L 154.254326 149.583154 
L 158.827707 147.248864 
L 163.567091 145.071936 
L 169.660435 142.537925 
L 176.227185 140.056945 
L 184.459039 137.221882 
L 193.359787 134.419269 
L 203.227175 131.558655 
L 214.061672 128.652346 
L 225.989541 125.679213 
L 239.466106 122.549944 
L 254.273979 119.339771 
L 266.01213 116.936343 
L 266.01213 116.936343 
" clip-path="url(#p060f5fef9c)" style="fill: none; stroke: #ff0000; stroke-linecap: square"/>
   </g>
   <g id="line2d_64">
    <path d="M 250.483402 272.223621 
L 238.638849 267.372122 
L 228.049508 262.823275 
L 218.016263 258.300501 
L 207.41243 253.257992 
L 198.87169 248.966565 
L 190.868674 244.725805 
L 183.666299 240.696063 
L 176.401913 236.389055 
L 169.791696 232.21662 
L 163.835799 228.207178 
L 158.134398 224.097879 
L 152.840802 219.988597 
L 148.013875 215.930971 
L 144.275654 212.531198 
L 140.572796 208.880999 
L 137.071632 205.09445 
L 133.822398 201.187912 
L 131.408933 197.950463 
L 129.111525 194.493934 
L 127.123118 191.075338 
L 125.562043 187.971102 
L 124.232287 184.863316 
L 123.036193 181.435811 
L 122.309178 178.799308 
L 121.642094 175.537853 
L 121.253413 172.517482 
L 121.090504 169.743029 
L 121.12846 166.641098 
L 121.389888 163.610997 
L 121.923896 160.325485 
L 122.745988 156.943029 
L 123.80803 153.660297 
L 125.178621 150.268689 
L 126.79114 146.945231 
L 128.503078 143.899597 
L 130.45067 140.836639 
L 132.624961 137.773491 
L 135.569459 134.05435 
L 138.373632 130.85069 
L 141.790672 127.280465 
L 145.881643 123.374497 
L 150.306424 119.497656 
L 154.644634 115.972689 
L 159.749696 112.105129 
L 165.386023 108.121215 
L 171.379951 104.153773 
L 178.34747 99.828561 
L 186.164504 95.278667 
L 194.879937 90.517425 
L 203.827028 85.913991 
L 213.774304 81.079412 
L 224.426857 76.181771 
L 234.98307 71.571743 
L 246.305925 66.858616 
L 250.483402 65.173917 
L 250.483402 65.173917 
" clip-path="url(#p060f5fef9c)" style="fill: none; stroke: #ff0000; stroke-linecap: square"/>
   </g>
   <g id="line2d_65">
    <path d="M 224.602189 323.986047 
L 214.467696 317.781395 
L 204.891934 311.671621 
L 196.701382 306.230475 
L 187.229878 299.656798 
L 179.971994 294.387022 
L 172.937722 289.059632 
L 165.942225 283.516727 
L 158.390904 277.216115 
L 152.010811 271.59249 
L 145.85888 265.862228 
L 140.148093 260.222332 
L 134.916788 254.732115 
L 130.519173 249.829923 
L 125.95648 244.408942 
L 121.601044 238.844458 
L 118.030254 233.929283 
L 114.948949 229.368653 
L 111.516585 223.846135 
L 108.660924 218.789632 
L 106.082361 213.738672 
L 103.966073 209.124427 
L 101.989017 204.27713 
L 100.344148 199.671452 
L 98.908205 194.999469 
L 97.729542 190.426381 
L 96.766505 185.805262 
L 96.083074 181.554833 
L 95.526244 176.541993 
L 95.238096 171.495427 
L 95.213315 166.908981 
L 95.387233 162.731175 
L 95.793763 158.145722 
L 96.509659 153.053633 
L 97.391976 148.470438 
L 98.565305 143.64225 
L 99.896492 139.103352 
L 101.531397 134.339714 
L 103.594804 129.138059 
L 105.872385 124.095349 
L 107.961304 119.926605 
L 110.934068 114.544518 
L 113.899124 109.663139 
L 117.104261 104.804592 
L 120.778933 99.653699 
L 124.576118 94.70683 
L 128.777504 89.59306 
L 133.213686 84.530055 
L 137.558926 79.850106 
L 142.581908 74.730204 
L 148.657147 68.888048 
L 153.67551 64.308513 
L 160.257002 58.590858 
L 166.523759 53.409875 
L 173.127477 48.191105 
L 181.400699 41.955846 
L 190.228198 35.62463 
L 199.621942 29.202528 
L 208.287976 23.529658 
L 218.143385 17.336375 
L 224.602189 13.411491 
L 224.602189 13.411491 
" clip-path="url(#p060f5fef9c)" style="fill: none; stroke: #ff0000; stroke-linecap: square"/>
   </g>
   <g id="patch_3">
    <path d="M 141.782308 330.197538 
L 141.782308 7.2 
" style="fill: none; stroke: #000000; stroke-width: 0.8; stroke-linejoin: miter; stroke-linecap: square"/>
   </g>
   <g id="patch_4">
    <path d="M 7.2 168.698769 
L 276.364615 168.698769 
" style="fill: none; stroke: #000000; stroke-width: 0.8; stroke-linejoin: miter; stroke-linecap: square"/>
   </g>
  </g>
 </g>
 <defs>
  <clipPath id="p060f5fef9c">
   <rect x="7.2" y="7.2" width="269.164615" height="322.997538"/>
  </clipPath>
 </defs>
</svg>
