<?xml version="1.0" encoding="utf-8" standalone="no"?>
<!DOCTYPE svg PUBLIC "-//W3C//DTD SVG 1.1//EN"
  "http://www.w3.org/Graphics/SVG/1.1/DTD/svg11.dtd">
<svg xmlns:xlink="http://www.w3.org/1999/xlink" width="243.825289pt" height="338.4pt" viewBox="0 0 243.825289 338.4" xmlns="http://www.w3.org/2000/svg" version="1.1">
 <metadata>
  <rdf:RDF xmlns:dc="http://purl.org/dc/elements/1.1/" xmlns:cc="http://creativecommons.org/ns#" xmlns:rdf="http://www.w3.org/1999/02/22-rdf-syntax-ns#">
   <cc:Work>
    <dc:type rdf:resource="http://purl.org/dc/dcmitype/StillImage"/>
    <dc:date>2025-01-22T15:42:49.789487</dc:date>
    <dc:format>image/svg+xml</dc:format>
    <dc:creator>
     <cc:Agent>
      <dc:title>Matplotlib v3.6.2, https://matplotlib.org/</dc:title>
     </cc:Agent>
    </dc:creator>
   </cc:Work>
  </rdf:RDF>
 </metadata>
 <defs>
  <style type="text/css">*{stroke-linejoin: round; stroke-linecap: butt}</style>
 </defs>
 <g id="figure_1">
  <g id="patch_1">
   <path d="M 0 338.4 
L 243.825289 338.4 
L 243.825289 0 
L 0 0 
z
" style="fill: #ffffff"/>
  </g>
  <g id="axes_1">
   <g id="patch_2">
    <path d="M 7.2 331.2 
L 236.625289 331.2 
L 236.625289 7.2 
L 7.2 7.2 
z
" style="fill: #ffffff"/>
   </g>
   <g id="PathCollection_1">
    <path d="M 87.08503 151.020895 
L 87.936825 151.329011 
L 88.043389 150.995335 
L 88.728715 150.037065 
L 88.788621 149.984343 
L 89.327243 149.078795 
L 89.640417 148.6781 
L 89.951964 148.120524 
L 90.492213 147.326318 
L 90.582568 147.162254 
L 91.196468 146.203984 
L 91.344009 145.994595 
L 91.808333 145.245714 
L 92.195804 144.666603 
L 92.427614 144.287443 
L 93.0476 143.333963 
L 93.050525 143.329173 
L 93.66028 142.370903 
L 93.899396 142.006847 
L 94.275505 141.412633 
L 94.751192 140.679073 
L 94.893891 140.454362 
L 95.510224 139.496092 
L 95.602988 139.351752 
L 96.124059 138.537822 
L 96.454783 138.021584 
L 96.740324 137.579551 
L 97.306579 136.69876 
L 97.357387 136.621281 
L 97.972269 135.663011 
L 98.158375 135.366497 
L 98.588073 134.704741 
L 99.010171 134.038737 
L 99.204073 133.74647 
L 99.819121 132.7882 
L 99.861967 132.717705 
L 100.436039 131.82993 
L 100.713762 131.380015 
L 101.052577 130.871659 
L 101.565558 130.059187 
L 101.666687 129.913389 
L 102.282928 128.955119 
L 102.417354 128.726478 
L 102.902353 127.996849 
L 103.26915 127.391581 
L 103.518442 127.038578 
L 104.120946 126.087278 
L 104.126314 126.080308 
L 104.753157 125.122038 
L 104.972741 124.719399 
L 105.378572 124.163768 
L 105.824537 123.39286 
L 105.993531 123.205497 
L 106.605567 122.247227 
L 106.676333 121.983089 
L 107.39561 121.288957 
L 106.676333 120.669328 
L 106.459952 120.330686 
L 105.824537 120.0599 
L 104.972741 119.52974 
L 104.770745 119.372416 
L 104.120946 119.05533 
L 103.26915 118.580537 
L 103.001845 118.414146 
L 102.417354 118.141194 
L 101.565558 117.713776 
L 101.075608 117.455876 
L 100.713762 117.300941 
L 99.861967 116.916808 
L 99.010171 116.53046 
L 98.94007 116.497605 
L 98.158375 116.182888 
L 97.306579 115.840883 
L 96.547219 115.539335 
L 96.454783 115.506919 
L 95.602988 115.204969 
L 94.751192 114.909626 
L 93.899396 114.622506 
L 93.774569 114.581065 
L 93.0476 114.361991 
L 92.195804 114.113446 
L 91.344009 113.87477 
L 90.492213 113.646762 
L 90.399146 113.622795 
L 89.640417 113.442089 
L 88.788621 113.249637 
L 87.936825 113.068402 
L 87.08503 112.898816 
L 86.233234 112.741237 
L 85.784721 112.664524 
L 85.381438 112.599739 
L 84.529642 112.474229 
L 83.677846 112.360688 
L 82.826051 112.259319 
L 81.974255 112.170291 
L 81.122459 112.093745 
L 80.270663 112.029794 
L 79.418867 111.97853 
L 78.567072 111.940024 
L 77.715276 111.914331 
L 76.86348 111.901485 
L 76.011684 111.901508 
L 75.159888 111.914402 
L 74.308093 111.940155 
L 73.456297 111.978734 
L 72.604501 112.030089 
L 71.752705 112.094143 
L 70.900909 112.170795 
L 70.049114 112.259908 
L 69.197318 112.361305 
L 68.345522 112.474761 
L 67.493726 112.599984 
L 67.085334 112.664524 
L 66.64193 112.741587 
L 65.790135 112.899834 
L 64.938339 113.069963 
L 64.086543 113.251405 
L 63.234747 113.443414 
L 62.473025 113.622795 
L 62.382951 113.647028 
L 61.531156 113.877256 
L 60.67936 114.117246 
L 59.827564 114.365192 
L 59.094101 114.581065 
L 58.975768 114.62352 
L 58.123972 114.916421 
L 57.272177 115.213533 
L 56.420381 115.508488 
L 56.314944 115.539335 
L 55.568585 115.857874 
L 54.716789 116.207538 
L 53.914806 116.497605 
L 53.864993 116.540508 
L 53.013198 117.134084 
L 52.50903 117.455876 
L 53.013198 117.785613 
L 53.165884 118.414146 
L 53.609976 119.372416 
L 53.864993 119.81208 
L 54.059153 120.330686 
L 54.500053 121.288957 
L 54.716789 121.702203 
L 54.941244 122.247227 
L 55.381831 123.205497 
L 55.568585 123.576214 
L 55.821016 124.163768 
L 56.261316 125.122038 
L 56.420381 125.445089 
L 56.699938 126.080308 
L 57.139817 127.038578 
L 57.272177 127.311663 
L 57.578468 127.996849 
L 58.017779 128.955119 
L 58.123972 129.176978 
L 58.456803 129.913389 
L 58.895387 130.871659 
L 58.975768 131.041481 
L 59.335043 131.82993 
L 59.772722 132.7882 
L 59.827564 132.905356 
L 60.213257 133.74647 
L 60.649809 134.704741 
L 60.67936 134.768632 
L 61.091502 135.663011 
L 61.526638 136.621281 
L 61.531156 136.631188 
L 61.969841 137.579551 
L 62.382951 138.49219 
L 62.404211 138.537822 
L 62.848362 139.496092 
L 63.234747 140.354228 
L 63.282291 140.454362 
L 63.727219 141.412633 
L 64.086543 142.218062 
L 64.160864 142.370903 
L 64.606722 143.329173 
L 64.938339 144.084835 
L 65.04034 144.287443 
L 65.487661 145.245714 
L 65.790135 145.957901 
L 65.92201 146.203984 
L 66.372818 147.162254 
L 66.64193 147.851426 
L 66.81292 148.120524 
L 67.284517 149.078795 
L 67.493726 149.990736 
L 68.345522 149.814496 
L 69.197318 149.440282 
L 70.049114 149.11465 
L 70.138771 149.078795 
L 70.900909 148.865884 
L 71.752705 148.650411 
L 72.604501 148.471449 
L 73.456297 148.330472 
L 74.308093 148.226613 
L 75.159888 148.158442 
L 76.011684 148.12472 
L 76.86348 148.124715 
L 77.715276 148.158315 
L 78.567072 148.226021 
L 79.418867 148.328846 
L 80.270663 148.468106 
L 81.122459 148.645021 
L 81.974255 148.86002 
L 82.723774 149.078795 
L 82.826051 149.112232 
L 83.677846 149.40943 
L 84.529642 149.746375 
L 85.241196 150.037065 
L 85.381438 150.120396 
L 86.233234 150.582116 
L 87.073658 150.995335 
z
" clip-path="url(#p0431613159)" style="fill: #add8e6"/>
   </g>
   <g id="PathCollection_2">
    <path d="M 87.08503 151.020895 
L 87.936825 151.329011 
L 88.043389 150.995335 
L 88.728715 150.037065 
L 88.788621 149.984343 
L 89.327243 149.078795 
L 89.640417 148.6781 
L 89.951964 148.120524 
L 90.492213 147.326318 
L 90.582568 147.162254 
L 91.196468 146.203984 
L 91.344009 145.994595 
L 91.808333 145.245714 
L 92.195804 144.666603 
L 92.427614 144.287443 
L 93.0476 143.333963 
L 93.050525 143.329173 
L 93.66028 142.370903 
L 93.899396 142.006847 
L 94.275505 141.412633 
L 94.751192 140.679073 
L 94.893891 140.454362 
L 95.510224 139.496092 
L 95.602988 139.351752 
L 96.124059 138.537822 
L 96.454783 138.021584 
L 96.740324 137.579551 
L 97.306579 136.69876 
L 97.357387 136.621281 
L 97.972269 135.663011 
L 98.158375 135.366497 
L 98.588073 134.704741 
L 99.010171 134.038737 
L 99.204073 133.74647 
L 99.819121 132.7882 
L 99.861967 132.717705 
L 100.436039 131.82993 
L 100.713762 131.380015 
L 101.052577 130.871659 
L 101.565558 130.059187 
L 101.666687 129.913389 
L 102.282928 128.955119 
L 102.417354 128.726478 
L 102.902353 127.996849 
L 103.26915 127.391581 
L 103.518442 127.038578 
L 104.120946 126.087278 
L 104.126314 126.080308 
L 104.753157 125.122038 
L 104.972741 124.719399 
L 105.378572 124.163768 
L 105.824537 123.39286 
L 105.993531 123.205497 
L 106.605567 122.247227 
L 106.676333 121.983089 
L 107.39561 121.288957 
L 106.676333 120.669328 
L 106.459952 120.330686 
L 105.824537 120.0599 
L 104.972741 119.52974 
L 104.770745 119.372416 
L 104.120946 119.05533 
L 103.26915 118.580537 
L 103.001845 118.414146 
L 102.417354 118.141194 
L 101.565558 117.713776 
L 101.075608 117.455876 
L 100.713762 117.300941 
L 99.861967 116.916808 
L 99.010171 116.53046 
L 98.94007 116.497605 
L 98.158375 116.182888 
L 97.306579 115.840883 
L 96.547219 115.539335 
L 96.454783 115.506919 
L 95.602988 115.204969 
L 94.751192 114.909626 
L 93.899396 114.622506 
L 93.774569 114.581065 
L 93.0476 114.361991 
L 92.195804 114.113446 
L 91.344009 113.87477 
L 90.492213 113.646762 
L 90.399146 113.622795 
L 89.640417 113.442089 
L 88.788621 113.249637 
L 87.936825 113.068402 
L 87.08503 112.898816 
L 86.233234 112.741237 
L 85.784721 112.664524 
L 85.381438 112.599739 
L 84.529642 112.474229 
L 83.677846 112.360688 
L 82.826051 112.259319 
L 81.974255 112.170291 
L 81.122459 112.093745 
L 80.270663 112.029794 
L 79.418867 111.97853 
L 78.567072 111.940024 
L 77.715276 111.914331 
L 76.86348 111.901485 
L 76.011684 111.901508 
L 75.159888 111.914402 
L 74.308093 111.940155 
L 73.456297 111.978734 
L 72.604501 112.030089 
L 71.752705 112.094143 
L 70.900909 112.170795 
L 70.049114 112.259908 
L 69.197318 112.361305 
L 68.345522 112.474761 
L 67.493726 112.599984 
L 67.085334 112.664524 
L 66.64193 112.741587 
L 65.790135 112.899834 
L 64.938339 113.069963 
L 64.086543 113.251405 
L 63.234747 113.443414 
L 62.473025 113.622795 
L 62.382951 113.647028 
L 61.531156 113.877256 
L 60.67936 114.117246 
L 59.827564 114.365192 
L 59.094101 114.581065 
L 58.975768 114.62352 
L 58.123972 114.916421 
L 57.272177 115.213533 
L 56.420381 115.508488 
L 56.314944 115.539335 
L 55.568585 115.857874 
L 54.716789 116.207538 
L 53.914806 116.497605 
L 53.864993 116.540508 
L 53.013198 117.134084 
L 52.50903 117.455876 
L 53.013198 117.785613 
L 53.165884 118.414146 
L 53.609976 119.372416 
L 53.864993 119.81208 
L 54.059153 120.330686 
L 54.500053 121.288957 
L 54.716789 121.702203 
L 54.941244 122.247227 
L 55.381831 123.205497 
L 55.568585 123.576214 
L 55.821016 124.163768 
L 56.261316 125.122038 
L 56.420381 125.445089 
L 56.699938 126.080308 
L 57.139817 127.038578 
L 57.272177 127.311663 
L 57.578468 127.996849 
L 58.017779 128.955119 
L 58.123972 129.176978 
L 58.456803 129.913389 
L 58.895387 130.871659 
L 58.975768 131.041481 
L 59.335043 131.82993 
L 59.772722 132.7882 
L 59.827564 132.905356 
L 60.213257 133.74647 
L 60.649809 134.704741 
L 60.67936 134.768632 
L 61.091502 135.663011 
L 61.526638 136.621281 
L 61.531156 136.631188 
L 61.969841 137.579551 
L 62.382951 138.49219 
L 62.404211 138.537822 
L 62.848362 139.496092 
L 63.234747 140.354228 
L 63.282291 140.454362 
L 63.727219 141.412633 
L 64.086543 142.218062 
L 64.160864 142.370903 
L 64.606722 143.329173 
L 64.938339 144.084835 
L 65.04034 144.287443 
L 65.487661 145.245714 
L 65.790135 145.957901 
L 65.92201 146.203984 
L 66.372818 147.162254 
L 66.64193 147.851426 
L 66.81292 148.120524 
L 67.284517 149.078795 
L 67.493726 149.990736 
L 68.345522 149.814496 
L 69.197318 149.440282 
L 70.049114 149.11465 
L 70.138771 149.078795 
L 70.900909 148.865884 
L 71.752705 148.650411 
L 72.604501 148.471449 
L 73.456297 148.330472 
L 74.308093 148.226613 
L 75.159888 148.158442 
L 76.011684 148.12472 
L 76.86348 148.124715 
L 77.715276 148.158315 
L 78.567072 148.226021 
L 79.418867 148.328846 
L 80.270663 148.468106 
L 81.122459 148.645021 
L 81.974255 148.86002 
L 82.723774 149.078795 
L 82.826051 149.112232 
L 83.677846 149.40943 
L 84.529642 149.746375 
L 85.241196 150.037065 
L 85.381438 150.120396 
L 86.233234 150.582116 
L 87.073658 150.995335 
z
M 87.073658 150.995335 
L 86.233234 150.582116 
L 85.381438 150.120396 
L 85.241196 150.037065 
L 84.529642 149.746375 
L 83.677846 149.40943 
L 82.826051 149.112232 
L 82.723774 149.078795 
L 81.974255 148.86002 
L 81.122459 148.645021 
L 80.270663 148.468106 
L 79.418867 148.328846 
L 78.567072 148.226021 
L 77.715276 148.158315 
L 76.86348 148.124715 
L 76.011684 148.12472 
L 75.159888 148.158442 
L 74.308093 148.226613 
L 73.456297 148.330472 
L 72.604501 148.471449 
L 71.752705 148.650411 
L 70.900909 148.865884 
L 70.138771 149.078795 
L 70.049114 149.11465 
L 69.197318 149.440282 
L 68.345522 149.814496 
L 67.493726 149.990736 
L 67.284517 149.078795 
L 66.81292 148.120524 
L 66.64193 147.851426 
L 66.372818 147.162254 
L 65.92201 146.203984 
L 65.790135 145.957901 
L 65.487661 145.245714 
L 65.04034 144.287443 
L 64.938339 144.084835 
L 64.606722 143.329173 
L 64.160864 142.370903 
L 64.086543 142.218062 
L 63.727219 141.412633 
L 63.282291 140.454362 
L 63.234747 140.354228 
L 62.848362 139.496092 
L 62.404211 138.537822 
L 62.382951 138.49219 
L 61.969841 137.579551 
L 61.531156 136.631188 
L 61.526638 136.621281 
L 61.091502 135.663011 
L 60.67936 134.768632 
L 60.649809 134.704741 
L 60.213257 133.74647 
L 59.827564 132.905356 
L 59.772722 132.7882 
L 59.335043 131.82993 
L 58.975768 131.041481 
L 58.895387 130.871659 
L 58.456803 129.913389 
L 58.123972 129.176978 
L 58.017779 128.955119 
L 57.578468 127.996849 
L 57.272177 127.311663 
L 57.139817 127.038578 
L 56.699938 126.080308 
L 56.420381 125.445089 
L 56.261316 125.122038 
L 55.821016 124.163768 
L 55.568585 123.576214 
L 55.381831 123.205497 
L 54.941244 122.247227 
L 54.716789 121.702203 
L 54.500053 121.288957 
L 54.059153 120.330686 
L 53.864993 119.81208 
L 53.609976 119.372416 
L 53.165884 118.414146 
L 53.013198 117.785613 
L 52.50903 117.455876 
L 53.013198 117.134084 
L 53.864993 116.540508 
L 53.914806 116.497605 
L 54.716789 116.207538 
L 55.568585 115.857874 
L 56.314944 115.539335 
L 56.420381 115.508488 
L 57.272177 115.213533 
L 58.123972 114.916421 
L 58.975768 114.62352 
L 59.094101 114.581065 
L 59.827564 114.365192 
L 60.67936 114.117246 
L 61.531156 113.877256 
L 62.382951 113.647028 
L 62.473025 113.622795 
L 63.234747 113.443414 
L 64.086543 113.251405 
L 64.938339 113.069963 
L 65.790135 112.899834 
L 66.64193 112.741587 
L 67.085334 112.664524 
L 67.493726 112.599984 
L 68.345522 112.474761 
L 69.197318 112.361305 
L 70.049114 112.259908 
L 70.900909 112.170795 
L 71.752705 112.094143 
L 72.604501 112.030089 
L 73.456297 111.978734 
L 74.308093 111.940155 
L 75.159888 111.914402 
L 76.011684 111.901508 
L 76.86348 111.901485 
L 77.715276 111.914331 
L 78.567072 111.940024 
L 79.418867 111.97853 
L 80.270663 112.029794 
L 81.122459 112.093745 
L 81.974255 112.170291 
L 82.826051 112.259319 
L 83.677846 112.360688 
L 84.529642 112.474229 
L 85.381438 112.599739 
L 85.784721 112.664524 
L 86.233234 112.741237 
L 87.08503 112.898816 
L 87.936825 113.068402 
L 88.788621 113.249637 
L 89.640417 113.442089 
L 90.399146 113.622795 
L 90.492213 113.646762 
L 91.344009 113.87477 
L 92.195804 114.113446 
L 93.0476 114.361991 
L 93.774569 114.581065 
L 93.899396 114.622506 
L 94.751192 114.909626 
L 95.602988 115.204969 
L 96.454783 115.506919 
L 96.547219 115.539335 
L 97.306579 115.840883 
L 98.158375 116.182888 
L 98.94007 116.497605 
L 99.010171 116.53046 
L 99.861967 116.916808 
L 100.713762 117.300941 
L 101.075608 117.455876 
L 101.565558 117.713776 
L 102.417354 118.141194 
L 103.001845 118.414146 
L 103.26915 118.580537 
L 104.120946 119.05533 
L 104.770745 119.372416 
L 104.972741 119.52974 
L 105.824537 120.0599 
L 106.459952 120.330686 
L 106.676333 120.669328 
L 107.39561 121.288957 
L 106.676333 121.983089 
L 106.605567 122.247227 
L 105.993531 123.205497 
L 105.824537 123.39286 
L 105.378572 124.163768 
L 104.972741 124.719399 
L 104.753157 125.122038 
L 104.126314 126.080308 
L 104.120946 126.087278 
L 103.518442 127.038578 
L 103.26915 127.391581 
L 102.902353 127.996849 
L 102.417354 128.726478 
L 102.282928 128.955119 
L 101.666687 129.913389 
L 101.565558 130.059187 
L 101.052577 130.871659 
L 100.713762 131.380015 
L 100.436039 131.82993 
L 99.861967 132.717705 
L 99.819121 132.7882 
L 99.204073 133.74647 
L 99.010171 134.038737 
L 98.588073 134.704741 
L 98.158375 135.366497 
L 97.972269 135.663011 
L 97.357387 136.621281 
L 97.306579 136.69876 
L 96.740324 137.579551 
L 96.454783 138.021584 
L 96.124059 138.537822 
L 95.602988 139.351752 
L 95.510224 139.496092 
L 94.893891 140.454362 
L 94.751192 140.679073 
L 94.275505 141.412633 
L 93.899396 142.006847 
L 93.66028 142.370903 
L 93.050525 143.329173 
L 93.0476 143.333963 
L 92.427614 144.287443 
L 92.195804 144.666603 
L 91.808333 145.245714 
L 91.344009 145.994595 
L 91.196468 146.203984 
L 90.582568 147.162254 
L 90.492213 147.326318 
L 89.951964 148.120524 
L 89.640417 148.6781 
L 89.327243 149.078795 
L 88.788621 149.984343 
L 88.728715 150.037065 
L 88.043389 150.995335 
L 87.936825 151.329011 
L 87.08503 151.020895 
z
" clip-path="url(#p0431613159)" style="fill: #add8e6"/>
   </g>
   <g id="PathCollection_3">
    <path d="M 87.08503 151.020895 
L 87.936825 151.329011 
L 88.043389 150.995335 
L 88.728715 150.037065 
L 88.788621 149.984343 
L 89.327243 149.078795 
L 89.640417 148.6781 
L 89.951964 148.120524 
L 90.492213 147.326318 
L 90.582568 147.162254 
L 91.196468 146.203984 
L 91.344009 145.994595 
L 91.808333 145.245714 
L 92.195804 144.666603 
L 92.427614 144.287443 
L 93.0476 143.333963 
L 93.050525 143.329173 
L 93.66028 142.370903 
L 93.899396 142.006847 
L 94.275505 141.412633 
L 94.751192 140.679073 
L 94.893891 140.454362 
L 95.510224 139.496092 
L 95.602988 139.351752 
L 96.124059 138.537822 
L 96.454783 138.021584 
L 96.740324 137.579551 
L 97.306579 136.69876 
L 97.357387 136.621281 
L 97.972269 135.663011 
L 98.158375 135.366497 
L 98.588073 134.704741 
L 99.010171 134.038737 
L 99.204073 133.74647 
L 99.819121 132.7882 
L 99.861967 132.717705 
L 100.436039 131.82993 
L 100.713762 131.380015 
L 101.052577 130.871659 
L 101.565558 130.059187 
L 101.666687 129.913389 
L 102.282928 128.955119 
L 102.417354 128.726478 
L 102.902353 127.996849 
L 103.26915 127.391581 
L 103.518442 127.038578 
L 104.120946 126.087278 
L 104.126314 126.080308 
L 104.753157 125.122038 
L 104.972741 124.719399 
L 105.378572 124.163768 
L 105.824537 123.39286 
L 105.993531 123.205497 
L 106.605567 122.247227 
L 106.676333 121.983089 
L 107.39561 121.288957 
L 106.676333 120.669328 
L 106.459952 120.330686 
L 105.824537 120.0599 
L 104.972741 119.52974 
L 104.770745 119.372416 
L 104.120946 119.05533 
L 103.26915 118.580537 
L 103.001845 118.414146 
L 102.417354 118.141194 
L 101.565558 117.713776 
L 101.075608 117.455876 
L 100.713762 117.300941 
L 99.861967 116.916808 
L 99.010171 116.53046 
L 98.94007 116.497605 
L 98.158375 116.182888 
L 97.306579 115.840883 
L 96.547219 115.539335 
L 96.454783 115.506919 
L 95.602988 115.204969 
L 94.751192 114.909626 
L 93.899396 114.622506 
L 93.774569 114.581065 
L 93.0476 114.361991 
L 92.195804 114.113446 
L 91.344009 113.87477 
L 90.492213 113.646762 
L 90.399146 113.622795 
L 89.640417 113.442089 
L 88.788621 113.249637 
L 87.936825 113.068402 
L 87.08503 112.898816 
L 86.233234 112.741237 
L 85.784721 112.664524 
L 85.381438 112.599739 
L 84.529642 112.474229 
L 83.677846 112.360688 
L 82.826051 112.259319 
L 81.974255 112.170291 
L 81.122459 112.093745 
L 80.270663 112.029794 
L 79.418867 111.97853 
L 78.567072 111.940024 
L 77.715276 111.914331 
L 76.86348 111.901485 
L 76.011684 111.901508 
L 75.159888 111.914402 
L 74.308093 111.940155 
L 73.456297 111.978734 
L 72.604501 112.030089 
L 71.752705 112.094143 
L 70.900909 112.170795 
L 70.049114 112.259908 
L 69.197318 112.361305 
L 68.345522 112.474761 
L 67.493726 112.599984 
L 67.085334 112.664524 
L 66.64193 112.741587 
L 65.790135 112.899834 
L 64.938339 113.069963 
L 64.086543 113.251405 
L 63.234747 113.443414 
L 62.473025 113.622795 
L 62.382951 113.647028 
L 61.531156 113.877256 
L 60.67936 114.117246 
L 59.827564 114.365192 
L 59.094101 114.581065 
L 58.975768 114.62352 
L 58.123972 114.916421 
L 57.272177 115.213533 
L 56.420381 115.508488 
L 56.314944 115.539335 
L 55.568585 115.857874 
L 54.716789 116.207538 
L 53.914806 116.497605 
L 53.864993 116.540508 
L 53.013198 117.134084 
L 52.50903 117.455876 
L 53.013198 117.785613 
L 53.165884 118.414146 
L 53.609976 119.372416 
L 53.864993 119.81208 
L 54.059153 120.330686 
L 54.500053 121.288957 
L 54.716789 121.702203 
L 54.941244 122.247227 
L 55.381831 123.205497 
L 55.568585 123.576214 
L 55.821016 124.163768 
L 56.261316 125.122038 
L 56.420381 125.445089 
L 56.699938 126.080308 
L 57.139817 127.038578 
L 57.272177 127.311663 
L 57.578468 127.996849 
L 58.017779 128.955119 
L 58.123972 129.176978 
L 58.456803 129.913389 
L 58.895387 130.871659 
L 58.975768 131.041481 
L 59.335043 131.82993 
L 59.772722 132.7882 
L 59.827564 132.905356 
L 60.213257 133.74647 
L 60.649809 134.704741 
L 60.67936 134.768632 
L 61.091502 135.663011 
L 61.526638 136.621281 
L 61.531156 136.631188 
L 61.969841 137.579551 
L 62.382951 138.49219 
L 62.404211 138.537822 
L 62.848362 139.496092 
L 63.234747 140.354228 
L 63.282291 140.454362 
L 63.727219 141.412633 
L 64.086543 142.218062 
L 64.160864 142.370903 
L 64.606722 143.329173 
L 64.938339 144.084835 
L 65.04034 144.287443 
L 65.487661 145.245714 
L 65.790135 145.957901 
L 65.92201 146.203984 
L 66.372818 147.162254 
L 66.64193 147.851426 
L 66.81292 148.120524 
L 67.284517 149.078795 
L 67.493726 149.990736 
L 68.345522 149.814496 
L 69.197318 149.440282 
L 70.049114 149.11465 
L 70.138771 149.078795 
L 70.900909 148.865884 
L 71.752705 148.650411 
L 72.604501 148.471449 
L 73.456297 148.330472 
L 74.308093 148.226613 
L 75.159888 148.158442 
L 76.011684 148.12472 
L 76.86348 148.124715 
L 77.715276 148.158315 
L 78.567072 148.226021 
L 79.418867 148.328846 
L 80.270663 148.468106 
L 81.122459 148.645021 
L 81.974255 148.86002 
L 82.723774 149.078795 
L 82.826051 149.112232 
L 83.677846 149.40943 
L 84.529642 149.746375 
L 85.241196 150.037065 
L 85.381438 150.120396 
L 86.233234 150.582116 
L 87.073658 150.995335 
z
M 87.073658 150.995335 
L 86.233234 150.582116 
L 85.381438 150.120396 
L 85.241196 150.037065 
L 84.529642 149.746375 
L 83.677846 149.40943 
L 82.826051 149.112232 
L 82.723774 149.078795 
L 81.974255 148.86002 
L 81.122459 148.645021 
L 80.270663 148.468106 
L 79.418867 148.328846 
L 78.567072 148.226021 
L 77.715276 148.158315 
L 76.86348 148.124715 
L 76.011684 148.12472 
L 75.159888 148.158442 
L 74.308093 148.226613 
L 73.456297 148.330472 
L 72.604501 148.471449 
L 71.752705 148.650411 
L 70.900909 148.865884 
L 70.138771 149.078795 
L 70.049114 149.11465 
L 69.197318 149.440282 
L 68.345522 149.814496 
L 67.493726 149.990736 
L 67.284517 149.078795 
L 66.81292 148.120524 
L 66.64193 147.851426 
L 66.372818 147.162254 
L 65.92201 146.203984 
L 65.790135 145.957901 
L 65.487661 145.245714 
L 65.04034 144.287443 
L 64.938339 144.084835 
L 64.606722 143.329173 
L 64.160864 142.370903 
L 64.086543 142.218062 
L 63.727219 141.412633 
L 63.282291 140.454362 
L 63.234747 140.354228 
L 62.848362 139.496092 
L 62.404211 138.537822 
L 62.382951 138.49219 
L 61.969841 137.579551 
L 61.531156 136.631188 
L 61.526638 136.621281 
L 61.091502 135.663011 
L 60.67936 134.768632 
L 60.649809 134.704741 
L 60.213257 133.74647 
L 59.827564 132.905356 
L 59.772722 132.7882 
L 59.335043 131.82993 
L 58.975768 131.041481 
L 58.895387 130.871659 
L 58.456803 129.913389 
L 58.123972 129.176978 
L 58.017779 128.955119 
L 57.578468 127.996849 
L 57.272177 127.311663 
L 57.139817 127.038578 
L 56.699938 126.080308 
L 56.420381 125.445089 
L 56.261316 125.122038 
L 55.821016 124.163768 
L 55.568585 123.576214 
L 55.381831 123.205497 
L 54.941244 122.247227 
L 54.716789 121.702203 
L 54.500053 121.288957 
L 54.059153 120.330686 
L 53.864993 119.81208 
L 53.609976 119.372416 
L 53.165884 118.414146 
L 53.013198 117.785613 
L 52.50903 117.455876 
L 53.013198 117.134084 
L 53.864993 116.540508 
L 53.914806 116.497605 
L 54.716789 116.207538 
L 55.568585 115.857874 
L 56.314944 115.539335 
L 56.420381 115.508488 
L 57.272177 115.213533 
L 58.123972 114.916421 
L 58.975768 114.62352 
L 59.094101 114.581065 
L 59.827564 114.365192 
L 60.67936 114.117246 
L 61.531156 113.877256 
L 62.382951 113.647028 
L 62.473025 113.622795 
L 63.234747 113.443414 
L 64.086543 113.251405 
L 64.938339 113.069963 
L 65.790135 112.899834 
L 66.64193 112.741587 
L 67.085334 112.664524 
L 67.493726 112.599984 
L 68.345522 112.474761 
L 69.197318 112.361305 
L 70.049114 112.259908 
L 70.900909 112.170795 
L 71.752705 112.094143 
L 72.604501 112.030089 
L 73.456297 111.978734 
L 74.308093 111.940155 
L 75.159888 111.914402 
L 76.011684 111.901508 
L 76.86348 111.901485 
L 77.715276 111.914331 
L 78.567072 111.940024 
L 79.418867 111.97853 
L 80.270663 112.029794 
L 81.122459 112.093745 
L 81.974255 112.170291 
L 82.826051 112.259319 
L 83.677846 112.360688 
L 84.529642 112.474229 
L 85.381438 112.599739 
L 85.784721 112.664524 
L 86.233234 112.741237 
L 87.08503 112.898816 
L 87.936825 113.068402 
L 88.788621 113.249637 
L 89.640417 113.442089 
L 90.399146 113.622795 
L 90.492213 113.646762 
L 91.344009 113.87477 
L 92.195804 114.113446 
L 93.0476 114.361991 
L 93.774569 114.581065 
L 93.899396 114.622506 
L 94.751192 114.909626 
L 95.602988 115.204969 
L 96.454783 115.506919 
L 96.547219 115.539335 
L 97.306579 115.840883 
L 98.158375 116.182888 
L 98.94007 116.497605 
L 99.010171 116.53046 
L 99.861967 116.916808 
L 100.713762 117.300941 
L 101.075608 117.455876 
L 101.565558 117.713776 
L 102.417354 118.141194 
L 103.001845 118.414146 
L 103.26915 118.580537 
L 104.120946 119.05533 
L 104.770745 119.372416 
L 104.972741 119.52974 
L 105.824537 120.0599 
L 106.459952 120.330686 
L 106.676333 120.669328 
L 107.39561 121.288957 
L 106.676333 121.983089 
L 106.605567 122.247227 
L 105.993531 123.205497 
L 105.824537 123.39286 
L 105.378572 124.163768 
L 104.972741 124.719399 
L 104.753157 125.122038 
L 104.126314 126.080308 
L 104.120946 126.087278 
L 103.518442 127.038578 
L 103.26915 127.391581 
L 102.902353 127.996849 
L 102.417354 128.726478 
L 102.282928 128.955119 
L 101.666687 129.913389 
L 101.565558 130.059187 
L 101.052577 130.871659 
L 100.713762 131.380015 
L 100.436039 131.82993 
L 99.861967 132.717705 
L 99.819121 132.7882 
L 99.204073 133.74647 
L 99.010171 134.038737 
L 98.588073 134.704741 
L 98.158375 135.366497 
L 97.972269 135.663011 
L 97.357387 136.621281 
L 97.306579 136.69876 
L 96.740324 137.579551 
L 96.454783 138.021584 
L 96.124059 138.537822 
L 95.602988 139.351752 
L 95.510224 139.496092 
L 94.893891 140.454362 
L 94.751192 140.679073 
L 94.275505 141.412633 
L 93.899396 142.006847 
L 93.66028 142.370903 
L 93.050525 143.329173 
L 93.0476 143.333963 
L 92.427614 144.287443 
L 92.195804 144.666603 
L 91.808333 145.245714 
L 91.344009 145.994595 
L 91.196468 146.203984 
L 90.582568 147.162254 
L 90.492213 147.326318 
L 89.951964 148.120524 
L 89.640417 148.6781 
L 89.327243 149.078795 
L 88.788621 149.984343 
L 88.728715 150.037065 
L 88.043389 150.995335 
L 87.936825 151.329011 
L 87.08503 151.020895 
z
" clip-path="url(#p0431613159)" style="fill: #ffffff"/>
   </g>
   <g id="PathCollection_4">
    <path d="M 35.125486 158.661497 
L 35.977282 158.661497 
L 36.829077 158.661497 
L 37.680873 158.661497 
L 38.532669 158.661497 
L 39.384465 158.661497 
L 40.236261 158.661497 
L 41.088056 158.661497 
L 41.939852 158.661497 
L 42.791648 158.661497 
L 43.643444 158.661497 
L 44.49524 158.661497 
L 45.347035 158.661497 
L 46.198831 158.661497 
L 47.050627 158.661497 
L 47.902423 158.661497 
L 48.754219 158.661497 
L 49.606014 158.661497 
L 50.45781 158.661497 
L 51.309606 158.661497 
L 52.161402 158.661497 
L 53.013198 158.661497 
L 53.864993 158.661497 
L 54.716789 158.661497 
L 55.568585 158.661497 
L 56.420381 158.661497 
L 57.272177 158.661497 
L 58.123972 158.661497 
L 58.975768 158.661497 
L 59.827564 158.661497 
L 60.67936 158.661497 
L 61.531156 158.661497 
L 62.382951 158.661497 
L 63.234747 158.661497 
L 64.086543 158.661497 
L 64.938339 158.661497 
L 65.790135 158.661497 
L 66.64193 158.661497 
L 67.493726 158.661497 
L 68.345522 158.661497 
L 69.197318 158.661497 
L 70.049114 158.661497 
L 70.900909 158.661497 
L 71.752705 158.661497 
L 72.604501 158.661497 
L 73.456297 158.661497 
L 74.308093 158.661497 
L 75.159888 158.661497 
L 76.011684 158.661497 
L 76.86348 158.661497 
L 77.715276 158.661497 
L 78.567072 158.661497 
L 79.418867 158.661497 
L 80.270663 158.661497 
L 81.122459 158.661497 
L 81.974255 158.661497 
L 82.826051 158.661497 
L 83.677846 158.661497 
L 84.529642 158.661497 
L 85.381438 158.661497 
L 86.233234 158.661497 
L 87.08503 158.661497 
L 87.936825 158.661497 
L 88.788621 158.661497 
L 89.640417 158.661497 
L 90.492213 158.661497 
L 91.344009 158.661497 
L 92.195804 158.661497 
L 93.0476 158.661497 
L 93.899396 158.661497 
L 94.751192 158.661497 
L 95.602988 158.661497 
L 96.454783 158.661497 
L 97.306579 158.661497 
L 98.158375 158.661497 
L 99.010171 158.661497 
L 99.861967 158.661497 
L 100.713762 158.661497 
L 101.565558 158.661497 
L 102.417354 158.661497 
L 103.26915 158.661497 
L 104.120946 158.661497 
L 104.972741 158.661497 
L 105.824537 158.661497 
L 106.676333 158.661497 
L 107.528129 158.661497 
L 108.379925 158.661497 
L 109.23172 158.661497 
L 110.083516 158.661497 
L 110.935312 158.661497 
L 111.787108 158.661497 
L 112.638904 158.661497 
L 113.490699 158.661497 
L 114.342495 158.661497 
L 115.194291 158.661497 
L 116.046087 158.661497 
L 116.897883 158.661497 
L 117.749678 158.661497 
L 118.601474 158.661497 
L 118.601474 157.703227 
L 118.601474 156.744957 
L 118.601474 155.786687 
L 118.601474 154.828416 
L 118.601474 153.870146 
L 118.601474 152.911876 
L 118.601474 151.953606 
L 118.601474 150.995335 
L 118.601474 150.037065 
L 118.601474 149.078795 
L 118.601474 148.120524 
L 118.601474 147.162254 
L 118.601474 146.203984 
L 118.601474 145.245714 
L 118.601474 144.287443 
L 118.601474 143.329173 
L 118.601474 142.370903 
L 118.601474 141.412633 
L 118.601474 140.454362 
L 118.601474 139.496092 
L 118.601474 138.537822 
L 118.601474 137.579551 
L 118.601474 136.621281 
L 118.601474 135.663011 
L 118.601474 134.704741 
L 118.601474 133.74647 
L 118.601474 132.7882 
L 118.601474 131.82993 
L 118.601474 130.871659 
L 118.601474 129.913389 
L 118.601474 128.955119 
L 118.601474 127.996849 
L 118.601474 127.038578 
L 118.601474 126.080308 
L 118.601474 125.122038 
L 118.601474 124.163768 
L 118.601474 123.205497 
L 118.601474 122.247227 
L 118.601474 121.288957 
L 118.601474 120.330686 
L 118.601474 119.372416 
L 118.601474 118.414146 
L 118.601474 117.455876 
L 118.601474 116.497605 
L 118.601474 115.539335 
L 118.601474 114.581065 
L 118.601474 113.622795 
L 118.601474 112.664524 
L 118.601474 111.706254 
L 118.601474 110.747984 
L 118.601474 109.789713 
L 118.601474 108.831443 
L 118.601474 107.873173 
L 118.601474 106.914903 
L 118.601474 105.956632 
L 118.601474 104.998362 
L 118.601474 104.040092 
L 118.601474 103.081822 
L 118.601474 102.123551 
L 118.601474 101.165281 
L 118.601474 100.207011 
L 118.601474 99.24874 
L 118.601474 98.29047 
L 118.601474 97.3322 
L 118.601474 96.37393 
L 118.601474 95.415659 
L 118.601474 94.457389 
L 118.601474 93.499119 
L 118.601474 92.540849 
L 118.601474 91.582578 
L 118.601474 90.624308 
L 118.601474 89.666038 
L 118.601474 88.707767 
L 118.601474 87.749497 
L 118.601474 86.791227 
L 118.601474 85.832957 
L 118.601474 84.874686 
L 118.601474 83.916416 
L 118.601474 82.958146 
L 118.601474 81.999875 
L 118.601474 81.041605 
L 118.601474 80.083335 
L 118.601474 79.125065 
L 118.601474 78.166794 
L 118.601474 77.208524 
L 118.601474 76.250254 
L 118.601474 75.291984 
L 118.601474 74.333713 
L 118.601474 73.375443 
L 118.601474 72.417173 
L 118.601474 71.458902 
L 118.601474 70.500632 
L 118.601474 69.542362 
L 118.601474 68.584092 
L 118.601474 67.625821 
L 118.601474 66.667551 
L 118.601474 65.709281 
L 118.601474 64.751011 
L 118.601474 63.79274 
L 117.749678 63.79274 
L 116.897883 63.79274 
L 116.046087 63.79274 
L 115.194291 63.79274 
L 114.342495 63.79274 
L 113.490699 63.79274 
L 112.638904 63.79274 
L 111.787108 63.79274 
L 110.935312 63.79274 
L 110.083516 63.79274 
L 109.23172 63.79274 
L 108.379925 63.79274 
L 107.528129 63.79274 
L 106.676333 63.79274 
L 105.824537 63.79274 
L 104.972741 63.79274 
L 104.120946 63.79274 
L 103.26915 63.79274 
L 102.417354 63.79274 
L 101.565558 63.79274 
L 100.713762 63.79274 
L 99.861967 63.79274 
L 99.010171 63.79274 
L 98.158375 63.79274 
L 97.306579 63.79274 
L 96.454783 63.79274 
L 95.602988 63.79274 
L 94.751192 63.79274 
L 93.899396 63.79274 
L 93.0476 63.79274 
L 92.195804 63.79274 
L 91.344009 63.79274 
L 90.492213 63.79274 
L 89.640417 63.79274 
L 88.788621 63.79274 
L 87.936825 63.79274 
L 87.08503 63.79274 
L 86.233234 63.79274 
L 85.381438 63.79274 
L 84.529642 63.79274 
L 83.677846 63.79274 
L 82.826051 63.79274 
L 81.974255 63.79274 
L 81.122459 63.79274 
L 80.270663 63.79274 
L 79.418867 63.79274 
L 78.567072 63.79274 
L 77.715276 63.79274 
L 76.86348 63.79274 
L 76.011684 63.79274 
L 75.159888 63.79274 
L 74.308093 63.79274 
L 73.456297 63.79274 
L 72.604501 63.79274 
L 71.752705 63.79274 
L 70.900909 63.79274 
L 70.049114 63.79274 
L 69.197318 63.79274 
L 68.345522 63.79274 
L 67.493726 63.79274 
L 66.64193 63.79274 
L 65.790135 63.79274 
L 64.938339 63.79274 
L 64.086543 63.79274 
L 63.234747 63.79274 
L 62.382951 63.79274 
L 61.531156 63.79274 
L 60.67936 63.79274 
L 59.827564 63.79274 
L 58.975768 63.79274 
L 58.123972 63.79274 
L 57.272177 63.79274 
L 56.420381 63.79274 
L 55.568585 63.79274 
L 54.716789 63.79274 
L 53.864993 63.79274 
L 53.013198 63.79274 
L 52.161402 63.79274 
L 51.309606 63.79274 
L 50.45781 63.79274 
L 49.606014 63.79274 
L 48.754219 63.79274 
L 47.902423 63.79274 
L 47.050627 63.79274 
L 46.198831 63.79274 
L 45.347035 63.79274 
L 44.49524 63.79274 
L 43.643444 63.79274 
L 42.791648 63.79274 
L 41.939852 63.79274 
L 41.088056 63.79274 
L 40.236261 63.79274 
L 39.384465 63.79274 
L 38.532669 63.79274 
L 37.680873 63.79274 
L 36.829077 63.79274 
L 35.977282 63.79274 
L 35.125486 63.79274 
L 34.27369 63.79274 
L 34.27369 64.751011 
L 34.27369 65.709281 
L 34.27369 66.667551 
L 34.27369 67.625821 
L 34.27369 68.584092 
L 34.27369 69.542362 
L 34.27369 70.500632 
L 34.27369 71.458902 
L 34.27369 72.417173 
L 34.27369 73.375443 
L 34.27369 74.333713 
L 34.27369 75.291984 
L 34.27369 76.250254 
L 34.27369 77.208524 
L 34.27369 78.166794 
L 34.27369 79.125065 
L 34.27369 80.083335 
L 34.27369 81.041605 
L 34.27369 81.999875 
L 34.27369 82.958146 
L 34.27369 83.916416 
L 34.27369 84.874686 
L 34.27369 85.832957 
L 34.27369 86.791227 
L 34.27369 87.749497 
L 34.27369 88.707767 
L 34.27369 89.666038 
L 34.27369 90.624308 
L 34.27369 91.582578 
L 34.27369 92.540849 
L 34.27369 93.499119 
L 34.27369 94.457389 
L 34.27369 95.415659 
L 34.27369 96.37393 
L 34.27369 97.3322 
L 34.27369 98.29047 
L 34.27369 99.24874 
L 34.27369 100.207011 
L 34.27369 101.165281 
L 34.27369 102.123551 
L 34.27369 103.081822 
L 34.27369 104.040092 
L 34.27369 104.998362 
L 34.27369 105.956632 
L 34.27369 106.914903 
L 34.27369 107.873173 
L 34.27369 108.831443 
L 34.27369 109.789713 
L 34.27369 110.747984 
L 34.27369 111.706254 
L 34.27369 112.664524 
L 34.27369 113.622795 
L 34.27369 114.581065 
L 34.27369 115.539335 
L 34.27369 116.497605 
L 34.27369 117.455876 
L 34.27369 118.414146 
L 34.27369 119.372416 
L 34.27369 120.330686 
L 34.27369 121.288957 
L 34.27369 122.247227 
L 34.27369 123.205497 
L 34.27369 124.163768 
L 34.27369 125.122038 
L 34.27369 126.080308 
L 34.27369 127.038578 
L 34.27369 127.996849 
L 34.27369 128.955119 
L 34.27369 129.913389 
L 34.27369 130.871659 
L 34.27369 131.82993 
L 34.27369 132.7882 
L 34.27369 133.74647 
L 34.27369 134.704741 
L 34.27369 135.663011 
L 34.27369 136.621281 
L 34.27369 137.579551 
L 34.27369 138.537822 
L 34.27369 139.496092 
L 34.27369 140.454362 
L 34.27369 141.412633 
L 34.27369 142.370903 
L 34.27369 143.329173 
L 34.27369 144.287443 
L 34.27369 145.245714 
L 34.27369 146.203984 
L 34.27369 147.162254 
L 34.27369 148.120524 
L 34.27369 149.078795 
L 34.27369 150.037065 
L 34.27369 150.995335 
L 34.27369 151.953606 
L 34.27369 152.911876 
L 34.27369 153.870146 
L 34.27369 154.828416 
L 34.27369 155.786687 
L 34.27369 156.744957 
L 34.27369 157.703227 
L 34.27369 158.661497 
L 35.125486 158.661497 
z
M 87.073658 150.995335 
L 86.233234 150.582116 
L 85.381438 150.120396 
L 85.241196 150.037065 
L 84.529642 149.746375 
L 83.677846 149.40943 
L 82.826051 149.112232 
L 82.723774 149.078795 
L 81.974255 148.86002 
L 81.122459 148.645021 
L 80.270663 148.468106 
L 79.418867 148.328846 
L 78.567072 148.226021 
L 77.715276 148.158315 
L 76.86348 148.124715 
L 76.011684 148.12472 
L 75.159888 148.158442 
L 74.308093 148.226613 
L 73.456297 148.330472 
L 72.604501 148.471449 
L 71.752705 148.650411 
L 70.900909 148.865884 
L 70.138771 149.078795 
L 70.049114 149.11465 
L 69.197318 149.440282 
L 68.345522 149.814496 
L 67.493726 149.990736 
L 67.284517 149.078795 
L 66.81292 148.120524 
L 66.64193 147.851426 
L 66.372818 147.162254 
L 65.92201 146.203984 
L 65.790135 145.957901 
L 65.487661 145.245714 
L 65.04034 144.287443 
L 64.938339 144.084835 
L 64.606722 143.329173 
L 64.160864 142.370903 
L 64.086543 142.218062 
L 63.727219 141.412633 
L 63.282291 140.454362 
L 63.234747 140.354228 
L 62.848362 139.496092 
L 62.404211 138.537822 
L 62.382951 138.49219 
L 61.969841 137.579551 
L 61.531156 136.631188 
L 61.526638 136.621281 
L 61.091502 135.663011 
L 60.67936 134.768632 
L 60.649809 134.704741 
L 60.213257 133.74647 
L 59.827564 132.905356 
L 59.772722 132.7882 
L 59.335043 131.82993 
L 58.975768 131.041481 
L 58.895387 130.871659 
L 58.456803 129.913389 
L 58.123972 129.176978 
L 58.017779 128.955119 
L 57.578468 127.996849 
L 57.272177 127.311663 
L 57.139817 127.038578 
L 56.699938 126.080308 
L 56.420381 125.445089 
L 56.261316 125.122038 
L 55.821016 124.163768 
L 55.568585 123.576214 
L 55.381831 123.205497 
L 54.941244 122.247227 
L 54.716789 121.702203 
L 54.500053 121.288957 
L 54.059153 120.330686 
L 53.864993 119.81208 
L 53.609976 119.372416 
L 53.165884 118.414146 
L 53.013198 117.785613 
L 52.50903 117.455876 
L 53.013198 117.134084 
L 53.864993 116.540508 
L 53.914806 116.497605 
L 54.716789 116.207538 
L 55.568585 115.857874 
L 56.314944 115.539335 
L 56.420381 115.508488 
L 57.272177 115.213533 
L 58.123972 114.916421 
L 58.975768 114.62352 
L 59.094101 114.581065 
L 59.827564 114.365192 
L 60.67936 114.117246 
L 61.531156 113.877256 
L 62.382951 113.647028 
L 62.473025 113.622795 
L 63.234747 113.443414 
L 64.086543 113.251405 
L 64.938339 113.069963 
L 65.790135 112.899834 
L 66.64193 112.741587 
L 67.085334 112.664524 
L 67.493726 112.599984 
L 68.345522 112.474761 
L 69.197318 112.361305 
L 70.049114 112.259908 
L 70.900909 112.170795 
L 71.752705 112.094143 
L 72.604501 112.030089 
L 73.456297 111.978734 
L 74.308093 111.940155 
L 75.159888 111.914402 
L 76.011684 111.901508 
L 76.86348 111.901485 
L 77.715276 111.914331 
L 78.567072 111.940024 
L 79.418867 111.97853 
L 80.270663 112.029794 
L 81.122459 112.093745 
L 81.974255 112.170291 
L 82.826051 112.259319 
L 83.677846 112.360688 
L 84.529642 112.474229 
L 85.381438 112.599739 
L 85.784721 112.664524 
L 86.233234 112.741237 
L 87.08503 112.898816 
L 87.936825 113.068402 
L 88.788621 113.249637 
L 89.640417 113.442089 
L 90.399146 113.622795 
L 90.492213 113.646762 
L 91.344009 113.87477 
L 92.195804 114.113446 
L 93.0476 114.361991 
L 93.774569 114.581065 
L 93.899396 114.622506 
L 94.751192 114.909626 
L 95.602988 115.204969 
L 96.454783 115.506919 
L 96.547219 115.539335 
L 97.306579 115.840883 
L 98.158375 116.182888 
L 98.94007 116.497605 
L 99.010171 116.53046 
L 99.861967 116.916808 
L 100.713762 117.300941 
L 101.075608 117.455876 
L 101.565558 117.713776 
L 102.417354 118.141194 
L 103.001845 118.414146 
L 103.26915 118.580537 
L 104.120946 119.05533 
L 104.770745 119.372416 
L 104.972741 119.52974 
L 105.824537 120.0599 
L 106.459952 120.330686 
L 106.676333 120.669328 
L 107.39561 121.288957 
L 106.676333 121.983089 
L 106.605567 122.247227 
L 105.993531 123.205497 
L 105.824537 123.39286 
L 105.378572 124.163768 
L 104.972741 124.719399 
L 104.753157 125.122038 
L 104.126314 126.080308 
L 104.120946 126.087278 
L 103.518442 127.038578 
L 103.26915 127.391581 
L 102.902353 127.996849 
L 102.417354 128.726478 
L 102.282928 128.955119 
L 101.666687 129.913389 
L 101.565558 130.059187 
L 101.052577 130.871659 
L 100.713762 131.380015 
L 100.436039 131.82993 
L 99.861967 132.717705 
L 99.819121 132.7882 
L 99.204073 133.74647 
L 99.010171 134.038737 
L 98.588073 134.704741 
L 98.158375 135.366497 
L 97.972269 135.663011 
L 97.357387 136.621281 
L 97.306579 136.69876 
L 96.740324 137.579551 
L 96.454783 138.021584 
L 96.124059 138.537822 
L 95.602988 139.351752 
L 95.510224 139.496092 
L 94.893891 140.454362 
L 94.751192 140.679073 
L 94.275505 141.412633 
L 93.899396 142.006847 
L 93.66028 142.370903 
L 93.050525 143.329173 
L 93.0476 143.333963 
L 92.427614 144.287443 
L 92.195804 144.666603 
L 91.808333 145.245714 
L 91.344009 145.994595 
L 91.196468 146.203984 
L 90.582568 147.162254 
L 90.492213 147.326318 
L 89.951964 148.120524 
L 89.640417 148.6781 
L 89.327243 149.078795 
L 88.788621 149.984343 
L 88.728715 150.037065 
L 88.043389 150.995335 
L 87.936825 151.329011 
L 87.08503 151.020895 
L 87.073658 150.995335 
z
" clip-path="url(#p0431613159)" style="fill: none"/>
   </g>
   <g id="matplotlib.axis_1">
    <g id="xtick_1">
     <g id="line2d_1">
      <defs>
       <path id="mb921ce6d4d" d="M 0 0 
L 0 3.5 
" style="stroke: #000000; stroke-width: 0.8"/>
      </defs>
      <g>
       <use xlink:href="#mb921ce6d4d" x="34.27369" y="169.20247" style="stroke: #000000; stroke-width: 0.8"/>
      </g>
     </g>
     <g id="text_1">
      <!-- −2 -->
      <g transform="translate(26.902596 183.800908) scale(0.1 -0.1)">
       <defs>
        <path id="DejaVuSans-2212" d="M 678 2272 
L 4684 2272 
L 4684 1741 
L 678 1741 
L 678 2272 
z
" transform="scale(0.015625)"/>
        <path id="DejaVuSans-32" d="M 1228 531 
L 3431 531 
L 3431 0 
L 469 0 
L 469 531 
Q 828 903 1448 1529 
Q 2069 2156 2228 2338 
Q 2531 2678 2651 2914 
Q 2772 3150 2772 3378 
Q 2772 3750 2511 3984 
Q 2250 4219 1831 4219 
Q 1534 4219 1204 4116 
Q 875 4013 500 3803 
L 500 4441 
Q 881 4594 1212 4672 
Q 1544 4750 1819 4750 
Q 2544 4750 2975 4387 
Q 3406 4025 3406 3419 
Q 3406 3131 3298 2873 
Q 3191 2616 2906 2266 
Q 2828 2175 2409 1742 
Q 1991 1309 1228 531 
z
" transform="scale(0.015625)"/>
       </defs>
       <use xlink:href="#DejaVuSans-2212"/>
       <use xlink:href="#DejaVuSans-32" x="83.789062"/>
      </g>
     </g>
    </g>
    <g id="xtick_2">
     <g id="line2d_2">
      <g>
       <use xlink:href="#mb921ce6d4d" x="76.437582" y="169.20247" style="stroke: #000000; stroke-width: 0.8"/>
      </g>
     </g>
    </g>
    <g id="xtick_3">
     <g id="line2d_3">
      <g>
       <use xlink:href="#mb921ce6d4d" x="118.601474" y="169.20247" style="stroke: #000000; stroke-width: 0.8"/>
      </g>
     </g>
     <g id="text_2">
      <!-- 2 -->
      <g transform="translate(115.420224 183.800908) scale(0.1 -0.1)">
       <use xlink:href="#DejaVuSans-32"/>
      </g>
     </g>
    </g>
    <g id="xtick_4">
     <g id="line2d_4">
      <g>
       <use xlink:href="#mb921ce6d4d" x="160.765366" y="169.20247" style="stroke: #000000; stroke-width: 0.8"/>
      </g>
     </g>
     <g id="text_3">
      <!-- 4 -->
      <g transform="translate(157.584116 183.800908) scale(0.1 -0.1)">
       <defs>
        <path id="DejaVuSans-34" d="M 2419 4116 
L 825 1625 
L 2419 1625 
L 2419 4116 
z
M 2253 4666 
L 3047 4666 
L 3047 1625 
L 3713 1625 
L 3713 1100 
L 3047 1100 
L 3047 0 
L 2419 0 
L 2419 1100 
L 313 1100 
L 313 1709 
L 2253 4666 
z
" transform="scale(0.015625)"/>
       </defs>
       <use xlink:href="#DejaVuSans-34"/>
      </g>
     </g>
    </g>
    <g id="xtick_5">
     <g id="line2d_5">
      <g>
       <use xlink:href="#mb921ce6d4d" x="202.929258" y="169.20247" style="stroke: #000000; stroke-width: 0.8"/>
      </g>
     </g>
     <g id="text_4">
      <!-- 6 -->
      <g transform="translate(199.748008 183.800908) scale(0.1 -0.1)">
       <defs>
        <path id="DejaVuSans-36" d="M 2113 2584 
Q 1688 2584 1439 2293 
Q 1191 2003 1191 1497 
Q 1191 994 1439 701 
Q 1688 409 2113 409 
Q 2538 409 2786 701 
Q 3034 994 3034 1497 
Q 3034 2003 2786 2293 
Q 2538 2584 2113 2584 
z
M 3366 4563 
L 3366 3988 
Q 3128 4100 2886 4159 
Q 2644 4219 2406 4219 
Q 1781 4219 1451 3797 
Q 1122 3375 1075 2522 
Q 1259 2794 1537 2939 
Q 1816 3084 2150 3084 
Q 2853 3084 3261 2657 
Q 3669 2231 3669 1497 
Q 3669 778 3244 343 
Q 2819 -91 2113 -91 
Q 1303 -91 875 529 
Q 447 1150 447 2328 
Q 447 3434 972 4092 
Q 1497 4750 2381 4750 
Q 2619 4750 2861 4703 
Q 3103 4656 3366 4563 
z
" transform="scale(0.015625)"/>
       </defs>
       <use xlink:href="#DejaVuSans-36"/>
      </g>
     </g>
    </g>
    <g id="xtick_6">
     <g id="line2d_6">
      <defs>
       <path id="m67b0f6fabe" d="M 0 0 
L 0 2 
" style="stroke: #000000; stroke-width: 0.6"/>
      </defs>
      <g>
       <use xlink:href="#m67b0f6fabe" x="13.191744" y="169.20247" style="stroke: #000000; stroke-width: 0.6"/>
      </g>
     </g>
    </g>
    <g id="xtick_7">
     <g id="line2d_7">
      <g>
       <use xlink:href="#m67b0f6fabe" x="23.732717" y="169.20247" style="stroke: #000000; stroke-width: 0.6"/>
      </g>
     </g>
    </g>
    <g id="xtick_8">
     <g id="line2d_8">
      <g>
       <use xlink:href="#m67b0f6fabe" x="44.814663" y="169.20247" style="stroke: #000000; stroke-width: 0.6"/>
      </g>
     </g>
    </g>
    <g id="xtick_9">
     <g id="line2d_9">
      <g>
       <use xlink:href="#m67b0f6fabe" x="55.355636" y="169.20247" style="stroke: #000000; stroke-width: 0.6"/>
      </g>
     </g>
    </g>
    <g id="xtick_10">
     <g id="line2d_10">
      <g>
       <use xlink:href="#m67b0f6fabe" x="65.896609" y="169.20247" style="stroke: #000000; stroke-width: 0.6"/>
      </g>
     </g>
    </g>
    <g id="xtick_11">
     <g id="line2d_11">
      <g>
       <use xlink:href="#m67b0f6fabe" x="86.978555" y="169.20247" style="stroke: #000000; stroke-width: 0.6"/>
      </g>
     </g>
    </g>
    <g id="xtick_12">
     <g id="line2d_12">
      <g>
       <use xlink:href="#m67b0f6fabe" x="97.519528" y="169.20247" style="stroke: #000000; stroke-width: 0.6"/>
      </g>
     </g>
    </g>
    <g id="xtick_13">
     <g id="line2d_13">
      <g>
       <use xlink:href="#m67b0f6fabe" x="108.060501" y="169.20247" style="stroke: #000000; stroke-width: 0.6"/>
      </g>
     </g>
    </g>
    <g id="xtick_14">
     <g id="line2d_14">
      <g>
       <use xlink:href="#m67b0f6fabe" x="129.142447" y="169.20247" style="stroke: #000000; stroke-width: 0.6"/>
      </g>
     </g>
    </g>
    <g id="xtick_15">
     <g id="line2d_15">
      <g>
       <use xlink:href="#m67b0f6fabe" x="139.68342" y="169.20247" style="stroke: #000000; stroke-width: 0.6"/>
      </g>
     </g>
    </g>
    <g id="xtick_16">
     <g id="line2d_16">
      <g>
       <use xlink:href="#m67b0f6fabe" x="150.224393" y="169.20247" style="stroke: #000000; stroke-width: 0.6"/>
      </g>
     </g>
    </g>
    <g id="xtick_17">
     <g id="line2d_17">
      <g>
       <use xlink:href="#m67b0f6fabe" x="171.306339" y="169.20247" style="stroke: #000000; stroke-width: 0.6"/>
      </g>
     </g>
    </g>
    <g id="xtick_18">
     <g id="line2d_18">
      <g>
       <use xlink:href="#m67b0f6fabe" x="181.847312" y="169.20247" style="stroke: #000000; stroke-width: 0.6"/>
      </g>
     </g>
    </g>
    <g id="xtick_19">
     <g id="line2d_19">
      <g>
       <use xlink:href="#m67b0f6fabe" x="192.388285" y="169.20247" style="stroke: #000000; stroke-width: 0.6"/>
      </g>
     </g>
    </g>
    <g id="xtick_20">
     <g id="line2d_20">
      <g>
       <use xlink:href="#m67b0f6fabe" x="213.470231" y="169.20247" style="stroke: #000000; stroke-width: 0.6"/>
      </g>
     </g>
    </g>
    <g id="xtick_21">
     <g id="line2d_21">
      <g>
       <use xlink:href="#m67b0f6fabe" x="224.011204" y="169.20247" style="stroke: #000000; stroke-width: 0.6"/>
      </g>
     </g>
    </g>
    <g id="xtick_22">
     <g id="line2d_22">
      <g>
       <use xlink:href="#m67b0f6fabe" x="234.552177" y="169.20247" style="stroke: #000000; stroke-width: 0.6"/>
      </g>
     </g>
    </g>
   </g>
   <g id="matplotlib.axis_2">
    <g id="ytick_1">
     <g id="line2d_23">
      <defs>
       <path id="m48c41cb8e5" d="M 0 0 
L -3.5 0 
" style="stroke: #000000; stroke-width: 0.8"/>
      </defs>
      <g>
       <use xlink:href="#m48c41cb8e5" x="76.437582" y="295.694147" style="stroke: #000000; stroke-width: 0.8"/>
      </g>
     </g>
     <g id="text_5">
      <!-- −6 -->
      <g transform="translate(54.695395 299.493365) scale(0.1 -0.1)">
       <use xlink:href="#DejaVuSans-2212"/>
       <use xlink:href="#DejaVuSans-36" x="83.789062"/>
      </g>
     </g>
    </g>
    <g id="ytick_2">
     <g id="line2d_24">
      <g>
       <use xlink:href="#m48c41cb8e5" x="76.437582" y="253.530255" style="stroke: #000000; stroke-width: 0.8"/>
      </g>
     </g>
     <g id="text_6">
      <!-- −4 -->
      <g transform="translate(54.695395 257.329473) scale(0.1 -0.1)">
       <use xlink:href="#DejaVuSans-2212"/>
       <use xlink:href="#DejaVuSans-34" x="83.789062"/>
      </g>
     </g>
    </g>
    <g id="ytick_3">
     <g id="line2d_25">
      <g>
       <use xlink:href="#m48c41cb8e5" x="76.437582" y="211.366363" style="stroke: #000000; stroke-width: 0.8"/>
      </g>
     </g>
     <g id="text_7">
      <!-- −2 -->
      <g transform="translate(54.695395 215.165581) scale(0.1 -0.1)">
       <use xlink:href="#DejaVuSans-2212"/>
       <use xlink:href="#DejaVuSans-32" x="83.789062"/>
      </g>
     </g>
    </g>
    <g id="ytick_4">
     <g id="line2d_26">
      <g>
       <use xlink:href="#m48c41cb8e5" x="76.437582" y="169.20247" style="stroke: #000000; stroke-width: 0.8"/>
      </g>
     </g>
    </g>
    <g id="ytick_5">
     <g id="line2d_27">
      <g>
       <use xlink:href="#m48c41cb8e5" x="76.437582" y="127.038578" style="stroke: #000000; stroke-width: 0.8"/>
      </g>
     </g>
     <g id="text_8">
      <!-- 2 -->
      <g transform="translate(63.075082 130.837797) scale(0.1 -0.1)">
       <use xlink:href="#DejaVuSans-32"/>
      </g>
     </g>
    </g>
    <g id="ytick_6">
     <g id="line2d_28">
      <g>
       <use xlink:href="#m48c41cb8e5" x="76.437582" y="84.874686" style="stroke: #000000; stroke-width: 0.8"/>
      </g>
     </g>
     <g id="text_9">
      <!-- 4 -->
      <g transform="translate(63.075082 88.673905) scale(0.1 -0.1)">
       <use xlink:href="#DejaVuSans-34"/>
      </g>
     </g>
    </g>
    <g id="ytick_7">
     <g id="line2d_29">
      <g>
       <use xlink:href="#m48c41cb8e5" x="76.437582" y="42.710794" style="stroke: #000000; stroke-width: 0.8"/>
      </g>
     </g>
     <g id="text_10">
      <!-- 6 -->
      <g transform="translate(63.075082 46.510013) scale(0.1 -0.1)">
       <use xlink:href="#DejaVuSans-36"/>
      </g>
     </g>
    </g>
    <g id="ytick_8">
     <g id="line2d_30">
      <defs>
       <path id="m3898d0e927" d="M 0 0 
L -2 0 
" style="stroke: #000000; stroke-width: 0.6"/>
      </defs>
      <g>
       <use xlink:href="#m3898d0e927" x="76.437582" y="327.317066" style="stroke: #000000; stroke-width: 0.6"/>
      </g>
     </g>
    </g>
    <g id="ytick_9">
     <g id="line2d_31">
      <g>
       <use xlink:href="#m3898d0e927" x="76.437582" y="316.776093" style="stroke: #000000; stroke-width: 0.6"/>
      </g>
     </g>
    </g>
    <g id="ytick_10">
     <g id="line2d_32">
      <g>
       <use xlink:href="#m3898d0e927" x="76.437582" y="306.23512" style="stroke: #000000; stroke-width: 0.6"/>
      </g>
     </g>
    </g>
    <g id="ytick_11">
     <g id="line2d_33">
      <g>
       <use xlink:href="#m3898d0e927" x="76.437582" y="285.153174" style="stroke: #000000; stroke-width: 0.6"/>
      </g>
     </g>
    </g>
    <g id="ytick_12">
     <g id="line2d_34">
      <g>
       <use xlink:href="#m3898d0e927" x="76.437582" y="274.612201" style="stroke: #000000; stroke-width: 0.6"/>
      </g>
     </g>
    </g>
    <g id="ytick_13">
     <g id="line2d_35">
      <g>
       <use xlink:href="#m3898d0e927" x="76.437582" y="264.071228" style="stroke: #000000; stroke-width: 0.6"/>
      </g>
     </g>
    </g>
    <g id="ytick_14">
     <g id="line2d_36">
      <g>
       <use xlink:href="#m3898d0e927" x="76.437582" y="242.989282" style="stroke: #000000; stroke-width: 0.6"/>
      </g>
     </g>
    </g>
    <g id="ytick_15">
     <g id="line2d_37">
      <g>
       <use xlink:href="#m3898d0e927" x="76.437582" y="232.448309" style="stroke: #000000; stroke-width: 0.6"/>
      </g>
     </g>
    </g>
    <g id="ytick_16">
     <g id="line2d_38">
      <g>
       <use xlink:href="#m3898d0e927" x="76.437582" y="221.907336" style="stroke: #000000; stroke-width: 0.6"/>
      </g>
     </g>
    </g>
    <g id="ytick_17">
     <g id="line2d_39">
      <g>
       <use xlink:href="#m3898d0e927" x="76.437582" y="200.82539" style="stroke: #000000; stroke-width: 0.6"/>
      </g>
     </g>
    </g>
    <g id="ytick_18">
     <g id="line2d_40">
      <g>
       <use xlink:href="#m3898d0e927" x="76.437582" y="190.284417" style="stroke: #000000; stroke-width: 0.6"/>
      </g>
     </g>
    </g>
    <g id="ytick_19">
     <g id="line2d_41">
      <g>
       <use xlink:href="#m3898d0e927" x="76.437582" y="179.743443" style="stroke: #000000; stroke-width: 0.6"/>
      </g>
     </g>
    </g>
    <g id="ytick_20">
     <g id="line2d_42">
      <g>
       <use xlink:href="#m3898d0e927" x="76.437582" y="158.661497" style="stroke: #000000; stroke-width: 0.6"/>
      </g>
     </g>
    </g>
    <g id="ytick_21">
     <g id="line2d_43">
      <g>
       <use xlink:href="#m3898d0e927" x="76.437582" y="148.120524" style="stroke: #000000; stroke-width: 0.6"/>
      </g>
     </g>
    </g>
    <g id="ytick_22">
     <g id="line2d_44">
      <g>
       <use xlink:href="#m3898d0e927" x="76.437582" y="137.579551" style="stroke: #000000; stroke-width: 0.6"/>
      </g>
     </g>
    </g>
    <g id="ytick_23">
     <g id="line2d_45">
      <g>
       <use xlink:href="#m3898d0e927" x="76.437582" y="116.497605" style="stroke: #000000; stroke-width: 0.6"/>
      </g>
     </g>
    </g>
    <g id="ytick_24">
     <g id="line2d_46">
      <g>
       <use xlink:href="#m3898d0e927" x="76.437582" y="105.956632" style="stroke: #000000; stroke-width: 0.6"/>
      </g>
     </g>
    </g>
    <g id="ytick_25">
     <g id="line2d_47">
      <g>
       <use xlink:href="#m3898d0e927" x="76.437582" y="95.415659" style="stroke: #000000; stroke-width: 0.6"/>
      </g>
     </g>
    </g>
    <g id="ytick_26">
     <g id="line2d_48">
      <g>
       <use xlink:href="#m3898d0e927" x="76.437582" y="74.333713" style="stroke: #000000; stroke-width: 0.6"/>
      </g>
     </g>
    </g>
    <g id="ytick_27">
     <g id="line2d_49">
      <g>
       <use xlink:href="#m3898d0e927" x="76.437582" y="63.79274" style="stroke: #000000; stroke-width: 0.6"/>
      </g>
     </g>
    </g>
    <g id="ytick_28">
     <g id="line2d_50">
      <g>
       <use xlink:href="#m3898d0e927" x="76.437582" y="53.251767" style="stroke: #000000; stroke-width: 0.6"/>
      </g>
     </g>
    </g>
    <g id="ytick_29">
     <g id="line2d_51">
      <g>
       <use xlink:href="#m3898d0e927" x="76.437582" y="32.169821" style="stroke: #000000; stroke-width: 0.6"/>
      </g>
     </g>
    </g>
    <g id="ytick_30">
     <g id="line2d_52">
      <g>
       <use xlink:href="#m3898d0e927" x="76.437582" y="21.628848" style="stroke: #000000; stroke-width: 0.6"/>
      </g>
     </g>
    </g>
    <g id="ytick_31">
     <g id="line2d_53">
      <g>
       <use xlink:href="#m3898d0e927" x="76.437582" y="11.087875" style="stroke: #000000; stroke-width: 0.6"/>
      </g>
     </g>
    </g>
   </g>
   <g id="PathCollection_5">
    <path d="M 87.08503 151.020895 
L 87.073658 150.995335 
L 83.677846 149.40943 
L 81.974255 148.86002 
L 79.418867 148.328846 
L 76.86348 148.124715 
L 74.308093 148.226613 
L 72.604501 148.471449 
L 70.049114 149.11465 
L 67.493726 149.990736 
L 67.284517 149.078795 
L 64.938339 144.084835 
L 61.969841 137.579551 
L 53.165884 118.414146 
L 53.013198 117.785613 
L 52.50903 117.455876 
L 53.914806 116.497605 
L 60.67936 114.117246 
L 64.086543 113.251405 
L 67.493726 112.599984 
L 70.900909 112.170795 
L 74.308093 111.940155 
L 77.715276 111.914331 
L 81.122459 112.093745 
L 84.529642 112.474229 
L 87.936825 113.068402 
L 91.344009 113.87477 
L 94.751192 114.909626 
L 98.158375 116.182888 
L 101.075608 117.455876 
L 106.459952 120.330686 
L 106.676333 120.669328 
L 107.39561 121.288957 
L 106.676333 121.983089 
L 106.605567 122.247227 
L 89.640417 148.6781 
L 89.327243 149.078795 
L 88.728715 150.037065 
L 87.936825 151.329011 
L 87.08503 151.020895 
L 87.08503 151.020895 
" clip-path="url(#p0431613159)" style="fill: none; stroke: #add8e6; stroke-width: 1.5"/>
   </g>
   <g id="PathCollection_6">
    <path d="M 87.08503 151.020895 
L 87.073658 150.995335 
L 83.677846 149.40943 
L 81.974255 148.86002 
L 79.418867 148.328846 
L 76.86348 148.124715 
L 74.308093 148.226613 
L 72.604501 148.471449 
L 70.049114 149.11465 
L 67.493726 149.990736 
L 67.284517 149.078795 
L 64.938339 144.084835 
L 61.969841 137.579551 
L 53.165884 118.414146 
L 53.013198 117.785613 
L 52.50903 117.455876 
L 53.914806 116.497605 
L 60.67936 114.117246 
L 64.086543 113.251405 
L 67.493726 112.599984 
L 70.900909 112.170795 
L 74.308093 111.940155 
L 77.715276 111.914331 
L 81.122459 112.093745 
L 84.529642 112.474229 
L 87.936825 113.068402 
L 91.344009 113.87477 
L 94.751192 114.909626 
L 98.158375 116.182888 
L 101.075608 117.455876 
L 106.459952 120.330686 
L 106.676333 120.669328 
L 107.39561 121.288957 
L 106.676333 121.983089 
L 106.605567 122.247227 
L 89.640417 148.6781 
L 89.327243 149.078795 
L 88.728715 150.037065 
L 87.936825 151.329011 
L 87.08503 151.020895 
L 87.08503 151.020895 
" clip-path="url(#p0431613159)" style="fill: none; stroke: #ffffff; stroke-width: 1.5"/>
   </g>
   <g id="PathCollection_7">
    <path d="M 87.08503 151.020895 
L 87.073658 150.995335 
L 83.677846 149.40943 
L 81.974255 148.86002 
L 79.418867 148.328846 
L 76.86348 148.124715 
L 74.308093 148.226613 
L 72.604501 148.471449 
L 70.049114 149.11465 
L 67.493726 149.990736 
L 67.284517 149.078795 
L 64.938339 144.084835 
L 61.969841 137.579551 
L 53.165884 118.414146 
L 53.013198 117.785613 
L 52.50903 117.455876 
L 53.914806 116.497605 
L 60.67936 114.117246 
L 64.086543 113.251405 
L 67.493726 112.599984 
L 70.900909 112.170795 
L 74.308093 111.940155 
L 77.715276 111.914331 
L 81.122459 112.093745 
L 84.529642 112.474229 
L 87.936825 113.068402 
L 91.344009 113.87477 
L 94.751192 114.909626 
L 98.158375 116.182888 
L 101.075608 117.455876 
L 106.459952 120.330686 
L 106.676333 120.669328 
L 107.39561 121.288957 
L 106.676333 121.983089 
L 106.605567 122.247227 
L 89.640417 148.6781 
L 89.327243 149.078795 
L 88.728715 150.037065 
L 87.936825 151.329011 
L 87.08503 151.020895 
L 87.08503 151.020895 
" clip-path="url(#p0431613159)" style="fill: none; stroke: #ffffff; stroke-width: 1.5"/>
   </g>
   <g id="line2d_54">
    <path d="M 75.250261 171.796815 
L 76.042136 172.028064 
L 76.819844 172.029878 
L 77.605381 171.805661 
L 78.248353 171.407343 
L 78.803873 170.796529 
L 79.159937 170.056368 
L 79.288966 169.302292 
L 79.198492 168.482933 
L 78.898783 167.759264 
L 78.391687 167.123569 
L 77.772993 166.681155 
L 77.014925 166.408364 
L 76.184079 166.360624 
L 75.419535 166.537149 
L 75.250261 166.608126 
L 75.250261 166.608126 
" clip-path="url(#p0431613159)" style="fill: none; stroke: #0000ff; stroke-width: 1.5; stroke-linecap: square"/>
   </g>
   <g id="line2d_55">
    <path d="M 73.210108 176.254631 
L 74.372056 176.677974 
L 75.570355 176.909446 
L 76.823473 176.948479 
L 78.023096 176.794289 
L 79.387645 176.375105 
L 80.481127 175.820575 
L 81.569578 175.017294 
L 82.375428 174.191613 
L 83.099533 173.173361 
L 83.714139 171.88599 
L 84.072516 170.565312 
L 84.192953 169.140993 
L 84.055164 167.745762 
L 83.655471 166.364931 
L 83.141049 165.302074 
L 82.425499 164.273535 
L 81.455376 163.288817 
L 80.290646 162.471686 
L 79.182933 161.949016 
L 77.99854 161.605565 
L 76.726304 161.452232 
L 75.51952 161.501385 
L 74.256276 161.759926 
L 73.210108 162.15031 
L 73.210108 162.15031 
" clip-path="url(#p0431613159)" style="fill: none; stroke: #0000ff; stroke-width: 1.5; stroke-linecap: square"/>
   </g>
   <g id="line2d_56">
    <path d="M 67.664397 188.37223 
L 69.501516 189.110746 
L 71.6166 189.725788 
L 73.678966 190.103152 
L 75.73681 190.272766 
L 78.145446 190.215125 
L 80.334778 189.921069 
L 82.767783 189.311598 
L 84.763686 188.5706 
L 86.511592 187.721725 
L 88.219707 186.684747 
L 89.837697 185.477769 
L 91.43986 184.013956 
L 93.013985 182.228264 
L 94.373882 180.28117 
L 95.347738 178.522043 
L 96.220578 176.488178 
L 96.81636 174.601901 
L 97.255297 172.529808 
L 97.496235 170.193217 
L 97.489767 168.082673 
L 97.263896 165.929383 
L 96.787559 163.695485 
L 95.980267 161.294759 
L 95.088286 159.373957 
L 93.773626 157.206219 
L 92.409709 155.442397 
L 90.836373 153.803663 
L 89.128754 152.368499 
L 87.347236 151.16285 
L 85.239007 150.04566 
L 83.289097 149.264938 
L 81.02245 148.625118 
L 78.621963 148.233996 
L 76.400854 148.120556 
L 73.853768 148.27946 
L 71.79196 148.638749 
L 69.793496 149.194858 
L 67.664397 150.032711 
L 67.664397 150.032711 
" clip-path="url(#p0431613159)" style="fill: none; stroke: #0000ff; stroke-width: 1.5; stroke-linecap: square"/>
   </g>
   <g id="line2d_57">
    <path d="M 52.589592 221.311279 
L 55.337453 222.483227 
L 58.987972 223.787868 
L 62.976425 224.905718 
L 66.877501 225.706093 
L 69.361821 226.070635 
L 73.454887 226.431467 
L 77.946296 226.489278 
L 81.305938 226.301977 
L 84.897482 225.881255 
L 88.226092 225.283533 
L 91.012286 224.624781 
L 95.100929 223.384884 
L 97.087666 222.659262 
L 100.700893 221.119195 
L 103.45594 219.740207 
L 106.372995 218.068876 
L 109.172427 216.239525 
L 112.634717 213.630187 
L 115.52608 211.108841 
L 118.391467 208.239966 
L 120.906147 205.349411 
L 122.914991 202.727162 
L 125.13202 199.416809 
L 126.66821 196.787586 
L 128.475278 193.205235 
L 129.992825 189.595864 
L 131.205094 186.071798 
L 132.179323 182.503328 
L 132.962358 178.636677 
L 133.466336 174.839465 
L 133.711151 171.149982 
L 133.708272 167.172047 
L 133.452069 163.422953 
L 132.967714 159.800411 
L 132.225075 156.094834 
L 131.339928 152.777278 
L 130.075382 149.027215 
L 128.541587 145.343987 
L 126.787778 141.836208 
L 124.998156 138.773452 
L 122.814521 135.538929 
L 120.442538 132.492549 
L 117.937293 129.682494 
L 115.711621 127.469937 
L 112.976913 125.055762 
L 110.726777 123.286181 
L 107.799252 121.238941 
L 104.583496 119.283917 
L 100.772488 117.319266 
L 97.549697 115.926462 
L 93.413534 114.467915 
L 90.17841 113.567552 
L 86.310529 112.752675 
L 82.926113 112.264316 
L 79.574307 111.98171 
L 76.332688 111.895896 
L 72.3053 112.04498 
L 68.817718 112.404652 
L 64.993292 113.050153 
L 61.183892 113.963178 
L 58.455805 114.790062 
L 53.948734 116.492829 
L 52.589592 117.093662 
L 52.589592 117.093662 
" clip-path="url(#p0431613159)" style="fill: none; stroke: #0000ff; stroke-width: 1.5; stroke-linecap: square"/>
   </g>
   <g id="line2d_58">
    <path d="M 11.612025 310.848897 
L 18.308839 313.726213 
L 23.667737 315.767837 
L 29.144441 317.625588 
L 34.367714 319.189768 
L 41.215642 320.943955 
L 45.33329 321.841214 
L 49.004991 322.543646 
L 57.532205 323.826692 
L 58.455859 323.936826 
L 66.547536 324.663881 
L 72.479108 324.927849 
L 78.885624 324.958916 
L 83.633773 324.811847 
L 90.988451 324.297072 
L 97.286594 323.576632 
L 104.893933 322.356965 
L 109.36997 321.45726 
L 115.197123 320.079112 
L 120.291081 318.677999 
L 126.03188 316.872605 
L 131.800081 314.808297 
L 137.228706 312.626675 
L 141.935994 310.539023 
L 148.546315 307.283583 
L 154.343362 304.09781 
L 159.788822 300.802751 
L 164.827242 297.473009 
L 169.813443 293.890127 
L 173.079742 291.375938 
L 177.484912 287.758365 
L 182.120708 283.645207 
L 186.716156 279.223828 
L 191.0729 274.676671 
L 195.412938 269.75558 
L 199.132917 265.181208 
L 202.315709 260.967171 
L 206.157364 255.451188 
L 209.342911 250.456619 
L 212.532107 244.993917 
L 215.684069 239.03426 
L 217.596765 235.082272 
L 219.965442 229.748458 
L 222.232212 224.065838 
L 224.403166 217.908211 
L 226.310886 211.676648 
L 227.642444 206.661151 
L 228.915757 201.084587 
L 230.121087 194.647379 
L 230.986377 188.71485 
L 231.653925 182.391482 
L 232.054894 176.22495 
L 232.208496 170.421317 
L 232.173098 165.6652 
L 231.9266 159.756398 
L 231.536013 154.692485 
L 230.870951 148.796646 
L 229.917483 142.556964 
L 228.768247 136.62285 
L 227.458122 131.007449 
L 225.771252 124.868307 
L 223.964447 119.183603 
L 221.902845 113.471687 
L 219.845943 108.37398 
L 217.941747 104.066962 
L 215.549429 99.102847 
L 212.651357 93.625552 
L 210.307979 89.548344 
L 207.888072 85.6152 
L 204.227603 80.119511 
L 200.223233 74.634106 
L 195.965765 69.307142 
L 191.790937 64.514044 
L 187.120396 59.587791 
L 182.447061 55.061972 
L 177.799127 50.915107 
L 172.528001 46.594581 
L 168.714395 43.699272 
L 164.62721 40.794322 
L 160.002608 37.737838 
L 154.765352 34.551724 
L 148.828706 31.269196 
L 144.023399 28.852121 
L 137.141652 25.741399 
L 132.992203 24.055517 
L 127.829707 22.148356 
L 121.524384 20.09431 
L 116.35228 18.627307 
L 109.588995 16.995221 
L 102.271483 15.583876 
L 97.08279 14.800921 
L 90.676296 14.0789 
L 85.480026 13.689457 
L 82.130639 13.530854 
L 74.788899 13.435513 
L 70.067145 13.557102 
L 66.77717 13.726622 
L 59.678967 14.330872 
L 54.630027 14.960798 
L 48.194221 16.008555 
L 42.014508 17.277769 
L 34.50724 19.176108 
L 29.038369 20.813193 
L 24.340353 22.396674 
L 17.805164 24.882331 
L 11.612025 27.556044 
L 11.612025 27.556044 
" clip-path="url(#p0431613159)" style="fill: none; stroke: #0000ff; stroke-width: 1.5; stroke-linecap: square"/>
   </g>
   <g id="line2d_59">
    <path d="M 75.250261 171.796815 
L 11.612025 310.848897 
L 11.612025 310.848897 
" clip-path="url(#p0431613159)" style="fill: none; stroke: #ff0000; stroke-width: 1.5; stroke-linecap: square"/>
   </g>
   <g id="line2d_60">
    <path d="M 77.979135 171.603298 
L 160.603542 300.283187 
L 160.603542 300.283187 
" clip-path="url(#p0431613159)" style="fill: none; stroke: #ff0000; stroke-width: 1.5; stroke-linecap: square"/>
   </g>
   <g id="line2d_61">
    <path d="M 79.290713 169.20247 
L 232.213264 169.20247 
L 232.213264 169.20247 
" clip-path="url(#p0431613159)" style="fill: none; stroke: #ff0000; stroke-width: 1.5; stroke-linecap: square"/>
   </g>
   <g id="line2d_62">
    <path d="M 77.979135 166.801643 
L 160.603542 38.121754 
L 160.603542 38.121754 
" clip-path="url(#p0431613159)" style="fill: none; stroke: #ff0000; stroke-width: 1.5; stroke-linecap: square"/>
   </g>
   <g id="line2d_63">
    <path d="M 75.250261 166.608126 
L 11.612025 27.556044 
L 11.612025 27.556044 
" clip-path="url(#p0431613159)" style="fill: none; stroke: #ff0000; stroke-width: 1.5; stroke-linecap: square"/>
   </g>
   <g id="patch_3">
    <path d="M 76.437582 331.2 
L 76.437582 7.2 
" style="fill: none; stroke: #000000; stroke-width: 0.8; stroke-linejoin: miter; stroke-linecap: square"/>
   </g>
   <g id="patch_4">
    <path d="M 7.2 169.20247 
L 236.625289 169.20247 
" style="fill: none; stroke: #000000; stroke-width: 0.8; stroke-linejoin: miter; stroke-linecap: square"/>
   </g>
   <g id="text_11">
    <!-- $R$ -->
    <g transform="translate(81.658555 141.442676) scale(0.14 -0.14)">
     <defs>
      <path id="Cmmi10-52" d="M 313 0 
Q 250 0 250 84 
Q 253 100 262 139 
Q 272 178 289 201 
Q 306 225 331 225 
Q 722 225 878 269 
Q 959 297 997 441 
L 1875 3956 
Q 1888 4019 1888 4044 
Q 1888 4113 1813 4122 
Q 1691 4147 1350 4147 
Q 1288 4147 1288 4231 
Q 1291 4247 1300 4286 
Q 1309 4325 1326 4348 
Q 1344 4372 1369 4372 
L 3309 4372 
Q 3541 4372 3791 4319 
Q 4041 4266 4250 4152 
Q 4459 4038 4593 3848 
Q 4728 3659 4728 3406 
Q 4728 3084 4515 2831 
Q 4303 2578 3978 2408 
Q 3653 2238 3347 2169 
Q 3597 2078 3756 1879 
Q 3916 1681 3916 1422 
Q 3916 1388 3914 1370 
Q 3913 1353 3909 1331 
L 3859 763 
Q 3853 638 3847 550 
Q 3841 463 3841 409 
Q 3841 234 3892 129 
Q 3944 25 4097 25 
Q 4297 25 4448 211 
Q 4600 397 4647 616 
Q 4675 672 4709 672 
L 4769 672 
Q 4831 672 4831 588 
Q 4784 403 4682 237 
Q 4581 72 4426 -34 
Q 4272 -141 4091 -141 
Q 3716 -141 3452 26 
Q 3188 194 3188 550 
Q 3188 684 3213 788 
L 3353 1356 
Q 3378 1434 3378 1538 
Q 3378 1803 3198 1954 
Q 3019 2106 2747 2106 
L 1959 2106 
L 1538 416 
Q 1522 363 1522 325 
Q 1522 259 1600 250 
Q 1722 225 2059 225 
Q 2125 225 2125 141 
Q 2103 50 2090 25 
Q 2078 0 2016 0 
L 313 0 
z
M 1997 2272 
L 2706 2272 
Q 3403 2272 3756 2625 
Q 3919 2788 4014 3039 
Q 4109 3291 4109 3541 
Q 4109 3778 3970 3912 
Q 3831 4047 3626 4097 
Q 3422 4147 3175 4147 
L 2747 4147 
Q 2572 4147 2515 4117 
Q 2459 4088 2413 3928 
L 1997 2272 
z
" transform="scale(0.015625)"/>
     </defs>
     <use xlink:href="#Cmmi10-52" transform="translate(0 0.6875)"/>
    </g>
   </g>
  </g>
 </g>
 <defs>
  <clipPath id="p0431613159">
   <rect x="7.2" y="7.2" width="229.425289" height="324"/>
  </clipPath>
 </defs>
</svg>
