<?xml version="1.0" encoding="utf-8" standalone="no"?>
<!DOCTYPE svg PUBLIC "-//W3C//DTD SVG 1.1//EN"
  "http://www.w3.org/Graphics/SVG/1.1/DTD/svg11.dtd">
<svg xmlns:xlink="http://www.w3.org/1999/xlink" width="338.557141pt" height="337.397538pt" viewBox="0 0 338.557141 337.397538" xmlns="http://www.w3.org/2000/svg" version="1.1">
 <metadata>
  <rdf:RDF xmlns:dc="http://purl.org/dc/elements/1.1/" xmlns:cc="http://creativecommons.org/ns#" xmlns:rdf="http://www.w3.org/1999/02/22-rdf-syntax-ns#">
   <cc:Work>
    <dc:type rdf:resource="http://purl.org/dc/dcmitype/StillImage"/>
    <dc:date>2025-01-22T10:02:18.940997</dc:date>
    <dc:format>image/svg+xml</dc:format>
    <dc:creator>
     <cc:Agent>
      <dc:title>Matplotlib v3.6.2, https://matplotlib.org/</dc:title>
     </cc:Agent>
    </dc:creator>
   </cc:Work>
  </rdf:RDF>
 </metadata>
 <defs>
  <style type="text/css">*{stroke-linejoin: round; stroke-linecap: butt}</style>
 </defs>
 <g id="figure_1">
  <g id="patch_1">
   <path d="M -0 337.397538 
L 338.557141 337.397538 
L 338.557141 0 
L -0 0 
z
" style="fill: #ffffff"/>
  </g>
  <g id="axes_1">
   <g id="patch_2">
    <path d="M 8.359603 330.197538 
L 331.357141 330.197538 
L 331.357141 7.2 
L 8.359603 7.2 
z
" style="fill: #ffffff"/>
   </g>
   <g id="PathCollection_1">
    <path d="M 193.386747 190.827789 
L 196.523864 190.827789 
L 199.660981 190.827789 
L 202.798098 190.827789 
L 205.935214 190.827789 
L 209.072331 190.827789 
L 212.209448 190.827789 
L 215.346564 190.827789 
L 218.483681 190.827789 
L 221.620798 190.827789 
L 224.757915 190.827789 
L 227.895031 190.827789 
L 231.032148 190.827789 
L 234.169265 190.827789 
L 236.363379 189.090028 
L 236.363379 185.952911 
L 236.363379 182.815795 
L 236.363379 179.678678 
L 236.363379 176.541561 
L 236.363379 173.404444 
L 236.363379 170.267328 
L 236.363379 167.130211 
L 236.363379 163.993094 
L 236.363379 160.855977 
L 236.363379 157.718861 
L 236.363379 154.581744 
L 236.363379 151.444627 
L 236.363379 148.30751 
L 234.169265 146.569749 
L 231.032148 146.569749 
L 227.895031 146.569749 
L 224.757915 146.569749 
L 221.620798 146.569749 
L 218.483681 146.569749 
L 215.346564 146.569749 
L 212.209448 146.569749 
L 209.072331 146.569749 
L 205.935214 146.569749 
L 202.798098 146.569749 
L 199.660981 146.569749 
L 196.523864 146.569749 
L 193.386747 146.569749 
L 192.096048 148.30751 
L 192.096048 151.444627 
L 192.096048 154.581744 
L 192.096048 157.718861 
L 192.096048 160.855977 
L 192.096048 163.993094 
L 192.096048 167.130211 
L 192.096048 170.267328 
L 192.096048 173.404444 
L 192.096048 176.541561 
L 192.096048 179.678678 
L 192.096048 182.815795 
L 192.096048 185.952911 
L 192.096048 189.090028 
z
" clip-path="url(#pd181da6d4f)" style="fill: #add8e6"/>
   </g>
   <g id="PathCollection_2">
    <path d="M 193.386747 190.827789 
L 196.523864 190.827789 
L 199.660981 190.827789 
L 202.798098 190.827789 
L 205.935214 190.827789 
L 209.072331 190.827789 
L 212.209448 190.827789 
L 215.346564 190.827789 
L 218.483681 190.827789 
L 221.620798 190.827789 
L 224.757915 190.827789 
L 227.895031 190.827789 
L 231.032148 190.827789 
L 234.169265 190.827789 
L 236.363379 189.090028 
L 236.363379 185.952911 
L 236.363379 182.815795 
L 236.363379 179.678678 
L 236.363379 176.541561 
L 236.363379 173.404444 
L 236.363379 170.267328 
L 236.363379 167.130211 
L 236.363379 163.993094 
L 236.363379 160.855977 
L 236.363379 157.718861 
L 236.363379 154.581744 
L 236.363379 151.444627 
L 236.363379 148.30751 
L 234.169265 146.569749 
L 231.032148 146.569749 
L 227.895031 146.569749 
L 224.757915 146.569749 
L 221.620798 146.569749 
L 218.483681 146.569749 
L 215.346564 146.569749 
L 212.209448 146.569749 
L 209.072331 146.569749 
L 205.935214 146.569749 
L 202.798098 146.569749 
L 199.660981 146.569749 
L 196.523864 146.569749 
L 193.386747 146.569749 
L 192.096048 148.30751 
L 192.096048 151.444627 
L 192.096048 154.581744 
L 192.096048 157.718861 
L 192.096048 160.855977 
L 192.096048 163.993094 
L 192.096048 167.130211 
L 192.096048 170.267328 
L 192.096048 173.404444 
L 192.096048 176.541561 
L 192.096048 179.678678 
L 192.096048 182.815795 
L 192.096048 185.952911 
L 192.096048 189.090028 
z
M 192.096048 189.090028 
L 192.096048 185.952911 
L 192.096048 182.815795 
L 192.096048 179.678678 
L 192.096048 176.541561 
L 192.096048 173.404444 
L 192.096048 170.267328 
L 192.096048 167.130211 
L 192.096048 163.993094 
L 192.096048 160.855977 
L 192.096048 157.718861 
L 192.096048 154.581744 
L 192.096048 151.444627 
L 192.096048 148.30751 
L 193.386747 146.569749 
L 196.523864 146.569749 
L 199.660981 146.569749 
L 202.798098 146.569749 
L 205.935214 146.569749 
L 209.072331 146.569749 
L 212.209448 146.569749 
L 215.346564 146.569749 
L 218.483681 146.569749 
L 221.620798 146.569749 
L 224.757915 146.569749 
L 227.895031 146.569749 
L 231.032148 146.569749 
L 234.169265 146.569749 
L 236.363379 148.30751 
L 236.363379 151.444627 
L 236.363379 154.581744 
L 236.363379 157.718861 
L 236.363379 160.855977 
L 236.363379 163.993094 
L 236.363379 167.130211 
L 236.363379 170.267328 
L 236.363379 173.404444 
L 236.363379 176.541561 
L 236.363379 179.678678 
L 236.363379 182.815795 
L 236.363379 185.952911 
L 236.363379 189.090028 
L 234.169265 190.827789 
L 231.032148 190.827789 
L 227.895031 190.827789 
L 224.757915 190.827789 
L 221.620798 190.827789 
L 218.483681 190.827789 
L 215.346564 190.827789 
L 212.209448 190.827789 
L 209.072331 190.827789 
L 205.935214 190.827789 
L 202.798098 190.827789 
L 199.660981 190.827789 
L 196.523864 190.827789 
L 193.386747 190.827789 
z
" clip-path="url(#pd181da6d4f)" style="fill: #add8e6"/>
   </g>
   <g id="PathCollection_3">
    <path d="M 193.386747 190.827789 
L 196.523864 190.827789 
L 199.660981 190.827789 
L 202.798098 190.827789 
L 205.935214 190.827789 
L 209.072331 190.827789 
L 212.209448 190.827789 
L 215.346564 190.827789 
L 218.483681 190.827789 
L 221.620798 190.827789 
L 224.757915 190.827789 
L 227.895031 190.827789 
L 231.032148 190.827789 
L 234.169265 190.827789 
L 236.363379 189.090028 
L 236.363379 185.952911 
L 236.363379 182.815795 
L 236.363379 179.678678 
L 236.363379 176.541561 
L 236.363379 173.404444 
L 236.363379 170.267328 
L 236.363379 167.130211 
L 236.363379 163.993094 
L 236.363379 160.855977 
L 236.363379 157.718861 
L 236.363379 154.581744 
L 236.363379 151.444627 
L 236.363379 148.30751 
L 234.169265 146.569749 
L 231.032148 146.569749 
L 227.895031 146.569749 
L 224.757915 146.569749 
L 221.620798 146.569749 
L 218.483681 146.569749 
L 215.346564 146.569749 
L 212.209448 146.569749 
L 209.072331 146.569749 
L 205.935214 146.569749 
L 202.798098 146.569749 
L 199.660981 146.569749 
L 196.523864 146.569749 
L 193.386747 146.569749 
L 192.096048 148.30751 
L 192.096048 151.444627 
L 192.096048 154.581744 
L 192.096048 157.718861 
L 192.096048 160.855977 
L 192.096048 163.993094 
L 192.096048 167.130211 
L 192.096048 170.267328 
L 192.096048 173.404444 
L 192.096048 176.541561 
L 192.096048 179.678678 
L 192.096048 182.815795 
L 192.096048 185.952911 
L 192.096048 189.090028 
z
M 192.096048 189.090028 
L 192.096048 185.952911 
L 192.096048 182.815795 
L 192.096048 179.678678 
L 192.096048 176.541561 
L 192.096048 173.404444 
L 192.096048 170.267328 
L 192.096048 167.130211 
L 192.096048 163.993094 
L 192.096048 160.855977 
L 192.096048 157.718861 
L 192.096048 154.581744 
L 192.096048 151.444627 
L 192.096048 148.30751 
L 193.386747 146.569749 
L 196.523864 146.569749 
L 199.660981 146.569749 
L 202.798098 146.569749 
L 205.935214 146.569749 
L 209.072331 146.569749 
L 212.209448 146.569749 
L 215.346564 146.569749 
L 218.483681 146.569749 
L 221.620798 146.569749 
L 224.757915 146.569749 
L 227.895031 146.569749 
L 231.032148 146.569749 
L 234.169265 146.569749 
L 236.363379 148.30751 
L 236.363379 151.444627 
L 236.363379 154.581744 
L 236.363379 157.718861 
L 236.363379 160.855977 
L 236.363379 163.993094 
L 236.363379 167.130211 
L 236.363379 170.267328 
L 236.363379 173.404444 
L 236.363379 176.541561 
L 236.363379 179.678678 
L 236.363379 182.815795 
L 236.363379 185.952911 
L 236.363379 189.090028 
L 234.169265 190.827789 
L 231.032148 190.827789 
L 227.895031 190.827789 
L 224.757915 190.827789 
L 221.620798 190.827789 
L 218.483681 190.827789 
L 215.346564 190.827789 
L 212.209448 190.827789 
L 209.072331 190.827789 
L 205.935214 190.827789 
L 202.798098 190.827789 
L 199.660981 190.827789 
L 196.523864 190.827789 
L 193.386747 190.827789 
z
" clip-path="url(#pd181da6d4f)" style="fill: #ffffff"/>
   </g>
   <g id="PathCollection_4">
    <path d="M 17.70821 323.986047 
L 20.845327 323.986047 
L 23.982444 323.986047 
L 27.119561 323.986047 
L 30.256677 323.986047 
L 33.393794 323.986047 
L 36.530911 323.986047 
L 39.668028 323.986047 
L 42.805144 323.986047 
L 45.942261 323.986047 
L 49.079378 323.986047 
L 52.216495 323.986047 
L 55.353611 323.986047 
L 58.490728 323.986047 
L 61.627845 323.986047 
L 64.764961 323.986047 
L 67.902078 323.986047 
L 71.039195 323.986047 
L 74.176312 323.986047 
L 77.313428 323.986047 
L 80.450545 323.986047 
L 83.587662 323.986047 
L 86.724779 323.986047 
L 89.861895 323.986047 
L 92.999012 323.986047 
L 96.136129 323.986047 
L 99.273245 323.986047 
L 102.410362 323.986047 
L 105.547479 323.986047 
L 108.684596 323.986047 
L 111.821712 323.986047 
L 114.958829 323.986047 
L 118.095946 323.986047 
L 121.233063 323.986047 
L 124.370179 323.986047 
L 127.507296 323.986047 
L 130.644413 323.986047 
L 133.781529 323.986047 
L 136.918646 323.986047 
L 140.055763 323.986047 
L 143.19288 323.986047 
L 146.329996 323.986047 
L 149.467113 323.986047 
L 152.60423 323.986047 
L 155.741347 323.986047 
L 158.878463 323.986047 
L 162.01558 323.986047 
L 165.152697 323.986047 
L 168.289813 323.986047 
L 171.42693 323.986047 
L 174.564047 323.986047 
L 177.701164 323.986047 
L 180.83828 323.986047 
L 183.975397 323.986047 
L 187.112514 323.986047 
L 190.249631 323.986047 
L 193.386747 323.986047 
L 196.523864 323.986047 
L 199.660981 323.986047 
L 202.798098 323.986047 
L 205.935214 323.986047 
L 209.072331 323.986047 
L 212.209448 323.986047 
L 215.346564 323.986047 
L 218.483681 323.986047 
L 221.620798 323.986047 
L 224.757915 323.986047 
L 227.895031 323.986047 
L 231.032148 323.986047 
L 234.169265 323.986047 
L 237.306382 323.986047 
L 240.443498 323.986047 
L 243.580615 323.986047 
L 246.717732 323.986047 
L 249.854848 323.986047 
L 252.991965 323.986047 
L 256.129082 323.986047 
L 259.266199 323.986047 
L 262.403315 323.986047 
L 265.540432 323.986047 
L 268.677549 323.986047 
L 271.814666 323.986047 
L 274.951782 323.986047 
L 278.088899 323.986047 
L 281.226016 323.986047 
L 284.363132 323.986047 
L 287.500249 323.986047 
L 290.637366 323.986047 
L 293.774483 323.986047 
L 296.911599 323.986047 
L 300.048716 323.986047 
L 303.185833 323.986047 
L 306.32295 323.986047 
L 309.460066 323.986047 
L 312.597183 323.986047 
L 315.7343 323.986047 
L 318.871417 323.986047 
L 322.008533 323.986047 
L 325.14565 323.986047 
L 325.14565 320.848931 
L 325.14565 317.711814 
L 325.14565 314.574697 
L 325.14565 311.43758 
L 325.14565 308.300464 
L 325.14565 305.163347 
L 325.14565 302.02623 
L 325.14565 298.889114 
L 325.14565 295.751997 
L 325.14565 292.61488 
L 325.14565 289.477763 
L 325.14565 286.340647 
L 325.14565 283.20353 
L 325.14565 280.066413 
L 325.14565 276.929296 
L 325.14565 273.79218 
L 325.14565 270.655063 
L 325.14565 267.517946 
L 325.14565 264.380829 
L 325.14565 261.243713 
L 325.14565 258.106596 
L 325.14565 254.969479 
L 325.14565 251.832363 
L 325.14565 248.695246 
L 325.14565 245.558129 
L 325.14565 242.421012 
L 325.14565 239.283896 
L 325.14565 236.146779 
L 325.14565 233.009662 
L 325.14565 229.872545 
L 325.14565 226.735429 
L 325.14565 223.598312 
L 325.14565 220.461195 
L 325.14565 217.324079 
L 325.14565 214.186962 
L 325.14565 211.049845 
L 325.14565 207.912728 
L 325.14565 204.775612 
L 325.14565 201.638495 
L 325.14565 198.501378 
L 325.14565 195.364261 
L 325.14565 192.227145 
L 325.14565 189.090028 
L 325.14565 185.952911 
L 325.14565 182.815795 
L 325.14565 179.678678 
L 325.14565 176.541561 
L 325.14565 173.404444 
L 325.14565 170.267328 
L 325.14565 167.130211 
L 325.14565 163.993094 
L 325.14565 160.855977 
L 325.14565 157.718861 
L 325.14565 154.581744 
L 325.14565 151.444627 
L 325.14565 148.30751 
L 325.14565 145.170394 
L 325.14565 142.033277 
L 325.14565 138.89616 
L 325.14565 135.759044 
L 325.14565 132.621927 
L 325.14565 129.48481 
L 325.14565 126.347693 
L 325.14565 123.210577 
L 325.14565 120.07346 
L 325.14565 116.936343 
L 325.14565 113.799226 
L 325.14565 110.66211 
L 325.14565 107.524993 
L 325.14565 104.387876 
L 325.14565 101.25076 
L 325.14565 98.113643 
L 325.14565 94.976526 
L 325.14565 91.839409 
L 325.14565 88.702293 
L 325.14565 85.565176 
L 325.14565 82.428059 
L 325.14565 79.290942 
L 325.14565 76.153826 
L 325.14565 73.016709 
L 325.14565 69.879592 
L 325.14565 66.742476 
L 325.14565 63.605359 
L 325.14565 60.468242 
L 325.14565 57.331125 
L 325.14565 54.194009 
L 325.14565 51.056892 
L 325.14565 47.919775 
L 325.14565 44.782658 
L 325.14565 41.645542 
L 325.14565 38.508425 
L 325.14565 35.371308 
L 325.14565 32.234192 
L 325.14565 29.097075 
L 325.14565 25.959958 
L 325.14565 22.822841 
L 325.14565 19.685725 
L 325.14565 16.548608 
L 325.14565 13.411491 
L 322.008533 13.411491 
L 318.871417 13.411491 
L 315.7343 13.411491 
L 312.597183 13.411491 
L 309.460066 13.411491 
L 306.32295 13.411491 
L 303.185833 13.411491 
L 300.048716 13.411491 
L 296.911599 13.411491 
L 293.774483 13.411491 
L 290.637366 13.411491 
L 287.500249 13.411491 
L 284.363132 13.411491 
L 281.226016 13.411491 
L 278.088899 13.411491 
L 274.951782 13.411491 
L 271.814666 13.411491 
L 268.677549 13.411491 
L 265.540432 13.411491 
L 262.403315 13.411491 
L 259.266199 13.411491 
L 256.129082 13.411491 
L 252.991965 13.411491 
L 249.854848 13.411491 
L 246.717732 13.411491 
L 243.580615 13.411491 
L 240.443498 13.411491 
L 237.306382 13.411491 
L 234.169265 13.411491 
L 231.032148 13.411491 
L 227.895031 13.411491 
L 224.757915 13.411491 
L 221.620798 13.411491 
L 218.483681 13.411491 
L 215.346564 13.411491 
L 212.209448 13.411491 
L 209.072331 13.411491 
L 205.935214 13.411491 
L 202.798098 13.411491 
L 199.660981 13.411491 
L 196.523864 13.411491 
L 193.386747 13.411491 
L 190.249631 13.411491 
L 187.112514 13.411491 
L 183.975397 13.411491 
L 180.83828 13.411491 
L 177.701164 13.411491 
L 174.564047 13.411491 
L 171.42693 13.411491 
L 168.289813 13.411491 
L 165.152697 13.411491 
L 162.01558 13.411491 
L 158.878463 13.411491 
L 155.741347 13.411491 
L 152.60423 13.411491 
L 149.467113 13.411491 
L 146.329996 13.411491 
L 143.19288 13.411491 
L 140.055763 13.411491 
L 136.918646 13.411491 
L 133.781529 13.411491 
L 130.644413 13.411491 
L 127.507296 13.411491 
L 124.370179 13.411491 
L 121.233063 13.411491 
L 118.095946 13.411491 
L 114.958829 13.411491 
L 111.821712 13.411491 
L 108.684596 13.411491 
L 105.547479 13.411491 
L 102.410362 13.411491 
L 99.273245 13.411491 
L 96.136129 13.411491 
L 92.999012 13.411491 
L 89.861895 13.411491 
L 86.724779 13.411491 
L 83.587662 13.411491 
L 80.450545 13.411491 
L 77.313428 13.411491 
L 74.176312 13.411491 
L 71.039195 13.411491 
L 67.902078 13.411491 
L 64.764961 13.411491 
L 61.627845 13.411491 
L 58.490728 13.411491 
L 55.353611 13.411491 
L 52.216495 13.411491 
L 49.079378 13.411491 
L 45.942261 13.411491 
L 42.805144 13.411491 
L 39.668028 13.411491 
L 36.530911 13.411491 
L 33.393794 13.411491 
L 30.256677 13.411491 
L 27.119561 13.411491 
L 23.982444 13.411491 
L 20.845327 13.411491 
L 17.70821 13.411491 
L 14.571094 13.411491 
L 14.571094 16.548608 
L 14.571094 19.685725 
L 14.571094 22.822841 
L 14.571094 25.959958 
L 14.571094 29.097075 
L 14.571094 32.234192 
L 14.571094 35.371308 
L 14.571094 38.508425 
L 14.571094 41.645542 
L 14.571094 44.782658 
L 14.571094 47.919775 
L 14.571094 51.056892 
L 14.571094 54.194009 
L 14.571094 57.331125 
L 14.571094 60.468242 
L 14.571094 63.605359 
L 14.571094 66.742476 
L 14.571094 69.879592 
L 14.571094 73.016709 
L 14.571094 76.153826 
L 14.571094 79.290942 
L 14.571094 82.428059 
L 14.571094 85.565176 
L 14.571094 88.702293 
L 14.571094 91.839409 
L 14.571094 94.976526 
L 14.571094 98.113643 
L 14.571094 101.25076 
L 14.571094 104.387876 
L 14.571094 107.524993 
L 14.571094 110.66211 
L 14.571094 113.799226 
L 14.571094 116.936343 
L 14.571094 120.07346 
L 14.571094 123.210577 
L 14.571094 126.347693 
L 14.571094 129.48481 
L 14.571094 132.621927 
L 14.571094 135.759044 
L 14.571094 138.89616 
L 14.571094 142.033277 
L 14.571094 145.170394 
L 14.571094 148.30751 
L 14.571094 151.444627 
L 14.571094 154.581744 
L 14.571094 157.718861 
L 14.571094 160.855977 
L 14.571094 163.993094 
L 14.571094 167.130211 
L 14.571094 170.267328 
L 14.571094 173.404444 
L 14.571094 176.541561 
L 14.571094 179.678678 
L 14.571094 182.815795 
L 14.571094 185.952911 
L 14.571094 189.090028 
L 14.571094 192.227145 
L 14.571094 195.364261 
L 14.571094 198.501378 
L 14.571094 201.638495 
L 14.571094 204.775612 
L 14.571094 207.912728 
L 14.571094 211.049845 
L 14.571094 214.186962 
L 14.571094 217.324079 
L 14.571094 220.461195 
L 14.571094 223.598312 
L 14.571094 226.735429 
L 14.571094 229.872545 
L 14.571094 233.009662 
L 14.571094 236.146779 
L 14.571094 239.283896 
L 14.571094 242.421012 
L 14.571094 245.558129 
L 14.571094 248.695246 
L 14.571094 251.832363 
L 14.571094 254.969479 
L 14.571094 258.106596 
L 14.571094 261.243713 
L 14.571094 264.380829 
L 14.571094 267.517946 
L 14.571094 270.655063 
L 14.571094 273.79218 
L 14.571094 276.929296 
L 14.571094 280.066413 
L 14.571094 283.20353 
L 14.571094 286.340647 
L 14.571094 289.477763 
L 14.571094 292.61488 
L 14.571094 295.751997 
L 14.571094 298.889114 
L 14.571094 302.02623 
L 14.571094 305.163347 
L 14.571094 308.300464 
L 14.571094 311.43758 
L 14.571094 314.574697 
L 14.571094 317.711814 
L 14.571094 320.848931 
L 14.571094 323.986047 
L 17.70821 323.986047 
z
M 192.096048 189.090028 
L 192.096048 185.952911 
L 192.096048 182.815795 
L 192.096048 179.678678 
L 192.096048 176.541561 
L 192.096048 173.404444 
L 192.096048 170.267328 
L 192.096048 167.130211 
L 192.096048 163.993094 
L 192.096048 160.855977 
L 192.096048 157.718861 
L 192.096048 154.581744 
L 192.096048 151.444627 
L 192.096048 148.30751 
L 193.386747 146.569749 
L 196.523864 146.569749 
L 199.660981 146.569749 
L 202.798098 146.569749 
L 205.935214 146.569749 
L 209.072331 146.569749 
L 212.209448 146.569749 
L 215.346564 146.569749 
L 218.483681 146.569749 
L 221.620798 146.569749 
L 224.757915 146.569749 
L 227.895031 146.569749 
L 231.032148 146.569749 
L 234.169265 146.569749 
L 236.363379 148.30751 
L 236.363379 151.444627 
L 236.363379 154.581744 
L 236.363379 157.718861 
L 236.363379 160.855977 
L 236.363379 163.993094 
L 236.363379 167.130211 
L 236.363379 170.267328 
L 236.363379 173.404444 
L 236.363379 176.541561 
L 236.363379 179.678678 
L 236.363379 182.815795 
L 236.363379 185.952911 
L 236.363379 189.090028 
L 234.169265 190.827789 
L 231.032148 190.827789 
L 227.895031 190.827789 
L 224.757915 190.827789 
L 221.620798 190.827789 
L 218.483681 190.827789 
L 215.346564 190.827789 
L 212.209448 190.827789 
L 209.072331 190.827789 
L 205.935214 190.827789 
L 202.798098 190.827789 
L 199.660981 190.827789 
L 196.523864 190.827789 
L 193.386747 190.827789 
L 192.096048 189.090028 
z
" clip-path="url(#pd181da6d4f)" style="fill: none"/>
   </g>
   <g id="matplotlib.axis_1">
    <g id="xtick_1">
     <g id="line2d_1">
      <defs>
       <path id="m1191b8f41d" d="M 0 0 
L 0 3.5 
" style="stroke: #000000; stroke-width: 0.8"/>
      </defs>
      <g>
       <use xlink:href="#m1191b8f41d" x="14.571094" y="235.25046" style="stroke: #000000; stroke-width: 0.8"/>
      </g>
     </g>
     <g id="text_1">
      <!-- −2 -->
      <g transform="translate(7.2 249.848897) scale(0.1 -0.1)">
       <defs>
        <path id="DejaVuSans-2212" d="M 678 2272 
L 4684 2272 
L 4684 1741 
L 678 1741 
L 678 2272 
z
" transform="scale(0.015625)"/>
        <path id="DejaVuSans-32" d="M 1228 531 
L 3431 531 
L 3431 0 
L 469 0 
L 469 531 
Q 828 903 1448 1529 
Q 2069 2156 2228 2338 
Q 2531 2678 2651 2914 
Q 2772 3150 2772 3378 
Q 2772 3750 2511 3984 
Q 2250 4219 1831 4219 
Q 1534 4219 1204 4116 
Q 875 4013 500 3803 
L 500 4441 
Q 881 4594 1212 4672 
Q 1544 4750 1819 4750 
Q 2544 4750 2975 4387 
Q 3406 4025 3406 3419 
Q 3406 3131 3298 2873 
Q 3191 2616 2906 2266 
Q 2828 2175 2409 1742 
Q 1991 1309 1228 531 
z
" transform="scale(0.015625)"/>
       </defs>
       <use xlink:href="#DejaVuSans-2212"/>
       <use xlink:href="#DejaVuSans-32" x="83.789062"/>
      </g>
     </g>
    </g>
    <g id="xtick_2">
     <g id="line2d_2">
      <g>
       <use xlink:href="#m1191b8f41d" x="58.938887" y="235.25046" style="stroke: #000000; stroke-width: 0.8"/>
      </g>
     </g>
     <g id="text_2">
      <!-- −1 -->
      <g transform="translate(51.567794 249.848897) scale(0.1 -0.1)">
       <defs>
        <path id="DejaVuSans-31" d="M 794 531 
L 1825 531 
L 1825 4091 
L 703 3866 
L 703 4441 
L 1819 4666 
L 2450 4666 
L 2450 531 
L 3481 531 
L 3481 0 
L 794 0 
L 794 531 
z
" transform="scale(0.015625)"/>
       </defs>
       <use xlink:href="#DejaVuSans-2212"/>
       <use xlink:href="#DejaVuSans-31" x="83.789062"/>
      </g>
     </g>
    </g>
    <g id="xtick_3">
     <g id="line2d_3">
      <g>
       <use xlink:href="#m1191b8f41d" x="103.306681" y="235.25046" style="stroke: #000000; stroke-width: 0.8"/>
      </g>
     </g>
    </g>
    <g id="xtick_4">
     <g id="line2d_4">
      <g>
       <use xlink:href="#m1191b8f41d" x="147.674475" y="235.25046" style="stroke: #000000; stroke-width: 0.8"/>
      </g>
     </g>
     <g id="text_3">
      <!-- 1 -->
      <g transform="translate(144.493225 249.848897) scale(0.1 -0.1)">
       <use xlink:href="#DejaVuSans-31"/>
      </g>
     </g>
    </g>
    <g id="xtick_5">
     <g id="line2d_5">
      <g>
       <use xlink:href="#m1191b8f41d" x="192.042269" y="235.25046" style="stroke: #000000; stroke-width: 0.8"/>
      </g>
     </g>
     <g id="text_4">
      <!-- 2 -->
      <g transform="translate(188.861019 249.848897) scale(0.1 -0.1)">
       <use xlink:href="#DejaVuSans-32"/>
      </g>
     </g>
    </g>
    <g id="xtick_6">
     <g id="line2d_6">
      <g>
       <use xlink:href="#m1191b8f41d" x="236.410062" y="235.25046" style="stroke: #000000; stroke-width: 0.8"/>
      </g>
     </g>
     <g id="text_5">
      <!-- 3 -->
      <g transform="translate(233.228812 249.848897) scale(0.1 -0.1)">
       <defs>
        <path id="DejaVuSans-33" d="M 2597 2516 
Q 3050 2419 3304 2112 
Q 3559 1806 3559 1356 
Q 3559 666 3084 287 
Q 2609 -91 1734 -91 
Q 1441 -91 1130 -33 
Q 819 25 488 141 
L 488 750 
Q 750 597 1062 519 
Q 1375 441 1716 441 
Q 2309 441 2620 675 
Q 2931 909 2931 1356 
Q 2931 1769 2642 2001 
Q 2353 2234 1838 2234 
L 1294 2234 
L 1294 2753 
L 1863 2753 
Q 2328 2753 2575 2939 
Q 2822 3125 2822 3475 
Q 2822 3834 2567 4026 
Q 2313 4219 1838 4219 
Q 1578 4219 1281 4162 
Q 984 4106 628 3988 
L 628 4550 
Q 988 4650 1302 4700 
Q 1616 4750 1894 4750 
Q 2613 4750 3031 4423 
Q 3450 4097 3450 3541 
Q 3450 3153 3228 2886 
Q 3006 2619 2597 2516 
z
" transform="scale(0.015625)"/>
       </defs>
       <use xlink:href="#DejaVuSans-33"/>
      </g>
     </g>
    </g>
    <g id="xtick_7">
     <g id="line2d_7">
      <g>
       <use xlink:href="#m1191b8f41d" x="280.777856" y="235.25046" style="stroke: #000000; stroke-width: 0.8"/>
      </g>
     </g>
     <g id="text_6">
      <!-- 4 -->
      <g transform="translate(277.596606 249.848897) scale(0.1 -0.1)">
       <defs>
        <path id="DejaVuSans-34" d="M 2419 4116 
L 825 1625 
L 2419 1625 
L 2419 4116 
z
M 2253 4666 
L 3047 4666 
L 3047 1625 
L 3713 1625 
L 3713 1100 
L 3047 1100 
L 3047 0 
L 2419 0 
L 2419 1100 
L 313 1100 
L 313 1709 
L 2253 4666 
z
" transform="scale(0.015625)"/>
       </defs>
       <use xlink:href="#DejaVuSans-34"/>
      </g>
     </g>
    </g>
    <g id="xtick_8">
     <g id="line2d_8">
      <g>
       <use xlink:href="#m1191b8f41d" x="325.14565" y="235.25046" style="stroke: #000000; stroke-width: 0.8"/>
      </g>
     </g>
     <g id="text_7">
      <!-- 5 -->
      <g transform="translate(321.9644 249.848897) scale(0.1 -0.1)">
       <defs>
        <path id="DejaVuSans-35" d="M 691 4666 
L 3169 4666 
L 3169 4134 
L 1269 4134 
L 1269 2991 
Q 1406 3038 1543 3061 
Q 1681 3084 1819 3084 
Q 2600 3084 3056 2656 
Q 3513 2228 3513 1497 
Q 3513 744 3044 326 
Q 2575 -91 1722 -91 
Q 1428 -91 1123 -41 
Q 819 9 494 109 
L 494 744 
Q 775 591 1075 516 
Q 1375 441 1709 441 
Q 2250 441 2565 725 
Q 2881 1009 2881 1497 
Q 2881 1984 2565 2268 
Q 2250 2553 1709 2553 
Q 1456 2553 1204 2497 
Q 953 2441 691 2322 
L 691 4666 
z
" transform="scale(0.015625)"/>
       </defs>
       <use xlink:href="#DejaVuSans-35"/>
      </g>
     </g>
    </g>
    <g id="xtick_9">
     <g id="line2d_9">
      <defs>
       <path id="m86e72a1f8c" d="M 0 0 
L 0 2 
" style="stroke: #000000; stroke-width: 0.6"/>
      </defs>
      <g>
       <use xlink:href="#m86e72a1f8c" x="23.444652" y="235.25046" style="stroke: #000000; stroke-width: 0.6"/>
      </g>
     </g>
    </g>
    <g id="xtick_10">
     <g id="line2d_10">
      <g>
       <use xlink:href="#m86e72a1f8c" x="32.318211" y="235.25046" style="stroke: #000000; stroke-width: 0.6"/>
      </g>
     </g>
    </g>
    <g id="xtick_11">
     <g id="line2d_11">
      <g>
       <use xlink:href="#m86e72a1f8c" x="41.19177" y="235.25046" style="stroke: #000000; stroke-width: 0.6"/>
      </g>
     </g>
    </g>
    <g id="xtick_12">
     <g id="line2d_12">
      <g>
       <use xlink:href="#m86e72a1f8c" x="50.065329" y="235.25046" style="stroke: #000000; stroke-width: 0.6"/>
      </g>
     </g>
    </g>
    <g id="xtick_13">
     <g id="line2d_13">
      <g>
       <use xlink:href="#m86e72a1f8c" x="67.812446" y="235.25046" style="stroke: #000000; stroke-width: 0.6"/>
      </g>
     </g>
    </g>
    <g id="xtick_14">
     <g id="line2d_14">
      <g>
       <use xlink:href="#m86e72a1f8c" x="76.686005" y="235.25046" style="stroke: #000000; stroke-width: 0.6"/>
      </g>
     </g>
    </g>
    <g id="xtick_15">
     <g id="line2d_15">
      <g>
       <use xlink:href="#m86e72a1f8c" x="85.559564" y="235.25046" style="stroke: #000000; stroke-width: 0.6"/>
      </g>
     </g>
    </g>
    <g id="xtick_16">
     <g id="line2d_16">
      <g>
       <use xlink:href="#m86e72a1f8c" x="94.433122" y="235.25046" style="stroke: #000000; stroke-width: 0.6"/>
      </g>
     </g>
    </g>
    <g id="xtick_17">
     <g id="line2d_17">
      <g>
       <use xlink:href="#m86e72a1f8c" x="112.18024" y="235.25046" style="stroke: #000000; stroke-width: 0.6"/>
      </g>
     </g>
    </g>
    <g id="xtick_18">
     <g id="line2d_18">
      <g>
       <use xlink:href="#m86e72a1f8c" x="121.053799" y="235.25046" style="stroke: #000000; stroke-width: 0.6"/>
      </g>
     </g>
    </g>
    <g id="xtick_19">
     <g id="line2d_19">
      <g>
       <use xlink:href="#m86e72a1f8c" x="129.927357" y="235.25046" style="stroke: #000000; stroke-width: 0.6"/>
      </g>
     </g>
    </g>
    <g id="xtick_20">
     <g id="line2d_20">
      <g>
       <use xlink:href="#m86e72a1f8c" x="138.800916" y="235.25046" style="stroke: #000000; stroke-width: 0.6"/>
      </g>
     </g>
    </g>
    <g id="xtick_21">
     <g id="line2d_21">
      <g>
       <use xlink:href="#m86e72a1f8c" x="156.548034" y="235.25046" style="stroke: #000000; stroke-width: 0.6"/>
      </g>
     </g>
    </g>
    <g id="xtick_22">
     <g id="line2d_22">
      <g>
       <use xlink:href="#m86e72a1f8c" x="165.421592" y="235.25046" style="stroke: #000000; stroke-width: 0.6"/>
      </g>
     </g>
    </g>
    <g id="xtick_23">
     <g id="line2d_23">
      <g>
       <use xlink:href="#m86e72a1f8c" x="174.295151" y="235.25046" style="stroke: #000000; stroke-width: 0.6"/>
      </g>
     </g>
    </g>
    <g id="xtick_24">
     <g id="line2d_24">
      <g>
       <use xlink:href="#m86e72a1f8c" x="183.16871" y="235.25046" style="stroke: #000000; stroke-width: 0.6"/>
      </g>
     </g>
    </g>
    <g id="xtick_25">
     <g id="line2d_25">
      <g>
       <use xlink:href="#m86e72a1f8c" x="200.915827" y="235.25046" style="stroke: #000000; stroke-width: 0.6"/>
      </g>
     </g>
    </g>
    <g id="xtick_26">
     <g id="line2d_26">
      <g>
       <use xlink:href="#m86e72a1f8c" x="209.789386" y="235.25046" style="stroke: #000000; stroke-width: 0.6"/>
      </g>
     </g>
    </g>
    <g id="xtick_27">
     <g id="line2d_27">
      <g>
       <use xlink:href="#m86e72a1f8c" x="218.662945" y="235.25046" style="stroke: #000000; stroke-width: 0.6"/>
      </g>
     </g>
    </g>
    <g id="xtick_28">
     <g id="line2d_28">
      <g>
       <use xlink:href="#m86e72a1f8c" x="227.536504" y="235.25046" style="stroke: #000000; stroke-width: 0.6"/>
      </g>
     </g>
    </g>
    <g id="xtick_29">
     <g id="line2d_29">
      <g>
       <use xlink:href="#m86e72a1f8c" x="245.283621" y="235.25046" style="stroke: #000000; stroke-width: 0.6"/>
      </g>
     </g>
    </g>
    <g id="xtick_30">
     <g id="line2d_30">
      <g>
       <use xlink:href="#m86e72a1f8c" x="254.15718" y="235.25046" style="stroke: #000000; stroke-width: 0.6"/>
      </g>
     </g>
    </g>
    <g id="xtick_31">
     <g id="line2d_31">
      <g>
       <use xlink:href="#m86e72a1f8c" x="263.030739" y="235.25046" style="stroke: #000000; stroke-width: 0.6"/>
      </g>
     </g>
    </g>
    <g id="xtick_32">
     <g id="line2d_32">
      <g>
       <use xlink:href="#m86e72a1f8c" x="271.904297" y="235.25046" style="stroke: #000000; stroke-width: 0.6"/>
      </g>
     </g>
    </g>
    <g id="xtick_33">
     <g id="line2d_33">
      <g>
       <use xlink:href="#m86e72a1f8c" x="289.651415" y="235.25046" style="stroke: #000000; stroke-width: 0.6"/>
      </g>
     </g>
    </g>
    <g id="xtick_34">
     <g id="line2d_34">
      <g>
       <use xlink:href="#m86e72a1f8c" x="298.524974" y="235.25046" style="stroke: #000000; stroke-width: 0.6"/>
      </g>
     </g>
    </g>
    <g id="xtick_35">
     <g id="line2d_35">
      <g>
       <use xlink:href="#m86e72a1f8c" x="307.398532" y="235.25046" style="stroke: #000000; stroke-width: 0.6"/>
      </g>
     </g>
    </g>
    <g id="xtick_36">
     <g id="line2d_36">
      <g>
       <use xlink:href="#m86e72a1f8c" x="316.272091" y="235.25046" style="stroke: #000000; stroke-width: 0.6"/>
      </g>
     </g>
    </g>
   </g>
   <g id="matplotlib.axis_2">
    <g id="ytick_1">
     <g id="line2d_37">
      <defs>
       <path id="mbe1c28a7e9" d="M 0 0 
L -3.5 0 
" style="stroke: #000000; stroke-width: 0.8"/>
      </defs>
      <g>
       <use xlink:href="#mbe1c28a7e9" x="103.306681" y="323.986047" style="stroke: #000000; stroke-width: 0.8"/>
      </g>
     </g>
     <g id="text_8">
      <!-- −2 -->
      <g transform="translate(81.564494 327.785266) scale(0.1 -0.1)">
       <use xlink:href="#DejaVuSans-2212"/>
       <use xlink:href="#DejaVuSans-32" x="83.789062"/>
      </g>
     </g>
    </g>
    <g id="ytick_2">
     <g id="line2d_38">
      <g>
       <use xlink:href="#mbe1c28a7e9" x="103.306681" y="279.618254" style="stroke: #000000; stroke-width: 0.8"/>
      </g>
     </g>
     <g id="text_9">
      <!-- −1 -->
      <g transform="translate(81.564494 283.417472) scale(0.1 -0.1)">
       <use xlink:href="#DejaVuSans-2212"/>
       <use xlink:href="#DejaVuSans-31" x="83.789062"/>
      </g>
     </g>
    </g>
    <g id="ytick_3">
     <g id="line2d_39">
      <g>
       <use xlink:href="#mbe1c28a7e9" x="103.306681" y="235.25046" style="stroke: #000000; stroke-width: 0.8"/>
      </g>
     </g>
    </g>
    <g id="ytick_4">
     <g id="line2d_40">
      <g>
       <use xlink:href="#mbe1c28a7e9" x="103.306681" y="190.882666" style="stroke: #000000; stroke-width: 0.8"/>
      </g>
     </g>
     <g id="text_10">
      <!-- 1 -->
      <g transform="translate(89.944181 194.681885) scale(0.1 -0.1)">
       <use xlink:href="#DejaVuSans-31"/>
      </g>
     </g>
    </g>
    <g id="ytick_5">
     <g id="line2d_41">
      <g>
       <use xlink:href="#mbe1c28a7e9" x="103.306681" y="146.514872" style="stroke: #000000; stroke-width: 0.8"/>
      </g>
     </g>
     <g id="text_11">
      <!-- 2 -->
      <g transform="translate(89.944181 150.314091) scale(0.1 -0.1)">
       <use xlink:href="#DejaVuSans-32"/>
      </g>
     </g>
    </g>
    <g id="ytick_6">
     <g id="line2d_42">
      <g>
       <use xlink:href="#mbe1c28a7e9" x="103.306681" y="102.147079" style="stroke: #000000; stroke-width: 0.8"/>
      </g>
     </g>
     <g id="text_12">
      <!-- 3 -->
      <g transform="translate(89.944181 105.946297) scale(0.1 -0.1)">
       <use xlink:href="#DejaVuSans-33"/>
      </g>
     </g>
    </g>
    <g id="ytick_7">
     <g id="line2d_43">
      <g>
       <use xlink:href="#mbe1c28a7e9" x="103.306681" y="57.779285" style="stroke: #000000; stroke-width: 0.8"/>
      </g>
     </g>
     <g id="text_13">
      <!-- 4 -->
      <g transform="translate(89.944181 61.578504) scale(0.1 -0.1)">
       <use xlink:href="#DejaVuSans-34"/>
      </g>
     </g>
    </g>
    <g id="ytick_8">
     <g id="line2d_44">
      <g>
       <use xlink:href="#mbe1c28a7e9" x="103.306681" y="13.411491" style="stroke: #000000; stroke-width: 0.8"/>
      </g>
     </g>
     <g id="text_14">
      <!-- 5 -->
      <g transform="translate(89.944181 17.21071) scale(0.1 -0.1)">
       <use xlink:href="#DejaVuSans-35"/>
      </g>
     </g>
    </g>
    <g id="ytick_9">
     <g id="line2d_45">
      <defs>
       <path id="m1d994b8865" d="M 0 0 
L -2 0 
" style="stroke: #000000; stroke-width: 0.6"/>
      </defs>
      <g>
       <use xlink:href="#m1d994b8865" x="103.306681" y="315.112489" style="stroke: #000000; stroke-width: 0.6"/>
      </g>
     </g>
    </g>
    <g id="ytick_10">
     <g id="line2d_46">
      <g>
       <use xlink:href="#m1d994b8865" x="103.306681" y="306.23893" style="stroke: #000000; stroke-width: 0.6"/>
      </g>
     </g>
    </g>
    <g id="ytick_11">
     <g id="line2d_47">
      <g>
       <use xlink:href="#m1d994b8865" x="103.306681" y="297.365371" style="stroke: #000000; stroke-width: 0.6"/>
      </g>
     </g>
    </g>
    <g id="ytick_12">
     <g id="line2d_48">
      <g>
       <use xlink:href="#m1d994b8865" x="103.306681" y="288.491812" style="stroke: #000000; stroke-width: 0.6"/>
      </g>
     </g>
    </g>
    <g id="ytick_13">
     <g id="line2d_49">
      <g>
       <use xlink:href="#m1d994b8865" x="103.306681" y="270.744695" style="stroke: #000000; stroke-width: 0.6"/>
      </g>
     </g>
    </g>
    <g id="ytick_14">
     <g id="line2d_50">
      <g>
       <use xlink:href="#m1d994b8865" x="103.306681" y="261.871136" style="stroke: #000000; stroke-width: 0.6"/>
      </g>
     </g>
    </g>
    <g id="ytick_15">
     <g id="line2d_51">
      <g>
       <use xlink:href="#m1d994b8865" x="103.306681" y="252.997577" style="stroke: #000000; stroke-width: 0.6"/>
      </g>
     </g>
    </g>
    <g id="ytick_16">
     <g id="line2d_52">
      <g>
       <use xlink:href="#m1d994b8865" x="103.306681" y="244.124019" style="stroke: #000000; stroke-width: 0.6"/>
      </g>
     </g>
    </g>
    <g id="ytick_17">
     <g id="line2d_53">
      <g>
       <use xlink:href="#m1d994b8865" x="103.306681" y="226.376901" style="stroke: #000000; stroke-width: 0.6"/>
      </g>
     </g>
    </g>
    <g id="ytick_18">
     <g id="line2d_54">
      <g>
       <use xlink:href="#m1d994b8865" x="103.306681" y="217.503342" style="stroke: #000000; stroke-width: 0.6"/>
      </g>
     </g>
    </g>
    <g id="ytick_19">
     <g id="line2d_55">
      <g>
       <use xlink:href="#m1d994b8865" x="103.306681" y="208.629784" style="stroke: #000000; stroke-width: 0.6"/>
      </g>
     </g>
    </g>
    <g id="ytick_20">
     <g id="line2d_56">
      <g>
       <use xlink:href="#m1d994b8865" x="103.306681" y="199.756225" style="stroke: #000000; stroke-width: 0.6"/>
      </g>
     </g>
    </g>
    <g id="ytick_21">
     <g id="line2d_57">
      <g>
       <use xlink:href="#m1d994b8865" x="103.306681" y="182.009107" style="stroke: #000000; stroke-width: 0.6"/>
      </g>
     </g>
    </g>
    <g id="ytick_22">
     <g id="line2d_58">
      <g>
       <use xlink:href="#m1d994b8865" x="103.306681" y="173.135549" style="stroke: #000000; stroke-width: 0.6"/>
      </g>
     </g>
    </g>
    <g id="ytick_23">
     <g id="line2d_59">
      <g>
       <use xlink:href="#m1d994b8865" x="103.306681" y="164.26199" style="stroke: #000000; stroke-width: 0.6"/>
      </g>
     </g>
    </g>
    <g id="ytick_24">
     <g id="line2d_60">
      <g>
       <use xlink:href="#m1d994b8865" x="103.306681" y="155.388431" style="stroke: #000000; stroke-width: 0.6"/>
      </g>
     </g>
    </g>
    <g id="ytick_25">
     <g id="line2d_61">
      <g>
       <use xlink:href="#m1d994b8865" x="103.306681" y="137.641314" style="stroke: #000000; stroke-width: 0.6"/>
      </g>
     </g>
    </g>
    <g id="ytick_26">
     <g id="line2d_62">
      <g>
       <use xlink:href="#m1d994b8865" x="103.306681" y="128.767755" style="stroke: #000000; stroke-width: 0.6"/>
      </g>
     </g>
    </g>
    <g id="ytick_27">
     <g id="line2d_63">
      <g>
       <use xlink:href="#m1d994b8865" x="103.306681" y="119.894196" style="stroke: #000000; stroke-width: 0.6"/>
      </g>
     </g>
    </g>
    <g id="ytick_28">
     <g id="line2d_64">
      <g>
       <use xlink:href="#m1d994b8865" x="103.306681" y="111.020637" style="stroke: #000000; stroke-width: 0.6"/>
      </g>
     </g>
    </g>
    <g id="ytick_29">
     <g id="line2d_65">
      <g>
       <use xlink:href="#m1d994b8865" x="103.306681" y="93.27352" style="stroke: #000000; stroke-width: 0.6"/>
      </g>
     </g>
    </g>
    <g id="ytick_30">
     <g id="line2d_66">
      <g>
       <use xlink:href="#m1d994b8865" x="103.306681" y="84.399961" style="stroke: #000000; stroke-width: 0.6"/>
      </g>
     </g>
    </g>
    <g id="ytick_31">
     <g id="line2d_67">
      <g>
       <use xlink:href="#m1d994b8865" x="103.306681" y="75.526402" style="stroke: #000000; stroke-width: 0.6"/>
      </g>
     </g>
    </g>
    <g id="ytick_32">
     <g id="line2d_68">
      <g>
       <use xlink:href="#m1d994b8865" x="103.306681" y="66.652844" style="stroke: #000000; stroke-width: 0.6"/>
      </g>
     </g>
    </g>
    <g id="ytick_33">
     <g id="line2d_69">
      <g>
       <use xlink:href="#m1d994b8865" x="103.306681" y="48.905726" style="stroke: #000000; stroke-width: 0.6"/>
      </g>
     </g>
    </g>
    <g id="ytick_34">
     <g id="line2d_70">
      <g>
       <use xlink:href="#m1d994b8865" x="103.306681" y="40.032167" style="stroke: #000000; stroke-width: 0.6"/>
      </g>
     </g>
    </g>
    <g id="ytick_35">
     <g id="line2d_71">
      <g>
       <use xlink:href="#m1d994b8865" x="103.306681" y="31.158609" style="stroke: #000000; stroke-width: 0.6"/>
      </g>
     </g>
    </g>
    <g id="ytick_36">
     <g id="line2d_72">
      <g>
       <use xlink:href="#m1d994b8865" x="103.306681" y="22.28505" style="stroke: #000000; stroke-width: 0.6"/>
      </g>
     </g>
    </g>
   </g>
   <g id="PathCollection_5">
    <path d="M 193.386747 190.827789 
L 192.096048 189.090028 
L 192.096048 185.952911 
L 192.096048 182.815795 
L 192.096048 179.678678 
L 192.096048 176.541561 
L 192.096048 173.404444 
L 192.096048 170.267328 
L 192.096048 167.130211 
L 192.096048 163.993094 
L 192.096048 160.855977 
L 192.096048 157.718861 
L 192.096048 154.581744 
L 192.096048 151.444627 
L 192.096048 148.30751 
L 193.386747 146.569749 
L 196.523864 146.569749 
L 199.660981 146.569749 
L 202.798098 146.569749 
L 205.935214 146.569749 
L 209.072331 146.569749 
L 212.209448 146.569749 
L 215.346564 146.569749 
L 218.483681 146.569749 
L 221.620798 146.569749 
L 224.757915 146.569749 
L 227.895031 146.569749 
L 231.032148 146.569749 
L 234.169265 146.569749 
L 236.363379 148.30751 
L 236.363379 151.444627 
L 236.363379 154.581744 
L 236.363379 157.718861 
L 236.363379 160.855977 
L 236.363379 163.993094 
L 236.363379 167.130211 
L 236.363379 170.267328 
L 236.363379 173.404444 
L 236.363379 176.541561 
L 236.363379 179.678678 
L 236.363379 182.815795 
L 236.363379 185.952911 
L 236.363379 189.090028 
L 234.169265 190.827789 
L 231.032148 190.827789 
L 227.895031 190.827789 
L 224.757915 190.827789 
L 221.620798 190.827789 
L 218.483681 190.827789 
L 215.346564 190.827789 
L 212.209448 190.827789 
L 209.072331 190.827789 
L 205.935214 190.827789 
L 202.798098 190.827789 
L 199.660981 190.827789 
L 196.523864 190.827789 
L 193.386747 190.827789 
z
" clip-path="url(#pd181da6d4f)" style="fill: none; stroke: #add8e6; stroke-width: 1.5"/>
   </g>
   <g id="PathCollection_6">
    <path d="M 193.386747 190.827789 
L 192.096048 189.090028 
L 192.096048 185.952911 
L 192.096048 182.815795 
L 192.096048 179.678678 
L 192.096048 176.541561 
L 192.096048 173.404444 
L 192.096048 170.267328 
L 192.096048 167.130211 
L 192.096048 163.993094 
L 192.096048 160.855977 
L 192.096048 157.718861 
L 192.096048 154.581744 
L 192.096048 151.444627 
L 192.096048 148.30751 
L 193.386747 146.569749 
L 196.523864 146.569749 
L 199.660981 146.569749 
L 202.798098 146.569749 
L 205.935214 146.569749 
L 209.072331 146.569749 
L 212.209448 146.569749 
L 215.346564 146.569749 
L 218.483681 146.569749 
L 221.620798 146.569749 
L 224.757915 146.569749 
L 227.895031 146.569749 
L 231.032148 146.569749 
L 234.169265 146.569749 
L 236.363379 148.30751 
L 236.363379 151.444627 
L 236.363379 154.581744 
L 236.363379 157.718861 
L 236.363379 160.855977 
L 236.363379 163.993094 
L 236.363379 167.130211 
L 236.363379 170.267328 
L 236.363379 173.404444 
L 236.363379 176.541561 
L 236.363379 179.678678 
L 236.363379 182.815795 
L 236.363379 185.952911 
L 236.363379 189.090028 
L 234.169265 190.827789 
L 231.032148 190.827789 
L 227.895031 190.827789 
L 224.757915 190.827789 
L 221.620798 190.827789 
L 218.483681 190.827789 
L 215.346564 190.827789 
L 212.209448 190.827789 
L 209.072331 190.827789 
L 205.935214 190.827789 
L 202.798098 190.827789 
L 199.660981 190.827789 
L 196.523864 190.827789 
L 193.386747 190.827789 
z
" clip-path="url(#pd181da6d4f)" style="fill: none; stroke: #ffffff; stroke-width: 1.5"/>
   </g>
   <g id="PathCollection_7">
    <path d="M 193.386747 190.827789 
L 192.096048 189.090028 
L 192.096048 185.952911 
L 192.096048 182.815795 
L 192.096048 179.678678 
L 192.096048 176.541561 
L 192.096048 173.404444 
L 192.096048 170.267328 
L 192.096048 167.130211 
L 192.096048 163.993094 
L 192.096048 160.855977 
L 192.096048 157.718861 
L 192.096048 154.581744 
L 192.096048 151.444627 
L 192.096048 148.30751 
L 193.386747 146.569749 
L 196.523864 146.569749 
L 199.660981 146.569749 
L 202.798098 146.569749 
L 205.935214 146.569749 
L 209.072331 146.569749 
L 212.209448 146.569749 
L 215.346564 146.569749 
L 218.483681 146.569749 
L 221.620798 146.569749 
L 224.757915 146.569749 
L 227.895031 146.569749 
L 231.032148 146.569749 
L 234.169265 146.569749 
L 236.363379 148.30751 
L 236.363379 151.444627 
L 236.363379 154.581744 
L 236.363379 157.718861 
L 236.363379 160.855977 
L 236.363379 163.993094 
L 236.363379 167.130211 
L 236.363379 170.267328 
L 236.363379 173.404444 
L 236.363379 176.541561 
L 236.363379 179.678678 
L 236.363379 182.815795 
L 236.363379 185.952911 
L 236.363379 189.090028 
L 234.169265 190.827789 
L 231.032148 190.827789 
L 227.895031 190.827789 
L 224.757915 190.827789 
L 221.620798 190.827789 
L 218.483681 190.827789 
L 215.346564 190.827789 
L 212.209448 190.827789 
L 209.072331 190.827789 
L 205.935214 190.827789 
L 202.798098 190.827789 
L 199.660981 190.827789 
L 196.523864 190.827789 
L 193.386747 190.827789 
z
" clip-path="url(#pd181da6d4f)" style="fill: none; stroke: #ffffff; stroke-width: 1.5"/>
   </g>
   <g id="line2d_73">
    <path d="M 14.571094 323.986047 
L 14.571094 13.411491 
L 14.571094 13.411491 
" clip-path="url(#pd181da6d4f)" style="fill: none; stroke: #0000ff; stroke-linecap: square"/>
   </g>
   <g id="line2d_74">
    <path d="M 58.938887 323.986047 
L 58.938887 13.411491 
L 58.938887 13.411491 
" clip-path="url(#pd181da6d4f)" style="fill: none; stroke: #0000ff; stroke-linecap: square"/>
   </g>
   <g id="line2d_75">
    <path d="M 103.306681 323.986047 
L 103.306681 13.411491 
L 103.306681 13.411491 
" clip-path="url(#pd181da6d4f)" style="fill: none; stroke: #0000ff; stroke-linecap: square"/>
   </g>
   <g id="line2d_76">
    <path d="M 147.674475 323.986047 
L 147.674475 13.411491 
L 147.674475 13.411491 
" clip-path="url(#pd181da6d4f)" style="fill: none; stroke: #0000ff; stroke-linecap: square"/>
   </g>
   <g id="line2d_77">
    <path d="M 192.042269 323.986047 
L 192.042269 13.411491 
L 192.042269 13.411491 
" clip-path="url(#pd181da6d4f)" style="fill: none; stroke: #0000ff; stroke-linecap: square"/>
   </g>
   <g id="line2d_78">
    <path d="M 236.410062 323.986047 
L 236.410062 13.411491 
L 236.410062 13.411491 
" clip-path="url(#pd181da6d4f)" style="fill: none; stroke: #0000ff; stroke-linecap: square"/>
   </g>
   <g id="line2d_79">
    <path d="M 280.777856 323.986047 
L 280.777856 13.411491 
L 280.777856 13.411491 
" clip-path="url(#pd181da6d4f)" style="fill: none; stroke: #0000ff; stroke-linecap: square"/>
   </g>
   <g id="line2d_80">
    <path d="M 14.571094 323.986047 
L 325.14565 323.986047 
L 325.14565 323.986047 
" clip-path="url(#pd181da6d4f)" style="fill: none; stroke: #ff0000; stroke-linecap: square"/>
   </g>
   <g id="line2d_81">
    <path d="M 14.571094 279.618254 
L 325.14565 279.618254 
L 325.14565 279.618254 
" clip-path="url(#pd181da6d4f)" style="fill: none; stroke: #ff0000; stroke-linecap: square"/>
   </g>
   <g id="line2d_82">
    <path d="M 14.571094 235.25046 
L 325.14565 235.25046 
L 325.14565 235.25046 
" clip-path="url(#pd181da6d4f)" style="fill: none; stroke: #ff0000; stroke-linecap: square"/>
   </g>
   <g id="line2d_83">
    <path d="M 14.571094 190.882666 
L 325.14565 190.882666 
L 325.14565 190.882666 
" clip-path="url(#pd181da6d4f)" style="fill: none; stroke: #ff0000; stroke-linecap: square"/>
   </g>
   <g id="line2d_84">
    <path d="M 14.571094 146.514872 
L 325.14565 146.514872 
L 325.14565 146.514872 
" clip-path="url(#pd181da6d4f)" style="fill: none; stroke: #ff0000; stroke-linecap: square"/>
   </g>
   <g id="line2d_85">
    <path d="M 14.571094 102.147079 
L 325.14565 102.147079 
L 325.14565 102.147079 
" clip-path="url(#pd181da6d4f)" style="fill: none; stroke: #ff0000; stroke-linecap: square"/>
   </g>
   <g id="line2d_86">
    <path d="M 14.571094 57.779285 
L 325.14565 57.779285 
L 325.14565 57.779285 
" clip-path="url(#pd181da6d4f)" style="fill: none; stroke: #ff0000; stroke-linecap: square"/>
   </g>
   <g id="patch_3">
    <path d="M 103.306681 330.197538 
L 103.306681 7.2 
" style="fill: none; stroke: #000000; stroke-width: 0.8; stroke-linejoin: miter; stroke-linecap: square"/>
   </g>
   <g id="patch_4">
    <path d="M 8.359603 235.25046 
L 331.357141 235.25046 
" style="fill: none; stroke: #000000; stroke-width: 0.8; stroke-linejoin: miter; stroke-linecap: square"/>
   </g>
  </g>
 </g>
 <defs>
  <clipPath id="pd181da6d4f">
   <rect x="8.359603" y="7.2" width="322.997538" height="322.997538"/>
  </clipPath>
 </defs>
</svg>
