<?xml version="1.0" encoding="utf-8" standalone="no"?>
<!DOCTYPE svg PUBLIC "-//W3C//DTD SVG 1.1//EN"
  "http://www.w3.org/Graphics/SVG/1.1/DTD/svg11.dtd">
<svg xmlns:xlink="http://www.w3.org/1999/xlink" width="452.049726pt" height="244.668944pt" viewBox="0 0 452.049726 244.668944" xmlns="http://www.w3.org/2000/svg" version="1.1">
 <metadata>
  <rdf:RDF xmlns:dc="http://purl.org/dc/elements/1.1/" xmlns:cc="http://creativecommons.org/ns#" xmlns:rdf="http://www.w3.org/1999/02/22-rdf-syntax-ns#">
   <cc:Work>
    <dc:type rdf:resource="http://purl.org/dc/dcmitype/StillImage"/>
    <dc:date>2025-03-01T17:34:24.541961</dc:date>
    <dc:format>image/svg+xml</dc:format>
    <dc:creator>
     <cc:Agent>
      <dc:title>Matplotlib v3.6.2, https://matplotlib.org/</dc:title>
     </cc:Agent>
    </dc:creator>
   </cc:Work>
  </rdf:RDF>
 </metadata>
 <defs>
  <style type="text/css">*{stroke-linejoin: round; stroke-linecap: butt}</style>
 </defs>
 <g id="figure_1">
  <g id="patch_1">
   <path d="M 0 244.668944 
L 452.049726 244.668944 
L 452.049726 0 
L 0 0 
z
" style="fill: #ffffff"/>
  </g>
  <g id="axes_1">
   <g id="patch_2">
    <path d="M 7.2 227.113508 
L 444.849726 227.113508 
L 444.849726 7.2 
L 7.2 7.2 
z
" style="fill: #ffffff"/>
   </g>
   <g id="matplotlib.axis_1">
    <g id="xtick_1">
     <g id="line2d_1">
      <defs>
       <path id="mbf5ca15908" d="M 0 0 
L 0 3.5 
" style="stroke: #000000; stroke-width: 0.8"/>
      </defs>
      <g>
       <use xlink:href="#mbf5ca15908" x="15.616341" y="220.790819" style="stroke: #000000; stroke-width: 0.8"/>
      </g>
     </g>
     <g id="text_1">
      <!-- $-R$ -->
      <g transform="translate(7.916341 235.389257) scale(0.1 -0.1)">
       <defs>
        <path id="Cmsy10-a1" d="M 653 1472 
Q 600 1472 565 1512 
Q 531 1553 531 1600 
Q 531 1647 565 1687 
Q 600 1728 653 1728 
L 4325 1728 
Q 4375 1728 4408 1687 
Q 4441 1647 4441 1600 
Q 4441 1553 4408 1512 
Q 4375 1472 4325 1472 
L 653 1472 
z
" transform="scale(0.015625)"/>
        <path id="Cmmi10-52" d="M 313 0 
Q 250 0 250 84 
Q 253 100 262 139 
Q 272 178 289 201 
Q 306 225 331 225 
Q 722 225 878 269 
Q 959 297 997 441 
L 1875 3956 
Q 1888 4019 1888 4044 
Q 1888 4113 1813 4122 
Q 1691 4147 1350 4147 
Q 1288 4147 1288 4231 
Q 1291 4247 1300 4286 
Q 1309 4325 1326 4348 
Q 1344 4372 1369 4372 
L 3309 4372 
Q 3541 4372 3791 4319 
Q 4041 4266 4250 4152 
Q 4459 4038 4593 3848 
Q 4728 3659 4728 3406 
Q 4728 3084 4515 2831 
Q 4303 2578 3978 2408 
Q 3653 2238 3347 2169 
Q 3597 2078 3756 1879 
Q 3916 1681 3916 1422 
Q 3916 1388 3914 1370 
Q 3913 1353 3909 1331 
L 3859 763 
Q 3853 638 3847 550 
Q 3841 463 3841 409 
Q 3841 234 3892 129 
Q 3944 25 4097 25 
Q 4297 25 4448 211 
Q 4600 397 4647 616 
Q 4675 672 4709 672 
L 4769 672 
Q 4831 672 4831 588 
Q 4784 403 4682 237 
Q 4581 72 4426 -34 
Q 4272 -141 4091 -141 
Q 3716 -141 3452 26 
Q 3188 194 3188 550 
Q 3188 684 3213 788 
L 3353 1356 
Q 3378 1434 3378 1538 
Q 3378 1803 3198 1954 
Q 3019 2106 2747 2106 
L 1959 2106 
L 1538 416 
Q 1522 363 1522 325 
Q 1522 259 1600 250 
Q 1722 225 2059 225 
Q 2125 225 2125 141 
Q 2103 50 2090 25 
Q 2078 0 2016 0 
L 313 0 
z
M 1997 2272 
L 2706 2272 
Q 3403 2272 3756 2625 
Q 3919 2788 4014 3039 
Q 4109 3291 4109 3541 
Q 4109 3778 3970 3912 
Q 3831 4047 3626 4097 
Q 3422 4147 3175 4147 
L 2747 4147 
Q 2572 4147 2515 4117 
Q 2459 4088 2413 3928 
L 1997 2272 
z
" transform="scale(0.015625)"/>
       </defs>
       <use xlink:href="#Cmsy10-a1" transform="translate(0 0.6875)"/>
       <use xlink:href="#Cmmi10-52" transform="translate(77.685547 0.6875)"/>
      </g>
     </g>
    </g>
    <g id="xtick_2">
     <g id="line2d_2">
      <g>
       <use xlink:href="#mbf5ca15908" x="434.339768" y="220.790819" style="stroke: #000000; stroke-width: 0.8"/>
      </g>
     </g>
     <g id="text_2">
      <!-- $R$ -->
      <g transform="translate(430.539768 235.389257) scale(0.1 -0.1)">
       <use xlink:href="#Cmmi10-52" transform="translate(0 0.6875)"/>
      </g>
     </g>
    </g>
   </g>
   <g id="matplotlib.axis_2"/>
   <g id="line2d_3">
    <path d="M 434.339768 220.790819 
L 434.21357 213.522673 
L 433.938598 207.836351 
L 433.444949 201.454822 
L 432.667964 194.38573 
L 431.81659 188.384845 
L 430.383772 180.283805 
L 429.449497 175.804641 
L 427.642973 168.262181 
L 426.171556 162.881388 
L 423.937964 155.61965 
L 422.128882 150.336023 
L 419.033887 142.211809 
L 416.424296 136.052022 
L 413.458713 129.646054 
L 409.8498 122.532158 
L 405.366996 114.526259 
L 401.004436 107.446036 
L 397.649739 102.398182 
L 394.439698 97.847424 
L 388.494431 90.044035 
L 383.418925 83.937549 
L 377.47871 77.347879 
L 373.15113 72.881838 
L 367.273772 67.219156 
L 360.87275 61.527017 
L 354.202449 56.068681 
L 350.267174 53.056018 
L 343.594487 48.272795 
L 340.425018 46.135944 
L 334.129065 42.13365 
L 326.861594 37.891745 
L 319.569798 34.016278 
L 311.379546 30.089195 
L 304.460728 27.103361 
L 299.062854 24.975167 
L 289.26932 21.54484 
L 281.241498 19.130828 
L 275.862282 17.706791 
L 269.578489 16.23489 
L 261.24048 14.59343 
L 254.007452 13.451433 
L 246.467825 12.534927 
L 239.296943 11.919336 
L 231.978188 11.546165 
L 224.301875 11.430198 
L 215.194977 11.657803 
L 209.584788 11.995766 
L 205.135982 12.371484 
L 194.676799 13.633485 
L 188.128248 14.697591 
L 180.598441 16.186868 
L 175.143034 17.446781 
L 167.042483 19.604844 
L 162.24695 21.048146 
L 153.869296 23.87492 
L 149.634995 25.45585 
L 141.807096 28.658264 
L 137.085228 30.77193 
L 130.311022 34.054427 
L 126.235753 36.176939 
L 120.320421 39.464851 
L 114.593261 42.893308 
L 106.707637 48.035399 
L 99.98057 52.838577 
L 95.542041 56.234915 
L 89.662482 61.034684 
L 85.48567 64.668426 
L 78.866132 70.845385 
L 76.283706 73.405889 
L 71.67536 78.205368 
L 67.260569 83.104503 
L 61.709441 89.734775 
L 58.892683 93.323269 
L 56.496161 96.508164 
L 51.818349 103.11311 
L 47.197509 110.217745 
L 43.920198 115.670033 
L 40.623389 121.565396 
L 37.296759 128.011196 
L 36.073932 130.526986 
L 33.162705 136.890886 
L 30.210173 143.993688 
L 27.24771 151.979207 
L 24.481891 160.51134 
L 22.560129 167.318297 
L 20.615201 175.31389 
L 19.531132 180.49331 
L 18.103174 188.617676 
L 16.999094 196.768344 
L 16.172116 205.545915 
L 15.776028 212.615289 
L 15.616341 220.790819 
L 15.616341 220.790819 
" clip-path="url(#p021e375ca9)" style="fill: none; stroke: #0000ff; stroke-linecap: square"/>
   </g>
   <g id="line2d_4">
    <path d="M 15.616341 220.790819 
L 434.339768 220.790819 
" clip-path="url(#p021e375ca9)" style="fill: none; stroke: #0000ff; stroke-width: 1.25; stroke-linecap: square"/>
   </g>
   <g id="patch_3">
    <path d="M 406.290617 116.109963 
Q 405.762689 115.206032 406.362463 116.232979 
" clip-path="url(#p021e375ca9)" style="fill: none; stroke: #0000ff; stroke-width: 2; stroke-linecap: round"/>
    <path d="M 406.797862 122.927038 
L 406.362463 116.232979 
L 411.97895 119.901095 
L 406.797862 122.927038 
z
" clip-path="url(#p021e375ca9)" style="fill: #0000ff; stroke: #0000ff; stroke-width: 2; stroke-linecap: round"/>
   </g>
   <g id="patch_4">
    <path d="M 329.658911 39.478257 
Q 328.749747 38.959394 329.782639 39.548869 
" clip-path="url(#p021e375ca9)" style="fill: none; stroke: #0000ff; stroke-width: 2; stroke-linecap: round"/>
    <path d="M 333.506736 45.128395 
L 329.782639 39.548869 
L 336.480718 39.917307 
L 333.506736 45.128395 
z
" clip-path="url(#p021e375ca9)" style="fill: #0000ff; stroke: #0000ff; stroke-width: 2; stroke-linecap: round"/>
   </g>
   <g id="patch_5">
    <path d="M 224.978054 11.429106 
Q 223.931263 11.43434 225.120512 11.428394 
" clip-path="url(#p021e375ca9)" style="fill: none; stroke: #0000ff; stroke-width: 2; stroke-linecap: round"/>
    <path d="M 231.135437 14.398356 
L 225.120512 11.428394 
L 231.105437 8.398431 
L 231.135437 14.398356 
z
" clip-path="url(#p021e375ca9)" style="fill: #0000ff; stroke: #0000ff; stroke-width: 2; stroke-linecap: round"/>
   </g>
   <g id="patch_6">
    <path d="M 120.297198 39.478257 
Q 119.393267 40.006185 120.420214 39.406411 
" clip-path="url(#p021e375ca9)" style="fill: none; stroke: #0000ff; stroke-width: 2; stroke-linecap: round"/>
    <path d="M 127.114273 38.971012 
L 120.420214 39.406411 
L 124.08833 33.789924 
L 127.114273 38.971012 
z
" clip-path="url(#p021e375ca9)" style="fill: #0000ff; stroke: #0000ff; stroke-width: 2; stroke-linecap: round"/>
   </g>
   <g id="patch_7">
    <path d="M 43.665492 116.109963 
Q 43.146629 117.019127 43.736104 115.986234 
" clip-path="url(#p021e375ca9)" style="fill: none; stroke: #0000ff; stroke-width: 2; stroke-linecap: round"/>
    <path d="M 49.315629 112.262138 
L 43.736104 115.986234 
L 44.104542 109.288156 
L 49.315629 112.262138 
z
" clip-path="url(#p021e375ca9)" style="fill: #0000ff; stroke: #0000ff; stroke-width: 2; stroke-linecap: round"/>
   </g>
   <g id="patch_8">
    <path d="M 15.616341 220.790819 
Q 15.621575 221.837611 15.615629 220.648362 
" clip-path="url(#p021e375ca9)" style="fill: none; stroke: #0000ff; stroke-width: 2; stroke-linecap: round"/>
    <path d="M 18.585591 214.633437 
L 15.615629 220.648362 
L 12.585666 214.663437 
L 18.585591 214.633437 
z
" clip-path="url(#p021e375ca9)" style="fill: #0000ff; stroke: #0000ff; stroke-width: 2; stroke-linecap: round"/>
   </g>
   <g id="patch_9">
    <path d="M 85.403579 220.790819 
Q 86.450387 220.790819 85.261128 220.790819 
" clip-path="url(#p021e375ca9)" style="fill: none; stroke: #0000ff; stroke-width: 2; stroke-linecap: round"/>
    <path d="M 79.261128 217.790819 
L 85.261128 220.790819 
L 79.261128 223.790819 
L 79.261128 217.790819 
z
" clip-path="url(#p021e375ca9)" style="fill: #0000ff; stroke: #0000ff; stroke-width: 2; stroke-linecap: round"/>
   </g>
   <g id="patch_10">
    <path d="M 155.190817 220.790819 
Q 156.237625 220.790819 155.048366 220.790819 
" clip-path="url(#p021e375ca9)" style="fill: none; stroke: #0000ff; stroke-width: 2; stroke-linecap: round"/>
    <path d="M 149.048366 217.790819 
L 155.048366 220.790819 
L 149.048366 223.790819 
L 149.048366 217.790819 
z
" clip-path="url(#p021e375ca9)" style="fill: #0000ff; stroke: #0000ff; stroke-width: 2; stroke-linecap: round"/>
   </g>
   <g id="patch_11">
    <path d="M 224.978054 220.790819 
Q 226.024863 220.790819 224.835604 220.790819 
" clip-path="url(#p021e375ca9)" style="fill: none; stroke: #0000ff; stroke-width: 2; stroke-linecap: round"/>
    <path d="M 218.835604 217.790819 
L 224.835604 220.790819 
L 218.835604 223.790819 
L 218.835604 217.790819 
z
" clip-path="url(#p021e375ca9)" style="fill: #0000ff; stroke: #0000ff; stroke-width: 2; stroke-linecap: round"/>
   </g>
   <g id="patch_12">
    <path d="M 294.765292 220.790819 
Q 295.812101 220.790819 294.622841 220.790819 
" clip-path="url(#p021e375ca9)" style="fill: none; stroke: #0000ff; stroke-width: 2; stroke-linecap: round"/>
    <path d="M 288.622841 217.790819 
L 294.622841 220.790819 
L 288.622841 223.790819 
L 288.622841 217.790819 
z
" clip-path="url(#p021e375ca9)" style="fill: #0000ff; stroke: #0000ff; stroke-width: 2; stroke-linecap: round"/>
   </g>
   <g id="patch_13">
    <path d="M 364.55253 220.790819 
Q 365.599339 220.790819 364.410079 220.790819 
" clip-path="url(#p021e375ca9)" style="fill: none; stroke: #0000ff; stroke-width: 2; stroke-linecap: round"/>
    <path d="M 358.410079 217.790819 
L 364.410079 220.790819 
L 358.410079 223.790819 
L 358.410079 217.790819 
z
" clip-path="url(#p021e375ca9)" style="fill: #0000ff; stroke: #0000ff; stroke-width: 2; stroke-linecap: round"/>
   </g>
   <g id="patch_14">
    <path d="M 434.339768 220.790819 
Q 435.386577 220.790819 434.197317 220.790819 
" clip-path="url(#p021e375ca9)" style="fill: none; stroke: #0000ff; stroke-width: 2; stroke-linecap: round"/>
    <path d="M 428.197317 217.790819 
L 434.197317 220.790819 
L 428.197317 223.790819 
L 428.197317 217.790819 
z
" clip-path="url(#p021e375ca9)" style="fill: #0000ff; stroke: #0000ff; stroke-width: 2; stroke-linecap: round"/>
   </g>
   <g id="patch_15">
    <path d="M 224.978054 227.113508 
L 224.978054 7.2 
" style="fill: none; stroke: #000000; stroke-width: 0.8; stroke-linejoin: miter; stroke-linecap: square"/>
   </g>
   <g id="patch_16">
    <path d="M 7.2 220.790819 
L 444.849726 220.790819 
" style="fill: none; stroke: #000000; stroke-width: 0.8; stroke-linejoin: miter; stroke-linecap: square"/>
   </g>
   <g id="text_3">
    <!-- $\gamma_R$ -->
    <g transform="translate(320.698911 26.119692) scale(0.16 -0.16)">
     <defs>
      <path id="Cmmi10-b0" d="M 1888 -1253 
Q 1888 -1109 1952 -834 
Q 2016 -559 2108 -248 
Q 2200 63 2266 263 
Q 2291 581 2291 744 
Q 2291 1156 2209 1511 
Q 2128 1866 1903 2105 
Q 1678 2344 1275 2344 
Q 1063 2344 852 2253 
Q 641 2163 489 2000 
Q 338 1838 281 1631 
Q 269 1594 231 1594 
L 153 1594 
Q 103 1594 103 1650 
L 103 1672 
Q 175 1959 358 2226 
Q 541 2494 805 2661 
Q 1069 2828 1363 2828 
Q 1663 2828 1881 2625 
Q 2100 2422 2231 2109 
Q 2363 1797 2420 1478 
Q 2478 1159 2478 878 
Q 2800 1753 3200 2534 
L 3297 2741 
Q 3316 2759 3341 2759 
L 3419 2759 
Q 3469 2759 3469 2700 
Q 3469 2688 3456 2663 
L 3359 2463 
Q 3081 1909 2848 1340 
Q 2616 772 2450 244 
Q 2425 28 2354 -347 
Q 2284 -722 2184 -1045 
Q 2084 -1369 1984 -1381 
Q 1888 -1381 1888 -1253 
z
" transform="scale(0.015625)"/>
     </defs>
     <use xlink:href="#Cmmi10-b0" transform="translate(0 0.8125)"/>
     <use xlink:href="#Cmmi10-52" transform="translate(51.708984 -16.19375) scale(0.7)"/>
    </g>
   </g>
  </g>
 </g>
 <defs>
  <clipPath id="p021e375ca9">
   <rect x="7.2" y="7.2" width="437.649726" height="219.913508"/>
  </clipPath>
 </defs>
</svg>
