<?xml version="1.0" encoding="utf-8" standalone="no"?>
<!DOCTYPE svg PUBLIC "-//W3C//DTD SVG 1.1//EN"
  "http://www.w3.org/Graphics/SVG/1.1/DTD/svg11.dtd">
<svg xmlns:xlink="http://www.w3.org/1999/xlink" width="338.4pt" height="338.4pt" viewBox="0 0 338.4 338.4" xmlns="http://www.w3.org/2000/svg" version="1.1">
 <metadata>
  <rdf:RDF xmlns:dc="http://purl.org/dc/elements/1.1/" xmlns:cc="http://creativecommons.org/ns#" xmlns:rdf="http://www.w3.org/1999/02/22-rdf-syntax-ns#">
   <cc:Work>
    <dc:type rdf:resource="http://purl.org/dc/dcmitype/StillImage"/>
    <dc:date>2025-01-22T15:49:22.571595</dc:date>
    <dc:format>image/svg+xml</dc:format>
    <dc:creator>
     <cc:Agent>
      <dc:title>Matplotlib v3.6.2, https://matplotlib.org/</dc:title>
     </cc:Agent>
    </dc:creator>
   </cc:Work>
  </rdf:RDF>
 </metadata>
 <defs>
  <style type="text/css">*{stroke-linejoin: round; stroke-linecap: butt}</style>
 </defs>
 <g id="figure_1">
  <g id="patch_1">
   <path d="M -0 338.4 
L 338.4 338.4 
L 338.4 0 
L -0 0 
z
" style="fill: #ffffff"/>
  </g>
  <g id="axes_1">
   <g id="patch_2">
    <path d="M 7.2 331.2 
L 331.2 331.2 
L 331.2 7.2 
L 7.2 7.2 
z
" style="fill: #ffffff"/>
   </g>
   <g id="PathCollection_1">
    <path d="M 16.577622 267.060531 
L 19.724476 267.060531 
L 22.871329 267.060531 
L 26.018182 267.060531 
L 29.165035 267.060531 
L 32.311888 267.060531 
L 35.458741 267.060531 
L 38.605594 267.060531 
L 41.752448 267.060531 
L 44.899301 267.060531 
L 48.046154 267.060531 
L 51.193007 267.060531 
L 54.33986 267.060531 
L 57.486713 267.060531 
L 60.633566 267.060531 
L 63.78042 267.060531 
L 66.927273 267.060531 
L 70.074126 267.060531 
L 73.220979 267.060531 
L 76.367832 267.060531 
L 79.514685 267.060531 
L 82.661538 267.060531 
L 85.808392 267.060531 
L 88.955245 267.060531 
L 92.102098 267.060531 
L 95.248951 267.060531 
L 98.395804 267.060531 
L 101.542657 267.060531 
L 104.68951 267.060531 
L 107.836364 267.060531 
L 110.983217 267.060531 
L 114.13007 267.060531 
L 117.276923 267.060531 
L 120.423776 267.060531 
L 123.570629 267.060531 
L 126.717483 267.060531 
L 129.864336 267.060531 
L 133.011189 267.060531 
L 136.158042 267.060531 
L 139.304895 267.060531 
L 142.451748 267.060531 
L 145.598601 267.060531 
L 148.745455 267.060531 
L 151.892308 267.060531 
L 155.039161 267.060531 
L 158.186014 267.060531 
L 161.332867 267.060531 
L 164.47972 267.060531 
L 167.626573 267.060531 
L 170.773427 267.060531 
L 173.92028 267.060531 
L 177.067133 267.060531 
L 180.213986 267.060531 
L 183.360839 267.060531 
L 186.507692 267.060531 
L 189.654545 267.060531 
L 192.801399 267.060531 
L 195.948252 267.060531 
L 199.095105 267.060531 
L 202.241958 267.060531 
L 205.388811 267.060531 
L 208.535664 267.060531 
L 211.682517 267.060531 
L 214.829371 267.060531 
L 217.976224 267.060531 
L 221.123077 267.060531 
L 224.26993 267.060531 
L 227.416783 267.060531 
L 230.563636 267.060531 
L 233.71049 267.060531 
L 236.857343 267.060531 
L 240.004196 267.060531 
L 243.151049 267.060531 
L 246.297902 267.060531 
L 249.444755 267.060531 
L 252.591608 267.060531 
L 255.738462 267.060531 
L 258.885315 267.060531 
L 262.032168 267.060531 
L 265.179021 267.060531 
L 268.325874 267.060531 
L 271.472727 267.060531 
L 274.61958 267.060531 
L 277.766434 267.060531 
L 280.913287 267.060531 
L 284.06014 267.060531 
L 287.206993 267.060531 
L 290.353846 267.060531 
L 293.500699 267.060531 
L 296.647552 267.060531 
L 299.794406 267.060531 
L 302.941259 267.060531 
L 306.088112 267.060531 
L 309.234965 267.060531 
L 312.381818 267.060531 
L 315.528671 267.060531 
L 318.675524 267.060531 
L 321.822378 267.060531 
L 324.969231 267.060531 
L 324.969231 265.179021 
L 324.969231 262.032168 
L 324.969231 258.885315 
L 324.969231 255.738462 
L 324.969231 252.591608 
L 324.969231 249.444755 
L 324.969231 246.297902 
L 324.969231 243.151049 
L 324.969231 240.004196 
L 324.969231 236.857343 
L 324.969231 233.71049 
L 324.969231 230.563636 
L 324.969231 227.416783 
L 324.969231 224.26993 
L 324.969231 221.123077 
L 324.969231 217.976224 
L 324.969231 214.829371 
L 324.969231 211.682517 
L 324.969231 208.535664 
L 324.969231 205.388811 
L 324.969231 202.241958 
L 324.969231 199.095105 
L 324.969231 195.948252 
L 324.969231 192.801399 
L 324.969231 189.654545 
L 324.969231 186.507692 
L 324.969231 183.360839 
L 324.969231 180.213986 
L 324.969231 177.067133 
L 324.969231 173.92028 
L 324.969231 170.773427 
L 324.969231 167.626573 
L 324.969231 164.47972 
L 324.969231 161.332867 
L 324.969231 158.186014 
L 324.969231 155.039161 
L 324.969231 151.892308 
L 324.969231 148.745455 
L 324.969231 145.598601 
L 324.969231 142.451748 
L 324.969231 139.304895 
L 324.969231 136.158042 
L 324.969231 133.011189 
L 324.969231 129.864336 
L 324.969231 126.717483 
L 324.969231 123.570629 
L 324.969231 120.423776 
L 324.969231 117.276923 
L 324.969231 114.13007 
L 324.969231 110.983217 
L 324.969231 107.836364 
L 324.969231 104.68951 
L 324.969231 101.542657 
L 324.969231 98.395804 
L 324.969231 95.248951 
L 324.969231 92.102098 
L 324.969231 88.955245 
L 324.969231 85.808392 
L 324.969231 82.661538 
L 324.969231 79.514685 
L 324.969231 76.367832 
L 324.969231 73.220979 
L 324.969231 71.339469 
L 321.822378 71.339469 
L 318.675524 71.339469 
L 315.528671 71.339469 
L 312.381818 71.339469 
L 309.234965 71.339469 
L 306.088112 71.339469 
L 302.941259 71.339469 
L 299.794406 71.339469 
L 296.647552 71.339469 
L 293.500699 71.339469 
L 290.353846 71.339469 
L 287.206993 71.339469 
L 284.06014 71.339469 
L 280.913287 71.339469 
L 277.766434 71.339469 
L 274.61958 71.339469 
L 271.472727 71.339469 
L 268.325874 71.339469 
L 265.179021 71.339469 
L 262.032168 71.339469 
L 258.885315 71.339469 
L 255.738462 71.339469 
L 252.591608 71.339469 
L 249.444755 71.339469 
L 246.297902 71.339469 
L 243.151049 71.339469 
L 240.004196 71.339469 
L 236.857343 71.339469 
L 233.71049 71.339469 
L 230.563636 71.339469 
L 227.416783 71.339469 
L 224.26993 71.339469 
L 221.123077 71.339469 
L 217.976224 71.339469 
L 214.829371 71.339469 
L 211.682517 71.339469 
L 208.535664 71.339469 
L 205.388811 71.339469 
L 202.241958 71.339469 
L 199.095105 71.339469 
L 195.948252 71.339469 
L 192.801399 71.339469 
L 189.654545 71.339469 
L 186.507692 71.339469 
L 183.360839 71.339469 
L 180.213986 71.339469 
L 177.067133 71.339469 
L 173.92028 71.339469 
L 170.773427 71.339469 
L 167.626573 71.339469 
L 164.47972 71.339469 
L 161.332867 71.339469 
L 158.186014 71.339469 
L 155.039161 71.339469 
L 151.892308 71.339469 
L 148.745455 71.339469 
L 145.598601 71.339469 
L 142.451748 71.339469 
L 139.304895 71.339469 
L 136.158042 71.339469 
L 133.011189 71.339469 
L 129.864336 71.339469 
L 126.717483 71.339469 
L 123.570629 71.339469 
L 120.423776 71.339469 
L 117.276923 71.339469 
L 114.13007 71.339469 
L 110.983217 71.339469 
L 107.836364 71.339469 
L 104.68951 71.339469 
L 101.542657 71.339469 
L 98.395804 71.339469 
L 95.248951 71.339469 
L 92.102098 71.339469 
L 88.955245 71.339469 
L 85.808392 71.339469 
L 82.661538 71.339469 
L 79.514685 71.339469 
L 76.367832 71.339469 
L 73.220979 71.339469 
L 70.074126 71.339469 
L 66.927273 71.339469 
L 63.78042 71.339469 
L 60.633566 71.339469 
L 57.486713 71.339469 
L 54.33986 71.339469 
L 51.193007 71.339469 
L 48.046154 71.339469 
L 44.899301 71.339469 
L 41.752448 71.339469 
L 38.605594 71.339469 
L 35.458741 71.339469 
L 32.311888 71.339469 
L 29.165035 71.339469 
L 26.018182 71.339469 
L 22.871329 71.339469 
L 19.724476 71.339469 
L 16.577622 71.339469 
L 13.430769 71.339469 
L 13.430769 73.220979 
L 13.430769 76.367832 
L 13.430769 79.514685 
L 13.430769 82.661538 
L 13.430769 85.808392 
L 13.430769 88.955245 
L 13.430769 92.102098 
L 13.430769 95.248951 
L 13.430769 98.395804 
L 13.430769 101.542657 
L 13.430769 104.68951 
L 13.430769 107.836364 
L 13.430769 110.983217 
L 13.430769 114.13007 
L 13.430769 117.276923 
L 13.430769 120.423776 
L 13.430769 123.570629 
L 13.430769 126.717483 
L 13.430769 129.864336 
L 13.430769 133.011189 
L 13.430769 136.158042 
L 13.430769 139.304895 
L 13.430769 142.451748 
L 13.430769 145.598601 
L 13.430769 148.745455 
L 13.430769 151.892308 
L 13.430769 155.039161 
L 13.430769 158.186014 
L 13.430769 161.332867 
L 13.430769 164.47972 
L 13.430769 167.626573 
L 13.430769 170.773427 
L 13.430769 173.92028 
L 13.430769 177.067133 
L 13.430769 180.213986 
L 13.430769 183.360839 
L 13.430769 186.507692 
L 13.430769 189.654545 
L 13.430769 192.801399 
L 13.430769 195.948252 
L 13.430769 199.095105 
L 13.430769 202.241958 
L 13.430769 205.388811 
L 13.430769 208.535664 
L 13.430769 211.682517 
L 13.430769 214.829371 
L 13.430769 217.976224 
L 13.430769 221.123077 
L 13.430769 224.26993 
L 13.430769 227.416783 
L 13.430769 230.563636 
L 13.430769 233.71049 
L 13.430769 236.857343 
L 13.430769 240.004196 
L 13.430769 243.151049 
L 13.430769 246.297902 
L 13.430769 249.444755 
L 13.430769 252.591608 
L 13.430769 255.738462 
L 13.430769 258.885315 
L 13.430769 262.032168 
L 13.430769 265.179021 
L 13.430769 267.060531 
z
" clip-path="url(#p4e11156940)" style="fill: #add8e6"/>
   </g>
   <g id="PathCollection_2">
    <path d="M 16.577622 267.060531 
L 19.724476 267.060531 
L 22.871329 267.060531 
L 26.018182 267.060531 
L 29.165035 267.060531 
L 32.311888 267.060531 
L 35.458741 267.060531 
L 38.605594 267.060531 
L 41.752448 267.060531 
L 44.899301 267.060531 
L 48.046154 267.060531 
L 51.193007 267.060531 
L 54.33986 267.060531 
L 57.486713 267.060531 
L 60.633566 267.060531 
L 63.78042 267.060531 
L 66.927273 267.060531 
L 70.074126 267.060531 
L 73.220979 267.060531 
L 76.367832 267.060531 
L 79.514685 267.060531 
L 82.661538 267.060531 
L 85.808392 267.060531 
L 88.955245 267.060531 
L 92.102098 267.060531 
L 95.248951 267.060531 
L 98.395804 267.060531 
L 101.542657 267.060531 
L 104.68951 267.060531 
L 107.836364 267.060531 
L 110.983217 267.060531 
L 114.13007 267.060531 
L 117.276923 267.060531 
L 120.423776 267.060531 
L 123.570629 267.060531 
L 126.717483 267.060531 
L 129.864336 267.060531 
L 133.011189 267.060531 
L 136.158042 267.060531 
L 139.304895 267.060531 
L 142.451748 267.060531 
L 145.598601 267.060531 
L 148.745455 267.060531 
L 151.892308 267.060531 
L 155.039161 267.060531 
L 158.186014 267.060531 
L 161.332867 267.060531 
L 164.47972 267.060531 
L 167.626573 267.060531 
L 170.773427 267.060531 
L 173.92028 267.060531 
L 177.067133 267.060531 
L 180.213986 267.060531 
L 183.360839 267.060531 
L 186.507692 267.060531 
L 189.654545 267.060531 
L 192.801399 267.060531 
L 195.948252 267.060531 
L 199.095105 267.060531 
L 202.241958 267.060531 
L 205.388811 267.060531 
L 208.535664 267.060531 
L 211.682517 267.060531 
L 214.829371 267.060531 
L 217.976224 267.060531 
L 221.123077 267.060531 
L 224.26993 267.060531 
L 227.416783 267.060531 
L 230.563636 267.060531 
L 233.71049 267.060531 
L 236.857343 267.060531 
L 240.004196 267.060531 
L 243.151049 267.060531 
L 246.297902 267.060531 
L 249.444755 267.060531 
L 252.591608 267.060531 
L 255.738462 267.060531 
L 258.885315 267.060531 
L 262.032168 267.060531 
L 265.179021 267.060531 
L 268.325874 267.060531 
L 271.472727 267.060531 
L 274.61958 267.060531 
L 277.766434 267.060531 
L 280.913287 267.060531 
L 284.06014 267.060531 
L 287.206993 267.060531 
L 290.353846 267.060531 
L 293.500699 267.060531 
L 296.647552 267.060531 
L 299.794406 267.060531 
L 302.941259 267.060531 
L 306.088112 267.060531 
L 309.234965 267.060531 
L 312.381818 267.060531 
L 315.528671 267.060531 
L 318.675524 267.060531 
L 321.822378 267.060531 
L 324.969231 267.060531 
L 324.969231 267.060531 
L 321.822378 267.060531 
L 318.675524 267.060531 
L 315.528671 267.060531 
L 312.381818 267.060531 
L 309.234965 267.060531 
L 306.088112 267.060531 
L 302.941259 267.060531 
L 299.794406 267.060531 
L 296.647552 267.060531 
L 293.500699 267.060531 
L 290.353846 267.060531 
L 287.206993 267.060531 
L 284.06014 267.060531 
L 280.913287 267.060531 
L 277.766434 267.060531 
L 274.61958 267.060531 
L 271.472727 267.060531 
L 268.325874 267.060531 
L 265.179021 267.060531 
L 262.032168 267.060531 
L 258.885315 267.060531 
L 255.738462 267.060531 
L 252.591608 267.060531 
L 249.444755 267.060531 
L 246.297902 267.060531 
L 243.151049 267.060531 
L 240.004196 267.060531 
L 236.857343 267.060531 
L 233.71049 267.060531 
L 230.563636 267.060531 
L 227.416783 267.060531 
L 224.26993 267.060531 
L 221.123077 267.060531 
L 217.976224 267.060531 
L 214.829371 267.060531 
L 211.682517 267.060531 
L 208.535664 267.060531 
L 205.388811 267.060531 
L 202.241958 267.060531 
L 199.095105 267.060531 
L 195.948252 267.060531 
L 192.801399 267.060531 
L 189.654545 267.060531 
L 186.507692 267.060531 
L 183.360839 267.060531 
L 180.213986 267.060531 
L 177.067133 267.060531 
L 173.92028 267.060531 
L 170.773427 267.060531 
L 167.626573 267.060531 
L 164.47972 267.060531 
L 161.332867 267.060531 
L 158.186014 267.060531 
L 155.039161 267.060531 
L 151.892308 267.060531 
L 148.745455 267.060531 
L 145.598601 267.060531 
L 142.451748 267.060531 
L 139.304895 267.060531 
L 136.158042 267.060531 
L 133.011189 267.060531 
L 129.864336 267.060531 
L 126.717483 267.060531 
L 123.570629 267.060531 
L 120.423776 267.060531 
L 117.276923 267.060531 
L 114.13007 267.060531 
L 110.983217 267.060531 
L 107.836364 267.060531 
L 104.68951 267.060531 
L 101.542657 267.060531 
L 98.395804 267.060531 
L 95.248951 267.060531 
L 92.102098 267.060531 
L 88.955245 267.060531 
L 85.808392 267.060531 
L 82.661538 267.060531 
L 79.514685 267.060531 
L 76.367832 267.060531 
L 73.220979 267.060531 
L 70.074126 267.060531 
L 66.927273 267.060531 
L 63.78042 267.060531 
L 60.633566 267.060531 
L 57.486713 267.060531 
L 54.33986 267.060531 
L 51.193007 267.060531 
L 48.046154 267.060531 
L 44.899301 267.060531 
L 41.752448 267.060531 
L 38.605594 267.060531 
L 35.458741 267.060531 
L 32.311888 267.060531 
L 29.165035 267.060531 
L 26.018182 267.060531 
L 22.871329 267.060531 
L 19.724476 267.060531 
L 16.577622 267.060531 
L 13.430769 267.060531 
L 13.430769 267.060531 
z
" clip-path="url(#p4e11156940)" style="fill: #add8e6"/>
    <path d="M 16.577622 71.339469 
L 19.724476 71.339469 
L 22.871329 71.339469 
L 26.018182 71.339469 
L 29.165035 71.339469 
L 32.311888 71.339469 
L 35.458741 71.339469 
L 38.605594 71.339469 
L 41.752448 71.339469 
L 44.899301 71.339469 
L 48.046154 71.339469 
L 51.193007 71.339469 
L 54.33986 71.339469 
L 57.486713 71.339469 
L 60.633566 71.339469 
L 63.78042 71.339469 
L 66.927273 71.339469 
L 70.074126 71.339469 
L 73.220979 71.339469 
L 76.367832 71.339469 
L 79.514685 71.339469 
L 82.661538 71.339469 
L 85.808392 71.339469 
L 88.955245 71.339469 
L 92.102098 71.339469 
L 95.248951 71.339469 
L 98.395804 71.339469 
L 101.542657 71.339469 
L 104.68951 71.339469 
L 107.836364 71.339469 
L 110.983217 71.339469 
L 114.13007 71.339469 
L 117.276923 71.339469 
L 120.423776 71.339469 
L 123.570629 71.339469 
L 126.717483 71.339469 
L 129.864336 71.339469 
L 133.011189 71.339469 
L 136.158042 71.339469 
L 139.304895 71.339469 
L 142.451748 71.339469 
L 145.598601 71.339469 
L 148.745455 71.339469 
L 151.892308 71.339469 
L 155.039161 71.339469 
L 158.186014 71.339469 
L 161.332867 71.339469 
L 164.47972 71.339469 
L 167.626573 71.339469 
L 170.773427 71.339469 
L 173.92028 71.339469 
L 177.067133 71.339469 
L 180.213986 71.339469 
L 183.360839 71.339469 
L 186.507692 71.339469 
L 189.654545 71.339469 
L 192.801399 71.339469 
L 195.948252 71.339469 
L 199.095105 71.339469 
L 202.241958 71.339469 
L 205.388811 71.339469 
L 208.535664 71.339469 
L 211.682517 71.339469 
L 214.829371 71.339469 
L 217.976224 71.339469 
L 221.123077 71.339469 
L 224.26993 71.339469 
L 227.416783 71.339469 
L 230.563636 71.339469 
L 233.71049 71.339469 
L 236.857343 71.339469 
L 240.004196 71.339469 
L 243.151049 71.339469 
L 246.297902 71.339469 
L 249.444755 71.339469 
L 252.591608 71.339469 
L 255.738462 71.339469 
L 258.885315 71.339469 
L 262.032168 71.339469 
L 265.179021 71.339469 
L 268.325874 71.339469 
L 271.472727 71.339469 
L 274.61958 71.339469 
L 277.766434 71.339469 
L 280.913287 71.339469 
L 284.06014 71.339469 
L 287.206993 71.339469 
L 290.353846 71.339469 
L 293.500699 71.339469 
L 296.647552 71.339469 
L 299.794406 71.339469 
L 302.941259 71.339469 
L 306.088112 71.339469 
L 309.234965 71.339469 
L 312.381818 71.339469 
L 315.528671 71.339469 
L 318.675524 71.339469 
L 321.822378 71.339469 
L 324.969231 71.339469 
L 324.969231 71.339469 
L 321.822378 71.339469 
L 318.675524 71.339469 
L 315.528671 71.339469 
L 312.381818 71.339469 
L 309.234965 71.339469 
L 306.088112 71.339469 
L 302.941259 71.339469 
L 299.794406 71.339469 
L 296.647552 71.339469 
L 293.500699 71.339469 
L 290.353846 71.339469 
L 287.206993 71.339469 
L 284.06014 71.339469 
L 280.913287 71.339469 
L 277.766434 71.339469 
L 274.61958 71.339469 
L 271.472727 71.339469 
L 268.325874 71.339469 
L 265.179021 71.339469 
L 262.032168 71.339469 
L 258.885315 71.339469 
L 255.738462 71.339469 
L 252.591608 71.339469 
L 249.444755 71.339469 
L 246.297902 71.339469 
L 243.151049 71.339469 
L 240.004196 71.339469 
L 236.857343 71.339469 
L 233.71049 71.339469 
L 230.563636 71.339469 
L 227.416783 71.339469 
L 224.26993 71.339469 
L 221.123077 71.339469 
L 217.976224 71.339469 
L 214.829371 71.339469 
L 211.682517 71.339469 
L 208.535664 71.339469 
L 205.388811 71.339469 
L 202.241958 71.339469 
L 199.095105 71.339469 
L 195.948252 71.339469 
L 192.801399 71.339469 
L 189.654545 71.339469 
L 186.507692 71.339469 
L 183.360839 71.339469 
L 180.213986 71.339469 
L 177.067133 71.339469 
L 173.92028 71.339469 
L 170.773427 71.339469 
L 167.626573 71.339469 
L 164.47972 71.339469 
L 161.332867 71.339469 
L 158.186014 71.339469 
L 155.039161 71.339469 
L 151.892308 71.339469 
L 148.745455 71.339469 
L 145.598601 71.339469 
L 142.451748 71.339469 
L 139.304895 71.339469 
L 136.158042 71.339469 
L 133.011189 71.339469 
L 129.864336 71.339469 
L 126.717483 71.339469 
L 123.570629 71.339469 
L 120.423776 71.339469 
L 117.276923 71.339469 
L 114.13007 71.339469 
L 110.983217 71.339469 
L 107.836364 71.339469 
L 104.68951 71.339469 
L 101.542657 71.339469 
L 98.395804 71.339469 
L 95.248951 71.339469 
L 92.102098 71.339469 
L 88.955245 71.339469 
L 85.808392 71.339469 
L 82.661538 71.339469 
L 79.514685 71.339469 
L 76.367832 71.339469 
L 73.220979 71.339469 
L 70.074126 71.339469 
L 66.927273 71.339469 
L 63.78042 71.339469 
L 60.633566 71.339469 
L 57.486713 71.339469 
L 54.33986 71.339469 
L 51.193007 71.339469 
L 48.046154 71.339469 
L 44.899301 71.339469 
L 41.752448 71.339469 
L 38.605594 71.339469 
L 35.458741 71.339469 
L 32.311888 71.339469 
L 29.165035 71.339469 
L 26.018182 71.339469 
L 22.871329 71.339469 
L 19.724476 71.339469 
L 16.577622 71.339469 
L 13.430769 71.339469 
L 13.430769 71.339469 
z
" clip-path="url(#p4e11156940)" style="fill: #add8e6"/>
   </g>
   <g id="PathCollection_3">
    <path d="M 16.577622 267.060531 
L 19.724476 267.060531 
L 22.871329 267.060531 
L 26.018182 267.060531 
L 29.165035 267.060531 
L 32.311888 267.060531 
L 35.458741 267.060531 
L 38.605594 267.060531 
L 41.752448 267.060531 
L 44.899301 267.060531 
L 48.046154 267.060531 
L 51.193007 267.060531 
L 54.33986 267.060531 
L 57.486713 267.060531 
L 60.633566 267.060531 
L 63.78042 267.060531 
L 66.927273 267.060531 
L 70.074126 267.060531 
L 73.220979 267.060531 
L 76.367832 267.060531 
L 79.514685 267.060531 
L 82.661538 267.060531 
L 85.808392 267.060531 
L 88.955245 267.060531 
L 92.102098 267.060531 
L 95.248951 267.060531 
L 98.395804 267.060531 
L 101.542657 267.060531 
L 104.68951 267.060531 
L 107.836364 267.060531 
L 110.983217 267.060531 
L 114.13007 267.060531 
L 117.276923 267.060531 
L 120.423776 267.060531 
L 123.570629 267.060531 
L 126.717483 267.060531 
L 129.864336 267.060531 
L 133.011189 267.060531 
L 136.158042 267.060531 
L 139.304895 267.060531 
L 142.451748 267.060531 
L 145.598601 267.060531 
L 148.745455 267.060531 
L 151.892308 267.060531 
L 155.039161 267.060531 
L 158.186014 267.060531 
L 161.332867 267.060531 
L 164.47972 267.060531 
L 167.626573 267.060531 
L 170.773427 267.060531 
L 173.92028 267.060531 
L 177.067133 267.060531 
L 180.213986 267.060531 
L 183.360839 267.060531 
L 186.507692 267.060531 
L 189.654545 267.060531 
L 192.801399 267.060531 
L 195.948252 267.060531 
L 199.095105 267.060531 
L 202.241958 267.060531 
L 205.388811 267.060531 
L 208.535664 267.060531 
L 211.682517 267.060531 
L 214.829371 267.060531 
L 217.976224 267.060531 
L 221.123077 267.060531 
L 224.26993 267.060531 
L 227.416783 267.060531 
L 230.563636 267.060531 
L 233.71049 267.060531 
L 236.857343 267.060531 
L 240.004196 267.060531 
L 243.151049 267.060531 
L 246.297902 267.060531 
L 249.444755 267.060531 
L 252.591608 267.060531 
L 255.738462 267.060531 
L 258.885315 267.060531 
L 262.032168 267.060531 
L 265.179021 267.060531 
L 268.325874 267.060531 
L 271.472727 267.060531 
L 274.61958 267.060531 
L 277.766434 267.060531 
L 280.913287 267.060531 
L 284.06014 267.060531 
L 287.206993 267.060531 
L 290.353846 267.060531 
L 293.500699 267.060531 
L 296.647552 267.060531 
L 299.794406 267.060531 
L 302.941259 267.060531 
L 306.088112 267.060531 
L 309.234965 267.060531 
L 312.381818 267.060531 
L 315.528671 267.060531 
L 318.675524 267.060531 
L 321.822378 267.060531 
L 324.969231 267.060531 
L 324.969231 267.060531 
L 321.822378 267.060531 
L 318.675524 267.060531 
L 315.528671 267.060531 
L 312.381818 267.060531 
L 309.234965 267.060531 
L 306.088112 267.060531 
L 302.941259 267.060531 
L 299.794406 267.060531 
L 296.647552 267.060531 
L 293.500699 267.060531 
L 290.353846 267.060531 
L 287.206993 267.060531 
L 284.06014 267.060531 
L 280.913287 267.060531 
L 277.766434 267.060531 
L 274.61958 267.060531 
L 271.472727 267.060531 
L 268.325874 267.060531 
L 265.179021 267.060531 
L 262.032168 267.060531 
L 258.885315 267.060531 
L 255.738462 267.060531 
L 252.591608 267.060531 
L 249.444755 267.060531 
L 246.297902 267.060531 
L 243.151049 267.060531 
L 240.004196 267.060531 
L 236.857343 267.060531 
L 233.71049 267.060531 
L 230.563636 267.060531 
L 227.416783 267.060531 
L 224.26993 267.060531 
L 221.123077 267.060531 
L 217.976224 267.060531 
L 214.829371 267.060531 
L 211.682517 267.060531 
L 208.535664 267.060531 
L 205.388811 267.060531 
L 202.241958 267.060531 
L 199.095105 267.060531 
L 195.948252 267.060531 
L 192.801399 267.060531 
L 189.654545 267.060531 
L 186.507692 267.060531 
L 183.360839 267.060531 
L 180.213986 267.060531 
L 177.067133 267.060531 
L 173.92028 267.060531 
L 170.773427 267.060531 
L 167.626573 267.060531 
L 164.47972 267.060531 
L 161.332867 267.060531 
L 158.186014 267.060531 
L 155.039161 267.060531 
L 151.892308 267.060531 
L 148.745455 267.060531 
L 145.598601 267.060531 
L 142.451748 267.060531 
L 139.304895 267.060531 
L 136.158042 267.060531 
L 133.011189 267.060531 
L 129.864336 267.060531 
L 126.717483 267.060531 
L 123.570629 267.060531 
L 120.423776 267.060531 
L 117.276923 267.060531 
L 114.13007 267.060531 
L 110.983217 267.060531 
L 107.836364 267.060531 
L 104.68951 267.060531 
L 101.542657 267.060531 
L 98.395804 267.060531 
L 95.248951 267.060531 
L 92.102098 267.060531 
L 88.955245 267.060531 
L 85.808392 267.060531 
L 82.661538 267.060531 
L 79.514685 267.060531 
L 76.367832 267.060531 
L 73.220979 267.060531 
L 70.074126 267.060531 
L 66.927273 267.060531 
L 63.78042 267.060531 
L 60.633566 267.060531 
L 57.486713 267.060531 
L 54.33986 267.060531 
L 51.193007 267.060531 
L 48.046154 267.060531 
L 44.899301 267.060531 
L 41.752448 267.060531 
L 38.605594 267.060531 
L 35.458741 267.060531 
L 32.311888 267.060531 
L 29.165035 267.060531 
L 26.018182 267.060531 
L 22.871329 267.060531 
L 19.724476 267.060531 
L 16.577622 267.060531 
L 13.430769 267.060531 
L 13.430769 267.060531 
z
" clip-path="url(#p4e11156940)" style="fill: #ffffff"/>
    <path d="M 16.577622 71.339469 
L 19.724476 71.339469 
L 22.871329 71.339469 
L 26.018182 71.339469 
L 29.165035 71.339469 
L 32.311888 71.339469 
L 35.458741 71.339469 
L 38.605594 71.339469 
L 41.752448 71.339469 
L 44.899301 71.339469 
L 48.046154 71.339469 
L 51.193007 71.339469 
L 54.33986 71.339469 
L 57.486713 71.339469 
L 60.633566 71.339469 
L 63.78042 71.339469 
L 66.927273 71.339469 
L 70.074126 71.339469 
L 73.220979 71.339469 
L 76.367832 71.339469 
L 79.514685 71.339469 
L 82.661538 71.339469 
L 85.808392 71.339469 
L 88.955245 71.339469 
L 92.102098 71.339469 
L 95.248951 71.339469 
L 98.395804 71.339469 
L 101.542657 71.339469 
L 104.68951 71.339469 
L 107.836364 71.339469 
L 110.983217 71.339469 
L 114.13007 71.339469 
L 117.276923 71.339469 
L 120.423776 71.339469 
L 123.570629 71.339469 
L 126.717483 71.339469 
L 129.864336 71.339469 
L 133.011189 71.339469 
L 136.158042 71.339469 
L 139.304895 71.339469 
L 142.451748 71.339469 
L 145.598601 71.339469 
L 148.745455 71.339469 
L 151.892308 71.339469 
L 155.039161 71.339469 
L 158.186014 71.339469 
L 161.332867 71.339469 
L 164.47972 71.339469 
L 167.626573 71.339469 
L 170.773427 71.339469 
L 173.92028 71.339469 
L 177.067133 71.339469 
L 180.213986 71.339469 
L 183.360839 71.339469 
L 186.507692 71.339469 
L 189.654545 71.339469 
L 192.801399 71.339469 
L 195.948252 71.339469 
L 199.095105 71.339469 
L 202.241958 71.339469 
L 205.388811 71.339469 
L 208.535664 71.339469 
L 211.682517 71.339469 
L 214.829371 71.339469 
L 217.976224 71.339469 
L 221.123077 71.339469 
L 224.26993 71.339469 
L 227.416783 71.339469 
L 230.563636 71.339469 
L 233.71049 71.339469 
L 236.857343 71.339469 
L 240.004196 71.339469 
L 243.151049 71.339469 
L 246.297902 71.339469 
L 249.444755 71.339469 
L 252.591608 71.339469 
L 255.738462 71.339469 
L 258.885315 71.339469 
L 262.032168 71.339469 
L 265.179021 71.339469 
L 268.325874 71.339469 
L 271.472727 71.339469 
L 274.61958 71.339469 
L 277.766434 71.339469 
L 280.913287 71.339469 
L 284.06014 71.339469 
L 287.206993 71.339469 
L 290.353846 71.339469 
L 293.500699 71.339469 
L 296.647552 71.339469 
L 299.794406 71.339469 
L 302.941259 71.339469 
L 306.088112 71.339469 
L 309.234965 71.339469 
L 312.381818 71.339469 
L 315.528671 71.339469 
L 318.675524 71.339469 
L 321.822378 71.339469 
L 324.969231 71.339469 
L 324.969231 71.339469 
L 321.822378 71.339469 
L 318.675524 71.339469 
L 315.528671 71.339469 
L 312.381818 71.339469 
L 309.234965 71.339469 
L 306.088112 71.339469 
L 302.941259 71.339469 
L 299.794406 71.339469 
L 296.647552 71.339469 
L 293.500699 71.339469 
L 290.353846 71.339469 
L 287.206993 71.339469 
L 284.06014 71.339469 
L 280.913287 71.339469 
L 277.766434 71.339469 
L 274.61958 71.339469 
L 271.472727 71.339469 
L 268.325874 71.339469 
L 265.179021 71.339469 
L 262.032168 71.339469 
L 258.885315 71.339469 
L 255.738462 71.339469 
L 252.591608 71.339469 
L 249.444755 71.339469 
L 246.297902 71.339469 
L 243.151049 71.339469 
L 240.004196 71.339469 
L 236.857343 71.339469 
L 233.71049 71.339469 
L 230.563636 71.339469 
L 227.416783 71.339469 
L 224.26993 71.339469 
L 221.123077 71.339469 
L 217.976224 71.339469 
L 214.829371 71.339469 
L 211.682517 71.339469 
L 208.535664 71.339469 
L 205.388811 71.339469 
L 202.241958 71.339469 
L 199.095105 71.339469 
L 195.948252 71.339469 
L 192.801399 71.339469 
L 189.654545 71.339469 
L 186.507692 71.339469 
L 183.360839 71.339469 
L 180.213986 71.339469 
L 177.067133 71.339469 
L 173.92028 71.339469 
L 170.773427 71.339469 
L 167.626573 71.339469 
L 164.47972 71.339469 
L 161.332867 71.339469 
L 158.186014 71.339469 
L 155.039161 71.339469 
L 151.892308 71.339469 
L 148.745455 71.339469 
L 145.598601 71.339469 
L 142.451748 71.339469 
L 139.304895 71.339469 
L 136.158042 71.339469 
L 133.011189 71.339469 
L 129.864336 71.339469 
L 126.717483 71.339469 
L 123.570629 71.339469 
L 120.423776 71.339469 
L 117.276923 71.339469 
L 114.13007 71.339469 
L 110.983217 71.339469 
L 107.836364 71.339469 
L 104.68951 71.339469 
L 101.542657 71.339469 
L 98.395804 71.339469 
L 95.248951 71.339469 
L 92.102098 71.339469 
L 88.955245 71.339469 
L 85.808392 71.339469 
L 82.661538 71.339469 
L 79.514685 71.339469 
L 76.367832 71.339469 
L 73.220979 71.339469 
L 70.074126 71.339469 
L 66.927273 71.339469 
L 63.78042 71.339469 
L 60.633566 71.339469 
L 57.486713 71.339469 
L 54.33986 71.339469 
L 51.193007 71.339469 
L 48.046154 71.339469 
L 44.899301 71.339469 
L 41.752448 71.339469 
L 38.605594 71.339469 
L 35.458741 71.339469 
L 32.311888 71.339469 
L 29.165035 71.339469 
L 26.018182 71.339469 
L 22.871329 71.339469 
L 19.724476 71.339469 
L 16.577622 71.339469 
L 13.430769 71.339469 
L 13.430769 71.339469 
z
" clip-path="url(#p4e11156940)" style="fill: #ffffff"/>
   </g>
   <g id="PathCollection_4">
    <path d="M 16.577622 324.969231 
L 19.724476 324.969231 
L 22.871329 324.969231 
L 26.018182 324.969231 
L 29.165035 324.969231 
L 32.311888 324.969231 
L 35.458741 324.969231 
L 38.605594 324.969231 
L 41.752448 324.969231 
L 44.899301 324.969231 
L 48.046154 324.969231 
L 51.193007 324.969231 
L 54.33986 324.969231 
L 57.486713 324.969231 
L 60.633566 324.969231 
L 63.78042 324.969231 
L 66.927273 324.969231 
L 70.074126 324.969231 
L 73.220979 324.969231 
L 76.367832 324.969231 
L 79.514685 324.969231 
L 82.661538 324.969231 
L 85.808392 324.969231 
L 88.955245 324.969231 
L 92.102098 324.969231 
L 95.248951 324.969231 
L 98.395804 324.969231 
L 101.542657 324.969231 
L 104.68951 324.969231 
L 107.836364 324.969231 
L 110.983217 324.969231 
L 114.13007 324.969231 
L 117.276923 324.969231 
L 120.423776 324.969231 
L 123.570629 324.969231 
L 126.717483 324.969231 
L 129.864336 324.969231 
L 133.011189 324.969231 
L 136.158042 324.969231 
L 139.304895 324.969231 
L 142.451748 324.969231 
L 145.598601 324.969231 
L 148.745455 324.969231 
L 151.892308 324.969231 
L 155.039161 324.969231 
L 158.186014 324.969231 
L 161.332867 324.969231 
L 164.47972 324.969231 
L 167.626573 324.969231 
L 170.773427 324.969231 
L 173.92028 324.969231 
L 177.067133 324.969231 
L 180.213986 324.969231 
L 183.360839 324.969231 
L 186.507692 324.969231 
L 189.654545 324.969231 
L 192.801399 324.969231 
L 195.948252 324.969231 
L 199.095105 324.969231 
L 202.241958 324.969231 
L 205.388811 324.969231 
L 208.535664 324.969231 
L 211.682517 324.969231 
L 214.829371 324.969231 
L 217.976224 324.969231 
L 221.123077 324.969231 
L 224.26993 324.969231 
L 227.416783 324.969231 
L 230.563636 324.969231 
L 233.71049 324.969231 
L 236.857343 324.969231 
L 240.004196 324.969231 
L 243.151049 324.969231 
L 246.297902 324.969231 
L 249.444755 324.969231 
L 252.591608 324.969231 
L 255.738462 324.969231 
L 258.885315 324.969231 
L 262.032168 324.969231 
L 265.179021 324.969231 
L 268.325874 324.969231 
L 271.472727 324.969231 
L 274.61958 324.969231 
L 277.766434 324.969231 
L 280.913287 324.969231 
L 284.06014 324.969231 
L 287.206993 324.969231 
L 290.353846 324.969231 
L 293.500699 324.969231 
L 296.647552 324.969231 
L 299.794406 324.969231 
L 302.941259 324.969231 
L 306.088112 324.969231 
L 309.234965 324.969231 
L 312.381818 324.969231 
L 315.528671 324.969231 
L 318.675524 324.969231 
L 321.822378 324.969231 
L 324.969231 324.969231 
L 324.969231 321.822378 
L 324.969231 318.675524 
L 324.969231 315.528671 
L 324.969231 312.381818 
L 324.969231 309.234965 
L 324.969231 306.088112 
L 324.969231 302.941259 
L 324.969231 299.794406 
L 324.969231 296.647552 
L 324.969231 293.500699 
L 324.969231 290.353846 
L 324.969231 287.206993 
L 324.969231 284.06014 
L 324.969231 280.913287 
L 324.969231 277.766434 
L 324.969231 274.61958 
L 324.969231 271.472727 
L 324.969231 268.325874 
L 324.969231 267.060531 
L 321.822378 267.060531 
L 318.675524 267.060531 
L 315.528671 267.060531 
L 312.381818 267.060531 
L 309.234965 267.060531 
L 306.088112 267.060531 
L 302.941259 267.060531 
L 299.794406 267.060531 
L 296.647552 267.060531 
L 293.500699 267.060531 
L 290.353846 267.060531 
L 287.206993 267.060531 
L 284.06014 267.060531 
L 280.913287 267.060531 
L 277.766434 267.060531 
L 274.61958 267.060531 
L 271.472727 267.060531 
L 268.325874 267.060531 
L 265.179021 267.060531 
L 262.032168 267.060531 
L 258.885315 267.060531 
L 255.738462 267.060531 
L 252.591608 267.060531 
L 249.444755 267.060531 
L 246.297902 267.060531 
L 243.151049 267.060531 
L 240.004196 267.060531 
L 236.857343 267.060531 
L 233.71049 267.060531 
L 230.563636 267.060531 
L 227.416783 267.060531 
L 224.26993 267.060531 
L 221.123077 267.060531 
L 217.976224 267.060531 
L 214.829371 267.060531 
L 211.682517 267.060531 
L 208.535664 267.060531 
L 205.388811 267.060531 
L 202.241958 267.060531 
L 199.095105 267.060531 
L 195.948252 267.060531 
L 192.801399 267.060531 
L 189.654545 267.060531 
L 186.507692 267.060531 
L 183.360839 267.060531 
L 180.213986 267.060531 
L 177.067133 267.060531 
L 173.92028 267.060531 
L 170.773427 267.060531 
L 167.626573 267.060531 
L 164.47972 267.060531 
L 161.332867 267.060531 
L 158.186014 267.060531 
L 155.039161 267.060531 
L 151.892308 267.060531 
L 148.745455 267.060531 
L 145.598601 267.060531 
L 142.451748 267.060531 
L 139.304895 267.060531 
L 136.158042 267.060531 
L 133.011189 267.060531 
L 129.864336 267.060531 
L 126.717483 267.060531 
L 123.570629 267.060531 
L 120.423776 267.060531 
L 117.276923 267.060531 
L 114.13007 267.060531 
L 110.983217 267.060531 
L 107.836364 267.060531 
L 104.68951 267.060531 
L 101.542657 267.060531 
L 98.395804 267.060531 
L 95.248951 267.060531 
L 92.102098 267.060531 
L 88.955245 267.060531 
L 85.808392 267.060531 
L 82.661538 267.060531 
L 79.514685 267.060531 
L 76.367832 267.060531 
L 73.220979 267.060531 
L 70.074126 267.060531 
L 66.927273 267.060531 
L 63.78042 267.060531 
L 60.633566 267.060531 
L 57.486713 267.060531 
L 54.33986 267.060531 
L 51.193007 267.060531 
L 48.046154 267.060531 
L 44.899301 267.060531 
L 41.752448 267.060531 
L 38.605594 267.060531 
L 35.458741 267.060531 
L 32.311888 267.060531 
L 29.165035 267.060531 
L 26.018182 267.060531 
L 22.871329 267.060531 
L 19.724476 267.060531 
L 16.577622 267.060531 
L 13.430769 267.060531 
L 13.430769 268.325874 
L 13.430769 271.472727 
L 13.430769 274.61958 
L 13.430769 277.766434 
L 13.430769 280.913287 
L 13.430769 284.06014 
L 13.430769 287.206993 
L 13.430769 290.353846 
L 13.430769 293.500699 
L 13.430769 296.647552 
L 13.430769 299.794406 
L 13.430769 302.941259 
L 13.430769 306.088112 
L 13.430769 309.234965 
L 13.430769 312.381818 
L 13.430769 315.528671 
L 13.430769 318.675524 
L 13.430769 321.822378 
L 13.430769 324.969231 
L 16.577622 324.969231 
z
" clip-path="url(#p4e11156940)" style="fill: none"/>
    <path d="M 16.577622 71.339469 
L 19.724476 71.339469 
L 22.871329 71.339469 
L 26.018182 71.339469 
L 29.165035 71.339469 
L 32.311888 71.339469 
L 35.458741 71.339469 
L 38.605594 71.339469 
L 41.752448 71.339469 
L 44.899301 71.339469 
L 48.046154 71.339469 
L 51.193007 71.339469 
L 54.33986 71.339469 
L 57.486713 71.339469 
L 60.633566 71.339469 
L 63.78042 71.339469 
L 66.927273 71.339469 
L 70.074126 71.339469 
L 73.220979 71.339469 
L 76.367832 71.339469 
L 79.514685 71.339469 
L 82.661538 71.339469 
L 85.808392 71.339469 
L 88.955245 71.339469 
L 92.102098 71.339469 
L 95.248951 71.339469 
L 98.395804 71.339469 
L 101.542657 71.339469 
L 104.68951 71.339469 
L 107.836364 71.339469 
L 110.983217 71.339469 
L 114.13007 71.339469 
L 117.276923 71.339469 
L 120.423776 71.339469 
L 123.570629 71.339469 
L 126.717483 71.339469 
L 129.864336 71.339469 
L 133.011189 71.339469 
L 136.158042 71.339469 
L 139.304895 71.339469 
L 142.451748 71.339469 
L 145.598601 71.339469 
L 148.745455 71.339469 
L 151.892308 71.339469 
L 155.039161 71.339469 
L 158.186014 71.339469 
L 161.332867 71.339469 
L 164.47972 71.339469 
L 167.626573 71.339469 
L 170.773427 71.339469 
L 173.92028 71.339469 
L 177.067133 71.339469 
L 180.213986 71.339469 
L 183.360839 71.339469 
L 186.507692 71.339469 
L 189.654545 71.339469 
L 192.801399 71.339469 
L 195.948252 71.339469 
L 199.095105 71.339469 
L 202.241958 71.339469 
L 205.388811 71.339469 
L 208.535664 71.339469 
L 211.682517 71.339469 
L 214.829371 71.339469 
L 217.976224 71.339469 
L 221.123077 71.339469 
L 224.26993 71.339469 
L 227.416783 71.339469 
L 230.563636 71.339469 
L 233.71049 71.339469 
L 236.857343 71.339469 
L 240.004196 71.339469 
L 243.151049 71.339469 
L 246.297902 71.339469 
L 249.444755 71.339469 
L 252.591608 71.339469 
L 255.738462 71.339469 
L 258.885315 71.339469 
L 262.032168 71.339469 
L 265.179021 71.339469 
L 268.325874 71.339469 
L 271.472727 71.339469 
L 274.61958 71.339469 
L 277.766434 71.339469 
L 280.913287 71.339469 
L 284.06014 71.339469 
L 287.206993 71.339469 
L 290.353846 71.339469 
L 293.500699 71.339469 
L 296.647552 71.339469 
L 299.794406 71.339469 
L 302.941259 71.339469 
L 306.088112 71.339469 
L 309.234965 71.339469 
L 312.381818 71.339469 
L 315.528671 71.339469 
L 318.675524 71.339469 
L 321.822378 71.339469 
L 324.969231 71.339469 
L 324.969231 70.074126 
L 324.969231 66.927273 
L 324.969231 63.78042 
L 324.969231 60.633566 
L 324.969231 57.486713 
L 324.969231 54.33986 
L 324.969231 51.193007 
L 324.969231 48.046154 
L 324.969231 44.899301 
L 324.969231 41.752448 
L 324.969231 38.605594 
L 324.969231 35.458741 
L 324.969231 32.311888 
L 324.969231 29.165035 
L 324.969231 26.018182 
L 324.969231 22.871329 
L 324.969231 19.724476 
L 324.969231 16.577622 
L 324.969231 13.430769 
L 321.822378 13.430769 
L 318.675524 13.430769 
L 315.528671 13.430769 
L 312.381818 13.430769 
L 309.234965 13.430769 
L 306.088112 13.430769 
L 302.941259 13.430769 
L 299.794406 13.430769 
L 296.647552 13.430769 
L 293.500699 13.430769 
L 290.353846 13.430769 
L 287.206993 13.430769 
L 284.06014 13.430769 
L 280.913287 13.430769 
L 277.766434 13.430769 
L 274.61958 13.430769 
L 271.472727 13.430769 
L 268.325874 13.430769 
L 265.179021 13.430769 
L 262.032168 13.430769 
L 258.885315 13.430769 
L 255.738462 13.430769 
L 252.591608 13.430769 
L 249.444755 13.430769 
L 246.297902 13.430769 
L 243.151049 13.430769 
L 240.004196 13.430769 
L 236.857343 13.430769 
L 233.71049 13.430769 
L 230.563636 13.430769 
L 227.416783 13.430769 
L 224.26993 13.430769 
L 221.123077 13.430769 
L 217.976224 13.430769 
L 214.829371 13.430769 
L 211.682517 13.430769 
L 208.535664 13.430769 
L 205.388811 13.430769 
L 202.241958 13.430769 
L 199.095105 13.430769 
L 195.948252 13.430769 
L 192.801399 13.430769 
L 189.654545 13.430769 
L 186.507692 13.430769 
L 183.360839 13.430769 
L 180.213986 13.430769 
L 177.067133 13.430769 
L 173.92028 13.430769 
L 170.773427 13.430769 
L 167.626573 13.430769 
L 164.47972 13.430769 
L 161.332867 13.430769 
L 158.186014 13.430769 
L 155.039161 13.430769 
L 151.892308 13.430769 
L 148.745455 13.430769 
L 145.598601 13.430769 
L 142.451748 13.430769 
L 139.304895 13.430769 
L 136.158042 13.430769 
L 133.011189 13.430769 
L 129.864336 13.430769 
L 126.717483 13.430769 
L 123.570629 13.430769 
L 120.423776 13.430769 
L 117.276923 13.430769 
L 114.13007 13.430769 
L 110.983217 13.430769 
L 107.836364 13.430769 
L 104.68951 13.430769 
L 101.542657 13.430769 
L 98.395804 13.430769 
L 95.248951 13.430769 
L 92.102098 13.430769 
L 88.955245 13.430769 
L 85.808392 13.430769 
L 82.661538 13.430769 
L 79.514685 13.430769 
L 76.367832 13.430769 
L 73.220979 13.430769 
L 70.074126 13.430769 
L 66.927273 13.430769 
L 63.78042 13.430769 
L 60.633566 13.430769 
L 57.486713 13.430769 
L 54.33986 13.430769 
L 51.193007 13.430769 
L 48.046154 13.430769 
L 44.899301 13.430769 
L 41.752448 13.430769 
L 38.605594 13.430769 
L 35.458741 13.430769 
L 32.311888 13.430769 
L 29.165035 13.430769 
L 26.018182 13.430769 
L 22.871329 13.430769 
L 19.724476 13.430769 
L 16.577622 13.430769 
L 13.430769 13.430769 
L 13.430769 16.577622 
L 13.430769 19.724476 
L 13.430769 22.871329 
L 13.430769 26.018182 
L 13.430769 29.165035 
L 13.430769 32.311888 
L 13.430769 35.458741 
L 13.430769 38.605594 
L 13.430769 41.752448 
L 13.430769 44.899301 
L 13.430769 48.046154 
L 13.430769 51.193007 
L 13.430769 54.33986 
L 13.430769 57.486713 
L 13.430769 60.633566 
L 13.430769 63.78042 
L 13.430769 66.927273 
L 13.430769 70.074126 
L 13.430769 71.339469 
L 16.577622 71.339469 
z
" clip-path="url(#p4e11156940)" style="fill: none"/>
   </g>
   <g id="matplotlib.axis_1">
    <g id="xtick_1">
     <g id="line2d_1">
      <defs>
       <path id="m4e644f9eea" d="M 0 0 
L 0 3.5 
" style="stroke: #000000; stroke-width: 0.8"/>
      </defs>
      <g>
       <use xlink:href="#m4e644f9eea" x="44.584615" y="169.2" style="stroke: #000000; stroke-width: 0.8"/>
      </g>
     </g>
     <g id="text_1">
      <!-- −4 -->
      <g transform="translate(37.213522 183.798438) scale(0.1 -0.1)">
       <defs>
        <path id="DejaVuSans-2212" d="M 678 2272 
L 4684 2272 
L 4684 1741 
L 678 1741 
L 678 2272 
z
" transform="scale(0.015625)"/>
        <path id="DejaVuSans-34" d="M 2419 4116 
L 825 1625 
L 2419 1625 
L 2419 4116 
z
M 2253 4666 
L 3047 4666 
L 3047 1625 
L 3713 1625 
L 3713 1100 
L 3047 1100 
L 3047 0 
L 2419 0 
L 2419 1100 
L 313 1100 
L 313 1709 
L 2253 4666 
z
" transform="scale(0.015625)"/>
       </defs>
       <use xlink:href="#DejaVuSans-2212"/>
       <use xlink:href="#DejaVuSans-34" x="83.789062"/>
      </g>
     </g>
    </g>
    <g id="xtick_2">
     <g id="line2d_2">
      <g>
       <use xlink:href="#m4e644f9eea" x="106.892308" y="169.2" style="stroke: #000000; stroke-width: 0.8"/>
      </g>
     </g>
     <g id="text_2">
      <!-- −2 -->
      <g transform="translate(99.521214 183.798438) scale(0.1 -0.1)">
       <defs>
        <path id="DejaVuSans-32" d="M 1228 531 
L 3431 531 
L 3431 0 
L 469 0 
L 469 531 
Q 828 903 1448 1529 
Q 2069 2156 2228 2338 
Q 2531 2678 2651 2914 
Q 2772 3150 2772 3378 
Q 2772 3750 2511 3984 
Q 2250 4219 1831 4219 
Q 1534 4219 1204 4116 
Q 875 4013 500 3803 
L 500 4441 
Q 881 4594 1212 4672 
Q 1544 4750 1819 4750 
Q 2544 4750 2975 4387 
Q 3406 4025 3406 3419 
Q 3406 3131 3298 2873 
Q 3191 2616 2906 2266 
Q 2828 2175 2409 1742 
Q 1991 1309 1228 531 
z
" transform="scale(0.015625)"/>
       </defs>
       <use xlink:href="#DejaVuSans-2212"/>
       <use xlink:href="#DejaVuSans-32" x="83.789062"/>
      </g>
     </g>
    </g>
    <g id="xtick_3">
     <g id="line2d_3">
      <g>
       <use xlink:href="#m4e644f9eea" x="169.2" y="169.2" style="stroke: #000000; stroke-width: 0.8"/>
      </g>
     </g>
    </g>
    <g id="xtick_4">
     <g id="line2d_4">
      <g>
       <use xlink:href="#m4e644f9eea" x="231.507692" y="169.2" style="stroke: #000000; stroke-width: 0.8"/>
      </g>
     </g>
     <g id="text_3">
      <!-- 2 -->
      <g transform="translate(228.326442 183.798438) scale(0.1 -0.1)">
       <use xlink:href="#DejaVuSans-32"/>
      </g>
     </g>
    </g>
    <g id="xtick_5">
     <g id="line2d_5">
      <g>
       <use xlink:href="#m4e644f9eea" x="293.815385" y="169.2" style="stroke: #000000; stroke-width: 0.8"/>
      </g>
     </g>
     <g id="text_4">
      <!-- 4 -->
      <g transform="translate(290.634135 183.798438) scale(0.1 -0.1)">
       <use xlink:href="#DejaVuSans-34"/>
      </g>
     </g>
    </g>
    <g id="xtick_6">
     <g id="line2d_6">
      <defs>
       <path id="md079fdb131" d="M 0 0 
L 0 2 
" style="stroke: #000000; stroke-width: 0.6"/>
      </defs>
      <g>
       <use xlink:href="#md079fdb131" x="13.430769" y="169.2" style="stroke: #000000; stroke-width: 0.6"/>
      </g>
     </g>
    </g>
    <g id="xtick_7">
     <g id="line2d_7">
      <g>
       <use xlink:href="#md079fdb131" x="29.007692" y="169.2" style="stroke: #000000; stroke-width: 0.6"/>
      </g>
     </g>
    </g>
    <g id="xtick_8">
     <g id="line2d_8">
      <g>
       <use xlink:href="#md079fdb131" x="60.161538" y="169.2" style="stroke: #000000; stroke-width: 0.6"/>
      </g>
     </g>
    </g>
    <g id="xtick_9">
     <g id="line2d_9">
      <g>
       <use xlink:href="#md079fdb131" x="75.738462" y="169.2" style="stroke: #000000; stroke-width: 0.6"/>
      </g>
     </g>
    </g>
    <g id="xtick_10">
     <g id="line2d_10">
      <g>
       <use xlink:href="#md079fdb131" x="91.315385" y="169.2" style="stroke: #000000; stroke-width: 0.6"/>
      </g>
     </g>
    </g>
    <g id="xtick_11">
     <g id="line2d_11">
      <g>
       <use xlink:href="#md079fdb131" x="122.469231" y="169.2" style="stroke: #000000; stroke-width: 0.6"/>
      </g>
     </g>
    </g>
    <g id="xtick_12">
     <g id="line2d_12">
      <g>
       <use xlink:href="#md079fdb131" x="138.046154" y="169.2" style="stroke: #000000; stroke-width: 0.6"/>
      </g>
     </g>
    </g>
    <g id="xtick_13">
     <g id="line2d_13">
      <g>
       <use xlink:href="#md079fdb131" x="153.623077" y="169.2" style="stroke: #000000; stroke-width: 0.6"/>
      </g>
     </g>
    </g>
    <g id="xtick_14">
     <g id="line2d_14">
      <g>
       <use xlink:href="#md079fdb131" x="184.776923" y="169.2" style="stroke: #000000; stroke-width: 0.6"/>
      </g>
     </g>
    </g>
    <g id="xtick_15">
     <g id="line2d_15">
      <g>
       <use xlink:href="#md079fdb131" x="200.353846" y="169.2" style="stroke: #000000; stroke-width: 0.6"/>
      </g>
     </g>
    </g>
    <g id="xtick_16">
     <g id="line2d_16">
      <g>
       <use xlink:href="#md079fdb131" x="215.930769" y="169.2" style="stroke: #000000; stroke-width: 0.6"/>
      </g>
     </g>
    </g>
    <g id="xtick_17">
     <g id="line2d_17">
      <g>
       <use xlink:href="#md079fdb131" x="247.084615" y="169.2" style="stroke: #000000; stroke-width: 0.6"/>
      </g>
     </g>
    </g>
    <g id="xtick_18">
     <g id="line2d_18">
      <g>
       <use xlink:href="#md079fdb131" x="262.661538" y="169.2" style="stroke: #000000; stroke-width: 0.6"/>
      </g>
     </g>
    </g>
    <g id="xtick_19">
     <g id="line2d_19">
      <g>
       <use xlink:href="#md079fdb131" x="278.238462" y="169.2" style="stroke: #000000; stroke-width: 0.6"/>
      </g>
     </g>
    </g>
    <g id="xtick_20">
     <g id="line2d_20">
      <g>
       <use xlink:href="#md079fdb131" x="309.392308" y="169.2" style="stroke: #000000; stroke-width: 0.6"/>
      </g>
     </g>
    </g>
    <g id="xtick_21">
     <g id="line2d_21">
      <g>
       <use xlink:href="#md079fdb131" x="324.969231" y="169.2" style="stroke: #000000; stroke-width: 0.6"/>
      </g>
     </g>
    </g>
   </g>
   <g id="matplotlib.axis_2">
    <g id="ytick_1">
     <g id="line2d_22">
      <defs>
       <path id="mdf9be89718" d="M 0 0 
L -3.5 0 
" style="stroke: #000000; stroke-width: 0.8"/>
      </defs>
      <g>
       <use xlink:href="#mdf9be89718" x="169.2" y="293.815385" style="stroke: #000000; stroke-width: 0.8"/>
      </g>
     </g>
     <g id="text_5">
      <!-- −4 -->
      <g transform="translate(147.457812 297.614603) scale(0.1 -0.1)">
       <use xlink:href="#DejaVuSans-2212"/>
       <use xlink:href="#DejaVuSans-34" x="83.789062"/>
      </g>
     </g>
    </g>
    <g id="ytick_2">
     <g id="line2d_23">
      <g>
       <use xlink:href="#mdf9be89718" x="169.2" y="231.507692" style="stroke: #000000; stroke-width: 0.8"/>
      </g>
     </g>
     <g id="text_6">
      <!-- −2 -->
      <g transform="translate(147.457812 235.306911) scale(0.1 -0.1)">
       <use xlink:href="#DejaVuSans-2212"/>
       <use xlink:href="#DejaVuSans-32" x="83.789062"/>
      </g>
     </g>
    </g>
    <g id="ytick_3">
     <g id="line2d_24">
      <g>
       <use xlink:href="#mdf9be89718" x="169.2" y="169.2" style="stroke: #000000; stroke-width: 0.8"/>
      </g>
     </g>
    </g>
    <g id="ytick_4">
     <g id="line2d_25">
      <g>
       <use xlink:href="#mdf9be89718" x="169.2" y="106.892308" style="stroke: #000000; stroke-width: 0.8"/>
      </g>
     </g>
     <g id="text_7">
      <!-- 2 -->
      <g transform="translate(155.8375 110.691526) scale(0.1 -0.1)">
       <use xlink:href="#DejaVuSans-32"/>
      </g>
     </g>
    </g>
    <g id="ytick_5">
     <g id="line2d_26">
      <g>
       <use xlink:href="#mdf9be89718" x="169.2" y="44.584615" style="stroke: #000000; stroke-width: 0.8"/>
      </g>
     </g>
     <g id="text_8">
      <!-- 4 -->
      <g transform="translate(155.8375 48.383834) scale(0.1 -0.1)">
       <use xlink:href="#DejaVuSans-34"/>
      </g>
     </g>
    </g>
    <g id="ytick_6">
     <g id="line2d_27">
      <defs>
       <path id="m7448010049" d="M 0 0 
L -2 0 
" style="stroke: #000000; stroke-width: 0.6"/>
      </defs>
      <g>
       <use xlink:href="#m7448010049" x="169.2" y="324.969231" style="stroke: #000000; stroke-width: 0.6"/>
      </g>
     </g>
    </g>
    <g id="ytick_7">
     <g id="line2d_28">
      <g>
       <use xlink:href="#m7448010049" x="169.2" y="309.392308" style="stroke: #000000; stroke-width: 0.6"/>
      </g>
     </g>
    </g>
    <g id="ytick_8">
     <g id="line2d_29">
      <g>
       <use xlink:href="#m7448010049" x="169.2" y="278.238462" style="stroke: #000000; stroke-width: 0.6"/>
      </g>
     </g>
    </g>
    <g id="ytick_9">
     <g id="line2d_30">
      <g>
       <use xlink:href="#m7448010049" x="169.2" y="262.661538" style="stroke: #000000; stroke-width: 0.6"/>
      </g>
     </g>
    </g>
    <g id="ytick_10">
     <g id="line2d_31">
      <g>
       <use xlink:href="#m7448010049" x="169.2" y="247.084615" style="stroke: #000000; stroke-width: 0.6"/>
      </g>
     </g>
    </g>
    <g id="ytick_11">
     <g id="line2d_32">
      <g>
       <use xlink:href="#m7448010049" x="169.2" y="215.930769" style="stroke: #000000; stroke-width: 0.6"/>
      </g>
     </g>
    </g>
    <g id="ytick_12">
     <g id="line2d_33">
      <g>
       <use xlink:href="#m7448010049" x="169.2" y="200.353846" style="stroke: #000000; stroke-width: 0.6"/>
      </g>
     </g>
    </g>
    <g id="ytick_13">
     <g id="line2d_34">
      <g>
       <use xlink:href="#m7448010049" x="169.2" y="184.776923" style="stroke: #000000; stroke-width: 0.6"/>
      </g>
     </g>
    </g>
    <g id="ytick_14">
     <g id="line2d_35">
      <g>
       <use xlink:href="#m7448010049" x="169.2" y="153.623077" style="stroke: #000000; stroke-width: 0.6"/>
      </g>
     </g>
    </g>
    <g id="ytick_15">
     <g id="line2d_36">
      <g>
       <use xlink:href="#m7448010049" x="169.2" y="138.046154" style="stroke: #000000; stroke-width: 0.6"/>
      </g>
     </g>
    </g>
    <g id="ytick_16">
     <g id="line2d_37">
      <g>
       <use xlink:href="#m7448010049" x="169.2" y="122.469231" style="stroke: #000000; stroke-width: 0.6"/>
      </g>
     </g>
    </g>
    <g id="ytick_17">
     <g id="line2d_38">
      <g>
       <use xlink:href="#m7448010049" x="169.2" y="91.315385" style="stroke: #000000; stroke-width: 0.6"/>
      </g>
     </g>
    </g>
    <g id="ytick_18">
     <g id="line2d_39">
      <g>
       <use xlink:href="#m7448010049" x="169.2" y="75.738462" style="stroke: #000000; stroke-width: 0.6"/>
      </g>
     </g>
    </g>
    <g id="ytick_19">
     <g id="line2d_40">
      <g>
       <use xlink:href="#m7448010049" x="169.2" y="60.161538" style="stroke: #000000; stroke-width: 0.6"/>
      </g>
     </g>
    </g>
    <g id="ytick_20">
     <g id="line2d_41">
      <g>
       <use xlink:href="#m7448010049" x="169.2" y="29.007692" style="stroke: #000000; stroke-width: 0.6"/>
      </g>
     </g>
    </g>
    <g id="ytick_21">
     <g id="line2d_42">
      <g>
       <use xlink:href="#m7448010049" x="169.2" y="13.430769" style="stroke: #000000; stroke-width: 0.6"/>
      </g>
     </g>
    </g>
   </g>
   <g id="PathCollection_5">
    <path d="M 324.969231 267.060531 
L 321.822378 267.060531 
L 318.675524 267.060531 
L 315.528671 267.060531 
L 312.381818 267.060531 
L 309.234965 267.060531 
L 306.088112 267.060531 
L 302.941259 267.060531 
L 299.794406 267.060531 
L 296.647552 267.060531 
L 293.500699 267.060531 
L 290.353846 267.060531 
L 287.206993 267.060531 
L 284.06014 267.060531 
L 280.913287 267.060531 
L 277.766434 267.060531 
L 274.61958 267.060531 
L 271.472727 267.060531 
L 268.325874 267.060531 
L 265.179021 267.060531 
L 262.032168 267.060531 
L 258.885315 267.060531 
L 255.738462 267.060531 
L 252.591608 267.060531 
L 249.444755 267.060531 
L 246.297902 267.060531 
L 243.151049 267.060531 
L 240.004196 267.060531 
L 236.857343 267.060531 
L 233.71049 267.060531 
L 230.563636 267.060531 
L 227.416783 267.060531 
L 224.26993 267.060531 
L 221.123077 267.060531 
L 217.976224 267.060531 
L 214.829371 267.060531 
L 211.682517 267.060531 
L 208.535664 267.060531 
L 205.388811 267.060531 
L 202.241958 267.060531 
L 199.095105 267.060531 
L 195.948252 267.060531 
L 192.801399 267.060531 
L 189.654545 267.060531 
L 186.507692 267.060531 
L 183.360839 267.060531 
L 180.213986 267.060531 
L 177.067133 267.060531 
L 173.92028 267.060531 
L 170.773427 267.060531 
L 167.626573 267.060531 
L 164.47972 267.060531 
L 161.332867 267.060531 
L 158.186014 267.060531 
L 155.039161 267.060531 
L 151.892308 267.060531 
L 148.745455 267.060531 
L 145.598601 267.060531 
L 142.451748 267.060531 
L 139.304895 267.060531 
L 136.158042 267.060531 
L 133.011189 267.060531 
L 129.864336 267.060531 
L 126.717483 267.060531 
L 123.570629 267.060531 
L 120.423776 267.060531 
L 117.276923 267.060531 
L 114.13007 267.060531 
L 110.983217 267.060531 
L 107.836364 267.060531 
L 104.68951 267.060531 
L 101.542657 267.060531 
L 98.395804 267.060531 
L 95.248951 267.060531 
L 92.102098 267.060531 
L 88.955245 267.060531 
L 85.808392 267.060531 
L 82.661538 267.060531 
L 79.514685 267.060531 
L 76.367832 267.060531 
L 73.220979 267.060531 
L 70.074126 267.060531 
L 66.927273 267.060531 
L 63.78042 267.060531 
L 60.633566 267.060531 
L 57.486713 267.060531 
L 54.33986 267.060531 
L 51.193007 267.060531 
L 48.046154 267.060531 
L 44.899301 267.060531 
L 41.752448 267.060531 
L 38.605594 267.060531 
L 35.458741 267.060531 
L 32.311888 267.060531 
L 29.165035 267.060531 
L 26.018182 267.060531 
L 22.871329 267.060531 
L 19.724476 267.060531 
L 16.577622 267.060531 
L 13.430769 267.060531 
" clip-path="url(#p4e11156940)" style="fill: none; stroke: #add8e6; stroke-width: 1.5"/>
    <path d="M 13.430769 71.339469 
L 16.577622 71.339469 
L 19.724476 71.339469 
L 22.871329 71.339469 
L 26.018182 71.339469 
L 29.165035 71.339469 
L 32.311888 71.339469 
L 35.458741 71.339469 
L 38.605594 71.339469 
L 41.752448 71.339469 
L 44.899301 71.339469 
L 48.046154 71.339469 
L 51.193007 71.339469 
L 54.33986 71.339469 
L 57.486713 71.339469 
L 60.633566 71.339469 
L 63.78042 71.339469 
L 66.927273 71.339469 
L 70.074126 71.339469 
L 73.220979 71.339469 
L 76.367832 71.339469 
L 79.514685 71.339469 
L 82.661538 71.339469 
L 85.808392 71.339469 
L 88.955245 71.339469 
L 92.102098 71.339469 
L 95.248951 71.339469 
L 98.395804 71.339469 
L 101.542657 71.339469 
L 104.68951 71.339469 
L 107.836364 71.339469 
L 110.983217 71.339469 
L 114.13007 71.339469 
L 117.276923 71.339469 
L 120.423776 71.339469 
L 123.570629 71.339469 
L 126.717483 71.339469 
L 129.864336 71.339469 
L 133.011189 71.339469 
L 136.158042 71.339469 
L 139.304895 71.339469 
L 142.451748 71.339469 
L 145.598601 71.339469 
L 148.745455 71.339469 
L 151.892308 71.339469 
L 155.039161 71.339469 
L 158.186014 71.339469 
L 161.332867 71.339469 
L 164.47972 71.339469 
L 167.626573 71.339469 
L 170.773427 71.339469 
L 173.92028 71.339469 
L 177.067133 71.339469 
L 180.213986 71.339469 
L 183.360839 71.339469 
L 186.507692 71.339469 
L 189.654545 71.339469 
L 192.801399 71.339469 
L 195.948252 71.339469 
L 199.095105 71.339469 
L 202.241958 71.339469 
L 205.388811 71.339469 
L 208.535664 71.339469 
L 211.682517 71.339469 
L 214.829371 71.339469 
L 217.976224 71.339469 
L 221.123077 71.339469 
L 224.26993 71.339469 
L 227.416783 71.339469 
L 230.563636 71.339469 
L 233.71049 71.339469 
L 236.857343 71.339469 
L 240.004196 71.339469 
L 243.151049 71.339469 
L 246.297902 71.339469 
L 249.444755 71.339469 
L 252.591608 71.339469 
L 255.738462 71.339469 
L 258.885315 71.339469 
L 262.032168 71.339469 
L 265.179021 71.339469 
L 268.325874 71.339469 
L 271.472727 71.339469 
L 274.61958 71.339469 
L 277.766434 71.339469 
L 280.913287 71.339469 
L 284.06014 71.339469 
L 287.206993 71.339469 
L 290.353846 71.339469 
L 293.500699 71.339469 
L 296.647552 71.339469 
L 299.794406 71.339469 
L 302.941259 71.339469 
L 306.088112 71.339469 
L 309.234965 71.339469 
L 312.381818 71.339469 
L 315.528671 71.339469 
L 318.675524 71.339469 
L 321.822378 71.339469 
L 324.969231 71.339469 
" clip-path="url(#p4e11156940)" style="fill: none; stroke: #add8e6; stroke-width: 1.5"/>
   </g>
   <g id="PathCollection_6">
    <path d="M 324.969231 267.060531 
L 321.822378 267.060531 
L 318.675524 267.060531 
L 315.528671 267.060531 
L 312.381818 267.060531 
L 309.234965 267.060531 
L 306.088112 267.060531 
L 302.941259 267.060531 
L 299.794406 267.060531 
L 296.647552 267.060531 
L 293.500699 267.060531 
L 290.353846 267.060531 
L 287.206993 267.060531 
L 284.06014 267.060531 
L 280.913287 267.060531 
L 277.766434 267.060531 
L 274.61958 267.060531 
L 271.472727 267.060531 
L 268.325874 267.060531 
L 265.179021 267.060531 
L 262.032168 267.060531 
L 258.885315 267.060531 
L 255.738462 267.060531 
L 252.591608 267.060531 
L 249.444755 267.060531 
L 246.297902 267.060531 
L 243.151049 267.060531 
L 240.004196 267.060531 
L 236.857343 267.060531 
L 233.71049 267.060531 
L 230.563636 267.060531 
L 227.416783 267.060531 
L 224.26993 267.060531 
L 221.123077 267.060531 
L 217.976224 267.060531 
L 214.829371 267.060531 
L 211.682517 267.060531 
L 208.535664 267.060531 
L 205.388811 267.060531 
L 202.241958 267.060531 
L 199.095105 267.060531 
L 195.948252 267.060531 
L 192.801399 267.060531 
L 189.654545 267.060531 
L 186.507692 267.060531 
L 183.360839 267.060531 
L 180.213986 267.060531 
L 177.067133 267.060531 
L 173.92028 267.060531 
L 170.773427 267.060531 
L 167.626573 267.060531 
L 164.47972 267.060531 
L 161.332867 267.060531 
L 158.186014 267.060531 
L 155.039161 267.060531 
L 151.892308 267.060531 
L 148.745455 267.060531 
L 145.598601 267.060531 
L 142.451748 267.060531 
L 139.304895 267.060531 
L 136.158042 267.060531 
L 133.011189 267.060531 
L 129.864336 267.060531 
L 126.717483 267.060531 
L 123.570629 267.060531 
L 120.423776 267.060531 
L 117.276923 267.060531 
L 114.13007 267.060531 
L 110.983217 267.060531 
L 107.836364 267.060531 
L 104.68951 267.060531 
L 101.542657 267.060531 
L 98.395804 267.060531 
L 95.248951 267.060531 
L 92.102098 267.060531 
L 88.955245 267.060531 
L 85.808392 267.060531 
L 82.661538 267.060531 
L 79.514685 267.060531 
L 76.367832 267.060531 
L 73.220979 267.060531 
L 70.074126 267.060531 
L 66.927273 267.060531 
L 63.78042 267.060531 
L 60.633566 267.060531 
L 57.486713 267.060531 
L 54.33986 267.060531 
L 51.193007 267.060531 
L 48.046154 267.060531 
L 44.899301 267.060531 
L 41.752448 267.060531 
L 38.605594 267.060531 
L 35.458741 267.060531 
L 32.311888 267.060531 
L 29.165035 267.060531 
L 26.018182 267.060531 
L 22.871329 267.060531 
L 19.724476 267.060531 
L 16.577622 267.060531 
L 13.430769 267.060531 
" clip-path="url(#p4e11156940)" style="fill: none; stroke: #ffffff; stroke-width: 1.5"/>
    <path d="M 13.430769 71.339469 
L 16.577622 71.339469 
L 19.724476 71.339469 
L 22.871329 71.339469 
L 26.018182 71.339469 
L 29.165035 71.339469 
L 32.311888 71.339469 
L 35.458741 71.339469 
L 38.605594 71.339469 
L 41.752448 71.339469 
L 44.899301 71.339469 
L 48.046154 71.339469 
L 51.193007 71.339469 
L 54.33986 71.339469 
L 57.486713 71.339469 
L 60.633566 71.339469 
L 63.78042 71.339469 
L 66.927273 71.339469 
L 70.074126 71.339469 
L 73.220979 71.339469 
L 76.367832 71.339469 
L 79.514685 71.339469 
L 82.661538 71.339469 
L 85.808392 71.339469 
L 88.955245 71.339469 
L 92.102098 71.339469 
L 95.248951 71.339469 
L 98.395804 71.339469 
L 101.542657 71.339469 
L 104.68951 71.339469 
L 107.836364 71.339469 
L 110.983217 71.339469 
L 114.13007 71.339469 
L 117.276923 71.339469 
L 120.423776 71.339469 
L 123.570629 71.339469 
L 126.717483 71.339469 
L 129.864336 71.339469 
L 133.011189 71.339469 
L 136.158042 71.339469 
L 139.304895 71.339469 
L 142.451748 71.339469 
L 145.598601 71.339469 
L 148.745455 71.339469 
L 151.892308 71.339469 
L 155.039161 71.339469 
L 158.186014 71.339469 
L 161.332867 71.339469 
L 164.47972 71.339469 
L 167.626573 71.339469 
L 170.773427 71.339469 
L 173.92028 71.339469 
L 177.067133 71.339469 
L 180.213986 71.339469 
L 183.360839 71.339469 
L 186.507692 71.339469 
L 189.654545 71.339469 
L 192.801399 71.339469 
L 195.948252 71.339469 
L 199.095105 71.339469 
L 202.241958 71.339469 
L 205.388811 71.339469 
L 208.535664 71.339469 
L 211.682517 71.339469 
L 214.829371 71.339469 
L 217.976224 71.339469 
L 221.123077 71.339469 
L 224.26993 71.339469 
L 227.416783 71.339469 
L 230.563636 71.339469 
L 233.71049 71.339469 
L 236.857343 71.339469 
L 240.004196 71.339469 
L 243.151049 71.339469 
L 246.297902 71.339469 
L 249.444755 71.339469 
L 252.591608 71.339469 
L 255.738462 71.339469 
L 258.885315 71.339469 
L 262.032168 71.339469 
L 265.179021 71.339469 
L 268.325874 71.339469 
L 271.472727 71.339469 
L 274.61958 71.339469 
L 277.766434 71.339469 
L 280.913287 71.339469 
L 284.06014 71.339469 
L 287.206993 71.339469 
L 290.353846 71.339469 
L 293.500699 71.339469 
L 296.647552 71.339469 
L 299.794406 71.339469 
L 302.941259 71.339469 
L 306.088112 71.339469 
L 309.234965 71.339469 
L 312.381818 71.339469 
L 315.528671 71.339469 
L 318.675524 71.339469 
L 321.822378 71.339469 
L 324.969231 71.339469 
" clip-path="url(#p4e11156940)" style="fill: none; stroke: #ffffff; stroke-width: 1.5"/>
   </g>
   <g id="PathCollection_7">
    <path d="M 324.969231 267.060531 
L 321.822378 267.060531 
L 318.675524 267.060531 
L 315.528671 267.060531 
L 312.381818 267.060531 
L 309.234965 267.060531 
L 306.088112 267.060531 
L 302.941259 267.060531 
L 299.794406 267.060531 
L 296.647552 267.060531 
L 293.500699 267.060531 
L 290.353846 267.060531 
L 287.206993 267.060531 
L 284.06014 267.060531 
L 280.913287 267.060531 
L 277.766434 267.060531 
L 274.61958 267.060531 
L 271.472727 267.060531 
L 268.325874 267.060531 
L 265.179021 267.060531 
L 262.032168 267.060531 
L 258.885315 267.060531 
L 255.738462 267.060531 
L 252.591608 267.060531 
L 249.444755 267.060531 
L 246.297902 267.060531 
L 243.151049 267.060531 
L 240.004196 267.060531 
L 236.857343 267.060531 
L 233.71049 267.060531 
L 230.563636 267.060531 
L 227.416783 267.060531 
L 224.26993 267.060531 
L 221.123077 267.060531 
L 217.976224 267.060531 
L 214.829371 267.060531 
L 211.682517 267.060531 
L 208.535664 267.060531 
L 205.388811 267.060531 
L 202.241958 267.060531 
L 199.095105 267.060531 
L 195.948252 267.060531 
L 192.801399 267.060531 
L 189.654545 267.060531 
L 186.507692 267.060531 
L 183.360839 267.060531 
L 180.213986 267.060531 
L 177.067133 267.060531 
L 173.92028 267.060531 
L 170.773427 267.060531 
L 167.626573 267.060531 
L 164.47972 267.060531 
L 161.332867 267.060531 
L 158.186014 267.060531 
L 155.039161 267.060531 
L 151.892308 267.060531 
L 148.745455 267.060531 
L 145.598601 267.060531 
L 142.451748 267.060531 
L 139.304895 267.060531 
L 136.158042 267.060531 
L 133.011189 267.060531 
L 129.864336 267.060531 
L 126.717483 267.060531 
L 123.570629 267.060531 
L 120.423776 267.060531 
L 117.276923 267.060531 
L 114.13007 267.060531 
L 110.983217 267.060531 
L 107.836364 267.060531 
L 104.68951 267.060531 
L 101.542657 267.060531 
L 98.395804 267.060531 
L 95.248951 267.060531 
L 92.102098 267.060531 
L 88.955245 267.060531 
L 85.808392 267.060531 
L 82.661538 267.060531 
L 79.514685 267.060531 
L 76.367832 267.060531 
L 73.220979 267.060531 
L 70.074126 267.060531 
L 66.927273 267.060531 
L 63.78042 267.060531 
L 60.633566 267.060531 
L 57.486713 267.060531 
L 54.33986 267.060531 
L 51.193007 267.060531 
L 48.046154 267.060531 
L 44.899301 267.060531 
L 41.752448 267.060531 
L 38.605594 267.060531 
L 35.458741 267.060531 
L 32.311888 267.060531 
L 29.165035 267.060531 
L 26.018182 267.060531 
L 22.871329 267.060531 
L 19.724476 267.060531 
L 16.577622 267.060531 
L 13.430769 267.060531 
" clip-path="url(#p4e11156940)" style="fill: none; stroke: #ffffff; stroke-width: 1.5"/>
    <path d="M 13.430769 71.339469 
L 16.577622 71.339469 
L 19.724476 71.339469 
L 22.871329 71.339469 
L 26.018182 71.339469 
L 29.165035 71.339469 
L 32.311888 71.339469 
L 35.458741 71.339469 
L 38.605594 71.339469 
L 41.752448 71.339469 
L 44.899301 71.339469 
L 48.046154 71.339469 
L 51.193007 71.339469 
L 54.33986 71.339469 
L 57.486713 71.339469 
L 60.633566 71.339469 
L 63.78042 71.339469 
L 66.927273 71.339469 
L 70.074126 71.339469 
L 73.220979 71.339469 
L 76.367832 71.339469 
L 79.514685 71.339469 
L 82.661538 71.339469 
L 85.808392 71.339469 
L 88.955245 71.339469 
L 92.102098 71.339469 
L 95.248951 71.339469 
L 98.395804 71.339469 
L 101.542657 71.339469 
L 104.68951 71.339469 
L 107.836364 71.339469 
L 110.983217 71.339469 
L 114.13007 71.339469 
L 117.276923 71.339469 
L 120.423776 71.339469 
L 123.570629 71.339469 
L 126.717483 71.339469 
L 129.864336 71.339469 
L 133.011189 71.339469 
L 136.158042 71.339469 
L 139.304895 71.339469 
L 142.451748 71.339469 
L 145.598601 71.339469 
L 148.745455 71.339469 
L 151.892308 71.339469 
L 155.039161 71.339469 
L 158.186014 71.339469 
L 161.332867 71.339469 
L 164.47972 71.339469 
L 167.626573 71.339469 
L 170.773427 71.339469 
L 173.92028 71.339469 
L 177.067133 71.339469 
L 180.213986 71.339469 
L 183.360839 71.339469 
L 186.507692 71.339469 
L 189.654545 71.339469 
L 192.801399 71.339469 
L 195.948252 71.339469 
L 199.095105 71.339469 
L 202.241958 71.339469 
L 205.388811 71.339469 
L 208.535664 71.339469 
L 211.682517 71.339469 
L 214.829371 71.339469 
L 217.976224 71.339469 
L 221.123077 71.339469 
L 224.26993 71.339469 
L 227.416783 71.339469 
L 230.563636 71.339469 
L 233.71049 71.339469 
L 236.857343 71.339469 
L 240.004196 71.339469 
L 243.151049 71.339469 
L 246.297902 71.339469 
L 249.444755 71.339469 
L 252.591608 71.339469 
L 255.738462 71.339469 
L 258.885315 71.339469 
L 262.032168 71.339469 
L 265.179021 71.339469 
L 268.325874 71.339469 
L 271.472727 71.339469 
L 274.61958 71.339469 
L 277.766434 71.339469 
L 280.913287 71.339469 
L 284.06014 71.339469 
L 287.206993 71.339469 
L 290.353846 71.339469 
L 293.500699 71.339469 
L 296.647552 71.339469 
L 299.794406 71.339469 
L 302.941259 71.339469 
L 306.088112 71.339469 
L 309.234965 71.339469 
L 312.381818 71.339469 
L 315.528671 71.339469 
L 318.675524 71.339469 
L 321.822378 71.339469 
L 324.969231 71.339469 
" clip-path="url(#p4e11156940)" style="fill: none; stroke: #ffffff; stroke-width: 1.5"/>
   </g>
   <g id="line2d_43">
    <path d="M 13.430769 71.327306 
L 324.969231 71.327306 
L 324.969231 71.327306 
" clip-path="url(#p4e11156940)" style="fill: none; stroke-dasharray: 5.55,2.4; stroke-dashoffset: 0; stroke: #ff0000; stroke-width: 1.5"/>
   </g>
   <g id="line2d_44">
    <path d="M 13.430769 267.072694 
L 324.969231 267.072694 
L 324.969231 267.072694 
" clip-path="url(#p4e11156940)" style="fill: none; stroke-dasharray: 5.55,2.4; stroke-dashoffset: 0; stroke: #ff0000; stroke-width: 1.5"/>
   </g>
   <g id="patch_3">
    <path d="M 169.2 331.2 
L 169.2 7.2 
" style="fill: none; stroke: #000000; stroke-width: 0.8; stroke-linejoin: miter; stroke-linecap: square"/>
   </g>
   <g id="patch_4">
    <path d="M 7.2 169.2 
L 331.2 169.2 
" style="fill: none; stroke: #000000; stroke-width: 0.8; stroke-linejoin: miter; stroke-linecap: square"/>
   </g>
   <g id="text_9">
    <!-- $R$ -->
    <g transform="translate(195.033846 141.909279) scale(0.14 -0.14)">
     <defs>
      <path id="Cmmi10-52" d="M 313 0 
Q 250 0 250 84 
Q 253 100 262 139 
Q 272 178 289 201 
Q 306 225 331 225 
Q 722 225 878 269 
Q 959 297 997 441 
L 1875 3956 
Q 1888 4019 1888 4044 
Q 1888 4113 1813 4122 
Q 1691 4147 1350 4147 
Q 1288 4147 1288 4231 
Q 1291 4247 1300 4286 
Q 1309 4325 1326 4348 
Q 1344 4372 1369 4372 
L 3309 4372 
Q 3541 4372 3791 4319 
Q 4041 4266 4250 4152 
Q 4459 4038 4593 3848 
Q 4728 3659 4728 3406 
Q 4728 3084 4515 2831 
Q 4303 2578 3978 2408 
Q 3653 2238 3347 2169 
Q 3597 2078 3756 1879 
Q 3916 1681 3916 1422 
Q 3916 1388 3914 1370 
Q 3913 1353 3909 1331 
L 3859 763 
Q 3853 638 3847 550 
Q 3841 463 3841 409 
Q 3841 234 3892 129 
Q 3944 25 4097 25 
Q 4297 25 4448 211 
Q 4600 397 4647 616 
Q 4675 672 4709 672 
L 4769 672 
Q 4831 672 4831 588 
Q 4784 403 4682 237 
Q 4581 72 4426 -34 
Q 4272 -141 4091 -141 
Q 3716 -141 3452 26 
Q 3188 194 3188 550 
Q 3188 684 3213 788 
L 3353 1356 
Q 3378 1434 3378 1538 
Q 3378 1803 3198 1954 
Q 3019 2106 2747 2106 
L 1959 2106 
L 1538 416 
Q 1522 363 1522 325 
Q 1522 259 1600 250 
Q 1722 225 2059 225 
Q 2125 225 2125 141 
Q 2103 50 2090 25 
Q 2078 0 2016 0 
L 313 0 
z
M 1997 2272 
L 2706 2272 
Q 3403 2272 3756 2625 
Q 3919 2788 4014 3039 
Q 4109 3291 4109 3541 
Q 4109 3778 3970 3912 
Q 3831 4047 3626 4097 
Q 3422 4147 3175 4147 
L 2747 4147 
Q 2572 4147 2515 4117 
Q 2459 4088 2413 3928 
L 1997 2272 
z
" transform="scale(0.015625)"/>
     </defs>
     <use xlink:href="#Cmmi10-52" transform="translate(0 0.6875)"/>
    </g>
   </g>
   <g id="text_10">
    <!-- $y=\pi$ -->
    <g transform="translate(216.177692 59.58507) scale(0.14 -0.14)">
     <defs>
      <path id="Cmmi10-79" d="M 538 -916 
Q 672 -1147 1006 -1147 
Q 1309 -1147 1531 -934 
Q 1753 -722 1889 -420 
Q 2025 -119 2100 197 
Q 1816 -72 1484 -72 
Q 1231 -72 1053 15 
Q 875 103 776 276 
Q 678 450 678 697 
Q 678 906 734 1126 
Q 791 1347 892 1617 
Q 994 1888 1069 2088 
Q 1153 2322 1153 2472 
Q 1153 2663 1013 2663 
Q 759 2663 595 2402 
Q 431 2141 353 1819 
Q 341 1778 300 1778 
L 225 1778 
Q 172 1778 172 1838 
L 172 1856 
Q 275 2238 487 2533 
Q 700 2828 1025 2828 
Q 1253 2828 1411 2678 
Q 1569 2528 1569 2297 
Q 1569 2178 1516 2047 
Q 1488 1969 1388 1706 
Q 1288 1444 1234 1272 
Q 1181 1100 1147 934 
Q 1113 769 1113 603 
Q 1113 391 1203 244 
Q 1294 97 1491 97 
Q 1888 97 2203 581 
L 2688 2553 
Q 2709 2638 2787 2698 
Q 2866 2759 2956 2759 
Q 3034 2759 3092 2709 
Q 3150 2659 3150 2578 
Q 3150 2541 3144 2528 
L 2509 -19 
Q 2425 -347 2200 -647 
Q 1975 -947 1658 -1130 
Q 1341 -1313 997 -1313 
Q 831 -1313 668 -1248 
Q 506 -1184 406 -1056 
Q 306 -928 306 -756 
Q 306 -581 409 -453 
Q 513 -325 684 -325 
Q 788 -325 858 -389 
Q 928 -453 928 -556 
Q 928 -703 818 -812 
Q 709 -922 563 -922 
Q 556 -919 550 -917 
Q 544 -916 538 -916 
z
" transform="scale(0.015625)"/>
      <path id="Cmr10-3d" d="M 481 850 
Q 428 850 393 890 
Q 359 931 359 978 
Q 359 1031 393 1068 
Q 428 1106 481 1106 
L 4500 1106 
Q 4547 1106 4581 1068 
Q 4616 1031 4616 978 
Q 4616 931 4581 890 
Q 4547 850 4500 850 
L 481 850 
z
M 481 2094 
Q 428 2094 393 2131 
Q 359 2169 359 2222 
Q 359 2269 393 2309 
Q 428 2350 481 2350 
L 4500 2350 
Q 4547 2350 4581 2309 
Q 4616 2269 4616 2222 
Q 4616 2169 4581 2131 
Q 4547 2094 4500 2094 
L 481 2094 
z
" transform="scale(0.015625)"/>
      <path id="Cmmi10-bc" d="M 647 109 
Q 647 144 672 213 
Q 850 584 1004 942 
Q 1159 1300 1282 1639 
Q 1406 1978 1509 2363 
L 1100 2363 
Q 866 2363 662 2216 
Q 459 2069 325 1844 
Q 313 1819 288 1819 
L 213 1819 
Q 153 1819 153 1881 
Q 153 1894 166 1919 
Q 375 2275 614 2517 
Q 853 2759 1153 2759 
L 3475 2759 
Q 3541 2759 3587 2715 
Q 3634 2672 3634 2597 
Q 3634 2503 3567 2433 
Q 3500 2363 3406 2363 
L 2591 2363 
Q 2488 1859 2478 1381 
Q 2478 766 2694 269 
Q 2713 231 2713 191 
Q 2713 122 2672 62 
Q 2631 3 2567 -34 
Q 2503 -72 2431 -72 
Q 2263 -72 2200 203 
Q 2138 478 2138 738 
Q 2138 1103 2200 1442 
Q 2263 1781 2400 2363 
L 1703 2363 
Q 1197 313 1094 103 
Q 1003 -72 844 -72 
Q 766 -72 706 -20 
Q 647 31 647 109 
z
" transform="scale(0.015625)"/>
     </defs>
     <use xlink:href="#Cmmi10-79" transform="translate(0 0.8125)"/>
     <use xlink:href="#Cmr10-3d" transform="translate(66.582031 0.8125)"/>
     <use xlink:href="#Cmmi10-bc" transform="translate(161.826172 0.8125)"/>
    </g>
   </g>
   <g id="text_11">
    <!-- $y=-\pi$ -->
    <g transform="translate(208.267692 286.484305) scale(0.14 -0.14)">
     <defs>
      <path id="Cmsy10-a1" d="M 653 1472 
Q 600 1472 565 1512 
Q 531 1553 531 1600 
Q 531 1647 565 1687 
Q 600 1728 653 1728 
L 4325 1728 
Q 4375 1728 4408 1687 
Q 4441 1647 4441 1600 
Q 4441 1553 4408 1512 
Q 4375 1472 4325 1472 
L 653 1472 
z
" transform="scale(0.015625)"/>
     </defs>
     <use xlink:href="#Cmmi10-79" transform="translate(0 0.8125)"/>
     <use xlink:href="#Cmr10-3d" transform="translate(66.582031 0.8125)"/>
     <use xlink:href="#Cmsy10-a1" transform="translate(179.384766 0.8125)"/>
     <use xlink:href="#Cmmi10-bc" transform="translate(274.628906 0.8125)"/>
    </g>
   </g>
  </g>
 </g>
 <defs>
  <clipPath id="p4e11156940">
   <rect x="7.2" y="7.2" width="324" height="324"/>
  </clipPath>
 </defs>
</svg>
