<?xml version="1.0" encoding="utf-8" standalone="no"?>
<!DOCTYPE svg PUBLIC "-//W3C//DTD SVG 1.1//EN"
  "http://www.w3.org/Graphics/SVG/1.1/DTD/svg11.dtd">
<svg xmlns:xlink="http://www.w3.org/1999/xlink" width="319.948819pt" height="337.388192pt" viewBox="0 0 319.948819 337.388192" xmlns="http://www.w3.org/2000/svg" version="1.1">
 <metadata>
  <rdf:RDF xmlns:dc="http://purl.org/dc/elements/1.1/" xmlns:cc="http://creativecommons.org/ns#" xmlns:rdf="http://www.w3.org/1999/02/22-rdf-syntax-ns#">
   <cc:Work>
    <dc:type rdf:resource="http://purl.org/dc/dcmitype/StillImage"/>
    <dc:date>2025-02-28T13:05:58.200282</dc:date>
    <dc:format>image/svg+xml</dc:format>
    <dc:creator>
     <cc:Agent>
      <dc:title>Matplotlib v3.6.2, https://matplotlib.org/</dc:title>
     </cc:Agent>
    </dc:creator>
   </cc:Work>
  </rdf:RDF>
 </metadata>
 <defs>
  <style type="text/css">*{stroke-linejoin: round; stroke-linecap: butt}</style>
 </defs>
 <g id="figure_1">
  <g id="patch_1">
   <path d="M 0 337.388192 
L 319.948819 337.388192 
L 319.948819 0 
L 0 0 
z
" style="fill: #ffffff"/>
  </g>
  <g id="axes_1">
   <g id="patch_2">
    <path d="M 9.232398 330.188192 
L 304.50718 330.188192 
L 304.50718 7.2 
L 9.232398 7.2 
z
" style="fill: #ffffff"/>
   </g>
   <g id="PathCollection_1">
    <path d="M 273.948886 141.683957 
C 274.976013 141.683957 275.96121 141.275875 276.687499 140.549586 
C 277.413788 139.823298 277.821869 138.838101 277.821869 137.810974 
C 277.821869 136.783846 277.413788 135.798649 276.687499 135.072361 
C 275.96121 134.346072 274.976013 133.93799 273.948886 133.93799 
C 272.921759 133.93799 271.936562 134.346072 271.210273 135.072361 
C 270.483985 135.798649 270.075903 136.783846 270.075903 137.810974 
C 270.075903 138.838101 270.483985 139.823298 271.210273 140.549586 
C 271.936562 141.275875 272.921759 141.683957 273.948886 141.683957 
z
" clip-path="url(#p54bf8027e2)" style="fill: #0000ff"/>
   </g>
   <g id="matplotlib.axis_1">
    <g id="xtick_1">
     <g id="line2d_1">
      <defs>
       <path id="mfb80b723cc" d="M 0 0 
L 0 3.5 
" style="stroke: #000000; stroke-width: 0.8"/>
      </defs>
      <g>
       <use xlink:href="#mfb80b723cc" x="14.9" y="189.339001" style="stroke: #000000; stroke-width: 0.8"/>
      </g>
     </g>
     <g id="text_1">
      <!-- $-R$ -->
      <g transform="translate(7.2 203.937438) scale(0.1 -0.1)">
       <defs>
        <path id="Cmsy10-a1" d="M 653 1472 
Q 600 1472 565 1512 
Q 531 1553 531 1600 
Q 531 1647 565 1687 
Q 600 1728 653 1728 
L 4325 1728 
Q 4375 1728 4408 1687 
Q 4441 1647 4441 1600 
Q 4441 1553 4408 1512 
Q 4375 1472 4325 1472 
L 653 1472 
z
" transform="scale(0.015625)"/>
        <path id="Cmmi10-52" d="M 313 0 
Q 250 0 250 84 
Q 253 100 262 139 
Q 272 178 289 201 
Q 306 225 331 225 
Q 722 225 878 269 
Q 959 297 997 441 
L 1875 3956 
Q 1888 4019 1888 4044 
Q 1888 4113 1813 4122 
Q 1691 4147 1350 4147 
Q 1288 4147 1288 4231 
Q 1291 4247 1300 4286 
Q 1309 4325 1326 4348 
Q 1344 4372 1369 4372 
L 3309 4372 
Q 3541 4372 3791 4319 
Q 4041 4266 4250 4152 
Q 4459 4038 4593 3848 
Q 4728 3659 4728 3406 
Q 4728 3084 4515 2831 
Q 4303 2578 3978 2408 
Q 3653 2238 3347 2169 
Q 3597 2078 3756 1879 
Q 3916 1681 3916 1422 
Q 3916 1388 3914 1370 
Q 3913 1353 3909 1331 
L 3859 763 
Q 3853 638 3847 550 
Q 3841 463 3841 409 
Q 3841 234 3892 129 
Q 3944 25 4097 25 
Q 4297 25 4448 211 
Q 4600 397 4647 616 
Q 4675 672 4709 672 
L 4769 672 
Q 4831 672 4831 588 
Q 4784 403 4682 237 
Q 4581 72 4426 -34 
Q 4272 -141 4091 -141 
Q 3716 -141 3452 26 
Q 3188 194 3188 550 
Q 3188 684 3213 788 
L 3353 1356 
Q 3378 1434 3378 1538 
Q 3378 1803 3198 1954 
Q 3019 2106 2747 2106 
L 1959 2106 
L 1538 416 
Q 1522 363 1522 325 
Q 1522 259 1600 250 
Q 1722 225 2059 225 
Q 2125 225 2125 141 
Q 2103 50 2090 25 
Q 2078 0 2016 0 
L 313 0 
z
M 1997 2272 
L 2706 2272 
Q 3403 2272 3756 2625 
Q 3919 2788 4014 3039 
Q 4109 3291 4109 3541 
Q 4109 3778 3970 3912 
Q 3831 4047 3626 4097 
Q 3422 4147 3175 4147 
L 2747 4147 
Q 2572 4147 2515 4117 
Q 2459 4088 2413 3928 
L 1997 2272 
z
" transform="scale(0.015625)"/>
       </defs>
       <use xlink:href="#Cmsy10-a1" transform="translate(0 0.6875)"/>
       <use xlink:href="#Cmmi10-52" transform="translate(77.685547 0.6875)"/>
      </g>
     </g>
    </g>
    <g id="xtick_2">
     <g id="line2d_2">
      <g>
       <use xlink:href="#mfb80b723cc" x="284.198448" y="189.339001" style="stroke: #000000; stroke-width: 0.8"/>
      </g>
     </g>
     <g id="text_2">
      <!-- $R$ -->
      <g transform="translate(280.398448 203.937438) scale(0.1 -0.1)">
       <use xlink:href="#Cmmi10-52" transform="translate(0 0.6875)"/>
      </g>
     </g>
    </g>
   </g>
   <g id="matplotlib.axis_2">
    <g id="ytick_1">
     <g id="line2d_3">
      <defs>
       <path id="mf4822102c7" d="M 0 0 
L -3.5 0 
" style="stroke: #000000; stroke-width: 0.8"/>
      </defs>
      <g>
       <use xlink:href="#mf4822102c7" x="149.549224" y="323.988225" style="stroke: #000000; stroke-width: 0.8"/>
      </g>
     </g>
     <g id="text_3">
      <!-- $-R$ -->
      <g transform="translate(127.149224 327.787443) scale(0.1 -0.1)">
       <use xlink:href="#Cmsy10-a1" transform="translate(0 0.6875)"/>
       <use xlink:href="#Cmmi10-52" transform="translate(77.685547 0.6875)"/>
      </g>
     </g>
    </g>
    <g id="ytick_2">
     <g id="line2d_4">
      <g>
       <use xlink:href="#mf4822102c7" x="149.549224" y="54.689777" style="stroke: #000000; stroke-width: 0.8"/>
      </g>
     </g>
     <g id="text_4">
      <!-- $R$ -->
      <g transform="translate(134.949224 58.488995) scale(0.1 -0.1)">
       <use xlink:href="#Cmmi10-52" transform="translate(0 0.6875)"/>
      </g>
     </g>
    </g>
   </g>
   <g id="line2d_5">
    <path d="M 284.198448 189.339001 
L 283.993235 181.907891 
L 283.482756 175.474562 
L 282.408008 167.453914 
L 281.468405 162.362283 
L 280.119166 156.446694 
L 278.721952 151.328213 
L 276.743599 145.157504 
L 274.987589 140.393827 
L 272.20399 133.785227 
L 269.843381 128.843304 
L 267.01611 123.521494 
L 265.877521 121.529408 
L 261.561423 114.61497 
L 258.76652 110.586249 
L 254.568048 105.068839 
L 250.892155 100.682225 
L 246.424701 95.821326 
L 244.289348 93.658687 
L 241.111977 90.613747 
L 235.660297 85.824283 
L 231.574187 82.557359 
L 224.834984 77.703577 
L 222.245077 76.000012 
L 215.395429 71.888199 
L 211.690507 69.886607 
L 204.804453 66.549452 
L 198.360497 63.848471 
L 192.334807 61.668302 
L 185.709286 59.636019 
L 182.568311 58.801062 
L 177.884817 57.705009 
L 169.316238 56.148616 
L 166.170257 55.719561 
L 158.985802 55.020854 
L 152.166892 54.715224 
L 144.192809 54.796359 
L 141.884789 54.908089 
L 136.426979 55.330717 
L 131.336362 55.927213 
L 125.58615 56.839247 
L 122.102991 57.516704 
L 116.225752 58.878433 
L 109.514826 60.779052 
L 105.698754 62.030125 
L 100.087122 64.103567 
L 96.665759 65.50947 
L 90.689405 68.236007 
L 85.57625 70.857474 
L 80.698708 73.623747 
L 74.358444 77.639582 
L 67.089743 82.892547 
L 63.108241 86.099619 
L 57.246857 91.304892 
L 52.139066 96.378393 
L 48.361146 100.505525 
L 44.497536 105.109811 
L 41.360363 109.179261 
L 38.488567 113.207903 
L 34.671214 119.100433 
L 31.418193 124.721101 
L 29.092914 129.166823 
L 26.159532 135.437263 
L 23.934959 140.847042 
L 21.776065 146.860378 
L 20.083122 152.339784 
L 18.491022 158.4495 
L 17.363641 163.699476 
L 16.542424 168.372248 
L 15.580384 175.819997 
L 15.082583 182.329299 
L 14.910759 187.636854 
L 14.93095 192.225818 
L 15.264911 199.245402 
L 15.984593 206.394879 
L 16.802721 211.895139 
L 18.177187 218.865286 
L 19.55355 224.43228 
L 21.332216 230.458491 
L 23.399464 236.420329 
L 25.985353 242.840246 
L 28.500597 248.310549 
L 32.268872 255.488321 
L 36.191634 262.005845 
L 38.64834 265.702653 
L 42.69993 271.275817 
L 46.624382 276.154267 
L 51.816699 281.960634 
L 56.540488 286.703207 
L 60.037255 289.927374 
L 64.779305 293.954842 
L 68.12892 296.582404 
L 74.443421 301.095575 
L 82.155642 305.908803 
L 88.823075 309.516987 
L 89.288689 309.751132 
L 94.769481 312.341412 
L 98.7325 314.030917 
L 102.228229 315.399054 
L 106.608566 316.957626 
L 112.971317 318.924765 
L 119.177881 320.518248 
L 124.242825 321.588763 
L 128.558109 322.341958 
L 133.330793 323.007905 
L 139.428034 323.607296 
L 147.801403 323.97688 
L 156.842372 323.790566 
L 162.858216 323.328867 
L 168.762788 322.61035 
L 172.964168 321.936715 
L 177.602666 321.033412 
L 182.499829 319.894242 
L 186.70361 318.760657 
L 193.554035 316.59461 
L 200.569574 313.947738 
L 204.274438 312.365683 
L 208.557235 310.369857 
L 212.11583 308.56917 
L 218.457962 305.019593 
L 224.436304 301.242257 
L 230.117695 297.223823 
L 235.447912 293.030027 
L 240.445251 288.678448 
L 245.11668 284.192967 
L 247.535167 281.692498 
L 250.933496 277.948497 
L 254.861123 273.242621 
L 257.882359 269.303652 
L 261.796999 263.70869 
L 265.179008 258.332961 
L 267.684599 253.948959 
L 270.561437 248.385236 
L 272.980246 243.14603 
L 275.247387 237.613065 
L 276.733407 233.549827 
L 278.215407 229.030648 
L 279.848684 223.286964 
L 281.483777 216.240435 
L 282.576395 210.176113 
L 283.248083 205.308619 
L 283.712371 200.769812 
L 284.128171 193.688781 
L 284.198448 189.339001 
L 284.198448 189.339001 
" clip-path="url(#p54bf8027e2)" style="fill: none; stroke: #0000ff; stroke-linecap: square"/>
   </g>
   <g id="patch_3">
    <path d="M 273.948886 137.810974 
Q 248.184873 75.611142 223.276565 15.477169 
" clip-path="url(#p54bf8027e2)" style="fill: none; stroke: #ff0000; stroke-width: 2; stroke-linecap: round"/>
    <path d="M 222.484002 26.629381 
L 223.276565 15.477169 
L 231.722797 22.802547 
L 222.484002 26.629381 
z
" clip-path="url(#p54bf8027e2)" style="fill: #ff0000; stroke: #ff0000; stroke-width: 2; stroke-linecap: round"/>
   </g>
   <g id="patch_4">
    <path d="M 149.549224 330.188192 
L 149.549224 7.2 
" style="fill: none; stroke: #000000; stroke-width: 0.8; stroke-linejoin: miter; stroke-linecap: square"/>
   </g>
   <g id="patch_5">
    <path d="M 9.232398 189.339001 
L 304.50718 189.339001 
" style="fill: none; stroke: #000000; stroke-width: 0.8; stroke-linejoin: miter; stroke-linecap: square"/>
   </g>
   <g id="text_5">
    <!-- $\phi(t)$ -->
    <g transform="translate(284.908819 131.505368) scale(0.16 -0.16)">
     <defs>
      <path id="Cmmi10-c1" d="M 1241 -1247 
L 1528 -91 
Q 1203 -91 922 61 
Q 641 213 470 484 
Q 300 756 300 1075 
Q 300 1422 472 1737 
Q 644 2053 942 2311 
Q 1241 2569 1584 2708 
Q 1928 2847 2266 2847 
L 2650 4403 
Q 2663 4441 2700 4441 
L 2778 4441 
Q 2803 4441 2818 4419 
Q 2834 4397 2834 4378 
L 2450 2847 
Q 2691 2847 2916 2759 
Q 3141 2672 3314 2514 
Q 3488 2356 3584 2142 
Q 3681 1928 3681 1684 
Q 3681 1338 3509 1022 
Q 3338 706 3047 453 
Q 2756 200 2398 54 
Q 2041 -91 1716 -91 
L 1422 -1275 
Q 1409 -1313 1369 -1313 
L 1294 -1313 
Q 1269 -1313 1255 -1289 
Q 1241 -1266 1241 -1247 
z
M 1569 78 
L 2222 2681 
Q 2059 2681 1881 2615 
Q 1703 2550 1545 2450 
Q 1388 2350 1259 2222 
Q 1103 2066 984 1853 
Q 866 1641 805 1405 
Q 744 1169 744 941 
Q 744 700 847 503 
Q 950 306 1137 192 
Q 1325 78 1569 78 
z
M 1759 78 
Q 2000 78 2272 215 
Q 2544 353 2719 538 
Q 2959 775 3098 1120 
Q 3238 1466 3238 1819 
Q 3238 2056 3134 2254 
Q 3031 2453 2843 2567 
Q 2656 2681 2413 2681 
L 1759 78 
z
" transform="scale(0.015625)"/>
      <path id="Cmr10-28" d="M 1984 -1588 
Q 1628 -1306 1370 -942 
Q 1113 -578 948 -165 
Q 784 247 703 697 
Q 622 1147 622 1600 
Q 622 2059 703 2509 
Q 784 2959 951 3375 
Q 1119 3791 1378 4153 
Q 1638 4516 1984 4788 
Q 1984 4800 2016 4800 
L 2075 4800 
Q 2094 4800 2109 4783 
Q 2125 4766 2125 4744 
Q 2125 4716 2113 4703 
Q 1800 4397 1592 4047 
Q 1384 3697 1257 3301 
Q 1131 2906 1075 2482 
Q 1019 2059 1019 1600 
Q 1019 -434 2106 -1491 
Q 2125 -1509 2125 -1544 
Q 2125 -1559 2108 -1579 
Q 2091 -1600 2075 -1600 
L 2016 -1600 
Q 1984 -1600 1984 -1588 
z
" transform="scale(0.015625)"/>
      <path id="Cmmi10-74" d="M 397 519 
Q 397 613 416 697 
L 878 2534 
L 206 2534 
Q 141 2534 141 2619 
Q 166 2759 225 2759 
L 934 2759 
L 1191 3803 
Q 1216 3888 1291 3947 
Q 1366 4006 1459 4006 
Q 1541 4006 1595 3957 
Q 1650 3909 1650 3828 
Q 1650 3809 1648 3798 
Q 1647 3788 1644 3775 
L 1388 2759 
L 2047 2759 
Q 2113 2759 2113 2675 
Q 2109 2659 2100 2621 
Q 2091 2584 2075 2559 
Q 2059 2534 2028 2534 
L 1331 2534 
L 872 684 
Q 825 503 825 372 
Q 825 97 1013 97 
Q 1294 97 1511 361 
Q 1728 625 1844 941 
Q 1869 978 1894 978 
L 1972 978 
Q 1997 978 2012 961 
Q 2028 944 2028 922 
Q 2028 909 2022 903 
Q 1881 516 1612 222 
Q 1344 -72 997 -72 
Q 744 -72 570 93 
Q 397 259 397 519 
z
" transform="scale(0.015625)"/>
      <path id="Cmr10-29" d="M 416 -1600 
Q 359 -1600 359 -1544 
Q 359 -1516 372 -1503 
Q 1466 -434 1466 1600 
Q 1466 3634 384 4691 
Q 359 4706 359 4744 
Q 359 4766 376 4783 
Q 394 4800 416 4800 
L 475 4800 
Q 494 4800 506 4788 
Q 966 4425 1272 3906 
Q 1578 3388 1720 2800 
Q 1863 2213 1863 1600 
Q 1863 1147 1786 708 
Q 1709 269 1542 -157 
Q 1375 -584 1119 -945 
Q 863 -1306 506 -1588 
Q 494 -1600 475 -1600 
L 416 -1600 
z
" transform="scale(0.015625)"/>
     </defs>
     <use xlink:href="#Cmmi10-c1"/>
     <use xlink:href="#Cmr10-28" transform="translate(59.521484 0)"/>
     <use xlink:href="#Cmmi10-74" transform="translate(98.339844 0)"/>
     <use xlink:href="#Cmr10-29" transform="translate(134.423828 0)"/>
    </g>
   </g>
   <g id="text_6">
    <!-- $\phi'(t)$ -->
    <g transform="translate(256.184805 69.545537) scale(0.16 -0.16)">
     <defs>
      <path id="Cmsy10-30" d="M 225 347 
Q 184 359 184 409 
L 966 3316 
Q 1003 3434 1093 3506 
Q 1184 3578 1300 3578 
Q 1450 3578 1564 3479 
Q 1678 3381 1678 3231 
Q 1678 3166 1644 3084 
L 488 319 
Q 466 275 428 275 
Q 394 275 320 306 
Q 247 338 225 347 
z
" transform="scale(0.015625)"/>
     </defs>
     <use xlink:href="#Cmmi10-c1" transform="translate(0 0.601562)"/>
     <use xlink:href="#Cmsy10-30" transform="translate(71.117422 38.865625) scale(0.7)"/>
     <use xlink:href="#Cmr10-28" transform="translate(96.73793 0.601562)"/>
     <use xlink:href="#Cmmi10-74" transform="translate(135.556289 0.601562)"/>
     <use xlink:href="#Cmr10-29" transform="translate(171.640273 0.601562)"/>
    </g>
   </g>
  </g>
 </g>
 <defs>
  <clipPath id="p54bf8027e2">
   <rect x="9.232398" y="7.2" width="295.274782" height="322.988192"/>
  </clipPath>
 </defs>
</svg>
