<?xml version="1.0" encoding="utf-8" standalone="no"?>
<!DOCTYPE svg PUBLIC "-//W3C//DTD SVG 1.1//EN"
  "http://www.w3.org/Graphics/SVG/1.1/DTD/svg11.dtd">
<svg xmlns:xlink="http://www.w3.org/1999/xlink" width="327.77486pt" height="338.4pt" viewBox="0 0 327.77486 338.4" xmlns="http://www.w3.org/2000/svg" version="1.1">
 <metadata>
  <rdf:RDF xmlns:dc="http://purl.org/dc/elements/1.1/" xmlns:cc="http://creativecommons.org/ns#" xmlns:rdf="http://www.w3.org/1999/02/22-rdf-syntax-ns#">
   <cc:Work>
    <dc:type rdf:resource="http://purl.org/dc/dcmitype/StillImage"/>
    <dc:date>2025-03-04T21:45:03.623824</dc:date>
    <dc:format>image/svg+xml</dc:format>
    <dc:creator>
     <cc:Agent>
      <dc:title>Matplotlib v3.6.2, https://matplotlib.org/</dc:title>
     </cc:Agent>
    </dc:creator>
   </cc:Work>
  </rdf:RDF>
 </metadata>
 <defs>
  <style type="text/css">*{stroke-linejoin: round; stroke-linecap: butt}</style>
 </defs>
 <g id="figure_1">
  <g id="patch_1">
   <path d="M 0 338.4 
L 327.77486 338.4 
L 327.77486 0 
L 0 0 
z
" style="fill: #ffffff"/>
  </g>
  <g id="axes_1">
   <g id="patch_2">
    <path d="M 8.906375 331.2 
L 320.57486 331.2 
L 320.57486 7.2 
L 8.906375 7.2 
z
" style="fill: #ffffff"/>
   </g>
   <g id="matplotlib.axis_1">
    <g id="xtick_1">
     <g id="line2d_1">
      <defs>
       <path id="m099d29fe8c" d="M 0 0 
L 0 3.5 
" style="stroke: #000000; stroke-width: 0.8"/>
      </defs>
      <g>
       <use xlink:href="#m099d29fe8c" x="14.9" y="169.2" style="stroke: #000000; stroke-width: 0.8"/>
      </g>
     </g>
     <g id="text_1">
      <!-- $-R$ -->
      <g transform="translate(7.2 183.798438) scale(0.1 -0.1)">
       <defs>
        <path id="Cmsy10-a1" d="M 653 1472 
Q 600 1472 565 1512 
Q 531 1553 531 1600 
Q 531 1647 565 1687 
Q 600 1728 653 1728 
L 4325 1728 
Q 4375 1728 4408 1687 
Q 4441 1647 4441 1600 
Q 4441 1553 4408 1512 
Q 4375 1472 4325 1472 
L 653 1472 
z
" transform="scale(0.015625)"/>
        <path id="Cmmi10-52" d="M 313 0 
Q 250 0 250 84 
Q 253 100 262 139 
Q 272 178 289 201 
Q 306 225 331 225 
Q 722 225 878 269 
Q 959 297 997 441 
L 1875 3956 
Q 1888 4019 1888 4044 
Q 1888 4113 1813 4122 
Q 1691 4147 1350 4147 
Q 1288 4147 1288 4231 
Q 1291 4247 1300 4286 
Q 1309 4325 1326 4348 
Q 1344 4372 1369 4372 
L 3309 4372 
Q 3541 4372 3791 4319 
Q 4041 4266 4250 4152 
Q 4459 4038 4593 3848 
Q 4728 3659 4728 3406 
Q 4728 3084 4515 2831 
Q 4303 2578 3978 2408 
Q 3653 2238 3347 2169 
Q 3597 2078 3756 1879 
Q 3916 1681 3916 1422 
Q 3916 1388 3914 1370 
Q 3913 1353 3909 1331 
L 3859 763 
Q 3853 638 3847 550 
Q 3841 463 3841 409 
Q 3841 234 3892 129 
Q 3944 25 4097 25 
Q 4297 25 4448 211 
Q 4600 397 4647 616 
Q 4675 672 4709 672 
L 4769 672 
Q 4831 672 4831 588 
Q 4784 403 4682 237 
Q 4581 72 4426 -34 
Q 4272 -141 4091 -141 
Q 3716 -141 3452 26 
Q 3188 194 3188 550 
Q 3188 684 3213 788 
L 3353 1356 
Q 3378 1434 3378 1538 
Q 3378 1803 3198 1954 
Q 3019 2106 2747 2106 
L 1959 2106 
L 1538 416 
Q 1522 363 1522 325 
Q 1522 259 1600 250 
Q 1722 225 2059 225 
Q 2125 225 2125 141 
Q 2103 50 2090 25 
Q 2078 0 2016 0 
L 313 0 
z
M 1997 2272 
L 2706 2272 
Q 3403 2272 3756 2625 
Q 3919 2788 4014 3039 
Q 4109 3291 4109 3541 
Q 4109 3778 3970 3912 
Q 3831 4047 3626 4097 
Q 3422 4147 3175 4147 
L 2747 4147 
Q 2572 4147 2515 4117 
Q 2459 4088 2413 3928 
L 1997 2272 
z
" transform="scale(0.015625)"/>
       </defs>
       <use xlink:href="#Cmsy10-a1" transform="translate(0 0.6875)"/>
       <use xlink:href="#Cmmi10-52" transform="translate(77.685547 0.6875)"/>
      </g>
     </g>
    </g>
    <g id="xtick_2">
     <g id="line2d_2">
      <g>
       <use xlink:href="#m099d29fe8c" x="123.938462" y="169.2" style="stroke: #000000; stroke-width: 0.8"/>
      </g>
     </g>
     <g id="text_2">
      <!-- $-\delta$ -->
      <g transform="translate(117.788462 183.798438) scale(0.1 -0.1)">
       <defs>
        <path id="Cmmi10-b1" d="M 1281 -97 
Q 1059 -97 868 -14 
Q 678 69 536 225 
Q 394 381 325 573 
Q 256 766 256 991 
Q 256 1391 445 1767 
Q 634 2144 961 2419 
Q 1288 2694 1672 2791 
Q 1484 3138 1386 3389 
Q 1288 3641 1288 3903 
Q 1288 4097 1378 4245 
Q 1469 4394 1628 4478 
Q 1788 4563 1984 4563 
Q 2175 4563 2741 4434 
Q 2888 4400 2888 4263 
Q 2888 4156 2809 4068 
Q 2731 3981 2625 3981 
Q 2547 3981 2484 4017 
Q 2422 4053 2287 4143 
Q 2153 4234 2047 4282 
Q 1941 4331 1825 4331 
Q 1694 4331 1589 4251 
Q 1484 4172 1484 4044 
Q 1484 3841 1664 3577 
Q 1844 3313 2175 2900 
Q 2553 2419 2553 1838 
Q 2553 1550 2470 1215 
Q 2388 881 2230 584 
Q 2072 288 1826 95 
Q 1581 -97 1281 -97 
z
M 1294 78 
Q 1544 78 1723 337 
Q 1903 597 1995 955 
Q 2088 1313 2088 1556 
Q 2088 2034 1753 2631 
Q 1416 2538 1172 2238 
Q 928 1938 803 1547 
Q 678 1156 678 806 
Q 678 500 837 289 
Q 997 78 1294 78 
z
" transform="scale(0.015625)"/>
       </defs>
       <use xlink:href="#Cmsy10-a1" transform="translate(0 0.703125)"/>
       <use xlink:href="#Cmmi10-b1" transform="translate(77.685547 0.703125)"/>
      </g>
     </g>
    </g>
    <g id="xtick_3">
     <g id="line2d_3">
      <g>
       <use xlink:href="#m099d29fe8c" x="217.4" y="169.2" style="stroke: #000000; stroke-width: 0.8"/>
      </g>
     </g>
     <g id="text_3">
      <!-- $\delta$ -->
      <g transform="translate(215.15 183.798438) scale(0.1 -0.1)">
       <use xlink:href="#Cmmi10-b1" transform="translate(0 0.703125)"/>
      </g>
     </g>
    </g>
   </g>
   <g id="matplotlib.axis_2"/>
   <g id="line2d_4">
    <path d="M 213.842832 151.316909 
L 212.279117 147.930722 
L 210.755765 145.18262 
L 209.884345 143.784657 
L 207.553016 140.505903 
L 205.711959 138.284438 
L 203.354912 135.80223 
L 201.401411 133.996337 
L 198.180048 131.425409 
L 194.59412 129.058196 
L 191.918948 127.580121 
L 189.635294 126.491064 
L 186.641325 125.283522 
L 182.844645 124.083217 
L 180.777615 123.575606 
L 176.899851 122.886458 
L 174.28805 122.609562 
L 170.012879 122.47384 
L 167.157885 122.601339 
L 165.463647 122.760074 
L 161.668305 123.344268 
L 158.449839 124.095108 
L 155.016489 125.168687 
L 151.87289 126.416097 
L 148.804445 127.899928 
L 145.541753 129.799814 
L 143.823934 130.949578 
L 141.31554 132.838954 
L 139.727023 134.180797 
L 136.656914 137.154297 
L 135.126907 138.860126 
L 132.872259 141.71994 
L 130.643582 145.081288 
L 128.956865 148.132411 
L 127.473705 151.369932 
L 126.720052 153.318108 
L 125.701114 156.486492 
L 124.664338 160.995452 
L 124.350071 163.011284 
L 124.049764 165.97663 
L 123.942622 169.823571 
L 124.016381 171.897489 
L 124.287681 174.902339 
L 124.983241 179.026246 
L 125.775563 182.17395 
L 126.763656 185.20204 
L 127.930657 188.099182 
L 129.661338 191.607978 
L 131.786531 195.121043 
L 134.032263 198.208574 
L 135.562099 200.042407 
L 138.319342 202.92313 
L 140.84176 205.173417 
L 143.32584 207.09596 
L 146.428241 209.151711 
L 150.447412 211.328884 
L 152.251586 212.148284 
L 154.619754 213.088257 
L 157.107184 213.919522 
L 161.106603 214.941895 
L 165.099368 215.597645 
L 168.407891 215.876023 
L 171.853774 215.915754 
L 175.068993 215.723187 
L 177.678897 215.402049 
L 181.044289 214.764492 
L 184.043005 213.976187 
L 187.569046 212.76789 
L 190.85322 211.347021 
L 193.279656 210.096619 
L 196.029727 208.450605 
L 199.105057 206.283266 
L 202.245311 203.648744 
L 204.029156 201.924306 
L 206.489875 199.210769 
L 208.389458 196.785308 
L 210.238459 194.06043 
L 211.368849 192.163141 
L 213.325274 188.284726 
L 213.842832 187.083091 
L 213.842832 187.083091 
" clip-path="url(#p5f2a04b7d6)" style="fill: none; stroke: #0000ff; stroke-linecap: square"/>
   </g>
   <g id="line2d_5">
    <path d="M 314.581235 109.589696 
L 313.545348 107.147858 
L 310.52695 100.615222 
L 306.467194 92.891636 
L 302.523399 86.263087 
L 297.731922 79.093808 
L 293.358012 73.223356 
L 289.518212 68.507533 
L 287.125276 65.749322 
L 282.429008 60.692833 
L 278.683885 56.964143 
L 273.497989 52.194446 
L 268.055846 47.627386 
L 264.675837 44.995285 
L 257.890518 40.139935 
L 252.878192 36.890741 
L 247.624945 33.767835 
L 244.036847 31.790953 
L 239.196467 29.314078 
L 231.148845 25.65116 
L 224.865728 23.163043 
L 217.127628 20.520241 
L 207.408631 17.825399 
L 201.795486 16.572317 
L 197.454008 15.750891 
L 189.767483 14.605983 
L 187.661612 14.360366 
L 180.953851 13.77066 
L 177.117834 13.564308 
L 171.223888 13.431757 
L 165.680042 13.51069 
L 158.070729 13.941084 
L 147.664581 15.138845 
L 140.270645 16.425725 
L 131.715443 18.380055 
L 127.872519 19.425187 
L 122.015901 21.223966 
L 117.239977 22.880596 
L 112.442481 24.72267 
L 103.317991 28.744086 
L 97.135659 31.879692 
L 90.804686 35.462541 
L 87.145769 37.7166 
L 82.759301 40.608019 
L 76.649004 45.005595 
L 73.420364 47.51717 
L 70.023671 50.311293 
L 63.614583 56.048086 
L 60.757685 58.821083 
L 55.471221 64.350241 
L 49.713193 71.048636 
L 47.13346 74.316036 
L 44.37268 78.023059 
L 41.885944 81.570563 
L 37.492326 88.404176 
L 35.640527 91.538539 
L 32.386738 97.492222 
L 30.767021 100.706022 
L 28.445217 105.667464 
L 25.313324 113.202558 
L 23.025572 119.547173 
L 21.828825 123.258875 
L 20.039656 129.516446 
L 18.65575 135.200661 
L 17.130066 142.936372 
L 16.242682 148.791811 
L 15.817251 152.320499 
L 15.066424 162.001412 
L 14.901442 169.870167 
L 15.039059 175.780482 
L 15.675354 184.722612 
L 16.750988 193.142175 
L 17.558275 197.854644 
L 19.140645 205.299043 
L 20.55531 210.791634 
L 22.741059 217.998661 
L 24.814871 223.886004 
L 26.496251 228.176309 
L 29.806903 235.697051 
L 32.325556 240.789671 
L 34.734207 245.263937 
L 39.36293 253.001603 
L 40.613816 254.930055 
L 43.623904 259.330673 
L 48.393662 265.702532 
L 50.984839 268.898042 
L 56.045307 274.677057 
L 60.040968 278.86057 
L 66.137242 284.686435 
L 72.647416 290.261047 
L 77.224275 293.82782 
L 81.320966 296.79679 
L 85.081258 299.348962 
L 88.571456 301.578279 
L 94.165028 304.88773 
L 97.735068 306.839606 
L 101.979763 309.006331 
L 108.339682 311.955317 
L 114.660866 314.551699 
L 120.535507 316.68106 
L 127.183825 318.776311 
L 134.54636 320.722907 
L 139.550563 321.82923 
L 145.626696 322.943048 
L 154.266382 324.103195 
L 158.792539 324.515799 
L 164.810812 324.859025 
L 168.798966 324.958003 
L 177.918725 324.800444 
L 186.857595 324.125757 
L 190.954361 323.642762 
L 195.415682 322.990983 
L 199.575676 322.263616 
L 208.106754 320.403456 
L 214.544259 318.662488 
L 218.24259 317.526763 
L 223.555596 315.716503 
L 231.190828 312.731145 
L 238.188118 309.575401 
L 242.908723 307.205467 
L 250.370798 303.034649 
L 254.237413 300.654982 
L 259.91448 296.868864 
L 266.244305 292.201863 
L 268.042189 290.783552 
L 275.17669 284.708633 
L 279.316813 280.823277 
L 283.123332 276.987423 
L 289.934616 269.398908 
L 293.496185 264.999752 
L 296.177521 261.458996 
L 300.762987 254.871861 
L 305.142807 247.818767 
L 308.472577 241.824314 
L 310.8832 237.05349 
L 312.597618 233.390235 
L 314.581235 228.810304 
L 314.581235 228.810304 
" clip-path="url(#p5f2a04b7d6)" style="fill: none; stroke: #0000ff; stroke-linecap: square"/>
   </g>
   <g id="line2d_6">
    <path d="M 213.842832 151.316909 
L 314.581235 109.589696 
" clip-path="url(#p5f2a04b7d6)" style="fill: none; stroke: #0000ff; stroke-width: 1.25; stroke-linecap: square"/>
   </g>
   <g id="line2d_7">
    <path d="M 213.842832 187.083091 
L 314.581235 228.810304 
" clip-path="url(#p5f2a04b7d6)" style="fill: none; stroke: #0000ff; stroke-width: 1.25; stroke-linecap: square"/>
   </g>
   <g id="patch_3">
    <path d="M 280.81471 59.054521 
Q 280.261238 58.506556 281.296791 59.531805 
" clip-path="url(#p5f2a04b7d6)" style="fill: none; stroke: #0000ff; stroke-width: 2; stroke-linecap: round"/>
    <path d="M 283.449905 65.88508 
L 281.296791 59.531805 
L 287.671279 61.621279 
L 283.449905 65.88508 
z
" clip-path="url(#p5f2a04b7d6)" style="fill: #0000ff; stroke: #0000ff; stroke-width: 2; stroke-linecap: round"/>
   </g>
   <g id="patch_4">
    <path d="M 170.669231 13.430769 
Q 169.890398 13.434663 171.347604 13.427377 
" clip-path="url(#p5f2a04b7d6)" style="fill: none; stroke: #0000ff; stroke-width: 2; stroke-linecap: round"/>
    <path d="M 177.362529 16.39734 
L 171.347604 13.427377 
L 177.33253 10.397415 
L 177.362529 16.39734 
z
" clip-path="url(#p5f2a04b7d6)" style="fill: #0000ff; stroke: #0000ff; stroke-width: 2; stroke-linecap: round"/>
   </g>
   <g id="patch_5">
    <path d="M 60.523751 59.054521 
Q 59.975787 59.607992 61.001036 58.57244 
" clip-path="url(#p5f2a04b7d6)" style="fill: none; stroke: #0000ff; stroke-width: 2; stroke-linecap: round"/>
    <path d="M 67.354311 56.419326 
L 61.001036 58.57244 
L 63.09051 52.197952 
L 67.354311 56.419326 
z
" clip-path="url(#p5f2a04b7d6)" style="fill: #0000ff; stroke: #0000ff; stroke-width: 2; stroke-linecap: round"/>
   </g>
   <g id="patch_6">
    <path d="M 14.9 169.2 
Q 14.903894 169.978833 14.896608 168.521626 
" clip-path="url(#p5f2a04b7d6)" style="fill: none; stroke: #0000ff; stroke-width: 2; stroke-linecap: round"/>
    <path d="M 17.866571 162.506701 
L 14.896608 168.521626 
L 11.866646 162.536701 
L 17.866571 162.506701 
z
" clip-path="url(#p5f2a04b7d6)" style="fill: #0000ff; stroke: #0000ff; stroke-width: 2; stroke-linecap: round"/>
   </g>
   <g id="patch_7">
    <path d="M 60.523751 279.345479 
Q 61.077223 279.893444 60.04167 278.868195 
" clip-path="url(#p5f2a04b7d6)" style="fill: none; stroke: #0000ff; stroke-width: 2; stroke-linecap: round"/>
    <path d="M 57.888557 272.51492 
L 60.04167 278.868195 
L 53.667182 276.778721 
L 57.888557 272.51492 
z
" clip-path="url(#p5f2a04b7d6)" style="fill: #0000ff; stroke: #0000ff; stroke-width: 2; stroke-linecap: round"/>
   </g>
   <g id="patch_8">
    <path d="M 170.669231 324.969231 
Q 171.448064 324.965337 169.990857 324.972623 
" clip-path="url(#p5f2a04b7d6)" style="fill: none; stroke: #0000ff; stroke-width: 2; stroke-linecap: round"/>
    <path d="M 163.975932 322.00266 
L 169.990857 324.972623 
L 164.005932 328.002585 
L 163.975932 322.00266 
z
" clip-path="url(#p5f2a04b7d6)" style="fill: #0000ff; stroke: #0000ff; stroke-width: 2; stroke-linecap: round"/>
   </g>
   <g id="patch_9">
    <path d="M 280.81471 279.345479 
Q 281.362675 278.792008 280.337426 279.82756 
" clip-path="url(#p5f2a04b7d6)" style="fill: none; stroke: #0000ff; stroke-width: 2; stroke-linecap: round"/>
    <path d="M 273.984151 281.980674 
L 280.337426 279.82756 
L 278.247952 286.202048 
L 273.984151 281.980674 
z
" clip-path="url(#p5f2a04b7d6)" style="fill: #0000ff; stroke: #0000ff; stroke-width: 2; stroke-linecap: round"/>
   </g>
   <g id="patch_10">
    <path d="M 170.669231 122.469231 
Q 170.902881 122.470399 168.900491 122.460387 
" clip-path="url(#p5f2a04b7d6)" style="fill: none; stroke: #0000ff; stroke-width: 2; stroke-linecap: round"/>
    <path d="M 162.915566 119.430425 
L 168.900491 122.460387 
L 162.885566 125.43035 
L 162.915566 119.430425 
z
" clip-path="url(#p5f2a04b7d6)" style="fill: #0000ff; stroke: #0000ff; stroke-width: 2; stroke-linecap: round"/>
   </g>
   <g id="patch_11">
    <path d="M 123.938462 169.2 
Q 123.93963 168.96635 123.929618 170.96874 
" clip-path="url(#p5f2a04b7d6)" style="fill: none; stroke: #0000ff; stroke-width: 2; stroke-linecap: round"/>
    <path d="M 120.899655 176.953665 
L 123.929618 170.96874 
L 126.89958 176.983665 
L 120.899655 176.953665 
z
" clip-path="url(#p5f2a04b7d6)" style="fill: #0000ff; stroke: #0000ff; stroke-width: 2; stroke-linecap: round"/>
   </g>
   <g id="patch_12">
    <path d="M 170.669231 215.930769 
Q 170.435581 215.929601 172.437971 215.939613 
" clip-path="url(#p5f2a04b7d6)" style="fill: none; stroke: #0000ff; stroke-width: 2; stroke-linecap: round"/>
    <path d="M 178.422896 218.969575 
L 172.437971 215.939613 
L 178.452896 212.96965 
L 178.422896 218.969575 
z
" clip-path="url(#p5f2a04b7d6)" style="fill: #0000ff; stroke: #0000ff; stroke-width: 2; stroke-linecap: round"/>
   </g>
   <g id="patch_13">
    <path d="M 264.212033 130.453302 
Q 264.931593 130.155251 263.585296 130.712906 
" clip-path="url(#p5f2a04b7d6)" style="fill: none; stroke: #0000ff; stroke-width: 2; stroke-linecap: round"/>
    <path d="M 256.893969 130.237368 
L 263.585296 130.712906 
L 259.190069 135.780645 
L 256.893969 130.237368 
z
" clip-path="url(#p5f2a04b7d6)" style="fill: #0000ff; stroke: #0000ff; stroke-width: 2; stroke-linecap: round"/>
   </g>
   <g id="patch_14">
    <path d="M 264.212033 207.946698 
Q 263.492473 207.648646 264.838771 208.206301 
" clip-path="url(#p5f2a04b7d6)" style="fill: none; stroke: #0000ff; stroke-width: 2; stroke-linecap: round"/>
    <path d="M 269.233998 213.27404 
L 264.838771 208.206301 
L 271.530098 207.730763 
L 269.233998 213.27404 
z
" clip-path="url(#p5f2a04b7d6)" style="fill: #0000ff; stroke: #0000ff; stroke-width: 2; stroke-linecap: round"/>
   </g>
   <g id="patch_15">
    <path d="M 170.669231 331.2 
L 170.669231 7.2 
" style="fill: none; stroke: #000000; stroke-width: 0.8; stroke-linejoin: miter; stroke-linecap: square"/>
   </g>
   <g id="patch_16">
    <path d="M 8.906375 169.2 
L 320.57486 169.2 
" style="fill: none; stroke: #000000; stroke-width: 0.8; stroke-linejoin: miter; stroke-linecap: square"/>
   </g>
   <g id="text_4">
    <!-- $\gamma_{R,\alpha}$ -->
    <g transform="translate(233.513846 24.001731) scale(0.16 -0.16)">
     <defs>
      <path id="Cmmi10-b0" d="M 1888 -1253 
Q 1888 -1109 1952 -834 
Q 2016 -559 2108 -248 
Q 2200 63 2266 263 
Q 2291 581 2291 744 
Q 2291 1156 2209 1511 
Q 2128 1866 1903 2105 
Q 1678 2344 1275 2344 
Q 1063 2344 852 2253 
Q 641 2163 489 2000 
Q 338 1838 281 1631 
Q 269 1594 231 1594 
L 153 1594 
Q 103 1594 103 1650 
L 103 1672 
Q 175 1959 358 2226 
Q 541 2494 805 2661 
Q 1069 2828 1363 2828 
Q 1663 2828 1881 2625 
Q 2100 2422 2231 2109 
Q 2363 1797 2420 1478 
Q 2478 1159 2478 878 
Q 2800 1753 3200 2534 
L 3297 2741 
Q 3316 2759 3341 2759 
L 3419 2759 
Q 3469 2759 3469 2700 
Q 3469 2688 3456 2663 
L 3359 2463 
Q 3081 1909 2848 1340 
Q 2616 772 2450 244 
Q 2425 28 2354 -347 
Q 2284 -722 2184 -1045 
Q 2084 -1369 1984 -1381 
Q 1888 -1381 1888 -1253 
z
" transform="scale(0.015625)"/>
      <path id="Cmmi10-3b" d="M 634 -1153 
Q 634 -1125 659 -1100 
Q 891 -878 1019 -587 
Q 1147 -297 1147 25 
L 1147 103 
Q 1044 0 891 0 
Q 744 0 641 103 
Q 538 206 538 353 
Q 538 503 641 603 
Q 744 703 891 703 
Q 1119 703 1216 492 
Q 1313 281 1313 25 
Q 1313 -331 1170 -651 
Q 1028 -972 769 -1228 
Q 744 -1241 728 -1241 
Q 697 -1241 665 -1212 
Q 634 -1184 634 -1153 
z
" transform="scale(0.015625)"/>
      <path id="Cmmi10-ae" d="M 1288 -72 
Q 984 -72 748 72 
Q 513 216 384 459 
Q 256 703 256 1013 
Q 256 1447 498 1872 
Q 741 2297 1142 2562 
Q 1544 2828 1984 2828 
Q 2309 2828 2556 2658 
Q 2803 2488 2931 2205 
Q 3059 1922 3059 1600 
L 3066 1172 
Q 3284 1475 3436 1801 
Q 3588 2128 3669 2478 
Q 3681 2516 3719 2516 
L 3794 2516 
Q 3853 2516 3853 2456 
Q 3853 2450 3847 2438 
Q 3772 2144 3659 1873 
Q 3547 1603 3395 1350 
Q 3244 1097 3066 891 
Q 3066 97 3250 97 
Q 3369 97 3445 167 
Q 3522 238 3580 341 
Q 3638 444 3653 447 
L 3731 447 
Q 3781 447 3781 384 
Q 3781 225 3598 76 
Q 3416 -72 3238 -72 
Q 3006 -72 2853 78 
Q 2700 228 2644 469 
Q 2344 213 1994 70 
Q 1644 -72 1288 -72 
z
M 1300 97 
Q 1984 97 2613 659 
Q 2609 697 2603 751 
Q 2597 806 2597 813 
L 2597 1503 
Q 2597 2663 1972 2663 
Q 1597 2663 1315 2342 
Q 1034 2022 892 1576 
Q 750 1131 750 763 
Q 750 484 892 290 
Q 1034 97 1300 97 
z
" transform="scale(0.015625)"/>
     </defs>
     <use xlink:href="#Cmmi10-b0" transform="translate(0 0.8125)"/>
     <use xlink:href="#Cmmi10-52" transform="translate(51.708984 -16.19375) scale(0.7)"/>
     <use xlink:href="#Cmmi10-3b" transform="translate(104.824219 -16.19375) scale(0.7)"/>
     <use xlink:href="#Cmmi10-ae" transform="translate(136.495117 -16.19375) scale(0.7)"/>
    </g>
   </g>
   <g id="text_5">
    <!-- $\gamma_{\delta,\alpha}$ -->
    <g transform="translate(134.023846 117.463269) scale(0.16 -0.16)">
     <use xlink:href="#Cmmi10-b0" transform="translate(0 0.8125)"/>
     <use xlink:href="#Cmmi10-b1" transform="translate(51.708984 -16.19375) scale(0.7)"/>
     <use xlink:href="#Cmmi10-3b" transform="translate(82.77832 -16.19375) scale(0.7)"/>
     <use xlink:href="#Cmmi10-ae" transform="translate(114.449219 -16.19375) scale(0.7)"/>
    </g>
   </g>
   <g id="text_6">
    <!-- $\gamma_\alpha$ -->
    <g transform="translate(240.39511 119.098879) scale(0.16 -0.16)">
     <use xlink:href="#Cmmi10-b0" transform="translate(0 0.8125)"/>
     <use xlink:href="#Cmmi10-ae" transform="translate(51.708984 -16.19375) scale(0.7)"/>
    </g>
   </g>
   <g id="text_7">
    <!-- $\gamma_{-\alpha}$ -->
    <g transform="translate(248.456649 221.515351) scale(0.16 -0.16)">
     <use xlink:href="#Cmmi10-b0" transform="translate(0 0.8125)"/>
     <use xlink:href="#Cmsy10-a1" transform="translate(51.708984 -16.19375) scale(0.7)"/>
     <use xlink:href="#Cmmi10-ae" transform="translate(106.088867 -16.19375) scale(0.7)"/>
    </g>
   </g>
  </g>
 </g>
 <defs>
  <clipPath id="p5f2a04b7d6">
   <rect x="8.906375" y="7.2" width="311.668484" height="324"/>
  </clipPath>
 </defs>
</svg>
