<?xml version="1.0" encoding="utf-8" standalone="no"?>
<!DOCTYPE svg PUBLIC "-//W3C//DTD SVG 1.1//EN"
  "http://www.w3.org/Graphics/SVG/1.1/DTD/svg11.dtd">
<svg xmlns:xlink="http://www.w3.org/1999/xlink" width="243.825393pt" height="338.4pt" viewBox="0 0 243.825393 338.4" xmlns="http://www.w3.org/2000/svg" version="1.1">
 <metadata>
  <rdf:RDF xmlns:dc="http://purl.org/dc/elements/1.1/" xmlns:cc="http://creativecommons.org/ns#" xmlns:rdf="http://www.w3.org/1999/02/22-rdf-syntax-ns#">
   <cc:Work>
    <dc:type rdf:resource="http://purl.org/dc/dcmitype/StillImage"/>
    <dc:date>2025-01-22T18:36:29.635757</dc:date>
    <dc:format>image/svg+xml</dc:format>
    <dc:creator>
     <cc:Agent>
      <dc:title>Matplotlib v3.6.2, https://matplotlib.org/</dc:title>
     </cc:Agent>
    </dc:creator>
   </cc:Work>
  </rdf:RDF>
 </metadata>
 <defs>
  <style type="text/css">*{stroke-linejoin: round; stroke-linecap: butt}</style>
 </defs>
 <g id="figure_1">
  <g id="patch_1">
   <path d="M 0 338.4 
L 243.825393 338.4 
L 243.825393 0 
L 0 0 
z
" style="fill: #ffffff"/>
  </g>
  <g id="axes_1">
   <g id="patch_2">
    <path d="M 7.2 331.2 
L 236.625393 331.2 
L 236.625393 7.2 
L 7.2 7.2 
z
" style="fill: #ffffff"/>
   </g>
   <g id="PathCollection_1">
    <path d="M 87.085066 151.022284 
L 87.936862 151.3304 
L 88.043426 150.996724 
L 88.728752 150.038453 
L 88.788658 149.985731 
L 89.32728 149.080183 
L 89.640454 148.679487 
L 89.952002 148.121912 
L 90.492251 147.327705 
L 90.582606 147.163641 
L 91.196506 146.205371 
L 91.344047 145.995981 
L 91.808371 145.2471 
L 92.195843 144.667989 
L 92.427653 144.288829 
L 93.047639 143.335348 
L 93.050564 143.330558 
L 93.660319 142.372288 
L 93.899435 142.008232 
L 94.275545 141.414017 
L 94.751232 140.680457 
L 94.89393 140.455746 
L 95.510264 139.497476 
L 95.603028 139.353136 
L 96.124099 138.539205 
L 96.454824 138.022967 
L 96.740365 137.580934 
L 97.30662 136.700142 
L 97.357428 136.622663 
L 97.972311 135.664393 
L 98.158416 135.367879 
L 98.588115 134.706122 
L 99.010212 134.040118 
L 99.204115 133.747851 
L 99.819163 132.789581 
L 99.862009 132.719086 
L 100.436082 131.83131 
L 100.713805 131.381395 
L 101.05262 130.873039 
L 101.565601 130.060566 
L 101.66673 129.914768 
L 102.282971 128.956498 
L 102.417397 128.727856 
L 102.902397 127.998227 
L 103.269193 127.392959 
L 103.518486 127.039956 
L 104.12099 126.088655 
L 104.126358 126.081686 
L 104.753202 125.123415 
L 104.972786 124.720776 
L 105.378616 124.165144 
L 105.824582 123.394237 
L 105.993576 123.206873 
L 106.605612 122.248603 
L 106.676378 121.984465 
L 107.395656 121.290332 
L 106.676378 120.670703 
L 106.459997 120.332061 
L 105.824582 120.061275 
L 104.972786 119.531115 
L 104.77079 119.373791 
L 104.12099 119.056704 
L 103.269193 118.581911 
L 103.001888 118.41552 
L 102.417397 118.142568 
L 101.565601 117.71515 
L 101.07565 117.457249 
L 100.713805 117.302315 
L 99.862009 116.918181 
L 99.010212 116.531833 
L 98.940111 116.498979 
L 98.158416 116.184261 
L 97.30662 115.842256 
L 96.54726 115.540708 
L 96.454824 115.508292 
L 95.603028 115.206342 
L 94.751232 114.910998 
L 93.899435 114.623879 
L 93.774608 114.582437 
L 93.047639 114.363363 
L 92.195843 114.114818 
L 91.344047 113.876142 
L 90.492251 113.648134 
L 90.399184 113.624166 
L 89.640454 113.443461 
L 88.788658 113.251009 
L 87.936862 113.069774 
L 87.085066 112.900187 
L 86.23327 112.742609 
L 85.784757 112.665896 
L 85.381473 112.60111 
L 84.529677 112.475601 
L 83.677881 112.362059 
L 82.826085 112.26069 
L 81.974289 112.171662 
L 81.122493 112.095116 
L 80.270696 112.031165 
L 79.4189 111.979901 
L 78.567104 111.941395 
L 77.715308 111.915702 
L 76.863512 111.902856 
L 76.011715 111.902879 
L 75.159919 111.915773 
L 74.308123 111.941526 
L 73.456327 111.980105 
L 72.604531 112.03146 
L 71.752734 112.095514 
L 70.900938 112.172166 
L 70.049142 112.261279 
L 69.197346 112.362677 
L 68.34555 112.476132 
L 67.493754 112.601355 
L 67.085362 112.665896 
L 66.641957 112.742959 
L 65.790161 112.901206 
L 64.938365 113.071334 
L 64.086569 113.252777 
L 63.234773 113.444786 
L 62.47305 113.624166 
L 62.382976 113.648399 
L 61.53118 113.878628 
L 60.679384 114.118618 
L 59.827588 114.366565 
L 59.094124 114.582437 
L 58.975792 114.624892 
L 58.123995 114.917794 
L 57.272199 115.214906 
L 56.420403 115.509861 
L 56.314966 115.540708 
L 55.568607 115.859247 
L 54.716811 116.208912 
L 53.914828 116.498979 
L 53.865015 116.541881 
L 53.013218 117.135458 
L 52.509051 117.457249 
L 53.013218 117.786987 
L 53.165905 118.41552 
L 53.609997 119.373791 
L 53.865015 119.813455 
L 54.059174 120.332061 
L 54.500074 121.290332 
L 54.716811 121.703579 
L 54.941265 122.248603 
L 55.381853 123.206873 
L 55.568607 123.577591 
L 55.821038 124.165144 
L 56.261338 125.123415 
L 56.420403 125.446467 
L 56.69996 126.081686 
L 57.13984 127.039956 
L 57.272199 127.313041 
L 57.578491 127.998227 
L 58.017802 128.956498 
L 58.123995 129.178357 
L 58.456826 129.914768 
L 58.895411 130.873039 
L 58.975792 131.04286 
L 59.335067 131.83131 
L 59.772746 132.789581 
L 59.827588 132.906737 
L 60.213281 133.747851 
L 60.649833 134.706122 
L 60.679384 134.770014 
L 61.091527 135.664393 
L 61.526663 136.622663 
L 61.53118 136.63257 
L 61.969866 137.580934 
L 62.382976 138.493573 
L 62.404236 138.539205 
L 62.848388 139.497476 
L 63.234773 140.355612 
L 63.282317 140.455746 
L 63.727244 141.414017 
L 64.086569 142.219447 
L 64.16089 142.372288 
L 64.606748 143.330558 
L 64.938365 144.086221 
L 65.040366 144.288829 
L 65.487687 145.2471 
L 65.790161 145.959287 
L 65.922037 146.205371 
L 66.372845 147.163641 
L 66.641957 147.852813 
L 66.812947 148.121912 
L 67.284545 149.080183 
L 67.493754 149.992124 
L 68.34555 149.815885 
L 69.197346 149.44167 
L 70.049142 149.116038 
L 70.1388 149.080183 
L 70.900938 148.867272 
L 71.752734 148.651799 
L 72.604531 148.472836 
L 73.456327 148.33186 
L 74.308123 148.228001 
L 75.159919 148.15983 
L 76.011715 148.126107 
L 76.863512 148.126102 
L 77.715308 148.159703 
L 78.567104 148.227408 
L 79.4189 148.330234 
L 80.270696 148.469494 
L 81.122493 148.646409 
L 81.974289 148.861408 
L 82.723809 149.080183 
L 82.826085 149.11362 
L 83.677881 149.410818 
L 84.529677 149.747763 
L 85.241231 150.038453 
L 85.381473 150.121785 
L 86.23327 150.583505 
L 87.073694 150.996724 
z
" clip-path="url(#pe6c88090b2)" style="fill: #add8e6"/>
   </g>
   <g id="PathCollection_2">
    <path d="M 87.085066 151.022284 
L 87.936862 151.3304 
L 88.043426 150.996724 
L 88.728752 150.038453 
L 88.788658 149.985731 
L 89.32728 149.080183 
L 89.640454 148.679487 
L 89.952002 148.121912 
L 90.492251 147.327705 
L 90.582606 147.163641 
L 91.196506 146.205371 
L 91.344047 145.995981 
L 91.808371 145.2471 
L 92.195843 144.667989 
L 92.427653 144.288829 
L 93.047639 143.335348 
L 93.050564 143.330558 
L 93.660319 142.372288 
L 93.899435 142.008232 
L 94.275545 141.414017 
L 94.751232 140.680457 
L 94.89393 140.455746 
L 95.510264 139.497476 
L 95.603028 139.353136 
L 96.124099 138.539205 
L 96.454824 138.022967 
L 96.740365 137.580934 
L 97.30662 136.700142 
L 97.357428 136.622663 
L 97.972311 135.664393 
L 98.158416 135.367879 
L 98.588115 134.706122 
L 99.010212 134.040118 
L 99.204115 133.747851 
L 99.819163 132.789581 
L 99.862009 132.719086 
L 100.436082 131.83131 
L 100.713805 131.381395 
L 101.05262 130.873039 
L 101.565601 130.060566 
L 101.66673 129.914768 
L 102.282971 128.956498 
L 102.417397 128.727856 
L 102.902397 127.998227 
L 103.269193 127.392959 
L 103.518486 127.039956 
L 104.12099 126.088655 
L 104.126358 126.081686 
L 104.753202 125.123415 
L 104.972786 124.720776 
L 105.378616 124.165144 
L 105.824582 123.394237 
L 105.993576 123.206873 
L 106.605612 122.248603 
L 106.676378 121.984465 
L 107.395656 121.290332 
L 106.676378 120.670703 
L 106.459997 120.332061 
L 105.824582 120.061275 
L 104.972786 119.531115 
L 104.77079 119.373791 
L 104.12099 119.056704 
L 103.269193 118.581911 
L 103.001888 118.41552 
L 102.417397 118.142568 
L 101.565601 117.71515 
L 101.07565 117.457249 
L 100.713805 117.302315 
L 99.862009 116.918181 
L 99.010212 116.531833 
L 98.940111 116.498979 
L 98.158416 116.184261 
L 97.30662 115.842256 
L 96.54726 115.540708 
L 96.454824 115.508292 
L 95.603028 115.206342 
L 94.751232 114.910998 
L 93.899435 114.623879 
L 93.774608 114.582437 
L 93.047639 114.363363 
L 92.195843 114.114818 
L 91.344047 113.876142 
L 90.492251 113.648134 
L 90.399184 113.624166 
L 89.640454 113.443461 
L 88.788658 113.251009 
L 87.936862 113.069774 
L 87.085066 112.900187 
L 86.23327 112.742609 
L 85.784757 112.665896 
L 85.381473 112.60111 
L 84.529677 112.475601 
L 83.677881 112.362059 
L 82.826085 112.26069 
L 81.974289 112.171662 
L 81.122493 112.095116 
L 80.270696 112.031165 
L 79.4189 111.979901 
L 78.567104 111.941395 
L 77.715308 111.915702 
L 76.863512 111.902856 
L 76.011715 111.902879 
L 75.159919 111.915773 
L 74.308123 111.941526 
L 73.456327 111.980105 
L 72.604531 112.03146 
L 71.752734 112.095514 
L 70.900938 112.172166 
L 70.049142 112.261279 
L 69.197346 112.362677 
L 68.34555 112.476132 
L 67.493754 112.601355 
L 67.085362 112.665896 
L 66.641957 112.742959 
L 65.790161 112.901206 
L 64.938365 113.071334 
L 64.086569 113.252777 
L 63.234773 113.444786 
L 62.47305 113.624166 
L 62.382976 113.648399 
L 61.53118 113.878628 
L 60.679384 114.118618 
L 59.827588 114.366565 
L 59.094124 114.582437 
L 58.975792 114.624892 
L 58.123995 114.917794 
L 57.272199 115.214906 
L 56.420403 115.509861 
L 56.314966 115.540708 
L 55.568607 115.859247 
L 54.716811 116.208912 
L 53.914828 116.498979 
L 53.865015 116.541881 
L 53.013218 117.135458 
L 52.509051 117.457249 
L 53.013218 117.786987 
L 53.165905 118.41552 
L 53.609997 119.373791 
L 53.865015 119.813455 
L 54.059174 120.332061 
L 54.500074 121.290332 
L 54.716811 121.703579 
L 54.941265 122.248603 
L 55.381853 123.206873 
L 55.568607 123.577591 
L 55.821038 124.165144 
L 56.261338 125.123415 
L 56.420403 125.446467 
L 56.69996 126.081686 
L 57.13984 127.039956 
L 57.272199 127.313041 
L 57.578491 127.998227 
L 58.017802 128.956498 
L 58.123995 129.178357 
L 58.456826 129.914768 
L 58.895411 130.873039 
L 58.975792 131.04286 
L 59.335067 131.83131 
L 59.772746 132.789581 
L 59.827588 132.906737 
L 60.213281 133.747851 
L 60.649833 134.706122 
L 60.679384 134.770014 
L 61.091527 135.664393 
L 61.526663 136.622663 
L 61.53118 136.63257 
L 61.969866 137.580934 
L 62.382976 138.493573 
L 62.404236 138.539205 
L 62.848388 139.497476 
L 63.234773 140.355612 
L 63.282317 140.455746 
L 63.727244 141.414017 
L 64.086569 142.219447 
L 64.16089 142.372288 
L 64.606748 143.330558 
L 64.938365 144.086221 
L 65.040366 144.288829 
L 65.487687 145.2471 
L 65.790161 145.959287 
L 65.922037 146.205371 
L 66.372845 147.163641 
L 66.641957 147.852813 
L 66.812947 148.121912 
L 67.284545 149.080183 
L 67.493754 149.992124 
L 68.34555 149.815885 
L 69.197346 149.44167 
L 70.049142 149.116038 
L 70.1388 149.080183 
L 70.900938 148.867272 
L 71.752734 148.651799 
L 72.604531 148.472836 
L 73.456327 148.33186 
L 74.308123 148.228001 
L 75.159919 148.15983 
L 76.011715 148.126107 
L 76.863512 148.126102 
L 77.715308 148.159703 
L 78.567104 148.227408 
L 79.4189 148.330234 
L 80.270696 148.469494 
L 81.122493 148.646409 
L 81.974289 148.861408 
L 82.723809 149.080183 
L 82.826085 149.11362 
L 83.677881 149.410818 
L 84.529677 149.747763 
L 85.241231 150.038453 
L 85.381473 150.121785 
L 86.23327 150.583505 
L 87.073694 150.996724 
z
M 87.073694 150.996724 
L 86.23327 150.583505 
L 85.381473 150.121785 
L 85.241231 150.038453 
L 84.529677 149.747763 
L 83.677881 149.410818 
L 82.826085 149.11362 
L 82.723809 149.080183 
L 81.974289 148.861408 
L 81.122493 148.646409 
L 80.270696 148.469494 
L 79.4189 148.330234 
L 78.567104 148.227408 
L 77.715308 148.159703 
L 76.863512 148.126102 
L 76.011715 148.126107 
L 75.159919 148.15983 
L 74.308123 148.228001 
L 73.456327 148.33186 
L 72.604531 148.472836 
L 71.752734 148.651799 
L 70.900938 148.867272 
L 70.1388 149.080183 
L 70.049142 149.116038 
L 69.197346 149.44167 
L 68.34555 149.815885 
L 67.493754 149.992124 
L 67.284545 149.080183 
L 66.812947 148.121912 
L 66.641957 147.852813 
L 66.372845 147.163641 
L 65.922037 146.205371 
L 65.790161 145.959287 
L 65.487687 145.2471 
L 65.040366 144.288829 
L 64.938365 144.086221 
L 64.606748 143.330558 
L 64.16089 142.372288 
L 64.086569 142.219447 
L 63.727244 141.414017 
L 63.282317 140.455746 
L 63.234773 140.355612 
L 62.848388 139.497476 
L 62.404236 138.539205 
L 62.382976 138.493573 
L 61.969866 137.580934 
L 61.53118 136.63257 
L 61.526663 136.622663 
L 61.091527 135.664393 
L 60.679384 134.770014 
L 60.649833 134.706122 
L 60.213281 133.747851 
L 59.827588 132.906737 
L 59.772746 132.789581 
L 59.335067 131.83131 
L 58.975792 131.04286 
L 58.895411 130.873039 
L 58.456826 129.914768 
L 58.123995 129.178357 
L 58.017802 128.956498 
L 57.578491 127.998227 
L 57.272199 127.313041 
L 57.13984 127.039956 
L 56.69996 126.081686 
L 56.420403 125.446467 
L 56.261338 125.123415 
L 55.821038 124.165144 
L 55.568607 123.577591 
L 55.381853 123.206873 
L 54.941265 122.248603 
L 54.716811 121.703579 
L 54.500074 121.290332 
L 54.059174 120.332061 
L 53.865015 119.813455 
L 53.609997 119.373791 
L 53.165905 118.41552 
L 53.013218 117.786987 
L 52.509051 117.457249 
L 53.013218 117.135458 
L 53.865015 116.541881 
L 53.914828 116.498979 
L 54.716811 116.208912 
L 55.568607 115.859247 
L 56.314966 115.540708 
L 56.420403 115.509861 
L 57.272199 115.214906 
L 58.123995 114.917794 
L 58.975792 114.624892 
L 59.094124 114.582437 
L 59.827588 114.366565 
L 60.679384 114.118618 
L 61.53118 113.878628 
L 62.382976 113.648399 
L 62.47305 113.624166 
L 63.234773 113.444786 
L 64.086569 113.252777 
L 64.938365 113.071334 
L 65.790161 112.901206 
L 66.641957 112.742959 
L 67.085362 112.665896 
L 67.493754 112.601355 
L 68.34555 112.476132 
L 69.197346 112.362677 
L 70.049142 112.261279 
L 70.900938 112.172166 
L 71.752734 112.095514 
L 72.604531 112.03146 
L 73.456327 111.980105 
L 74.308123 111.941526 
L 75.159919 111.915773 
L 76.011715 111.902879 
L 76.863512 111.902856 
L 77.715308 111.915702 
L 78.567104 111.941395 
L 79.4189 111.979901 
L 80.270696 112.031165 
L 81.122493 112.095116 
L 81.974289 112.171662 
L 82.826085 112.26069 
L 83.677881 112.362059 
L 84.529677 112.475601 
L 85.381473 112.60111 
L 85.784757 112.665896 
L 86.23327 112.742609 
L 87.085066 112.900187 
L 87.936862 113.069774 
L 88.788658 113.251009 
L 89.640454 113.443461 
L 90.399184 113.624166 
L 90.492251 113.648134 
L 91.344047 113.876142 
L 92.195843 114.114818 
L 93.047639 114.363363 
L 93.774608 114.582437 
L 93.899435 114.623879 
L 94.751232 114.910998 
L 95.603028 115.206342 
L 96.454824 115.508292 
L 96.54726 115.540708 
L 97.30662 115.842256 
L 98.158416 116.184261 
L 98.940111 116.498979 
L 99.010212 116.531833 
L 99.862009 116.918181 
L 100.713805 117.302315 
L 101.07565 117.457249 
L 101.565601 117.71515 
L 102.417397 118.142568 
L 103.001888 118.41552 
L 103.269193 118.581911 
L 104.12099 119.056704 
L 104.77079 119.373791 
L 104.972786 119.531115 
L 105.824582 120.061275 
L 106.459997 120.332061 
L 106.676378 120.670703 
L 107.395656 121.290332 
L 106.676378 121.984465 
L 106.605612 122.248603 
L 105.993576 123.206873 
L 105.824582 123.394237 
L 105.378616 124.165144 
L 104.972786 124.720776 
L 104.753202 125.123415 
L 104.126358 126.081686 
L 104.12099 126.088655 
L 103.518486 127.039956 
L 103.269193 127.392959 
L 102.902397 127.998227 
L 102.417397 128.727856 
L 102.282971 128.956498 
L 101.66673 129.914768 
L 101.565601 130.060566 
L 101.05262 130.873039 
L 100.713805 131.381395 
L 100.436082 131.83131 
L 99.862009 132.719086 
L 99.819163 132.789581 
L 99.204115 133.747851 
L 99.010212 134.040118 
L 98.588115 134.706122 
L 98.158416 135.367879 
L 97.972311 135.664393 
L 97.357428 136.622663 
L 97.30662 136.700142 
L 96.740365 137.580934 
L 96.454824 138.022967 
L 96.124099 138.539205 
L 95.603028 139.353136 
L 95.510264 139.497476 
L 94.89393 140.455746 
L 94.751232 140.680457 
L 94.275545 141.414017 
L 93.899435 142.008232 
L 93.660319 142.372288 
L 93.050564 143.330558 
L 93.047639 143.335348 
L 92.427653 144.288829 
L 92.195843 144.667989 
L 91.808371 145.2471 
L 91.344047 145.995981 
L 91.196506 146.205371 
L 90.582606 147.163641 
L 90.492251 147.327705 
L 89.952002 148.121912 
L 89.640454 148.679487 
L 89.32728 149.080183 
L 88.788658 149.985731 
L 88.728752 150.038453 
L 88.043426 150.996724 
L 87.936862 151.3304 
L 87.085066 151.022284 
z
" clip-path="url(#pe6c88090b2)" style="fill: #add8e6"/>
   </g>
   <g id="PathCollection_3">
    <path d="M 87.085066 151.022284 
L 87.936862 151.3304 
L 88.043426 150.996724 
L 88.728752 150.038453 
L 88.788658 149.985731 
L 89.32728 149.080183 
L 89.640454 148.679487 
L 89.952002 148.121912 
L 90.492251 147.327705 
L 90.582606 147.163641 
L 91.196506 146.205371 
L 91.344047 145.995981 
L 91.808371 145.2471 
L 92.195843 144.667989 
L 92.427653 144.288829 
L 93.047639 143.335348 
L 93.050564 143.330558 
L 93.660319 142.372288 
L 93.899435 142.008232 
L 94.275545 141.414017 
L 94.751232 140.680457 
L 94.89393 140.455746 
L 95.510264 139.497476 
L 95.603028 139.353136 
L 96.124099 138.539205 
L 96.454824 138.022967 
L 96.740365 137.580934 
L 97.30662 136.700142 
L 97.357428 136.622663 
L 97.972311 135.664393 
L 98.158416 135.367879 
L 98.588115 134.706122 
L 99.010212 134.040118 
L 99.204115 133.747851 
L 99.819163 132.789581 
L 99.862009 132.719086 
L 100.436082 131.83131 
L 100.713805 131.381395 
L 101.05262 130.873039 
L 101.565601 130.060566 
L 101.66673 129.914768 
L 102.282971 128.956498 
L 102.417397 128.727856 
L 102.902397 127.998227 
L 103.269193 127.392959 
L 103.518486 127.039956 
L 104.12099 126.088655 
L 104.126358 126.081686 
L 104.753202 125.123415 
L 104.972786 124.720776 
L 105.378616 124.165144 
L 105.824582 123.394237 
L 105.993576 123.206873 
L 106.605612 122.248603 
L 106.676378 121.984465 
L 107.395656 121.290332 
L 106.676378 120.670703 
L 106.459997 120.332061 
L 105.824582 120.061275 
L 104.972786 119.531115 
L 104.77079 119.373791 
L 104.12099 119.056704 
L 103.269193 118.581911 
L 103.001888 118.41552 
L 102.417397 118.142568 
L 101.565601 117.71515 
L 101.07565 117.457249 
L 100.713805 117.302315 
L 99.862009 116.918181 
L 99.010212 116.531833 
L 98.940111 116.498979 
L 98.158416 116.184261 
L 97.30662 115.842256 
L 96.54726 115.540708 
L 96.454824 115.508292 
L 95.603028 115.206342 
L 94.751232 114.910998 
L 93.899435 114.623879 
L 93.774608 114.582437 
L 93.047639 114.363363 
L 92.195843 114.114818 
L 91.344047 113.876142 
L 90.492251 113.648134 
L 90.399184 113.624166 
L 89.640454 113.443461 
L 88.788658 113.251009 
L 87.936862 113.069774 
L 87.085066 112.900187 
L 86.23327 112.742609 
L 85.784757 112.665896 
L 85.381473 112.60111 
L 84.529677 112.475601 
L 83.677881 112.362059 
L 82.826085 112.26069 
L 81.974289 112.171662 
L 81.122493 112.095116 
L 80.270696 112.031165 
L 79.4189 111.979901 
L 78.567104 111.941395 
L 77.715308 111.915702 
L 76.863512 111.902856 
L 76.011715 111.902879 
L 75.159919 111.915773 
L 74.308123 111.941526 
L 73.456327 111.980105 
L 72.604531 112.03146 
L 71.752734 112.095514 
L 70.900938 112.172166 
L 70.049142 112.261279 
L 69.197346 112.362677 
L 68.34555 112.476132 
L 67.493754 112.601355 
L 67.085362 112.665896 
L 66.641957 112.742959 
L 65.790161 112.901206 
L 64.938365 113.071334 
L 64.086569 113.252777 
L 63.234773 113.444786 
L 62.47305 113.624166 
L 62.382976 113.648399 
L 61.53118 113.878628 
L 60.679384 114.118618 
L 59.827588 114.366565 
L 59.094124 114.582437 
L 58.975792 114.624892 
L 58.123995 114.917794 
L 57.272199 115.214906 
L 56.420403 115.509861 
L 56.314966 115.540708 
L 55.568607 115.859247 
L 54.716811 116.208912 
L 53.914828 116.498979 
L 53.865015 116.541881 
L 53.013218 117.135458 
L 52.509051 117.457249 
L 53.013218 117.786987 
L 53.165905 118.41552 
L 53.609997 119.373791 
L 53.865015 119.813455 
L 54.059174 120.332061 
L 54.500074 121.290332 
L 54.716811 121.703579 
L 54.941265 122.248603 
L 55.381853 123.206873 
L 55.568607 123.577591 
L 55.821038 124.165144 
L 56.261338 125.123415 
L 56.420403 125.446467 
L 56.69996 126.081686 
L 57.13984 127.039956 
L 57.272199 127.313041 
L 57.578491 127.998227 
L 58.017802 128.956498 
L 58.123995 129.178357 
L 58.456826 129.914768 
L 58.895411 130.873039 
L 58.975792 131.04286 
L 59.335067 131.83131 
L 59.772746 132.789581 
L 59.827588 132.906737 
L 60.213281 133.747851 
L 60.649833 134.706122 
L 60.679384 134.770014 
L 61.091527 135.664393 
L 61.526663 136.622663 
L 61.53118 136.63257 
L 61.969866 137.580934 
L 62.382976 138.493573 
L 62.404236 138.539205 
L 62.848388 139.497476 
L 63.234773 140.355612 
L 63.282317 140.455746 
L 63.727244 141.414017 
L 64.086569 142.219447 
L 64.16089 142.372288 
L 64.606748 143.330558 
L 64.938365 144.086221 
L 65.040366 144.288829 
L 65.487687 145.2471 
L 65.790161 145.959287 
L 65.922037 146.205371 
L 66.372845 147.163641 
L 66.641957 147.852813 
L 66.812947 148.121912 
L 67.284545 149.080183 
L 67.493754 149.992124 
L 68.34555 149.815885 
L 69.197346 149.44167 
L 70.049142 149.116038 
L 70.1388 149.080183 
L 70.900938 148.867272 
L 71.752734 148.651799 
L 72.604531 148.472836 
L 73.456327 148.33186 
L 74.308123 148.228001 
L 75.159919 148.15983 
L 76.011715 148.126107 
L 76.863512 148.126102 
L 77.715308 148.159703 
L 78.567104 148.227408 
L 79.4189 148.330234 
L 80.270696 148.469494 
L 81.122493 148.646409 
L 81.974289 148.861408 
L 82.723809 149.080183 
L 82.826085 149.11362 
L 83.677881 149.410818 
L 84.529677 149.747763 
L 85.241231 150.038453 
L 85.381473 150.121785 
L 86.23327 150.583505 
L 87.073694 150.996724 
z
M 87.073694 150.996724 
L 86.23327 150.583505 
L 85.381473 150.121785 
L 85.241231 150.038453 
L 84.529677 149.747763 
L 83.677881 149.410818 
L 82.826085 149.11362 
L 82.723809 149.080183 
L 81.974289 148.861408 
L 81.122493 148.646409 
L 80.270696 148.469494 
L 79.4189 148.330234 
L 78.567104 148.227408 
L 77.715308 148.159703 
L 76.863512 148.126102 
L 76.011715 148.126107 
L 75.159919 148.15983 
L 74.308123 148.228001 
L 73.456327 148.33186 
L 72.604531 148.472836 
L 71.752734 148.651799 
L 70.900938 148.867272 
L 70.1388 149.080183 
L 70.049142 149.116038 
L 69.197346 149.44167 
L 68.34555 149.815885 
L 67.493754 149.992124 
L 67.284545 149.080183 
L 66.812947 148.121912 
L 66.641957 147.852813 
L 66.372845 147.163641 
L 65.922037 146.205371 
L 65.790161 145.959287 
L 65.487687 145.2471 
L 65.040366 144.288829 
L 64.938365 144.086221 
L 64.606748 143.330558 
L 64.16089 142.372288 
L 64.086569 142.219447 
L 63.727244 141.414017 
L 63.282317 140.455746 
L 63.234773 140.355612 
L 62.848388 139.497476 
L 62.404236 138.539205 
L 62.382976 138.493573 
L 61.969866 137.580934 
L 61.53118 136.63257 
L 61.526663 136.622663 
L 61.091527 135.664393 
L 60.679384 134.770014 
L 60.649833 134.706122 
L 60.213281 133.747851 
L 59.827588 132.906737 
L 59.772746 132.789581 
L 59.335067 131.83131 
L 58.975792 131.04286 
L 58.895411 130.873039 
L 58.456826 129.914768 
L 58.123995 129.178357 
L 58.017802 128.956498 
L 57.578491 127.998227 
L 57.272199 127.313041 
L 57.13984 127.039956 
L 56.69996 126.081686 
L 56.420403 125.446467 
L 56.261338 125.123415 
L 55.821038 124.165144 
L 55.568607 123.577591 
L 55.381853 123.206873 
L 54.941265 122.248603 
L 54.716811 121.703579 
L 54.500074 121.290332 
L 54.059174 120.332061 
L 53.865015 119.813455 
L 53.609997 119.373791 
L 53.165905 118.41552 
L 53.013218 117.786987 
L 52.509051 117.457249 
L 53.013218 117.135458 
L 53.865015 116.541881 
L 53.914828 116.498979 
L 54.716811 116.208912 
L 55.568607 115.859247 
L 56.314966 115.540708 
L 56.420403 115.509861 
L 57.272199 115.214906 
L 58.123995 114.917794 
L 58.975792 114.624892 
L 59.094124 114.582437 
L 59.827588 114.366565 
L 60.679384 114.118618 
L 61.53118 113.878628 
L 62.382976 113.648399 
L 62.47305 113.624166 
L 63.234773 113.444786 
L 64.086569 113.252777 
L 64.938365 113.071334 
L 65.790161 112.901206 
L 66.641957 112.742959 
L 67.085362 112.665896 
L 67.493754 112.601355 
L 68.34555 112.476132 
L 69.197346 112.362677 
L 70.049142 112.261279 
L 70.900938 112.172166 
L 71.752734 112.095514 
L 72.604531 112.03146 
L 73.456327 111.980105 
L 74.308123 111.941526 
L 75.159919 111.915773 
L 76.011715 111.902879 
L 76.863512 111.902856 
L 77.715308 111.915702 
L 78.567104 111.941395 
L 79.4189 111.979901 
L 80.270696 112.031165 
L 81.122493 112.095116 
L 81.974289 112.171662 
L 82.826085 112.26069 
L 83.677881 112.362059 
L 84.529677 112.475601 
L 85.381473 112.60111 
L 85.784757 112.665896 
L 86.23327 112.742609 
L 87.085066 112.900187 
L 87.936862 113.069774 
L 88.788658 113.251009 
L 89.640454 113.443461 
L 90.399184 113.624166 
L 90.492251 113.648134 
L 91.344047 113.876142 
L 92.195843 114.114818 
L 93.047639 114.363363 
L 93.774608 114.582437 
L 93.899435 114.623879 
L 94.751232 114.910998 
L 95.603028 115.206342 
L 96.454824 115.508292 
L 96.54726 115.540708 
L 97.30662 115.842256 
L 98.158416 116.184261 
L 98.940111 116.498979 
L 99.010212 116.531833 
L 99.862009 116.918181 
L 100.713805 117.302315 
L 101.07565 117.457249 
L 101.565601 117.71515 
L 102.417397 118.142568 
L 103.001888 118.41552 
L 103.269193 118.581911 
L 104.12099 119.056704 
L 104.77079 119.373791 
L 104.972786 119.531115 
L 105.824582 120.061275 
L 106.459997 120.332061 
L 106.676378 120.670703 
L 107.395656 121.290332 
L 106.676378 121.984465 
L 106.605612 122.248603 
L 105.993576 123.206873 
L 105.824582 123.394237 
L 105.378616 124.165144 
L 104.972786 124.720776 
L 104.753202 125.123415 
L 104.126358 126.081686 
L 104.12099 126.088655 
L 103.518486 127.039956 
L 103.269193 127.392959 
L 102.902397 127.998227 
L 102.417397 128.727856 
L 102.282971 128.956498 
L 101.66673 129.914768 
L 101.565601 130.060566 
L 101.05262 130.873039 
L 100.713805 131.381395 
L 100.436082 131.83131 
L 99.862009 132.719086 
L 99.819163 132.789581 
L 99.204115 133.747851 
L 99.010212 134.040118 
L 98.588115 134.706122 
L 98.158416 135.367879 
L 97.972311 135.664393 
L 97.357428 136.622663 
L 97.30662 136.700142 
L 96.740365 137.580934 
L 96.454824 138.022967 
L 96.124099 138.539205 
L 95.603028 139.353136 
L 95.510264 139.497476 
L 94.89393 140.455746 
L 94.751232 140.680457 
L 94.275545 141.414017 
L 93.899435 142.008232 
L 93.660319 142.372288 
L 93.050564 143.330558 
L 93.047639 143.335348 
L 92.427653 144.288829 
L 92.195843 144.667989 
L 91.808371 145.2471 
L 91.344047 145.995981 
L 91.196506 146.205371 
L 90.582606 147.163641 
L 90.492251 147.327705 
L 89.952002 148.121912 
L 89.640454 148.679487 
L 89.32728 149.080183 
L 88.788658 149.985731 
L 88.728752 150.038453 
L 88.043426 150.996724 
L 87.936862 151.3304 
L 87.085066 151.022284 
z
" clip-path="url(#pe6c88090b2)" style="fill: #ffffff"/>
   </g>
   <g id="PathCollection_4">
    <path d="M 35.125498 158.66289 
L 35.977295 158.66289 
L 36.829091 158.66289 
L 37.680887 158.66289 
L 38.532683 158.66289 
L 39.384479 158.66289 
L 40.236276 158.66289 
L 41.088072 158.66289 
L 41.939868 158.66289 
L 42.791664 158.66289 
L 43.64346 158.66289 
L 44.495257 158.66289 
L 45.347053 158.66289 
L 46.198849 158.66289 
L 47.050645 158.66289 
L 47.902441 158.66289 
L 48.754237 158.66289 
L 49.606034 158.66289 
L 50.45783 158.66289 
L 51.309626 158.66289 
L 52.161422 158.66289 
L 53.013218 158.66289 
L 53.865015 158.66289 
L 54.716811 158.66289 
L 55.568607 158.66289 
L 56.420403 158.66289 
L 57.272199 158.66289 
L 58.123995 158.66289 
L 58.975792 158.66289 
L 59.827588 158.66289 
L 60.679384 158.66289 
L 61.53118 158.66289 
L 62.382976 158.66289 
L 63.234773 158.66289 
L 64.086569 158.66289 
L 64.938365 158.66289 
L 65.790161 158.66289 
L 66.641957 158.66289 
L 67.493754 158.66289 
L 68.34555 158.66289 
L 69.197346 158.66289 
L 70.049142 158.66289 
L 70.900938 158.66289 
L 71.752734 158.66289 
L 72.604531 158.66289 
L 73.456327 158.66289 
L 74.308123 158.66289 
L 75.159919 158.66289 
L 76.011715 158.66289 
L 76.863512 158.66289 
L 77.715308 158.66289 
L 78.567104 158.66289 
L 79.4189 158.66289 
L 80.270696 158.66289 
L 81.122493 158.66289 
L 81.974289 158.66289 
L 82.826085 158.66289 
L 83.677881 158.66289 
L 84.529677 158.66289 
L 85.381473 158.66289 
L 86.23327 158.66289 
L 87.085066 158.66289 
L 87.936862 158.66289 
L 88.788658 158.66289 
L 89.640454 158.66289 
L 90.492251 158.66289 
L 91.344047 158.66289 
L 92.195843 158.66289 
L 93.047639 158.66289 
L 93.899435 158.66289 
L 94.751232 158.66289 
L 95.603028 158.66289 
L 96.454824 158.66289 
L 97.30662 158.66289 
L 98.158416 158.66289 
L 99.010212 158.66289 
L 99.862009 158.66289 
L 100.713805 158.66289 
L 101.565601 158.66289 
L 102.417397 158.66289 
L 103.269193 158.66289 
L 104.12099 158.66289 
L 104.972786 158.66289 
L 105.824582 158.66289 
L 106.676378 158.66289 
L 107.528174 158.66289 
L 108.379971 158.66289 
L 109.231767 158.66289 
L 110.083563 158.66289 
L 110.935359 158.66289 
L 111.787155 158.66289 
L 112.638951 158.66289 
L 113.490748 158.66289 
L 114.342544 158.66289 
L 115.19434 158.66289 
L 116.046136 158.66289 
L 116.897932 158.66289 
L 117.749729 158.66289 
L 118.601525 158.66289 
L 118.601525 157.704619 
L 118.601525 156.746348 
L 118.601525 155.788078 
L 118.601525 154.829807 
L 118.601525 153.871536 
L 118.601525 152.913266 
L 118.601525 151.954995 
L 118.601525 150.996724 
L 118.601525 150.038453 
L 118.601525 149.080183 
L 118.601525 148.121912 
L 118.601525 147.163641 
L 118.601525 146.205371 
L 118.601525 145.2471 
L 118.601525 144.288829 
L 118.601525 143.330558 
L 118.601525 142.372288 
L 118.601525 141.414017 
L 118.601525 140.455746 
L 118.601525 139.497476 
L 118.601525 138.539205 
L 118.601525 137.580934 
L 118.601525 136.622663 
L 118.601525 135.664393 
L 118.601525 134.706122 
L 118.601525 133.747851 
L 118.601525 132.789581 
L 118.601525 131.83131 
L 118.601525 130.873039 
L 118.601525 129.914768 
L 118.601525 128.956498 
L 118.601525 127.998227 
L 118.601525 127.039956 
L 118.601525 126.081686 
L 118.601525 125.123415 
L 118.601525 124.165144 
L 118.601525 123.206873 
L 118.601525 122.248603 
L 118.601525 121.290332 
L 118.601525 120.332061 
L 118.601525 119.373791 
L 118.601525 118.41552 
L 118.601525 117.457249 
L 118.601525 116.498979 
L 118.601525 115.540708 
L 118.601525 114.582437 
L 118.601525 113.624166 
L 118.601525 112.665896 
L 118.601525 111.707625 
L 118.601525 110.749354 
L 118.601525 109.791084 
L 118.601525 108.832813 
L 118.601525 107.874542 
L 118.601525 106.916271 
L 118.601525 105.958001 
L 118.601525 104.99973 
L 118.601525 104.041459 
L 118.601525 103.083189 
L 118.601525 102.124918 
L 118.601525 101.166647 
L 118.601525 100.208376 
L 118.601525 99.250106 
L 118.601525 98.291835 
L 118.601525 97.333564 
L 118.601525 96.375294 
L 118.601525 95.417023 
L 118.601525 94.458752 
L 118.601525 93.500481 
L 118.601525 92.542211 
L 118.601525 91.58394 
L 118.601525 90.625669 
L 118.601525 89.667399 
L 118.601525 88.709128 
L 118.601525 87.750857 
L 118.601525 86.792587 
L 118.601525 85.834316 
L 118.601525 84.876045 
L 118.601525 83.917774 
L 118.601525 82.959504 
L 118.601525 82.001233 
L 118.601525 81.042962 
L 118.601525 80.084692 
L 118.601525 79.126421 
L 118.601525 78.16815 
L 118.601525 77.209879 
L 118.601525 76.251609 
L 118.601525 75.293338 
L 118.601525 74.335067 
L 118.601525 73.376797 
L 118.601525 72.418526 
L 118.601525 71.460255 
L 118.601525 70.501984 
L 118.601525 69.543714 
L 118.601525 68.585443 
L 118.601525 67.627172 
L 118.601525 66.668902 
L 118.601525 65.710631 
L 118.601525 64.75236 
L 118.601525 63.794089 
L 117.749729 63.794089 
L 116.897932 63.794089 
L 116.046136 63.794089 
L 115.19434 63.794089 
L 114.342544 63.794089 
L 113.490748 63.794089 
L 112.638951 63.794089 
L 111.787155 63.794089 
L 110.935359 63.794089 
L 110.083563 63.794089 
L 109.231767 63.794089 
L 108.379971 63.794089 
L 107.528174 63.794089 
L 106.676378 63.794089 
L 105.824582 63.794089 
L 104.972786 63.794089 
L 104.12099 63.794089 
L 103.269193 63.794089 
L 102.417397 63.794089 
L 101.565601 63.794089 
L 100.713805 63.794089 
L 99.862009 63.794089 
L 99.010212 63.794089 
L 98.158416 63.794089 
L 97.30662 63.794089 
L 96.454824 63.794089 
L 95.603028 63.794089 
L 94.751232 63.794089 
L 93.899435 63.794089 
L 93.047639 63.794089 
L 92.195843 63.794089 
L 91.344047 63.794089 
L 90.492251 63.794089 
L 89.640454 63.794089 
L 88.788658 63.794089 
L 87.936862 63.794089 
L 87.085066 63.794089 
L 86.23327 63.794089 
L 85.381473 63.794089 
L 84.529677 63.794089 
L 83.677881 63.794089 
L 82.826085 63.794089 
L 81.974289 63.794089 
L 81.122493 63.794089 
L 80.270696 63.794089 
L 79.4189 63.794089 
L 78.567104 63.794089 
L 77.715308 63.794089 
L 76.863512 63.794089 
L 76.011715 63.794089 
L 75.159919 63.794089 
L 74.308123 63.794089 
L 73.456327 63.794089 
L 72.604531 63.794089 
L 71.752734 63.794089 
L 70.900938 63.794089 
L 70.049142 63.794089 
L 69.197346 63.794089 
L 68.34555 63.794089 
L 67.493754 63.794089 
L 66.641957 63.794089 
L 65.790161 63.794089 
L 64.938365 63.794089 
L 64.086569 63.794089 
L 63.234773 63.794089 
L 62.382976 63.794089 
L 61.53118 63.794089 
L 60.679384 63.794089 
L 59.827588 63.794089 
L 58.975792 63.794089 
L 58.123995 63.794089 
L 57.272199 63.794089 
L 56.420403 63.794089 
L 55.568607 63.794089 
L 54.716811 63.794089 
L 53.865015 63.794089 
L 53.013218 63.794089 
L 52.161422 63.794089 
L 51.309626 63.794089 
L 50.45783 63.794089 
L 49.606034 63.794089 
L 48.754237 63.794089 
L 47.902441 63.794089 
L 47.050645 63.794089 
L 46.198849 63.794089 
L 45.347053 63.794089 
L 44.495257 63.794089 
L 43.64346 63.794089 
L 42.791664 63.794089 
L 41.939868 63.794089 
L 41.088072 63.794089 
L 40.236276 63.794089 
L 39.384479 63.794089 
L 38.532683 63.794089 
L 37.680887 63.794089 
L 36.829091 63.794089 
L 35.977295 63.794089 
L 35.125498 63.794089 
L 34.273702 63.794089 
L 34.273702 64.75236 
L 34.273702 65.710631 
L 34.273702 66.668902 
L 34.273702 67.627172 
L 34.273702 68.585443 
L 34.273702 69.543714 
L 34.273702 70.501984 
L 34.273702 71.460255 
L 34.273702 72.418526 
L 34.273702 73.376797 
L 34.273702 74.335067 
L 34.273702 75.293338 
L 34.273702 76.251609 
L 34.273702 77.209879 
L 34.273702 78.16815 
L 34.273702 79.126421 
L 34.273702 80.084692 
L 34.273702 81.042962 
L 34.273702 82.001233 
L 34.273702 82.959504 
L 34.273702 83.917774 
L 34.273702 84.876045 
L 34.273702 85.834316 
L 34.273702 86.792587 
L 34.273702 87.750857 
L 34.273702 88.709128 
L 34.273702 89.667399 
L 34.273702 90.625669 
L 34.273702 91.58394 
L 34.273702 92.542211 
L 34.273702 93.500481 
L 34.273702 94.458752 
L 34.273702 95.417023 
L 34.273702 96.375294 
L 34.273702 97.333564 
L 34.273702 98.291835 
L 34.273702 99.250106 
L 34.273702 100.208376 
L 34.273702 101.166647 
L 34.273702 102.124918 
L 34.273702 103.083189 
L 34.273702 104.041459 
L 34.273702 104.99973 
L 34.273702 105.958001 
L 34.273702 106.916271 
L 34.273702 107.874542 
L 34.273702 108.832813 
L 34.273702 109.791084 
L 34.273702 110.749354 
L 34.273702 111.707625 
L 34.273702 112.665896 
L 34.273702 113.624166 
L 34.273702 114.582437 
L 34.273702 115.540708 
L 34.273702 116.498979 
L 34.273702 117.457249 
L 34.273702 118.41552 
L 34.273702 119.373791 
L 34.273702 120.332061 
L 34.273702 121.290332 
L 34.273702 122.248603 
L 34.273702 123.206873 
L 34.273702 124.165144 
L 34.273702 125.123415 
L 34.273702 126.081686 
L 34.273702 127.039956 
L 34.273702 127.998227 
L 34.273702 128.956498 
L 34.273702 129.914768 
L 34.273702 130.873039 
L 34.273702 131.83131 
L 34.273702 132.789581 
L 34.273702 133.747851 
L 34.273702 134.706122 
L 34.273702 135.664393 
L 34.273702 136.622663 
L 34.273702 137.580934 
L 34.273702 138.539205 
L 34.273702 139.497476 
L 34.273702 140.455746 
L 34.273702 141.414017 
L 34.273702 142.372288 
L 34.273702 143.330558 
L 34.273702 144.288829 
L 34.273702 145.2471 
L 34.273702 146.205371 
L 34.273702 147.163641 
L 34.273702 148.121912 
L 34.273702 149.080183 
L 34.273702 150.038453 
L 34.273702 150.996724 
L 34.273702 151.954995 
L 34.273702 152.913266 
L 34.273702 153.871536 
L 34.273702 154.829807 
L 34.273702 155.788078 
L 34.273702 156.746348 
L 34.273702 157.704619 
L 34.273702 158.66289 
L 35.125498 158.66289 
z
M 87.073694 150.996724 
L 86.23327 150.583505 
L 85.381473 150.121785 
L 85.241231 150.038453 
L 84.529677 149.747763 
L 83.677881 149.410818 
L 82.826085 149.11362 
L 82.723809 149.080183 
L 81.974289 148.861408 
L 81.122493 148.646409 
L 80.270696 148.469494 
L 79.4189 148.330234 
L 78.567104 148.227408 
L 77.715308 148.159703 
L 76.863512 148.126102 
L 76.011715 148.126107 
L 75.159919 148.15983 
L 74.308123 148.228001 
L 73.456327 148.33186 
L 72.604531 148.472836 
L 71.752734 148.651799 
L 70.900938 148.867272 
L 70.1388 149.080183 
L 70.049142 149.116038 
L 69.197346 149.44167 
L 68.34555 149.815885 
L 67.493754 149.992124 
L 67.284545 149.080183 
L 66.812947 148.121912 
L 66.641957 147.852813 
L 66.372845 147.163641 
L 65.922037 146.205371 
L 65.790161 145.959287 
L 65.487687 145.2471 
L 65.040366 144.288829 
L 64.938365 144.086221 
L 64.606748 143.330558 
L 64.16089 142.372288 
L 64.086569 142.219447 
L 63.727244 141.414017 
L 63.282317 140.455746 
L 63.234773 140.355612 
L 62.848388 139.497476 
L 62.404236 138.539205 
L 62.382976 138.493573 
L 61.969866 137.580934 
L 61.53118 136.63257 
L 61.526663 136.622663 
L 61.091527 135.664393 
L 60.679384 134.770014 
L 60.649833 134.706122 
L 60.213281 133.747851 
L 59.827588 132.906737 
L 59.772746 132.789581 
L 59.335067 131.83131 
L 58.975792 131.04286 
L 58.895411 130.873039 
L 58.456826 129.914768 
L 58.123995 129.178357 
L 58.017802 128.956498 
L 57.578491 127.998227 
L 57.272199 127.313041 
L 57.13984 127.039956 
L 56.69996 126.081686 
L 56.420403 125.446467 
L 56.261338 125.123415 
L 55.821038 124.165144 
L 55.568607 123.577591 
L 55.381853 123.206873 
L 54.941265 122.248603 
L 54.716811 121.703579 
L 54.500074 121.290332 
L 54.059174 120.332061 
L 53.865015 119.813455 
L 53.609997 119.373791 
L 53.165905 118.41552 
L 53.013218 117.786987 
L 52.509051 117.457249 
L 53.013218 117.135458 
L 53.865015 116.541881 
L 53.914828 116.498979 
L 54.716811 116.208912 
L 55.568607 115.859247 
L 56.314966 115.540708 
L 56.420403 115.509861 
L 57.272199 115.214906 
L 58.123995 114.917794 
L 58.975792 114.624892 
L 59.094124 114.582437 
L 59.827588 114.366565 
L 60.679384 114.118618 
L 61.53118 113.878628 
L 62.382976 113.648399 
L 62.47305 113.624166 
L 63.234773 113.444786 
L 64.086569 113.252777 
L 64.938365 113.071334 
L 65.790161 112.901206 
L 66.641957 112.742959 
L 67.085362 112.665896 
L 67.493754 112.601355 
L 68.34555 112.476132 
L 69.197346 112.362677 
L 70.049142 112.261279 
L 70.900938 112.172166 
L 71.752734 112.095514 
L 72.604531 112.03146 
L 73.456327 111.980105 
L 74.308123 111.941526 
L 75.159919 111.915773 
L 76.011715 111.902879 
L 76.863512 111.902856 
L 77.715308 111.915702 
L 78.567104 111.941395 
L 79.4189 111.979901 
L 80.270696 112.031165 
L 81.122493 112.095116 
L 81.974289 112.171662 
L 82.826085 112.26069 
L 83.677881 112.362059 
L 84.529677 112.475601 
L 85.381473 112.60111 
L 85.784757 112.665896 
L 86.23327 112.742609 
L 87.085066 112.900187 
L 87.936862 113.069774 
L 88.788658 113.251009 
L 89.640454 113.443461 
L 90.399184 113.624166 
L 90.492251 113.648134 
L 91.344047 113.876142 
L 92.195843 114.114818 
L 93.047639 114.363363 
L 93.774608 114.582437 
L 93.899435 114.623879 
L 94.751232 114.910998 
L 95.603028 115.206342 
L 96.454824 115.508292 
L 96.54726 115.540708 
L 97.30662 115.842256 
L 98.158416 116.184261 
L 98.940111 116.498979 
L 99.010212 116.531833 
L 99.862009 116.918181 
L 100.713805 117.302315 
L 101.07565 117.457249 
L 101.565601 117.71515 
L 102.417397 118.142568 
L 103.001888 118.41552 
L 103.269193 118.581911 
L 104.12099 119.056704 
L 104.77079 119.373791 
L 104.972786 119.531115 
L 105.824582 120.061275 
L 106.459997 120.332061 
L 106.676378 120.670703 
L 107.395656 121.290332 
L 106.676378 121.984465 
L 106.605612 122.248603 
L 105.993576 123.206873 
L 105.824582 123.394237 
L 105.378616 124.165144 
L 104.972786 124.720776 
L 104.753202 125.123415 
L 104.126358 126.081686 
L 104.12099 126.088655 
L 103.518486 127.039956 
L 103.269193 127.392959 
L 102.902397 127.998227 
L 102.417397 128.727856 
L 102.282971 128.956498 
L 101.66673 129.914768 
L 101.565601 130.060566 
L 101.05262 130.873039 
L 100.713805 131.381395 
L 100.436082 131.83131 
L 99.862009 132.719086 
L 99.819163 132.789581 
L 99.204115 133.747851 
L 99.010212 134.040118 
L 98.588115 134.706122 
L 98.158416 135.367879 
L 97.972311 135.664393 
L 97.357428 136.622663 
L 97.30662 136.700142 
L 96.740365 137.580934 
L 96.454824 138.022967 
L 96.124099 138.539205 
L 95.603028 139.353136 
L 95.510264 139.497476 
L 94.89393 140.455746 
L 94.751232 140.680457 
L 94.275545 141.414017 
L 93.899435 142.008232 
L 93.660319 142.372288 
L 93.050564 143.330558 
L 93.047639 143.335348 
L 92.427653 144.288829 
L 92.195843 144.667989 
L 91.808371 145.2471 
L 91.344047 145.995981 
L 91.196506 146.205371 
L 90.582606 147.163641 
L 90.492251 147.327705 
L 89.952002 148.121912 
L 89.640454 148.679487 
L 89.32728 149.080183 
L 88.788658 149.985731 
L 88.728752 150.038453 
L 88.043426 150.996724 
L 87.936862 151.3304 
L 87.085066 151.022284 
L 87.073694 150.996724 
z
" clip-path="url(#pe6c88090b2)" style="fill: none"/>
   </g>
   <g id="matplotlib.axis_1">
    <g id="xtick_1">
     <g id="line2d_1">
      <defs>
       <path id="m0b9f5bfb92" d="M 0 0 
L 0 3.5 
" style="stroke: #000000; stroke-width: 0.8"/>
      </defs>
      <g>
       <use xlink:href="#m0b9f5bfb92" x="34.273702" y="169.203868" style="stroke: #000000; stroke-width: 0.8"/>
      </g>
     </g>
     <g id="text_1">
      <!-- −2 -->
      <g transform="translate(26.902609 183.802305) scale(0.1 -0.1)">
       <defs>
        <path id="DejaVuSans-2212" d="M 678 2272 
L 4684 2272 
L 4684 1741 
L 678 1741 
L 678 2272 
z
" transform="scale(0.015625)"/>
        <path id="DejaVuSans-32" d="M 1228 531 
L 3431 531 
L 3431 0 
L 469 0 
L 469 531 
Q 828 903 1448 1529 
Q 2069 2156 2228 2338 
Q 2531 2678 2651 2914 
Q 2772 3150 2772 3378 
Q 2772 3750 2511 3984 
Q 2250 4219 1831 4219 
Q 1534 4219 1204 4116 
Q 875 4013 500 3803 
L 500 4441 
Q 881 4594 1212 4672 
Q 1544 4750 1819 4750 
Q 2544 4750 2975 4387 
Q 3406 4025 3406 3419 
Q 3406 3131 3298 2873 
Q 3191 2616 2906 2266 
Q 2828 2175 2409 1742 
Q 1991 1309 1228 531 
z
" transform="scale(0.015625)"/>
       </defs>
       <use xlink:href="#DejaVuSans-2212"/>
       <use xlink:href="#DejaVuSans-32" x="83.789062"/>
      </g>
     </g>
    </g>
    <g id="xtick_2">
     <g id="line2d_2">
      <g>
       <use xlink:href="#m0b9f5bfb92" x="76.437614" y="169.203868" style="stroke: #000000; stroke-width: 0.8"/>
      </g>
     </g>
    </g>
    <g id="xtick_3">
     <g id="line2d_3">
      <g>
       <use xlink:href="#m0b9f5bfb92" x="118.601525" y="169.203868" style="stroke: #000000; stroke-width: 0.8"/>
      </g>
     </g>
     <g id="text_2">
      <!-- 2 -->
      <g transform="translate(115.420275 183.802305) scale(0.1 -0.1)">
       <use xlink:href="#DejaVuSans-32"/>
      </g>
     </g>
    </g>
    <g id="xtick_4">
     <g id="line2d_4">
      <g>
       <use xlink:href="#m0b9f5bfb92" x="160.765436" y="169.203868" style="stroke: #000000; stroke-width: 0.8"/>
      </g>
     </g>
     <g id="text_3">
      <!-- 4 -->
      <g transform="translate(157.584186 183.802305) scale(0.1 -0.1)">
       <defs>
        <path id="DejaVuSans-34" d="M 2419 4116 
L 825 1625 
L 2419 1625 
L 2419 4116 
z
M 2253 4666 
L 3047 4666 
L 3047 1625 
L 3713 1625 
L 3713 1100 
L 3047 1100 
L 3047 0 
L 2419 0 
L 2419 1100 
L 313 1100 
L 313 1709 
L 2253 4666 
z
" transform="scale(0.015625)"/>
       </defs>
       <use xlink:href="#DejaVuSans-34"/>
      </g>
     </g>
    </g>
    <g id="xtick_5">
     <g id="line2d_5">
      <g>
       <use xlink:href="#m0b9f5bfb92" x="202.929347" y="169.203868" style="stroke: #000000; stroke-width: 0.8"/>
      </g>
     </g>
     <g id="text_4">
      <!-- 6 -->
      <g transform="translate(199.748097 183.802305) scale(0.1 -0.1)">
       <defs>
        <path id="DejaVuSans-36" d="M 2113 2584 
Q 1688 2584 1439 2293 
Q 1191 2003 1191 1497 
Q 1191 994 1439 701 
Q 1688 409 2113 409 
Q 2538 409 2786 701 
Q 3034 994 3034 1497 
Q 3034 2003 2786 2293 
Q 2538 2584 2113 2584 
z
M 3366 4563 
L 3366 3988 
Q 3128 4100 2886 4159 
Q 2644 4219 2406 4219 
Q 1781 4219 1451 3797 
Q 1122 3375 1075 2522 
Q 1259 2794 1537 2939 
Q 1816 3084 2150 3084 
Q 2853 3084 3261 2657 
Q 3669 2231 3669 1497 
Q 3669 778 3244 343 
Q 2819 -91 2113 -91 
Q 1303 -91 875 529 
Q 447 1150 447 2328 
Q 447 3434 972 4092 
Q 1497 4750 2381 4750 
Q 2619 4750 2861 4703 
Q 3103 4656 3366 4563 
z
" transform="scale(0.015625)"/>
       </defs>
       <use xlink:href="#DejaVuSans-36"/>
      </g>
     </g>
    </g>
    <g id="xtick_6">
     <g id="line2d_6">
      <defs>
       <path id="mb3cf49fa66" d="M 0 0 
L 0 2 
" style="stroke: #000000; stroke-width: 0.6"/>
      </defs>
      <g>
       <use xlink:href="#mb3cf49fa66" x="13.191747" y="169.203868" style="stroke: #000000; stroke-width: 0.6"/>
      </g>
     </g>
    </g>
    <g id="xtick_7">
     <g id="line2d_7">
      <g>
       <use xlink:href="#mb3cf49fa66" x="23.732724" y="169.203868" style="stroke: #000000; stroke-width: 0.6"/>
      </g>
     </g>
    </g>
    <g id="xtick_8">
     <g id="line2d_8">
      <g>
       <use xlink:href="#mb3cf49fa66" x="44.81468" y="169.203868" style="stroke: #000000; stroke-width: 0.6"/>
      </g>
     </g>
    </g>
    <g id="xtick_9">
     <g id="line2d_9">
      <g>
       <use xlink:href="#mb3cf49fa66" x="55.355658" y="169.203868" style="stroke: #000000; stroke-width: 0.6"/>
      </g>
     </g>
    </g>
    <g id="xtick_10">
     <g id="line2d_10">
      <g>
       <use xlink:href="#mb3cf49fa66" x="65.896636" y="169.203868" style="stroke: #000000; stroke-width: 0.6"/>
      </g>
     </g>
    </g>
    <g id="xtick_11">
     <g id="line2d_11">
      <g>
       <use xlink:href="#mb3cf49fa66" x="86.978591" y="169.203868" style="stroke: #000000; stroke-width: 0.6"/>
      </g>
     </g>
    </g>
    <g id="xtick_12">
     <g id="line2d_12">
      <g>
       <use xlink:href="#mb3cf49fa66" x="97.519569" y="169.203868" style="stroke: #000000; stroke-width: 0.6"/>
      </g>
     </g>
    </g>
    <g id="xtick_13">
     <g id="line2d_13">
      <g>
       <use xlink:href="#mb3cf49fa66" x="108.060547" y="169.203868" style="stroke: #000000; stroke-width: 0.6"/>
      </g>
     </g>
    </g>
    <g id="xtick_14">
     <g id="line2d_14">
      <g>
       <use xlink:href="#mb3cf49fa66" x="129.142503" y="169.203868" style="stroke: #000000; stroke-width: 0.6"/>
      </g>
     </g>
    </g>
    <g id="xtick_15">
     <g id="line2d_15">
      <g>
       <use xlink:href="#mb3cf49fa66" x="139.68348" y="169.203868" style="stroke: #000000; stroke-width: 0.6"/>
      </g>
     </g>
    </g>
    <g id="xtick_16">
     <g id="line2d_16">
      <g>
       <use xlink:href="#mb3cf49fa66" x="150.224458" y="169.203868" style="stroke: #000000; stroke-width: 0.6"/>
      </g>
     </g>
    </g>
    <g id="xtick_17">
     <g id="line2d_17">
      <g>
       <use xlink:href="#mb3cf49fa66" x="171.306414" y="169.203868" style="stroke: #000000; stroke-width: 0.6"/>
      </g>
     </g>
    </g>
    <g id="xtick_18">
     <g id="line2d_18">
      <g>
       <use xlink:href="#mb3cf49fa66" x="181.847392" y="169.203868" style="stroke: #000000; stroke-width: 0.6"/>
      </g>
     </g>
    </g>
    <g id="xtick_19">
     <g id="line2d_19">
      <g>
       <use xlink:href="#mb3cf49fa66" x="192.388369" y="169.203868" style="stroke: #000000; stroke-width: 0.6"/>
      </g>
     </g>
    </g>
    <g id="xtick_20">
     <g id="line2d_20">
      <g>
       <use xlink:href="#mb3cf49fa66" x="213.470325" y="169.203868" style="stroke: #000000; stroke-width: 0.6"/>
      </g>
     </g>
    </g>
    <g id="xtick_21">
     <g id="line2d_21">
      <g>
       <use xlink:href="#mb3cf49fa66" x="224.011303" y="169.203868" style="stroke: #000000; stroke-width: 0.6"/>
      </g>
     </g>
    </g>
    <g id="xtick_22">
     <g id="line2d_22">
      <g>
       <use xlink:href="#mb3cf49fa66" x="234.552281" y="169.203868" style="stroke: #000000; stroke-width: 0.6"/>
      </g>
     </g>
    </g>
   </g>
   <g id="matplotlib.axis_2">
    <g id="ytick_1">
     <g id="line2d_23">
      <defs>
       <path id="m4fbf92d20f" d="M 0 0 
L -3.5 0 
" style="stroke: #000000; stroke-width: 0.8"/>
      </defs>
      <g>
       <use xlink:href="#m4fbf92d20f" x="76.437614" y="295.695601" style="stroke: #000000; stroke-width: 0.8"/>
      </g>
     </g>
     <g id="text_5">
      <!-- −6 -->
      <g transform="translate(54.695426 299.49482) scale(0.1 -0.1)">
       <use xlink:href="#DejaVuSans-2212"/>
       <use xlink:href="#DejaVuSans-36" x="83.789062"/>
      </g>
     </g>
    </g>
    <g id="ytick_2">
     <g id="line2d_24">
      <g>
       <use xlink:href="#m4fbf92d20f" x="76.437614" y="253.53169" style="stroke: #000000; stroke-width: 0.8"/>
      </g>
     </g>
     <g id="text_6">
      <!-- −4 -->
      <g transform="translate(54.695426 257.330909) scale(0.1 -0.1)">
       <use xlink:href="#DejaVuSans-2212"/>
       <use xlink:href="#DejaVuSans-34" x="83.789062"/>
      </g>
     </g>
    </g>
    <g id="ytick_3">
     <g id="line2d_25">
      <g>
       <use xlink:href="#m4fbf92d20f" x="76.437614" y="211.367779" style="stroke: #000000; stroke-width: 0.8"/>
      </g>
     </g>
     <g id="text_7">
      <!-- −2 -->
      <g transform="translate(54.695426 215.166998) scale(0.1 -0.1)">
       <use xlink:href="#DejaVuSans-2212"/>
       <use xlink:href="#DejaVuSans-32" x="83.789062"/>
      </g>
     </g>
    </g>
    <g id="ytick_4">
     <g id="line2d_26">
      <g>
       <use xlink:href="#m4fbf92d20f" x="76.437614" y="169.203868" style="stroke: #000000; stroke-width: 0.8"/>
      </g>
     </g>
    </g>
    <g id="ytick_5">
     <g id="line2d_27">
      <g>
       <use xlink:href="#m4fbf92d20f" x="76.437614" y="127.039956" style="stroke: #000000; stroke-width: 0.8"/>
      </g>
     </g>
     <g id="text_8">
      <!-- 2 -->
      <g transform="translate(63.075114 130.839175) scale(0.1 -0.1)">
       <use xlink:href="#DejaVuSans-32"/>
      </g>
     </g>
    </g>
    <g id="ytick_6">
     <g id="line2d_28">
      <g>
       <use xlink:href="#m4fbf92d20f" x="76.437614" y="84.876045" style="stroke: #000000; stroke-width: 0.8"/>
      </g>
     </g>
     <g id="text_9">
      <!-- 4 -->
      <g transform="translate(63.075114 88.675264) scale(0.1 -0.1)">
       <use xlink:href="#DejaVuSans-34"/>
      </g>
     </g>
    </g>
    <g id="ytick_7">
     <g id="line2d_29">
      <g>
       <use xlink:href="#m4fbf92d20f" x="76.437614" y="42.712134" style="stroke: #000000; stroke-width: 0.8"/>
      </g>
     </g>
     <g id="text_10">
      <!-- 6 -->
      <g transform="translate(63.075114 46.511353) scale(0.1 -0.1)">
       <use xlink:href="#DejaVuSans-36"/>
      </g>
     </g>
    </g>
    <g id="ytick_8">
     <g id="line2d_30">
      <defs>
       <path id="ma2ba9d965c" d="M 0 0 
L -2 0 
" style="stroke: #000000; stroke-width: 0.6"/>
      </defs>
      <g>
       <use xlink:href="#ma2ba9d965c" x="76.437614" y="327.318535" style="stroke: #000000; stroke-width: 0.6"/>
      </g>
     </g>
    </g>
    <g id="ytick_9">
     <g id="line2d_31">
      <g>
       <use xlink:href="#ma2ba9d965c" x="76.437614" y="316.777557" style="stroke: #000000; stroke-width: 0.6"/>
      </g>
     </g>
    </g>
    <g id="ytick_10">
     <g id="line2d_32">
      <g>
       <use xlink:href="#ma2ba9d965c" x="76.437614" y="306.236579" style="stroke: #000000; stroke-width: 0.6"/>
      </g>
     </g>
    </g>
    <g id="ytick_11">
     <g id="line2d_33">
      <g>
       <use xlink:href="#ma2ba9d965c" x="76.437614" y="285.154623" style="stroke: #000000; stroke-width: 0.6"/>
      </g>
     </g>
    </g>
    <g id="ytick_12">
     <g id="line2d_34">
      <g>
       <use xlink:href="#ma2ba9d965c" x="76.437614" y="274.613646" style="stroke: #000000; stroke-width: 0.6"/>
      </g>
     </g>
    </g>
    <g id="ytick_13">
     <g id="line2d_35">
      <g>
       <use xlink:href="#ma2ba9d965c" x="76.437614" y="264.072668" style="stroke: #000000; stroke-width: 0.6"/>
      </g>
     </g>
    </g>
    <g id="ytick_14">
     <g id="line2d_36">
      <g>
       <use xlink:href="#ma2ba9d965c" x="76.437614" y="242.990712" style="stroke: #000000; stroke-width: 0.6"/>
      </g>
     </g>
    </g>
    <g id="ytick_15">
     <g id="line2d_37">
      <g>
       <use xlink:href="#ma2ba9d965c" x="76.437614" y="232.449734" style="stroke: #000000; stroke-width: 0.6"/>
      </g>
     </g>
    </g>
    <g id="ytick_16">
     <g id="line2d_38">
      <g>
       <use xlink:href="#ma2ba9d965c" x="76.437614" y="221.908757" style="stroke: #000000; stroke-width: 0.6"/>
      </g>
     </g>
    </g>
    <g id="ytick_17">
     <g id="line2d_39">
      <g>
       <use xlink:href="#ma2ba9d965c" x="76.437614" y="200.826801" style="stroke: #000000; stroke-width: 0.6"/>
      </g>
     </g>
    </g>
    <g id="ytick_18">
     <g id="line2d_40">
      <g>
       <use xlink:href="#ma2ba9d965c" x="76.437614" y="190.285823" style="stroke: #000000; stroke-width: 0.6"/>
      </g>
     </g>
    </g>
    <g id="ytick_19">
     <g id="line2d_41">
      <g>
       <use xlink:href="#ma2ba9d965c" x="76.437614" y="179.744845" style="stroke: #000000; stroke-width: 0.6"/>
      </g>
     </g>
    </g>
    <g id="ytick_20">
     <g id="line2d_42">
      <g>
       <use xlink:href="#ma2ba9d965c" x="76.437614" y="158.66289" style="stroke: #000000; stroke-width: 0.6"/>
      </g>
     </g>
    </g>
    <g id="ytick_21">
     <g id="line2d_43">
      <g>
       <use xlink:href="#ma2ba9d965c" x="76.437614" y="148.121912" style="stroke: #000000; stroke-width: 0.6"/>
      </g>
     </g>
    </g>
    <g id="ytick_22">
     <g id="line2d_44">
      <g>
       <use xlink:href="#ma2ba9d965c" x="76.437614" y="137.580934" style="stroke: #000000; stroke-width: 0.6"/>
      </g>
     </g>
    </g>
    <g id="ytick_23">
     <g id="line2d_45">
      <g>
       <use xlink:href="#ma2ba9d965c" x="76.437614" y="116.498979" style="stroke: #000000; stroke-width: 0.6"/>
      </g>
     </g>
    </g>
    <g id="ytick_24">
     <g id="line2d_46">
      <g>
       <use xlink:href="#ma2ba9d965c" x="76.437614" y="105.958001" style="stroke: #000000; stroke-width: 0.6"/>
      </g>
     </g>
    </g>
    <g id="ytick_25">
     <g id="line2d_47">
      <g>
       <use xlink:href="#ma2ba9d965c" x="76.437614" y="95.417023" style="stroke: #000000; stroke-width: 0.6"/>
      </g>
     </g>
    </g>
    <g id="ytick_26">
     <g id="line2d_48">
      <g>
       <use xlink:href="#ma2ba9d965c" x="76.437614" y="74.335067" style="stroke: #000000; stroke-width: 0.6"/>
      </g>
     </g>
    </g>
    <g id="ytick_27">
     <g id="line2d_49">
      <g>
       <use xlink:href="#ma2ba9d965c" x="76.437614" y="63.794089" style="stroke: #000000; stroke-width: 0.6"/>
      </g>
     </g>
    </g>
    <g id="ytick_28">
     <g id="line2d_50">
      <g>
       <use xlink:href="#ma2ba9d965c" x="76.437614" y="53.253112" style="stroke: #000000; stroke-width: 0.6"/>
      </g>
     </g>
    </g>
    <g id="ytick_29">
     <g id="line2d_51">
      <g>
       <use xlink:href="#ma2ba9d965c" x="76.437614" y="32.171156" style="stroke: #000000; stroke-width: 0.6"/>
      </g>
     </g>
    </g>
    <g id="ytick_30">
     <g id="line2d_52">
      <g>
       <use xlink:href="#ma2ba9d965c" x="76.437614" y="21.630178" style="stroke: #000000; stroke-width: 0.6"/>
      </g>
     </g>
    </g>
    <g id="ytick_31">
     <g id="line2d_53">
      <g>
       <use xlink:href="#ma2ba9d965c" x="76.437614" y="11.0892" style="stroke: #000000; stroke-width: 0.6"/>
      </g>
     </g>
    </g>
   </g>
   <g id="PathCollection_5">
    <path d="M 87.085066 151.022284 
L 87.073694 150.996724 
L 83.677881 149.410818 
L 81.974289 148.861408 
L 79.4189 148.330234 
L 76.863512 148.126102 
L 74.308123 148.228001 
L 72.604531 148.472836 
L 70.049142 149.116038 
L 67.493754 149.992124 
L 67.284545 149.080183 
L 64.938365 144.086221 
L 61.969866 137.580934 
L 53.165905 118.41552 
L 53.013218 117.786987 
L 52.509051 117.457249 
L 53.914828 116.498979 
L 60.679384 114.118618 
L 64.086569 113.252777 
L 67.493754 112.601355 
L 70.900938 112.172166 
L 74.308123 111.941526 
L 77.715308 111.915702 
L 81.122493 112.095116 
L 84.529677 112.475601 
L 87.936862 113.069774 
L 91.344047 113.876142 
L 94.751232 114.910998 
L 98.158416 116.184261 
L 101.07565 117.457249 
L 106.459997 120.332061 
L 106.676378 120.670703 
L 107.395656 121.290332 
L 106.676378 121.984465 
L 106.605612 122.248603 
L 89.640454 148.679487 
L 89.32728 149.080183 
L 88.728752 150.038453 
L 87.936862 151.3304 
L 87.085066 151.022284 
L 87.085066 151.022284 
" clip-path="url(#pe6c88090b2)" style="fill: none; stroke: #add8e6; stroke-width: 1.5"/>
   </g>
   <g id="PathCollection_6">
    <path d="M 87.085066 151.022284 
L 87.073694 150.996724 
L 83.677881 149.410818 
L 81.974289 148.861408 
L 79.4189 148.330234 
L 76.863512 148.126102 
L 74.308123 148.228001 
L 72.604531 148.472836 
L 70.049142 149.116038 
L 67.493754 149.992124 
L 67.284545 149.080183 
L 64.938365 144.086221 
L 61.969866 137.580934 
L 53.165905 118.41552 
L 53.013218 117.786987 
L 52.509051 117.457249 
L 53.914828 116.498979 
L 60.679384 114.118618 
L 64.086569 113.252777 
L 67.493754 112.601355 
L 70.900938 112.172166 
L 74.308123 111.941526 
L 77.715308 111.915702 
L 81.122493 112.095116 
L 84.529677 112.475601 
L 87.936862 113.069774 
L 91.344047 113.876142 
L 94.751232 114.910998 
L 98.158416 116.184261 
L 101.07565 117.457249 
L 106.459997 120.332061 
L 106.676378 120.670703 
L 107.395656 121.290332 
L 106.676378 121.984465 
L 106.605612 122.248603 
L 89.640454 148.679487 
L 89.32728 149.080183 
L 88.728752 150.038453 
L 87.936862 151.3304 
L 87.085066 151.022284 
L 87.085066 151.022284 
" clip-path="url(#pe6c88090b2)" style="fill: none; stroke: #ffffff; stroke-width: 1.5"/>
   </g>
   <g id="PathCollection_7">
    <path d="M 87.085066 151.022284 
L 87.073694 150.996724 
L 83.677881 149.410818 
L 81.974289 148.861408 
L 79.4189 148.330234 
L 76.863512 148.126102 
L 74.308123 148.228001 
L 72.604531 148.472836 
L 70.049142 149.116038 
L 67.493754 149.992124 
L 67.284545 149.080183 
L 64.938365 144.086221 
L 61.969866 137.580934 
L 53.165905 118.41552 
L 53.013218 117.786987 
L 52.509051 117.457249 
L 53.914828 116.498979 
L 60.679384 114.118618 
L 64.086569 113.252777 
L 67.493754 112.601355 
L 70.900938 112.172166 
L 74.308123 111.941526 
L 77.715308 111.915702 
L 81.122493 112.095116 
L 84.529677 112.475601 
L 87.936862 113.069774 
L 91.344047 113.876142 
L 94.751232 114.910998 
L 98.158416 116.184261 
L 101.07565 117.457249 
L 106.459997 120.332061 
L 106.676378 120.670703 
L 107.395656 121.290332 
L 106.676378 121.984465 
L 106.605612 122.248603 
L 89.640454 148.679487 
L 89.32728 149.080183 
L 88.728752 150.038453 
L 87.936862 151.3304 
L 87.085066 151.022284 
L 87.085066 151.022284 
" clip-path="url(#pe6c88090b2)" style="fill: none; stroke: #ffffff; stroke-width: 1.5"/>
   </g>
   <g id="line2d_54">
    <path d="M 75.250291 171.798214 
L 76.001989 172.023548 
L 76.778525 172.03656 
L 77.575806 171.82014 
L 78.211621 171.438429 
L 78.772549 170.843514 
L 79.129092 170.150603 
L 79.28556 169.37581 
L 79.2164 168.556788 
L 78.928463 167.812454 
L 78.432466 167.164033 
L 77.826037 166.71135 
L 77.122183 166.434079 
L 76.323064 166.353036 
L 75.530793 166.49868 
L 75.250291 166.609522 
L 75.250291 166.609522 
" clip-path="url(#pe6c88090b2)" style="fill: none; stroke: #0000ff; stroke-width: 1.5; stroke-linecap: square"/>
   </g>
   <g id="line2d_55">
    <path d="M 73.210138 176.256031 
L 74.332753 176.668395 
L 75.598553 176.913964 
L 76.833059 176.949398 
L 78.159033 176.766032 
L 79.38267 176.378563 
L 80.47741 175.824265 
L 81.51091 175.06998 
L 82.459424 174.091342 
L 83.204966 172.992344 
L 83.747681 171.794722 
L 84.067647 170.593902 
L 84.193219 169.190102 
L 84.084544 167.910012 
L 83.74752 166.612559 
L 83.230954 165.462193 
L 82.493618 164.358827 
L 81.554011 163.375309 
L 80.41474 162.545634 
L 79.205783 161.959087 
L 77.977783 161.602717 
L 76.645658 161.45104 
L 75.364412 161.522862 
L 74.134797 161.798015 
L 73.210138 162.151704 
L 73.210138 162.151704 
" clip-path="url(#pe6c88090b2)" style="fill: none; stroke: #0000ff; stroke-width: 1.5; stroke-linecap: square"/>
   </g>
   <g id="line2d_56">
    <path d="M 67.664424 188.373636 
L 69.611894 189.150256 
L 71.833451 189.776921 
L 73.848886 190.12628 
L 75.78704 190.275783 
L 78.067649 190.222712 
L 80.337275 189.922012 
L 82.379627 189.43111 
L 84.74832 188.578619 
L 86.659121 187.642133 
L 88.60277 186.421818 
L 90.366039 185.029411 
L 91.808192 183.632803 
L 93.116282 182.098473 
L 94.1643 180.614978 
L 95.267604 178.68439 
L 96.028886 176.990452 
L 96.735592 174.899561 
L 97.216678 172.764675 
L 97.483126 170.442924 
L 97.49942 168.282362 
L 97.281068 166.041709 
L 96.903606 164.145015 
L 96.202991 161.870472 
L 95.332793 159.853945 
L 94.488179 158.312314 
L 93.133399 156.331432 
L 91.713253 154.67446 
L 90.402757 153.410717 
L 88.49794 151.912327 
L 86.951572 150.930785 
L 84.979551 149.929943 
L 82.960032 149.156252 
L 80.65882 148.548837 
L 78.967708 148.274284 
L 76.597324 148.122517 
L 74.363476 148.224191 
L 72.087644 148.575571 
L 69.998699 149.129276 
L 68.035974 149.868374 
L 67.664424 150.0341 
L 67.664424 150.0341 
" clip-path="url(#pe6c88090b2)" style="fill: none; stroke: #0000ff; stroke-width: 1.5; stroke-linecap: square"/>
   </g>
   <g id="line2d_57">
    <path d="M 52.589613 221.3127 
L 54.280427 222.053812 
L 58.615256 223.668729 
L 60.803677 224.336775 
L 65.106694 225.379198 
L 68.63133 225.976391 
L 72.909341 226.401847 
L 75.746731 226.5064 
L 79.990157 226.400344 
L 83.117917 226.119868 
L 87.061946 225.517108 
L 90.741533 224.696709 
L 94.850677 223.471875 
L 98.503968 222.091801 
L 102.339489 220.32285 
L 105.881873 218.367809 
L 108.438228 216.743516 
L 111.553289 214.491248 
L 114.547395 212.002256 
L 116.66183 210.021387 
L 118.867988 207.722964 
L 121.368025 204.775144 
L 123.567617 201.804792 
L 125.730632 198.431523 
L 127.405771 195.401281 
L 128.777612 192.540149 
L 130.314202 188.732584 
L 131.533101 184.96917 
L 132.40935 181.501112 
L 133.000434 178.407392 
L 133.50987 174.382189 
L 133.731531 170.414036 
L 133.676445 166.415736 
L 133.395095 162.887001 
L 132.851355 159.126801 
L 132.059573 155.410566 
L 131.093832 151.977281 
L 129.840387 148.414416 
L 128.450219 145.146718 
L 126.867673 141.985002 
L 125.024957 138.817561 
L 123.268204 136.174285 
L 120.994568 133.165897 
L 118.558973 130.347098 
L 116.307419 128.040095 
L 113.744691 125.703989 
L 110.643302 123.225303 
L 107.748127 121.206896 
L 104.655523 119.325946 
L 101.867271 117.848342 
L 98.820397 116.449071 
L 95.690622 115.22814 
L 92.365848 114.155263 
L 88.494853 113.17994 
L 85.129088 112.560106 
L 80.741177 112.058992 
L 77.164406 111.90178 
L 74.071413 111.946042 
L 70.068683 112.252184 
L 66.252015 112.809621 
L 61.661224 113.834961 
L 57.57665 115.089899 
L 54.389607 116.308282 
L 52.589613 117.095036 
L 52.589613 117.095036 
" clip-path="url(#pe6c88090b2)" style="fill: none; stroke: #0000ff; stroke-width: 1.5; stroke-linecap: square"/>
   </g>
   <g id="line2d_58">
    <path d="M 11.612027 310.850359 
L 17.989556 313.598846 
L 23.519175 315.715724 
L 28.275087 317.347231 
L 33.952371 319.074109 
L 39.349493 320.500121 
L 43.990941 321.562978 
L 51.595288 322.985999 
L 58.212682 323.909837 
L 65.174779 324.571926 
L 72.995057 324.941576 
L 78.312975 324.968331 
L 85.578109 324.711219 
L 91.137339 324.284502 
L 98.497072 323.409786 
L 105.738988 322.199013 
L 112.002507 320.86541 
L 119.873018 318.801497 
L 123.74973 317.621012 
L 130.638121 315.246293 
L 135.780296 313.233487 
L 141.762118 310.620961 
L 148.064483 307.535631 
L 153.534088 304.563458 
L 159.090811 301.243763 
L 164.843106 297.463581 
L 169.735575 293.949911 
L 174.625486 290.138672 
L 179.733754 285.805722 
L 184.409341 281.49007 
L 188.969498 276.919512 
L 193.392537 272.100083 
L 197.783008 266.883858 
L 201.649444 261.875777 
L 204.93012 257.270666 
L 208.195571 252.305768 
L 210.874951 247.897498 
L 214.20484 241.910651 
L 217.131115 236.072573 
L 219.239009 231.444101 
L 221.573182 225.787893 
L 223.800458 219.704137 
L 225.642979 213.968184 
L 227.377726 207.715782 
L 228.693421 202.131883 
L 229.886754 196.026367 
L 230.71395 190.765343 
L 231.490916 184.189146 
L 231.949304 178.270246 
L 232.191793 171.7963 
L 232.162962 165.241427 
L 231.905343 159.412531 
L 231.47001 154.003824 
L 230.70623 147.587226 
L 229.833471 142.078305 
L 228.595041 135.824197 
L 227.137232 129.761376 
L 225.664889 124.512645 
L 224.018374 119.344022 
L 221.765891 113.116642 
L 219.699361 108.030696 
L 217.36307 102.8254 
L 214.739296 97.518934 
L 211.560338 91.693 
L 208.965648 87.33565 
L 205.331234 81.725186 
L 202.695823 77.962706 
L 199.097216 73.179354 
L 195.538736 68.799646 
L 191.132012 63.793811 
L 187.769546 60.248436 
L 183.181227 55.749533 
L 179.565861 52.453494 
L 174.575186 48.228242 
L 170.133518 44.756438 
L 164.985281 41.042268 
L 159.813466 37.619095 
L 154.180063 34.214251 
L 148.496008 31.096399 
L 143.471268 28.588881 
L 137.553771 25.917789 
L 132.412391 23.832242 
L 126.149712 21.573273 
L 122.351591 20.34826 
L 115.886239 18.505855 
L 109.488286 16.974638 
L 103.154095 15.736233 
L 97.862504 14.908504 
L 94.737269 14.506719 
L 86.521955 13.754869 
L 80.180975 13.473099 
L 75.528231 13.430769 
L 67.985943 13.657558 
L 62.595805 14.044306 
L 58.075601 14.514108 
L 53.920074 15.064173 
L 46.718172 16.289382 
L 39.368244 17.903018 
L 33.138927 19.56661 
L 27.296454 21.382247 
L 21.496889 23.438296 
L 14.216712 26.394048 
L 11.612027 27.557376 
L 11.612027 27.557376 
" clip-path="url(#pe6c88090b2)" style="fill: none; stroke: #0000ff; stroke-width: 1.5; stroke-linecap: square"/>
   </g>
   <g id="line2d_59">
    <path d="M 75.250291 171.798214 
L 11.612027 310.850359 
L 11.612027 310.850359 
" clip-path="url(#pe6c88090b2)" style="fill: none; stroke: #ff0000; stroke-width: 1.5; stroke-linecap: square"/>
   </g>
   <g id="line2d_60">
    <path d="M 77.979168 171.604696 
L 160.603612 300.284644 
L 160.603612 300.284644 
" clip-path="url(#pe6c88090b2)" style="fill: none; stroke: #ff0000; stroke-width: 1.5; stroke-linecap: square"/>
   </g>
   <g id="line2d_61">
    <path d="M 79.290746 169.203868 
L 232.213366 169.203868 
L 232.213366 169.203868 
" clip-path="url(#pe6c88090b2)" style="fill: none; stroke: #ff0000; stroke-width: 1.5; stroke-linecap: square"/>
   </g>
   <g id="line2d_62">
    <path d="M 77.979168 166.803039 
L 160.603612 38.123092 
L 160.603612 38.123092 
" clip-path="url(#pe6c88090b2)" style="fill: none; stroke: #ff0000; stroke-width: 1.5; stroke-linecap: square"/>
   </g>
   <g id="line2d_63">
    <path d="M 75.250291 166.609522 
L 11.612027 27.557376 
L 11.612027 27.557376 
" clip-path="url(#pe6c88090b2)" style="fill: none; stroke: #ff0000; stroke-width: 1.5; stroke-linecap: square"/>
   </g>
   <g id="patch_3">
    <path d="M 76.437614 331.2 
L 76.437614 7.2 
" style="fill: none; stroke: #000000; stroke-width: 0.8; stroke-linejoin: miter; stroke-linecap: square"/>
   </g>
   <g id="patch_4">
    <path d="M 7.2 169.203868 
L 236.625393 169.203868 
" style="fill: none; stroke: #000000; stroke-width: 0.8; stroke-linejoin: miter; stroke-linecap: square"/>
   </g>
   <g id="text_11">
    <!-- $R$ -->
    <g transform="translate(81.658591 141.444059) scale(0.14 -0.14)">
     <defs>
      <path id="Cmmi10-52" d="M 313 0 
Q 250 0 250 84 
Q 253 100 262 139 
Q 272 178 289 201 
Q 306 225 331 225 
Q 722 225 878 269 
Q 959 297 997 441 
L 1875 3956 
Q 1888 4019 1888 4044 
Q 1888 4113 1813 4122 
Q 1691 4147 1350 4147 
Q 1288 4147 1288 4231 
Q 1291 4247 1300 4286 
Q 1309 4325 1326 4348 
Q 1344 4372 1369 4372 
L 3309 4372 
Q 3541 4372 3791 4319 
Q 4041 4266 4250 4152 
Q 4459 4038 4593 3848 
Q 4728 3659 4728 3406 
Q 4728 3084 4515 2831 
Q 4303 2578 3978 2408 
Q 3653 2238 3347 2169 
Q 3597 2078 3756 1879 
Q 3916 1681 3916 1422 
Q 3916 1388 3914 1370 
Q 3913 1353 3909 1331 
L 3859 763 
Q 3853 638 3847 550 
Q 3841 463 3841 409 
Q 3841 234 3892 129 
Q 3944 25 4097 25 
Q 4297 25 4448 211 
Q 4600 397 4647 616 
Q 4675 672 4709 672 
L 4769 672 
Q 4831 672 4831 588 
Q 4784 403 4682 237 
Q 4581 72 4426 -34 
Q 4272 -141 4091 -141 
Q 3716 -141 3452 26 
Q 3188 194 3188 550 
Q 3188 684 3213 788 
L 3353 1356 
Q 3378 1434 3378 1538 
Q 3378 1803 3198 1954 
Q 3019 2106 2747 2106 
L 1959 2106 
L 1538 416 
Q 1522 363 1522 325 
Q 1522 259 1600 250 
Q 1722 225 2059 225 
Q 2125 225 2125 141 
Q 2103 50 2090 25 
Q 2078 0 2016 0 
L 313 0 
z
M 1997 2272 
L 2706 2272 
Q 3403 2272 3756 2625 
Q 3919 2788 4014 3039 
Q 4109 3291 4109 3541 
Q 4109 3778 3970 3912 
Q 3831 4047 3626 4097 
Q 3422 4147 3175 4147 
L 2747 4147 
Q 2572 4147 2515 4117 
Q 2459 4088 2413 3928 
L 1997 2272 
z
" transform="scale(0.015625)"/>
     </defs>
     <use xlink:href="#Cmmi10-52" transform="translate(0 0.6875)"/>
    </g>
   </g>
  </g>
 </g>
 <defs>
  <clipPath id="pe6c88090b2">
   <rect x="7.2" y="7.2" width="229.425393" height="324"/>
  </clipPath>
 </defs>
</svg>
