<?xml version="1.0" encoding="utf-8" standalone="no"?>
<!DOCTYPE svg PUBLIC "-//W3C//DTD SVG 1.1//EN"
  "http://www.w3.org/Graphics/SVG/1.1/DTD/svg11.dtd">
<svg xmlns:xlink="http://www.w3.org/1999/xlink" width="283.564615pt" height="337.397538pt" viewBox="0 0 283.564615 337.397538" xmlns="http://www.w3.org/2000/svg" version="1.1">
 <metadata>
  <rdf:RDF xmlns:dc="http://purl.org/dc/elements/1.1/" xmlns:cc="http://creativecommons.org/ns#" xmlns:rdf="http://www.w3.org/1999/02/22-rdf-syntax-ns#">
   <cc:Work>
    <dc:type rdf:resource="http://purl.org/dc/dcmitype/StillImage"/>
    <dc:date>2025-02-28T13:06:19.729268</dc:date>
    <dc:format>image/svg+xml</dc:format>
    <dc:creator>
     <cc:Agent>
      <dc:title>Matplotlib v3.6.2, https://matplotlib.org/</dc:title>
     </cc:Agent>
    </dc:creator>
   </cc:Work>
  </rdf:RDF>
 </metadata>
 <defs>
  <style type="text/css">*{stroke-linejoin: round; stroke-linecap: butt}</style>
 </defs>
 <g id="figure_1">
  <g id="patch_1">
   <path d="M 0 337.397538 
L 283.564615 337.397538 
L 283.564615 0 
L 0 0 
z
" style="fill: #ffffff"/>
  </g>
  <g id="axes_1">
   <g id="patch_2">
    <path d="M 7.2 330.197538 
L 276.364615 330.197538 
L 276.364615 7.2 
L 7.2 7.2 
z
" style="fill: #ffffff"/>
   </g>
   <g id="PathCollection_1">
    <path d="M 156.945039 147.55637 
L 157.990744 147.697863 
L 159.03645 147.191013 
L 159.843375 146.738952 
L 160.082155 146.656683 
L 161.127861 146.174165 
L 162.166911 145.693247 
L 162.173566 145.690645 
L 163.219272 145.223023 
L 164.264978 144.766439 
L 164.533723 144.647541 
L 165.310683 144.314237 
L 166.356389 143.873758 
L 167.021597 143.601835 
L 167.402094 143.442571 
L 168.4478 143.012065 
L 169.493505 142.602157 
L 169.615954 142.55613 
L 170.539211 142.181084 
L 171.584917 141.77702 
L 172.316199 141.510424 
L 172.630622 141.381675 
L 173.676328 140.978895 
L 174.722033 140.59877 
L 175.126764 140.464719 
L 175.767739 140.21017 
L 176.813445 139.826657 
L 177.85915 139.468868 
L 178.034343 139.419013 
L 178.904856 139.081801 
L 179.950561 138.712449 
L 180.996267 138.380843 
L 181.039658 138.373308 
L 182.041972 137.949875 
L 183.087406 137.327602 
L 182.773306 136.281896 
L 182.382766 135.236191 
L 182.041972 134.410996 
L 181.981323 134.190485 
L 181.594406 133.14478 
L 181.183772 132.099074 
L 180.996267 131.667639 
L 180.765623 131.053368 
L 180.336525 130.007663 
L 179.950561 129.102905 
L 179.89481 128.961957 
L 179.441687 127.916252 
L 178.978852 126.870546 
L 178.904856 126.711507 
L 178.500732 125.824841 
L 178.014882 124.779135 
L 177.85915 124.452467 
L 177.513422 123.733429 
L 177.004062 122.687724 
L 176.813445 122.29981 
L 176.47912 121.642018 
L 175.946896 120.596313 
L 175.767739 120.241999 
L 175.397257 119.550607 
L 174.844057 118.504902 
L 174.722033 118.268512 
L 174.267641 117.459196 
L 173.697097 116.41349 
L 173.676328 116.373463 
L 173.090885 115.367785 
L 172.630622 114.536539 
L 172.49325 114.322079 
L 171.869363 113.276374 
L 171.584917 112.753726 
L 171.23624 112.230668 
L 170.610145 111.184963 
L 170.539211 111.04241 
L 169.930169 110.139257 
L 169.493505 109.349283 
L 169.267716 109.093551 
L 168.587057 108.047846 
L 168.4478 107.605397 
L 167.627323 107.00214 
L 167.402094 106.477636 
L 167.241068 107.00214 
L 166.356389 107.377831 
L 165.557093 108.047846 
L 165.310683 108.15633 
L 164.264978 108.872771 
L 164.011949 109.093551 
L 163.219272 109.601265 
L 162.51401 110.139257 
L 162.173566 110.349875 
L 161.127861 111.102476 
L 161.026648 111.184963 
L 160.082155 111.855875 
L 159.599113 112.230668 
L 159.03645 112.625408 
L 158.175498 113.276374 
L 157.990744 113.406292 
L 156.945039 114.19553 
L 156.786049 114.322079 
L 155.899333 114.997215 
L 155.429904 115.367785 
L 154.853627 115.811559 
L 154.092451 116.41349 
L 153.807922 116.637084 
L 152.778988 117.459196 
L 152.762216 117.472761 
L 151.716511 118.329075 
L 151.499682 118.504902 
L 150.670805 119.200649 
L 150.243688 119.550607 
L 149.6251 120.086844 
L 149.01276 120.596313 
L 148.579394 120.987899 
L 147.808756 121.642018 
L 147.533688 121.904217 
L 146.633089 122.687724 
L 146.487983 122.836218 
L 145.486921 123.733429 
L 145.442277 123.783977 
L 144.396572 124.75633 
L 144.362873 124.779135 
L 143.350866 125.766407 
L 143.240943 125.824841 
L 142.30516 126.819246 
L 141.795444 126.870546 
L 142.30516 127.339824 
L 142.362625 127.916252 
L 143.350866 128.855337 
L 143.408053 128.961957 
L 144.396572 129.987121 
L 144.410127 130.007663 
L 145.369459 131.053368 
L 145.442277 131.117778 
L 146.304613 132.099074 
L 146.487983 132.280763 
L 147.217207 133.14478 
L 147.533688 133.487247 
L 148.105532 134.190485 
L 148.579394 134.74238 
L 148.967738 135.236191 
L 149.6251 136.051541 
L 149.801246 136.281896 
L 150.605655 137.327602 
L 150.670805 137.413311 
L 151.391227 138.373308 
L 151.716511 138.828731 
L 152.148042 139.419013 
L 152.762216 140.319529 
L 152.867818 140.464719 
L 153.575081 141.510424 
L 153.807922 141.899439 
L 154.258489 142.55613 
L 154.853627 143.558582 
L 154.885633 143.601835 
L 155.537811 144.647541 
L 155.899333 145.390095 
L 156.134391 145.693247 
L 156.729102 146.738952 
z
" clip-path="url(#pafa137abf5)" style="fill: #add8e6"/>
   </g>
   <g id="PathCollection_2">
    <path d="M 156.945039 147.55637 
L 157.990744 147.697863 
L 159.03645 147.191013 
L 159.843375 146.738952 
L 160.082155 146.656683 
L 161.127861 146.174165 
L 162.166911 145.693247 
L 162.173566 145.690645 
L 163.219272 145.223023 
L 164.264978 144.766439 
L 164.533723 144.647541 
L 165.310683 144.314237 
L 166.356389 143.873758 
L 167.021597 143.601835 
L 167.402094 143.442571 
L 168.4478 143.012065 
L 169.493505 142.602157 
L 169.615954 142.55613 
L 170.539211 142.181084 
L 171.584917 141.77702 
L 172.316199 141.510424 
L 172.630622 141.381675 
L 173.676328 140.978895 
L 174.722033 140.59877 
L 175.126764 140.464719 
L 175.767739 140.21017 
L 176.813445 139.826657 
L 177.85915 139.468868 
L 178.034343 139.419013 
L 178.904856 139.081801 
L 179.950561 138.712449 
L 180.996267 138.380843 
L 181.039658 138.373308 
L 182.041972 137.949875 
L 183.087406 137.327602 
L 182.773306 136.281896 
L 182.382766 135.236191 
L 182.041972 134.410996 
L 181.981323 134.190485 
L 181.594406 133.14478 
L 181.183772 132.099074 
L 180.996267 131.667639 
L 180.765623 131.053368 
L 180.336525 130.007663 
L 179.950561 129.102905 
L 179.89481 128.961957 
L 179.441687 127.916252 
L 178.978852 126.870546 
L 178.904856 126.711507 
L 178.500732 125.824841 
L 178.014882 124.779135 
L 177.85915 124.452467 
L 177.513422 123.733429 
L 177.004062 122.687724 
L 176.813445 122.29981 
L 176.47912 121.642018 
L 175.946896 120.596313 
L 175.767739 120.241999 
L 175.397257 119.550607 
L 174.844057 118.504902 
L 174.722033 118.268512 
L 174.267641 117.459196 
L 173.697097 116.41349 
L 173.676328 116.373463 
L 173.090885 115.367785 
L 172.630622 114.536539 
L 172.49325 114.322079 
L 171.869363 113.276374 
L 171.584917 112.753726 
L 171.23624 112.230668 
L 170.610145 111.184963 
L 170.539211 111.04241 
L 169.930169 110.139257 
L 169.493505 109.349283 
L 169.267716 109.093551 
L 168.587057 108.047846 
L 168.4478 107.605397 
L 167.627323 107.00214 
L 167.402094 106.477636 
L 167.241068 107.00214 
L 166.356389 107.377831 
L 165.557093 108.047846 
L 165.310683 108.15633 
L 164.264978 108.872771 
L 164.011949 109.093551 
L 163.219272 109.601265 
L 162.51401 110.139257 
L 162.173566 110.349875 
L 161.127861 111.102476 
L 161.026648 111.184963 
L 160.082155 111.855875 
L 159.599113 112.230668 
L 159.03645 112.625408 
L 158.175498 113.276374 
L 157.990744 113.406292 
L 156.945039 114.19553 
L 156.786049 114.322079 
L 155.899333 114.997215 
L 155.429904 115.367785 
L 154.853627 115.811559 
L 154.092451 116.41349 
L 153.807922 116.637084 
L 152.778988 117.459196 
L 152.762216 117.472761 
L 151.716511 118.329075 
L 151.499682 118.504902 
L 150.670805 119.200649 
L 150.243688 119.550607 
L 149.6251 120.086844 
L 149.01276 120.596313 
L 148.579394 120.987899 
L 147.808756 121.642018 
L 147.533688 121.904217 
L 146.633089 122.687724 
L 146.487983 122.836218 
L 145.486921 123.733429 
L 145.442277 123.783977 
L 144.396572 124.75633 
L 144.362873 124.779135 
L 143.350866 125.766407 
L 143.240943 125.824841 
L 142.30516 126.819246 
L 141.795444 126.870546 
L 142.30516 127.339824 
L 142.362625 127.916252 
L 143.350866 128.855337 
L 143.408053 128.961957 
L 144.396572 129.987121 
L 144.410127 130.007663 
L 145.369459 131.053368 
L 145.442277 131.117778 
L 146.304613 132.099074 
L 146.487983 132.280763 
L 147.217207 133.14478 
L 147.533688 133.487247 
L 148.105532 134.190485 
L 148.579394 134.74238 
L 148.967738 135.236191 
L 149.6251 136.051541 
L 149.801246 136.281896 
L 150.605655 137.327602 
L 150.670805 137.413311 
L 151.391227 138.373308 
L 151.716511 138.828731 
L 152.148042 139.419013 
L 152.762216 140.319529 
L 152.867818 140.464719 
L 153.575081 141.510424 
L 153.807922 141.899439 
L 154.258489 142.55613 
L 154.853627 143.558582 
L 154.885633 143.601835 
L 155.537811 144.647541 
L 155.899333 145.390095 
L 156.134391 145.693247 
L 156.729102 146.738952 
z
M 156.729102 146.738952 
L 156.134391 145.693247 
L 155.899333 145.390095 
L 155.537811 144.647541 
L 154.885633 143.601835 
L 154.853627 143.558582 
L 154.258489 142.55613 
L 153.807922 141.899439 
L 153.575081 141.510424 
L 152.867818 140.464719 
L 152.762216 140.319529 
L 152.148042 139.419013 
L 151.716511 138.828731 
L 151.391227 138.373308 
L 150.670805 137.413311 
L 150.605655 137.327602 
L 149.801246 136.281896 
L 149.6251 136.051541 
L 148.967738 135.236191 
L 148.579394 134.74238 
L 148.105532 134.190485 
L 147.533688 133.487247 
L 147.217207 133.14478 
L 146.487983 132.280763 
L 146.304613 132.099074 
L 145.442277 131.117778 
L 145.369459 131.053368 
L 144.410127 130.007663 
L 144.396572 129.987121 
L 143.408053 128.961957 
L 143.350866 128.855337 
L 142.362625 127.916252 
L 142.30516 127.339824 
L 141.795444 126.870546 
L 142.30516 126.819246 
L 143.240943 125.824841 
L 143.350866 125.766407 
L 144.362873 124.779135 
L 144.396572 124.75633 
L 145.442277 123.783977 
L 145.486921 123.733429 
L 146.487983 122.836218 
L 146.633089 122.687724 
L 147.533688 121.904217 
L 147.808756 121.642018 
L 148.579394 120.987899 
L 149.01276 120.596313 
L 149.6251 120.086844 
L 150.243688 119.550607 
L 150.670805 119.200649 
L 151.499682 118.504902 
L 151.716511 118.329075 
L 152.762216 117.472761 
L 152.778988 117.459196 
L 153.807922 116.637084 
L 154.092451 116.41349 
L 154.853627 115.811559 
L 155.429904 115.367785 
L 155.899333 114.997215 
L 156.786049 114.322079 
L 156.945039 114.19553 
L 157.990744 113.406292 
L 158.175498 113.276374 
L 159.03645 112.625408 
L 159.599113 112.230668 
L 160.082155 111.855875 
L 161.026648 111.184963 
L 161.127861 111.102476 
L 162.173566 110.349875 
L 162.51401 110.139257 
L 163.219272 109.601265 
L 164.011949 109.093551 
L 164.264978 108.872771 
L 165.310683 108.15633 
L 165.557093 108.047846 
L 166.356389 107.377831 
L 167.241068 107.00214 
L 167.402094 106.477636 
L 167.627323 107.00214 
L 168.4478 107.605397 
L 168.587057 108.047846 
L 169.267716 109.093551 
L 169.493505 109.349283 
L 169.930169 110.139257 
L 170.539211 111.04241 
L 170.610145 111.184963 
L 171.23624 112.230668 
L 171.584917 112.753726 
L 171.869363 113.276374 
L 172.49325 114.322079 
L 172.630622 114.536539 
L 173.090885 115.367785 
L 173.676328 116.373463 
L 173.697097 116.41349 
L 174.267641 117.459196 
L 174.722033 118.268512 
L 174.844057 118.504902 
L 175.397257 119.550607 
L 175.767739 120.241999 
L 175.946896 120.596313 
L 176.47912 121.642018 
L 176.813445 122.29981 
L 177.004062 122.687724 
L 177.513422 123.733429 
L 177.85915 124.452467 
L 178.014882 124.779135 
L 178.500732 125.824841 
L 178.904856 126.711507 
L 178.978852 126.870546 
L 179.441687 127.916252 
L 179.89481 128.961957 
L 179.950561 129.102905 
L 180.336525 130.007663 
L 180.765623 131.053368 
L 180.996267 131.667639 
L 181.183772 132.099074 
L 181.594406 133.14478 
L 181.981323 134.190485 
L 182.041972 134.410996 
L 182.382766 135.236191 
L 182.773306 136.281896 
L 183.087406 137.327602 
L 182.041972 137.949875 
L 181.039658 138.373308 
L 180.996267 138.380843 
L 179.950561 138.712449 
L 178.904856 139.081801 
L 178.034343 139.419013 
L 177.85915 139.468868 
L 176.813445 139.826657 
L 175.767739 140.21017 
L 175.126764 140.464719 
L 174.722033 140.59877 
L 173.676328 140.978895 
L 172.630622 141.381675 
L 172.316199 141.510424 
L 171.584917 141.77702 
L 170.539211 142.181084 
L 169.615954 142.55613 
L 169.493505 142.602157 
L 168.4478 143.012065 
L 167.402094 143.442571 
L 167.021597 143.601835 
L 166.356389 143.873758 
L 165.310683 144.314237 
L 164.533723 144.647541 
L 164.264978 144.766439 
L 163.219272 145.223023 
L 162.173566 145.690645 
L 162.166911 145.693247 
L 161.127861 146.174165 
L 160.082155 146.656683 
L 159.843375 146.738952 
L 159.03645 147.191013 
L 157.990744 147.697863 
L 156.945039 147.55637 
z
" clip-path="url(#pafa137abf5)" style="fill: #add8e6"/>
   </g>
   <g id="PathCollection_3">
    <path d="M 156.945039 147.55637 
L 157.990744 147.697863 
L 159.03645 147.191013 
L 159.843375 146.738952 
L 160.082155 146.656683 
L 161.127861 146.174165 
L 162.166911 145.693247 
L 162.173566 145.690645 
L 163.219272 145.223023 
L 164.264978 144.766439 
L 164.533723 144.647541 
L 165.310683 144.314237 
L 166.356389 143.873758 
L 167.021597 143.601835 
L 167.402094 143.442571 
L 168.4478 143.012065 
L 169.493505 142.602157 
L 169.615954 142.55613 
L 170.539211 142.181084 
L 171.584917 141.77702 
L 172.316199 141.510424 
L 172.630622 141.381675 
L 173.676328 140.978895 
L 174.722033 140.59877 
L 175.126764 140.464719 
L 175.767739 140.21017 
L 176.813445 139.826657 
L 177.85915 139.468868 
L 178.034343 139.419013 
L 178.904856 139.081801 
L 179.950561 138.712449 
L 180.996267 138.380843 
L 181.039658 138.373308 
L 182.041972 137.949875 
L 183.087406 137.327602 
L 182.773306 136.281896 
L 182.382766 135.236191 
L 182.041972 134.410996 
L 181.981323 134.190485 
L 181.594406 133.14478 
L 181.183772 132.099074 
L 180.996267 131.667639 
L 180.765623 131.053368 
L 180.336525 130.007663 
L 179.950561 129.102905 
L 179.89481 128.961957 
L 179.441687 127.916252 
L 178.978852 126.870546 
L 178.904856 126.711507 
L 178.500732 125.824841 
L 178.014882 124.779135 
L 177.85915 124.452467 
L 177.513422 123.733429 
L 177.004062 122.687724 
L 176.813445 122.29981 
L 176.47912 121.642018 
L 175.946896 120.596313 
L 175.767739 120.241999 
L 175.397257 119.550607 
L 174.844057 118.504902 
L 174.722033 118.268512 
L 174.267641 117.459196 
L 173.697097 116.41349 
L 173.676328 116.373463 
L 173.090885 115.367785 
L 172.630622 114.536539 
L 172.49325 114.322079 
L 171.869363 113.276374 
L 171.584917 112.753726 
L 171.23624 112.230668 
L 170.610145 111.184963 
L 170.539211 111.04241 
L 169.930169 110.139257 
L 169.493505 109.349283 
L 169.267716 109.093551 
L 168.587057 108.047846 
L 168.4478 107.605397 
L 167.627323 107.00214 
L 167.402094 106.477636 
L 167.241068 107.00214 
L 166.356389 107.377831 
L 165.557093 108.047846 
L 165.310683 108.15633 
L 164.264978 108.872771 
L 164.011949 109.093551 
L 163.219272 109.601265 
L 162.51401 110.139257 
L 162.173566 110.349875 
L 161.127861 111.102476 
L 161.026648 111.184963 
L 160.082155 111.855875 
L 159.599113 112.230668 
L 159.03645 112.625408 
L 158.175498 113.276374 
L 157.990744 113.406292 
L 156.945039 114.19553 
L 156.786049 114.322079 
L 155.899333 114.997215 
L 155.429904 115.367785 
L 154.853627 115.811559 
L 154.092451 116.41349 
L 153.807922 116.637084 
L 152.778988 117.459196 
L 152.762216 117.472761 
L 151.716511 118.329075 
L 151.499682 118.504902 
L 150.670805 119.200649 
L 150.243688 119.550607 
L 149.6251 120.086844 
L 149.01276 120.596313 
L 148.579394 120.987899 
L 147.808756 121.642018 
L 147.533688 121.904217 
L 146.633089 122.687724 
L 146.487983 122.836218 
L 145.486921 123.733429 
L 145.442277 123.783977 
L 144.396572 124.75633 
L 144.362873 124.779135 
L 143.350866 125.766407 
L 143.240943 125.824841 
L 142.30516 126.819246 
L 141.795444 126.870546 
L 142.30516 127.339824 
L 142.362625 127.916252 
L 143.350866 128.855337 
L 143.408053 128.961957 
L 144.396572 129.987121 
L 144.410127 130.007663 
L 145.369459 131.053368 
L 145.442277 131.117778 
L 146.304613 132.099074 
L 146.487983 132.280763 
L 147.217207 133.14478 
L 147.533688 133.487247 
L 148.105532 134.190485 
L 148.579394 134.74238 
L 148.967738 135.236191 
L 149.6251 136.051541 
L 149.801246 136.281896 
L 150.605655 137.327602 
L 150.670805 137.413311 
L 151.391227 138.373308 
L 151.716511 138.828731 
L 152.148042 139.419013 
L 152.762216 140.319529 
L 152.867818 140.464719 
L 153.575081 141.510424 
L 153.807922 141.899439 
L 154.258489 142.55613 
L 154.853627 143.558582 
L 154.885633 143.601835 
L 155.537811 144.647541 
L 155.899333 145.390095 
L 156.134391 145.693247 
L 156.729102 146.738952 
z
M 156.729102 146.738952 
L 156.134391 145.693247 
L 155.899333 145.390095 
L 155.537811 144.647541 
L 154.885633 143.601835 
L 154.853627 143.558582 
L 154.258489 142.55613 
L 153.807922 141.899439 
L 153.575081 141.510424 
L 152.867818 140.464719 
L 152.762216 140.319529 
L 152.148042 139.419013 
L 151.716511 138.828731 
L 151.391227 138.373308 
L 150.670805 137.413311 
L 150.605655 137.327602 
L 149.801246 136.281896 
L 149.6251 136.051541 
L 148.967738 135.236191 
L 148.579394 134.74238 
L 148.105532 134.190485 
L 147.533688 133.487247 
L 147.217207 133.14478 
L 146.487983 132.280763 
L 146.304613 132.099074 
L 145.442277 131.117778 
L 145.369459 131.053368 
L 144.410127 130.007663 
L 144.396572 129.987121 
L 143.408053 128.961957 
L 143.350866 128.855337 
L 142.362625 127.916252 
L 142.30516 127.339824 
L 141.795444 126.870546 
L 142.30516 126.819246 
L 143.240943 125.824841 
L 143.350866 125.766407 
L 144.362873 124.779135 
L 144.396572 124.75633 
L 145.442277 123.783977 
L 145.486921 123.733429 
L 146.487983 122.836218 
L 146.633089 122.687724 
L 147.533688 121.904217 
L 147.808756 121.642018 
L 148.579394 120.987899 
L 149.01276 120.596313 
L 149.6251 120.086844 
L 150.243688 119.550607 
L 150.670805 119.200649 
L 151.499682 118.504902 
L 151.716511 118.329075 
L 152.762216 117.472761 
L 152.778988 117.459196 
L 153.807922 116.637084 
L 154.092451 116.41349 
L 154.853627 115.811559 
L 155.429904 115.367785 
L 155.899333 114.997215 
L 156.786049 114.322079 
L 156.945039 114.19553 
L 157.990744 113.406292 
L 158.175498 113.276374 
L 159.03645 112.625408 
L 159.599113 112.230668 
L 160.082155 111.855875 
L 161.026648 111.184963 
L 161.127861 111.102476 
L 162.173566 110.349875 
L 162.51401 110.139257 
L 163.219272 109.601265 
L 164.011949 109.093551 
L 164.264978 108.872771 
L 165.310683 108.15633 
L 165.557093 108.047846 
L 166.356389 107.377831 
L 167.241068 107.00214 
L 167.402094 106.477636 
L 167.627323 107.00214 
L 168.4478 107.605397 
L 168.587057 108.047846 
L 169.267716 109.093551 
L 169.493505 109.349283 
L 169.930169 110.139257 
L 170.539211 111.04241 
L 170.610145 111.184963 
L 171.23624 112.230668 
L 171.584917 112.753726 
L 171.869363 113.276374 
L 172.49325 114.322079 
L 172.630622 114.536539 
L 173.090885 115.367785 
L 173.676328 116.373463 
L 173.697097 116.41349 
L 174.267641 117.459196 
L 174.722033 118.268512 
L 174.844057 118.504902 
L 175.397257 119.550607 
L 175.767739 120.241999 
L 175.946896 120.596313 
L 176.47912 121.642018 
L 176.813445 122.29981 
L 177.004062 122.687724 
L 177.513422 123.733429 
L 177.85915 124.452467 
L 178.014882 124.779135 
L 178.500732 125.824841 
L 178.904856 126.711507 
L 178.978852 126.870546 
L 179.441687 127.916252 
L 179.89481 128.961957 
L 179.950561 129.102905 
L 180.336525 130.007663 
L 180.765623 131.053368 
L 180.996267 131.667639 
L 181.183772 132.099074 
L 181.594406 133.14478 
L 181.981323 134.190485 
L 182.041972 134.410996 
L 182.382766 135.236191 
L 182.773306 136.281896 
L 183.087406 137.327602 
L 182.041972 137.949875 
L 181.039658 138.373308 
L 180.996267 138.380843 
L 179.950561 138.712449 
L 178.904856 139.081801 
L 178.034343 139.419013 
L 177.85915 139.468868 
L 176.813445 139.826657 
L 175.767739 140.21017 
L 175.126764 140.464719 
L 174.722033 140.59877 
L 173.676328 140.978895 
L 172.630622 141.381675 
L 172.316199 141.510424 
L 171.584917 141.77702 
L 170.539211 142.181084 
L 169.615954 142.55613 
L 169.493505 142.602157 
L 168.4478 143.012065 
L 167.402094 143.442571 
L 167.021597 143.601835 
L 166.356389 143.873758 
L 165.310683 144.314237 
L 164.533723 144.647541 
L 164.264978 144.766439 
L 163.219272 145.223023 
L 162.173566 145.690645 
L 162.166911 145.693247 
L 161.127861 146.174165 
L 160.082155 146.656683 
L 159.843375 146.738952 
L 159.03645 147.191013 
L 157.990744 147.697863 
L 156.945039 147.55637 
z
" clip-path="url(#pafa137abf5)" style="fill: #ffffff"/>
   </g>
   <g id="PathCollection_4">
    <path d="M 91.065587 168.698769 
L 92.111293 168.698769 
L 93.156998 168.698769 
L 94.202704 168.698769 
L 95.24841 168.698769 
L 96.294115 168.698769 
L 97.339821 168.698769 
L 98.385526 168.698769 
L 99.431232 168.698769 
L 100.476937 168.698769 
L 101.522643 168.698769 
L 102.568349 168.698769 
L 103.614054 168.698769 
L 104.65976 168.698769 
L 105.705465 168.698769 
L 106.751171 167.653064 
L 107.796876 168.698769 
L 108.842582 168.698769 
L 109.888288 168.698769 
L 110.933993 168.698769 
L 111.979699 168.698769 
L 113.025404 168.698769 
L 114.07111 168.698769 
L 115.116815 168.698769 
L 116.162521 168.698769 
L 117.208227 168.698769 
L 118.253932 168.698769 
L 119.299638 168.698769 
L 120.345343 168.698769 
L 121.391049 168.698769 
L 122.436755 168.698769 
L 123.48246 168.698769 
L 124.528166 168.698769 
L 125.573871 168.698769 
L 126.619577 168.698769 
L 127.665282 168.698769 
L 128.710988 168.698769 
L 129.756694 168.698769 
L 130.802399 168.698769 
L 131.848105 168.698769 
L 132.89381 168.698769 
L 133.939516 168.698769 
L 134.985221 168.698769 
L 136.030927 168.698769 
L 137.076633 168.698769 
L 138.122338 168.698769 
L 139.168044 168.698769 
L 140.213749 168.698769 
L 141.259455 168.698769 
L 142.30516 168.698769 
L 143.350866 168.698769 
L 144.396572 168.698769 
L 145.442277 168.698769 
L 146.487983 168.698769 
L 147.533688 168.698769 
L 148.579394 168.698769 
L 149.6251 168.698769 
L 150.670805 168.698769 
L 151.716511 168.698769 
L 152.762216 168.698769 
L 153.807922 168.698769 
L 154.853627 168.698769 
L 155.899333 168.698769 
L 156.945039 168.698769 
L 157.990744 168.698769 
L 159.03645 168.698769 
L 160.082155 168.698769 
L 161.127861 168.698769 
L 162.173566 168.698769 
L 163.219272 168.698769 
L 164.264978 168.698769 
L 165.310683 168.698769 
L 166.356389 168.698769 
L 167.402094 168.698769 
L 168.4478 168.698769 
L 169.493505 168.698769 
L 170.539211 168.698769 
L 171.584917 168.698769 
L 172.630622 168.698769 
L 173.676328 168.698769 
L 174.722033 168.698769 
L 175.767739 168.698769 
L 176.813445 168.698769 
L 177.85915 168.698769 
L 178.904856 168.698769 
L 179.950561 168.698769 
L 180.996267 168.698769 
L 182.041972 167.653064 
L 183.087678 168.698769 
L 184.133384 168.698769 
L 185.179089 168.698769 
L 186.224795 168.698769 
L 187.2705 168.698769 
L 188.316206 168.698769 
L 189.361911 168.698769 
L 190.407617 168.698769 
L 191.453323 168.698769 
L 192.499028 168.698769 
L 193.544734 168.698769 
L 193.544734 167.653064 
L 193.544734 166.607358 
L 193.544734 165.561653 
L 193.544734 164.515947 
L 193.544734 163.470241 
L 193.544734 162.424536 
L 193.544734 161.37883 
L 193.544734 160.333125 
L 193.544734 159.287419 
L 193.544734 158.241713 
L 193.544734 157.196008 
L 193.544734 156.150302 
L 193.544734 155.104597 
L 193.544734 154.058891 
L 193.544734 153.013186 
L 193.544734 151.96748 
L 193.544734 150.921774 
L 193.544734 149.876069 
L 193.544734 148.830363 
L 193.544734 147.784658 
L 193.544734 146.738952 
L 193.544734 145.693247 
L 193.544734 144.647541 
L 193.544734 143.601835 
L 193.544734 142.55613 
L 193.544734 141.510424 
L 193.544734 140.464719 
L 193.544734 139.419013 
L 193.544734 138.373308 
L 193.544734 137.327602 
L 193.544734 136.281896 
L 193.544734 135.236191 
L 193.544734 134.190485 
L 193.544734 133.14478 
L 193.544734 132.099074 
L 193.544734 131.053368 
L 193.544734 130.007663 
L 193.544734 128.961957 
L 193.544734 127.916252 
L 193.544734 126.870546 
L 193.544734 125.824841 
L 193.544734 124.779135 
L 193.544734 123.733429 
L 193.544734 122.687724 
L 193.544734 121.642018 
L 193.544734 120.596313 
L 193.544734 119.550607 
L 193.544734 118.504902 
L 193.544734 117.459196 
L 193.544734 116.41349 
L 193.544734 115.367785 
L 193.544734 114.322079 
L 193.544734 113.276374 
L 193.544734 112.230668 
L 193.544734 111.184963 
L 193.544734 110.139257 
L 193.544734 109.093551 
L 193.544734 108.047846 
L 193.544734 107.00214 
L 193.544734 105.956435 
L 193.544734 104.910729 
L 193.544734 103.865023 
L 193.544734 102.819318 
L 193.544734 101.773612 
L 193.544734 100.727907 
L 193.544734 99.682201 
L 193.544734 98.636496 
L 193.544734 97.59079 
L 193.544734 96.545084 
L 193.544734 95.499379 
L 193.544734 94.453673 
L 193.544734 93.407968 
L 193.544734 92.362262 
L 193.544734 91.316557 
L 193.544734 90.270851 
L 193.544734 89.225145 
L 193.544734 88.17944 
L 193.544734 87.133734 
L 193.544734 86.088029 
L 193.544734 85.042323 
L 193.544734 83.996618 
L 193.544734 82.950912 
L 193.544734 81.905206 
L 193.544734 80.859501 
L 193.544734 79.813795 
L 193.544734 78.76809 
L 193.544734 77.722384 
L 193.544734 76.676679 
L 193.544734 75.630973 
L 193.544734 74.585267 
L 193.544734 73.539562 
L 193.544734 72.493856 
L 193.544734 71.448151 
L 193.544734 70.402445 
L 193.544734 69.356739 
L 193.544734 68.311034 
L 193.544734 67.265328 
L 193.544734 66.219623 
L 193.544734 65.173917 
L 192.499028 65.173917 
L 191.453323 65.173917 
L 190.407617 65.173917 
L 189.361911 65.173917 
L 188.316206 65.173917 
L 187.2705 65.173917 
L 186.224795 65.173917 
L 185.179089 65.173917 
L 184.133384 65.173917 
L 183.087678 65.173917 
L 182.041972 65.173917 
L 180.996267 65.173917 
L 179.950561 65.173917 
L 178.904856 65.173917 
L 177.85915 65.173917 
L 176.813445 65.173917 
L 175.767739 65.173917 
L 174.722033 65.173917 
L 173.676328 65.173917 
L 172.630622 65.173917 
L 171.584917 65.173917 
L 170.539211 65.173917 
L 169.493505 65.173917 
L 168.4478 65.173917 
L 167.402094 65.173917 
L 166.356389 65.173917 
L 165.310683 65.173917 
L 164.264978 65.173917 
L 163.219272 65.173917 
L 162.173566 65.173917 
L 161.127861 65.173917 
L 160.082155 65.173917 
L 159.03645 65.173917 
L 157.990744 65.173917 
L 156.945039 65.173917 
L 155.899333 65.173917 
L 154.853627 65.173917 
L 153.807922 65.173917 
L 152.762216 65.173917 
L 151.716511 65.173917 
L 150.670805 65.173917 
L 149.6251 65.173917 
L 148.579394 65.173917 
L 147.533688 65.173917 
L 146.487983 65.173917 
L 145.442277 65.173917 
L 144.396572 65.173917 
L 143.350866 65.173917 
L 142.30516 65.173917 
L 141.259455 65.173917 
L 140.213749 65.173917 
L 139.168044 65.173917 
L 138.122338 65.173917 
L 137.076633 65.173917 
L 136.030927 65.173917 
L 134.985221 65.173917 
L 133.939516 65.173917 
L 132.89381 65.173917 
L 131.848105 65.173917 
L 130.802399 65.173917 
L 129.756694 65.173917 
L 128.710988 65.173917 
L 127.665282 65.173917 
L 126.619577 65.173917 
L 125.573871 65.173917 
L 124.528166 65.173917 
L 123.48246 65.173917 
L 122.436755 65.173917 
L 121.391049 65.173917 
L 120.345343 65.173917 
L 119.299638 65.173917 
L 118.253932 65.173917 
L 117.208227 65.173917 
L 116.162521 65.173917 
L 115.116815 65.173917 
L 114.07111 65.173917 
L 113.025404 65.173917 
L 111.979699 65.173917 
L 110.933993 65.173917 
L 109.888288 65.173917 
L 108.842582 65.173917 
L 107.796876 65.173917 
L 106.751171 65.173917 
L 105.705465 65.173917 
L 104.65976 65.173917 
L 103.614054 65.173917 
L 102.568349 65.173917 
L 101.522643 65.173917 
L 100.476937 65.173917 
L 99.431232 65.173917 
L 98.385526 65.173917 
L 97.339821 65.173917 
L 96.294115 65.173917 
L 95.24841 65.173917 
L 94.202704 65.173917 
L 93.156998 65.173917 
L 92.111293 65.173917 
L 91.065587 65.173917 
L 90.019882 65.173917 
L 90.019882 66.219623 
L 90.019882 67.265328 
L 90.019882 68.311034 
L 90.019882 69.356739 
L 90.019882 70.402445 
L 90.019882 71.448151 
L 90.019882 72.493856 
L 90.019882 73.539562 
L 90.019882 74.585267 
L 90.019882 75.630973 
L 90.019882 76.676679 
L 90.019882 77.722384 
L 90.019882 78.76809 
L 90.019882 79.813795 
L 90.019882 80.859501 
L 90.019882 81.905206 
L 90.019882 82.950912 
L 90.019882 83.996618 
L 90.019882 85.042323 
L 90.019882 86.088029 
L 90.019882 87.133734 
L 90.019882 88.17944 
L 90.019882 89.225145 
L 90.019882 90.270851 
L 90.019882 91.316557 
L 90.019882 92.362262 
L 90.019882 93.407968 
L 90.019882 94.453673 
L 90.019882 95.499379 
L 90.019882 96.545084 
L 90.019882 97.59079 
L 90.019882 98.636496 
L 90.019882 99.682201 
L 90.019882 100.727907 
L 90.019882 101.773612 
L 90.019882 102.819318 
L 90.019882 103.865023 
L 90.019882 104.910729 
L 90.019882 105.956435 
L 90.019882 107.00214 
L 90.019882 108.047846 
L 90.019882 109.093551 
L 90.019882 110.139257 
L 90.019882 111.184963 
L 90.019882 112.230668 
L 90.019882 113.276374 
L 90.019882 114.322079 
L 90.019882 115.367785 
L 90.019882 116.41349 
L 90.019882 117.459196 
L 90.019882 118.504902 
L 90.019882 119.550607 
L 90.019882 120.596313 
L 90.019882 121.642018 
L 90.019882 122.687724 
L 90.019882 123.733429 
L 90.019882 124.779135 
L 90.019882 125.824841 
L 90.019882 126.870546 
L 90.019882 127.916252 
L 90.019882 128.961957 
L 90.019882 130.007663 
L 90.019882 131.053368 
L 90.019882 132.099074 
L 90.019882 133.14478 
L 90.019882 134.190485 
L 90.019882 135.236191 
L 90.019882 136.281896 
L 90.019882 137.327602 
L 90.019882 138.373308 
L 90.019882 139.419013 
L 90.019882 140.464719 
L 90.019882 141.510424 
L 90.019882 142.55613 
L 90.019882 143.601835 
L 90.019882 144.647541 
L 90.019882 145.693247 
L 90.019882 146.738952 
L 90.019882 147.784658 
L 90.019882 148.830363 
L 90.019882 149.876069 
L 90.019882 150.921774 
L 90.019882 151.96748 
L 90.019882 153.013186 
L 90.019882 154.058891 
L 90.019882 155.104597 
L 90.019882 156.150302 
L 90.019882 157.196008 
L 90.019882 158.241713 
L 90.019882 159.287419 
L 90.019882 160.333125 
L 90.019882 161.37883 
L 90.019882 162.424536 
L 90.019882 163.470241 
L 90.019882 164.515947 
L 90.019882 165.561653 
L 90.019882 166.607358 
L 90.019882 167.653064 
L 90.019882 168.698769 
L 91.065587 168.698769 
z
M 156.729102 146.738952 
L 156.134391 145.693247 
L 155.899333 145.390095 
L 155.537811 144.647541 
L 154.885633 143.601835 
L 154.853627 143.558582 
L 154.258489 142.55613 
L 153.807922 141.899439 
L 153.575081 141.510424 
L 152.867818 140.464719 
L 152.762216 140.319529 
L 152.148042 139.419013 
L 151.716511 138.828731 
L 151.391227 138.373308 
L 150.670805 137.413311 
L 150.605655 137.327602 
L 149.801246 136.281896 
L 149.6251 136.051541 
L 148.967738 135.236191 
L 148.579394 134.74238 
L 148.105532 134.190485 
L 147.533688 133.487247 
L 147.217207 133.14478 
L 146.487983 132.280763 
L 146.304613 132.099074 
L 145.442277 131.117778 
L 145.369459 131.053368 
L 144.410127 130.007663 
L 144.396572 129.987121 
L 143.408053 128.961957 
L 143.350866 128.855337 
L 142.362625 127.916252 
L 142.30516 127.339824 
L 141.795444 126.870546 
L 142.30516 126.819246 
L 143.240943 125.824841 
L 143.350866 125.766407 
L 144.362873 124.779135 
L 144.396572 124.75633 
L 145.442277 123.783977 
L 145.486921 123.733429 
L 146.487983 122.836218 
L 146.633089 122.687724 
L 147.533688 121.904217 
L 147.808756 121.642018 
L 148.579394 120.987899 
L 149.01276 120.596313 
L 149.6251 120.086844 
L 150.243688 119.550607 
L 150.670805 119.200649 
L 151.499682 118.504902 
L 151.716511 118.329075 
L 152.762216 117.472761 
L 152.778988 117.459196 
L 153.807922 116.637084 
L 154.092451 116.41349 
L 154.853627 115.811559 
L 155.429904 115.367785 
L 155.899333 114.997215 
L 156.786049 114.322079 
L 156.945039 114.19553 
L 157.990744 113.406292 
L 158.175498 113.276374 
L 159.03645 112.625408 
L 159.599113 112.230668 
L 160.082155 111.855875 
L 161.026648 111.184963 
L 161.127861 111.102476 
L 162.173566 110.349875 
L 162.51401 110.139257 
L 163.219272 109.601265 
L 164.011949 109.093551 
L 164.264978 108.872771 
L 165.310683 108.15633 
L 165.557093 108.047846 
L 166.356389 107.377831 
L 167.241068 107.00214 
L 167.402094 106.477636 
L 167.627323 107.00214 
L 168.4478 107.605397 
L 168.587057 108.047846 
L 169.267716 109.093551 
L 169.493505 109.349283 
L 169.930169 110.139257 
L 170.539211 111.04241 
L 170.610145 111.184963 
L 171.23624 112.230668 
L 171.584917 112.753726 
L 171.869363 113.276374 
L 172.49325 114.322079 
L 172.630622 114.536539 
L 173.090885 115.367785 
L 173.676328 116.373463 
L 173.697097 116.41349 
L 174.267641 117.459196 
L 174.722033 118.268512 
L 174.844057 118.504902 
L 175.397257 119.550607 
L 175.767739 120.241999 
L 175.946896 120.596313 
L 176.47912 121.642018 
L 176.813445 122.29981 
L 177.004062 122.687724 
L 177.513422 123.733429 
L 177.85915 124.452467 
L 178.014882 124.779135 
L 178.500732 125.824841 
L 178.904856 126.711507 
L 178.978852 126.870546 
L 179.441687 127.916252 
L 179.89481 128.961957 
L 179.950561 129.102905 
L 180.336525 130.007663 
L 180.765623 131.053368 
L 180.996267 131.667639 
L 181.183772 132.099074 
L 181.594406 133.14478 
L 181.981323 134.190485 
L 182.041972 134.410996 
L 182.382766 135.236191 
L 182.773306 136.281896 
L 183.087406 137.327602 
L 182.041972 137.949875 
L 181.039658 138.373308 
L 180.996267 138.380843 
L 179.950561 138.712449 
L 178.904856 139.081801 
L 178.034343 139.419013 
L 177.85915 139.468868 
L 176.813445 139.826657 
L 175.767739 140.21017 
L 175.126764 140.464719 
L 174.722033 140.59877 
L 173.676328 140.978895 
L 172.630622 141.381675 
L 172.316199 141.510424 
L 171.584917 141.77702 
L 170.539211 142.181084 
L 169.615954 142.55613 
L 169.493505 142.602157 
L 168.4478 143.012065 
L 167.402094 143.442571 
L 167.021597 143.601835 
L 166.356389 143.873758 
L 165.310683 144.314237 
L 164.533723 144.647541 
L 164.264978 144.766439 
L 163.219272 145.223023 
L 162.173566 145.690645 
L 162.166911 145.693247 
L 161.127861 146.174165 
L 160.082155 146.656683 
L 159.843375 146.738952 
L 159.03645 147.191013 
L 157.990744 147.697863 
L 156.945039 147.55637 
L 156.729102 146.738952 
z
" clip-path="url(#pafa137abf5)" style="fill: none"/>
   </g>
   <g id="matplotlib.axis_1">
    <g id="xtick_1">
     <g id="line2d_1">
      <defs>
       <path id="mb4e9a1c97d" d="M 0 0 
L 0 3.5 
" style="stroke: #000000; stroke-width: 0.8"/>
      </defs>
      <g>
       <use xlink:href="#mb4e9a1c97d" x="38.257456" y="168.698769" style="stroke: #000000; stroke-width: 0.8"/>
      </g>
     </g>
     <g id="text_1">
      <!-- −20 -->
      <g transform="translate(27.705112 183.297207) scale(0.1 -0.1)">
       <defs>
        <path id="DejaVuSans-2212" d="M 678 2272 
L 4684 2272 
L 4684 1741 
L 678 1741 
L 678 2272 
z
" transform="scale(0.015625)"/>
        <path id="DejaVuSans-32" d="M 1228 531 
L 3431 531 
L 3431 0 
L 469 0 
L 469 531 
Q 828 903 1448 1529 
Q 2069 2156 2228 2338 
Q 2531 2678 2651 2914 
Q 2772 3150 2772 3378 
Q 2772 3750 2511 3984 
Q 2250 4219 1831 4219 
Q 1534 4219 1204 4116 
Q 875 4013 500 3803 
L 500 4441 
Q 881 4594 1212 4672 
Q 1544 4750 1819 4750 
Q 2544 4750 2975 4387 
Q 3406 4025 3406 3419 
Q 3406 3131 3298 2873 
Q 3191 2616 2906 2266 
Q 2828 2175 2409 1742 
Q 1991 1309 1228 531 
z
" transform="scale(0.015625)"/>
        <path id="DejaVuSans-30" d="M 2034 4250 
Q 1547 4250 1301 3770 
Q 1056 3291 1056 2328 
Q 1056 1369 1301 889 
Q 1547 409 2034 409 
Q 2525 409 2770 889 
Q 3016 1369 3016 2328 
Q 3016 3291 2770 3770 
Q 2525 4250 2034 4250 
z
M 2034 4750 
Q 2819 4750 3233 4129 
Q 3647 3509 3647 2328 
Q 3647 1150 3233 529 
Q 2819 -91 2034 -91 
Q 1250 -91 836 529 
Q 422 1150 422 2328 
Q 422 3509 836 4129 
Q 1250 4750 2034 4750 
z
" transform="scale(0.015625)"/>
       </defs>
       <use xlink:href="#DejaVuSans-2212"/>
       <use xlink:href="#DejaVuSans-32" x="83.789062"/>
       <use xlink:href="#DejaVuSans-30" x="147.412109"/>
      </g>
     </g>
    </g>
    <g id="xtick_2">
     <g id="line2d_2">
      <g>
       <use xlink:href="#mb4e9a1c97d" x="90.019882" y="168.698769" style="stroke: #000000; stroke-width: 0.8"/>
      </g>
     </g>
     <g id="text_2">
      <!-- −10 -->
      <g transform="translate(79.467538 183.297207) scale(0.1 -0.1)">
       <defs>
        <path id="DejaVuSans-31" d="M 794 531 
L 1825 531 
L 1825 4091 
L 703 3866 
L 703 4441 
L 1819 4666 
L 2450 4666 
L 2450 531 
L 3481 531 
L 3481 0 
L 794 0 
L 794 531 
z
" transform="scale(0.015625)"/>
       </defs>
       <use xlink:href="#DejaVuSans-2212"/>
       <use xlink:href="#DejaVuSans-31" x="83.789062"/>
       <use xlink:href="#DejaVuSans-30" x="147.412109"/>
      </g>
     </g>
    </g>
    <g id="xtick_3">
     <g id="line2d_3">
      <g>
       <use xlink:href="#mb4e9a1c97d" x="141.782308" y="168.698769" style="stroke: #000000; stroke-width: 0.8"/>
      </g>
     </g>
    </g>
    <g id="xtick_4">
     <g id="line2d_4">
      <g>
       <use xlink:href="#mb4e9a1c97d" x="193.544734" y="168.698769" style="stroke: #000000; stroke-width: 0.8"/>
      </g>
     </g>
     <g id="text_3">
      <!-- 10 -->
      <g transform="translate(187.182234 183.297207) scale(0.1 -0.1)">
       <use xlink:href="#DejaVuSans-31"/>
       <use xlink:href="#DejaVuSans-30" x="63.623047"/>
      </g>
     </g>
    </g>
    <g id="xtick_5">
     <g id="line2d_5">
      <g>
       <use xlink:href="#mb4e9a1c97d" x="245.30716" y="168.698769" style="stroke: #000000; stroke-width: 0.8"/>
      </g>
     </g>
     <g id="text_4">
      <!-- 20 -->
      <g transform="translate(238.94466 183.297207) scale(0.1 -0.1)">
       <use xlink:href="#DejaVuSans-32"/>
       <use xlink:href="#DejaVuSans-30" x="63.623047"/>
      </g>
     </g>
    </g>
    <g id="xtick_6">
     <g id="line2d_6">
      <defs>
       <path id="m389c02a64c" d="M 0 0 
L 0 2 
" style="stroke: #000000; stroke-width: 0.6"/>
      </defs>
      <g>
       <use xlink:href="#m389c02a64c" x="17.552485" y="168.698769" style="stroke: #000000; stroke-width: 0.6"/>
      </g>
     </g>
    </g>
    <g id="xtick_7">
     <g id="line2d_7">
      <g>
       <use xlink:href="#m389c02a64c" x="27.90497" y="168.698769" style="stroke: #000000; stroke-width: 0.6"/>
      </g>
     </g>
    </g>
    <g id="xtick_8">
     <g id="line2d_8">
      <g>
       <use xlink:href="#m389c02a64c" x="48.609941" y="168.698769" style="stroke: #000000; stroke-width: 0.6"/>
      </g>
     </g>
    </g>
    <g id="xtick_9">
     <g id="line2d_9">
      <g>
       <use xlink:href="#m389c02a64c" x="58.962426" y="168.698769" style="stroke: #000000; stroke-width: 0.6"/>
      </g>
     </g>
    </g>
    <g id="xtick_10">
     <g id="line2d_10">
      <g>
       <use xlink:href="#m389c02a64c" x="69.314911" y="168.698769" style="stroke: #000000; stroke-width: 0.6"/>
      </g>
     </g>
    </g>
    <g id="xtick_11">
     <g id="line2d_11">
      <g>
       <use xlink:href="#m389c02a64c" x="79.667396" y="168.698769" style="stroke: #000000; stroke-width: 0.6"/>
      </g>
     </g>
    </g>
    <g id="xtick_12">
     <g id="line2d_12">
      <g>
       <use xlink:href="#m389c02a64c" x="100.372367" y="168.698769" style="stroke: #000000; stroke-width: 0.6"/>
      </g>
     </g>
    </g>
    <g id="xtick_13">
     <g id="line2d_13">
      <g>
       <use xlink:href="#m389c02a64c" x="110.724852" y="168.698769" style="stroke: #000000; stroke-width: 0.6"/>
      </g>
     </g>
    </g>
    <g id="xtick_14">
     <g id="line2d_14">
      <g>
       <use xlink:href="#m389c02a64c" x="121.077337" y="168.698769" style="stroke: #000000; stroke-width: 0.6"/>
      </g>
     </g>
    </g>
    <g id="xtick_15">
     <g id="line2d_15">
      <g>
       <use xlink:href="#m389c02a64c" x="131.429822" y="168.698769" style="stroke: #000000; stroke-width: 0.6"/>
      </g>
     </g>
    </g>
    <g id="xtick_16">
     <g id="line2d_16">
      <g>
       <use xlink:href="#m389c02a64c" x="152.134793" y="168.698769" style="stroke: #000000; stroke-width: 0.6"/>
      </g>
     </g>
    </g>
    <g id="xtick_17">
     <g id="line2d_17">
      <g>
       <use xlink:href="#m389c02a64c" x="162.487278" y="168.698769" style="stroke: #000000; stroke-width: 0.6"/>
      </g>
     </g>
    </g>
    <g id="xtick_18">
     <g id="line2d_18">
      <g>
       <use xlink:href="#m389c02a64c" x="172.839763" y="168.698769" style="stroke: #000000; stroke-width: 0.6"/>
      </g>
     </g>
    </g>
    <g id="xtick_19">
     <g id="line2d_19">
      <g>
       <use xlink:href="#m389c02a64c" x="183.192249" y="168.698769" style="stroke: #000000; stroke-width: 0.6"/>
      </g>
     </g>
    </g>
    <g id="xtick_20">
     <g id="line2d_20">
      <g>
       <use xlink:href="#m389c02a64c" x="203.897219" y="168.698769" style="stroke: #000000; stroke-width: 0.6"/>
      </g>
     </g>
    </g>
    <g id="xtick_21">
     <g id="line2d_21">
      <g>
       <use xlink:href="#m389c02a64c" x="214.249704" y="168.698769" style="stroke: #000000; stroke-width: 0.6"/>
      </g>
     </g>
    </g>
    <g id="xtick_22">
     <g id="line2d_22">
      <g>
       <use xlink:href="#m389c02a64c" x="224.602189" y="168.698769" style="stroke: #000000; stroke-width: 0.6"/>
      </g>
     </g>
    </g>
    <g id="xtick_23">
     <g id="line2d_23">
      <g>
       <use xlink:href="#m389c02a64c" x="234.954675" y="168.698769" style="stroke: #000000; stroke-width: 0.6"/>
      </g>
     </g>
    </g>
    <g id="xtick_24">
     <g id="line2d_24">
      <g>
       <use xlink:href="#m389c02a64c" x="255.659645" y="168.698769" style="stroke: #000000; stroke-width: 0.6"/>
      </g>
     </g>
    </g>
    <g id="xtick_25">
     <g id="line2d_25">
      <g>
       <use xlink:href="#m389c02a64c" x="266.01213" y="168.698769" style="stroke: #000000; stroke-width: 0.6"/>
      </g>
     </g>
    </g>
    <g id="xtick_26">
     <g id="line2d_26">
      <g>
       <use xlink:href="#m389c02a64c" x="276.364615" y="168.698769" style="stroke: #000000; stroke-width: 0.6"/>
      </g>
     </g>
    </g>
   </g>
   <g id="matplotlib.axis_2">
    <g id="ytick_1">
     <g id="line2d_27">
      <defs>
       <path id="me71c11c6ab" d="M 0 0 
L -3.5 0 
" style="stroke: #000000; stroke-width: 0.8"/>
      </defs>
      <g>
       <use xlink:href="#me71c11c6ab" x="141.782308" y="323.986047" style="stroke: #000000; stroke-width: 0.8"/>
      </g>
     </g>
     <g id="text_5">
      <!-- −30 -->
      <g transform="translate(113.67762 327.785266) scale(0.1 -0.1)">
       <defs>
        <path id="DejaVuSans-33" d="M 2597 2516 
Q 3050 2419 3304 2112 
Q 3559 1806 3559 1356 
Q 3559 666 3084 287 
Q 2609 -91 1734 -91 
Q 1441 -91 1130 -33 
Q 819 25 488 141 
L 488 750 
Q 750 597 1062 519 
Q 1375 441 1716 441 
Q 2309 441 2620 675 
Q 2931 909 2931 1356 
Q 2931 1769 2642 2001 
Q 2353 2234 1838 2234 
L 1294 2234 
L 1294 2753 
L 1863 2753 
Q 2328 2753 2575 2939 
Q 2822 3125 2822 3475 
Q 2822 3834 2567 4026 
Q 2313 4219 1838 4219 
Q 1578 4219 1281 4162 
Q 984 4106 628 3988 
L 628 4550 
Q 988 4650 1302 4700 
Q 1616 4750 1894 4750 
Q 2613 4750 3031 4423 
Q 3450 4097 3450 3541 
Q 3450 3153 3228 2886 
Q 3006 2619 2597 2516 
z
" transform="scale(0.015625)"/>
       </defs>
       <use xlink:href="#DejaVuSans-2212"/>
       <use xlink:href="#DejaVuSans-33" x="83.789062"/>
       <use xlink:href="#DejaVuSans-30" x="147.412109"/>
      </g>
     </g>
    </g>
    <g id="ytick_2">
     <g id="line2d_28">
      <g>
       <use xlink:href="#me71c11c6ab" x="141.782308" y="272.223621" style="stroke: #000000; stroke-width: 0.8"/>
      </g>
     </g>
     <g id="text_6">
      <!-- −20 -->
      <g transform="translate(113.67762 276.02284) scale(0.1 -0.1)">
       <use xlink:href="#DejaVuSans-2212"/>
       <use xlink:href="#DejaVuSans-32" x="83.789062"/>
       <use xlink:href="#DejaVuSans-30" x="147.412109"/>
      </g>
     </g>
    </g>
    <g id="ytick_3">
     <g id="line2d_29">
      <g>
       <use xlink:href="#me71c11c6ab" x="141.782308" y="220.461195" style="stroke: #000000; stroke-width: 0.8"/>
      </g>
     </g>
     <g id="text_7">
      <!-- −10 -->
      <g transform="translate(113.67762 224.260414) scale(0.1 -0.1)">
       <use xlink:href="#DejaVuSans-2212"/>
       <use xlink:href="#DejaVuSans-31" x="83.789062"/>
       <use xlink:href="#DejaVuSans-30" x="147.412109"/>
      </g>
     </g>
    </g>
    <g id="ytick_4">
     <g id="line2d_30">
      <g>
       <use xlink:href="#me71c11c6ab" x="141.782308" y="168.698769" style="stroke: #000000; stroke-width: 0.8"/>
      </g>
     </g>
    </g>
    <g id="ytick_5">
     <g id="line2d_31">
      <g>
       <use xlink:href="#me71c11c6ab" x="141.782308" y="116.936343" style="stroke: #000000; stroke-width: 0.8"/>
      </g>
     </g>
     <g id="text_8">
      <!-- 10 -->
      <g transform="translate(122.057308 120.735562) scale(0.1 -0.1)">
       <use xlink:href="#DejaVuSans-31"/>
       <use xlink:href="#DejaVuSans-30" x="63.623047"/>
      </g>
     </g>
    </g>
    <g id="ytick_6">
     <g id="line2d_32">
      <g>
       <use xlink:href="#me71c11c6ab" x="141.782308" y="65.173917" style="stroke: #000000; stroke-width: 0.8"/>
      </g>
     </g>
     <g id="text_9">
      <!-- 20 -->
      <g transform="translate(122.057308 68.973136) scale(0.1 -0.1)">
       <use xlink:href="#DejaVuSans-32"/>
       <use xlink:href="#DejaVuSans-30" x="63.623047"/>
      </g>
     </g>
    </g>
    <g id="ytick_7">
     <g id="line2d_33">
      <g>
       <use xlink:href="#me71c11c6ab" x="141.782308" y="13.411491" style="stroke: #000000; stroke-width: 0.8"/>
      </g>
     </g>
     <g id="text_10">
      <!-- 30 -->
      <g transform="translate(122.057308 17.21071) scale(0.1 -0.1)">
       <use xlink:href="#DejaVuSans-33"/>
       <use xlink:href="#DejaVuSans-30" x="63.623047"/>
      </g>
     </g>
    </g>
    <g id="ytick_8">
     <g id="line2d_34">
      <defs>
       <path id="mb89c84beac" d="M 0 0 
L -2 0 
" style="stroke: #000000; stroke-width: 0.6"/>
      </defs>
      <g>
       <use xlink:href="#mb89c84beac" x="141.782308" y="313.633562" style="stroke: #000000; stroke-width: 0.6"/>
      </g>
     </g>
    </g>
    <g id="ytick_9">
     <g id="line2d_35">
      <g>
       <use xlink:href="#mb89c84beac" x="141.782308" y="303.281077" style="stroke: #000000; stroke-width: 0.6"/>
      </g>
     </g>
    </g>
    <g id="ytick_10">
     <g id="line2d_36">
      <g>
       <use xlink:href="#mb89c84beac" x="141.782308" y="292.928592" style="stroke: #000000; stroke-width: 0.6"/>
      </g>
     </g>
    </g>
    <g id="ytick_11">
     <g id="line2d_37">
      <g>
       <use xlink:href="#mb89c84beac" x="141.782308" y="282.576107" style="stroke: #000000; stroke-width: 0.6"/>
      </g>
     </g>
    </g>
    <g id="ytick_12">
     <g id="line2d_38">
      <g>
       <use xlink:href="#mb89c84beac" x="141.782308" y="261.871136" style="stroke: #000000; stroke-width: 0.6"/>
      </g>
     </g>
    </g>
    <g id="ytick_13">
     <g id="line2d_39">
      <g>
       <use xlink:href="#mb89c84beac" x="141.782308" y="251.518651" style="stroke: #000000; stroke-width: 0.6"/>
      </g>
     </g>
    </g>
    <g id="ytick_14">
     <g id="line2d_40">
      <g>
       <use xlink:href="#mb89c84beac" x="141.782308" y="241.166166" style="stroke: #000000; stroke-width: 0.6"/>
      </g>
     </g>
    </g>
    <g id="ytick_15">
     <g id="line2d_41">
      <g>
       <use xlink:href="#mb89c84beac" x="141.782308" y="230.81368" style="stroke: #000000; stroke-width: 0.6"/>
      </g>
     </g>
    </g>
    <g id="ytick_16">
     <g id="line2d_42">
      <g>
       <use xlink:href="#mb89c84beac" x="141.782308" y="210.10871" style="stroke: #000000; stroke-width: 0.6"/>
      </g>
     </g>
    </g>
    <g id="ytick_17">
     <g id="line2d_43">
      <g>
       <use xlink:href="#mb89c84beac" x="141.782308" y="199.756225" style="stroke: #000000; stroke-width: 0.6"/>
      </g>
     </g>
    </g>
    <g id="ytick_18">
     <g id="line2d_44">
      <g>
       <use xlink:href="#mb89c84beac" x="141.782308" y="189.40374" style="stroke: #000000; stroke-width: 0.6"/>
      </g>
     </g>
    </g>
    <g id="ytick_19">
     <g id="line2d_45">
      <g>
       <use xlink:href="#mb89c84beac" x="141.782308" y="179.051254" style="stroke: #000000; stroke-width: 0.6"/>
      </g>
     </g>
    </g>
    <g id="ytick_20">
     <g id="line2d_46">
      <g>
       <use xlink:href="#mb89c84beac" x="141.782308" y="158.346284" style="stroke: #000000; stroke-width: 0.6"/>
      </g>
     </g>
    </g>
    <g id="ytick_21">
     <g id="line2d_47">
      <g>
       <use xlink:href="#mb89c84beac" x="141.782308" y="147.993799" style="stroke: #000000; stroke-width: 0.6"/>
      </g>
     </g>
    </g>
    <g id="ytick_22">
     <g id="line2d_48">
      <g>
       <use xlink:href="#mb89c84beac" x="141.782308" y="137.641314" style="stroke: #000000; stroke-width: 0.6"/>
      </g>
     </g>
    </g>
    <g id="ytick_23">
     <g id="line2d_49">
      <g>
       <use xlink:href="#mb89c84beac" x="141.782308" y="127.288828" style="stroke: #000000; stroke-width: 0.6"/>
      </g>
     </g>
    </g>
    <g id="ytick_24">
     <g id="line2d_50">
      <g>
       <use xlink:href="#mb89c84beac" x="141.782308" y="106.583858" style="stroke: #000000; stroke-width: 0.6"/>
      </g>
     </g>
    </g>
    <g id="ytick_25">
     <g id="line2d_51">
      <g>
       <use xlink:href="#mb89c84beac" x="141.782308" y="96.231373" style="stroke: #000000; stroke-width: 0.6"/>
      </g>
     </g>
    </g>
    <g id="ytick_26">
     <g id="line2d_52">
      <g>
       <use xlink:href="#mb89c84beac" x="141.782308" y="85.878888" style="stroke: #000000; stroke-width: 0.6"/>
      </g>
     </g>
    </g>
    <g id="ytick_27">
     <g id="line2d_53">
      <g>
       <use xlink:href="#mb89c84beac" x="141.782308" y="75.526402" style="stroke: #000000; stroke-width: 0.6"/>
      </g>
     </g>
    </g>
    <g id="ytick_28">
     <g id="line2d_54">
      <g>
       <use xlink:href="#mb89c84beac" x="141.782308" y="54.821432" style="stroke: #000000; stroke-width: 0.6"/>
      </g>
     </g>
    </g>
    <g id="ytick_29">
     <g id="line2d_55">
      <g>
       <use xlink:href="#mb89c84beac" x="141.782308" y="44.468947" style="stroke: #000000; stroke-width: 0.6"/>
      </g>
     </g>
    </g>
    <g id="ytick_30">
     <g id="line2d_56">
      <g>
       <use xlink:href="#mb89c84beac" x="141.782308" y="34.116462" style="stroke: #000000; stroke-width: 0.6"/>
      </g>
     </g>
    </g>
    <g id="ytick_31">
     <g id="line2d_57">
      <g>
       <use xlink:href="#mb89c84beac" x="141.782308" y="23.763976" style="stroke: #000000; stroke-width: 0.6"/>
      </g>
     </g>
    </g>
   </g>
   <g id="PathCollection_5">
    <path d="M 156.945039 147.55637 
L 156.729102 146.738952 
L 156.134391 145.693247 
L 155.899333 145.390095 
L 155.537811 144.647541 
L 154.885633 143.601835 
L 154.853627 143.558582 
L 154.258489 142.55613 
L 153.807922 141.899439 
L 153.575081 141.510424 
L 152.867818 140.464719 
L 152.762216 140.319529 
L 152.148042 139.419013 
L 151.716511 138.828731 
L 151.391227 138.373308 
L 150.670805 137.413311 
L 150.605655 137.327602 
L 149.801246 136.281896 
L 149.6251 136.051541 
L 148.967738 135.236191 
L 148.579394 134.74238 
L 148.105532 134.190485 
L 147.533688 133.487247 
L 147.217207 133.14478 
L 146.487983 132.280763 
L 146.304613 132.099074 
L 145.442277 131.117778 
L 145.369459 131.053368 
L 144.410127 130.007663 
L 144.396572 129.987121 
L 143.408053 128.961957 
L 143.350866 128.855337 
L 142.362625 127.916252 
L 142.30516 127.339824 
L 141.795444 126.870546 
L 142.30516 126.819246 
L 143.240943 125.824841 
L 143.350866 125.766407 
L 144.362873 124.779135 
L 144.396572 124.75633 
L 145.442277 123.783977 
L 145.486921 123.733429 
L 146.487983 122.836218 
L 146.633089 122.687724 
L 147.533688 121.904217 
L 147.808756 121.642018 
L 148.579394 120.987899 
L 149.01276 120.596313 
L 149.6251 120.086844 
L 150.243688 119.550607 
L 150.670805 119.200649 
L 151.499682 118.504902 
L 151.716511 118.329075 
L 152.762216 117.472761 
L 152.778988 117.459196 
L 153.807922 116.637084 
L 154.092451 116.41349 
L 154.853627 115.811559 
L 155.429904 115.367785 
L 155.899333 114.997215 
L 156.786049 114.322079 
L 156.945039 114.19553 
L 157.990744 113.406292 
L 158.175498 113.276374 
L 159.03645 112.625408 
L 159.599113 112.230668 
L 160.082155 111.855875 
L 161.026648 111.184963 
L 161.127861 111.102476 
L 162.173566 110.349875 
L 162.51401 110.139257 
L 163.219272 109.601265 
L 164.011949 109.093551 
L 164.264978 108.872771 
L 165.310683 108.15633 
L 165.557093 108.047846 
L 166.356389 107.377831 
L 167.241068 107.00214 
L 167.402094 106.477636 
L 167.627323 107.00214 
L 168.4478 107.605397 
L 168.587057 108.047846 
L 169.267716 109.093551 
L 169.493505 109.349283 
L 169.930169 110.139257 
L 170.539211 111.04241 
L 170.610145 111.184963 
L 171.23624 112.230668 
L 171.584917 112.753726 
L 171.869363 113.276374 
L 172.49325 114.322079 
L 172.630622 114.536539 
L 173.090885 115.367785 
L 173.676328 116.373463 
L 173.697097 116.41349 
L 174.267641 117.459196 
L 174.722033 118.268512 
L 174.844057 118.504902 
L 175.397257 119.550607 
L 175.767739 120.241999 
L 175.946896 120.596313 
L 176.47912 121.642018 
L 176.813445 122.29981 
L 177.004062 122.687724 
L 177.513422 123.733429 
L 177.85915 124.452467 
L 178.014882 124.779135 
L 178.500732 125.824841 
L 178.904856 126.711507 
L 178.978852 126.870546 
L 179.441687 127.916252 
L 179.89481 128.961957 
L 179.950561 129.102905 
L 180.336525 130.007663 
L 180.765623 131.053368 
L 180.996267 131.667639 
L 181.183772 132.099074 
L 181.594406 133.14478 
L 181.981323 134.190485 
L 182.041972 134.410996 
L 182.382766 135.236191 
L 182.773306 136.281896 
L 183.087406 137.327602 
L 182.041972 137.949875 
L 181.039658 138.373308 
L 180.996267 138.380843 
L 179.950561 138.712449 
L 178.904856 139.081801 
L 178.034343 139.419013 
L 177.85915 139.468868 
L 176.813445 139.826657 
L 175.767739 140.21017 
L 175.126764 140.464719 
L 174.722033 140.59877 
L 173.676328 140.978895 
L 172.630622 141.381675 
L 172.316199 141.510424 
L 171.584917 141.77702 
L 170.539211 142.181084 
L 169.615954 142.55613 
L 169.493505 142.602157 
L 168.4478 143.012065 
L 167.402094 143.442571 
L 167.021597 143.601835 
L 166.356389 143.873758 
L 165.310683 144.314237 
L 164.533723 144.647541 
L 164.264978 144.766439 
L 163.219272 145.223023 
L 162.173566 145.690645 
L 162.166911 145.693247 
L 161.127861 146.174165 
L 160.082155 146.656683 
L 159.843375 146.738952 
L 159.03645 147.191013 
L 157.990744 147.697863 
L 156.945039 147.55637 
z
" clip-path="url(#pafa137abf5)" style="fill: none; stroke: #add8e6; stroke-width: 1.5"/>
   </g>
   <g id="PathCollection_6">
    <path d="M 156.945039 147.55637 
L 156.729102 146.738952 
L 156.134391 145.693247 
L 155.899333 145.390095 
L 155.537811 144.647541 
L 154.885633 143.601835 
L 154.853627 143.558582 
L 154.258489 142.55613 
L 153.807922 141.899439 
L 153.575081 141.510424 
L 152.867818 140.464719 
L 152.762216 140.319529 
L 152.148042 139.419013 
L 151.716511 138.828731 
L 151.391227 138.373308 
L 150.670805 137.413311 
L 150.605655 137.327602 
L 149.801246 136.281896 
L 149.6251 136.051541 
L 148.967738 135.236191 
L 148.579394 134.74238 
L 148.105532 134.190485 
L 147.533688 133.487247 
L 147.217207 133.14478 
L 146.487983 132.280763 
L 146.304613 132.099074 
L 145.442277 131.117778 
L 145.369459 131.053368 
L 144.410127 130.007663 
L 144.396572 129.987121 
L 143.408053 128.961957 
L 143.350866 128.855337 
L 142.362625 127.916252 
L 142.30516 127.339824 
L 141.795444 126.870546 
L 142.30516 126.819246 
L 143.240943 125.824841 
L 143.350866 125.766407 
L 144.362873 124.779135 
L 144.396572 124.75633 
L 145.442277 123.783977 
L 145.486921 123.733429 
L 146.487983 122.836218 
L 146.633089 122.687724 
L 147.533688 121.904217 
L 147.808756 121.642018 
L 148.579394 120.987899 
L 149.01276 120.596313 
L 149.6251 120.086844 
L 150.243688 119.550607 
L 150.670805 119.200649 
L 151.499682 118.504902 
L 151.716511 118.329075 
L 152.762216 117.472761 
L 152.778988 117.459196 
L 153.807922 116.637084 
L 154.092451 116.41349 
L 154.853627 115.811559 
L 155.429904 115.367785 
L 155.899333 114.997215 
L 156.786049 114.322079 
L 156.945039 114.19553 
L 157.990744 113.406292 
L 158.175498 113.276374 
L 159.03645 112.625408 
L 159.599113 112.230668 
L 160.082155 111.855875 
L 161.026648 111.184963 
L 161.127861 111.102476 
L 162.173566 110.349875 
L 162.51401 110.139257 
L 163.219272 109.601265 
L 164.011949 109.093551 
L 164.264978 108.872771 
L 165.310683 108.15633 
L 165.557093 108.047846 
L 166.356389 107.377831 
L 167.241068 107.00214 
L 167.402094 106.477636 
L 167.627323 107.00214 
L 168.4478 107.605397 
L 168.587057 108.047846 
L 169.267716 109.093551 
L 169.493505 109.349283 
L 169.930169 110.139257 
L 170.539211 111.04241 
L 170.610145 111.184963 
L 171.23624 112.230668 
L 171.584917 112.753726 
L 171.869363 113.276374 
L 172.49325 114.322079 
L 172.630622 114.536539 
L 173.090885 115.367785 
L 173.676328 116.373463 
L 173.697097 116.41349 
L 174.267641 117.459196 
L 174.722033 118.268512 
L 174.844057 118.504902 
L 175.397257 119.550607 
L 175.767739 120.241999 
L 175.946896 120.596313 
L 176.47912 121.642018 
L 176.813445 122.29981 
L 177.004062 122.687724 
L 177.513422 123.733429 
L 177.85915 124.452467 
L 178.014882 124.779135 
L 178.500732 125.824841 
L 178.904856 126.711507 
L 178.978852 126.870546 
L 179.441687 127.916252 
L 179.89481 128.961957 
L 179.950561 129.102905 
L 180.336525 130.007663 
L 180.765623 131.053368 
L 180.996267 131.667639 
L 181.183772 132.099074 
L 181.594406 133.14478 
L 181.981323 134.190485 
L 182.041972 134.410996 
L 182.382766 135.236191 
L 182.773306 136.281896 
L 183.087406 137.327602 
L 182.041972 137.949875 
L 181.039658 138.373308 
L 180.996267 138.380843 
L 179.950561 138.712449 
L 178.904856 139.081801 
L 178.034343 139.419013 
L 177.85915 139.468868 
L 176.813445 139.826657 
L 175.767739 140.21017 
L 175.126764 140.464719 
L 174.722033 140.59877 
L 173.676328 140.978895 
L 172.630622 141.381675 
L 172.316199 141.510424 
L 171.584917 141.77702 
L 170.539211 142.181084 
L 169.615954 142.55613 
L 169.493505 142.602157 
L 168.4478 143.012065 
L 167.402094 143.442571 
L 167.021597 143.601835 
L 166.356389 143.873758 
L 165.310683 144.314237 
L 164.533723 144.647541 
L 164.264978 144.766439 
L 163.219272 145.223023 
L 162.173566 145.690645 
L 162.166911 145.693247 
L 161.127861 146.174165 
L 160.082155 146.656683 
L 159.843375 146.738952 
L 159.03645 147.191013 
L 157.990744 147.697863 
L 156.945039 147.55637 
z
" clip-path="url(#pafa137abf5)" style="fill: none; stroke: #ffffff; stroke-width: 1.5"/>
   </g>
   <g id="PathCollection_7">
    <path d="M 156.945039 147.55637 
L 156.729102 146.738952 
L 156.134391 145.693247 
L 155.899333 145.390095 
L 155.537811 144.647541 
L 154.885633 143.601835 
L 154.853627 143.558582 
L 154.258489 142.55613 
L 153.807922 141.899439 
L 153.575081 141.510424 
L 152.867818 140.464719 
L 152.762216 140.319529 
L 152.148042 139.419013 
L 151.716511 138.828731 
L 151.391227 138.373308 
L 150.670805 137.413311 
L 150.605655 137.327602 
L 149.801246 136.281896 
L 149.6251 136.051541 
L 148.967738 135.236191 
L 148.579394 134.74238 
L 148.105532 134.190485 
L 147.533688 133.487247 
L 147.217207 133.14478 
L 146.487983 132.280763 
L 146.304613 132.099074 
L 145.442277 131.117778 
L 145.369459 131.053368 
L 144.410127 130.007663 
L 144.396572 129.987121 
L 143.408053 128.961957 
L 143.350866 128.855337 
L 142.362625 127.916252 
L 142.30516 127.339824 
L 141.795444 126.870546 
L 142.30516 126.819246 
L 143.240943 125.824841 
L 143.350866 125.766407 
L 144.362873 124.779135 
L 144.396572 124.75633 
L 145.442277 123.783977 
L 145.486921 123.733429 
L 146.487983 122.836218 
L 146.633089 122.687724 
L 147.533688 121.904217 
L 147.808756 121.642018 
L 148.579394 120.987899 
L 149.01276 120.596313 
L 149.6251 120.086844 
L 150.243688 119.550607 
L 150.670805 119.200649 
L 151.499682 118.504902 
L 151.716511 118.329075 
L 152.762216 117.472761 
L 152.778988 117.459196 
L 153.807922 116.637084 
L 154.092451 116.41349 
L 154.853627 115.811559 
L 155.429904 115.367785 
L 155.899333 114.997215 
L 156.786049 114.322079 
L 156.945039 114.19553 
L 157.990744 113.406292 
L 158.175498 113.276374 
L 159.03645 112.625408 
L 159.599113 112.230668 
L 160.082155 111.855875 
L 161.026648 111.184963 
L 161.127861 111.102476 
L 162.173566 110.349875 
L 162.51401 110.139257 
L 163.219272 109.601265 
L 164.011949 109.093551 
L 164.264978 108.872771 
L 165.310683 108.15633 
L 165.557093 108.047846 
L 166.356389 107.377831 
L 167.241068 107.00214 
L 167.402094 106.477636 
L 167.627323 107.00214 
L 168.4478 107.605397 
L 168.587057 108.047846 
L 169.267716 109.093551 
L 169.493505 109.349283 
L 169.930169 110.139257 
L 170.539211 111.04241 
L 170.610145 111.184963 
L 171.23624 112.230668 
L 171.584917 112.753726 
L 171.869363 113.276374 
L 172.49325 114.322079 
L 172.630622 114.536539 
L 173.090885 115.367785 
L 173.676328 116.373463 
L 173.697097 116.41349 
L 174.267641 117.459196 
L 174.722033 118.268512 
L 174.844057 118.504902 
L 175.397257 119.550607 
L 175.767739 120.241999 
L 175.946896 120.596313 
L 176.47912 121.642018 
L 176.813445 122.29981 
L 177.004062 122.687724 
L 177.513422 123.733429 
L 177.85915 124.452467 
L 178.014882 124.779135 
L 178.500732 125.824841 
L 178.904856 126.711507 
L 178.978852 126.870546 
L 179.441687 127.916252 
L 179.89481 128.961957 
L 179.950561 129.102905 
L 180.336525 130.007663 
L 180.765623 131.053368 
L 180.996267 131.667639 
L 181.183772 132.099074 
L 181.594406 133.14478 
L 181.981323 134.190485 
L 182.041972 134.410996 
L 182.382766 135.236191 
L 182.773306 136.281896 
L 183.087406 137.327602 
L 182.041972 137.949875 
L 181.039658 138.373308 
L 180.996267 138.380843 
L 179.950561 138.712449 
L 178.904856 139.081801 
L 178.034343 139.419013 
L 177.85915 139.468868 
L 176.813445 139.826657 
L 175.767739 140.21017 
L 175.126764 140.464719 
L 174.722033 140.59877 
L 173.676328 140.978895 
L 172.630622 141.381675 
L 172.316199 141.510424 
L 171.584917 141.77702 
L 170.539211 142.181084 
L 169.615954 142.55613 
L 169.493505 142.602157 
L 168.4478 143.012065 
L 167.402094 143.442571 
L 167.021597 143.601835 
L 166.356389 143.873758 
L 165.310683 144.314237 
L 164.533723 144.647541 
L 164.264978 144.766439 
L 163.219272 145.223023 
L 162.173566 145.690645 
L 162.166911 145.693247 
L 161.127861 146.174165 
L 160.082155 146.656683 
L 159.843375 146.738952 
L 159.03645 147.191013 
L 157.990744 147.697863 
L 156.945039 147.55637 
z
" clip-path="url(#pafa137abf5)" style="fill: none; stroke: #ffffff; stroke-width: 1.5"/>
   </g>
   <g id="line2d_58">
    <path d="M 12.376243 168.698769 
L 141.781901 168.698769 
L 12.376243 168.698769 
" clip-path="url(#pafa137abf5)" style="fill: none; stroke: #0000ff; stroke-linecap: square"/>
   </g>
   <g id="line2d_59">
    <path d="M 17.552485 220.461195 
L 33.629935 217.1391 
L 48.903753 213.756751 
L 61.799886 210.689335 
L 73.413469 207.721183 
L 84.54859 204.645903 
L 94.1365 201.769587 
L 102.747391 198.954194 
L 109.840003 196.421295 
L 116.784113 193.693986 
L 122.085951 191.392082 
L 126.984101 189.035199 
L 131.008391 186.871484 
L 134.799437 184.56553 
L 137.879983 182.409038 
L 140.392447 180.358571 
L 142.120209 178.707651 
L 143.664636 176.957123 
L 144.906598 175.216868 
L 145.842091 173.506706 
L 146.452303 171.936336 
L 146.786531 170.586002 
L 146.948149 169.162829 
L 146.887036 167.481932 
L 146.615889 166.035164 
L 146.108525 164.503564 
L 145.355168 162.937001 
L 144.378037 161.389224 
L 143.095197 159.755022 
L 141.382453 157.953867 
L 139.399819 156.188641 
L 136.734434 154.149198 
L 133.992934 152.314243 
L 130.497927 150.237547 
L 126.064063 147.899256 
L 121.009878 145.51976 
L 115.265534 143.08231 
L 108.396431 140.442309 
L 101.200042 137.918442 
L 92.61146 135.15395 
L 83.133292 132.346327 
L 71.908529 129.279124 
L 59.362126 126.111431 
L 46.373785 123.063206 
L 31.118953 119.724741 
L 17.552485 116.936343 
L 17.552485 116.936343 
" clip-path="url(#pafa137abf5)" style="fill: none; stroke: #0000ff; stroke-linecap: square"/>
   </g>
   <g id="line2d_60">
    <path d="M 33.081213 272.223621 
L 45.149278 267.278277 
L 56.629953 262.331515 
L 66.570298 257.826952 
L 76.615675 253.030709 
L 86.085941 248.244666 
L 94.994089 243.463587 
L 101.928698 239.518643 
L 109.453437 234.97287 
L 115.834222 230.858246 
L 121.881236 226.690041 
L 127.313995 222.671421 
L 132.332722 218.67273 
L 136.649105 214.957978 
L 140.891623 210.990016 
L 144.592484 207.196103 
L 147.902856 203.453339 
L 150.727203 199.90723 
L 153.104921 196.574308 
L 155.087544 193.454477 
L 157.046459 189.926298 
L 158.676143 186.464966 
L 159.991269 183.076502 
L 160.97374 179.894797 
L 161.752027 176.502192 
L 162.221865 173.387208 
L 162.45026 170.449717 
L 162.47455 167.672037 
L 162.28284 164.583975 
L 161.869204 161.544131 
L 161.226554 158.480502 
L 160.294935 155.223993 
L 159.096074 151.939917 
L 157.67837 148.741985 
L 156.140613 145.772146 
L 154.439983 142.882573 
L 152.400366 139.795537 
L 149.683818 136.135276 
L 146.781271 132.632585 
L 143.50643 129.05042 
L 139.878597 125.426974 
L 135.618882 121.526347 
L 131.038836 117.663916 
L 126.572545 114.160214 
L 120.825149 109.958216 
L 114.667528 105.766853 
L 108.295055 101.704788 
L 101.052314 97.368296 
L 94.220439 93.506672 
L 85.526756 88.862303 
L 76.957463 84.534827 
L 67.984824 80.230232 
L 57.248865 75.340144 
L 46.207646 70.564854 
L 34.876071 65.894367 
L 33.081213 65.173917 
L 33.081213 65.173917 
" clip-path="url(#pafa137abf5)" style="fill: none; stroke: #0000ff; stroke-linecap: square"/>
   </g>
   <g id="line2d_61">
    <path d="M 58.962426 323.986047 
L 69.557235 317.493433 
L 80.034909 310.781113 
L 88.859983 304.871037 
L 97.550608 298.78887 
L 105.115081 293.253314 
L 112.846892 287.328666 
L 119.901477 281.652156 
L 126.798388 275.812095 
L 132.97621 270.296308 
L 138.866633 264.742564 
L 144.252001 259.367813 
L 149.640423 253.650353 
L 154.669565 247.942806 
L 158.958716 242.7282 
L 162.892606 237.599401 
L 166.649909 232.315931 
L 169.945191 227.291302 
L 172.89496 222.396171 
L 175.597927 217.481219 
L 178.256844 212.106743 
L 180.370703 207.303766 
L 182.357313 202.167433 
L 183.866305 197.663552 
L 185.008959 193.719382 
L 186.138937 189.081746 
L 186.912895 185.168213 
L 187.671662 180.09396 
L 188.109272 175.648882 
L 188.337304 171.109503 
L 188.353066 167.003344 
L 188.151147 162.334739 
L 187.758872 158.040472 
L 187.101635 153.334139 
L 186.157251 148.399682 
L 184.990448 143.60932 
L 183.649088 139.043483 
L 181.885808 133.942274 
L 179.985212 129.174348 
L 177.618521 123.941643 
L 175.092788 118.960883 
L 172.385219 114.124062 
L 169.568783 109.510707 
L 166.61354 105.028363 
L 162.975571 99.91042 
L 158.915763 94.615297 
L 154.368923 89.102033 
L 149.568671 83.668527 
L 144.872066 78.669165 
L 139.439773 73.212598 
L 134.043343 68.084628 
L 127.995017 62.631437 
L 121.824977 57.343332 
L 115.024771 51.7919 
L 108.089348 46.389344 
L 100.265766 40.568059 
L 91.222955 34.153018 
L 82.258923 28.082415 
L 72.131392 21.52482 
L 62.241482 15.391549 
L 58.962426 13.411491 
L 58.962426 13.411491 
" clip-path="url(#pafa137abf5)" style="fill: none; stroke: #0000ff; stroke-linecap: square"/>
   </g>
   <g id="line2d_62">
    <path d="M 271.188373 168.698769 
L 141.782397 168.698769 
L 271.188373 168.698769 
" clip-path="url(#pafa137abf5)" style="fill: none; stroke: #ff0000; stroke-linecap: square"/>
   </g>
   <g id="line2d_63">
    <path d="M 266.01213 220.461195 
L 249.006815 216.940392 
L 233.489669 213.48685 
L 220.344474 210.337709 
L 207.779801 207.08692 
L 197.173206 204.111208 
L 187.939574 201.300284 
L 179.248517 198.412583 
L 172.119643 195.815325 
L 165.789077 193.279928 
L 160.960216 191.154325 
L 155.722034 188.593381 
L 151.657078 186.351836 
L 148.436592 184.34967 
L 145.479728 182.253434 
L 142.995566 180.200701 
L 141.18459 178.435208 
L 139.677463 176.673304 
L 138.590708 175.109071 
L 137.726823 173.515954 
L 137.094112 171.877604 
L 136.734953 170.332361 
L 136.606718 168.582487 
L 136.748126 166.98373 
L 137.082333 165.558529 
L 137.723171 163.889441 
L 138.597808 162.277011 
L 139.711405 160.680292 
L 140.990449 159.170992 
L 142.782697 157.390057 
L 144.800092 155.673521 
L 147.257471 153.84828 
L 149.976715 152.060292 
L 153.72912 149.86974 
L 157.688345 147.805996 
L 162.744124 145.435327 
L 168.257729 143.099028 
L 175.111721 140.463004 
L 182.612646 137.835119 
L 191.100829 135.108406 
L 200.741513 132.258098 
L 211.615539 129.289774 
L 223.89719 126.18571 
L 236.277117 123.270956 
L 250.35918 120.167801 
L 266.01213 116.936343 
L 266.01213 116.936343 
" clip-path="url(#pafa137abf5)" style="fill: none; stroke: #ff0000; stroke-linecap: square"/>
   </g>
   <g id="line2d_64">
    <path d="M 250.483402 272.223621 
L 237.28489 266.802265 
L 226.652401 262.206599 
L 215.781858 257.261838 
L 206.547348 252.833282 
L 197.425559 248.21701 
L 188.797703 243.589307 
L 181.110457 239.210725 
L 173.760972 234.753689 
L 167.996492 231.035266 
L 161.91842 226.857635 
L 156.496002 222.85936 
L 151.759958 219.108401 
L 147.032351 215.062453 
L 143.07713 211.383898 
L 139.836815 208.115234 
L 136.655335 204.617676 
L 133.719924 201.057038 
L 131.308142 197.807429 
L 129.282635 194.767175 
L 127.295928 191.392886 
L 125.597888 188.047967 
L 124.266429 184.950545 
L 123.219536 182.018553 
L 122.346805 178.952412 
L 121.720505 175.997197 
L 121.262781 172.617751 
L 121.087905 169.634313 
L 121.119432 166.831621 
L 121.383002 163.667357 
L 121.891621 160.486654 
L 122.605219 157.449814 
L 123.637989 154.136046 
L 124.952813 150.783234 
L 126.571905 147.366646 
L 128.486069 143.928015 
L 130.632589 140.567562 
L 133.022197 137.246077 
L 136.003441 133.539444 
L 139.289622 129.861426 
L 142.480387 126.596536 
L 146.001047 123.265536 
L 149.897517 119.843023 
L 154.533579 116.059982 
L 159.496931 112.290382 
L 165.1032 108.314858 
L 171.37529 104.156764 
L 178.05922 100.002097 
L 185.142303 95.857484 
L 192.551945 91.760362 
L 200.487202 87.601817 
L 209.420989 83.16158 
L 219.861677 78.24819 
L 229.104336 74.111332 
L 240.66816 69.177426 
L 250.483402 65.173917 
L 250.483402 65.173917 
" clip-path="url(#pafa137abf5)" style="fill: none; stroke: #ff0000; stroke-linecap: square"/>
   </g>
   <g id="line2d_65">
    <path d="M 224.602189 323.986047 
L 214.474998 317.785959 
L 205.131736 311.82781 
L 195.87066 305.666537 
L 186.700381 299.279535 
L 178.457653 293.259386 
L 171.870813 288.230876 
L 164.273432 282.154455 
L 156.957389 275.978247 
L 150.331468 270.060404 
L 144.305719 264.361272 
L 138.933123 258.977003 
L 133.966363 253.696591 
L 129.541109 248.698814 
L 124.934374 243.140466 
L 121.453667 238.648428 
L 118.051812 233.960067 
L 114.583538 228.804862 
L 111.284767 223.453074 
L 108.624496 218.721827 
L 106.216194 214.014683 
L 104.160988 209.571194 
L 102.138435 204.666298 
L 100.368473 199.744542 
L 99.020886 195.395664 
L 97.744967 190.492424 
L 96.758287 185.760444 
L 96.072686 181.479331 
L 95.55525 176.879302 
L 95.267534 172.346617 
L 95.207373 167.250986 
L 95.408423 162.409039 
L 95.825289 157.870952 
L 96.482346 153.217147 
L 97.197099 149.388897 
L 98.358421 144.423736 
L 99.749919 139.568448 
L 101.257218 135.091435 
L 103.256159 129.943834 
L 105.377791 125.140763 
L 107.54543 120.727652 
L 110.079093 116.036041 
L 113.276536 110.654049 
L 116.224702 106.100329 
L 119.540443 101.345703 
L 123.258693 96.384788 
L 127.35598 91.285465 
L 131.560529 86.380391 
L 136.579167 80.883554 
L 141.910493 75.398305 
L 147.0943 70.357772 
L 153.404362 64.550804 
L 159.814907 58.965593 
L 166.952372 53.064004 
L 175.008089 46.745748 
L 182.555634 41.109645 
L 191.399963 34.806728 
L 201.099409 28.219164 
L 210.800904 21.925673 
L 220.570794 15.849466 
L 224.602189 13.411491 
L 224.602189 13.411491 
" clip-path="url(#pafa137abf5)" style="fill: none; stroke: #ff0000; stroke-linecap: square"/>
   </g>
   <g id="patch_3">
    <path d="M 141.782308 330.197538 
L 141.782308 7.2 
" style="fill: none; stroke: #000000; stroke-width: 0.8; stroke-linejoin: miter; stroke-linecap: square"/>
   </g>
   <g id="patch_4">
    <path d="M 7.2 168.698769 
L 276.364615 168.698769 
" style="fill: none; stroke: #000000; stroke-width: 0.8; stroke-linejoin: miter; stroke-linecap: square"/>
   </g>
  </g>
 </g>
 <defs>
  <clipPath id="pafa137abf5">
   <rect x="7.2" y="7.2" width="269.164615" height="322.997538"/>
  </clipPath>
 </defs>
</svg>
