<?xml version="1.0" encoding="utf-8" standalone="no"?>
<!DOCTYPE svg PUBLIC "-//W3C//DTD SVG 1.1//EN"
  "http://www.w3.org/Graphics/SVG/1.1/DTD/svg11.dtd">
<svg xmlns:xlink="http://www.w3.org/1999/xlink" width="452.049726pt" height="245.694818pt" viewBox="0 0 452.049726 245.694818" xmlns="http://www.w3.org/2000/svg" version="1.1">
 <metadata>
  <rdf:RDF xmlns:dc="http://purl.org/dc/elements/1.1/" xmlns:cc="http://creativecommons.org/ns#" xmlns:rdf="http://www.w3.org/1999/02/22-rdf-syntax-ns#">
   <cc:Work>
    <dc:type rdf:resource="http://purl.org/dc/dcmitype/StillImage"/>
    <dc:date>2025-02-28T14:52:44.087896</dc:date>
    <dc:format>image/svg+xml</dc:format>
    <dc:creator>
     <cc:Agent>
      <dc:title>Matplotlib v3.6.2, https://matplotlib.org/</dc:title>
     </cc:Agent>
    </dc:creator>
   </cc:Work>
  </rdf:RDF>
 </metadata>
 <defs>
  <style type="text/css">*{stroke-linejoin: round; stroke-linecap: butt}</style>
 </defs>
 <g id="figure_1">
  <g id="patch_1">
   <path d="M 0 245.694818 
L 452.049726 245.694818 
L 452.049726 0 
L 0 0 
z
" style="fill: #ffffff"/>
  </g>
  <g id="axes_1">
   <g id="patch_2">
    <path d="M 7.2 226.024863 
L 444.849726 226.024863 
L 444.849726 7.2 
L 7.2 7.2 
z
" style="fill: #ffffff"/>
   </g>
   <g id="matplotlib.axis_1">
    <g id="xtick_1">
     <g id="line2d_1">
      <defs>
       <path id="m564e0dfe48" d="M 0 0 
L 0 3.5 
" style="stroke: #000000; stroke-width: 0.8"/>
      </defs>
      <g>
       <use xlink:href="#m564e0dfe48" x="15.616341" y="221.816693" style="stroke: #000000; stroke-width: 0.8"/>
      </g>
     </g>
     <g id="text_1">
      <!-- $-R$ -->
      <g transform="translate(7.916341 236.41513) scale(0.1 -0.1)">
       <defs>
        <path id="Cmsy10-a1" d="M 653 1472 
Q 600 1472 565 1512 
Q 531 1553 531 1600 
Q 531 1647 565 1687 
Q 600 1728 653 1728 
L 4325 1728 
Q 4375 1728 4408 1687 
Q 4441 1647 4441 1600 
Q 4441 1553 4408 1512 
Q 4375 1472 4325 1472 
L 653 1472 
z
" transform="scale(0.015625)"/>
        <path id="Cmmi10-52" d="M 313 0 
Q 250 0 250 84 
Q 253 100 262 139 
Q 272 178 289 201 
Q 306 225 331 225 
Q 722 225 878 269 
Q 959 297 997 441 
L 1875 3956 
Q 1888 4019 1888 4044 
Q 1888 4113 1813 4122 
Q 1691 4147 1350 4147 
Q 1288 4147 1288 4231 
Q 1291 4247 1300 4286 
Q 1309 4325 1326 4348 
Q 1344 4372 1369 4372 
L 3309 4372 
Q 3541 4372 3791 4319 
Q 4041 4266 4250 4152 
Q 4459 4038 4593 3848 
Q 4728 3659 4728 3406 
Q 4728 3084 4515 2831 
Q 4303 2578 3978 2408 
Q 3653 2238 3347 2169 
Q 3597 2078 3756 1879 
Q 3916 1681 3916 1422 
Q 3916 1388 3914 1370 
Q 3913 1353 3909 1331 
L 3859 763 
Q 3853 638 3847 550 
Q 3841 463 3841 409 
Q 3841 234 3892 129 
Q 3944 25 4097 25 
Q 4297 25 4448 211 
Q 4600 397 4647 616 
Q 4675 672 4709 672 
L 4769 672 
Q 4831 672 4831 588 
Q 4784 403 4682 237 
Q 4581 72 4426 -34 
Q 4272 -141 4091 -141 
Q 3716 -141 3452 26 
Q 3188 194 3188 550 
Q 3188 684 3213 788 
L 3353 1356 
Q 3378 1434 3378 1538 
Q 3378 1803 3198 1954 
Q 3019 2106 2747 2106 
L 1959 2106 
L 1538 416 
Q 1522 363 1522 325 
Q 1522 259 1600 250 
Q 1722 225 2059 225 
Q 2125 225 2125 141 
Q 2103 50 2090 25 
Q 2078 0 2016 0 
L 313 0 
z
M 1997 2272 
L 2706 2272 
Q 3403 2272 3756 2625 
Q 3919 2788 4014 3039 
Q 4109 3291 4109 3541 
Q 4109 3778 3970 3912 
Q 3831 4047 3626 4097 
Q 3422 4147 3175 4147 
L 2747 4147 
Q 2572 4147 2515 4117 
Q 2459 4088 2413 3928 
L 1997 2272 
z
" transform="scale(0.015625)"/>
       </defs>
       <use xlink:href="#Cmsy10-a1" transform="translate(0 0.6875)"/>
       <use xlink:href="#Cmmi10-52" transform="translate(77.685547 0.6875)"/>
      </g>
     </g>
    </g>
    <g id="xtick_2">
     <g id="line2d_2">
      <g>
       <use xlink:href="#m564e0dfe48" x="162.902306" y="221.816693" style="stroke: #000000; stroke-width: 0.8"/>
      </g>
     </g>
     <g id="text_2">
      <!-- $-\delta$ -->
      <g transform="translate(156.752306 236.41513) scale(0.1 -0.1)">
       <defs>
        <path id="Cmmi10-b1" d="M 1281 -97 
Q 1059 -97 868 -14 
Q 678 69 536 225 
Q 394 381 325 573 
Q 256 766 256 991 
Q 256 1391 445 1767 
Q 634 2144 961 2419 
Q 1288 2694 1672 2791 
Q 1484 3138 1386 3389 
Q 1288 3641 1288 3903 
Q 1288 4097 1378 4245 
Q 1469 4394 1628 4478 
Q 1788 4563 1984 4563 
Q 2175 4563 2741 4434 
Q 2888 4400 2888 4263 
Q 2888 4156 2809 4068 
Q 2731 3981 2625 3981 
Q 2547 3981 2484 4017 
Q 2422 4053 2287 4143 
Q 2153 4234 2047 4282 
Q 1941 4331 1825 4331 
Q 1694 4331 1589 4251 
Q 1484 4172 1484 4044 
Q 1484 3841 1664 3577 
Q 1844 3313 2175 2900 
Q 2553 2419 2553 1838 
Q 2553 1550 2470 1215 
Q 2388 881 2230 584 
Q 2072 288 1826 95 
Q 1581 -97 1281 -97 
z
M 1294 78 
Q 1544 78 1723 337 
Q 1903 597 1995 955 
Q 2088 1313 2088 1556 
Q 2088 2034 1753 2631 
Q 1416 2538 1172 2238 
Q 928 1938 803 1547 
Q 678 1156 678 806 
Q 678 500 837 289 
Q 997 78 1294 78 
z
" transform="scale(0.015625)"/>
       </defs>
       <use xlink:href="#Cmsy10-a1" transform="translate(0 0.703125)"/>
       <use xlink:href="#Cmmi10-b1" transform="translate(77.685547 0.703125)"/>
      </g>
     </g>
    </g>
    <g id="xtick_3">
     <g id="line2d_3">
      <g>
       <use xlink:href="#m564e0dfe48" x="289.14742" y="221.816693" style="stroke: #000000; stroke-width: 0.8"/>
      </g>
     </g>
     <g id="text_3">
      <!-- $\delta$ -->
      <g transform="translate(286.89742 236.41513) scale(0.1 -0.1)">
       <use xlink:href="#Cmmi10-b1" transform="translate(0 0.703125)"/>
      </g>
     </g>
    </g>
    <g id="xtick_4">
     <g id="line2d_4">
      <g>
       <use xlink:href="#m564e0dfe48" x="436.433385" y="221.816693" style="stroke: #000000; stroke-width: 0.8"/>
      </g>
     </g>
     <g id="text_4">
      <!-- $R$ -->
      <g transform="translate(432.633385 236.41513) scale(0.1 -0.1)">
       <use xlink:href="#Cmmi10-52" transform="translate(0 0.6875)"/>
      </g>
     </g>
    </g>
   </g>
   <g id="matplotlib.axis_2"/>
   <g id="line2d_5">
    <path d="M 289.14742 221.816693 
L 289.086116 219.035402 
L 288.733577 214.60044 
L 288.177578 210.794114 
L 287.278647 206.571 
L 286.280942 203.010788 
L 285.022934 199.373769 
L 283.535158 195.797024 
L 281.958448 192.561074 
L 279.689262 188.581328 
L 277.48945 185.267363 
L 275.024497 182.023565 
L 272.869299 179.507639 
L 270.650772 177.173827 
L 267.457096 174.194983 
L 264.652239 171.892921 
L 261.31676 169.481818 
L 257.892165 167.328784 
L 254.588329 165.526502 
L 250.924987 163.812891 
L 246.622253 162.149242 
L 243.027059 161.027035 
L 239.84923 160.226563 
L 235.442733 159.400662 
L 231.856067 158.964054 
L 227.416501 158.709478 
L 222.99762 158.766768 
L 218.426908 159.153081 
L 214.282478 159.795942 
L 210.917229 160.528712 
L 207.902867 161.35141 
L 204.410053 162.510225 
L 200.248472 164.196949 
L 196.531758 166.007967 
L 192.935953 168.061868 
L 189.759656 170.151502 
L 186.798967 172.361801 
L 183.705897 174.981211 
L 180.992874 177.583479 
L 178.301753 180.501296 
L 175.958608 183.374173 
L 173.471891 186.85039 
L 171.186182 190.556874 
L 169.535367 193.649443 
L 167.956557 197.06737 
L 166.635753 200.429997 
L 165.444365 204.08366 
L 164.675124 206.961839 
L 163.882694 210.734815 
L 163.322328 214.546941 
L 162.954207 219.257504 
L 162.902306 221.816693 
L 162.902306 221.816693 
" clip-path="url(#p32e1281ad6)" style="fill: none; stroke: #0000ff; stroke-linecap: square"/>
   </g>
   <g id="line2d_6">
    <path d="M 436.433385 221.816693 
L 436.374307 216.830938 
L 435.877758 206.535699 
L 435.308261 200.086405 
L 434.937596 196.772409 
L 434.024662 190.070355 
L 432.66093 182.152074 
L 431.45834 176.332271 
L 430.045068 170.362808 
L 428.323411 163.963052 
L 427.356112 160.681807 
L 424.978166 153.338014 
L 422.7503 147.178575 
L 419.841957 139.922368 
L 417.44827 134.473544 
L 414.685695 128.656418 
L 411.751893 122.936884 
L 409.159198 118.213789 
L 405.839112 112.552874 
L 400.563974 104.309906 
L 398.44511 101.222312 
L 394.11135 95.251773 
L 390.385267 90.449254 
L 386.350105 85.553847 
L 381.928813 80.516641 
L 376.420052 74.666995 
L 370.400124 68.756148 
L 365.001643 63.83821 
L 357.851241 57.824155 
L 351.511711 52.923836 
L 344.754444 48.107071 
L 337.220902 43.190863 
L 331.287578 39.631328 
L 326.109327 36.736045 
L 319.246566 33.186206 
L 313.555611 30.478996 
L 306.133307 27.254663 
L 299.890365 24.799856 
L 293.132203 22.396656 
L 284.798017 19.783372 
L 274.741151 17.125536 
L 268.447705 15.729214 
L 261.104409 14.353029 
L 254.299076 13.316537 
L 246.664576 12.422929 
L 241.202693 11.956311 
L 233.421029 11.538204 
L 229.100187 11.430646 
L 221.116103 11.465438 
L 214.492935 11.724425 
L 207.355142 12.238097 
L 199.779277 13.051477 
L 193.754863 13.897494 
L 186.796542 15.097354 
L 181.992415 16.067112 
L 175.258312 17.624373 
L 169.199152 19.226997 
L 163.540707 20.900102 
L 154.415506 23.968655 
L 150.729123 25.342018 
L 141.940061 28.939809 
L 135.789045 31.739752 
L 127.635995 35.829121 
L 121.798217 39.036627 
L 118.006879 41.251299 
L 111.864375 45.070747 
L 106.443862 48.692083 
L 98.616654 54.368508 
L 93.379362 58.485993 
L 88.766487 62.342919 
L 81.297961 69.088601 
L 75.536791 74.761987 
L 70.754608 79.820587 
L 64.703501 86.734627 
L 60.739874 91.61447 
L 56.099778 97.731191 
L 51.034527 104.982929 
L 46.229567 112.52169 
L 41.826483 120.117612 
L 38.892652 125.622712 
L 36.540912 130.342224 
L 32.885742 138.335998 
L 30.286957 144.625901 
L 28.220519 150.08673 
L 26.430645 155.229198 
L 24.166776 162.444487 
L 21.793383 171.207912 
L 19.618933 180.971397 
L 18.25358 188.607653 
L 17.175618 196.24837 
L 16.339358 204.38869 
L 15.780003 213.519409 
L 15.616341 221.816693 
L 15.616341 221.816693 
" clip-path="url(#p32e1281ad6)" style="fill: none; stroke: #0000ff; stroke-linecap: square"/>
   </g>
   <g id="line2d_7">
    <path d="M 15.616341 221.816693 
L 436.433385 221.816693 
" clip-path="url(#p32e1281ad6)" style="fill: none; stroke: #0000ff; stroke-width: 1.25; stroke-linecap: square"/>
   </g>
   <g id="patch_3">
    <path d="M 408.243988 116.612431 
Q 407.71342 115.703981 408.310555 116.726408 
" clip-path="url(#p32e1281ad6)" style="fill: none; stroke: #0000ff; stroke-width: 2; stroke-linecap: round"/>
    <path d="M 408.745954 123.420467 
L 408.310555 116.726408 
L 413.927042 120.394524 
L 408.745954 123.420467 
z
" clip-path="url(#p32e1281ad6)" style="fill: #0000ff; stroke: #0000ff; stroke-width: 2; stroke-linecap: round"/>
   </g>
   <g id="patch_4">
    <path d="M 331.229124 39.597567 
Q 330.315414 39.07611 331.343761 39.662991 
" clip-path="url(#p32e1281ad6)" style="fill: none; stroke: #0000ff; stroke-width: 2; stroke-linecap: round"/>
    <path d="M 335.067857 45.242516 
L 331.343761 39.662991 
L 338.041839 40.031429 
L 335.067857 45.242516 
z
" clip-path="url(#p32e1281ad6)" style="fill: #0000ff; stroke: #0000ff; stroke-width: 2; stroke-linecap: round"/>
   </g>
   <g id="patch_5">
    <path d="M 226.024863 11.40817 
Q 224.972838 11.413431 226.156853 11.40751 
" clip-path="url(#p32e1281ad6)" style="fill: none; stroke: #0000ff; stroke-width: 2; stroke-linecap: round"/>
    <path d="M 232.171778 14.377473 
L 226.156853 11.40751 
L 232.141778 8.377548 
L 232.171778 14.377473 
z
" clip-path="url(#p32e1281ad6)" style="fill: #0000ff; stroke: #0000ff; stroke-width: 2; stroke-linecap: round"/>
   </g>
   <g id="patch_6">
    <path d="M 120.820602 39.597567 
Q 119.912152 40.128135 120.934579 39.531001 
" clip-path="url(#p32e1281ad6)" style="fill: none; stroke: #0000ff; stroke-width: 2; stroke-linecap: round"/>
    <path d="M 127.628638 39.095601 
L 120.934579 39.531001 
L 124.602695 33.914514 
L 127.628638 39.095601 
z
" clip-path="url(#p32e1281ad6)" style="fill: #0000ff; stroke: #0000ff; stroke-width: 2; stroke-linecap: round"/>
   </g>
   <g id="patch_7">
    <path d="M 43.805738 116.612431 
Q 43.284281 117.526142 43.871161 116.497795 
" clip-path="url(#p32e1281ad6)" style="fill: none; stroke: #0000ff; stroke-width: 2; stroke-linecap: round"/>
    <path d="M 49.450687 112.773698 
L 43.871161 116.497795 
L 44.239599 109.799717 
L 49.450687 112.773698 
z
" clip-path="url(#p32e1281ad6)" style="fill: #0000ff; stroke: #0000ff; stroke-width: 2; stroke-linecap: round"/>
   </g>
   <g id="patch_8">
    <path d="M 280.690601 190.255414 
Q 280.847038 190.529527 279.895137 188.861583 
" clip-path="url(#p32e1281ad6)" style="fill: none; stroke: #0000ff; stroke-width: 2; stroke-linecap: round"/>
    <path d="M 279.526699 182.163505 
L 279.895137 188.861583 
L 274.315612 185.137486 
L 279.526699 182.163505 
z
" clip-path="url(#p32e1281ad6)" style="fill: #0000ff; stroke: #0000ff; stroke-width: 2; stroke-linecap: round"/>
   </g>
   <g id="patch_9">
    <path d="M 257.586141 167.150955 
Q 257.858676 167.310125 256.200334 166.341593 
" clip-path="url(#p32e1281ad6)" style="fill: none; stroke: #0000ff; stroke-width: 2; stroke-linecap: round"/>
    <path d="M 252.532218 160.725106 
L 256.200334 166.341593 
L 249.506275 165.906194 
L 252.532218 160.725106 
z
" clip-path="url(#p32e1281ad6)" style="fill: #0000ff; stroke: #0000ff; stroke-width: 2; stroke-linecap: round"/>
   </g>
   <g id="patch_10">
    <path d="M 226.024863 158.694136 
Q 226.340471 158.695714 224.420038 158.686112 
" clip-path="url(#p32e1281ad6)" style="fill: none; stroke: #0000ff; stroke-width: 2; stroke-linecap: round"/>
    <path d="M 218.435113 155.656149 
L 224.420038 158.686112 
L 218.405113 161.656074 
L 218.435113 155.656149 
z
" clip-path="url(#p32e1281ad6)" style="fill: #0000ff; stroke: #0000ff; stroke-width: 2; stroke-linecap: round"/>
   </g>
   <g id="patch_11">
    <path d="M 194.463585 167.150955 
Q 194.737698 166.994518 193.069753 167.946418 
" clip-path="url(#p32e1281ad6)" style="fill: none; stroke: #0000ff; stroke-width: 2; stroke-linecap: round"/>
    <path d="M 186.371675 168.314856 
L 193.069753 167.946418 
L 189.345657 173.525944 
L 186.371675 168.314856 
z
" clip-path="url(#p32e1281ad6)" style="fill: #0000ff; stroke: #0000ff; stroke-width: 2; stroke-linecap: round"/>
   </g>
   <g id="patch_12">
    <path d="M 171.359125 190.255414 
Q 171.518296 189.982879 170.549764 191.641221 
" clip-path="url(#p32e1281ad6)" style="fill: none; stroke: #0000ff; stroke-width: 2; stroke-linecap: round"/>
    <path d="M 164.933277 195.309337 
L 170.549764 191.641221 
L 170.114364 198.33528 
L 164.933277 195.309337 
z
" clip-path="url(#p32e1281ad6)" style="fill: #0000ff; stroke: #0000ff; stroke-width: 2; stroke-linecap: round"/>
   </g>
   <g id="patch_13">
    <path d="M 89.259324 221.816693 
Q 90.311366 221.816693 89.127341 221.816693 
" clip-path="url(#p32e1281ad6)" style="fill: none; stroke: #0000ff; stroke-width: 2; stroke-linecap: round"/>
    <path d="M 83.127341 218.816693 
L 89.127341 221.816693 
L 83.127341 224.816693 
L 83.127341 218.816693 
z
" clip-path="url(#p32e1281ad6)" style="fill: #0000ff; stroke: #0000ff; stroke-width: 2; stroke-linecap: round"/>
   </g>
   <g id="patch_14">
    <path d="M 362.790402 221.816693 
Q 363.842445 221.816693 362.65842 221.816693 
" clip-path="url(#p32e1281ad6)" style="fill: none; stroke: #0000ff; stroke-width: 2; stroke-linecap: round"/>
    <path d="M 356.65842 218.816693 
L 362.65842 221.816693 
L 356.65842 224.816693 
L 356.65842 218.816693 
z
" clip-path="url(#p32e1281ad6)" style="fill: #0000ff; stroke: #0000ff; stroke-width: 2; stroke-linecap: round"/>
   </g>
   <g id="patch_15">
    <path d="M 226.024863 226.024863 
L 226.024863 7.2 
" style="fill: none; stroke: #000000; stroke-width: 0.8; stroke-linejoin: miter; stroke-linecap: square"/>
   </g>
   <g id="patch_16">
    <path d="M 7.2 221.816693 
L 444.849726 221.816693 
" style="fill: none; stroke: #000000; stroke-width: 0.8; stroke-linejoin: miter; stroke-linecap: square"/>
   </g>
   <g id="text_5">
    <!-- $\gamma_R$ -->
    <g transform="translate(322.269124 26.151097) scale(0.16 -0.16)">
     <defs>
      <path id="Cmmi10-b0" d="M 1888 -1253 
Q 1888 -1109 1952 -834 
Q 2016 -559 2108 -248 
Q 2200 63 2266 263 
Q 2291 581 2291 744 
Q 2291 1156 2209 1511 
Q 2128 1866 1903 2105 
Q 1678 2344 1275 2344 
Q 1063 2344 852 2253 
Q 641 2163 489 2000 
Q 338 1838 281 1631 
Q 269 1594 231 1594 
L 153 1594 
Q 103 1594 103 1650 
L 103 1672 
Q 175 1959 358 2226 
Q 541 2494 805 2661 
Q 1069 2828 1363 2828 
Q 1663 2828 1881 2625 
Q 2100 2422 2231 2109 
Q 2363 1797 2420 1478 
Q 2478 1159 2478 878 
Q 2800 1753 3200 2534 
L 3297 2741 
Q 3316 2759 3341 2759 
L 3419 2759 
Q 3469 2759 3469 2700 
Q 3469 2688 3456 2663 
L 3359 2463 
Q 3081 1909 2848 1340 
Q 2616 772 2450 244 
Q 2425 28 2354 -347 
Q 2284 -722 2184 -1045 
Q 2084 -1369 1984 -1381 
Q 1888 -1381 1888 -1253 
z
" transform="scale(0.015625)"/>
     </defs>
     <use xlink:href="#Cmmi10-b0" transform="translate(0 0.8125)"/>
     <use xlink:href="#Cmmi10-52" transform="translate(51.708984 -16.19375) scale(0.7)"/>
    </g>
   </g>
   <g id="text_6">
    <!-- $\gamma_\delta$ -->
    <g transform="translate(187.263585 152.39621) scale(0.16 -0.16)">
     <use xlink:href="#Cmmi10-b0" transform="translate(0 0.8125)"/>
     <use xlink:href="#Cmmi10-b1" transform="translate(51.708984 -16.19375) scale(0.7)"/>
    </g>
   </g>
  </g>
 </g>
 <defs>
  <clipPath id="p32e1281ad6">
   <rect x="7.2" y="7.2" width="437.649726" height="218.824863"/>
  </clipPath>
 </defs>
</svg>
