<?xml version="1.0" encoding="utf-8" standalone="no"?>
<!DOCTYPE svg PUBLIC "-//W3C//DTD SVG 1.1//EN"
  "http://www.w3.org/Graphics/SVG/1.1/DTD/svg11.dtd">
<svg xmlns:xlink="http://www.w3.org/1999/xlink" width="319.950173pt" height="337.382317pt" viewBox="0 0 319.950173 337.382317" xmlns="http://www.w3.org/2000/svg" version="1.1">
 <metadata>
  <rdf:RDF xmlns:dc="http://purl.org/dc/elements/1.1/" xmlns:cc="http://creativecommons.org/ns#" xmlns:rdf="http://www.w3.org/1999/02/22-rdf-syntax-ns#">
   <cc:Work>
    <dc:type rdf:resource="http://purl.org/dc/dcmitype/StillImage"/>
    <dc:date>2025-02-09T17:43:01.294183</dc:date>
    <dc:format>image/svg+xml</dc:format>
    <dc:creator>
     <cc:Agent>
      <dc:title>Matplotlib v3.6.2, https://matplotlib.org/</dc:title>
     </cc:Agent>
    </dc:creator>
   </cc:Work>
  </rdf:RDF>
 </metadata>
 <defs>
  <style type="text/css">*{stroke-linejoin: round; stroke-linecap: butt}</style>
 </defs>
 <g id="figure_1">
  <g id="patch_1">
   <path d="M 0 337.382317 
L 319.950173 337.382317 
L 319.950173 0 
L 0 0 
z
" style="fill: #ffffff"/>
  </g>
  <g id="axes_1">
   <g id="patch_2">
    <path d="M 9.221805 330.182317 
L 304.508768 330.182317 
L 304.508768 7.2 
L 9.221805 7.2 
z
" style="fill: #ffffff"/>
   </g>
   <g id="PathCollection_1">
    <path d="M 273.950122 141.684437 
C 274.977249 141.684437 275.962446 141.276355 276.688734 140.550067 
C 277.415023 139.823778 277.823105 138.838581 277.823105 137.811454 
C 277.823105 136.784327 277.415023 135.79913 276.688734 135.072841 
C 275.962446 134.346552 274.977249 133.938471 273.950122 133.938471 
C 272.922995 133.938471 271.937798 134.346552 271.211509 135.072841 
C 270.48522 135.79913 270.077138 136.784327 270.077138 137.811454 
C 270.077138 138.838581 270.48522 139.823778 271.211509 140.550067 
C 271.937798 141.276355 272.922995 141.684437 273.950122 141.684437 
z
" clip-path="url(#pc15ba1b29b)" style="fill: #0000ff"/>
   </g>
   <g id="matplotlib.axis_1">
    <g id="xtick_1">
     <g id="line2d_1">
      <defs>
       <path id="m934da95869" d="M 0 0 
L 0 3.5 
" style="stroke: #000000; stroke-width: 0.8"/>
      </defs>
      <g>
       <use xlink:href="#m934da95869" x="14.9" y="189.339727" style="stroke: #000000; stroke-width: 0.8"/>
      </g>
     </g>
     <g id="text_1">
      <!-- $-R$ -->
      <g transform="translate(7.2 203.938164) scale(0.1 -0.1)">
       <defs>
        <path id="Cmsy10-a1" d="M 653 1472 
Q 600 1472 565 1512 
Q 531 1553 531 1600 
Q 531 1647 565 1687 
Q 600 1728 653 1728 
L 4325 1728 
Q 4375 1728 4408 1687 
Q 4441 1647 4441 1600 
Q 4441 1553 4408 1512 
Q 4375 1472 4325 1472 
L 653 1472 
z
" transform="scale(0.015625)"/>
        <path id="Cmmi10-52" d="M 313 0 
Q 250 0 250 84 
Q 253 100 262 139 
Q 272 178 289 201 
Q 306 225 331 225 
Q 722 225 878 269 
Q 959 297 997 441 
L 1875 3956 
Q 1888 4019 1888 4044 
Q 1888 4113 1813 4122 
Q 1691 4147 1350 4147 
Q 1288 4147 1288 4231 
Q 1291 4247 1300 4286 
Q 1309 4325 1326 4348 
Q 1344 4372 1369 4372 
L 3309 4372 
Q 3541 4372 3791 4319 
Q 4041 4266 4250 4152 
Q 4459 4038 4593 3848 
Q 4728 3659 4728 3406 
Q 4728 3084 4515 2831 
Q 4303 2578 3978 2408 
Q 3653 2238 3347 2169 
Q 3597 2078 3756 1879 
Q 3916 1681 3916 1422 
Q 3916 1388 3914 1370 
Q 3913 1353 3909 1331 
L 3859 763 
Q 3853 638 3847 550 
Q 3841 463 3841 409 
Q 3841 234 3892 129 
Q 3944 25 4097 25 
Q 4297 25 4448 211 
Q 4600 397 4647 616 
Q 4675 672 4709 672 
L 4769 672 
Q 4831 672 4831 588 
Q 4784 403 4682 237 
Q 4581 72 4426 -34 
Q 4272 -141 4091 -141 
Q 3716 -141 3452 26 
Q 3188 194 3188 550 
Q 3188 684 3213 788 
L 3353 1356 
Q 3378 1434 3378 1538 
Q 3378 1803 3198 1954 
Q 3019 2106 2747 2106 
L 1959 2106 
L 1538 416 
Q 1522 363 1522 325 
Q 1522 259 1600 250 
Q 1722 225 2059 225 
Q 2125 225 2125 141 
Q 2103 50 2090 25 
Q 2078 0 2016 0 
L 313 0 
z
M 1997 2272 
L 2706 2272 
Q 3403 2272 3756 2625 
Q 3919 2788 4014 3039 
Q 4109 3291 4109 3541 
Q 4109 3778 3970 3912 
Q 3831 4047 3626 4097 
Q 3422 4147 3175 4147 
L 2747 4147 
Q 2572 4147 2515 4117 
Q 2459 4088 2413 3928 
L 1997 2272 
z
" transform="scale(0.015625)"/>
       </defs>
       <use xlink:href="#Cmsy10-a1" transform="translate(0 0.6875)"/>
       <use xlink:href="#Cmmi10-52" transform="translate(77.685547 0.6875)"/>
      </g>
     </g>
    </g>
    <g id="xtick_2">
     <g id="line2d_2">
      <g>
       <use xlink:href="#m934da95869" x="284.199732" y="189.339727" style="stroke: #000000; stroke-width: 0.8"/>
      </g>
     </g>
     <g id="text_2">
      <!-- $R$ -->
      <g transform="translate(280.399732 203.938164) scale(0.1 -0.1)">
       <use xlink:href="#Cmmi10-52" transform="translate(0 0.6875)"/>
      </g>
     </g>
    </g>
   </g>
   <g id="matplotlib.axis_2">
    <g id="ytick_1">
     <g id="line2d_3">
      <defs>
       <path id="md24f262016" d="M 0 0 
L -3.5 0 
" style="stroke: #000000; stroke-width: 0.8"/>
      </defs>
      <g>
       <use xlink:href="#md24f262016" x="149.549866" y="323.989593" style="stroke: #000000; stroke-width: 0.8"/>
      </g>
     </g>
     <g id="text_3">
      <!-- $-R$ -->
      <g transform="translate(127.149866 327.788812) scale(0.1 -0.1)">
       <use xlink:href="#Cmsy10-a1" transform="translate(0 0.6875)"/>
       <use xlink:href="#Cmmi10-52" transform="translate(77.685547 0.6875)"/>
      </g>
     </g>
    </g>
    <g id="ytick_2">
     <g id="line2d_4">
      <g>
       <use xlink:href="#md24f262016" x="149.549866" y="54.689861" style="stroke: #000000; stroke-width: 0.8"/>
      </g>
     </g>
     <g id="text_4">
      <!-- $R$ -->
      <g transform="translate(134.949866 58.489079) scale(0.1 -0.1)">
       <use xlink:href="#Cmmi10-52" transform="translate(0 0.6875)"/>
      </g>
     </g>
    </g>
   </g>
   <g id="line2d_5">
    <path d="M 284.199732 189.339727 
L 284.082635 183.725409 
L 283.688675 177.61938 
L 282.855222 170.358986 
L 281.95503 164.855873 
L 281.191648 161.037294 
L 279.537999 154.216063 
L 277.893769 148.615912 
L 275.703125 142.265936 
L 274.262141 138.571283 
L 271.848488 133.004714 
L 269.229535 127.635891 
L 266.198361 122.081158 
L 263.332746 117.33943 
L 259.344856 111.393291 
L 255.635291 106.415248 
L 251.538715 101.425785 
L 246.308503 95.700245 
L 241.154101 90.652085 
L 235.956047 86.070378 
L 229.426266 80.940708 
L 223.426059 76.765775 
L 218.973419 73.966607 
L 210.645254 69.34831 
L 202.22882 65.422358 
L 194.175062 62.299661 
L 190.800923 61.164313 
L 186.943183 59.986233 
L 181.934212 58.642211 
L 174.091142 56.945194 
L 168.942913 56.093728 
L 162.799667 55.343349 
L 156.930204 54.892276 
L 152.018264 54.712488 
L 147.376859 54.707396 
L 140.678787 54.982403 
L 136.394965 55.333999 
L 129.258361 56.227589 
L 121.476093 57.648992 
L 114.857244 59.23589 
L 109.804383 60.689492 
L 106.035109 61.915034 
L 100.492316 63.944578 
L 95.214428 66.1397 
L 91.336759 67.923828 
L 84.422157 71.488261 
L 77.349899 75.683441 
L 71.631545 79.524784 
L 68.213771 82.031637 
L 63.893451 85.447643 
L 60.888453 88 
L 56.952425 91.583396 
L 51.292939 97.273649 
L 47.395111 101.618621 
L 43.440811 106.445488 
L 39.521002 111.723778 
L 36.44587 116.277613 
L 33.523082 121.014243 
L 30.318236 126.774523 
L 28.700428 129.959598 
L 25.950551 135.918796 
L 24.128358 140.349607 
L 21.807221 146.767398 
L 19.807056 153.32043 
L 18.729831 157.453917 
L 17.13569 164.904662 
L 16.296232 169.999212 
L 15.465517 177.011959 
L 15.000705 184.133027 
L 14.9004 189.668018 
L 15.033006 195.3231 
L 15.474203 201.761603 
L 15.993089 206.46204 
L 16.873771 212.310147 
L 18.381367 219.7603 
L 19.867437 225.575814 
L 21.708537 231.61479 
L 23.677337 237.159103 
L 25.837667 242.498717 
L 26.384104 243.75279 
L 29.87702 251.056794 
L 32.326744 255.591717 
L 35.609634 261.090755 
L 39.186498 266.479299 
L 43.674775 272.532585 
L 46.313236 275.784997 
L 50.994888 281.086676 
L 54.625941 284.838601 
L 60.108598 289.991831 
L 64.42129 293.664757 
L 70.024584 297.9966 
L 74.760295 301.308948 
L 82.408812 306.055901 
L 86.254727 308.185475 
L 93.533941 311.784827 
L 99.690481 314.418215 
L 105.835442 316.69606 
L 108.81458 317.679989 
L 119.413083 320.573719 
L 121.354887 321.004565 
L 129.557386 322.497104 
L 134.257234 323.118357 
L 144.189335 323.882847 
L 146.942804 323.964352 
L 151.780319 323.971118 
L 157.56086 323.751075 
L 163.625077 323.251918 
L 168.224029 322.688376 
L 173.1189 321.910791 
L 178.175299 320.91165 
L 181.949895 320.033356 
L 188.07122 318.361786 
L 192.872563 316.829846 
L 196.92743 315.379216 
L 203.437598 312.736237 
L 209.665594 309.824936 
L 212.49122 308.37322 
L 219.487216 304.402117 
L 225.297684 300.662925 
L 230.759861 296.74328 
L 236.274043 292.342172 
L 240.93938 288.226244 
L 245.705486 283.598325 
L 248.429716 280.736455 
L 253.5966 274.808222 
L 256.943378 270.563 
L 260.469027 265.677963 
L 264.674873 259.173953 
L 267.471401 254.340482 
L 269.501493 250.5132 
L 271.190711 247.081318 
L 272.99532 243.115245 
L 275.518522 236.905306 
L 277.075886 232.556631 
L 279.192235 225.718879 
L 280.097879 222.321583 
L 281.180751 217.692797 
L 282.017614 213.482683 
L 282.783802 208.815479 
L 283.417329 203.834168 
L 283.77918 199.973527 
L 284.162731 192.496156 
L 284.199732 189.339727 
L 284.199732 189.339727 
" clip-path="url(#pc15ba1b29b)" style="fill: none; stroke: #0000ff; stroke-linecap: square"/>
   </g>
   <g id="patch_3">
    <path d="M 273.950122 137.811454 
Q 248.185985 75.611326 223.277555 15.477056 
" clip-path="url(#pc15ba1b29b)" style="fill: none; stroke: #ff0000; stroke-width: 2; stroke-linecap: round"/>
    <path d="M 222.484992 26.629268 
L 223.277555 15.477056 
L 231.723787 22.802434 
L 222.484992 26.629268 
z
" clip-path="url(#pc15ba1b29b)" style="fill: #ff0000; stroke: #ff0000; stroke-width: 2; stroke-linecap: round"/>
   </g>
   <g id="patch_4">
    <path d="M 149.549866 330.182317 
L 149.549866 7.2 
" style="fill: none; stroke: #000000; stroke-width: 0.8; stroke-linejoin: miter; stroke-linecap: square"/>
   </g>
   <g id="patch_5">
    <path d="M 9.221805 189.339727 
L 304.508768 189.339727 
" style="fill: none; stroke: #000000; stroke-width: 0.8; stroke-linejoin: miter; stroke-linecap: square"/>
   </g>
   <g id="text_5">
    <!-- $\phi(t)$ -->
    <g transform="translate(284.910173 131.505799) scale(0.16 -0.16)">
     <defs>
      <path id="Cmmi10-c1" d="M 1241 -1247 
L 1528 -91 
Q 1203 -91 922 61 
Q 641 213 470 484 
Q 300 756 300 1075 
Q 300 1422 472 1737 
Q 644 2053 942 2311 
Q 1241 2569 1584 2708 
Q 1928 2847 2266 2847 
L 2650 4403 
Q 2663 4441 2700 4441 
L 2778 4441 
Q 2803 4441 2818 4419 
Q 2834 4397 2834 4378 
L 2450 2847 
Q 2691 2847 2916 2759 
Q 3141 2672 3314 2514 
Q 3488 2356 3584 2142 
Q 3681 1928 3681 1684 
Q 3681 1338 3509 1022 
Q 3338 706 3047 453 
Q 2756 200 2398 54 
Q 2041 -91 1716 -91 
L 1422 -1275 
Q 1409 -1313 1369 -1313 
L 1294 -1313 
Q 1269 -1313 1255 -1289 
Q 1241 -1266 1241 -1247 
z
M 1569 78 
L 2222 2681 
Q 2059 2681 1881 2615 
Q 1703 2550 1545 2450 
Q 1388 2350 1259 2222 
Q 1103 2066 984 1853 
Q 866 1641 805 1405 
Q 744 1169 744 941 
Q 744 700 847 503 
Q 950 306 1137 192 
Q 1325 78 1569 78 
z
M 1759 78 
Q 2000 78 2272 215 
Q 2544 353 2719 538 
Q 2959 775 3098 1120 
Q 3238 1466 3238 1819 
Q 3238 2056 3134 2254 
Q 3031 2453 2843 2567 
Q 2656 2681 2413 2681 
L 1759 78 
z
" transform="scale(0.015625)"/>
      <path id="Cmr10-28" d="M 1984 -1588 
Q 1628 -1306 1370 -942 
Q 1113 -578 948 -165 
Q 784 247 703 697 
Q 622 1147 622 1600 
Q 622 2059 703 2509 
Q 784 2959 951 3375 
Q 1119 3791 1378 4153 
Q 1638 4516 1984 4788 
Q 1984 4800 2016 4800 
L 2075 4800 
Q 2094 4800 2109 4783 
Q 2125 4766 2125 4744 
Q 2125 4716 2113 4703 
Q 1800 4397 1592 4047 
Q 1384 3697 1257 3301 
Q 1131 2906 1075 2482 
Q 1019 2059 1019 1600 
Q 1019 -434 2106 -1491 
Q 2125 -1509 2125 -1544 
Q 2125 -1559 2108 -1579 
Q 2091 -1600 2075 -1600 
L 2016 -1600 
Q 1984 -1600 1984 -1588 
z
" transform="scale(0.015625)"/>
      <path id="Cmmi10-74" d="M 397 519 
Q 397 613 416 697 
L 878 2534 
L 206 2534 
Q 141 2534 141 2619 
Q 166 2759 225 2759 
L 934 2759 
L 1191 3803 
Q 1216 3888 1291 3947 
Q 1366 4006 1459 4006 
Q 1541 4006 1595 3957 
Q 1650 3909 1650 3828 
Q 1650 3809 1648 3798 
Q 1647 3788 1644 3775 
L 1388 2759 
L 2047 2759 
Q 2113 2759 2113 2675 
Q 2109 2659 2100 2621 
Q 2091 2584 2075 2559 
Q 2059 2534 2028 2534 
L 1331 2534 
L 872 684 
Q 825 503 825 372 
Q 825 97 1013 97 
Q 1294 97 1511 361 
Q 1728 625 1844 941 
Q 1869 978 1894 978 
L 1972 978 
Q 1997 978 2012 961 
Q 2028 944 2028 922 
Q 2028 909 2022 903 
Q 1881 516 1612 222 
Q 1344 -72 997 -72 
Q 744 -72 570 93 
Q 397 259 397 519 
z
" transform="scale(0.015625)"/>
      <path id="Cmr10-29" d="M 416 -1600 
Q 359 -1600 359 -1544 
Q 359 -1516 372 -1503 
Q 1466 -434 1466 1600 
Q 1466 3634 384 4691 
Q 359 4706 359 4744 
Q 359 4766 376 4783 
Q 394 4800 416 4800 
L 475 4800 
Q 494 4800 506 4788 
Q 966 4425 1272 3906 
Q 1578 3388 1720 2800 
Q 1863 2213 1863 1600 
Q 1863 1147 1786 708 
Q 1709 269 1542 -157 
Q 1375 -584 1119 -945 
Q 863 -1306 506 -1588 
Q 494 -1600 475 -1600 
L 416 -1600 
z
" transform="scale(0.015625)"/>
     </defs>
     <use xlink:href="#Cmmi10-c1"/>
     <use xlink:href="#Cmr10-28" transform="translate(59.521484 0)"/>
     <use xlink:href="#Cmmi10-74" transform="translate(98.339844 0)"/>
     <use xlink:href="#Cmr10-29" transform="translate(134.423828 0)"/>
    </g>
   </g>
   <g id="text_6">
    <!-- $\phi'(t)$ -->
    <g transform="translate(256.186036 69.545672) scale(0.16 -0.16)">
     <defs>
      <path id="Cmsy10-30" d="M 225 347 
Q 184 359 184 409 
L 966 3316 
Q 1003 3434 1093 3506 
Q 1184 3578 1300 3578 
Q 1450 3578 1564 3479 
Q 1678 3381 1678 3231 
Q 1678 3166 1644 3084 
L 488 319 
Q 466 275 428 275 
Q 394 275 320 306 
Q 247 338 225 347 
z
" transform="scale(0.015625)"/>
     </defs>
     <use xlink:href="#Cmmi10-c1" transform="translate(0 0.601562)"/>
     <use xlink:href="#Cmsy10-30" transform="translate(71.117422 38.865625) scale(0.7)"/>
     <use xlink:href="#Cmr10-28" transform="translate(96.73793 0.601562)"/>
     <use xlink:href="#Cmmi10-74" transform="translate(135.556289 0.601562)"/>
     <use xlink:href="#Cmr10-29" transform="translate(171.640273 0.601562)"/>
    </g>
   </g>
  </g>
 </g>
 <defs>
  <clipPath id="pc15ba1b29b">
   <rect x="9.221805" y="7.2" width="295.286964" height="322.982317"/>
  </clipPath>
 </defs>
</svg>
