<?xml version="1.0" encoding="utf-8" standalone="no"?>
<!DOCTYPE svg PUBLIC "-//W3C//DTD SVG 1.1//EN"
  "http://www.w3.org/Graphics/SVG/1.1/DTD/svg11.dtd">
<svg xmlns:xlink="http://www.w3.org/1999/xlink" width="243.825392pt" height="338.4pt" viewBox="0 0 243.825392 338.4" xmlns="http://www.w3.org/2000/svg" version="1.1">
 <metadata>
  <rdf:RDF xmlns:dc="http://purl.org/dc/elements/1.1/" xmlns:cc="http://creativecommons.org/ns#" xmlns:rdf="http://www.w3.org/1999/02/22-rdf-syntax-ns#">
   <cc:Work>
    <dc:type rdf:resource="http://purl.org/dc/dcmitype/StillImage"/>
    <dc:date>2025-01-27T09:44:31.304317</dc:date>
    <dc:format>image/svg+xml</dc:format>
    <dc:creator>
     <cc:Agent>
      <dc:title>Matplotlib v3.6.2, https://matplotlib.org/</dc:title>
     </cc:Agent>
    </dc:creator>
   </cc:Work>
  </rdf:RDF>
 </metadata>
 <defs>
  <style type="text/css">*{stroke-linejoin: round; stroke-linecap: butt}</style>
 </defs>
 <g id="figure_1">
  <g id="patch_1">
   <path d="M 0 338.4 
L 243.825392 338.4 
L 243.825392 0 
L 0 0 
z
" style="fill: #ffffff"/>
  </g>
  <g id="axes_1">
   <g id="patch_2">
    <path d="M 7.2 331.2 
L 236.625392 331.2 
L 236.625392 7.2 
L 7.2 7.2 
z
" style="fill: #ffffff"/>
   </g>
   <g id="PathCollection_1">
    <path d="M 87.085065 151.022573 
L 87.936862 151.330689 
L 88.043425 150.997014 
L 88.728751 150.038743 
L 88.788658 149.986021 
L 89.32728 149.080472 
L 89.640454 148.679777 
L 89.952001 148.122202 
L 90.49225 147.327995 
L 90.582605 147.163931 
L 91.196506 146.20566 
L 91.344046 145.996271 
L 91.80837 145.247389 
L 92.195842 144.668278 
L 92.427652 144.289119 
L 93.047639 143.335638 
L 93.050563 143.330848 
L 93.660318 142.372577 
L 93.899435 142.008521 
L 94.275544 141.414307 
L 94.751231 140.680747 
L 94.89393 140.456036 
L 95.510263 139.497765 
L 95.603027 139.353425 
L 96.124099 138.539494 
L 96.454823 138.023256 
L 96.740365 137.581224 
L 97.306619 136.700432 
L 97.357427 136.622953 
L 97.97231 135.664682 
L 98.158416 135.368168 
L 98.588114 134.706412 
L 99.010212 134.040407 
L 99.204114 133.748141 
L 99.819162 132.78987 
L 99.862008 132.719376 
L 100.436081 131.8316 
L 100.713804 131.381684 
L 101.052619 130.873329 
L 101.5656 130.060856 
L 101.66673 129.915058 
L 102.28297 128.956787 
L 102.417397 128.728146 
L 102.902396 127.998517 
L 103.269193 127.393249 
L 103.518485 127.040246 
L 104.120989 126.088945 
L 104.126357 126.081975 
L 104.753201 125.123705 
L 104.972785 124.721065 
L 105.378616 124.165434 
L 105.824581 123.394526 
L 105.993575 123.207163 
L 106.605612 122.248893 
L 106.676377 121.984755 
L 107.395655 121.290622 
L 106.676377 120.670993 
L 106.459996 120.332351 
L 105.824581 120.061564 
L 104.972785 119.531405 
L 104.770789 119.37408 
L 104.120989 119.056994 
L 103.269193 118.5822 
L 103.001888 118.41581 
L 102.417397 118.142858 
L 101.5656 117.715439 
L 101.07565 117.457539 
L 100.713804 117.302604 
L 99.862008 116.918471 
L 99.010212 116.532123 
L 98.940111 116.499268 
L 98.158416 116.184551 
L 97.306619 115.842546 
L 96.547259 115.540998 
L 96.454823 115.508582 
L 95.603027 115.206631 
L 94.751231 114.911288 
L 93.899435 114.624168 
L 93.774608 114.582727 
L 93.047639 114.363653 
L 92.195842 114.115108 
L 91.344046 113.876431 
L 90.49225 113.648424 
L 90.399183 113.624456 
L 89.640454 113.443751 
L 88.788658 113.251298 
L 87.936862 113.070064 
L 87.085065 112.900477 
L 86.233269 112.742899 
L 85.784757 112.666185 
L 85.381473 112.6014 
L 84.529677 112.47589 
L 83.677881 112.362349 
L 82.826084 112.26098 
L 81.974288 112.171952 
L 81.122492 112.095405 
L 80.270696 112.031454 
L 79.4189 111.98019 
L 78.567104 111.941685 
L 77.715307 111.915991 
L 76.863511 111.903146 
L 76.011715 111.903169 
L 75.159919 111.916063 
L 74.308123 111.941815 
L 73.456326 111.980395 
L 72.60453 112.031749 
L 71.752734 112.095804 
L 70.900938 112.172456 
L 70.049142 112.261569 
L 69.197346 112.362966 
L 68.345549 112.476422 
L 67.493753 112.601645 
L 67.085361 112.666185 
L 66.641957 112.743248 
L 65.790161 112.901496 
L 64.938365 113.071624 
L 64.086568 113.253067 
L 63.234772 113.445075 
L 62.47305 113.624456 
L 62.382976 113.648689 
L 61.53118 113.878918 
L 60.679384 114.118908 
L 59.827588 114.366854 
L 59.094124 114.582727 
L 58.975791 114.625182 
L 58.123995 114.918084 
L 57.272199 115.215196 
L 56.420403 115.510151 
L 56.314966 115.540998 
L 55.568607 115.859537 
L 54.71681 116.209201 
L 53.914827 116.499268 
L 53.865014 116.542171 
L 53.013218 117.135748 
L 52.509051 117.457539 
L 53.013218 117.787277 
L 53.165904 118.41581 
L 53.609997 119.37408 
L 53.865014 119.813745 
L 54.059174 120.332351 
L 54.500074 121.290622 
L 54.71681 121.703869 
L 54.941265 122.248893 
L 55.381852 123.207163 
L 55.568607 123.57788 
L 55.821038 124.165434 
L 56.261338 125.123705 
L 56.420403 125.446756 
L 56.69996 126.081975 
L 57.13984 127.040246 
L 57.272199 127.313331 
L 57.578491 127.998517 
L 58.017802 128.956787 
L 58.123995 129.178646 
L 58.456826 129.915058 
L 58.895411 130.873329 
L 58.975791 131.04315 
L 59.335066 131.8316 
L 59.772745 132.78987 
L 59.827588 132.907027 
L 60.213281 133.748141 
L 60.649833 134.706412 
L 60.679384 134.770303 
L 61.091526 135.664682 
L 61.526663 136.622953 
L 61.53118 136.63286 
L 61.969865 137.581224 
L 62.382976 138.493863 
L 62.404235 138.539494 
L 62.848387 139.497765 
L 63.234772 140.355902 
L 63.282316 140.456036 
L 63.727244 141.414307 
L 64.086568 142.219737 
L 64.16089 142.372577 
L 64.606748 143.330848 
L 64.938365 144.08651 
L 65.040366 144.289119 
L 65.487687 145.247389 
L 65.790161 145.959577 
L 65.922036 146.20566 
L 66.372845 147.163931 
L 66.641957 147.853103 
L 66.812947 148.122202 
L 67.284544 149.080472 
L 67.493753 149.992414 
L 68.345549 149.816174 
L 69.197346 149.441959 
L 70.049142 149.116327 
L 70.138799 149.080472 
L 70.900938 148.867561 
L 71.752734 148.652088 
L 72.60453 148.473126 
L 73.456326 148.332149 
L 74.308123 148.228291 
L 75.159919 148.160119 
L 76.011715 148.126397 
L 76.863511 148.126392 
L 77.715307 148.159992 
L 78.567104 148.227698 
L 79.4189 148.330523 
L 80.270696 148.469783 
L 81.122492 148.646699 
L 81.974288 148.861698 
L 82.723808 149.080472 
L 82.826084 149.113909 
L 83.677881 149.411107 
L 84.529677 149.748053 
L 85.241231 150.038743 
L 85.381473 150.122074 
L 86.233269 150.583794 
L 87.073694 150.997014 
z
" clip-path="url(#pe258006328)" style="fill: #add8e6"/>
   </g>
   <g id="PathCollection_2">
    <path d="M 87.085065 151.022573 
L 87.936862 151.330689 
L 88.043425 150.997014 
L 88.728751 150.038743 
L 88.788658 149.986021 
L 89.32728 149.080472 
L 89.640454 148.679777 
L 89.952001 148.122202 
L 90.49225 147.327995 
L 90.582605 147.163931 
L 91.196506 146.20566 
L 91.344046 145.996271 
L 91.80837 145.247389 
L 92.195842 144.668278 
L 92.427652 144.289119 
L 93.047639 143.335638 
L 93.050563 143.330848 
L 93.660318 142.372577 
L 93.899435 142.008521 
L 94.275544 141.414307 
L 94.751231 140.680747 
L 94.89393 140.456036 
L 95.510263 139.497765 
L 95.603027 139.353425 
L 96.124099 138.539494 
L 96.454823 138.023256 
L 96.740365 137.581224 
L 97.306619 136.700432 
L 97.357427 136.622953 
L 97.97231 135.664682 
L 98.158416 135.368168 
L 98.588114 134.706412 
L 99.010212 134.040407 
L 99.204114 133.748141 
L 99.819162 132.78987 
L 99.862008 132.719376 
L 100.436081 131.8316 
L 100.713804 131.381684 
L 101.052619 130.873329 
L 101.5656 130.060856 
L 101.66673 129.915058 
L 102.28297 128.956787 
L 102.417397 128.728146 
L 102.902396 127.998517 
L 103.269193 127.393249 
L 103.518485 127.040246 
L 104.120989 126.088945 
L 104.126357 126.081975 
L 104.753201 125.123705 
L 104.972785 124.721065 
L 105.378616 124.165434 
L 105.824581 123.394526 
L 105.993575 123.207163 
L 106.605612 122.248893 
L 106.676377 121.984755 
L 107.395655 121.290622 
L 106.676377 120.670993 
L 106.459996 120.332351 
L 105.824581 120.061564 
L 104.972785 119.531405 
L 104.770789 119.37408 
L 104.120989 119.056994 
L 103.269193 118.5822 
L 103.001888 118.41581 
L 102.417397 118.142858 
L 101.5656 117.715439 
L 101.07565 117.457539 
L 100.713804 117.302604 
L 99.862008 116.918471 
L 99.010212 116.532123 
L 98.940111 116.499268 
L 98.158416 116.184551 
L 97.306619 115.842546 
L 96.547259 115.540998 
L 96.454823 115.508582 
L 95.603027 115.206631 
L 94.751231 114.911288 
L 93.899435 114.624168 
L 93.774608 114.582727 
L 93.047639 114.363653 
L 92.195842 114.115108 
L 91.344046 113.876431 
L 90.49225 113.648424 
L 90.399183 113.624456 
L 89.640454 113.443751 
L 88.788658 113.251298 
L 87.936862 113.070064 
L 87.085065 112.900477 
L 86.233269 112.742899 
L 85.784757 112.666185 
L 85.381473 112.6014 
L 84.529677 112.47589 
L 83.677881 112.362349 
L 82.826084 112.26098 
L 81.974288 112.171952 
L 81.122492 112.095405 
L 80.270696 112.031454 
L 79.4189 111.98019 
L 78.567104 111.941685 
L 77.715307 111.915991 
L 76.863511 111.903146 
L 76.011715 111.903169 
L 75.159919 111.916063 
L 74.308123 111.941815 
L 73.456326 111.980395 
L 72.60453 112.031749 
L 71.752734 112.095804 
L 70.900938 112.172456 
L 70.049142 112.261569 
L 69.197346 112.362966 
L 68.345549 112.476422 
L 67.493753 112.601645 
L 67.085361 112.666185 
L 66.641957 112.743248 
L 65.790161 112.901496 
L 64.938365 113.071624 
L 64.086568 113.253067 
L 63.234772 113.445075 
L 62.47305 113.624456 
L 62.382976 113.648689 
L 61.53118 113.878918 
L 60.679384 114.118908 
L 59.827588 114.366854 
L 59.094124 114.582727 
L 58.975791 114.625182 
L 58.123995 114.918084 
L 57.272199 115.215196 
L 56.420403 115.510151 
L 56.314966 115.540998 
L 55.568607 115.859537 
L 54.71681 116.209201 
L 53.914827 116.499268 
L 53.865014 116.542171 
L 53.013218 117.135748 
L 52.509051 117.457539 
L 53.013218 117.787277 
L 53.165904 118.41581 
L 53.609997 119.37408 
L 53.865014 119.813745 
L 54.059174 120.332351 
L 54.500074 121.290622 
L 54.71681 121.703869 
L 54.941265 122.248893 
L 55.381852 123.207163 
L 55.568607 123.57788 
L 55.821038 124.165434 
L 56.261338 125.123705 
L 56.420403 125.446756 
L 56.69996 126.081975 
L 57.13984 127.040246 
L 57.272199 127.313331 
L 57.578491 127.998517 
L 58.017802 128.956787 
L 58.123995 129.178646 
L 58.456826 129.915058 
L 58.895411 130.873329 
L 58.975791 131.04315 
L 59.335066 131.8316 
L 59.772745 132.78987 
L 59.827588 132.907027 
L 60.213281 133.748141 
L 60.649833 134.706412 
L 60.679384 134.770303 
L 61.091526 135.664682 
L 61.526663 136.622953 
L 61.53118 136.63286 
L 61.969865 137.581224 
L 62.382976 138.493863 
L 62.404235 138.539494 
L 62.848387 139.497765 
L 63.234772 140.355902 
L 63.282316 140.456036 
L 63.727244 141.414307 
L 64.086568 142.219737 
L 64.16089 142.372577 
L 64.606748 143.330848 
L 64.938365 144.08651 
L 65.040366 144.289119 
L 65.487687 145.247389 
L 65.790161 145.959577 
L 65.922036 146.20566 
L 66.372845 147.163931 
L 66.641957 147.853103 
L 66.812947 148.122202 
L 67.284544 149.080472 
L 67.493753 149.992414 
L 68.345549 149.816174 
L 69.197346 149.441959 
L 70.049142 149.116327 
L 70.138799 149.080472 
L 70.900938 148.867561 
L 71.752734 148.652088 
L 72.60453 148.473126 
L 73.456326 148.332149 
L 74.308123 148.228291 
L 75.159919 148.160119 
L 76.011715 148.126397 
L 76.863511 148.126392 
L 77.715307 148.159992 
L 78.567104 148.227698 
L 79.4189 148.330523 
L 80.270696 148.469783 
L 81.122492 148.646699 
L 81.974288 148.861698 
L 82.723808 149.080472 
L 82.826084 149.113909 
L 83.677881 149.411107 
L 84.529677 149.748053 
L 85.241231 150.038743 
L 85.381473 150.122074 
L 86.233269 150.583794 
L 87.073694 150.997014 
z
M 87.073694 150.997014 
L 86.233269 150.583794 
L 85.381473 150.122074 
L 85.241231 150.038743 
L 84.529677 149.748053 
L 83.677881 149.411107 
L 82.826084 149.113909 
L 82.723808 149.080472 
L 81.974288 148.861698 
L 81.122492 148.646699 
L 80.270696 148.469783 
L 79.4189 148.330523 
L 78.567104 148.227698 
L 77.715307 148.159992 
L 76.863511 148.126392 
L 76.011715 148.126397 
L 75.159919 148.160119 
L 74.308123 148.228291 
L 73.456326 148.332149 
L 72.60453 148.473126 
L 71.752734 148.652088 
L 70.900938 148.867561 
L 70.138799 149.080472 
L 70.049142 149.116327 
L 69.197346 149.441959 
L 68.345549 149.816174 
L 67.493753 149.992414 
L 67.284544 149.080472 
L 66.812947 148.122202 
L 66.641957 147.853103 
L 66.372845 147.163931 
L 65.922036 146.20566 
L 65.790161 145.959577 
L 65.487687 145.247389 
L 65.040366 144.289119 
L 64.938365 144.08651 
L 64.606748 143.330848 
L 64.16089 142.372577 
L 64.086568 142.219737 
L 63.727244 141.414307 
L 63.282316 140.456036 
L 63.234772 140.355902 
L 62.848387 139.497765 
L 62.404235 138.539494 
L 62.382976 138.493863 
L 61.969865 137.581224 
L 61.53118 136.63286 
L 61.526663 136.622953 
L 61.091526 135.664682 
L 60.679384 134.770303 
L 60.649833 134.706412 
L 60.213281 133.748141 
L 59.827588 132.907027 
L 59.772745 132.78987 
L 59.335066 131.8316 
L 58.975791 131.04315 
L 58.895411 130.873329 
L 58.456826 129.915058 
L 58.123995 129.178646 
L 58.017802 128.956787 
L 57.578491 127.998517 
L 57.272199 127.313331 
L 57.13984 127.040246 
L 56.69996 126.081975 
L 56.420403 125.446756 
L 56.261338 125.123705 
L 55.821038 124.165434 
L 55.568607 123.57788 
L 55.381852 123.207163 
L 54.941265 122.248893 
L 54.71681 121.703869 
L 54.500074 121.290622 
L 54.059174 120.332351 
L 53.865014 119.813745 
L 53.609997 119.37408 
L 53.165904 118.41581 
L 53.013218 117.787277 
L 52.509051 117.457539 
L 53.013218 117.135748 
L 53.865014 116.542171 
L 53.914827 116.499268 
L 54.71681 116.209201 
L 55.568607 115.859537 
L 56.314966 115.540998 
L 56.420403 115.510151 
L 57.272199 115.215196 
L 58.123995 114.918084 
L 58.975791 114.625182 
L 59.094124 114.582727 
L 59.827588 114.366854 
L 60.679384 114.118908 
L 61.53118 113.878918 
L 62.382976 113.648689 
L 62.47305 113.624456 
L 63.234772 113.445075 
L 64.086568 113.253067 
L 64.938365 113.071624 
L 65.790161 112.901496 
L 66.641957 112.743248 
L 67.085361 112.666185 
L 67.493753 112.601645 
L 68.345549 112.476422 
L 69.197346 112.362966 
L 70.049142 112.261569 
L 70.900938 112.172456 
L 71.752734 112.095804 
L 72.60453 112.031749 
L 73.456326 111.980395 
L 74.308123 111.941815 
L 75.159919 111.916063 
L 76.011715 111.903169 
L 76.863511 111.903146 
L 77.715307 111.915991 
L 78.567104 111.941685 
L 79.4189 111.98019 
L 80.270696 112.031454 
L 81.122492 112.095405 
L 81.974288 112.171952 
L 82.826084 112.26098 
L 83.677881 112.362349 
L 84.529677 112.47589 
L 85.381473 112.6014 
L 85.784757 112.666185 
L 86.233269 112.742899 
L 87.085065 112.900477 
L 87.936862 113.070064 
L 88.788658 113.251298 
L 89.640454 113.443751 
L 90.399183 113.624456 
L 90.49225 113.648424 
L 91.344046 113.876431 
L 92.195842 114.115108 
L 93.047639 114.363653 
L 93.774608 114.582727 
L 93.899435 114.624168 
L 94.751231 114.911288 
L 95.603027 115.206631 
L 96.454823 115.508582 
L 96.547259 115.540998 
L 97.306619 115.842546 
L 98.158416 116.184551 
L 98.940111 116.499268 
L 99.010212 116.532123 
L 99.862008 116.918471 
L 100.713804 117.302604 
L 101.07565 117.457539 
L 101.5656 117.715439 
L 102.417397 118.142858 
L 103.001888 118.41581 
L 103.269193 118.5822 
L 104.120989 119.056994 
L 104.770789 119.37408 
L 104.972785 119.531405 
L 105.824581 120.061564 
L 106.459996 120.332351 
L 106.676377 120.670993 
L 107.395655 121.290622 
L 106.676377 121.984755 
L 106.605612 122.248893 
L 105.993575 123.207163 
L 105.824581 123.394526 
L 105.378616 124.165434 
L 104.972785 124.721065 
L 104.753201 125.123705 
L 104.126357 126.081975 
L 104.120989 126.088945 
L 103.518485 127.040246 
L 103.269193 127.393249 
L 102.902396 127.998517 
L 102.417397 128.728146 
L 102.28297 128.956787 
L 101.66673 129.915058 
L 101.5656 130.060856 
L 101.052619 130.873329 
L 100.713804 131.381684 
L 100.436081 131.8316 
L 99.862008 132.719376 
L 99.819162 132.78987 
L 99.204114 133.748141 
L 99.010212 134.040407 
L 98.588114 134.706412 
L 98.158416 135.368168 
L 97.97231 135.664682 
L 97.357427 136.622953 
L 97.306619 136.700432 
L 96.740365 137.581224 
L 96.454823 138.023256 
L 96.124099 138.539494 
L 95.603027 139.353425 
L 95.510263 139.497765 
L 94.89393 140.456036 
L 94.751231 140.680747 
L 94.275544 141.414307 
L 93.899435 142.008521 
L 93.660318 142.372577 
L 93.050563 143.330848 
L 93.047639 143.335638 
L 92.427652 144.289119 
L 92.195842 144.668278 
L 91.80837 145.247389 
L 91.344046 145.996271 
L 91.196506 146.20566 
L 90.582605 147.163931 
L 90.49225 147.327995 
L 89.952001 148.122202 
L 89.640454 148.679777 
L 89.32728 149.080472 
L 88.788658 149.986021 
L 88.728751 150.038743 
L 88.043425 150.997014 
L 87.936862 151.330689 
L 87.085065 151.022573 
z
" clip-path="url(#pe258006328)" style="fill: #add8e6"/>
   </g>
   <g id="PathCollection_3">
    <path d="M 87.085065 151.022573 
L 87.936862 151.330689 
L 88.043425 150.997014 
L 88.728751 150.038743 
L 88.788658 149.986021 
L 89.32728 149.080472 
L 89.640454 148.679777 
L 89.952001 148.122202 
L 90.49225 147.327995 
L 90.582605 147.163931 
L 91.196506 146.20566 
L 91.344046 145.996271 
L 91.80837 145.247389 
L 92.195842 144.668278 
L 92.427652 144.289119 
L 93.047639 143.335638 
L 93.050563 143.330848 
L 93.660318 142.372577 
L 93.899435 142.008521 
L 94.275544 141.414307 
L 94.751231 140.680747 
L 94.89393 140.456036 
L 95.510263 139.497765 
L 95.603027 139.353425 
L 96.124099 138.539494 
L 96.454823 138.023256 
L 96.740365 137.581224 
L 97.306619 136.700432 
L 97.357427 136.622953 
L 97.97231 135.664682 
L 98.158416 135.368168 
L 98.588114 134.706412 
L 99.010212 134.040407 
L 99.204114 133.748141 
L 99.819162 132.78987 
L 99.862008 132.719376 
L 100.436081 131.8316 
L 100.713804 131.381684 
L 101.052619 130.873329 
L 101.5656 130.060856 
L 101.66673 129.915058 
L 102.28297 128.956787 
L 102.417397 128.728146 
L 102.902396 127.998517 
L 103.269193 127.393249 
L 103.518485 127.040246 
L 104.120989 126.088945 
L 104.126357 126.081975 
L 104.753201 125.123705 
L 104.972785 124.721065 
L 105.378616 124.165434 
L 105.824581 123.394526 
L 105.993575 123.207163 
L 106.605612 122.248893 
L 106.676377 121.984755 
L 107.395655 121.290622 
L 106.676377 120.670993 
L 106.459996 120.332351 
L 105.824581 120.061564 
L 104.972785 119.531405 
L 104.770789 119.37408 
L 104.120989 119.056994 
L 103.269193 118.5822 
L 103.001888 118.41581 
L 102.417397 118.142858 
L 101.5656 117.715439 
L 101.07565 117.457539 
L 100.713804 117.302604 
L 99.862008 116.918471 
L 99.010212 116.532123 
L 98.940111 116.499268 
L 98.158416 116.184551 
L 97.306619 115.842546 
L 96.547259 115.540998 
L 96.454823 115.508582 
L 95.603027 115.206631 
L 94.751231 114.911288 
L 93.899435 114.624168 
L 93.774608 114.582727 
L 93.047639 114.363653 
L 92.195842 114.115108 
L 91.344046 113.876431 
L 90.49225 113.648424 
L 90.399183 113.624456 
L 89.640454 113.443751 
L 88.788658 113.251298 
L 87.936862 113.070064 
L 87.085065 112.900477 
L 86.233269 112.742899 
L 85.784757 112.666185 
L 85.381473 112.6014 
L 84.529677 112.47589 
L 83.677881 112.362349 
L 82.826084 112.26098 
L 81.974288 112.171952 
L 81.122492 112.095405 
L 80.270696 112.031454 
L 79.4189 111.98019 
L 78.567104 111.941685 
L 77.715307 111.915991 
L 76.863511 111.903146 
L 76.011715 111.903169 
L 75.159919 111.916063 
L 74.308123 111.941815 
L 73.456326 111.980395 
L 72.60453 112.031749 
L 71.752734 112.095804 
L 70.900938 112.172456 
L 70.049142 112.261569 
L 69.197346 112.362966 
L 68.345549 112.476422 
L 67.493753 112.601645 
L 67.085361 112.666185 
L 66.641957 112.743248 
L 65.790161 112.901496 
L 64.938365 113.071624 
L 64.086568 113.253067 
L 63.234772 113.445075 
L 62.47305 113.624456 
L 62.382976 113.648689 
L 61.53118 113.878918 
L 60.679384 114.118908 
L 59.827588 114.366854 
L 59.094124 114.582727 
L 58.975791 114.625182 
L 58.123995 114.918084 
L 57.272199 115.215196 
L 56.420403 115.510151 
L 56.314966 115.540998 
L 55.568607 115.859537 
L 54.71681 116.209201 
L 53.914827 116.499268 
L 53.865014 116.542171 
L 53.013218 117.135748 
L 52.509051 117.457539 
L 53.013218 117.787277 
L 53.165904 118.41581 
L 53.609997 119.37408 
L 53.865014 119.813745 
L 54.059174 120.332351 
L 54.500074 121.290622 
L 54.71681 121.703869 
L 54.941265 122.248893 
L 55.381852 123.207163 
L 55.568607 123.57788 
L 55.821038 124.165434 
L 56.261338 125.123705 
L 56.420403 125.446756 
L 56.69996 126.081975 
L 57.13984 127.040246 
L 57.272199 127.313331 
L 57.578491 127.998517 
L 58.017802 128.956787 
L 58.123995 129.178646 
L 58.456826 129.915058 
L 58.895411 130.873329 
L 58.975791 131.04315 
L 59.335066 131.8316 
L 59.772745 132.78987 
L 59.827588 132.907027 
L 60.213281 133.748141 
L 60.649833 134.706412 
L 60.679384 134.770303 
L 61.091526 135.664682 
L 61.526663 136.622953 
L 61.53118 136.63286 
L 61.969865 137.581224 
L 62.382976 138.493863 
L 62.404235 138.539494 
L 62.848387 139.497765 
L 63.234772 140.355902 
L 63.282316 140.456036 
L 63.727244 141.414307 
L 64.086568 142.219737 
L 64.16089 142.372577 
L 64.606748 143.330848 
L 64.938365 144.08651 
L 65.040366 144.289119 
L 65.487687 145.247389 
L 65.790161 145.959577 
L 65.922036 146.20566 
L 66.372845 147.163931 
L 66.641957 147.853103 
L 66.812947 148.122202 
L 67.284544 149.080472 
L 67.493753 149.992414 
L 68.345549 149.816174 
L 69.197346 149.441959 
L 70.049142 149.116327 
L 70.138799 149.080472 
L 70.900938 148.867561 
L 71.752734 148.652088 
L 72.60453 148.473126 
L 73.456326 148.332149 
L 74.308123 148.228291 
L 75.159919 148.160119 
L 76.011715 148.126397 
L 76.863511 148.126392 
L 77.715307 148.159992 
L 78.567104 148.227698 
L 79.4189 148.330523 
L 80.270696 148.469783 
L 81.122492 148.646699 
L 81.974288 148.861698 
L 82.723808 149.080472 
L 82.826084 149.113909 
L 83.677881 149.411107 
L 84.529677 149.748053 
L 85.241231 150.038743 
L 85.381473 150.122074 
L 86.233269 150.583794 
L 87.073694 150.997014 
z
M 87.073694 150.997014 
L 86.233269 150.583794 
L 85.381473 150.122074 
L 85.241231 150.038743 
L 84.529677 149.748053 
L 83.677881 149.411107 
L 82.826084 149.113909 
L 82.723808 149.080472 
L 81.974288 148.861698 
L 81.122492 148.646699 
L 80.270696 148.469783 
L 79.4189 148.330523 
L 78.567104 148.227698 
L 77.715307 148.159992 
L 76.863511 148.126392 
L 76.011715 148.126397 
L 75.159919 148.160119 
L 74.308123 148.228291 
L 73.456326 148.332149 
L 72.60453 148.473126 
L 71.752734 148.652088 
L 70.900938 148.867561 
L 70.138799 149.080472 
L 70.049142 149.116327 
L 69.197346 149.441959 
L 68.345549 149.816174 
L 67.493753 149.992414 
L 67.284544 149.080472 
L 66.812947 148.122202 
L 66.641957 147.853103 
L 66.372845 147.163931 
L 65.922036 146.20566 
L 65.790161 145.959577 
L 65.487687 145.247389 
L 65.040366 144.289119 
L 64.938365 144.08651 
L 64.606748 143.330848 
L 64.16089 142.372577 
L 64.086568 142.219737 
L 63.727244 141.414307 
L 63.282316 140.456036 
L 63.234772 140.355902 
L 62.848387 139.497765 
L 62.404235 138.539494 
L 62.382976 138.493863 
L 61.969865 137.581224 
L 61.53118 136.63286 
L 61.526663 136.622953 
L 61.091526 135.664682 
L 60.679384 134.770303 
L 60.649833 134.706412 
L 60.213281 133.748141 
L 59.827588 132.907027 
L 59.772745 132.78987 
L 59.335066 131.8316 
L 58.975791 131.04315 
L 58.895411 130.873329 
L 58.456826 129.915058 
L 58.123995 129.178646 
L 58.017802 128.956787 
L 57.578491 127.998517 
L 57.272199 127.313331 
L 57.13984 127.040246 
L 56.69996 126.081975 
L 56.420403 125.446756 
L 56.261338 125.123705 
L 55.821038 124.165434 
L 55.568607 123.57788 
L 55.381852 123.207163 
L 54.941265 122.248893 
L 54.71681 121.703869 
L 54.500074 121.290622 
L 54.059174 120.332351 
L 53.865014 119.813745 
L 53.609997 119.37408 
L 53.165904 118.41581 
L 53.013218 117.787277 
L 52.509051 117.457539 
L 53.013218 117.135748 
L 53.865014 116.542171 
L 53.914827 116.499268 
L 54.71681 116.209201 
L 55.568607 115.859537 
L 56.314966 115.540998 
L 56.420403 115.510151 
L 57.272199 115.215196 
L 58.123995 114.918084 
L 58.975791 114.625182 
L 59.094124 114.582727 
L 59.827588 114.366854 
L 60.679384 114.118908 
L 61.53118 113.878918 
L 62.382976 113.648689 
L 62.47305 113.624456 
L 63.234772 113.445075 
L 64.086568 113.253067 
L 64.938365 113.071624 
L 65.790161 112.901496 
L 66.641957 112.743248 
L 67.085361 112.666185 
L 67.493753 112.601645 
L 68.345549 112.476422 
L 69.197346 112.362966 
L 70.049142 112.261569 
L 70.900938 112.172456 
L 71.752734 112.095804 
L 72.60453 112.031749 
L 73.456326 111.980395 
L 74.308123 111.941815 
L 75.159919 111.916063 
L 76.011715 111.903169 
L 76.863511 111.903146 
L 77.715307 111.915991 
L 78.567104 111.941685 
L 79.4189 111.98019 
L 80.270696 112.031454 
L 81.122492 112.095405 
L 81.974288 112.171952 
L 82.826084 112.26098 
L 83.677881 112.362349 
L 84.529677 112.47589 
L 85.381473 112.6014 
L 85.784757 112.666185 
L 86.233269 112.742899 
L 87.085065 112.900477 
L 87.936862 113.070064 
L 88.788658 113.251298 
L 89.640454 113.443751 
L 90.399183 113.624456 
L 90.49225 113.648424 
L 91.344046 113.876431 
L 92.195842 114.115108 
L 93.047639 114.363653 
L 93.774608 114.582727 
L 93.899435 114.624168 
L 94.751231 114.911288 
L 95.603027 115.206631 
L 96.454823 115.508582 
L 96.547259 115.540998 
L 97.306619 115.842546 
L 98.158416 116.184551 
L 98.940111 116.499268 
L 99.010212 116.532123 
L 99.862008 116.918471 
L 100.713804 117.302604 
L 101.07565 117.457539 
L 101.5656 117.715439 
L 102.417397 118.142858 
L 103.001888 118.41581 
L 103.269193 118.5822 
L 104.120989 119.056994 
L 104.770789 119.37408 
L 104.972785 119.531405 
L 105.824581 120.061564 
L 106.459996 120.332351 
L 106.676377 120.670993 
L 107.395655 121.290622 
L 106.676377 121.984755 
L 106.605612 122.248893 
L 105.993575 123.207163 
L 105.824581 123.394526 
L 105.378616 124.165434 
L 104.972785 124.721065 
L 104.753201 125.123705 
L 104.126357 126.081975 
L 104.120989 126.088945 
L 103.518485 127.040246 
L 103.269193 127.393249 
L 102.902396 127.998517 
L 102.417397 128.728146 
L 102.28297 128.956787 
L 101.66673 129.915058 
L 101.5656 130.060856 
L 101.052619 130.873329 
L 100.713804 131.381684 
L 100.436081 131.8316 
L 99.862008 132.719376 
L 99.819162 132.78987 
L 99.204114 133.748141 
L 99.010212 134.040407 
L 98.588114 134.706412 
L 98.158416 135.368168 
L 97.97231 135.664682 
L 97.357427 136.622953 
L 97.306619 136.700432 
L 96.740365 137.581224 
L 96.454823 138.023256 
L 96.124099 138.539494 
L 95.603027 139.353425 
L 95.510263 139.497765 
L 94.89393 140.456036 
L 94.751231 140.680747 
L 94.275544 141.414307 
L 93.899435 142.008521 
L 93.660318 142.372577 
L 93.050563 143.330848 
L 93.047639 143.335638 
L 92.427652 144.289119 
L 92.195842 144.668278 
L 91.80837 145.247389 
L 91.344046 145.996271 
L 91.196506 146.20566 
L 90.582605 147.163931 
L 90.49225 147.327995 
L 89.952001 148.122202 
L 89.640454 148.679777 
L 89.32728 149.080472 
L 88.788658 149.986021 
L 88.728751 150.038743 
L 88.043425 150.997014 
L 87.936862 151.330689 
L 87.085065 151.022573 
z
" clip-path="url(#pe258006328)" style="fill: #ffffff"/>
   </g>
   <g id="PathCollection_4">
    <path d="M 35.125498 158.663179 
L 35.977294 158.663179 
L 36.829091 158.663179 
L 37.680887 158.663179 
L 38.532683 158.663179 
L 39.384479 158.663179 
L 40.236275 158.663179 
L 41.088072 158.663179 
L 41.939868 158.663179 
L 42.791664 158.663179 
L 43.64346 158.663179 
L 44.495256 158.663179 
L 45.347052 158.663179 
L 46.198849 158.663179 
L 47.050645 158.663179 
L 47.902441 158.663179 
L 48.754237 158.663179 
L 49.606033 158.663179 
L 50.45783 158.663179 
L 51.309626 158.663179 
L 52.161422 158.663179 
L 53.013218 158.663179 
L 53.865014 158.663179 
L 54.71681 158.663179 
L 55.568607 158.663179 
L 56.420403 158.663179 
L 57.272199 158.663179 
L 58.123995 158.663179 
L 58.975791 158.663179 
L 59.827588 158.663179 
L 60.679384 158.663179 
L 61.53118 158.663179 
L 62.382976 158.663179 
L 63.234772 158.663179 
L 64.086568 158.663179 
L 64.938365 158.663179 
L 65.790161 158.663179 
L 66.641957 158.663179 
L 67.493753 158.663179 
L 68.345549 158.663179 
L 69.197346 158.663179 
L 70.049142 158.663179 
L 70.900938 158.663179 
L 71.752734 158.663179 
L 72.60453 158.663179 
L 73.456326 158.663179 
L 74.308123 158.663179 
L 75.159919 158.663179 
L 76.011715 158.663179 
L 76.863511 158.663179 
L 77.715307 158.663179 
L 78.567104 158.663179 
L 79.4189 158.663179 
L 80.270696 158.663179 
L 81.122492 158.663179 
L 81.974288 158.663179 
L 82.826084 158.663179 
L 83.677881 158.663179 
L 84.529677 158.663179 
L 85.381473 158.663179 
L 86.233269 158.663179 
L 87.085065 158.663179 
L 87.936862 158.663179 
L 88.788658 158.663179 
L 89.640454 158.663179 
L 90.49225 158.663179 
L 91.344046 158.663179 
L 92.195842 158.663179 
L 93.047639 158.663179 
L 93.899435 158.663179 
L 94.751231 158.663179 
L 95.603027 158.663179 
L 96.454823 158.663179 
L 97.306619 158.663179 
L 98.158416 158.663179 
L 99.010212 158.663179 
L 99.862008 158.663179 
L 100.713804 158.663179 
L 101.5656 158.663179 
L 102.417397 158.663179 
L 103.269193 158.663179 
L 104.120989 158.663179 
L 104.972785 158.663179 
L 105.824581 158.663179 
L 106.676377 158.663179 
L 107.528174 158.663179 
L 108.37997 158.663179 
L 109.231766 158.663179 
L 110.083562 158.663179 
L 110.935358 158.663179 
L 111.787155 158.663179 
L 112.638951 158.663179 
L 113.490747 158.663179 
L 114.342543 158.663179 
L 115.194339 158.663179 
L 116.046135 158.663179 
L 116.897932 158.663179 
L 117.749728 158.663179 
L 118.601524 158.663179 
L 118.601524 157.704909 
L 118.601524 156.746638 
L 118.601524 155.788367 
L 118.601524 154.830096 
L 118.601524 153.871826 
L 118.601524 152.913555 
L 118.601524 151.955284 
L 118.601524 150.997014 
L 118.601524 150.038743 
L 118.601524 149.080472 
L 118.601524 148.122202 
L 118.601524 147.163931 
L 118.601524 146.20566 
L 118.601524 145.247389 
L 118.601524 144.289119 
L 118.601524 143.330848 
L 118.601524 142.372577 
L 118.601524 141.414307 
L 118.601524 140.456036 
L 118.601524 139.497765 
L 118.601524 138.539494 
L 118.601524 137.581224 
L 118.601524 136.622953 
L 118.601524 135.664682 
L 118.601524 134.706412 
L 118.601524 133.748141 
L 118.601524 132.78987 
L 118.601524 131.8316 
L 118.601524 130.873329 
L 118.601524 129.915058 
L 118.601524 128.956787 
L 118.601524 127.998517 
L 118.601524 127.040246 
L 118.601524 126.081975 
L 118.601524 125.123705 
L 118.601524 124.165434 
L 118.601524 123.207163 
L 118.601524 122.248893 
L 118.601524 121.290622 
L 118.601524 120.332351 
L 118.601524 119.37408 
L 118.601524 118.41581 
L 118.601524 117.457539 
L 118.601524 116.499268 
L 118.601524 115.540998 
L 118.601524 114.582727 
L 118.601524 113.624456 
L 118.601524 112.666185 
L 118.601524 111.707915 
L 118.601524 110.749644 
L 118.601524 109.791373 
L 118.601524 108.833103 
L 118.601524 107.874832 
L 118.601524 106.916561 
L 118.601524 105.958291 
L 118.601524 105.00002 
L 118.601524 104.041749 
L 118.601524 103.083478 
L 118.601524 102.125208 
L 118.601524 101.166937 
L 118.601524 100.208666 
L 118.601524 99.250396 
L 118.601524 98.292125 
L 118.601524 97.333854 
L 118.601524 96.375583 
L 118.601524 95.417313 
L 118.601524 94.459042 
L 118.601524 93.500771 
L 118.601524 92.542501 
L 118.601524 91.58423 
L 118.601524 90.625959 
L 118.601524 89.667689 
L 118.601524 88.709418 
L 118.601524 87.751147 
L 118.601524 86.792876 
L 118.601524 85.834606 
L 118.601524 84.876335 
L 118.601524 83.918064 
L 118.601524 82.959794 
L 118.601524 82.001523 
L 118.601524 81.043252 
L 118.601524 80.084982 
L 118.601524 79.126711 
L 118.601524 78.16844 
L 118.601524 77.210169 
L 118.601524 76.251899 
L 118.601524 75.293628 
L 118.601524 74.335357 
L 118.601524 73.377087 
L 118.601524 72.418816 
L 118.601524 71.460545 
L 118.601524 70.502274 
L 118.601524 69.544004 
L 118.601524 68.585733 
L 118.601524 67.627462 
L 118.601524 66.669192 
L 118.601524 65.710921 
L 118.601524 64.75265 
L 118.601524 63.79438 
L 117.749728 63.79438 
L 116.897932 63.79438 
L 116.046135 63.79438 
L 115.194339 63.79438 
L 114.342543 63.79438 
L 113.490747 63.79438 
L 112.638951 63.79438 
L 111.787155 63.79438 
L 110.935358 63.79438 
L 110.083562 63.79438 
L 109.231766 63.79438 
L 108.37997 63.79438 
L 107.528174 63.79438 
L 106.676377 63.79438 
L 105.824581 63.79438 
L 104.972785 63.79438 
L 104.120989 63.79438 
L 103.269193 63.79438 
L 102.417397 63.79438 
L 101.5656 63.79438 
L 100.713804 63.79438 
L 99.862008 63.79438 
L 99.010212 63.79438 
L 98.158416 63.79438 
L 97.306619 63.79438 
L 96.454823 63.79438 
L 95.603027 63.79438 
L 94.751231 63.79438 
L 93.899435 63.79438 
L 93.047639 63.79438 
L 92.195842 63.79438 
L 91.344046 63.79438 
L 90.49225 63.79438 
L 89.640454 63.79438 
L 88.788658 63.79438 
L 87.936862 63.79438 
L 87.085065 63.79438 
L 86.233269 63.79438 
L 85.381473 63.79438 
L 84.529677 63.79438 
L 83.677881 63.79438 
L 82.826084 63.79438 
L 81.974288 63.79438 
L 81.122492 63.79438 
L 80.270696 63.79438 
L 79.4189 63.79438 
L 78.567104 63.79438 
L 77.715307 63.79438 
L 76.863511 63.79438 
L 76.011715 63.79438 
L 75.159919 63.79438 
L 74.308123 63.79438 
L 73.456326 63.79438 
L 72.60453 63.79438 
L 71.752734 63.79438 
L 70.900938 63.79438 
L 70.049142 63.79438 
L 69.197346 63.79438 
L 68.345549 63.79438 
L 67.493753 63.79438 
L 66.641957 63.79438 
L 65.790161 63.79438 
L 64.938365 63.79438 
L 64.086568 63.79438 
L 63.234772 63.79438 
L 62.382976 63.79438 
L 61.53118 63.79438 
L 60.679384 63.79438 
L 59.827588 63.79438 
L 58.975791 63.79438 
L 58.123995 63.79438 
L 57.272199 63.79438 
L 56.420403 63.79438 
L 55.568607 63.79438 
L 54.71681 63.79438 
L 53.865014 63.79438 
L 53.013218 63.79438 
L 52.161422 63.79438 
L 51.309626 63.79438 
L 50.45783 63.79438 
L 49.606033 63.79438 
L 48.754237 63.79438 
L 47.902441 63.79438 
L 47.050645 63.79438 
L 46.198849 63.79438 
L 45.347052 63.79438 
L 44.495256 63.79438 
L 43.64346 63.79438 
L 42.791664 63.79438 
L 41.939868 63.79438 
L 41.088072 63.79438 
L 40.236275 63.79438 
L 39.384479 63.79438 
L 38.532683 63.79438 
L 37.680887 63.79438 
L 36.829091 63.79438 
L 35.977294 63.79438 
L 35.125498 63.79438 
L 34.273702 63.79438 
L 34.273702 64.75265 
L 34.273702 65.710921 
L 34.273702 66.669192 
L 34.273702 67.627462 
L 34.273702 68.585733 
L 34.273702 69.544004 
L 34.273702 70.502274 
L 34.273702 71.460545 
L 34.273702 72.418816 
L 34.273702 73.377087 
L 34.273702 74.335357 
L 34.273702 75.293628 
L 34.273702 76.251899 
L 34.273702 77.210169 
L 34.273702 78.16844 
L 34.273702 79.126711 
L 34.273702 80.084982 
L 34.273702 81.043252 
L 34.273702 82.001523 
L 34.273702 82.959794 
L 34.273702 83.918064 
L 34.273702 84.876335 
L 34.273702 85.834606 
L 34.273702 86.792876 
L 34.273702 87.751147 
L 34.273702 88.709418 
L 34.273702 89.667689 
L 34.273702 90.625959 
L 34.273702 91.58423 
L 34.273702 92.542501 
L 34.273702 93.500771 
L 34.273702 94.459042 
L 34.273702 95.417313 
L 34.273702 96.375583 
L 34.273702 97.333854 
L 34.273702 98.292125 
L 34.273702 99.250396 
L 34.273702 100.208666 
L 34.273702 101.166937 
L 34.273702 102.125208 
L 34.273702 103.083478 
L 34.273702 104.041749 
L 34.273702 105.00002 
L 34.273702 105.958291 
L 34.273702 106.916561 
L 34.273702 107.874832 
L 34.273702 108.833103 
L 34.273702 109.791373 
L 34.273702 110.749644 
L 34.273702 111.707915 
L 34.273702 112.666185 
L 34.273702 113.624456 
L 34.273702 114.582727 
L 34.273702 115.540998 
L 34.273702 116.499268 
L 34.273702 117.457539 
L 34.273702 118.41581 
L 34.273702 119.37408 
L 34.273702 120.332351 
L 34.273702 121.290622 
L 34.273702 122.248893 
L 34.273702 123.207163 
L 34.273702 124.165434 
L 34.273702 125.123705 
L 34.273702 126.081975 
L 34.273702 127.040246 
L 34.273702 127.998517 
L 34.273702 128.956787 
L 34.273702 129.915058 
L 34.273702 130.873329 
L 34.273702 131.8316 
L 34.273702 132.78987 
L 34.273702 133.748141 
L 34.273702 134.706412 
L 34.273702 135.664682 
L 34.273702 136.622953 
L 34.273702 137.581224 
L 34.273702 138.539494 
L 34.273702 139.497765 
L 34.273702 140.456036 
L 34.273702 141.414307 
L 34.273702 142.372577 
L 34.273702 143.330848 
L 34.273702 144.289119 
L 34.273702 145.247389 
L 34.273702 146.20566 
L 34.273702 147.163931 
L 34.273702 148.122202 
L 34.273702 149.080472 
L 34.273702 150.038743 
L 34.273702 150.997014 
L 34.273702 151.955284 
L 34.273702 152.913555 
L 34.273702 153.871826 
L 34.273702 154.830096 
L 34.273702 155.788367 
L 34.273702 156.746638 
L 34.273702 157.704909 
L 34.273702 158.663179 
L 35.125498 158.663179 
z
M 87.073694 150.997014 
L 86.233269 150.583794 
L 85.381473 150.122074 
L 85.241231 150.038743 
L 84.529677 149.748053 
L 83.677881 149.411107 
L 82.826084 149.113909 
L 82.723808 149.080472 
L 81.974288 148.861698 
L 81.122492 148.646699 
L 80.270696 148.469783 
L 79.4189 148.330523 
L 78.567104 148.227698 
L 77.715307 148.159992 
L 76.863511 148.126392 
L 76.011715 148.126397 
L 75.159919 148.160119 
L 74.308123 148.228291 
L 73.456326 148.332149 
L 72.60453 148.473126 
L 71.752734 148.652088 
L 70.900938 148.867561 
L 70.138799 149.080472 
L 70.049142 149.116327 
L 69.197346 149.441959 
L 68.345549 149.816174 
L 67.493753 149.992414 
L 67.284544 149.080472 
L 66.812947 148.122202 
L 66.641957 147.853103 
L 66.372845 147.163931 
L 65.922036 146.20566 
L 65.790161 145.959577 
L 65.487687 145.247389 
L 65.040366 144.289119 
L 64.938365 144.08651 
L 64.606748 143.330848 
L 64.16089 142.372577 
L 64.086568 142.219737 
L 63.727244 141.414307 
L 63.282316 140.456036 
L 63.234772 140.355902 
L 62.848387 139.497765 
L 62.404235 138.539494 
L 62.382976 138.493863 
L 61.969865 137.581224 
L 61.53118 136.63286 
L 61.526663 136.622953 
L 61.091526 135.664682 
L 60.679384 134.770303 
L 60.649833 134.706412 
L 60.213281 133.748141 
L 59.827588 132.907027 
L 59.772745 132.78987 
L 59.335066 131.8316 
L 58.975791 131.04315 
L 58.895411 130.873329 
L 58.456826 129.915058 
L 58.123995 129.178646 
L 58.017802 128.956787 
L 57.578491 127.998517 
L 57.272199 127.313331 
L 57.13984 127.040246 
L 56.69996 126.081975 
L 56.420403 125.446756 
L 56.261338 125.123705 
L 55.821038 124.165434 
L 55.568607 123.57788 
L 55.381852 123.207163 
L 54.941265 122.248893 
L 54.71681 121.703869 
L 54.500074 121.290622 
L 54.059174 120.332351 
L 53.865014 119.813745 
L 53.609997 119.37408 
L 53.165904 118.41581 
L 53.013218 117.787277 
L 52.509051 117.457539 
L 53.013218 117.135748 
L 53.865014 116.542171 
L 53.914827 116.499268 
L 54.71681 116.209201 
L 55.568607 115.859537 
L 56.314966 115.540998 
L 56.420403 115.510151 
L 57.272199 115.215196 
L 58.123995 114.918084 
L 58.975791 114.625182 
L 59.094124 114.582727 
L 59.827588 114.366854 
L 60.679384 114.118908 
L 61.53118 113.878918 
L 62.382976 113.648689 
L 62.47305 113.624456 
L 63.234772 113.445075 
L 64.086568 113.253067 
L 64.938365 113.071624 
L 65.790161 112.901496 
L 66.641957 112.743248 
L 67.085361 112.666185 
L 67.493753 112.601645 
L 68.345549 112.476422 
L 69.197346 112.362966 
L 70.049142 112.261569 
L 70.900938 112.172456 
L 71.752734 112.095804 
L 72.60453 112.031749 
L 73.456326 111.980395 
L 74.308123 111.941815 
L 75.159919 111.916063 
L 76.011715 111.903169 
L 76.863511 111.903146 
L 77.715307 111.915991 
L 78.567104 111.941685 
L 79.4189 111.98019 
L 80.270696 112.031454 
L 81.122492 112.095405 
L 81.974288 112.171952 
L 82.826084 112.26098 
L 83.677881 112.362349 
L 84.529677 112.47589 
L 85.381473 112.6014 
L 85.784757 112.666185 
L 86.233269 112.742899 
L 87.085065 112.900477 
L 87.936862 113.070064 
L 88.788658 113.251298 
L 89.640454 113.443751 
L 90.399183 113.624456 
L 90.49225 113.648424 
L 91.344046 113.876431 
L 92.195842 114.115108 
L 93.047639 114.363653 
L 93.774608 114.582727 
L 93.899435 114.624168 
L 94.751231 114.911288 
L 95.603027 115.206631 
L 96.454823 115.508582 
L 96.547259 115.540998 
L 97.306619 115.842546 
L 98.158416 116.184551 
L 98.940111 116.499268 
L 99.010212 116.532123 
L 99.862008 116.918471 
L 100.713804 117.302604 
L 101.07565 117.457539 
L 101.5656 117.715439 
L 102.417397 118.142858 
L 103.001888 118.41581 
L 103.269193 118.5822 
L 104.120989 119.056994 
L 104.770789 119.37408 
L 104.972785 119.531405 
L 105.824581 120.061564 
L 106.459996 120.332351 
L 106.676377 120.670993 
L 107.395655 121.290622 
L 106.676377 121.984755 
L 106.605612 122.248893 
L 105.993575 123.207163 
L 105.824581 123.394526 
L 105.378616 124.165434 
L 104.972785 124.721065 
L 104.753201 125.123705 
L 104.126357 126.081975 
L 104.120989 126.088945 
L 103.518485 127.040246 
L 103.269193 127.393249 
L 102.902396 127.998517 
L 102.417397 128.728146 
L 102.28297 128.956787 
L 101.66673 129.915058 
L 101.5656 130.060856 
L 101.052619 130.873329 
L 100.713804 131.381684 
L 100.436081 131.8316 
L 99.862008 132.719376 
L 99.819162 132.78987 
L 99.204114 133.748141 
L 99.010212 134.040407 
L 98.588114 134.706412 
L 98.158416 135.368168 
L 97.97231 135.664682 
L 97.357427 136.622953 
L 97.306619 136.700432 
L 96.740365 137.581224 
L 96.454823 138.023256 
L 96.124099 138.539494 
L 95.603027 139.353425 
L 95.510263 139.497765 
L 94.89393 140.456036 
L 94.751231 140.680747 
L 94.275544 141.414307 
L 93.899435 142.008521 
L 93.660318 142.372577 
L 93.050563 143.330848 
L 93.047639 143.335638 
L 92.427652 144.289119 
L 92.195842 144.668278 
L 91.80837 145.247389 
L 91.344046 145.996271 
L 91.196506 146.20566 
L 90.582605 147.163931 
L 90.49225 147.327995 
L 89.952001 148.122202 
L 89.640454 148.679777 
L 89.32728 149.080472 
L 88.788658 149.986021 
L 88.728751 150.038743 
L 88.043425 150.997014 
L 87.936862 151.330689 
L 87.085065 151.022573 
L 87.073694 150.997014 
z
" clip-path="url(#pe258006328)" style="fill: none"/>
   </g>
   <g id="matplotlib.axis_1">
    <g id="xtick_1">
     <g id="line2d_1">
      <defs>
       <path id="m7392d57d3a" d="M 0 0 
L 0 3.5 
" style="stroke: #000000; stroke-width: 0.8"/>
      </defs>
      <g>
       <use xlink:href="#m7392d57d3a" x="34.273702" y="169.204157" style="stroke: #000000; stroke-width: 0.8"/>
      </g>
     </g>
     <g id="text_1">
      <!-- −2 -->
      <g transform="translate(26.902608 183.802594) scale(0.1 -0.1)">
       <defs>
        <path id="DejaVuSans-2212" d="M 678 2272 
L 4684 2272 
L 4684 1741 
L 678 1741 
L 678 2272 
z
" transform="scale(0.015625)"/>
        <path id="DejaVuSans-32" d="M 1228 531 
L 3431 531 
L 3431 0 
L 469 0 
L 469 531 
Q 828 903 1448 1529 
Q 2069 2156 2228 2338 
Q 2531 2678 2651 2914 
Q 2772 3150 2772 3378 
Q 2772 3750 2511 3984 
Q 2250 4219 1831 4219 
Q 1534 4219 1204 4116 
Q 875 4013 500 3803 
L 500 4441 
Q 881 4594 1212 4672 
Q 1544 4750 1819 4750 
Q 2544 4750 2975 4387 
Q 3406 4025 3406 3419 
Q 3406 3131 3298 2873 
Q 3191 2616 2906 2266 
Q 2828 2175 2409 1742 
Q 1991 1309 1228 531 
z
" transform="scale(0.015625)"/>
       </defs>
       <use xlink:href="#DejaVuSans-2212"/>
       <use xlink:href="#DejaVuSans-32" x="83.789062"/>
      </g>
     </g>
    </g>
    <g id="xtick_2">
     <g id="line2d_2">
      <g>
       <use xlink:href="#m7392d57d3a" x="76.437613" y="169.204157" style="stroke: #000000; stroke-width: 0.8"/>
      </g>
     </g>
    </g>
    <g id="xtick_3">
     <g id="line2d_3">
      <g>
       <use xlink:href="#m7392d57d3a" x="118.601524" y="169.204157" style="stroke: #000000; stroke-width: 0.8"/>
      </g>
     </g>
     <g id="text_2">
      <!-- 2 -->
      <g transform="translate(115.420274 183.802594) scale(0.1 -0.1)">
       <use xlink:href="#DejaVuSans-32"/>
      </g>
     </g>
    </g>
    <g id="xtick_4">
     <g id="line2d_4">
      <g>
       <use xlink:href="#m7392d57d3a" x="160.765435" y="169.204157" style="stroke: #000000; stroke-width: 0.8"/>
      </g>
     </g>
     <g id="text_3">
      <!-- 4 -->
      <g transform="translate(157.584185 183.802594) scale(0.1 -0.1)">
       <defs>
        <path id="DejaVuSans-34" d="M 2419 4116 
L 825 1625 
L 2419 1625 
L 2419 4116 
z
M 2253 4666 
L 3047 4666 
L 3047 1625 
L 3713 1625 
L 3713 1100 
L 3047 1100 
L 3047 0 
L 2419 0 
L 2419 1100 
L 313 1100 
L 313 1709 
L 2253 4666 
z
" transform="scale(0.015625)"/>
       </defs>
       <use xlink:href="#DejaVuSans-34"/>
      </g>
     </g>
    </g>
    <g id="xtick_5">
     <g id="line2d_5">
      <g>
       <use xlink:href="#m7392d57d3a" x="202.929346" y="169.204157" style="stroke: #000000; stroke-width: 0.8"/>
      </g>
     </g>
     <g id="text_4">
      <!-- 6 -->
      <g transform="translate(199.748096 183.802594) scale(0.1 -0.1)">
       <defs>
        <path id="DejaVuSans-36" d="M 2113 2584 
Q 1688 2584 1439 2293 
Q 1191 2003 1191 1497 
Q 1191 994 1439 701 
Q 1688 409 2113 409 
Q 2538 409 2786 701 
Q 3034 994 3034 1497 
Q 3034 2003 2786 2293 
Q 2538 2584 2113 2584 
z
M 3366 4563 
L 3366 3988 
Q 3128 4100 2886 4159 
Q 2644 4219 2406 4219 
Q 1781 4219 1451 3797 
Q 1122 3375 1075 2522 
Q 1259 2794 1537 2939 
Q 1816 3084 2150 3084 
Q 2853 3084 3261 2657 
Q 3669 2231 3669 1497 
Q 3669 778 3244 343 
Q 2819 -91 2113 -91 
Q 1303 -91 875 529 
Q 447 1150 447 2328 
Q 447 3434 972 4092 
Q 1497 4750 2381 4750 
Q 2619 4750 2861 4703 
Q 3103 4656 3366 4563 
z
" transform="scale(0.015625)"/>
       </defs>
       <use xlink:href="#DejaVuSans-36"/>
      </g>
     </g>
    </g>
    <g id="xtick_6">
     <g id="line2d_6">
      <defs>
       <path id="mde29ac785f" d="M 0 0 
L 0 2 
" style="stroke: #000000; stroke-width: 0.6"/>
      </defs>
      <g>
       <use xlink:href="#mde29ac785f" x="13.191747" y="169.204157" style="stroke: #000000; stroke-width: 0.6"/>
      </g>
     </g>
    </g>
    <g id="xtick_7">
     <g id="line2d_7">
      <g>
       <use xlink:href="#mde29ac785f" x="23.732724" y="169.204157" style="stroke: #000000; stroke-width: 0.6"/>
      </g>
     </g>
    </g>
    <g id="xtick_8">
     <g id="line2d_8">
      <g>
       <use xlink:href="#mde29ac785f" x="44.81468" y="169.204157" style="stroke: #000000; stroke-width: 0.6"/>
      </g>
     </g>
    </g>
    <g id="xtick_9">
     <g id="line2d_9">
      <g>
       <use xlink:href="#mde29ac785f" x="55.355658" y="169.204157" style="stroke: #000000; stroke-width: 0.6"/>
      </g>
     </g>
    </g>
    <g id="xtick_10">
     <g id="line2d_10">
      <g>
       <use xlink:href="#mde29ac785f" x="65.896635" y="169.204157" style="stroke: #000000; stroke-width: 0.6"/>
      </g>
     </g>
    </g>
    <g id="xtick_11">
     <g id="line2d_11">
      <g>
       <use xlink:href="#mde29ac785f" x="86.978591" y="169.204157" style="stroke: #000000; stroke-width: 0.6"/>
      </g>
     </g>
    </g>
    <g id="xtick_12">
     <g id="line2d_12">
      <g>
       <use xlink:href="#mde29ac785f" x="97.519569" y="169.204157" style="stroke: #000000; stroke-width: 0.6"/>
      </g>
     </g>
    </g>
    <g id="xtick_13">
     <g id="line2d_13">
      <g>
       <use xlink:href="#mde29ac785f" x="108.060546" y="169.204157" style="stroke: #000000; stroke-width: 0.6"/>
      </g>
     </g>
    </g>
    <g id="xtick_14">
     <g id="line2d_14">
      <g>
       <use xlink:href="#mde29ac785f" x="129.142502" y="169.204157" style="stroke: #000000; stroke-width: 0.6"/>
      </g>
     </g>
    </g>
    <g id="xtick_15">
     <g id="line2d_15">
      <g>
       <use xlink:href="#mde29ac785f" x="139.68348" y="169.204157" style="stroke: #000000; stroke-width: 0.6"/>
      </g>
     </g>
    </g>
    <g id="xtick_16">
     <g id="line2d_16">
      <g>
       <use xlink:href="#mde29ac785f" x="150.224457" y="169.204157" style="stroke: #000000; stroke-width: 0.6"/>
      </g>
     </g>
    </g>
    <g id="xtick_17">
     <g id="line2d_17">
      <g>
       <use xlink:href="#mde29ac785f" x="171.306413" y="169.204157" style="stroke: #000000; stroke-width: 0.6"/>
      </g>
     </g>
    </g>
    <g id="xtick_18">
     <g id="line2d_18">
      <g>
       <use xlink:href="#mde29ac785f" x="181.84739" y="169.204157" style="stroke: #000000; stroke-width: 0.6"/>
      </g>
     </g>
    </g>
    <g id="xtick_19">
     <g id="line2d_19">
      <g>
       <use xlink:href="#mde29ac785f" x="192.388368" y="169.204157" style="stroke: #000000; stroke-width: 0.6"/>
      </g>
     </g>
    </g>
    <g id="xtick_20">
     <g id="line2d_20">
      <g>
       <use xlink:href="#mde29ac785f" x="213.470324" y="169.204157" style="stroke: #000000; stroke-width: 0.6"/>
      </g>
     </g>
    </g>
    <g id="xtick_21">
     <g id="line2d_21">
      <g>
       <use xlink:href="#mde29ac785f" x="224.011301" y="169.204157" style="stroke: #000000; stroke-width: 0.6"/>
      </g>
     </g>
    </g>
    <g id="xtick_22">
     <g id="line2d_22">
      <g>
       <use xlink:href="#mde29ac785f" x="234.552279" y="169.204157" style="stroke: #000000; stroke-width: 0.6"/>
      </g>
     </g>
    </g>
   </g>
   <g id="matplotlib.axis_2">
    <g id="ytick_1">
     <g id="line2d_23">
      <defs>
       <path id="m34457842c5" d="M 0 0 
L -3.5 0 
" style="stroke: #000000; stroke-width: 0.8"/>
      </defs>
      <g>
       <use xlink:href="#m34457842c5" x="76.437613" y="295.69589" style="stroke: #000000; stroke-width: 0.8"/>
      </g>
     </g>
     <g id="text_5">
      <!-- −6 -->
      <g transform="translate(54.695426 299.495109) scale(0.1 -0.1)">
       <use xlink:href="#DejaVuSans-2212"/>
       <use xlink:href="#DejaVuSans-36" x="83.789062"/>
      </g>
     </g>
    </g>
    <g id="ytick_2">
     <g id="line2d_24">
      <g>
       <use xlink:href="#m34457842c5" x="76.437613" y="253.531979" style="stroke: #000000; stroke-width: 0.8"/>
      </g>
     </g>
     <g id="text_6">
      <!-- −4 -->
      <g transform="translate(54.695426 257.331198) scale(0.1 -0.1)">
       <use xlink:href="#DejaVuSans-2212"/>
       <use xlink:href="#DejaVuSans-34" x="83.789062"/>
      </g>
     </g>
    </g>
    <g id="ytick_3">
     <g id="line2d_25">
      <g>
       <use xlink:href="#m34457842c5" x="76.437613" y="211.368068" style="stroke: #000000; stroke-width: 0.8"/>
      </g>
     </g>
     <g id="text_7">
      <!-- −2 -->
      <g transform="translate(54.695426 215.167287) scale(0.1 -0.1)">
       <use xlink:href="#DejaVuSans-2212"/>
       <use xlink:href="#DejaVuSans-32" x="83.789062"/>
      </g>
     </g>
    </g>
    <g id="ytick_4">
     <g id="line2d_26">
      <g>
       <use xlink:href="#m34457842c5" x="76.437613" y="169.204157" style="stroke: #000000; stroke-width: 0.8"/>
      </g>
     </g>
    </g>
    <g id="ytick_5">
     <g id="line2d_27">
      <g>
       <use xlink:href="#m34457842c5" x="76.437613" y="127.040246" style="stroke: #000000; stroke-width: 0.8"/>
      </g>
     </g>
     <g id="text_8">
      <!-- 2 -->
      <g transform="translate(63.075113 130.839465) scale(0.1 -0.1)">
       <use xlink:href="#DejaVuSans-32"/>
      </g>
     </g>
    </g>
    <g id="ytick_6">
     <g id="line2d_28">
      <g>
       <use xlink:href="#m34457842c5" x="76.437613" y="84.876335" style="stroke: #000000; stroke-width: 0.8"/>
      </g>
     </g>
     <g id="text_9">
      <!-- 4 -->
      <g transform="translate(63.075113 88.675554) scale(0.1 -0.1)">
       <use xlink:href="#DejaVuSans-34"/>
      </g>
     </g>
    </g>
    <g id="ytick_7">
     <g id="line2d_29">
      <g>
       <use xlink:href="#m34457842c5" x="76.437613" y="42.712424" style="stroke: #000000; stroke-width: 0.8"/>
      </g>
     </g>
     <g id="text_10">
      <!-- 6 -->
      <g transform="translate(63.075113 46.511643) scale(0.1 -0.1)">
       <use xlink:href="#DejaVuSans-36"/>
      </g>
     </g>
    </g>
    <g id="ytick_8">
     <g id="line2d_30">
      <defs>
       <path id="m06db40b6f7" d="M 0 0 
L -2 0 
" style="stroke: #000000; stroke-width: 0.6"/>
      </defs>
      <g>
       <use xlink:href="#m06db40b6f7" x="76.437613" y="327.318823" style="stroke: #000000; stroke-width: 0.6"/>
      </g>
     </g>
    </g>
    <g id="ytick_9">
     <g id="line2d_31">
      <g>
       <use xlink:href="#m06db40b6f7" x="76.437613" y="316.777845" style="stroke: #000000; stroke-width: 0.6"/>
      </g>
     </g>
    </g>
    <g id="ytick_10">
     <g id="line2d_32">
      <g>
       <use xlink:href="#m06db40b6f7" x="76.437613" y="306.236868" style="stroke: #000000; stroke-width: 0.6"/>
      </g>
     </g>
    </g>
    <g id="ytick_11">
     <g id="line2d_33">
      <g>
       <use xlink:href="#m06db40b6f7" x="76.437613" y="285.154912" style="stroke: #000000; stroke-width: 0.6"/>
      </g>
     </g>
    </g>
    <g id="ytick_12">
     <g id="line2d_34">
      <g>
       <use xlink:href="#m06db40b6f7" x="76.437613" y="274.613934" style="stroke: #000000; stroke-width: 0.6"/>
      </g>
     </g>
    </g>
    <g id="ytick_13">
     <g id="line2d_35">
      <g>
       <use xlink:href="#m06db40b6f7" x="76.437613" y="264.072957" style="stroke: #000000; stroke-width: 0.6"/>
      </g>
     </g>
    </g>
    <g id="ytick_14">
     <g id="line2d_36">
      <g>
       <use xlink:href="#m06db40b6f7" x="76.437613" y="242.991001" style="stroke: #000000; stroke-width: 0.6"/>
      </g>
     </g>
    </g>
    <g id="ytick_15">
     <g id="line2d_37">
      <g>
       <use xlink:href="#m06db40b6f7" x="76.437613" y="232.450023" style="stroke: #000000; stroke-width: 0.6"/>
      </g>
     </g>
    </g>
    <g id="ytick_16">
     <g id="line2d_38">
      <g>
       <use xlink:href="#m06db40b6f7" x="76.437613" y="221.909046" style="stroke: #000000; stroke-width: 0.6"/>
      </g>
     </g>
    </g>
    <g id="ytick_17">
     <g id="line2d_39">
      <g>
       <use xlink:href="#m06db40b6f7" x="76.437613" y="200.82709" style="stroke: #000000; stroke-width: 0.6"/>
      </g>
     </g>
    </g>
    <g id="ytick_18">
     <g id="line2d_40">
      <g>
       <use xlink:href="#m06db40b6f7" x="76.437613" y="190.286112" style="stroke: #000000; stroke-width: 0.6"/>
      </g>
     </g>
    </g>
    <g id="ytick_19">
     <g id="line2d_41">
      <g>
       <use xlink:href="#m06db40b6f7" x="76.437613" y="179.745135" style="stroke: #000000; stroke-width: 0.6"/>
      </g>
     </g>
    </g>
    <g id="ytick_20">
     <g id="line2d_42">
      <g>
       <use xlink:href="#m06db40b6f7" x="76.437613" y="158.663179" style="stroke: #000000; stroke-width: 0.6"/>
      </g>
     </g>
    </g>
    <g id="ytick_21">
     <g id="line2d_43">
      <g>
       <use xlink:href="#m06db40b6f7" x="76.437613" y="148.122202" style="stroke: #000000; stroke-width: 0.6"/>
      </g>
     </g>
    </g>
    <g id="ytick_22">
     <g id="line2d_44">
      <g>
       <use xlink:href="#m06db40b6f7" x="76.437613" y="137.581224" style="stroke: #000000; stroke-width: 0.6"/>
      </g>
     </g>
    </g>
    <g id="ytick_23">
     <g id="line2d_45">
      <g>
       <use xlink:href="#m06db40b6f7" x="76.437613" y="116.499268" style="stroke: #000000; stroke-width: 0.6"/>
      </g>
     </g>
    </g>
    <g id="ytick_24">
     <g id="line2d_46">
      <g>
       <use xlink:href="#m06db40b6f7" x="76.437613" y="105.958291" style="stroke: #000000; stroke-width: 0.6"/>
      </g>
     </g>
    </g>
    <g id="ytick_25">
     <g id="line2d_47">
      <g>
       <use xlink:href="#m06db40b6f7" x="76.437613" y="95.417313" style="stroke: #000000; stroke-width: 0.6"/>
      </g>
     </g>
    </g>
    <g id="ytick_26">
     <g id="line2d_48">
      <g>
       <use xlink:href="#m06db40b6f7" x="76.437613" y="74.335357" style="stroke: #000000; stroke-width: 0.6"/>
      </g>
     </g>
    </g>
    <g id="ytick_27">
     <g id="line2d_49">
      <g>
       <use xlink:href="#m06db40b6f7" x="76.437613" y="63.79438" style="stroke: #000000; stroke-width: 0.6"/>
      </g>
     </g>
    </g>
    <g id="ytick_28">
     <g id="line2d_50">
      <g>
       <use xlink:href="#m06db40b6f7" x="76.437613" y="53.253402" style="stroke: #000000; stroke-width: 0.6"/>
      </g>
     </g>
    </g>
    <g id="ytick_29">
     <g id="line2d_51">
      <g>
       <use xlink:href="#m06db40b6f7" x="76.437613" y="32.171446" style="stroke: #000000; stroke-width: 0.6"/>
      </g>
     </g>
    </g>
    <g id="ytick_30">
     <g id="line2d_52">
      <g>
       <use xlink:href="#m06db40b6f7" x="76.437613" y="21.630469" style="stroke: #000000; stroke-width: 0.6"/>
      </g>
     </g>
    </g>
    <g id="ytick_31">
     <g id="line2d_53">
      <g>
       <use xlink:href="#m06db40b6f7" x="76.437613" y="11.089491" style="stroke: #000000; stroke-width: 0.6"/>
      </g>
     </g>
    </g>
   </g>
   <g id="PathCollection_5">
    <path d="M 87.085065 151.022573 
L 87.073694 150.997014 
L 83.677881 149.411107 
L 81.974288 148.861698 
L 79.4189 148.330523 
L 76.863511 148.126392 
L 74.308123 148.228291 
L 72.60453 148.473126 
L 70.049142 149.116327 
L 67.493753 149.992414 
L 67.284544 149.080472 
L 64.938365 144.08651 
L 61.969865 137.581224 
L 53.165904 118.41581 
L 53.013218 117.787277 
L 52.509051 117.457539 
L 53.914827 116.499268 
L 60.679384 114.118908 
L 64.086568 113.253067 
L 67.493753 112.601645 
L 70.900938 112.172456 
L 74.308123 111.941815 
L 77.715307 111.915991 
L 81.122492 112.095405 
L 84.529677 112.47589 
L 87.936862 113.070064 
L 91.344046 113.876431 
L 94.751231 114.911288 
L 98.158416 116.184551 
L 101.07565 117.457539 
L 106.459996 120.332351 
L 106.676377 120.670993 
L 107.395655 121.290622 
L 106.676377 121.984755 
L 106.605612 122.248893 
L 89.640454 148.679777 
L 89.32728 149.080472 
L 88.728751 150.038743 
L 87.936862 151.330689 
L 87.085065 151.022573 
L 87.085065 151.022573 
" clip-path="url(#pe258006328)" style="fill: none; stroke: #add8e6; stroke-width: 1.5"/>
   </g>
   <g id="PathCollection_6">
    <path d="M 87.085065 151.022573 
L 87.073694 150.997014 
L 83.677881 149.411107 
L 81.974288 148.861698 
L 79.4189 148.330523 
L 76.863511 148.126392 
L 74.308123 148.228291 
L 72.60453 148.473126 
L 70.049142 149.116327 
L 67.493753 149.992414 
L 67.284544 149.080472 
L 64.938365 144.08651 
L 61.969865 137.581224 
L 53.165904 118.41581 
L 53.013218 117.787277 
L 52.509051 117.457539 
L 53.914827 116.499268 
L 60.679384 114.118908 
L 64.086568 113.253067 
L 67.493753 112.601645 
L 70.900938 112.172456 
L 74.308123 111.941815 
L 77.715307 111.915991 
L 81.122492 112.095405 
L 84.529677 112.47589 
L 87.936862 113.070064 
L 91.344046 113.876431 
L 94.751231 114.911288 
L 98.158416 116.184551 
L 101.07565 117.457539 
L 106.459996 120.332351 
L 106.676377 120.670993 
L 107.395655 121.290622 
L 106.676377 121.984755 
L 106.605612 122.248893 
L 89.640454 148.679777 
L 89.32728 149.080472 
L 88.728751 150.038743 
L 87.936862 151.330689 
L 87.085065 151.022573 
L 87.085065 151.022573 
" clip-path="url(#pe258006328)" style="fill: none; stroke: #ffffff; stroke-width: 1.5"/>
   </g>
   <g id="PathCollection_7">
    <path d="M 87.085065 151.022573 
L 87.073694 150.997014 
L 83.677881 149.411107 
L 81.974288 148.861698 
L 79.4189 148.330523 
L 76.863511 148.126392 
L 74.308123 148.228291 
L 72.60453 148.473126 
L 70.049142 149.116327 
L 67.493753 149.992414 
L 67.284544 149.080472 
L 64.938365 144.08651 
L 61.969865 137.581224 
L 53.165904 118.41581 
L 53.013218 117.787277 
L 52.509051 117.457539 
L 53.914827 116.499268 
L 60.679384 114.118908 
L 64.086568 113.253067 
L 67.493753 112.601645 
L 70.900938 112.172456 
L 74.308123 111.941815 
L 77.715307 111.915991 
L 81.122492 112.095405 
L 84.529677 112.47589 
L 87.936862 113.070064 
L 91.344046 113.876431 
L 94.751231 114.911288 
L 98.158416 116.184551 
L 101.07565 117.457539 
L 106.459996 120.332351 
L 106.676377 120.670993 
L 107.395655 121.290622 
L 106.676377 121.984755 
L 106.605612 122.248893 
L 89.640454 148.679777 
L 89.32728 149.080472 
L 88.728751 150.038743 
L 87.936862 151.330689 
L 87.085065 151.022573 
L 87.085065 151.022573 
" clip-path="url(#pe258006328)" style="fill: none; stroke: #ffffff; stroke-width: 1.5"/>
   </g>
   <g id="line2d_54">
    <path d="M 75.250291 171.798503 
L 76.012051 172.025373 
L 76.748895 172.040258 
L 77.565954 171.824694 
L 78.250942 171.406929 
L 78.772374 170.844052 
L 79.127082 170.156587 
L 79.287379 169.34271 
L 79.21079 168.533443 
L 78.914822 167.788601 
L 78.417674 167.149961 
L 77.801995 166.698398 
L 77.018598 166.410804 
L 76.246442 166.357436 
L 75.454802 166.525641 
L 75.250291 166.609811 
L 75.250291 166.609811 
" clip-path="url(#pe258006328)" style="fill: none; stroke: #0000ff; stroke-width: 1.5; stroke-linecap: square"/>
   </g>
   <g id="line2d_55">
    <path d="M 73.210137 176.25632 
L 74.33134 176.668286 
L 75.726054 176.927064 
L 77.026032 176.937421 
L 78.250049 176.745025 
L 79.511751 176.3245 
L 80.667812 175.704543 
L 81.727635 174.875601 
L 82.673738 173.815052 
L 83.32411 172.771476 
L 83.856514 171.464581 
L 84.142394 170.090704 
L 84.185158 168.850378 
L 84.026238 167.603412 
L 83.614375 166.264139 
L 83.002246 165.074362 
L 82.242926 164.0614 
L 81.318021 163.176618 
L 80.325596 162.493479 
L 79.029418 161.894427 
L 77.654196 161.544553 
L 76.299888 161.449762 
L 75.041 161.575325 
L 73.798436 161.911397 
L 73.210137 162.151993 
L 73.210137 162.151993 
" clip-path="url(#pe258006328)" style="fill: none; stroke: #0000ff; stroke-width: 1.5; stroke-linecap: square"/>
   </g>
   <g id="line2d_56">
    <path d="M 67.664424 188.373925 
L 69.638971 189.159791 
L 71.948005 189.802513 
L 73.715618 190.109649 
L 76.203504 190.284813 
L 78.377978 190.196628 
L 80.659056 189.859139 
L 82.766361 189.313752 
L 84.746411 188.579727 
L 86.941437 187.483066 
L 88.832197 186.257694 
L 90.650208 184.774995 
L 92.241445 183.157212 
L 93.603395 181.442816 
L 94.740173 179.666716 
L 95.715431 177.737302 
L 96.580793 175.425183 
L 97.077274 173.499879 
L 97.409501 171.355617 
L 97.515374 169.624658 
L 97.422241 167.180739 
L 97.154378 165.297176 
L 96.664182 163.259853 
L 96.040327 161.446422 
L 95.10661 159.410414 
L 93.993932 157.532632 
L 92.699574 155.787843 
L 91.526856 154.481264 
L 89.694999 152.812374 
L 87.928665 151.529187 
L 86.058021 150.44525 
L 83.923406 149.495993 
L 81.878626 148.836432 
L 79.582093 148.358028 
L 77.662627 148.157823 
L 75.264005 148.154894 
L 73.106095 148.387101 
L 70.803066 148.88912 
L 68.668446 149.605971 
L 67.664424 150.034389 
L 67.664424 150.034389 
" clip-path="url(#pe258006328)" style="fill: none; stroke: #0000ff; stroke-width: 1.5; stroke-linecap: square"/>
   </g>
   <g id="line2d_57">
    <path d="M 52.589613 221.312989 
L 56.264629 222.842839 
L 58.860604 223.748691 
L 62.19643 224.713131 
L 66.556189 225.652496 
L 70.862433 226.239013 
L 74.785244 226.487026 
L 78.661188 226.467698 
L 81.628268 226.275293 
L 85.28376 225.823969 
L 89.106377 225.092974 
L 91.743984 224.428902 
L 95.213302 223.347771 
L 98.101823 222.258087 
L 102.225374 220.380801 
L 105.440002 218.63005 
L 108.393308 216.774011 
L 111.786826 214.309485 
L 114.659139 211.90278 
L 116.713943 209.970254 
L 119.258452 207.288711 
L 121.526901 204.573827 
L 123.693284 201.622655 
L 125.578352 198.687122 
L 127.297604 195.610952 
L 128.947646 192.155276 
L 130.104723 189.301389 
L 131.421314 185.355011 
L 132.193984 182.443664 
L 132.843912 179.3228 
L 133.349731 175.917451 
L 133.647011 172.542154 
L 133.744294 169.246933 
L 133.645143 165.834292 
L 133.309544 162.158523 
L 132.699381 158.310539 
L 131.90153 154.788493 
L 131.038003 151.801431 
L 129.992199 148.808968 
L 128.527183 145.314114 
L 126.803545 141.866813 
L 124.933873 138.672693 
L 122.714769 135.403531 
L 120.502728 132.566429 
L 117.91062 129.656121 
L 115.363606 127.146762 
L 112.791383 124.904486 
L 110.389431 123.037811 
L 107.782067 121.229344 
L 104.54089 119.261557 
L 101.51809 117.677201 
L 97.59716 115.946941 
L 94.858549 114.938822 
L 90.935958 113.761796 
L 87.766636 113.028444 
L 83.701776 112.359725 
L 80.055964 112.011806 
L 76.700586 111.898064 
L 73.154772 111.991567 
L 69.150716 112.362635 
L 66.289987 112.803065 
L 62.217397 113.689808 
L 58.794434 114.68099 
L 55.52737 115.848565 
L 52.589613 117.095325 
L 52.589613 117.095325 
" clip-path="url(#pe258006328)" style="fill: none; stroke: #0000ff; stroke-width: 1.5; stroke-linecap: square"/>
   </g>
   <g id="line2d_58">
    <path d="M 11.612027 310.850647 
L 17.341318 313.335045 
L 23.566704 315.73317 
L 28.231904 317.333474 
L 33.430389 318.925443 
L 39.01834 320.418848 
L 45.994717 321.976258 
L 49.725107 322.672482 
L 57.732954 323.852857 
L 62.865239 324.387518 
L 68.853342 324.795171 
L 74.613711 324.969231 
L 80.701343 324.921547 
L 88.556993 324.507748 
L 93.926859 323.995019 
L 100.700383 323.07879 
L 108.226347 321.701899 
L 116.465626 319.74931 
L 123.4957 317.70204 
L 128.360375 316.071824 
L 134.15961 313.890908 
L 140.871021 311.029475 
L 147.323992 307.916832 
L 153.287059 304.704148 
L 158.489291 301.618684 
L 163.407827 298.441407 
L 167.953105 295.263665 
L 172.895925 291.522916 
L 177.24644 287.96301 
L 181.802747 283.939824 
L 185.358783 280.569607 
L 189.440013 276.426087 
L 193.507303 271.969776 
L 196.879482 267.996065 
L 200.910773 262.865875 
L 204.743947 257.541971 
L 207.409551 253.539418 
L 210.605984 248.355487 
L 213.822215 242.631372 
L 216.676696 237.020707 
L 219.179939 231.579739 
L 221.674538 225.527512 
L 223.571292 220.368258 
L 225.510125 214.408925 
L 226.996192 209.181638 
L 228.445674 203.257559 
L 229.732374 196.895333 
L 230.589811 191.635935 
L 231.413937 184.96562 
L 231.866374 179.595744 
L 232.163002 173.164985 
L 232.200596 167.209688 
L 232.070327 162.530093 
L 231.612409 155.534206 
L 231.065433 150.327662 
L 230.14639 143.911928 
L 229.058809 138.013527 
L 227.629984 131.694801 
L 226.424571 127.132821 
L 224.40748 120.511209 
L 222.781033 115.821685 
L 220.88143 110.876904 
L 218.546313 105.398183 
L 215.741754 99.487293 
L 213.206363 94.636109 
L 210.477423 89.835309 
L 207.027233 84.278095 
L 203.809236 79.523867 
L 200.191437 74.594031 
L 196.145288 69.523881 
L 192.959974 65.818355 
L 188.577304 61.080272 
L 184.494411 56.99982 
L 179.818942 52.677826 
L 175.090353 48.64827 
L 170.777634 45.244304 
L 166.612245 42.182031 
L 160.762172 38.225329 
L 156.970911 35.860718 
L 152.264261 33.129162 
L 146.435262 30.040893 
L 140.016624 26.99377 
L 134.776788 24.765154 
L 128.612761 22.425961 
L 124.475024 21.020177 
L 119.089981 19.381394 
L 114.565619 18.166612 
L 110.611897 17.223227 
L 104.83351 16.038371 
L 97.082411 14.802482 
L 90.24945 14.041926 
L 83.600127 13.593157 
L 78.058305 13.436836 
L 72.796439 13.470966 
L 65.754737 13.795145 
L 60.559944 14.239695 
L 54.064634 15.043414 
L 45.421434 16.547413 
L 37.862844 18.280097 
L 32.862761 19.647087 
L 25.367774 22.037733 
L 19.788583 24.09395 
L 13.190891 26.845676 
L 11.612027 27.557667 
L 11.612027 27.557667 
" clip-path="url(#pe258006328)" style="fill: none; stroke: #0000ff; stroke-width: 1.5; stroke-linecap: square"/>
   </g>
   <g id="line2d_59">
    <path d="M 75.250291 171.798503 
L 11.612027 310.850647 
L 11.612027 310.850647 
" clip-path="url(#pe258006328)" style="fill: none; stroke: #ff0000; stroke-width: 1.5; stroke-linecap: square"/>
   </g>
   <g id="line2d_60">
    <path d="M 77.979167 171.604985 
L 160.603611 300.284932 
L 160.603611 300.284932 
" clip-path="url(#pe258006328)" style="fill: none; stroke: #ff0000; stroke-width: 1.5; stroke-linecap: square"/>
   </g>
   <g id="line2d_61">
    <path d="M 79.290745 169.204157 
L 232.213365 169.204157 
L 232.213365 169.204157 
" clip-path="url(#pe258006328)" style="fill: none; stroke: #ff0000; stroke-width: 1.5; stroke-linecap: square"/>
   </g>
   <g id="line2d_62">
    <path d="M 77.979167 166.803329 
L 160.603611 38.123382 
L 160.603611 38.123382 
" clip-path="url(#pe258006328)" style="fill: none; stroke: #ff0000; stroke-width: 1.5; stroke-linecap: square"/>
   </g>
   <g id="line2d_63">
    <path d="M 75.250291 166.609811 
L 11.612027 27.557667 
L 11.612027 27.557667 
" clip-path="url(#pe258006328)" style="fill: none; stroke: #ff0000; stroke-width: 1.5; stroke-linecap: square"/>
   </g>
   <g id="patch_3">
    <path d="M 76.437613 331.2 
L 76.437613 7.2 
" style="fill: none; stroke: #000000; stroke-width: 0.8; stroke-linejoin: miter; stroke-linecap: square"/>
   </g>
   <g id="patch_4">
    <path d="M 7.2 169.204157 
L 236.625392 169.204157 
" style="fill: none; stroke: #000000; stroke-width: 0.8; stroke-linejoin: miter; stroke-linecap: square"/>
   </g>
   <g id="text_11">
    <!-- $f(R)$ -->
    <g transform="translate(76.984982 128.43205) scale(0.14 -0.14)">
     <defs>
      <path id="Cmmi10-66" d="M 622 -1056 
Q 741 -1147 909 -1147 
Q 1138 -1147 1281 -641 
Q 1341 -397 1606 966 
L 1900 2534 
L 1350 2534 
Q 1288 2534 1288 2619 
Q 1313 2759 1369 2759 
L 1941 2759 
L 2016 3175 
Q 2053 3369 2084 3508 
Q 2116 3647 2152 3765 
Q 2188 3884 2259 4031 
Q 2369 4241 2555 4377 
Q 2741 4513 2956 4513 
Q 3097 4513 3230 4461 
Q 3363 4409 3447 4306 
Q 3531 4203 3531 4063 
Q 3531 3900 3423 3779 
Q 3316 3659 3163 3659 
Q 3059 3659 2986 3723 
Q 2913 3788 2913 3891 
Q 2913 4031 3008 4136 
Q 3103 4241 3244 4256 
Q 3125 4347 2950 4347 
Q 2853 4347 2767 4256 
Q 2681 4166 2656 4063 
Q 2616 3900 2478 3181 
L 2400 2759 
L 3059 2759 
Q 3122 2759 3122 2675 
Q 3119 2659 3109 2620 
Q 3100 2581 3083 2557 
Q 3066 2534 3041 2534 
L 2356 2534 
L 2059 972 
Q 2003 631 1929 279 
Q 1856 -72 1723 -442 
Q 1591 -813 1384 -1063 
Q 1178 -1313 897 -1313 
Q 681 -1313 511 -1189 
Q 341 -1066 341 -863 
Q 341 -700 445 -579 
Q 550 -459 709 -459 
Q 816 -459 887 -523 
Q 959 -588 959 -691 
Q 959 -828 857 -942 
Q 756 -1056 622 -1056 
z
" transform="scale(0.015625)"/>
      <path id="Cmr10-28" d="M 1984 -1588 
Q 1628 -1306 1370 -942 
Q 1113 -578 948 -165 
Q 784 247 703 697 
Q 622 1147 622 1600 
Q 622 2059 703 2509 
Q 784 2959 951 3375 
Q 1119 3791 1378 4153 
Q 1638 4516 1984 4788 
Q 1984 4800 2016 4800 
L 2075 4800 
Q 2094 4800 2109 4783 
Q 2125 4766 2125 4744 
Q 2125 4716 2113 4703 
Q 1800 4397 1592 4047 
Q 1384 3697 1257 3301 
Q 1131 2906 1075 2482 
Q 1019 2059 1019 1600 
Q 1019 -434 2106 -1491 
Q 2125 -1509 2125 -1544 
Q 2125 -1559 2108 -1579 
Q 2091 -1600 2075 -1600 
L 2016 -1600 
Q 1984 -1600 1984 -1588 
z
" transform="scale(0.015625)"/>
      <path id="Cmmi10-52" d="M 313 0 
Q 250 0 250 84 
Q 253 100 262 139 
Q 272 178 289 201 
Q 306 225 331 225 
Q 722 225 878 269 
Q 959 297 997 441 
L 1875 3956 
Q 1888 4019 1888 4044 
Q 1888 4113 1813 4122 
Q 1691 4147 1350 4147 
Q 1288 4147 1288 4231 
Q 1291 4247 1300 4286 
Q 1309 4325 1326 4348 
Q 1344 4372 1369 4372 
L 3309 4372 
Q 3541 4372 3791 4319 
Q 4041 4266 4250 4152 
Q 4459 4038 4593 3848 
Q 4728 3659 4728 3406 
Q 4728 3084 4515 2831 
Q 4303 2578 3978 2408 
Q 3653 2238 3347 2169 
Q 3597 2078 3756 1879 
Q 3916 1681 3916 1422 
Q 3916 1388 3914 1370 
Q 3913 1353 3909 1331 
L 3859 763 
Q 3853 638 3847 550 
Q 3841 463 3841 409 
Q 3841 234 3892 129 
Q 3944 25 4097 25 
Q 4297 25 4448 211 
Q 4600 397 4647 616 
Q 4675 672 4709 672 
L 4769 672 
Q 4831 672 4831 588 
Q 4784 403 4682 237 
Q 4581 72 4426 -34 
Q 4272 -141 4091 -141 
Q 3716 -141 3452 26 
Q 3188 194 3188 550 
Q 3188 684 3213 788 
L 3353 1356 
Q 3378 1434 3378 1538 
Q 3378 1803 3198 1954 
Q 3019 2106 2747 2106 
L 1959 2106 
L 1538 416 
Q 1522 363 1522 325 
Q 1522 259 1600 250 
Q 1722 225 2059 225 
Q 2125 225 2125 141 
Q 2103 50 2090 25 
Q 2078 0 2016 0 
L 313 0 
z
M 1997 2272 
L 2706 2272 
Q 3403 2272 3756 2625 
Q 3919 2788 4014 3039 
Q 4109 3291 4109 3541 
Q 4109 3778 3970 3912 
Q 3831 4047 3626 4097 
Q 3422 4147 3175 4147 
L 2747 4147 
Q 2572 4147 2515 4117 
Q 2459 4088 2413 3928 
L 1997 2272 
z
" transform="scale(0.015625)"/>
      <path id="Cmr10-29" d="M 416 -1600 
Q 359 -1600 359 -1544 
Q 359 -1516 372 -1503 
Q 1466 -434 1466 1600 
Q 1466 3634 384 4691 
Q 359 4706 359 4744 
Q 359 4766 376 4783 
Q 394 4800 416 4800 
L 475 4800 
Q 494 4800 506 4788 
Q 966 4425 1272 3906 
Q 1578 3388 1720 2800 
Q 1863 2213 1863 1600 
Q 1863 1147 1786 708 
Q 1709 269 1542 -157 
Q 1375 -584 1119 -945 
Q 863 -1306 506 -1588 
Q 494 -1600 475 -1600 
L 416 -1600 
z
" transform="scale(0.015625)"/>
     </defs>
     <use xlink:href="#Cmmi10-66"/>
     <use xlink:href="#Cmr10-28" transform="translate(48.876953 0)"/>
     <use xlink:href="#Cmmi10-52" transform="translate(87.695312 0)"/>
     <use xlink:href="#Cmr10-29" transform="translate(163.574219 0)"/>
    </g>
   </g>
  </g>
 </g>
 <defs>
  <clipPath id="pe258006328">
   <rect x="7.2" y="7.2" width="229.425392" height="324"/>
  </clipPath>
 </defs>
</svg>
