<?xml version="1.0" encoding="utf-8" standalone="no"?>
<!DOCTYPE svg PUBLIC "-//W3C//DTD SVG 1.1//EN"
  "http://www.w3.org/Graphics/SVG/1.1/DTD/svg11.dtd">
<svg xmlns:xlink="http://www.w3.org/1999/xlink" width="283.564615pt" height="337.397538pt" viewBox="0 0 283.564615 337.397538" xmlns="http://www.w3.org/2000/svg" version="1.1">
 <metadata>
  <rdf:RDF xmlns:dc="http://purl.org/dc/elements/1.1/" xmlns:cc="http://creativecommons.org/ns#" xmlns:rdf="http://www.w3.org/1999/02/22-rdf-syntax-ns#">
   <cc:Work>
    <dc:type rdf:resource="http://purl.org/dc/dcmitype/StillImage"/>
    <dc:date>2025-01-20T11:15:15.202607</dc:date>
    <dc:format>image/svg+xml</dc:format>
    <dc:creator>
     <cc:Agent>
      <dc:title>Matplotlib v3.6.2, https://matplotlib.org/</dc:title>
     </cc:Agent>
    </dc:creator>
   </cc:Work>
  </rdf:RDF>
 </metadata>
 <defs>
  <style type="text/css">*{stroke-linejoin: round; stroke-linecap: butt}</style>
 </defs>
 <g id="figure_1">
  <g id="patch_1">
   <path d="M 0 337.397538 
L 283.564615 337.397538 
L 283.564615 0 
L 0 0 
z
" style="fill: #ffffff"/>
  </g>
  <g id="axes_1">
   <g id="patch_2">
    <path d="M 7.2 330.197538 
L 276.364615 330.197538 
L 276.364615 7.2 
L 7.2 7.2 
z
" style="fill: #ffffff"/>
   </g>
   <g id="PathCollection_1">
    <path d="M 156.945039 147.55637 
L 157.990744 147.697863 
L 159.03645 147.191013 
L 159.843375 146.738952 
L 160.082155 146.656683 
L 161.127861 146.174165 
L 162.166911 145.693247 
L 162.173566 145.690645 
L 163.219272 145.223023 
L 164.264978 144.766439 
L 164.533723 144.647541 
L 165.310683 144.314237 
L 166.356389 143.873758 
L 167.021597 143.601835 
L 167.402094 143.442571 
L 168.4478 143.012065 
L 169.493505 142.602157 
L 169.615954 142.55613 
L 170.539211 142.181084 
L 171.584917 141.77702 
L 172.316199 141.510424 
L 172.630622 141.381675 
L 173.676328 140.978895 
L 174.722033 140.59877 
L 175.126764 140.464719 
L 175.767739 140.21017 
L 176.813445 139.826657 
L 177.85915 139.468868 
L 178.034343 139.419013 
L 178.904856 139.081801 
L 179.950561 138.712449 
L 180.996267 138.380843 
L 181.039658 138.373308 
L 182.041972 137.949875 
L 183.087406 137.327602 
L 182.773306 136.281896 
L 182.382766 135.236191 
L 182.041972 134.410996 
L 181.981323 134.190485 
L 181.594406 133.14478 
L 181.183772 132.099074 
L 180.996267 131.667639 
L 180.765623 131.053368 
L 180.336525 130.007663 
L 179.950561 129.102905 
L 179.89481 128.961957 
L 179.441687 127.916252 
L 178.978852 126.870546 
L 178.904856 126.711507 
L 178.500732 125.824841 
L 178.014882 124.779135 
L 177.85915 124.452467 
L 177.513422 123.733429 
L 177.004062 122.687724 
L 176.813445 122.29981 
L 176.47912 121.642018 
L 175.946896 120.596313 
L 175.767739 120.241999 
L 175.397257 119.550607 
L 174.844057 118.504902 
L 174.722033 118.268512 
L 174.267641 117.459196 
L 173.697097 116.41349 
L 173.676328 116.373463 
L 173.090885 115.367785 
L 172.630622 114.536539 
L 172.49325 114.322079 
L 171.869363 113.276374 
L 171.584917 112.753726 
L 171.23624 112.230668 
L 170.610145 111.184963 
L 170.539211 111.04241 
L 169.930169 110.139257 
L 169.493505 109.349283 
L 169.267716 109.093551 
L 168.587057 108.047846 
L 168.4478 107.605397 
L 167.627323 107.00214 
L 167.402094 106.477636 
L 167.241068 107.00214 
L 166.356389 107.377831 
L 165.557093 108.047846 
L 165.310683 108.15633 
L 164.264978 108.872771 
L 164.011949 109.093551 
L 163.219272 109.601265 
L 162.51401 110.139257 
L 162.173566 110.349875 
L 161.127861 111.102476 
L 161.026648 111.184963 
L 160.082155 111.855875 
L 159.599113 112.230668 
L 159.03645 112.625408 
L 158.175498 113.276374 
L 157.990744 113.406292 
L 156.945039 114.19553 
L 156.786049 114.322079 
L 155.899333 114.997215 
L 155.429904 115.367785 
L 154.853627 115.811559 
L 154.092451 116.41349 
L 153.807922 116.637084 
L 152.778988 117.459196 
L 152.762216 117.472761 
L 151.716511 118.329075 
L 151.499682 118.504902 
L 150.670805 119.200649 
L 150.243688 119.550607 
L 149.6251 120.086844 
L 149.01276 120.596313 
L 148.579394 120.987899 
L 147.808756 121.642018 
L 147.533688 121.904217 
L 146.633089 122.687724 
L 146.487983 122.836218 
L 145.486921 123.733429 
L 145.442277 123.783977 
L 144.396572 124.75633 
L 144.362873 124.779135 
L 143.350866 125.766407 
L 143.240943 125.824841 
L 142.30516 126.819246 
L 141.795444 126.870546 
L 142.30516 127.339824 
L 142.362625 127.916252 
L 143.350866 128.855337 
L 143.408053 128.961957 
L 144.396572 129.987121 
L 144.410127 130.007663 
L 145.369459 131.053368 
L 145.442277 131.117778 
L 146.304613 132.099074 
L 146.487983 132.280763 
L 147.217207 133.14478 
L 147.533688 133.487247 
L 148.105532 134.190485 
L 148.579394 134.74238 
L 148.967738 135.236191 
L 149.6251 136.051541 
L 149.801246 136.281896 
L 150.605655 137.327602 
L 150.670805 137.413311 
L 151.391227 138.373308 
L 151.716511 138.828731 
L 152.148042 139.419013 
L 152.762216 140.319529 
L 152.867818 140.464719 
L 153.575081 141.510424 
L 153.807922 141.899439 
L 154.258489 142.55613 
L 154.853627 143.558582 
L 154.885633 143.601835 
L 155.537811 144.647541 
L 155.899333 145.390095 
L 156.134391 145.693247 
L 156.729102 146.738952 
z
" clip-path="url(#pc5951b5186)" style="fill: #add8e6"/>
   </g>
   <g id="PathCollection_2">
    <path d="M 156.945039 147.55637 
L 157.990744 147.697863 
L 159.03645 147.191013 
L 159.843375 146.738952 
L 160.082155 146.656683 
L 161.127861 146.174165 
L 162.166911 145.693247 
L 162.173566 145.690645 
L 163.219272 145.223023 
L 164.264978 144.766439 
L 164.533723 144.647541 
L 165.310683 144.314237 
L 166.356389 143.873758 
L 167.021597 143.601835 
L 167.402094 143.442571 
L 168.4478 143.012065 
L 169.493505 142.602157 
L 169.615954 142.55613 
L 170.539211 142.181084 
L 171.584917 141.77702 
L 172.316199 141.510424 
L 172.630622 141.381675 
L 173.676328 140.978895 
L 174.722033 140.59877 
L 175.126764 140.464719 
L 175.767739 140.21017 
L 176.813445 139.826657 
L 177.85915 139.468868 
L 178.034343 139.419013 
L 178.904856 139.081801 
L 179.950561 138.712449 
L 180.996267 138.380843 
L 181.039658 138.373308 
L 182.041972 137.949875 
L 183.087406 137.327602 
L 182.773306 136.281896 
L 182.382766 135.236191 
L 182.041972 134.410996 
L 181.981323 134.190485 
L 181.594406 133.14478 
L 181.183772 132.099074 
L 180.996267 131.667639 
L 180.765623 131.053368 
L 180.336525 130.007663 
L 179.950561 129.102905 
L 179.89481 128.961957 
L 179.441687 127.916252 
L 178.978852 126.870546 
L 178.904856 126.711507 
L 178.500732 125.824841 
L 178.014882 124.779135 
L 177.85915 124.452467 
L 177.513422 123.733429 
L 177.004062 122.687724 
L 176.813445 122.29981 
L 176.47912 121.642018 
L 175.946896 120.596313 
L 175.767739 120.241999 
L 175.397257 119.550607 
L 174.844057 118.504902 
L 174.722033 118.268512 
L 174.267641 117.459196 
L 173.697097 116.41349 
L 173.676328 116.373463 
L 173.090885 115.367785 
L 172.630622 114.536539 
L 172.49325 114.322079 
L 171.869363 113.276374 
L 171.584917 112.753726 
L 171.23624 112.230668 
L 170.610145 111.184963 
L 170.539211 111.04241 
L 169.930169 110.139257 
L 169.493505 109.349283 
L 169.267716 109.093551 
L 168.587057 108.047846 
L 168.4478 107.605397 
L 167.627323 107.00214 
L 167.402094 106.477636 
L 167.241068 107.00214 
L 166.356389 107.377831 
L 165.557093 108.047846 
L 165.310683 108.15633 
L 164.264978 108.872771 
L 164.011949 109.093551 
L 163.219272 109.601265 
L 162.51401 110.139257 
L 162.173566 110.349875 
L 161.127861 111.102476 
L 161.026648 111.184963 
L 160.082155 111.855875 
L 159.599113 112.230668 
L 159.03645 112.625408 
L 158.175498 113.276374 
L 157.990744 113.406292 
L 156.945039 114.19553 
L 156.786049 114.322079 
L 155.899333 114.997215 
L 155.429904 115.367785 
L 154.853627 115.811559 
L 154.092451 116.41349 
L 153.807922 116.637084 
L 152.778988 117.459196 
L 152.762216 117.472761 
L 151.716511 118.329075 
L 151.499682 118.504902 
L 150.670805 119.200649 
L 150.243688 119.550607 
L 149.6251 120.086844 
L 149.01276 120.596313 
L 148.579394 120.987899 
L 147.808756 121.642018 
L 147.533688 121.904217 
L 146.633089 122.687724 
L 146.487983 122.836218 
L 145.486921 123.733429 
L 145.442277 123.783977 
L 144.396572 124.75633 
L 144.362873 124.779135 
L 143.350866 125.766407 
L 143.240943 125.824841 
L 142.30516 126.819246 
L 141.795444 126.870546 
L 142.30516 127.339824 
L 142.362625 127.916252 
L 143.350866 128.855337 
L 143.408053 128.961957 
L 144.396572 129.987121 
L 144.410127 130.007663 
L 145.369459 131.053368 
L 145.442277 131.117778 
L 146.304613 132.099074 
L 146.487983 132.280763 
L 147.217207 133.14478 
L 147.533688 133.487247 
L 148.105532 134.190485 
L 148.579394 134.74238 
L 148.967738 135.236191 
L 149.6251 136.051541 
L 149.801246 136.281896 
L 150.605655 137.327602 
L 150.670805 137.413311 
L 151.391227 138.373308 
L 151.716511 138.828731 
L 152.148042 139.419013 
L 152.762216 140.319529 
L 152.867818 140.464719 
L 153.575081 141.510424 
L 153.807922 141.899439 
L 154.258489 142.55613 
L 154.853627 143.558582 
L 154.885633 143.601835 
L 155.537811 144.647541 
L 155.899333 145.390095 
L 156.134391 145.693247 
L 156.729102 146.738952 
z
M 156.729102 146.738952 
L 156.134391 145.693247 
L 155.899333 145.390095 
L 155.537811 144.647541 
L 154.885633 143.601835 
L 154.853627 143.558582 
L 154.258489 142.55613 
L 153.807922 141.899439 
L 153.575081 141.510424 
L 152.867818 140.464719 
L 152.762216 140.319529 
L 152.148042 139.419013 
L 151.716511 138.828731 
L 151.391227 138.373308 
L 150.670805 137.413311 
L 150.605655 137.327602 
L 149.801246 136.281896 
L 149.6251 136.051541 
L 148.967738 135.236191 
L 148.579394 134.74238 
L 148.105532 134.190485 
L 147.533688 133.487247 
L 147.217207 133.14478 
L 146.487983 132.280763 
L 146.304613 132.099074 
L 145.442277 131.117778 
L 145.369459 131.053368 
L 144.410127 130.007663 
L 144.396572 129.987121 
L 143.408053 128.961957 
L 143.350866 128.855337 
L 142.362625 127.916252 
L 142.30516 127.339824 
L 141.795444 126.870546 
L 142.30516 126.819246 
L 143.240943 125.824841 
L 143.350866 125.766407 
L 144.362873 124.779135 
L 144.396572 124.75633 
L 145.442277 123.783977 
L 145.486921 123.733429 
L 146.487983 122.836218 
L 146.633089 122.687724 
L 147.533688 121.904217 
L 147.808756 121.642018 
L 148.579394 120.987899 
L 149.01276 120.596313 
L 149.6251 120.086844 
L 150.243688 119.550607 
L 150.670805 119.200649 
L 151.499682 118.504902 
L 151.716511 118.329075 
L 152.762216 117.472761 
L 152.778988 117.459196 
L 153.807922 116.637084 
L 154.092451 116.41349 
L 154.853627 115.811559 
L 155.429904 115.367785 
L 155.899333 114.997215 
L 156.786049 114.322079 
L 156.945039 114.19553 
L 157.990744 113.406292 
L 158.175498 113.276374 
L 159.03645 112.625408 
L 159.599113 112.230668 
L 160.082155 111.855875 
L 161.026648 111.184963 
L 161.127861 111.102476 
L 162.173566 110.349875 
L 162.51401 110.139257 
L 163.219272 109.601265 
L 164.011949 109.093551 
L 164.264978 108.872771 
L 165.310683 108.15633 
L 165.557093 108.047846 
L 166.356389 107.377831 
L 167.241068 107.00214 
L 167.402094 106.477636 
L 167.627323 107.00214 
L 168.4478 107.605397 
L 168.587057 108.047846 
L 169.267716 109.093551 
L 169.493505 109.349283 
L 169.930169 110.139257 
L 170.539211 111.04241 
L 170.610145 111.184963 
L 171.23624 112.230668 
L 171.584917 112.753726 
L 171.869363 113.276374 
L 172.49325 114.322079 
L 172.630622 114.536539 
L 173.090885 115.367785 
L 173.676328 116.373463 
L 173.697097 116.41349 
L 174.267641 117.459196 
L 174.722033 118.268512 
L 174.844057 118.504902 
L 175.397257 119.550607 
L 175.767739 120.241999 
L 175.946896 120.596313 
L 176.47912 121.642018 
L 176.813445 122.29981 
L 177.004062 122.687724 
L 177.513422 123.733429 
L 177.85915 124.452467 
L 178.014882 124.779135 
L 178.500732 125.824841 
L 178.904856 126.711507 
L 178.978852 126.870546 
L 179.441687 127.916252 
L 179.89481 128.961957 
L 179.950561 129.102905 
L 180.336525 130.007663 
L 180.765623 131.053368 
L 180.996267 131.667639 
L 181.183772 132.099074 
L 181.594406 133.14478 
L 181.981323 134.190485 
L 182.041972 134.410996 
L 182.382766 135.236191 
L 182.773306 136.281896 
L 183.087406 137.327602 
L 182.041972 137.949875 
L 181.039658 138.373308 
L 180.996267 138.380843 
L 179.950561 138.712449 
L 178.904856 139.081801 
L 178.034343 139.419013 
L 177.85915 139.468868 
L 176.813445 139.826657 
L 175.767739 140.21017 
L 175.126764 140.464719 
L 174.722033 140.59877 
L 173.676328 140.978895 
L 172.630622 141.381675 
L 172.316199 141.510424 
L 171.584917 141.77702 
L 170.539211 142.181084 
L 169.615954 142.55613 
L 169.493505 142.602157 
L 168.4478 143.012065 
L 167.402094 143.442571 
L 167.021597 143.601835 
L 166.356389 143.873758 
L 165.310683 144.314237 
L 164.533723 144.647541 
L 164.264978 144.766439 
L 163.219272 145.223023 
L 162.173566 145.690645 
L 162.166911 145.693247 
L 161.127861 146.174165 
L 160.082155 146.656683 
L 159.843375 146.738952 
L 159.03645 147.191013 
L 157.990744 147.697863 
L 156.945039 147.55637 
z
" clip-path="url(#pc5951b5186)" style="fill: #add8e6"/>
   </g>
   <g id="PathCollection_3">
    <path d="M 156.945039 147.55637 
L 157.990744 147.697863 
L 159.03645 147.191013 
L 159.843375 146.738952 
L 160.082155 146.656683 
L 161.127861 146.174165 
L 162.166911 145.693247 
L 162.173566 145.690645 
L 163.219272 145.223023 
L 164.264978 144.766439 
L 164.533723 144.647541 
L 165.310683 144.314237 
L 166.356389 143.873758 
L 167.021597 143.601835 
L 167.402094 143.442571 
L 168.4478 143.012065 
L 169.493505 142.602157 
L 169.615954 142.55613 
L 170.539211 142.181084 
L 171.584917 141.77702 
L 172.316199 141.510424 
L 172.630622 141.381675 
L 173.676328 140.978895 
L 174.722033 140.59877 
L 175.126764 140.464719 
L 175.767739 140.21017 
L 176.813445 139.826657 
L 177.85915 139.468868 
L 178.034343 139.419013 
L 178.904856 139.081801 
L 179.950561 138.712449 
L 180.996267 138.380843 
L 181.039658 138.373308 
L 182.041972 137.949875 
L 183.087406 137.327602 
L 182.773306 136.281896 
L 182.382766 135.236191 
L 182.041972 134.410996 
L 181.981323 134.190485 
L 181.594406 133.14478 
L 181.183772 132.099074 
L 180.996267 131.667639 
L 180.765623 131.053368 
L 180.336525 130.007663 
L 179.950561 129.102905 
L 179.89481 128.961957 
L 179.441687 127.916252 
L 178.978852 126.870546 
L 178.904856 126.711507 
L 178.500732 125.824841 
L 178.014882 124.779135 
L 177.85915 124.452467 
L 177.513422 123.733429 
L 177.004062 122.687724 
L 176.813445 122.29981 
L 176.47912 121.642018 
L 175.946896 120.596313 
L 175.767739 120.241999 
L 175.397257 119.550607 
L 174.844057 118.504902 
L 174.722033 118.268512 
L 174.267641 117.459196 
L 173.697097 116.41349 
L 173.676328 116.373463 
L 173.090885 115.367785 
L 172.630622 114.536539 
L 172.49325 114.322079 
L 171.869363 113.276374 
L 171.584917 112.753726 
L 171.23624 112.230668 
L 170.610145 111.184963 
L 170.539211 111.04241 
L 169.930169 110.139257 
L 169.493505 109.349283 
L 169.267716 109.093551 
L 168.587057 108.047846 
L 168.4478 107.605397 
L 167.627323 107.00214 
L 167.402094 106.477636 
L 167.241068 107.00214 
L 166.356389 107.377831 
L 165.557093 108.047846 
L 165.310683 108.15633 
L 164.264978 108.872771 
L 164.011949 109.093551 
L 163.219272 109.601265 
L 162.51401 110.139257 
L 162.173566 110.349875 
L 161.127861 111.102476 
L 161.026648 111.184963 
L 160.082155 111.855875 
L 159.599113 112.230668 
L 159.03645 112.625408 
L 158.175498 113.276374 
L 157.990744 113.406292 
L 156.945039 114.19553 
L 156.786049 114.322079 
L 155.899333 114.997215 
L 155.429904 115.367785 
L 154.853627 115.811559 
L 154.092451 116.41349 
L 153.807922 116.637084 
L 152.778988 117.459196 
L 152.762216 117.472761 
L 151.716511 118.329075 
L 151.499682 118.504902 
L 150.670805 119.200649 
L 150.243688 119.550607 
L 149.6251 120.086844 
L 149.01276 120.596313 
L 148.579394 120.987899 
L 147.808756 121.642018 
L 147.533688 121.904217 
L 146.633089 122.687724 
L 146.487983 122.836218 
L 145.486921 123.733429 
L 145.442277 123.783977 
L 144.396572 124.75633 
L 144.362873 124.779135 
L 143.350866 125.766407 
L 143.240943 125.824841 
L 142.30516 126.819246 
L 141.795444 126.870546 
L 142.30516 127.339824 
L 142.362625 127.916252 
L 143.350866 128.855337 
L 143.408053 128.961957 
L 144.396572 129.987121 
L 144.410127 130.007663 
L 145.369459 131.053368 
L 145.442277 131.117778 
L 146.304613 132.099074 
L 146.487983 132.280763 
L 147.217207 133.14478 
L 147.533688 133.487247 
L 148.105532 134.190485 
L 148.579394 134.74238 
L 148.967738 135.236191 
L 149.6251 136.051541 
L 149.801246 136.281896 
L 150.605655 137.327602 
L 150.670805 137.413311 
L 151.391227 138.373308 
L 151.716511 138.828731 
L 152.148042 139.419013 
L 152.762216 140.319529 
L 152.867818 140.464719 
L 153.575081 141.510424 
L 153.807922 141.899439 
L 154.258489 142.55613 
L 154.853627 143.558582 
L 154.885633 143.601835 
L 155.537811 144.647541 
L 155.899333 145.390095 
L 156.134391 145.693247 
L 156.729102 146.738952 
z
M 156.729102 146.738952 
L 156.134391 145.693247 
L 155.899333 145.390095 
L 155.537811 144.647541 
L 154.885633 143.601835 
L 154.853627 143.558582 
L 154.258489 142.55613 
L 153.807922 141.899439 
L 153.575081 141.510424 
L 152.867818 140.464719 
L 152.762216 140.319529 
L 152.148042 139.419013 
L 151.716511 138.828731 
L 151.391227 138.373308 
L 150.670805 137.413311 
L 150.605655 137.327602 
L 149.801246 136.281896 
L 149.6251 136.051541 
L 148.967738 135.236191 
L 148.579394 134.74238 
L 148.105532 134.190485 
L 147.533688 133.487247 
L 147.217207 133.14478 
L 146.487983 132.280763 
L 146.304613 132.099074 
L 145.442277 131.117778 
L 145.369459 131.053368 
L 144.410127 130.007663 
L 144.396572 129.987121 
L 143.408053 128.961957 
L 143.350866 128.855337 
L 142.362625 127.916252 
L 142.30516 127.339824 
L 141.795444 126.870546 
L 142.30516 126.819246 
L 143.240943 125.824841 
L 143.350866 125.766407 
L 144.362873 124.779135 
L 144.396572 124.75633 
L 145.442277 123.783977 
L 145.486921 123.733429 
L 146.487983 122.836218 
L 146.633089 122.687724 
L 147.533688 121.904217 
L 147.808756 121.642018 
L 148.579394 120.987899 
L 149.01276 120.596313 
L 149.6251 120.086844 
L 150.243688 119.550607 
L 150.670805 119.200649 
L 151.499682 118.504902 
L 151.716511 118.329075 
L 152.762216 117.472761 
L 152.778988 117.459196 
L 153.807922 116.637084 
L 154.092451 116.41349 
L 154.853627 115.811559 
L 155.429904 115.367785 
L 155.899333 114.997215 
L 156.786049 114.322079 
L 156.945039 114.19553 
L 157.990744 113.406292 
L 158.175498 113.276374 
L 159.03645 112.625408 
L 159.599113 112.230668 
L 160.082155 111.855875 
L 161.026648 111.184963 
L 161.127861 111.102476 
L 162.173566 110.349875 
L 162.51401 110.139257 
L 163.219272 109.601265 
L 164.011949 109.093551 
L 164.264978 108.872771 
L 165.310683 108.15633 
L 165.557093 108.047846 
L 166.356389 107.377831 
L 167.241068 107.00214 
L 167.402094 106.477636 
L 167.627323 107.00214 
L 168.4478 107.605397 
L 168.587057 108.047846 
L 169.267716 109.093551 
L 169.493505 109.349283 
L 169.930169 110.139257 
L 170.539211 111.04241 
L 170.610145 111.184963 
L 171.23624 112.230668 
L 171.584917 112.753726 
L 171.869363 113.276374 
L 172.49325 114.322079 
L 172.630622 114.536539 
L 173.090885 115.367785 
L 173.676328 116.373463 
L 173.697097 116.41349 
L 174.267641 117.459196 
L 174.722033 118.268512 
L 174.844057 118.504902 
L 175.397257 119.550607 
L 175.767739 120.241999 
L 175.946896 120.596313 
L 176.47912 121.642018 
L 176.813445 122.29981 
L 177.004062 122.687724 
L 177.513422 123.733429 
L 177.85915 124.452467 
L 178.014882 124.779135 
L 178.500732 125.824841 
L 178.904856 126.711507 
L 178.978852 126.870546 
L 179.441687 127.916252 
L 179.89481 128.961957 
L 179.950561 129.102905 
L 180.336525 130.007663 
L 180.765623 131.053368 
L 180.996267 131.667639 
L 181.183772 132.099074 
L 181.594406 133.14478 
L 181.981323 134.190485 
L 182.041972 134.410996 
L 182.382766 135.236191 
L 182.773306 136.281896 
L 183.087406 137.327602 
L 182.041972 137.949875 
L 181.039658 138.373308 
L 180.996267 138.380843 
L 179.950561 138.712449 
L 178.904856 139.081801 
L 178.034343 139.419013 
L 177.85915 139.468868 
L 176.813445 139.826657 
L 175.767739 140.21017 
L 175.126764 140.464719 
L 174.722033 140.59877 
L 173.676328 140.978895 
L 172.630622 141.381675 
L 172.316199 141.510424 
L 171.584917 141.77702 
L 170.539211 142.181084 
L 169.615954 142.55613 
L 169.493505 142.602157 
L 168.4478 143.012065 
L 167.402094 143.442571 
L 167.021597 143.601835 
L 166.356389 143.873758 
L 165.310683 144.314237 
L 164.533723 144.647541 
L 164.264978 144.766439 
L 163.219272 145.223023 
L 162.173566 145.690645 
L 162.166911 145.693247 
L 161.127861 146.174165 
L 160.082155 146.656683 
L 159.843375 146.738952 
L 159.03645 147.191013 
L 157.990744 147.697863 
L 156.945039 147.55637 
z
" clip-path="url(#pc5951b5186)" style="fill: #ffffff"/>
   </g>
   <g id="PathCollection_4">
    <path d="M 91.065587 168.698769 
L 92.111293 168.698769 
L 93.156998 168.698769 
L 94.202704 168.698769 
L 95.24841 168.698769 
L 96.294115 168.698769 
L 97.339821 168.698769 
L 98.385526 168.698769 
L 99.431232 168.698769 
L 100.476937 168.698769 
L 101.522643 168.698769 
L 102.568349 168.698769 
L 103.614054 168.698769 
L 104.65976 168.698769 
L 105.705465 168.698769 
L 106.751171 167.653064 
L 107.796876 168.698769 
L 108.842582 168.698769 
L 109.888288 168.698769 
L 110.933993 168.698769 
L 111.979699 168.698769 
L 113.025404 168.698769 
L 114.07111 168.698769 
L 115.116815 168.698769 
L 116.162521 168.698769 
L 117.208227 168.698769 
L 118.253932 168.698769 
L 119.299638 168.698769 
L 120.345343 168.698769 
L 121.391049 168.698769 
L 122.436755 168.698769 
L 123.48246 168.698769 
L 124.528166 168.698769 
L 125.573871 168.698769 
L 126.619577 168.698769 
L 127.665282 168.698769 
L 128.710988 168.698769 
L 129.756694 168.698769 
L 130.802399 168.698769 
L 131.848105 168.698769 
L 132.89381 168.698769 
L 133.939516 168.698769 
L 134.985221 168.698769 
L 136.030927 168.698769 
L 137.076633 168.698769 
L 138.122338 168.698769 
L 139.168044 168.698769 
L 140.213749 168.698769 
L 141.259455 168.698769 
L 142.30516 168.698769 
L 143.350866 168.698769 
L 144.396572 168.698769 
L 145.442277 168.698769 
L 146.487983 168.698769 
L 147.533688 168.698769 
L 148.579394 168.698769 
L 149.6251 168.698769 
L 150.670805 168.698769 
L 151.716511 168.698769 
L 152.762216 168.698769 
L 153.807922 168.698769 
L 154.853627 168.698769 
L 155.899333 168.698769 
L 156.945039 168.698769 
L 157.990744 168.698769 
L 159.03645 168.698769 
L 160.082155 168.698769 
L 161.127861 168.698769 
L 162.173566 168.698769 
L 163.219272 168.698769 
L 164.264978 168.698769 
L 165.310683 168.698769 
L 166.356389 168.698769 
L 167.402094 168.698769 
L 168.4478 168.698769 
L 169.493505 168.698769 
L 170.539211 168.698769 
L 171.584917 168.698769 
L 172.630622 168.698769 
L 173.676328 168.698769 
L 174.722033 168.698769 
L 175.767739 168.698769 
L 176.813445 168.698769 
L 177.85915 168.698769 
L 178.904856 168.698769 
L 179.950561 168.698769 
L 180.996267 168.698769 
L 182.041972 167.653064 
L 183.087678 168.698769 
L 184.133384 168.698769 
L 185.179089 168.698769 
L 186.224795 168.698769 
L 187.2705 168.698769 
L 188.316206 168.698769 
L 189.361911 168.698769 
L 190.407617 168.698769 
L 191.453323 168.698769 
L 192.499028 168.698769 
L 193.544734 168.698769 
L 193.544734 167.653064 
L 193.544734 166.607358 
L 193.544734 165.561653 
L 193.544734 164.515947 
L 193.544734 163.470241 
L 193.544734 162.424536 
L 193.544734 161.37883 
L 193.544734 160.333125 
L 193.544734 159.287419 
L 193.544734 158.241713 
L 193.544734 157.196008 
L 193.544734 156.150302 
L 193.544734 155.104597 
L 193.544734 154.058891 
L 193.544734 153.013186 
L 193.544734 151.96748 
L 193.544734 150.921774 
L 193.544734 149.876069 
L 193.544734 148.830363 
L 193.544734 147.784658 
L 193.544734 146.738952 
L 193.544734 145.693247 
L 193.544734 144.647541 
L 193.544734 143.601835 
L 193.544734 142.55613 
L 193.544734 141.510424 
L 193.544734 140.464719 
L 193.544734 139.419013 
L 193.544734 138.373308 
L 193.544734 137.327602 
L 193.544734 136.281896 
L 193.544734 135.236191 
L 193.544734 134.190485 
L 193.544734 133.14478 
L 193.544734 132.099074 
L 193.544734 131.053368 
L 193.544734 130.007663 
L 193.544734 128.961957 
L 193.544734 127.916252 
L 193.544734 126.870546 
L 193.544734 125.824841 
L 193.544734 124.779135 
L 193.544734 123.733429 
L 193.544734 122.687724 
L 193.544734 121.642018 
L 193.544734 120.596313 
L 193.544734 119.550607 
L 193.544734 118.504902 
L 193.544734 117.459196 
L 193.544734 116.41349 
L 193.544734 115.367785 
L 193.544734 114.322079 
L 193.544734 113.276374 
L 193.544734 112.230668 
L 193.544734 111.184963 
L 193.544734 110.139257 
L 193.544734 109.093551 
L 193.544734 108.047846 
L 193.544734 107.00214 
L 193.544734 105.956435 
L 193.544734 104.910729 
L 193.544734 103.865023 
L 193.544734 102.819318 
L 193.544734 101.773612 
L 193.544734 100.727907 
L 193.544734 99.682201 
L 193.544734 98.636496 
L 193.544734 97.59079 
L 193.544734 96.545084 
L 193.544734 95.499379 
L 193.544734 94.453673 
L 193.544734 93.407968 
L 193.544734 92.362262 
L 193.544734 91.316557 
L 193.544734 90.270851 
L 193.544734 89.225145 
L 193.544734 88.17944 
L 193.544734 87.133734 
L 193.544734 86.088029 
L 193.544734 85.042323 
L 193.544734 83.996618 
L 193.544734 82.950912 
L 193.544734 81.905206 
L 193.544734 80.859501 
L 193.544734 79.813795 
L 193.544734 78.76809 
L 193.544734 77.722384 
L 193.544734 76.676679 
L 193.544734 75.630973 
L 193.544734 74.585267 
L 193.544734 73.539562 
L 193.544734 72.493856 
L 193.544734 71.448151 
L 193.544734 70.402445 
L 193.544734 69.356739 
L 193.544734 68.311034 
L 193.544734 67.265328 
L 193.544734 66.219623 
L 193.544734 65.173917 
L 192.499028 65.173917 
L 191.453323 65.173917 
L 190.407617 65.173917 
L 189.361911 65.173917 
L 188.316206 65.173917 
L 187.2705 65.173917 
L 186.224795 65.173917 
L 185.179089 65.173917 
L 184.133384 65.173917 
L 183.087678 65.173917 
L 182.041972 65.173917 
L 180.996267 65.173917 
L 179.950561 65.173917 
L 178.904856 65.173917 
L 177.85915 65.173917 
L 176.813445 65.173917 
L 175.767739 65.173917 
L 174.722033 65.173917 
L 173.676328 65.173917 
L 172.630622 65.173917 
L 171.584917 65.173917 
L 170.539211 65.173917 
L 169.493505 65.173917 
L 168.4478 65.173917 
L 167.402094 65.173917 
L 166.356389 65.173917 
L 165.310683 65.173917 
L 164.264978 65.173917 
L 163.219272 65.173917 
L 162.173566 65.173917 
L 161.127861 65.173917 
L 160.082155 65.173917 
L 159.03645 65.173917 
L 157.990744 65.173917 
L 156.945039 65.173917 
L 155.899333 65.173917 
L 154.853627 65.173917 
L 153.807922 65.173917 
L 152.762216 65.173917 
L 151.716511 65.173917 
L 150.670805 65.173917 
L 149.6251 65.173917 
L 148.579394 65.173917 
L 147.533688 65.173917 
L 146.487983 65.173917 
L 145.442277 65.173917 
L 144.396572 65.173917 
L 143.350866 65.173917 
L 142.30516 65.173917 
L 141.259455 65.173917 
L 140.213749 65.173917 
L 139.168044 65.173917 
L 138.122338 65.173917 
L 137.076633 65.173917 
L 136.030927 65.173917 
L 134.985221 65.173917 
L 133.939516 65.173917 
L 132.89381 65.173917 
L 131.848105 65.173917 
L 130.802399 65.173917 
L 129.756694 65.173917 
L 128.710988 65.173917 
L 127.665282 65.173917 
L 126.619577 65.173917 
L 125.573871 65.173917 
L 124.528166 65.173917 
L 123.48246 65.173917 
L 122.436755 65.173917 
L 121.391049 65.173917 
L 120.345343 65.173917 
L 119.299638 65.173917 
L 118.253932 65.173917 
L 117.208227 65.173917 
L 116.162521 65.173917 
L 115.116815 65.173917 
L 114.07111 65.173917 
L 113.025404 65.173917 
L 111.979699 65.173917 
L 110.933993 65.173917 
L 109.888288 65.173917 
L 108.842582 65.173917 
L 107.796876 65.173917 
L 106.751171 65.173917 
L 105.705465 65.173917 
L 104.65976 65.173917 
L 103.614054 65.173917 
L 102.568349 65.173917 
L 101.522643 65.173917 
L 100.476937 65.173917 
L 99.431232 65.173917 
L 98.385526 65.173917 
L 97.339821 65.173917 
L 96.294115 65.173917 
L 95.24841 65.173917 
L 94.202704 65.173917 
L 93.156998 65.173917 
L 92.111293 65.173917 
L 91.065587 65.173917 
L 90.019882 65.173917 
L 90.019882 66.219623 
L 90.019882 67.265328 
L 90.019882 68.311034 
L 90.019882 69.356739 
L 90.019882 70.402445 
L 90.019882 71.448151 
L 90.019882 72.493856 
L 90.019882 73.539562 
L 90.019882 74.585267 
L 90.019882 75.630973 
L 90.019882 76.676679 
L 90.019882 77.722384 
L 90.019882 78.76809 
L 90.019882 79.813795 
L 90.019882 80.859501 
L 90.019882 81.905206 
L 90.019882 82.950912 
L 90.019882 83.996618 
L 90.019882 85.042323 
L 90.019882 86.088029 
L 90.019882 87.133734 
L 90.019882 88.17944 
L 90.019882 89.225145 
L 90.019882 90.270851 
L 90.019882 91.316557 
L 90.019882 92.362262 
L 90.019882 93.407968 
L 90.019882 94.453673 
L 90.019882 95.499379 
L 90.019882 96.545084 
L 90.019882 97.59079 
L 90.019882 98.636496 
L 90.019882 99.682201 
L 90.019882 100.727907 
L 90.019882 101.773612 
L 90.019882 102.819318 
L 90.019882 103.865023 
L 90.019882 104.910729 
L 90.019882 105.956435 
L 90.019882 107.00214 
L 90.019882 108.047846 
L 90.019882 109.093551 
L 90.019882 110.139257 
L 90.019882 111.184963 
L 90.019882 112.230668 
L 90.019882 113.276374 
L 90.019882 114.322079 
L 90.019882 115.367785 
L 90.019882 116.41349 
L 90.019882 117.459196 
L 90.019882 118.504902 
L 90.019882 119.550607 
L 90.019882 120.596313 
L 90.019882 121.642018 
L 90.019882 122.687724 
L 90.019882 123.733429 
L 90.019882 124.779135 
L 90.019882 125.824841 
L 90.019882 126.870546 
L 90.019882 127.916252 
L 90.019882 128.961957 
L 90.019882 130.007663 
L 90.019882 131.053368 
L 90.019882 132.099074 
L 90.019882 133.14478 
L 90.019882 134.190485 
L 90.019882 135.236191 
L 90.019882 136.281896 
L 90.019882 137.327602 
L 90.019882 138.373308 
L 90.019882 139.419013 
L 90.019882 140.464719 
L 90.019882 141.510424 
L 90.019882 142.55613 
L 90.019882 143.601835 
L 90.019882 144.647541 
L 90.019882 145.693247 
L 90.019882 146.738952 
L 90.019882 147.784658 
L 90.019882 148.830363 
L 90.019882 149.876069 
L 90.019882 150.921774 
L 90.019882 151.96748 
L 90.019882 153.013186 
L 90.019882 154.058891 
L 90.019882 155.104597 
L 90.019882 156.150302 
L 90.019882 157.196008 
L 90.019882 158.241713 
L 90.019882 159.287419 
L 90.019882 160.333125 
L 90.019882 161.37883 
L 90.019882 162.424536 
L 90.019882 163.470241 
L 90.019882 164.515947 
L 90.019882 165.561653 
L 90.019882 166.607358 
L 90.019882 167.653064 
L 90.019882 168.698769 
L 91.065587 168.698769 
z
M 156.729102 146.738952 
L 156.134391 145.693247 
L 155.899333 145.390095 
L 155.537811 144.647541 
L 154.885633 143.601835 
L 154.853627 143.558582 
L 154.258489 142.55613 
L 153.807922 141.899439 
L 153.575081 141.510424 
L 152.867818 140.464719 
L 152.762216 140.319529 
L 152.148042 139.419013 
L 151.716511 138.828731 
L 151.391227 138.373308 
L 150.670805 137.413311 
L 150.605655 137.327602 
L 149.801246 136.281896 
L 149.6251 136.051541 
L 148.967738 135.236191 
L 148.579394 134.74238 
L 148.105532 134.190485 
L 147.533688 133.487247 
L 147.217207 133.14478 
L 146.487983 132.280763 
L 146.304613 132.099074 
L 145.442277 131.117778 
L 145.369459 131.053368 
L 144.410127 130.007663 
L 144.396572 129.987121 
L 143.408053 128.961957 
L 143.350866 128.855337 
L 142.362625 127.916252 
L 142.30516 127.339824 
L 141.795444 126.870546 
L 142.30516 126.819246 
L 143.240943 125.824841 
L 143.350866 125.766407 
L 144.362873 124.779135 
L 144.396572 124.75633 
L 145.442277 123.783977 
L 145.486921 123.733429 
L 146.487983 122.836218 
L 146.633089 122.687724 
L 147.533688 121.904217 
L 147.808756 121.642018 
L 148.579394 120.987899 
L 149.01276 120.596313 
L 149.6251 120.086844 
L 150.243688 119.550607 
L 150.670805 119.200649 
L 151.499682 118.504902 
L 151.716511 118.329075 
L 152.762216 117.472761 
L 152.778988 117.459196 
L 153.807922 116.637084 
L 154.092451 116.41349 
L 154.853627 115.811559 
L 155.429904 115.367785 
L 155.899333 114.997215 
L 156.786049 114.322079 
L 156.945039 114.19553 
L 157.990744 113.406292 
L 158.175498 113.276374 
L 159.03645 112.625408 
L 159.599113 112.230668 
L 160.082155 111.855875 
L 161.026648 111.184963 
L 161.127861 111.102476 
L 162.173566 110.349875 
L 162.51401 110.139257 
L 163.219272 109.601265 
L 164.011949 109.093551 
L 164.264978 108.872771 
L 165.310683 108.15633 
L 165.557093 108.047846 
L 166.356389 107.377831 
L 167.241068 107.00214 
L 167.402094 106.477636 
L 167.627323 107.00214 
L 168.4478 107.605397 
L 168.587057 108.047846 
L 169.267716 109.093551 
L 169.493505 109.349283 
L 169.930169 110.139257 
L 170.539211 111.04241 
L 170.610145 111.184963 
L 171.23624 112.230668 
L 171.584917 112.753726 
L 171.869363 113.276374 
L 172.49325 114.322079 
L 172.630622 114.536539 
L 173.090885 115.367785 
L 173.676328 116.373463 
L 173.697097 116.41349 
L 174.267641 117.459196 
L 174.722033 118.268512 
L 174.844057 118.504902 
L 175.397257 119.550607 
L 175.767739 120.241999 
L 175.946896 120.596313 
L 176.47912 121.642018 
L 176.813445 122.29981 
L 177.004062 122.687724 
L 177.513422 123.733429 
L 177.85915 124.452467 
L 178.014882 124.779135 
L 178.500732 125.824841 
L 178.904856 126.711507 
L 178.978852 126.870546 
L 179.441687 127.916252 
L 179.89481 128.961957 
L 179.950561 129.102905 
L 180.336525 130.007663 
L 180.765623 131.053368 
L 180.996267 131.667639 
L 181.183772 132.099074 
L 181.594406 133.14478 
L 181.981323 134.190485 
L 182.041972 134.410996 
L 182.382766 135.236191 
L 182.773306 136.281896 
L 183.087406 137.327602 
L 182.041972 137.949875 
L 181.039658 138.373308 
L 180.996267 138.380843 
L 179.950561 138.712449 
L 178.904856 139.081801 
L 178.034343 139.419013 
L 177.85915 139.468868 
L 176.813445 139.826657 
L 175.767739 140.21017 
L 175.126764 140.464719 
L 174.722033 140.59877 
L 173.676328 140.978895 
L 172.630622 141.381675 
L 172.316199 141.510424 
L 171.584917 141.77702 
L 170.539211 142.181084 
L 169.615954 142.55613 
L 169.493505 142.602157 
L 168.4478 143.012065 
L 167.402094 143.442571 
L 167.021597 143.601835 
L 166.356389 143.873758 
L 165.310683 144.314237 
L 164.533723 144.647541 
L 164.264978 144.766439 
L 163.219272 145.223023 
L 162.173566 145.690645 
L 162.166911 145.693247 
L 161.127861 146.174165 
L 160.082155 146.656683 
L 159.843375 146.738952 
L 159.03645 147.191013 
L 157.990744 147.697863 
L 156.945039 147.55637 
L 156.729102 146.738952 
z
" clip-path="url(#pc5951b5186)" style="fill: none"/>
   </g>
   <g id="matplotlib.axis_1">
    <g id="xtick_1">
     <g id="line2d_1">
      <defs>
       <path id="m12517d8196" d="M 0 0 
L 0 3.5 
" style="stroke: #000000; stroke-width: 0.8"/>
      </defs>
      <g>
       <use xlink:href="#m12517d8196" x="38.257456" y="168.698769" style="stroke: #000000; stroke-width: 0.8"/>
      </g>
     </g>
     <g id="text_1">
      <!-- −20 -->
      <g transform="translate(27.705112 183.297207) scale(0.1 -0.1)">
       <defs>
        <path id="DejaVuSans-2212" d="M 678 2272 
L 4684 2272 
L 4684 1741 
L 678 1741 
L 678 2272 
z
" transform="scale(0.015625)"/>
        <path id="DejaVuSans-32" d="M 1228 531 
L 3431 531 
L 3431 0 
L 469 0 
L 469 531 
Q 828 903 1448 1529 
Q 2069 2156 2228 2338 
Q 2531 2678 2651 2914 
Q 2772 3150 2772 3378 
Q 2772 3750 2511 3984 
Q 2250 4219 1831 4219 
Q 1534 4219 1204 4116 
Q 875 4013 500 3803 
L 500 4441 
Q 881 4594 1212 4672 
Q 1544 4750 1819 4750 
Q 2544 4750 2975 4387 
Q 3406 4025 3406 3419 
Q 3406 3131 3298 2873 
Q 3191 2616 2906 2266 
Q 2828 2175 2409 1742 
Q 1991 1309 1228 531 
z
" transform="scale(0.015625)"/>
        <path id="DejaVuSans-30" d="M 2034 4250 
Q 1547 4250 1301 3770 
Q 1056 3291 1056 2328 
Q 1056 1369 1301 889 
Q 1547 409 2034 409 
Q 2525 409 2770 889 
Q 3016 1369 3016 2328 
Q 3016 3291 2770 3770 
Q 2525 4250 2034 4250 
z
M 2034 4750 
Q 2819 4750 3233 4129 
Q 3647 3509 3647 2328 
Q 3647 1150 3233 529 
Q 2819 -91 2034 -91 
Q 1250 -91 836 529 
Q 422 1150 422 2328 
Q 422 3509 836 4129 
Q 1250 4750 2034 4750 
z
" transform="scale(0.015625)"/>
       </defs>
       <use xlink:href="#DejaVuSans-2212"/>
       <use xlink:href="#DejaVuSans-32" x="83.789062"/>
       <use xlink:href="#DejaVuSans-30" x="147.412109"/>
      </g>
     </g>
    </g>
    <g id="xtick_2">
     <g id="line2d_2">
      <g>
       <use xlink:href="#m12517d8196" x="90.019882" y="168.698769" style="stroke: #000000; stroke-width: 0.8"/>
      </g>
     </g>
     <g id="text_2">
      <!-- −10 -->
      <g transform="translate(79.467538 183.297207) scale(0.1 -0.1)">
       <defs>
        <path id="DejaVuSans-31" d="M 794 531 
L 1825 531 
L 1825 4091 
L 703 3866 
L 703 4441 
L 1819 4666 
L 2450 4666 
L 2450 531 
L 3481 531 
L 3481 0 
L 794 0 
L 794 531 
z
" transform="scale(0.015625)"/>
       </defs>
       <use xlink:href="#DejaVuSans-2212"/>
       <use xlink:href="#DejaVuSans-31" x="83.789062"/>
       <use xlink:href="#DejaVuSans-30" x="147.412109"/>
      </g>
     </g>
    </g>
    <g id="xtick_3">
     <g id="line2d_3">
      <g>
       <use xlink:href="#m12517d8196" x="141.782308" y="168.698769" style="stroke: #000000; stroke-width: 0.8"/>
      </g>
     </g>
    </g>
    <g id="xtick_4">
     <g id="line2d_4">
      <g>
       <use xlink:href="#m12517d8196" x="193.544734" y="168.698769" style="stroke: #000000; stroke-width: 0.8"/>
      </g>
     </g>
     <g id="text_3">
      <!-- 10 -->
      <g transform="translate(187.182234 183.297207) scale(0.1 -0.1)">
       <use xlink:href="#DejaVuSans-31"/>
       <use xlink:href="#DejaVuSans-30" x="63.623047"/>
      </g>
     </g>
    </g>
    <g id="xtick_5">
     <g id="line2d_5">
      <g>
       <use xlink:href="#m12517d8196" x="245.30716" y="168.698769" style="stroke: #000000; stroke-width: 0.8"/>
      </g>
     </g>
     <g id="text_4">
      <!-- 20 -->
      <g transform="translate(238.94466 183.297207) scale(0.1 -0.1)">
       <use xlink:href="#DejaVuSans-32"/>
       <use xlink:href="#DejaVuSans-30" x="63.623047"/>
      </g>
     </g>
    </g>
    <g id="xtick_6">
     <g id="line2d_6">
      <defs>
       <path id="me6a39da851" d="M 0 0 
L 0 2 
" style="stroke: #000000; stroke-width: 0.6"/>
      </defs>
      <g>
       <use xlink:href="#me6a39da851" x="17.552485" y="168.698769" style="stroke: #000000; stroke-width: 0.6"/>
      </g>
     </g>
    </g>
    <g id="xtick_7">
     <g id="line2d_7">
      <g>
       <use xlink:href="#me6a39da851" x="27.90497" y="168.698769" style="stroke: #000000; stroke-width: 0.6"/>
      </g>
     </g>
    </g>
    <g id="xtick_8">
     <g id="line2d_8">
      <g>
       <use xlink:href="#me6a39da851" x="48.609941" y="168.698769" style="stroke: #000000; stroke-width: 0.6"/>
      </g>
     </g>
    </g>
    <g id="xtick_9">
     <g id="line2d_9">
      <g>
       <use xlink:href="#me6a39da851" x="58.962426" y="168.698769" style="stroke: #000000; stroke-width: 0.6"/>
      </g>
     </g>
    </g>
    <g id="xtick_10">
     <g id="line2d_10">
      <g>
       <use xlink:href="#me6a39da851" x="69.314911" y="168.698769" style="stroke: #000000; stroke-width: 0.6"/>
      </g>
     </g>
    </g>
    <g id="xtick_11">
     <g id="line2d_11">
      <g>
       <use xlink:href="#me6a39da851" x="79.667396" y="168.698769" style="stroke: #000000; stroke-width: 0.6"/>
      </g>
     </g>
    </g>
    <g id="xtick_12">
     <g id="line2d_12">
      <g>
       <use xlink:href="#me6a39da851" x="100.372367" y="168.698769" style="stroke: #000000; stroke-width: 0.6"/>
      </g>
     </g>
    </g>
    <g id="xtick_13">
     <g id="line2d_13">
      <g>
       <use xlink:href="#me6a39da851" x="110.724852" y="168.698769" style="stroke: #000000; stroke-width: 0.6"/>
      </g>
     </g>
    </g>
    <g id="xtick_14">
     <g id="line2d_14">
      <g>
       <use xlink:href="#me6a39da851" x="121.077337" y="168.698769" style="stroke: #000000; stroke-width: 0.6"/>
      </g>
     </g>
    </g>
    <g id="xtick_15">
     <g id="line2d_15">
      <g>
       <use xlink:href="#me6a39da851" x="131.429822" y="168.698769" style="stroke: #000000; stroke-width: 0.6"/>
      </g>
     </g>
    </g>
    <g id="xtick_16">
     <g id="line2d_16">
      <g>
       <use xlink:href="#me6a39da851" x="152.134793" y="168.698769" style="stroke: #000000; stroke-width: 0.6"/>
      </g>
     </g>
    </g>
    <g id="xtick_17">
     <g id="line2d_17">
      <g>
       <use xlink:href="#me6a39da851" x="162.487278" y="168.698769" style="stroke: #000000; stroke-width: 0.6"/>
      </g>
     </g>
    </g>
    <g id="xtick_18">
     <g id="line2d_18">
      <g>
       <use xlink:href="#me6a39da851" x="172.839763" y="168.698769" style="stroke: #000000; stroke-width: 0.6"/>
      </g>
     </g>
    </g>
    <g id="xtick_19">
     <g id="line2d_19">
      <g>
       <use xlink:href="#me6a39da851" x="183.192249" y="168.698769" style="stroke: #000000; stroke-width: 0.6"/>
      </g>
     </g>
    </g>
    <g id="xtick_20">
     <g id="line2d_20">
      <g>
       <use xlink:href="#me6a39da851" x="203.897219" y="168.698769" style="stroke: #000000; stroke-width: 0.6"/>
      </g>
     </g>
    </g>
    <g id="xtick_21">
     <g id="line2d_21">
      <g>
       <use xlink:href="#me6a39da851" x="214.249704" y="168.698769" style="stroke: #000000; stroke-width: 0.6"/>
      </g>
     </g>
    </g>
    <g id="xtick_22">
     <g id="line2d_22">
      <g>
       <use xlink:href="#me6a39da851" x="224.602189" y="168.698769" style="stroke: #000000; stroke-width: 0.6"/>
      </g>
     </g>
    </g>
    <g id="xtick_23">
     <g id="line2d_23">
      <g>
       <use xlink:href="#me6a39da851" x="234.954675" y="168.698769" style="stroke: #000000; stroke-width: 0.6"/>
      </g>
     </g>
    </g>
    <g id="xtick_24">
     <g id="line2d_24">
      <g>
       <use xlink:href="#me6a39da851" x="255.659645" y="168.698769" style="stroke: #000000; stroke-width: 0.6"/>
      </g>
     </g>
    </g>
    <g id="xtick_25">
     <g id="line2d_25">
      <g>
       <use xlink:href="#me6a39da851" x="266.01213" y="168.698769" style="stroke: #000000; stroke-width: 0.6"/>
      </g>
     </g>
    </g>
    <g id="xtick_26">
     <g id="line2d_26">
      <g>
       <use xlink:href="#me6a39da851" x="276.364615" y="168.698769" style="stroke: #000000; stroke-width: 0.6"/>
      </g>
     </g>
    </g>
   </g>
   <g id="matplotlib.axis_2">
    <g id="ytick_1">
     <g id="line2d_27">
      <defs>
       <path id="mf28411b0e5" d="M 0 0 
L -3.5 0 
" style="stroke: #000000; stroke-width: 0.8"/>
      </defs>
      <g>
       <use xlink:href="#mf28411b0e5" x="141.782308" y="323.986047" style="stroke: #000000; stroke-width: 0.8"/>
      </g>
     </g>
     <g id="text_5">
      <!-- −30 -->
      <g transform="translate(113.67762 327.785266) scale(0.1 -0.1)">
       <defs>
        <path id="DejaVuSans-33" d="M 2597 2516 
Q 3050 2419 3304 2112 
Q 3559 1806 3559 1356 
Q 3559 666 3084 287 
Q 2609 -91 1734 -91 
Q 1441 -91 1130 -33 
Q 819 25 488 141 
L 488 750 
Q 750 597 1062 519 
Q 1375 441 1716 441 
Q 2309 441 2620 675 
Q 2931 909 2931 1356 
Q 2931 1769 2642 2001 
Q 2353 2234 1838 2234 
L 1294 2234 
L 1294 2753 
L 1863 2753 
Q 2328 2753 2575 2939 
Q 2822 3125 2822 3475 
Q 2822 3834 2567 4026 
Q 2313 4219 1838 4219 
Q 1578 4219 1281 4162 
Q 984 4106 628 3988 
L 628 4550 
Q 988 4650 1302 4700 
Q 1616 4750 1894 4750 
Q 2613 4750 3031 4423 
Q 3450 4097 3450 3541 
Q 3450 3153 3228 2886 
Q 3006 2619 2597 2516 
z
" transform="scale(0.015625)"/>
       </defs>
       <use xlink:href="#DejaVuSans-2212"/>
       <use xlink:href="#DejaVuSans-33" x="83.789062"/>
       <use xlink:href="#DejaVuSans-30" x="147.412109"/>
      </g>
     </g>
    </g>
    <g id="ytick_2">
     <g id="line2d_28">
      <g>
       <use xlink:href="#mf28411b0e5" x="141.782308" y="272.223621" style="stroke: #000000; stroke-width: 0.8"/>
      </g>
     </g>
     <g id="text_6">
      <!-- −20 -->
      <g transform="translate(113.67762 276.02284) scale(0.1 -0.1)">
       <use xlink:href="#DejaVuSans-2212"/>
       <use xlink:href="#DejaVuSans-32" x="83.789062"/>
       <use xlink:href="#DejaVuSans-30" x="147.412109"/>
      </g>
     </g>
    </g>
    <g id="ytick_3">
     <g id="line2d_29">
      <g>
       <use xlink:href="#mf28411b0e5" x="141.782308" y="220.461195" style="stroke: #000000; stroke-width: 0.8"/>
      </g>
     </g>
     <g id="text_7">
      <!-- −10 -->
      <g transform="translate(113.67762 224.260414) scale(0.1 -0.1)">
       <use xlink:href="#DejaVuSans-2212"/>
       <use xlink:href="#DejaVuSans-31" x="83.789062"/>
       <use xlink:href="#DejaVuSans-30" x="147.412109"/>
      </g>
     </g>
    </g>
    <g id="ytick_4">
     <g id="line2d_30">
      <g>
       <use xlink:href="#mf28411b0e5" x="141.782308" y="168.698769" style="stroke: #000000; stroke-width: 0.8"/>
      </g>
     </g>
    </g>
    <g id="ytick_5">
     <g id="line2d_31">
      <g>
       <use xlink:href="#mf28411b0e5" x="141.782308" y="116.936343" style="stroke: #000000; stroke-width: 0.8"/>
      </g>
     </g>
     <g id="text_8">
      <!-- 10 -->
      <g transform="translate(122.057308 120.735562) scale(0.1 -0.1)">
       <use xlink:href="#DejaVuSans-31"/>
       <use xlink:href="#DejaVuSans-30" x="63.623047"/>
      </g>
     </g>
    </g>
    <g id="ytick_6">
     <g id="line2d_32">
      <g>
       <use xlink:href="#mf28411b0e5" x="141.782308" y="65.173917" style="stroke: #000000; stroke-width: 0.8"/>
      </g>
     </g>
     <g id="text_9">
      <!-- 20 -->
      <g transform="translate(122.057308 68.973136) scale(0.1 -0.1)">
       <use xlink:href="#DejaVuSans-32"/>
       <use xlink:href="#DejaVuSans-30" x="63.623047"/>
      </g>
     </g>
    </g>
    <g id="ytick_7">
     <g id="line2d_33">
      <g>
       <use xlink:href="#mf28411b0e5" x="141.782308" y="13.411491" style="stroke: #000000; stroke-width: 0.8"/>
      </g>
     </g>
     <g id="text_10">
      <!-- 30 -->
      <g transform="translate(122.057308 17.21071) scale(0.1 -0.1)">
       <use xlink:href="#DejaVuSans-33"/>
       <use xlink:href="#DejaVuSans-30" x="63.623047"/>
      </g>
     </g>
    </g>
    <g id="ytick_8">
     <g id="line2d_34">
      <defs>
       <path id="m82dfde23df" d="M 0 0 
L -2 0 
" style="stroke: #000000; stroke-width: 0.6"/>
      </defs>
      <g>
       <use xlink:href="#m82dfde23df" x="141.782308" y="313.633562" style="stroke: #000000; stroke-width: 0.6"/>
      </g>
     </g>
    </g>
    <g id="ytick_9">
     <g id="line2d_35">
      <g>
       <use xlink:href="#m82dfde23df" x="141.782308" y="303.281077" style="stroke: #000000; stroke-width: 0.6"/>
      </g>
     </g>
    </g>
    <g id="ytick_10">
     <g id="line2d_36">
      <g>
       <use xlink:href="#m82dfde23df" x="141.782308" y="292.928592" style="stroke: #000000; stroke-width: 0.6"/>
      </g>
     </g>
    </g>
    <g id="ytick_11">
     <g id="line2d_37">
      <g>
       <use xlink:href="#m82dfde23df" x="141.782308" y="282.576107" style="stroke: #000000; stroke-width: 0.6"/>
      </g>
     </g>
    </g>
    <g id="ytick_12">
     <g id="line2d_38">
      <g>
       <use xlink:href="#m82dfde23df" x="141.782308" y="261.871136" style="stroke: #000000; stroke-width: 0.6"/>
      </g>
     </g>
    </g>
    <g id="ytick_13">
     <g id="line2d_39">
      <g>
       <use xlink:href="#m82dfde23df" x="141.782308" y="251.518651" style="stroke: #000000; stroke-width: 0.6"/>
      </g>
     </g>
    </g>
    <g id="ytick_14">
     <g id="line2d_40">
      <g>
       <use xlink:href="#m82dfde23df" x="141.782308" y="241.166166" style="stroke: #000000; stroke-width: 0.6"/>
      </g>
     </g>
    </g>
    <g id="ytick_15">
     <g id="line2d_41">
      <g>
       <use xlink:href="#m82dfde23df" x="141.782308" y="230.81368" style="stroke: #000000; stroke-width: 0.6"/>
      </g>
     </g>
    </g>
    <g id="ytick_16">
     <g id="line2d_42">
      <g>
       <use xlink:href="#m82dfde23df" x="141.782308" y="210.10871" style="stroke: #000000; stroke-width: 0.6"/>
      </g>
     </g>
    </g>
    <g id="ytick_17">
     <g id="line2d_43">
      <g>
       <use xlink:href="#m82dfde23df" x="141.782308" y="199.756225" style="stroke: #000000; stroke-width: 0.6"/>
      </g>
     </g>
    </g>
    <g id="ytick_18">
     <g id="line2d_44">
      <g>
       <use xlink:href="#m82dfde23df" x="141.782308" y="189.40374" style="stroke: #000000; stroke-width: 0.6"/>
      </g>
     </g>
    </g>
    <g id="ytick_19">
     <g id="line2d_45">
      <g>
       <use xlink:href="#m82dfde23df" x="141.782308" y="179.051254" style="stroke: #000000; stroke-width: 0.6"/>
      </g>
     </g>
    </g>
    <g id="ytick_20">
     <g id="line2d_46">
      <g>
       <use xlink:href="#m82dfde23df" x="141.782308" y="158.346284" style="stroke: #000000; stroke-width: 0.6"/>
      </g>
     </g>
    </g>
    <g id="ytick_21">
     <g id="line2d_47">
      <g>
       <use xlink:href="#m82dfde23df" x="141.782308" y="147.993799" style="stroke: #000000; stroke-width: 0.6"/>
      </g>
     </g>
    </g>
    <g id="ytick_22">
     <g id="line2d_48">
      <g>
       <use xlink:href="#m82dfde23df" x="141.782308" y="137.641314" style="stroke: #000000; stroke-width: 0.6"/>
      </g>
     </g>
    </g>
    <g id="ytick_23">
     <g id="line2d_49">
      <g>
       <use xlink:href="#m82dfde23df" x="141.782308" y="127.288828" style="stroke: #000000; stroke-width: 0.6"/>
      </g>
     </g>
    </g>
    <g id="ytick_24">
     <g id="line2d_50">
      <g>
       <use xlink:href="#m82dfde23df" x="141.782308" y="106.583858" style="stroke: #000000; stroke-width: 0.6"/>
      </g>
     </g>
    </g>
    <g id="ytick_25">
     <g id="line2d_51">
      <g>
       <use xlink:href="#m82dfde23df" x="141.782308" y="96.231373" style="stroke: #000000; stroke-width: 0.6"/>
      </g>
     </g>
    </g>
    <g id="ytick_26">
     <g id="line2d_52">
      <g>
       <use xlink:href="#m82dfde23df" x="141.782308" y="85.878888" style="stroke: #000000; stroke-width: 0.6"/>
      </g>
     </g>
    </g>
    <g id="ytick_27">
     <g id="line2d_53">
      <g>
       <use xlink:href="#m82dfde23df" x="141.782308" y="75.526402" style="stroke: #000000; stroke-width: 0.6"/>
      </g>
     </g>
    </g>
    <g id="ytick_28">
     <g id="line2d_54">
      <g>
       <use xlink:href="#m82dfde23df" x="141.782308" y="54.821432" style="stroke: #000000; stroke-width: 0.6"/>
      </g>
     </g>
    </g>
    <g id="ytick_29">
     <g id="line2d_55">
      <g>
       <use xlink:href="#m82dfde23df" x="141.782308" y="44.468947" style="stroke: #000000; stroke-width: 0.6"/>
      </g>
     </g>
    </g>
    <g id="ytick_30">
     <g id="line2d_56">
      <g>
       <use xlink:href="#m82dfde23df" x="141.782308" y="34.116462" style="stroke: #000000; stroke-width: 0.6"/>
      </g>
     </g>
    </g>
    <g id="ytick_31">
     <g id="line2d_57">
      <g>
       <use xlink:href="#m82dfde23df" x="141.782308" y="23.763976" style="stroke: #000000; stroke-width: 0.6"/>
      </g>
     </g>
    </g>
   </g>
   <g id="PathCollection_5">
    <path d="M 156.945039 147.55637 
L 156.729102 146.738952 
L 156.134391 145.693247 
L 155.899333 145.390095 
L 155.537811 144.647541 
L 154.885633 143.601835 
L 154.853627 143.558582 
L 154.258489 142.55613 
L 153.807922 141.899439 
L 153.575081 141.510424 
L 152.867818 140.464719 
L 152.762216 140.319529 
L 152.148042 139.419013 
L 151.716511 138.828731 
L 151.391227 138.373308 
L 150.670805 137.413311 
L 150.605655 137.327602 
L 149.801246 136.281896 
L 149.6251 136.051541 
L 148.967738 135.236191 
L 148.579394 134.74238 
L 148.105532 134.190485 
L 147.533688 133.487247 
L 147.217207 133.14478 
L 146.487983 132.280763 
L 146.304613 132.099074 
L 145.442277 131.117778 
L 145.369459 131.053368 
L 144.410127 130.007663 
L 144.396572 129.987121 
L 143.408053 128.961957 
L 143.350866 128.855337 
L 142.362625 127.916252 
L 142.30516 127.339824 
L 141.795444 126.870546 
L 142.30516 126.819246 
L 143.240943 125.824841 
L 143.350866 125.766407 
L 144.362873 124.779135 
L 144.396572 124.75633 
L 145.442277 123.783977 
L 145.486921 123.733429 
L 146.487983 122.836218 
L 146.633089 122.687724 
L 147.533688 121.904217 
L 147.808756 121.642018 
L 148.579394 120.987899 
L 149.01276 120.596313 
L 149.6251 120.086844 
L 150.243688 119.550607 
L 150.670805 119.200649 
L 151.499682 118.504902 
L 151.716511 118.329075 
L 152.762216 117.472761 
L 152.778988 117.459196 
L 153.807922 116.637084 
L 154.092451 116.41349 
L 154.853627 115.811559 
L 155.429904 115.367785 
L 155.899333 114.997215 
L 156.786049 114.322079 
L 156.945039 114.19553 
L 157.990744 113.406292 
L 158.175498 113.276374 
L 159.03645 112.625408 
L 159.599113 112.230668 
L 160.082155 111.855875 
L 161.026648 111.184963 
L 161.127861 111.102476 
L 162.173566 110.349875 
L 162.51401 110.139257 
L 163.219272 109.601265 
L 164.011949 109.093551 
L 164.264978 108.872771 
L 165.310683 108.15633 
L 165.557093 108.047846 
L 166.356389 107.377831 
L 167.241068 107.00214 
L 167.402094 106.477636 
L 167.627323 107.00214 
L 168.4478 107.605397 
L 168.587057 108.047846 
L 169.267716 109.093551 
L 169.493505 109.349283 
L 169.930169 110.139257 
L 170.539211 111.04241 
L 170.610145 111.184963 
L 171.23624 112.230668 
L 171.584917 112.753726 
L 171.869363 113.276374 
L 172.49325 114.322079 
L 172.630622 114.536539 
L 173.090885 115.367785 
L 173.676328 116.373463 
L 173.697097 116.41349 
L 174.267641 117.459196 
L 174.722033 118.268512 
L 174.844057 118.504902 
L 175.397257 119.550607 
L 175.767739 120.241999 
L 175.946896 120.596313 
L 176.47912 121.642018 
L 176.813445 122.29981 
L 177.004062 122.687724 
L 177.513422 123.733429 
L 177.85915 124.452467 
L 178.014882 124.779135 
L 178.500732 125.824841 
L 178.904856 126.711507 
L 178.978852 126.870546 
L 179.441687 127.916252 
L 179.89481 128.961957 
L 179.950561 129.102905 
L 180.336525 130.007663 
L 180.765623 131.053368 
L 180.996267 131.667639 
L 181.183772 132.099074 
L 181.594406 133.14478 
L 181.981323 134.190485 
L 182.041972 134.410996 
L 182.382766 135.236191 
L 182.773306 136.281896 
L 183.087406 137.327602 
L 182.041972 137.949875 
L 181.039658 138.373308 
L 180.996267 138.380843 
L 179.950561 138.712449 
L 178.904856 139.081801 
L 178.034343 139.419013 
L 177.85915 139.468868 
L 176.813445 139.826657 
L 175.767739 140.21017 
L 175.126764 140.464719 
L 174.722033 140.59877 
L 173.676328 140.978895 
L 172.630622 141.381675 
L 172.316199 141.510424 
L 171.584917 141.77702 
L 170.539211 142.181084 
L 169.615954 142.55613 
L 169.493505 142.602157 
L 168.4478 143.012065 
L 167.402094 143.442571 
L 167.021597 143.601835 
L 166.356389 143.873758 
L 165.310683 144.314237 
L 164.533723 144.647541 
L 164.264978 144.766439 
L 163.219272 145.223023 
L 162.173566 145.690645 
L 162.166911 145.693247 
L 161.127861 146.174165 
L 160.082155 146.656683 
L 159.843375 146.738952 
L 159.03645 147.191013 
L 157.990744 147.697863 
L 156.945039 147.55637 
z
" clip-path="url(#pc5951b5186)" style="fill: none; stroke: #add8e6; stroke-width: 1.5"/>
   </g>
   <g id="PathCollection_6">
    <path d="M 156.945039 147.55637 
L 156.729102 146.738952 
L 156.134391 145.693247 
L 155.899333 145.390095 
L 155.537811 144.647541 
L 154.885633 143.601835 
L 154.853627 143.558582 
L 154.258489 142.55613 
L 153.807922 141.899439 
L 153.575081 141.510424 
L 152.867818 140.464719 
L 152.762216 140.319529 
L 152.148042 139.419013 
L 151.716511 138.828731 
L 151.391227 138.373308 
L 150.670805 137.413311 
L 150.605655 137.327602 
L 149.801246 136.281896 
L 149.6251 136.051541 
L 148.967738 135.236191 
L 148.579394 134.74238 
L 148.105532 134.190485 
L 147.533688 133.487247 
L 147.217207 133.14478 
L 146.487983 132.280763 
L 146.304613 132.099074 
L 145.442277 131.117778 
L 145.369459 131.053368 
L 144.410127 130.007663 
L 144.396572 129.987121 
L 143.408053 128.961957 
L 143.350866 128.855337 
L 142.362625 127.916252 
L 142.30516 127.339824 
L 141.795444 126.870546 
L 142.30516 126.819246 
L 143.240943 125.824841 
L 143.350866 125.766407 
L 144.362873 124.779135 
L 144.396572 124.75633 
L 145.442277 123.783977 
L 145.486921 123.733429 
L 146.487983 122.836218 
L 146.633089 122.687724 
L 147.533688 121.904217 
L 147.808756 121.642018 
L 148.579394 120.987899 
L 149.01276 120.596313 
L 149.6251 120.086844 
L 150.243688 119.550607 
L 150.670805 119.200649 
L 151.499682 118.504902 
L 151.716511 118.329075 
L 152.762216 117.472761 
L 152.778988 117.459196 
L 153.807922 116.637084 
L 154.092451 116.41349 
L 154.853627 115.811559 
L 155.429904 115.367785 
L 155.899333 114.997215 
L 156.786049 114.322079 
L 156.945039 114.19553 
L 157.990744 113.406292 
L 158.175498 113.276374 
L 159.03645 112.625408 
L 159.599113 112.230668 
L 160.082155 111.855875 
L 161.026648 111.184963 
L 161.127861 111.102476 
L 162.173566 110.349875 
L 162.51401 110.139257 
L 163.219272 109.601265 
L 164.011949 109.093551 
L 164.264978 108.872771 
L 165.310683 108.15633 
L 165.557093 108.047846 
L 166.356389 107.377831 
L 167.241068 107.00214 
L 167.402094 106.477636 
L 167.627323 107.00214 
L 168.4478 107.605397 
L 168.587057 108.047846 
L 169.267716 109.093551 
L 169.493505 109.349283 
L 169.930169 110.139257 
L 170.539211 111.04241 
L 170.610145 111.184963 
L 171.23624 112.230668 
L 171.584917 112.753726 
L 171.869363 113.276374 
L 172.49325 114.322079 
L 172.630622 114.536539 
L 173.090885 115.367785 
L 173.676328 116.373463 
L 173.697097 116.41349 
L 174.267641 117.459196 
L 174.722033 118.268512 
L 174.844057 118.504902 
L 175.397257 119.550607 
L 175.767739 120.241999 
L 175.946896 120.596313 
L 176.47912 121.642018 
L 176.813445 122.29981 
L 177.004062 122.687724 
L 177.513422 123.733429 
L 177.85915 124.452467 
L 178.014882 124.779135 
L 178.500732 125.824841 
L 178.904856 126.711507 
L 178.978852 126.870546 
L 179.441687 127.916252 
L 179.89481 128.961957 
L 179.950561 129.102905 
L 180.336525 130.007663 
L 180.765623 131.053368 
L 180.996267 131.667639 
L 181.183772 132.099074 
L 181.594406 133.14478 
L 181.981323 134.190485 
L 182.041972 134.410996 
L 182.382766 135.236191 
L 182.773306 136.281896 
L 183.087406 137.327602 
L 182.041972 137.949875 
L 181.039658 138.373308 
L 180.996267 138.380843 
L 179.950561 138.712449 
L 178.904856 139.081801 
L 178.034343 139.419013 
L 177.85915 139.468868 
L 176.813445 139.826657 
L 175.767739 140.21017 
L 175.126764 140.464719 
L 174.722033 140.59877 
L 173.676328 140.978895 
L 172.630622 141.381675 
L 172.316199 141.510424 
L 171.584917 141.77702 
L 170.539211 142.181084 
L 169.615954 142.55613 
L 169.493505 142.602157 
L 168.4478 143.012065 
L 167.402094 143.442571 
L 167.021597 143.601835 
L 166.356389 143.873758 
L 165.310683 144.314237 
L 164.533723 144.647541 
L 164.264978 144.766439 
L 163.219272 145.223023 
L 162.173566 145.690645 
L 162.166911 145.693247 
L 161.127861 146.174165 
L 160.082155 146.656683 
L 159.843375 146.738952 
L 159.03645 147.191013 
L 157.990744 147.697863 
L 156.945039 147.55637 
z
" clip-path="url(#pc5951b5186)" style="fill: none; stroke: #ffffff; stroke-width: 1.5"/>
   </g>
   <g id="PathCollection_7">
    <path d="M 156.945039 147.55637 
L 156.729102 146.738952 
L 156.134391 145.693247 
L 155.899333 145.390095 
L 155.537811 144.647541 
L 154.885633 143.601835 
L 154.853627 143.558582 
L 154.258489 142.55613 
L 153.807922 141.899439 
L 153.575081 141.510424 
L 152.867818 140.464719 
L 152.762216 140.319529 
L 152.148042 139.419013 
L 151.716511 138.828731 
L 151.391227 138.373308 
L 150.670805 137.413311 
L 150.605655 137.327602 
L 149.801246 136.281896 
L 149.6251 136.051541 
L 148.967738 135.236191 
L 148.579394 134.74238 
L 148.105532 134.190485 
L 147.533688 133.487247 
L 147.217207 133.14478 
L 146.487983 132.280763 
L 146.304613 132.099074 
L 145.442277 131.117778 
L 145.369459 131.053368 
L 144.410127 130.007663 
L 144.396572 129.987121 
L 143.408053 128.961957 
L 143.350866 128.855337 
L 142.362625 127.916252 
L 142.30516 127.339824 
L 141.795444 126.870546 
L 142.30516 126.819246 
L 143.240943 125.824841 
L 143.350866 125.766407 
L 144.362873 124.779135 
L 144.396572 124.75633 
L 145.442277 123.783977 
L 145.486921 123.733429 
L 146.487983 122.836218 
L 146.633089 122.687724 
L 147.533688 121.904217 
L 147.808756 121.642018 
L 148.579394 120.987899 
L 149.01276 120.596313 
L 149.6251 120.086844 
L 150.243688 119.550607 
L 150.670805 119.200649 
L 151.499682 118.504902 
L 151.716511 118.329075 
L 152.762216 117.472761 
L 152.778988 117.459196 
L 153.807922 116.637084 
L 154.092451 116.41349 
L 154.853627 115.811559 
L 155.429904 115.367785 
L 155.899333 114.997215 
L 156.786049 114.322079 
L 156.945039 114.19553 
L 157.990744 113.406292 
L 158.175498 113.276374 
L 159.03645 112.625408 
L 159.599113 112.230668 
L 160.082155 111.855875 
L 161.026648 111.184963 
L 161.127861 111.102476 
L 162.173566 110.349875 
L 162.51401 110.139257 
L 163.219272 109.601265 
L 164.011949 109.093551 
L 164.264978 108.872771 
L 165.310683 108.15633 
L 165.557093 108.047846 
L 166.356389 107.377831 
L 167.241068 107.00214 
L 167.402094 106.477636 
L 167.627323 107.00214 
L 168.4478 107.605397 
L 168.587057 108.047846 
L 169.267716 109.093551 
L 169.493505 109.349283 
L 169.930169 110.139257 
L 170.539211 111.04241 
L 170.610145 111.184963 
L 171.23624 112.230668 
L 171.584917 112.753726 
L 171.869363 113.276374 
L 172.49325 114.322079 
L 172.630622 114.536539 
L 173.090885 115.367785 
L 173.676328 116.373463 
L 173.697097 116.41349 
L 174.267641 117.459196 
L 174.722033 118.268512 
L 174.844057 118.504902 
L 175.397257 119.550607 
L 175.767739 120.241999 
L 175.946896 120.596313 
L 176.47912 121.642018 
L 176.813445 122.29981 
L 177.004062 122.687724 
L 177.513422 123.733429 
L 177.85915 124.452467 
L 178.014882 124.779135 
L 178.500732 125.824841 
L 178.904856 126.711507 
L 178.978852 126.870546 
L 179.441687 127.916252 
L 179.89481 128.961957 
L 179.950561 129.102905 
L 180.336525 130.007663 
L 180.765623 131.053368 
L 180.996267 131.667639 
L 181.183772 132.099074 
L 181.594406 133.14478 
L 181.981323 134.190485 
L 182.041972 134.410996 
L 182.382766 135.236191 
L 182.773306 136.281896 
L 183.087406 137.327602 
L 182.041972 137.949875 
L 181.039658 138.373308 
L 180.996267 138.380843 
L 179.950561 138.712449 
L 178.904856 139.081801 
L 178.034343 139.419013 
L 177.85915 139.468868 
L 176.813445 139.826657 
L 175.767739 140.21017 
L 175.126764 140.464719 
L 174.722033 140.59877 
L 173.676328 140.978895 
L 172.630622 141.381675 
L 172.316199 141.510424 
L 171.584917 141.77702 
L 170.539211 142.181084 
L 169.615954 142.55613 
L 169.493505 142.602157 
L 168.4478 143.012065 
L 167.402094 143.442571 
L 167.021597 143.601835 
L 166.356389 143.873758 
L 165.310683 144.314237 
L 164.533723 144.647541 
L 164.264978 144.766439 
L 163.219272 145.223023 
L 162.173566 145.690645 
L 162.166911 145.693247 
L 161.127861 146.174165 
L 160.082155 146.656683 
L 159.843375 146.738952 
L 159.03645 147.191013 
L 157.990744 147.697863 
L 156.945039 147.55637 
z
" clip-path="url(#pc5951b5186)" style="fill: none; stroke: #ffffff; stroke-width: 1.5"/>
   </g>
   <g id="line2d_58">
    <path d="M 12.376243 168.698769 
L 141.781959 168.698769 
L 12.376243 168.698769 
" clip-path="url(#pc5951b5186)" style="fill: none; stroke: #0000ff; stroke-linecap: square"/>
   </g>
   <g id="line2d_59">
    <path d="M 17.552485 220.461195 
L 33.634038 217.138223 
L 48.218079 213.914016 
L 62.060972 210.624917 
L 74.283855 207.489585 
L 85.528512 204.362576 
L 95.33358 201.392706 
L 104.158617 198.4674 
L 111.508932 195.790895 
L 118.000217 193.185121 
L 123.266598 190.846933 
L 127.855141 188.586844 
L 132.050165 186.267994 
L 135.483255 184.112907 
L 138.300339 182.087869 
L 140.701492 180.08087 
L 142.641962 178.152596 
L 144.157012 176.31492 
L 145.179396 174.768146 
L 146.081126 172.961051 
L 146.630202 171.306149 
L 146.880741 169.96804 
L 146.952533 168.345785 
L 146.82464 167.033656 
L 146.418143 165.353757 
L 145.87288 163.957591 
L 145.038699 162.393973 
L 143.962723 160.822951 
L 142.595222 159.193897 
L 140.876115 157.47662 
L 138.903711 155.784622 
L 136.131557 153.726376 
L 132.845328 151.604505 
L 129.094094 149.466426 
L 124.628944 147.196819 
L 119.645518 144.918199 
L 113.676878 142.44813 
L 107.349737 140.061393 
L 99.341725 137.299646 
L 90.488283 134.50498 
L 81.066644 131.762473 
L 71.098583 129.066984 
L 59.445656 126.131741 
L 45.363218 122.834531 
L 30.618589 119.619084 
L 17.552485 116.936343 
L 17.552485 116.936343 
" clip-path="url(#pc5951b5186)" style="fill: none; stroke: #0000ff; stroke-linecap: square"/>
   </g>
   <g id="line2d_60">
    <path d="M 33.081213 272.223621 
L 46.154616 266.855059 
L 56.829016 262.243436 
L 66.662441 257.784131 
L 77.027079 252.828452 
L 86.694667 247.927142 
L 94.923961 243.502418 
L 102.879192 238.960669 
L 110.421132 234.365443 
L 116.891096 230.150135 
L 122.638244 226.14694 
L 127.451971 222.565456 
L 132.622616 218.431935 
L 136.912349 214.721727 
L 140.892626 210.989035 
L 144.685688 207.095717 
L 148.083058 203.237962 
L 150.704054 199.937931 
L 153.24665 196.362966 
L 155.114859 193.408744 
L 157.135257 189.752362 
L 158.607734 186.623707 
L 159.71353 183.855335 
L 160.694538 180.883781 
L 161.516814 177.663908 
L 162.019861 174.920622 
L 162.372193 171.786055 
L 162.486809 168.501706 
L 162.352156 165.35351 
L 161.988909 162.274217 
L 161.431066 159.345944 
L 160.590172 156.164094 
L 159.516863 153.014082 
L 158.070894 149.573801 
L 156.598718 146.615068 
L 154.824883 143.507528 
L 152.462046 139.884041 
L 150.070512 136.630793 
L 147.222282 133.142544 
L 143.858462 129.419814 
L 140.620809 126.143178 
L 136.568426 122.367394 
L 132.366281 118.752624 
L 127.293511 114.710403 
L 121.794212 110.645389 
L 116.870474 107.233508 
L 110.677406 103.193903 
L 103.94753 99.069357 
L 95.978779 94.481345 
L 87.20531 89.737743 
L 78.594033 85.343933 
L 69.167361 80.785491 
L 59.627719 76.401334 
L 48.433831 71.508785 
L 37.046126 66.77222 
L 33.081213 65.173917 
L 33.081213 65.173917 
" clip-path="url(#pc5951b5186)" style="fill: none; stroke: #0000ff; stroke-linecap: square"/>
   </g>
   <g id="line2d_61">
    <path d="M 58.962426 323.986047 
L 69.162532 317.740383 
L 79.574501 311.082712 
L 88.914285 304.833877 
L 96.981228 299.19603 
L 105.226897 293.169642 
L 112.607303 287.51669 
L 119.537883 281.951678 
L 126.771733 275.835278 
L 133.413778 269.89423 
L 139.511129 264.115289 
L 145.504527 258.071439 
L 150.60739 252.583109 
L 155.22176 247.290873 
L 159.747394 241.728836 
L 163.994593 236.092742 
L 167.700403 230.758333 
L 170.365758 226.618666 
L 173.319113 221.655094 
L 176.181316 216.353947 
L 178.437864 211.71644 
L 180.491931 207.010067 
L 182.151286 202.736153 
L 183.75699 198.013082 
L 184.929778 194.012522 
L 186.064623 189.418657 
L 187.015754 184.575651 
L 187.628438 180.442067 
L 188.112441 175.606274 
L 188.339676 171.015989 
L 188.342885 166.514381 
L 188.16534 162.546041 
L 187.755067 158.007261 
L 187.081713 153.2138 
L 186.138097 148.311955 
L 185.057528 143.859674 
L 183.865745 139.732186 
L 182.226069 134.866714 
L 180.588102 130.622077 
L 178.660939 126.167002 
L 176.43151 121.535293 
L 174.218909 117.34996 
L 171.28669 112.279769 
L 167.915268 106.962634 
L 164.493311 101.997839 
L 160.709165 96.906223 
L 156.389269 91.503176 
L 152.112276 86.502937 
L 147.162805 81.071932 
L 142.159141 75.904001 
L 136.706289 70.581598 
L 130.402554 64.767797 
L 123.932914 59.121261 
L 117.256499 53.584282 
L 109.506569 47.473756 
L 102.481502 42.189528 
L 93.836684 35.975356 
L 85.683689 30.370276 
L 76.265926 24.165996 
L 65.545322 17.41278 
L 58.962426 13.411491 
L 58.962426 13.411491 
" clip-path="url(#pc5951b5186)" style="fill: none; stroke: #0000ff; stroke-linecap: square"/>
   </g>
   <g id="line2d_62">
    <path d="M 271.188373 168.698769 
L 141.782308 168.698769 
L 271.188373 168.698769 
" clip-path="url(#pc5951b5186)" style="fill: none; stroke: #ff0000; stroke-linecap: square"/>
   </g>
   <g id="line2d_63">
    <path d="M 266.01213 220.461195 
L 250.227497 217.201639 
L 235.817925 214.021817 
L 222.208999 210.798724 
L 210.218318 207.738999 
L 199.943924 204.912144 
L 189.924141 201.9245 
L 181.145599 199.066346 
L 173.534191 196.350094 
L 166.805024 193.70414 
L 160.960696 191.154546 
L 156.325615 188.905023 
L 152.177897 186.654669 
L 148.804859 184.591399 
L 145.921979 182.5871 
L 143.311056 180.481241 
L 141.207566 178.459606 
L 139.847468 176.891031 
L 138.589663 175.107383 
L 137.795084 173.660482 
L 137.191196 172.179448 
L 136.796573 170.684836 
L 136.618674 169.209707 
L 136.638451 167.879895 
L 136.916209 166.164698 
L 137.473545 164.46071 
L 138.174595 162.999965 
L 139.175895 161.40437 
L 140.641847 159.557613 
L 142.400226 157.745782 
L 144.526193 155.893067 
L 147.113869 153.948726 
L 150.218878 151.910294 
L 154.146604 149.641583 
L 158.589335 147.364221 
L 163.864034 144.942182 
L 169.605949 142.559496 
L 176.511774 139.954265 
L 183.634072 137.494387 
L 192.153006 134.785678 
L 201.586882 132.018722 
L 212.045796 129.17691 
L 223.565368 126.26659 
L 237.233091 123.053621 
L 252.243122 119.767574 
L 266.01213 116.936343 
L 266.01213 116.936343 
" clip-path="url(#pc5951b5186)" style="fill: none; stroke: #ff0000; stroke-linecap: square"/>
   </g>
   <g id="line2d_64">
    <path d="M 250.483402 272.223621 
L 238.904473 267.483533 
L 226.999703 262.360276 
L 216.428585 257.563718 
L 206.811707 252.963295 
L 197.897335 248.462314 
L 189.112676 243.763266 
L 181.260403 239.29873 
L 174.372945 235.136228 
L 167.953521 231.006714 
L 161.734299 226.72639 
L 156.798085 223.089836 
L 151.90778 219.229687 
L 147.672182 215.630442 
L 143.863976 212.140532 
L 140.057897 208.346818 
L 136.717255 204.688992 
L 133.651137 200.968888 
L 131.390523 197.924388 
L 129.222115 194.67086 
L 127.351882 191.494757 
L 125.660507 188.18152 
L 124.393019 185.269959 
L 123.276427 182.194263 
L 122.377218 179.07451 
L 121.761211 176.224617 
L 121.305361 173.044445 
L 121.093537 169.85708 
L 121.110992 167.029256 
L 121.351607 163.932742 
L 121.799088 160.967322 
L 122.383714 158.297136 
L 123.383212 154.879496 
L 124.666729 151.457162 
L 126.124235 148.254125 
L 128.004866 144.745959 
L 130.041063 141.452216 
L 132.247117 138.283644 
L 134.744416 135.054961 
L 137.751248 131.537886 
L 140.754734 128.329478 
L 144.515606 124.640232 
L 148.652894 120.909604 
L 152.782469 117.45606 
L 157.974962 113.418964 
L 163.455792 109.455385 
L 168.891307 105.770657 
L 175.654676 101.467164 
L 182.81577 97.192338 
L 190.829939 92.692834 
L 199.272986 88.224212 
L 208.295011 83.708432 
L 218.37304 78.932302 
L 228.893352 74.203745 
L 239.924109 69.487502 
L 250.483402 65.173917 
L 250.483402 65.173917 
" clip-path="url(#pc5951b5186)" style="fill: none; stroke: #ff0000; stroke-linecap: square"/>
   </g>
   <g id="line2d_65">
    <path d="M 224.602189 323.986047 
L 214.525345 317.81742 
L 205.230012 311.89177 
L 196.110162 305.829362 
L 187.195914 299.632632 
L 178.770347 293.493065 
L 170.614114 287.247262 
L 163.132269 281.213403 
L 156.11998 275.248475 
L 149.853721 269.6203 
L 144.174574 264.233455 
L 139.002643 259.048722 
L 133.638353 253.336272 
L 128.959779 248.018876 
L 124.96408 243.177637 
L 121.119764 238.20225 
L 117.235741 232.784388 
L 113.754287 227.505366 
L 110.565906 222.215849 
L 107.827697 217.215026 
L 105.404484 212.313835 
L 103.131048 207.151744 
L 101.476668 202.909094 
L 99.728713 197.761186 
L 98.522456 193.595445 
L 97.377707 188.861272 
L 96.424884 183.830619 
L 95.768299 179.024546 
L 95.368136 174.360347 
L 95.197519 169.208639 
L 95.296583 164.372114 
L 95.68002 159.202906 
L 96.260465 154.615646 
L 97.189201 149.427046 
L 98.32955 144.534799 
L 99.474226 140.464007 
L 101.036391 135.709332 
L 102.698494 131.30857 
L 104.95517 126.054346 
L 107.040476 121.71864 
L 109.603495 116.884315 
L 112.195184 112.416577 
L 115.645807 106.967977 
L 118.760804 102.432986 
L 122.790835 96.990129 
L 126.996957 91.718786 
L 131.250186 86.732407 
L 135.82787 81.684335 
L 140.817914 76.495839 
L 145.562059 71.820357 
L 151.984912 65.828503 
L 157.737056 60.744273 
L 164.118108 55.370712 
L 171.653201 49.336406 
L 178.389177 44.189383 
L 185.928693 38.669786 
L 194.774221 32.478896 
L 203.083006 26.909657 
L 213.519832 20.209713 
L 224.602189 13.411491 
L 224.602189 13.411491 
" clip-path="url(#pc5951b5186)" style="fill: none; stroke: #ff0000; stroke-linecap: square"/>
   </g>
   <g id="patch_3">
    <path d="M 141.782308 330.197538 
L 141.782308 7.2 
" style="fill: none; stroke: #000000; stroke-width: 0.8; stroke-linejoin: miter; stroke-linecap: square"/>
   </g>
   <g id="patch_4">
    <path d="M 7.2 168.698769 
L 276.364615 168.698769 
" style="fill: none; stroke: #000000; stroke-width: 0.8; stroke-linejoin: miter; stroke-linecap: square"/>
   </g>
  </g>
 </g>
 <defs>
  <clipPath id="pc5951b5186">
   <rect x="7.2" y="7.2" width="269.164615" height="322.997538"/>
  </clipPath>
 </defs>
</svg>
