<?xml version="1.0" encoding="utf-8" standalone="no"?>
<!DOCTYPE svg PUBLIC "-//W3C//DTD SVG 1.1//EN"
  "http://www.w3.org/Graphics/SVG/1.1/DTD/svg11.dtd">
<svg xmlns:xlink="http://www.w3.org/1999/xlink" width="338.4pt" height="338.4pt" viewBox="0 0 338.4 338.4" xmlns="http://www.w3.org/2000/svg" version="1.1">
 <metadata>
  <rdf:RDF xmlns:dc="http://purl.org/dc/elements/1.1/" xmlns:cc="http://creativecommons.org/ns#" xmlns:rdf="http://www.w3.org/1999/02/22-rdf-syntax-ns#">
   <cc:Work>
    <dc:type rdf:resource="http://purl.org/dc/dcmitype/StillImage"/>
    <dc:date>2025-01-22T15:38:32.101488</dc:date>
    <dc:format>image/svg+xml</dc:format>
    <dc:creator>
     <cc:Agent>
      <dc:title>Matplotlib v3.6.2, https://matplotlib.org/</dc:title>
     </cc:Agent>
    </dc:creator>
   </cc:Work>
  </rdf:RDF>
 </metadata>
 <defs>
  <style type="text/css">*{stroke-linejoin: round; stroke-linecap: butt}</style>
 </defs>
 <g id="figure_1">
  <g id="patch_1">
   <path d="M -0 338.4 
L 338.4 338.4 
L 338.4 0 
L -0 0 
z
" style="fill: #ffffff"/>
  </g>
  <g id="axes_1">
   <g id="patch_2">
    <path d="M 7.2 331.2 
L 331.2 331.2 
L 331.2 7.2 
L 7.2 7.2 
z
" style="fill: #ffffff"/>
   </g>
   <g id="PathCollection_1">
    <path d="M 191.452747 150.482787 
C 192.390382 150.482787 193.28974 150.11026 193.952747 149.447253 
C 194.615755 148.784245 194.988281 147.884887 194.988281 146.947253 
C 194.988281 146.009618 194.615755 145.11026 193.952747 144.447253 
C 193.28974 143.784245 192.390382 143.411719 191.452747 143.411719 
C 190.515113 143.411719 189.615755 143.784245 188.952747 144.447253 
C 188.28974 145.11026 187.917213 146.009618 187.917213 146.947253 
C 187.917213 147.884887 188.28974 148.784245 188.952747 149.447253 
C 189.615755 150.11026 190.515113 150.482787 191.452747 150.482787 
z
" clip-path="url(#pf13b8f5301)" style="fill: #0000ff"/>
   </g>
   <g id="PathCollection_2">
    <path d="M 167.626573 278.315206 
L 170.773427 278.844133 
L 173.92028 279.298263 
L 177.067133 279.677595 
L 180.213986 279.98213 
L 183.360839 280.211866 
L 186.507692 280.366804 
L 189.654545 280.446945 
L 192.801399 280.452288 
L 195.948252 280.382832 
L 199.095105 280.238579 
L 202.241958 280.019529 
L 205.388811 279.72568 
L 208.535664 279.357033 
L 211.682517 278.913589 
L 214.829371 278.395346 
L 217.976224 277.802306 
L 218.145255 277.766434 
L 221.123077 277.119081 
L 224.26993 276.358363 
L 227.416783 275.521027 
L 230.520566 274.61958 
L 230.563636 274.606759 
L 233.71049 273.591464 
L 236.857343 272.497638 
L 239.608419 271.472727 
L 240.004196 271.321507 
L 243.151049 270.038604 
L 246.297902 268.675159 
L 247.059093 268.325874 
L 249.444755 267.20242 
L 252.591608 265.637849 
L 253.468151 265.179021 
L 255.738462 263.958565 
L 258.885315 262.182018 
L 259.138644 262.032168 
L 262.032168 260.273135 
L 264.215499 258.885315 
L 265.179021 258.255395 
L 268.325874 256.108356 
L 268.846271 255.738462 
L 271.472727 253.816798 
L 273.082688 252.591608 
L 274.61958 251.386658 
L 277.004463 249.444755 
L 277.766434 248.804972 
L 280.645396 246.297902 
L 280.913287 246.057108 
L 284.03461 243.151049 
L 284.06014 243.126489 
L 287.197337 240.004196 
L 287.206993 239.994255 
L 290.155546 236.857343 
L 290.353846 236.638859 
L 292.928453 233.71049 
L 293.500699 233.035571 
L 295.53294 230.563636 
L 296.647552 229.155866 
L 297.9839 227.416783 
L 299.794406 224.966669 
L 300.294519 224.26993 
L 302.463209 221.123077 
L 302.941259 220.399342 
L 304.497257 217.976224 
L 306.088112 215.38658 
L 306.421144 214.829371 
L 308.216738 211.682517 
L 309.234965 209.809124 
L 309.908867 208.535664 
L 311.491183 205.388811 
L 312.381818 203.519534 
L 312.974895 202.241958 
L 314.354891 199.095105 
L 315.528671 196.251948 
L 315.65091 195.948252 
L 316.838721 192.801399 
L 317.947719 189.654545 
L 318.675524 187.431359 
L 318.970517 186.507692 
L 319.898647 183.360839 
L 320.74989 180.213986 
L 321.524246 177.067133 
L 321.822378 175.722021 
L 322.212192 173.92028 
L 322.817975 170.773427 
L 323.348705 167.626573 
L 323.804382 164.47972 
L 324.185006 161.332867 
L 324.490578 158.186014 
L 324.721097 155.039161 
L 324.876564 151.892308 
L 324.956977 148.745455 
L 324.962338 145.598601 
L 324.892646 142.451748 
L 324.747902 139.304895 
L 324.528105 136.158042 
L 324.233255 133.011189 
L 323.863352 129.864336 
L 323.418397 126.717483 
L 322.898388 123.570629 
L 322.303328 120.423776 
L 321.822378 118.165235 
L 321.628592 117.276923 
L 320.86522 114.13007 
L 320.02496 110.983217 
L 319.107815 107.836364 
L 318.675524 106.467843 
L 318.099714 104.68951 
L 317.001974 101.542657 
L 315.825423 98.395804 
L 315.528671 97.651929 
L 314.545434 95.248951 
L 313.176986 92.102098 
L 312.381818 90.375538 
L 311.710456 88.955245 
L 310.139992 85.808392 
L 309.234965 84.085921 
L 308.466295 82.661538 
L 306.682875 79.514685 
L 306.088112 78.513081 
L 304.778785 76.367832 
L 302.941259 73.488469 
L 302.765667 73.220979 
L 300.609848 70.074126 
L 299.794406 68.931572 
L 298.321773 66.927273 
L 296.647552 64.736488 
L 295.894726 63.78042 
L 293.500699 60.852976 
L 293.315649 60.633566 
L 290.563033 57.486713 
L 290.353846 57.255833 
L 287.626435 54.33986 
L 287.206993 53.906403 
L 284.493597 51.193007 
L 284.06014 50.773565 
L 281.144167 48.046154 
L 280.913287 47.836967 
L 277.766434 45.084351 
L 277.547024 44.899301 
L 274.61958 42.505274 
L 273.663512 41.752448 
L 271.472727 40.078227 
L 269.468428 38.605594 
L 268.325874 37.790152 
L 265.179021 35.634333 
L 264.911531 35.458741 
L 262.032168 33.621215 
L 259.886919 32.311888 
L 258.885315 31.717125 
L 255.738462 29.933705 
L 254.314079 29.165035 
L 252.591608 28.260008 
L 249.444755 26.689544 
L 248.024462 26.018182 
L 246.297902 25.223014 
L 243.151049 23.854566 
L 240.748071 22.871329 
L 240.004196 22.574577 
L 236.857343 21.398026 
L 233.71049 20.300286 
L 231.932157 19.724476 
L 230.563636 19.292185 
L 227.416783 18.37504 
L 224.26993 17.53478 
L 221.123077 16.771408 
L 220.234765 16.577622 
L 217.976224 16.096672 
L 214.829371 15.501612 
L 211.682517 14.981603 
L 208.535664 14.536648 
L 205.388811 14.166745 
L 202.241958 13.871895 
L 199.095105 13.652098 
L 195.948252 13.507354 
L 192.801399 13.437662 
L 189.654545 13.443023 
L 186.507692 13.523436 
L 183.360839 13.678903 
L 180.213986 13.909422 
L 177.067133 14.214994 
L 173.92028 14.595618 
L 170.773427 15.051295 
L 167.626573 15.582025 
L 164.47972 16.187808 
L 162.677979 16.577622 
L 161.332867 16.875754 
L 158.186014 17.65011 
L 155.039161 18.501353 
L 151.892308 19.429483 
L 150.968641 19.724476 
L 148.745455 20.452281 
L 145.598601 21.561279 
L 142.451748 22.74909 
L 142.148052 22.871329 
L 139.304895 24.045109 
L 136.158042 25.425105 
L 134.880466 26.018182 
L 133.011189 26.908817 
L 129.864336 28.491133 
L 128.590876 29.165035 
L 126.717483 30.183262 
L 123.570629 31.978856 
L 123.01342 32.311888 
L 120.423776 33.902743 
L 118.000658 35.458741 
L 117.276923 35.936791 
L 114.13007 38.105481 
L 113.433331 38.605594 
L 110.983217 40.4161 
L 109.244134 41.752448 
L 107.836364 42.86706 
L 105.364429 44.899301 
L 104.68951 45.471547 
L 101.761141 48.046154 
L 101.542657 48.244454 
L 98.405745 51.193007 
L 98.395804 51.202663 
L 95.273511 54.33986 
L 95.248951 54.36539 
L 92.342892 57.486713 
L 92.102098 57.754604 
L 89.595028 60.633566 
L 88.955245 61.395537 
L 87.013342 63.78042 
L 85.808392 65.317312 
L 84.583202 66.927273 
L 82.661538 69.553729 
L 82.291644 70.074126 
L 80.144605 73.220979 
L 79.514685 74.184501 
L 78.126865 76.367832 
L 76.367832 79.261356 
L 76.217982 79.514685 
L 74.441435 82.661538 
L 73.220979 84.931849 
L 72.762151 85.808392 
L 71.19758 88.955245 
L 70.074126 91.340907 
L 69.724841 92.102098 
L 68.361396 95.248951 
L 67.078493 98.395804 
L 66.927273 98.791581 
L 65.902362 101.542657 
L 64.808536 104.68951 
L 63.793241 107.836364 
L 63.78042 107.879434 
L 62.878973 110.983217 
L 62.041637 114.13007 
L 61.280919 117.276923 
L 60.633566 120.254745 
L 60.597694 120.423776 
L 60.004654 123.570629 
L 59.486411 126.717483 
L 59.042967 129.864336 
L 58.67432 133.011189 
L 58.380471 136.158042 
L 58.161421 139.304895 
L 58.017168 142.451748 
L 57.947712 145.598601 
L 57.953055 148.745455 
L 58.033196 151.892308 
L 58.188134 155.039161 
L 58.41787 158.186014 
L 58.722405 161.332867 
L 59.101737 164.47972 
L 59.555867 167.626573 
L 60.084794 170.773427 
L 60.633566 173.63384 
L 60.689858 173.92028 
L 61.384902 177.067133 
L 62.156565 180.213986 
L 63.004847 183.360839 
L 63.78042 185.99962 
L 63.933475 186.507692 
L 64.959989 189.654545 
L 66.065033 192.801399 
L 66.927273 195.093893 
L 67.256833 195.948252 
L 68.551243 199.095105 
L 69.926193 202.241958 
L 70.074126 202.561796 
L 71.41603 205.388811 
L 72.992408 208.535664 
L 73.220979 208.969217 
L 74.69003 211.682517 
L 76.367832 214.634311 
L 76.481778 214.829371 
L 78.407278 217.976224 
L 79.514685 219.707619 
L 80.445832 221.123077 
L 82.605688 224.26993 
L 82.661538 224.348057 
L 84.919658 227.416783 
L 85.808392 228.578225 
L 87.373565 230.563636 
L 88.955245 232.495873 
L 89.9805 233.71049 
L 92.102098 236.134401 
L 92.755238 236.857343 
L 95.248951 239.522614 
L 95.714519 240.004196 
L 98.395804 242.685481 
L 98.877386 243.151049 
L 101.542657 245.644762 
L 102.265599 246.297902 
L 104.68951 248.4195 
L 105.904127 249.444755 
L 107.836364 251.026435 
L 109.821775 252.591608 
L 110.983217 253.480342 
L 114.051943 255.738462 
L 114.13007 255.794312 
L 117.276923 257.954168 
L 118.692381 258.885315 
L 120.423776 259.992722 
L 123.570629 261.918222 
L 123.765689 262.032168 
L 126.717483 263.70997 
L 129.430783 265.179021 
L 129.864336 265.407592 
L 133.011189 266.98397 
L 135.838204 268.325874 
L 136.158042 268.473807 
L 139.304895 269.848757 
L 142.451748 271.143167 
L 143.306107 271.472727 
L 145.598601 272.334967 
L 148.745455 273.440011 
L 151.892308 274.466525 
L 152.40038 274.61958 
L 155.039161 275.395153 
L 158.186014 276.243435 
L 161.332867 277.015098 
L 164.47972 277.710142 
L 164.76616 277.766434 
z
" clip-path="url(#pf13b8f5301)" style="fill: #add8e6; fill-opacity: 0.7"/>
   </g>
   <g id="PathCollection_3">
    <path d="M 167.626573 278.315206 
L 170.773427 278.844133 
L 173.92028 279.298263 
L 177.067133 279.677595 
L 180.213986 279.98213 
L 183.360839 280.211866 
L 186.507692 280.366804 
L 189.654545 280.446945 
L 192.801399 280.452288 
L 195.948252 280.382832 
L 199.095105 280.238579 
L 202.241958 280.019529 
L 205.388811 279.72568 
L 208.535664 279.357033 
L 211.682517 278.913589 
L 214.829371 278.395346 
L 217.976224 277.802306 
L 218.145255 277.766434 
L 221.123077 277.119081 
L 224.26993 276.358363 
L 227.416783 275.521027 
L 230.520566 274.61958 
L 230.563636 274.606759 
L 233.71049 273.591464 
L 236.857343 272.497638 
L 239.608419 271.472727 
L 240.004196 271.321507 
L 243.151049 270.038604 
L 246.297902 268.675159 
L 247.059093 268.325874 
L 249.444755 267.20242 
L 252.591608 265.637849 
L 253.468151 265.179021 
L 255.738462 263.958565 
L 258.885315 262.182018 
L 259.138644 262.032168 
L 262.032168 260.273135 
L 264.215499 258.885315 
L 265.179021 258.255395 
L 268.325874 256.108356 
L 268.846271 255.738462 
L 271.472727 253.816798 
L 273.082688 252.591608 
L 274.61958 251.386658 
L 277.004463 249.444755 
L 277.766434 248.804972 
L 280.645396 246.297902 
L 280.913287 246.057108 
L 284.03461 243.151049 
L 284.06014 243.126489 
L 287.197337 240.004196 
L 287.206993 239.994255 
L 290.155546 236.857343 
L 290.353846 236.638859 
L 292.928453 233.71049 
L 293.500699 233.035571 
L 295.53294 230.563636 
L 296.647552 229.155866 
L 297.9839 227.416783 
L 299.794406 224.966669 
L 300.294519 224.26993 
L 302.463209 221.123077 
L 302.941259 220.399342 
L 304.497257 217.976224 
L 306.088112 215.38658 
L 306.421144 214.829371 
L 308.216738 211.682517 
L 309.234965 209.809124 
L 309.908867 208.535664 
L 311.491183 205.388811 
L 312.381818 203.519534 
L 312.974895 202.241958 
L 314.354891 199.095105 
L 315.528671 196.251948 
L 315.65091 195.948252 
L 316.838721 192.801399 
L 317.947719 189.654545 
L 318.675524 187.431359 
L 318.970517 186.507692 
L 319.898647 183.360839 
L 320.74989 180.213986 
L 321.524246 177.067133 
L 321.822378 175.722021 
L 322.212192 173.92028 
L 322.817975 170.773427 
L 323.348705 167.626573 
L 323.804382 164.47972 
L 324.185006 161.332867 
L 324.490578 158.186014 
L 324.721097 155.039161 
L 324.876564 151.892308 
L 324.956977 148.745455 
L 324.962338 145.598601 
L 324.892646 142.451748 
L 324.747902 139.304895 
L 324.528105 136.158042 
L 324.233255 133.011189 
L 323.863352 129.864336 
L 323.418397 126.717483 
L 322.898388 123.570629 
L 322.303328 120.423776 
L 321.822378 118.165235 
L 321.628592 117.276923 
L 320.86522 114.13007 
L 320.02496 110.983217 
L 319.107815 107.836364 
L 318.675524 106.467843 
L 318.099714 104.68951 
L 317.001974 101.542657 
L 315.825423 98.395804 
L 315.528671 97.651929 
L 314.545434 95.248951 
L 313.176986 92.102098 
L 312.381818 90.375538 
L 311.710456 88.955245 
L 310.139992 85.808392 
L 309.234965 84.085921 
L 308.466295 82.661538 
L 306.682875 79.514685 
L 306.088112 78.513081 
L 304.778785 76.367832 
L 302.941259 73.488469 
L 302.765667 73.220979 
L 300.609848 70.074126 
L 299.794406 68.931572 
L 298.321773 66.927273 
L 296.647552 64.736488 
L 295.894726 63.78042 
L 293.500699 60.852976 
L 293.315649 60.633566 
L 290.563033 57.486713 
L 290.353846 57.255833 
L 287.626435 54.33986 
L 287.206993 53.906403 
L 284.493597 51.193007 
L 284.06014 50.773565 
L 281.144167 48.046154 
L 280.913287 47.836967 
L 277.766434 45.084351 
L 277.547024 44.899301 
L 274.61958 42.505274 
L 273.663512 41.752448 
L 271.472727 40.078227 
L 269.468428 38.605594 
L 268.325874 37.790152 
L 265.179021 35.634333 
L 264.911531 35.458741 
L 262.032168 33.621215 
L 259.886919 32.311888 
L 258.885315 31.717125 
L 255.738462 29.933705 
L 254.314079 29.165035 
L 252.591608 28.260008 
L 249.444755 26.689544 
L 248.024462 26.018182 
L 246.297902 25.223014 
L 243.151049 23.854566 
L 240.748071 22.871329 
L 240.004196 22.574577 
L 236.857343 21.398026 
L 233.71049 20.300286 
L 231.932157 19.724476 
L 230.563636 19.292185 
L 227.416783 18.37504 
L 224.26993 17.53478 
L 221.123077 16.771408 
L 220.234765 16.577622 
L 217.976224 16.096672 
L 214.829371 15.501612 
L 211.682517 14.981603 
L 208.535664 14.536648 
L 205.388811 14.166745 
L 202.241958 13.871895 
L 199.095105 13.652098 
L 195.948252 13.507354 
L 192.801399 13.437662 
L 189.654545 13.443023 
L 186.507692 13.523436 
L 183.360839 13.678903 
L 180.213986 13.909422 
L 177.067133 14.214994 
L 173.92028 14.595618 
L 170.773427 15.051295 
L 167.626573 15.582025 
L 164.47972 16.187808 
L 162.677979 16.577622 
L 161.332867 16.875754 
L 158.186014 17.65011 
L 155.039161 18.501353 
L 151.892308 19.429483 
L 150.968641 19.724476 
L 148.745455 20.452281 
L 145.598601 21.561279 
L 142.451748 22.74909 
L 142.148052 22.871329 
L 139.304895 24.045109 
L 136.158042 25.425105 
L 134.880466 26.018182 
L 133.011189 26.908817 
L 129.864336 28.491133 
L 128.590876 29.165035 
L 126.717483 30.183262 
L 123.570629 31.978856 
L 123.01342 32.311888 
L 120.423776 33.902743 
L 118.000658 35.458741 
L 117.276923 35.936791 
L 114.13007 38.105481 
L 113.433331 38.605594 
L 110.983217 40.4161 
L 109.244134 41.752448 
L 107.836364 42.86706 
L 105.364429 44.899301 
L 104.68951 45.471547 
L 101.761141 48.046154 
L 101.542657 48.244454 
L 98.405745 51.193007 
L 98.395804 51.202663 
L 95.273511 54.33986 
L 95.248951 54.36539 
L 92.342892 57.486713 
L 92.102098 57.754604 
L 89.595028 60.633566 
L 88.955245 61.395537 
L 87.013342 63.78042 
L 85.808392 65.317312 
L 84.583202 66.927273 
L 82.661538 69.553729 
L 82.291644 70.074126 
L 80.144605 73.220979 
L 79.514685 74.184501 
L 78.126865 76.367832 
L 76.367832 79.261356 
L 76.217982 79.514685 
L 74.441435 82.661538 
L 73.220979 84.931849 
L 72.762151 85.808392 
L 71.19758 88.955245 
L 70.074126 91.340907 
L 69.724841 92.102098 
L 68.361396 95.248951 
L 67.078493 98.395804 
L 66.927273 98.791581 
L 65.902362 101.542657 
L 64.808536 104.68951 
L 63.793241 107.836364 
L 63.78042 107.879434 
L 62.878973 110.983217 
L 62.041637 114.13007 
L 61.280919 117.276923 
L 60.633566 120.254745 
L 60.597694 120.423776 
L 60.004654 123.570629 
L 59.486411 126.717483 
L 59.042967 129.864336 
L 58.67432 133.011189 
L 58.380471 136.158042 
L 58.161421 139.304895 
L 58.017168 142.451748 
L 57.947712 145.598601 
L 57.953055 148.745455 
L 58.033196 151.892308 
L 58.188134 155.039161 
L 58.41787 158.186014 
L 58.722405 161.332867 
L 59.101737 164.47972 
L 59.555867 167.626573 
L 60.084794 170.773427 
L 60.633566 173.63384 
L 60.689858 173.92028 
L 61.384902 177.067133 
L 62.156565 180.213986 
L 63.004847 183.360839 
L 63.78042 185.99962 
L 63.933475 186.507692 
L 64.959989 189.654545 
L 66.065033 192.801399 
L 66.927273 195.093893 
L 67.256833 195.948252 
L 68.551243 199.095105 
L 69.926193 202.241958 
L 70.074126 202.561796 
L 71.41603 205.388811 
L 72.992408 208.535664 
L 73.220979 208.969217 
L 74.69003 211.682517 
L 76.367832 214.634311 
L 76.481778 214.829371 
L 78.407278 217.976224 
L 79.514685 219.707619 
L 80.445832 221.123077 
L 82.605688 224.26993 
L 82.661538 224.348057 
L 84.919658 227.416783 
L 85.808392 228.578225 
L 87.373565 230.563636 
L 88.955245 232.495873 
L 89.9805 233.71049 
L 92.102098 236.134401 
L 92.755238 236.857343 
L 95.248951 239.522614 
L 95.714519 240.004196 
L 98.395804 242.685481 
L 98.877386 243.151049 
L 101.542657 245.644762 
L 102.265599 246.297902 
L 104.68951 248.4195 
L 105.904127 249.444755 
L 107.836364 251.026435 
L 109.821775 252.591608 
L 110.983217 253.480342 
L 114.051943 255.738462 
L 114.13007 255.794312 
L 117.276923 257.954168 
L 118.692381 258.885315 
L 120.423776 259.992722 
L 123.570629 261.918222 
L 123.765689 262.032168 
L 126.717483 263.70997 
L 129.430783 265.179021 
L 129.864336 265.407592 
L 133.011189 266.98397 
L 135.838204 268.325874 
L 136.158042 268.473807 
L 139.304895 269.848757 
L 142.451748 271.143167 
L 143.306107 271.472727 
L 145.598601 272.334967 
L 148.745455 273.440011 
L 151.892308 274.466525 
L 152.40038 274.61958 
L 155.039161 275.395153 
L 158.186014 276.243435 
L 161.332867 277.015098 
L 164.47972 277.710142 
L 164.76616 277.766434 
z
M 164.76616 277.766434 
L 164.47972 277.710142 
L 161.332867 277.015098 
L 158.186014 276.243435 
L 155.039161 275.395153 
L 152.40038 274.61958 
L 151.892308 274.466525 
L 148.745455 273.440011 
L 145.598601 272.334967 
L 143.306107 271.472727 
L 142.451748 271.143167 
L 139.304895 269.848757 
L 136.158042 268.473807 
L 135.838204 268.325874 
L 133.011189 266.98397 
L 129.864336 265.407592 
L 129.430783 265.179021 
L 126.717483 263.70997 
L 123.765689 262.032168 
L 123.570629 261.918222 
L 120.423776 259.992722 
L 118.692381 258.885315 
L 117.276923 257.954168 
L 114.13007 255.794312 
L 114.051943 255.738462 
L 110.983217 253.480342 
L 109.821775 252.591608 
L 107.836364 251.026435 
L 105.904127 249.444755 
L 104.68951 248.4195 
L 102.265599 246.297902 
L 101.542657 245.644762 
L 98.877386 243.151049 
L 98.395804 242.685481 
L 95.714519 240.004196 
L 95.248951 239.522614 
L 92.755238 236.857343 
L 92.102098 236.134401 
L 89.9805 233.71049 
L 88.955245 232.495873 
L 87.373565 230.563636 
L 85.808392 228.578225 
L 84.919658 227.416783 
L 82.661538 224.348057 
L 82.605688 224.26993 
L 80.445832 221.123077 
L 79.514685 219.707619 
L 78.407278 217.976224 
L 76.481778 214.829371 
L 76.367832 214.634311 
L 74.69003 211.682517 
L 73.220979 208.969217 
L 72.992408 208.535664 
L 71.41603 205.388811 
L 70.074126 202.561796 
L 69.926193 202.241958 
L 68.551243 199.095105 
L 67.256833 195.948252 
L 66.927273 195.093893 
L 66.065033 192.801399 
L 64.959989 189.654545 
L 63.933475 186.507692 
L 63.78042 185.99962 
L 63.004847 183.360839 
L 62.156565 180.213986 
L 61.384902 177.067133 
L 60.689858 173.92028 
L 60.633566 173.63384 
L 60.084794 170.773427 
L 59.555867 167.626573 
L 59.101737 164.47972 
L 58.722405 161.332867 
L 58.41787 158.186014 
L 58.188134 155.039161 
L 58.033196 151.892308 
L 57.953055 148.745455 
L 57.947712 145.598601 
L 58.017168 142.451748 
L 58.161421 139.304895 
L 58.380471 136.158042 
L 58.67432 133.011189 
L 59.042967 129.864336 
L 59.486411 126.717483 
L 60.004654 123.570629 
L 60.597694 120.423776 
L 60.633566 120.254745 
L 61.280919 117.276923 
L 62.041637 114.13007 
L 62.878973 110.983217 
L 63.78042 107.879434 
L 63.793241 107.836364 
L 64.808536 104.68951 
L 65.902362 101.542657 
L 66.927273 98.791581 
L 67.078493 98.395804 
L 68.361396 95.248951 
L 69.724841 92.102098 
L 70.074126 91.340907 
L 71.19758 88.955245 
L 72.762151 85.808392 
L 73.220979 84.931849 
L 74.441435 82.661538 
L 76.217982 79.514685 
L 76.367832 79.261356 
L 78.126865 76.367832 
L 79.514685 74.184501 
L 80.144605 73.220979 
L 82.291644 70.074126 
L 82.661538 69.553729 
L 84.583202 66.927273 
L 85.808392 65.317312 
L 87.013342 63.78042 
L 88.955245 61.395537 
L 89.595028 60.633566 
L 92.102098 57.754604 
L 92.342892 57.486713 
L 95.248951 54.36539 
L 95.273511 54.33986 
L 98.395804 51.202663 
L 98.405745 51.193007 
L 101.542657 48.244454 
L 101.761141 48.046154 
L 104.68951 45.471547 
L 105.364429 44.899301 
L 107.836364 42.86706 
L 109.244134 41.752448 
L 110.983217 40.4161 
L 113.433331 38.605594 
L 114.13007 38.105481 
L 117.276923 35.936791 
L 118.000658 35.458741 
L 120.423776 33.902743 
L 123.01342 32.311888 
L 123.570629 31.978856 
L 126.717483 30.183262 
L 128.590876 29.165035 
L 129.864336 28.491133 
L 133.011189 26.908817 
L 134.880466 26.018182 
L 136.158042 25.425105 
L 139.304895 24.045109 
L 142.148052 22.871329 
L 142.451748 22.74909 
L 145.598601 21.561279 
L 148.745455 20.452281 
L 150.968641 19.724476 
L 151.892308 19.429483 
L 155.039161 18.501353 
L 158.186014 17.65011 
L 161.332867 16.875754 
L 162.677979 16.577622 
L 164.47972 16.187808 
L 167.626573 15.582025 
L 170.773427 15.051295 
L 173.92028 14.595618 
L 177.067133 14.214994 
L 180.213986 13.909422 
L 183.360839 13.678903 
L 186.507692 13.523436 
L 189.654545 13.443023 
L 192.801399 13.437662 
L 195.948252 13.507354 
L 199.095105 13.652098 
L 202.241958 13.871895 
L 205.388811 14.166745 
L 208.535664 14.536648 
L 211.682517 14.981603 
L 214.829371 15.501612 
L 217.976224 16.096672 
L 220.234765 16.577622 
L 221.123077 16.771408 
L 224.26993 17.53478 
L 227.416783 18.37504 
L 230.563636 19.292185 
L 231.932157 19.724476 
L 233.71049 20.300286 
L 236.857343 21.398026 
L 240.004196 22.574577 
L 240.748071 22.871329 
L 243.151049 23.854566 
L 246.297902 25.223014 
L 248.024462 26.018182 
L 249.444755 26.689544 
L 252.591608 28.260008 
L 254.314079 29.165035 
L 255.738462 29.933705 
L 258.885315 31.717125 
L 259.886919 32.311888 
L 262.032168 33.621215 
L 264.911531 35.458741 
L 265.179021 35.634333 
L 268.325874 37.790152 
L 269.468428 38.605594 
L 271.472727 40.078227 
L 273.663512 41.752448 
L 274.61958 42.505274 
L 277.547024 44.899301 
L 277.766434 45.084351 
L 280.913287 47.836967 
L 281.144167 48.046154 
L 284.06014 50.773565 
L 284.493597 51.193007 
L 287.206993 53.906403 
L 287.626435 54.33986 
L 290.353846 57.255833 
L 290.563033 57.486713 
L 293.315649 60.633566 
L 293.500699 60.852976 
L 295.894726 63.78042 
L 296.647552 64.736488 
L 298.321773 66.927273 
L 299.794406 68.931572 
L 300.609848 70.074126 
L 302.765667 73.220979 
L 302.941259 73.488469 
L 304.778785 76.367832 
L 306.088112 78.513081 
L 306.682875 79.514685 
L 308.466295 82.661538 
L 309.234965 84.085921 
L 310.139992 85.808392 
L 311.710456 88.955245 
L 312.381818 90.375538 
L 313.176986 92.102098 
L 314.545434 95.248951 
L 315.528671 97.651929 
L 315.825423 98.395804 
L 317.001974 101.542657 
L 318.099714 104.68951 
L 318.675524 106.467843 
L 319.107815 107.836364 
L 320.02496 110.983217 
L 320.86522 114.13007 
L 321.628592 117.276923 
L 321.822378 118.165235 
L 322.303328 120.423776 
L 322.898388 123.570629 
L 323.418397 126.717483 
L 323.863352 129.864336 
L 324.233255 133.011189 
L 324.528105 136.158042 
L 324.747902 139.304895 
L 324.892646 142.451748 
L 324.962338 145.598601 
L 324.956977 148.745455 
L 324.876564 151.892308 
L 324.721097 155.039161 
L 324.490578 158.186014 
L 324.185006 161.332867 
L 323.804382 164.47972 
L 323.348705 167.626573 
L 322.817975 170.773427 
L 322.212192 173.92028 
L 321.822378 175.722021 
L 321.524246 177.067133 
L 320.74989 180.213986 
L 319.898647 183.360839 
L 318.970517 186.507692 
L 318.675524 187.431359 
L 317.947719 189.654545 
L 316.838721 192.801399 
L 315.65091 195.948252 
L 315.528671 196.251948 
L 314.354891 199.095105 
L 312.974895 202.241958 
L 312.381818 203.519534 
L 311.491183 205.388811 
L 309.908867 208.535664 
L 309.234965 209.809124 
L 308.216738 211.682517 
L 306.421144 214.829371 
L 306.088112 215.38658 
L 304.497257 217.976224 
L 302.941259 220.399342 
L 302.463209 221.123077 
L 300.294519 224.26993 
L 299.794406 224.966669 
L 297.9839 227.416783 
L 296.647552 229.155866 
L 295.53294 230.563636 
L 293.500699 233.035571 
L 292.928453 233.71049 
L 290.353846 236.638859 
L 290.155546 236.857343 
L 287.206993 239.994255 
L 287.197337 240.004196 
L 284.06014 243.126489 
L 284.03461 243.151049 
L 280.913287 246.057108 
L 280.645396 246.297902 
L 277.766434 248.804972 
L 277.004463 249.444755 
L 274.61958 251.386658 
L 273.082688 252.591608 
L 271.472727 253.816798 
L 268.846271 255.738462 
L 268.325874 256.108356 
L 265.179021 258.255395 
L 264.215499 258.885315 
L 262.032168 260.273135 
L 259.138644 262.032168 
L 258.885315 262.182018 
L 255.738462 263.958565 
L 253.468151 265.179021 
L 252.591608 265.637849 
L 249.444755 267.20242 
L 247.059093 268.325874 
L 246.297902 268.675159 
L 243.151049 270.038604 
L 240.004196 271.321507 
L 239.608419 271.472727 
L 236.857343 272.497638 
L 233.71049 273.591464 
L 230.563636 274.606759 
L 230.520566 274.61958 
L 227.416783 275.521027 
L 224.26993 276.358363 
L 221.123077 277.119081 
L 218.145255 277.766434 
L 217.976224 277.802306 
L 214.829371 278.395346 
L 211.682517 278.913589 
L 208.535664 279.357033 
L 205.388811 279.72568 
L 202.241958 280.019529 
L 199.095105 280.238579 
L 195.948252 280.382832 
L 192.801399 280.452288 
L 189.654545 280.446945 
L 186.507692 280.366804 
L 183.360839 280.211866 
L 180.213986 279.98213 
L 177.067133 279.677595 
L 173.92028 279.298263 
L 170.773427 278.844133 
L 167.626573 278.315206 
z
" clip-path="url(#pf13b8f5301)" style="fill: #add8e6"/>
   </g>
   <g id="PathCollection_4">
    <path d="M 167.626573 278.315206 
L 170.773427 278.844133 
L 173.92028 279.298263 
L 177.067133 279.677595 
L 180.213986 279.98213 
L 183.360839 280.211866 
L 186.507692 280.366804 
L 189.654545 280.446945 
L 192.801399 280.452288 
L 195.948252 280.382832 
L 199.095105 280.238579 
L 202.241958 280.019529 
L 205.388811 279.72568 
L 208.535664 279.357033 
L 211.682517 278.913589 
L 214.829371 278.395346 
L 217.976224 277.802306 
L 218.145255 277.766434 
L 221.123077 277.119081 
L 224.26993 276.358363 
L 227.416783 275.521027 
L 230.520566 274.61958 
L 230.563636 274.606759 
L 233.71049 273.591464 
L 236.857343 272.497638 
L 239.608419 271.472727 
L 240.004196 271.321507 
L 243.151049 270.038604 
L 246.297902 268.675159 
L 247.059093 268.325874 
L 249.444755 267.20242 
L 252.591608 265.637849 
L 253.468151 265.179021 
L 255.738462 263.958565 
L 258.885315 262.182018 
L 259.138644 262.032168 
L 262.032168 260.273135 
L 264.215499 258.885315 
L 265.179021 258.255395 
L 268.325874 256.108356 
L 268.846271 255.738462 
L 271.472727 253.816798 
L 273.082688 252.591608 
L 274.61958 251.386658 
L 277.004463 249.444755 
L 277.766434 248.804972 
L 280.645396 246.297902 
L 280.913287 246.057108 
L 284.03461 243.151049 
L 284.06014 243.126489 
L 287.197337 240.004196 
L 287.206993 239.994255 
L 290.155546 236.857343 
L 290.353846 236.638859 
L 292.928453 233.71049 
L 293.500699 233.035571 
L 295.53294 230.563636 
L 296.647552 229.155866 
L 297.9839 227.416783 
L 299.794406 224.966669 
L 300.294519 224.26993 
L 302.463209 221.123077 
L 302.941259 220.399342 
L 304.497257 217.976224 
L 306.088112 215.38658 
L 306.421144 214.829371 
L 308.216738 211.682517 
L 309.234965 209.809124 
L 309.908867 208.535664 
L 311.491183 205.388811 
L 312.381818 203.519534 
L 312.974895 202.241958 
L 314.354891 199.095105 
L 315.528671 196.251948 
L 315.65091 195.948252 
L 316.838721 192.801399 
L 317.947719 189.654545 
L 318.675524 187.431359 
L 318.970517 186.507692 
L 319.898647 183.360839 
L 320.74989 180.213986 
L 321.524246 177.067133 
L 321.822378 175.722021 
L 322.212192 173.92028 
L 322.817975 170.773427 
L 323.348705 167.626573 
L 323.804382 164.47972 
L 324.185006 161.332867 
L 324.490578 158.186014 
L 324.721097 155.039161 
L 324.876564 151.892308 
L 324.956977 148.745455 
L 324.962338 145.598601 
L 324.892646 142.451748 
L 324.747902 139.304895 
L 324.528105 136.158042 
L 324.233255 133.011189 
L 323.863352 129.864336 
L 323.418397 126.717483 
L 322.898388 123.570629 
L 322.303328 120.423776 
L 321.822378 118.165235 
L 321.628592 117.276923 
L 320.86522 114.13007 
L 320.02496 110.983217 
L 319.107815 107.836364 
L 318.675524 106.467843 
L 318.099714 104.68951 
L 317.001974 101.542657 
L 315.825423 98.395804 
L 315.528671 97.651929 
L 314.545434 95.248951 
L 313.176986 92.102098 
L 312.381818 90.375538 
L 311.710456 88.955245 
L 310.139992 85.808392 
L 309.234965 84.085921 
L 308.466295 82.661538 
L 306.682875 79.514685 
L 306.088112 78.513081 
L 304.778785 76.367832 
L 302.941259 73.488469 
L 302.765667 73.220979 
L 300.609848 70.074126 
L 299.794406 68.931572 
L 298.321773 66.927273 
L 296.647552 64.736488 
L 295.894726 63.78042 
L 293.500699 60.852976 
L 293.315649 60.633566 
L 290.563033 57.486713 
L 290.353846 57.255833 
L 287.626435 54.33986 
L 287.206993 53.906403 
L 284.493597 51.193007 
L 284.06014 50.773565 
L 281.144167 48.046154 
L 280.913287 47.836967 
L 277.766434 45.084351 
L 277.547024 44.899301 
L 274.61958 42.505274 
L 273.663512 41.752448 
L 271.472727 40.078227 
L 269.468428 38.605594 
L 268.325874 37.790152 
L 265.179021 35.634333 
L 264.911531 35.458741 
L 262.032168 33.621215 
L 259.886919 32.311888 
L 258.885315 31.717125 
L 255.738462 29.933705 
L 254.314079 29.165035 
L 252.591608 28.260008 
L 249.444755 26.689544 
L 248.024462 26.018182 
L 246.297902 25.223014 
L 243.151049 23.854566 
L 240.748071 22.871329 
L 240.004196 22.574577 
L 236.857343 21.398026 
L 233.71049 20.300286 
L 231.932157 19.724476 
L 230.563636 19.292185 
L 227.416783 18.37504 
L 224.26993 17.53478 
L 221.123077 16.771408 
L 220.234765 16.577622 
L 217.976224 16.096672 
L 214.829371 15.501612 
L 211.682517 14.981603 
L 208.535664 14.536648 
L 205.388811 14.166745 
L 202.241958 13.871895 
L 199.095105 13.652098 
L 195.948252 13.507354 
L 192.801399 13.437662 
L 189.654545 13.443023 
L 186.507692 13.523436 
L 183.360839 13.678903 
L 180.213986 13.909422 
L 177.067133 14.214994 
L 173.92028 14.595618 
L 170.773427 15.051295 
L 167.626573 15.582025 
L 164.47972 16.187808 
L 162.677979 16.577622 
L 161.332867 16.875754 
L 158.186014 17.65011 
L 155.039161 18.501353 
L 151.892308 19.429483 
L 150.968641 19.724476 
L 148.745455 20.452281 
L 145.598601 21.561279 
L 142.451748 22.74909 
L 142.148052 22.871329 
L 139.304895 24.045109 
L 136.158042 25.425105 
L 134.880466 26.018182 
L 133.011189 26.908817 
L 129.864336 28.491133 
L 128.590876 29.165035 
L 126.717483 30.183262 
L 123.570629 31.978856 
L 123.01342 32.311888 
L 120.423776 33.902743 
L 118.000658 35.458741 
L 117.276923 35.936791 
L 114.13007 38.105481 
L 113.433331 38.605594 
L 110.983217 40.4161 
L 109.244134 41.752448 
L 107.836364 42.86706 
L 105.364429 44.899301 
L 104.68951 45.471547 
L 101.761141 48.046154 
L 101.542657 48.244454 
L 98.405745 51.193007 
L 98.395804 51.202663 
L 95.273511 54.33986 
L 95.248951 54.36539 
L 92.342892 57.486713 
L 92.102098 57.754604 
L 89.595028 60.633566 
L 88.955245 61.395537 
L 87.013342 63.78042 
L 85.808392 65.317312 
L 84.583202 66.927273 
L 82.661538 69.553729 
L 82.291644 70.074126 
L 80.144605 73.220979 
L 79.514685 74.184501 
L 78.126865 76.367832 
L 76.367832 79.261356 
L 76.217982 79.514685 
L 74.441435 82.661538 
L 73.220979 84.931849 
L 72.762151 85.808392 
L 71.19758 88.955245 
L 70.074126 91.340907 
L 69.724841 92.102098 
L 68.361396 95.248951 
L 67.078493 98.395804 
L 66.927273 98.791581 
L 65.902362 101.542657 
L 64.808536 104.68951 
L 63.793241 107.836364 
L 63.78042 107.879434 
L 62.878973 110.983217 
L 62.041637 114.13007 
L 61.280919 117.276923 
L 60.633566 120.254745 
L 60.597694 120.423776 
L 60.004654 123.570629 
L 59.486411 126.717483 
L 59.042967 129.864336 
L 58.67432 133.011189 
L 58.380471 136.158042 
L 58.161421 139.304895 
L 58.017168 142.451748 
L 57.947712 145.598601 
L 57.953055 148.745455 
L 58.033196 151.892308 
L 58.188134 155.039161 
L 58.41787 158.186014 
L 58.722405 161.332867 
L 59.101737 164.47972 
L 59.555867 167.626573 
L 60.084794 170.773427 
L 60.633566 173.63384 
L 60.689858 173.92028 
L 61.384902 177.067133 
L 62.156565 180.213986 
L 63.004847 183.360839 
L 63.78042 185.99962 
L 63.933475 186.507692 
L 64.959989 189.654545 
L 66.065033 192.801399 
L 66.927273 195.093893 
L 67.256833 195.948252 
L 68.551243 199.095105 
L 69.926193 202.241958 
L 70.074126 202.561796 
L 71.41603 205.388811 
L 72.992408 208.535664 
L 73.220979 208.969217 
L 74.69003 211.682517 
L 76.367832 214.634311 
L 76.481778 214.829371 
L 78.407278 217.976224 
L 79.514685 219.707619 
L 80.445832 221.123077 
L 82.605688 224.26993 
L 82.661538 224.348057 
L 84.919658 227.416783 
L 85.808392 228.578225 
L 87.373565 230.563636 
L 88.955245 232.495873 
L 89.9805 233.71049 
L 92.102098 236.134401 
L 92.755238 236.857343 
L 95.248951 239.522614 
L 95.714519 240.004196 
L 98.395804 242.685481 
L 98.877386 243.151049 
L 101.542657 245.644762 
L 102.265599 246.297902 
L 104.68951 248.4195 
L 105.904127 249.444755 
L 107.836364 251.026435 
L 109.821775 252.591608 
L 110.983217 253.480342 
L 114.051943 255.738462 
L 114.13007 255.794312 
L 117.276923 257.954168 
L 118.692381 258.885315 
L 120.423776 259.992722 
L 123.570629 261.918222 
L 123.765689 262.032168 
L 126.717483 263.70997 
L 129.430783 265.179021 
L 129.864336 265.407592 
L 133.011189 266.98397 
L 135.838204 268.325874 
L 136.158042 268.473807 
L 139.304895 269.848757 
L 142.451748 271.143167 
L 143.306107 271.472727 
L 145.598601 272.334967 
L 148.745455 273.440011 
L 151.892308 274.466525 
L 152.40038 274.61958 
L 155.039161 275.395153 
L 158.186014 276.243435 
L 161.332867 277.015098 
L 164.47972 277.710142 
L 164.76616 277.766434 
z
M 164.76616 277.766434 
L 164.47972 277.710142 
L 161.332867 277.015098 
L 158.186014 276.243435 
L 155.039161 275.395153 
L 152.40038 274.61958 
L 151.892308 274.466525 
L 148.745455 273.440011 
L 145.598601 272.334967 
L 143.306107 271.472727 
L 142.451748 271.143167 
L 139.304895 269.848757 
L 136.158042 268.473807 
L 135.838204 268.325874 
L 133.011189 266.98397 
L 129.864336 265.407592 
L 129.430783 265.179021 
L 126.717483 263.70997 
L 123.765689 262.032168 
L 123.570629 261.918222 
L 120.423776 259.992722 
L 118.692381 258.885315 
L 117.276923 257.954168 
L 114.13007 255.794312 
L 114.051943 255.738462 
L 110.983217 253.480342 
L 109.821775 252.591608 
L 107.836364 251.026435 
L 105.904127 249.444755 
L 104.68951 248.4195 
L 102.265599 246.297902 
L 101.542657 245.644762 
L 98.877386 243.151049 
L 98.395804 242.685481 
L 95.714519 240.004196 
L 95.248951 239.522614 
L 92.755238 236.857343 
L 92.102098 236.134401 
L 89.9805 233.71049 
L 88.955245 232.495873 
L 87.373565 230.563636 
L 85.808392 228.578225 
L 84.919658 227.416783 
L 82.661538 224.348057 
L 82.605688 224.26993 
L 80.445832 221.123077 
L 79.514685 219.707619 
L 78.407278 217.976224 
L 76.481778 214.829371 
L 76.367832 214.634311 
L 74.69003 211.682517 
L 73.220979 208.969217 
L 72.992408 208.535664 
L 71.41603 205.388811 
L 70.074126 202.561796 
L 69.926193 202.241958 
L 68.551243 199.095105 
L 67.256833 195.948252 
L 66.927273 195.093893 
L 66.065033 192.801399 
L 64.959989 189.654545 
L 63.933475 186.507692 
L 63.78042 185.99962 
L 63.004847 183.360839 
L 62.156565 180.213986 
L 61.384902 177.067133 
L 60.689858 173.92028 
L 60.633566 173.63384 
L 60.084794 170.773427 
L 59.555867 167.626573 
L 59.101737 164.47972 
L 58.722405 161.332867 
L 58.41787 158.186014 
L 58.188134 155.039161 
L 58.033196 151.892308 
L 57.953055 148.745455 
L 57.947712 145.598601 
L 58.017168 142.451748 
L 58.161421 139.304895 
L 58.380471 136.158042 
L 58.67432 133.011189 
L 59.042967 129.864336 
L 59.486411 126.717483 
L 60.004654 123.570629 
L 60.597694 120.423776 
L 60.633566 120.254745 
L 61.280919 117.276923 
L 62.041637 114.13007 
L 62.878973 110.983217 
L 63.78042 107.879434 
L 63.793241 107.836364 
L 64.808536 104.68951 
L 65.902362 101.542657 
L 66.927273 98.791581 
L 67.078493 98.395804 
L 68.361396 95.248951 
L 69.724841 92.102098 
L 70.074126 91.340907 
L 71.19758 88.955245 
L 72.762151 85.808392 
L 73.220979 84.931849 
L 74.441435 82.661538 
L 76.217982 79.514685 
L 76.367832 79.261356 
L 78.126865 76.367832 
L 79.514685 74.184501 
L 80.144605 73.220979 
L 82.291644 70.074126 
L 82.661538 69.553729 
L 84.583202 66.927273 
L 85.808392 65.317312 
L 87.013342 63.78042 
L 88.955245 61.395537 
L 89.595028 60.633566 
L 92.102098 57.754604 
L 92.342892 57.486713 
L 95.248951 54.36539 
L 95.273511 54.33986 
L 98.395804 51.202663 
L 98.405745 51.193007 
L 101.542657 48.244454 
L 101.761141 48.046154 
L 104.68951 45.471547 
L 105.364429 44.899301 
L 107.836364 42.86706 
L 109.244134 41.752448 
L 110.983217 40.4161 
L 113.433331 38.605594 
L 114.13007 38.105481 
L 117.276923 35.936791 
L 118.000658 35.458741 
L 120.423776 33.902743 
L 123.01342 32.311888 
L 123.570629 31.978856 
L 126.717483 30.183262 
L 128.590876 29.165035 
L 129.864336 28.491133 
L 133.011189 26.908817 
L 134.880466 26.018182 
L 136.158042 25.425105 
L 139.304895 24.045109 
L 142.148052 22.871329 
L 142.451748 22.74909 
L 145.598601 21.561279 
L 148.745455 20.452281 
L 150.968641 19.724476 
L 151.892308 19.429483 
L 155.039161 18.501353 
L 158.186014 17.65011 
L 161.332867 16.875754 
L 162.677979 16.577622 
L 164.47972 16.187808 
L 167.626573 15.582025 
L 170.773427 15.051295 
L 173.92028 14.595618 
L 177.067133 14.214994 
L 180.213986 13.909422 
L 183.360839 13.678903 
L 186.507692 13.523436 
L 189.654545 13.443023 
L 192.801399 13.437662 
L 195.948252 13.507354 
L 199.095105 13.652098 
L 202.241958 13.871895 
L 205.388811 14.166745 
L 208.535664 14.536648 
L 211.682517 14.981603 
L 214.829371 15.501612 
L 217.976224 16.096672 
L 220.234765 16.577622 
L 221.123077 16.771408 
L 224.26993 17.53478 
L 227.416783 18.37504 
L 230.563636 19.292185 
L 231.932157 19.724476 
L 233.71049 20.300286 
L 236.857343 21.398026 
L 240.004196 22.574577 
L 240.748071 22.871329 
L 243.151049 23.854566 
L 246.297902 25.223014 
L 248.024462 26.018182 
L 249.444755 26.689544 
L 252.591608 28.260008 
L 254.314079 29.165035 
L 255.738462 29.933705 
L 258.885315 31.717125 
L 259.886919 32.311888 
L 262.032168 33.621215 
L 264.911531 35.458741 
L 265.179021 35.634333 
L 268.325874 37.790152 
L 269.468428 38.605594 
L 271.472727 40.078227 
L 273.663512 41.752448 
L 274.61958 42.505274 
L 277.547024 44.899301 
L 277.766434 45.084351 
L 280.913287 47.836967 
L 281.144167 48.046154 
L 284.06014 50.773565 
L 284.493597 51.193007 
L 287.206993 53.906403 
L 287.626435 54.33986 
L 290.353846 57.255833 
L 290.563033 57.486713 
L 293.315649 60.633566 
L 293.500699 60.852976 
L 295.894726 63.78042 
L 296.647552 64.736488 
L 298.321773 66.927273 
L 299.794406 68.931572 
L 300.609848 70.074126 
L 302.765667 73.220979 
L 302.941259 73.488469 
L 304.778785 76.367832 
L 306.088112 78.513081 
L 306.682875 79.514685 
L 308.466295 82.661538 
L 309.234965 84.085921 
L 310.139992 85.808392 
L 311.710456 88.955245 
L 312.381818 90.375538 
L 313.176986 92.102098 
L 314.545434 95.248951 
L 315.528671 97.651929 
L 315.825423 98.395804 
L 317.001974 101.542657 
L 318.099714 104.68951 
L 318.675524 106.467843 
L 319.107815 107.836364 
L 320.02496 110.983217 
L 320.86522 114.13007 
L 321.628592 117.276923 
L 321.822378 118.165235 
L 322.303328 120.423776 
L 322.898388 123.570629 
L 323.418397 126.717483 
L 323.863352 129.864336 
L 324.233255 133.011189 
L 324.528105 136.158042 
L 324.747902 139.304895 
L 324.892646 142.451748 
L 324.962338 145.598601 
L 324.956977 148.745455 
L 324.876564 151.892308 
L 324.721097 155.039161 
L 324.490578 158.186014 
L 324.185006 161.332867 
L 323.804382 164.47972 
L 323.348705 167.626573 
L 322.817975 170.773427 
L 322.212192 173.92028 
L 321.822378 175.722021 
L 321.524246 177.067133 
L 320.74989 180.213986 
L 319.898647 183.360839 
L 318.970517 186.507692 
L 318.675524 187.431359 
L 317.947719 189.654545 
L 316.838721 192.801399 
L 315.65091 195.948252 
L 315.528671 196.251948 
L 314.354891 199.095105 
L 312.974895 202.241958 
L 312.381818 203.519534 
L 311.491183 205.388811 
L 309.908867 208.535664 
L 309.234965 209.809124 
L 308.216738 211.682517 
L 306.421144 214.829371 
L 306.088112 215.38658 
L 304.497257 217.976224 
L 302.941259 220.399342 
L 302.463209 221.123077 
L 300.294519 224.26993 
L 299.794406 224.966669 
L 297.9839 227.416783 
L 296.647552 229.155866 
L 295.53294 230.563636 
L 293.500699 233.035571 
L 292.928453 233.71049 
L 290.353846 236.638859 
L 290.155546 236.857343 
L 287.206993 239.994255 
L 287.197337 240.004196 
L 284.06014 243.126489 
L 284.03461 243.151049 
L 280.913287 246.057108 
L 280.645396 246.297902 
L 277.766434 248.804972 
L 277.004463 249.444755 
L 274.61958 251.386658 
L 273.082688 252.591608 
L 271.472727 253.816798 
L 268.846271 255.738462 
L 268.325874 256.108356 
L 265.179021 258.255395 
L 264.215499 258.885315 
L 262.032168 260.273135 
L 259.138644 262.032168 
L 258.885315 262.182018 
L 255.738462 263.958565 
L 253.468151 265.179021 
L 252.591608 265.637849 
L 249.444755 267.20242 
L 247.059093 268.325874 
L 246.297902 268.675159 
L 243.151049 270.038604 
L 240.004196 271.321507 
L 239.608419 271.472727 
L 236.857343 272.497638 
L 233.71049 273.591464 
L 230.563636 274.606759 
L 230.520566 274.61958 
L 227.416783 275.521027 
L 224.26993 276.358363 
L 221.123077 277.119081 
L 218.145255 277.766434 
L 217.976224 277.802306 
L 214.829371 278.395346 
L 211.682517 278.913589 
L 208.535664 279.357033 
L 205.388811 279.72568 
L 202.241958 280.019529 
L 199.095105 280.238579 
L 195.948252 280.382832 
L 192.801399 280.452288 
L 189.654545 280.446945 
L 186.507692 280.366804 
L 183.360839 280.211866 
L 180.213986 279.98213 
L 177.067133 279.677595 
L 173.92028 279.298263 
L 170.773427 278.844133 
L 167.626573 278.315206 
z
" clip-path="url(#pf13b8f5301)" style="fill: #ffffff"/>
   </g>
   <g id="PathCollection_5">
    <path d="M 16.577622 324.969231 
L 19.724476 324.969231 
L 22.871329 324.969231 
L 26.018182 324.969231 
L 29.165035 324.969231 
L 32.311888 324.969231 
L 35.458741 324.969231 
L 38.605594 324.969231 
L 41.752448 324.969231 
L 44.899301 324.969231 
L 48.046154 324.969231 
L 51.193007 324.969231 
L 54.33986 324.969231 
L 57.486713 324.969231 
L 60.633566 324.969231 
L 63.78042 324.969231 
L 66.927273 324.969231 
L 70.074126 324.969231 
L 73.220979 324.969231 
L 76.367832 324.969231 
L 79.514685 324.969231 
L 82.661538 324.969231 
L 85.808392 324.969231 
L 88.955245 324.969231 
L 92.102098 324.969231 
L 95.248951 324.969231 
L 98.395804 324.969231 
L 101.542657 324.969231 
L 104.68951 324.969231 
L 107.836364 324.969231 
L 110.983217 324.969231 
L 114.13007 324.969231 
L 117.276923 324.969231 
L 120.423776 324.969231 
L 123.570629 324.969231 
L 126.717483 324.969231 
L 129.864336 324.969231 
L 133.011189 324.969231 
L 136.158042 324.969231 
L 139.304895 324.969231 
L 142.451748 324.969231 
L 145.598601 324.969231 
L 148.745455 324.969231 
L 151.892308 324.969231 
L 155.039161 324.969231 
L 158.186014 324.969231 
L 161.332867 324.969231 
L 164.47972 324.969231 
L 167.626573 324.969231 
L 170.773427 324.969231 
L 173.92028 324.969231 
L 177.067133 324.969231 
L 180.213986 324.969231 
L 183.360839 324.969231 
L 186.507692 324.969231 
L 189.654545 324.969231 
L 192.801399 324.969231 
L 195.948252 324.969231 
L 199.095105 324.969231 
L 202.241958 324.969231 
L 205.388811 324.969231 
L 208.535664 324.969231 
L 211.682517 324.969231 
L 214.829371 324.969231 
L 217.976224 324.969231 
L 221.123077 324.969231 
L 224.26993 324.969231 
L 227.416783 324.969231 
L 230.563636 324.969231 
L 233.71049 324.969231 
L 236.857343 324.969231 
L 240.004196 324.969231 
L 243.151049 324.969231 
L 246.297902 324.969231 
L 249.444755 324.969231 
L 252.591608 324.969231 
L 255.738462 324.969231 
L 258.885315 324.969231 
L 262.032168 324.969231 
L 265.179021 324.969231 
L 268.325874 324.969231 
L 271.472727 324.969231 
L 274.61958 324.969231 
L 277.766434 324.969231 
L 280.913287 324.969231 
L 284.06014 324.969231 
L 287.206993 324.969231 
L 290.353846 324.969231 
L 293.500699 324.969231 
L 296.647552 324.969231 
L 299.794406 324.969231 
L 302.941259 324.969231 
L 306.088112 324.969231 
L 309.234965 324.969231 
L 312.381818 324.969231 
L 315.528671 324.969231 
L 318.675524 324.969231 
L 321.822378 324.969231 
L 324.969231 324.969231 
L 324.969231 321.822378 
L 324.969231 318.675524 
L 324.969231 315.528671 
L 324.969231 312.381818 
L 324.969231 309.234965 
L 324.969231 306.088112 
L 324.969231 302.941259 
L 324.969231 299.794406 
L 324.969231 296.647552 
L 324.969231 293.500699 
L 324.969231 290.353846 
L 324.969231 287.206993 
L 324.969231 284.06014 
L 324.969231 280.913287 
L 324.969231 277.766434 
L 324.969231 274.61958 
L 324.969231 271.472727 
L 324.969231 268.325874 
L 324.969231 265.179021 
L 324.969231 262.032168 
L 324.969231 258.885315 
L 324.969231 255.738462 
L 324.969231 252.591608 
L 324.969231 249.444755 
L 324.969231 246.297902 
L 324.969231 243.151049 
L 324.969231 240.004196 
L 324.969231 236.857343 
L 324.969231 233.71049 
L 324.969231 230.563636 
L 324.969231 227.416783 
L 324.969231 224.26993 
L 324.969231 221.123077 
L 324.969231 217.976224 
L 324.969231 214.829371 
L 324.969231 211.682517 
L 324.969231 208.535664 
L 324.969231 205.388811 
L 324.969231 202.241958 
L 324.969231 199.095105 
L 324.969231 195.948252 
L 324.969231 192.801399 
L 324.969231 189.654545 
L 324.969231 186.507692 
L 324.969231 183.360839 
L 324.969231 180.213986 
L 324.969231 177.067133 
L 324.969231 173.92028 
L 324.969231 170.773427 
L 324.969231 167.626573 
L 324.969231 164.47972 
L 324.969231 161.332867 
L 324.969231 158.186014 
L 324.969231 155.039161 
L 324.969231 151.892308 
L 324.969231 148.745455 
L 324.969231 145.598601 
L 324.969231 142.451748 
L 324.969231 139.304895 
L 324.969231 136.158042 
L 324.969231 133.011189 
L 324.969231 129.864336 
L 324.969231 126.717483 
L 324.969231 123.570629 
L 324.969231 120.423776 
L 324.969231 117.276923 
L 324.969231 114.13007 
L 324.969231 110.983217 
L 324.969231 107.836364 
L 324.969231 104.68951 
L 324.969231 101.542657 
L 324.969231 98.395804 
L 324.969231 95.248951 
L 324.969231 92.102098 
L 324.969231 88.955245 
L 324.969231 85.808392 
L 324.969231 82.661538 
L 324.969231 79.514685 
L 324.969231 76.367832 
L 324.969231 73.220979 
L 324.969231 70.074126 
L 324.969231 66.927273 
L 324.969231 63.78042 
L 324.969231 60.633566 
L 324.969231 57.486713 
L 324.969231 54.33986 
L 324.969231 51.193007 
L 324.969231 48.046154 
L 324.969231 44.899301 
L 324.969231 41.752448 
L 324.969231 38.605594 
L 324.969231 35.458741 
L 324.969231 32.311888 
L 324.969231 29.165035 
L 324.969231 26.018182 
L 324.969231 22.871329 
L 324.969231 19.724476 
L 324.969231 16.577622 
L 324.969231 13.430769 
L 321.822378 13.430769 
L 318.675524 13.430769 
L 315.528671 13.430769 
L 312.381818 13.430769 
L 309.234965 13.430769 
L 306.088112 13.430769 
L 302.941259 13.430769 
L 299.794406 13.430769 
L 296.647552 13.430769 
L 293.500699 13.430769 
L 290.353846 13.430769 
L 287.206993 13.430769 
L 284.06014 13.430769 
L 280.913287 13.430769 
L 277.766434 13.430769 
L 274.61958 13.430769 
L 271.472727 13.430769 
L 268.325874 13.430769 
L 265.179021 13.430769 
L 262.032168 13.430769 
L 258.885315 13.430769 
L 255.738462 13.430769 
L 252.591608 13.430769 
L 249.444755 13.430769 
L 246.297902 13.430769 
L 243.151049 13.430769 
L 240.004196 13.430769 
L 236.857343 13.430769 
L 233.71049 13.430769 
L 230.563636 13.430769 
L 227.416783 13.430769 
L 224.26993 13.430769 
L 221.123077 13.430769 
L 217.976224 13.430769 
L 214.829371 13.430769 
L 211.682517 13.430769 
L 208.535664 13.430769 
L 205.388811 13.430769 
L 202.241958 13.430769 
L 199.095105 13.430769 
L 195.948252 13.430769 
L 192.801399 13.430769 
L 189.654545 13.430769 
L 186.507692 13.430769 
L 183.360839 13.430769 
L 180.213986 13.430769 
L 177.067133 13.430769 
L 173.92028 13.430769 
L 170.773427 13.430769 
L 167.626573 13.430769 
L 164.47972 13.430769 
L 161.332867 13.430769 
L 158.186014 13.430769 
L 155.039161 13.430769 
L 151.892308 13.430769 
L 148.745455 13.430769 
L 145.598601 13.430769 
L 142.451748 13.430769 
L 139.304895 13.430769 
L 136.158042 13.430769 
L 133.011189 13.430769 
L 129.864336 13.430769 
L 126.717483 13.430769 
L 123.570629 13.430769 
L 120.423776 13.430769 
L 117.276923 13.430769 
L 114.13007 13.430769 
L 110.983217 13.430769 
L 107.836364 13.430769 
L 104.68951 13.430769 
L 101.542657 13.430769 
L 98.395804 13.430769 
L 95.248951 13.430769 
L 92.102098 13.430769 
L 88.955245 13.430769 
L 85.808392 13.430769 
L 82.661538 13.430769 
L 79.514685 13.430769 
L 76.367832 13.430769 
L 73.220979 13.430769 
L 70.074126 13.430769 
L 66.927273 13.430769 
L 63.78042 13.430769 
L 60.633566 13.430769 
L 57.486713 13.430769 
L 54.33986 13.430769 
L 51.193007 13.430769 
L 48.046154 13.430769 
L 44.899301 13.430769 
L 41.752448 13.430769 
L 38.605594 13.430769 
L 35.458741 13.430769 
L 32.311888 13.430769 
L 29.165035 13.430769 
L 26.018182 13.430769 
L 22.871329 13.430769 
L 19.724476 13.430769 
L 16.577622 13.430769 
L 13.430769 13.430769 
L 13.430769 16.577622 
L 13.430769 19.724476 
L 13.430769 22.871329 
L 13.430769 26.018182 
L 13.430769 29.165035 
L 13.430769 32.311888 
L 13.430769 35.458741 
L 13.430769 38.605594 
L 13.430769 41.752448 
L 13.430769 44.899301 
L 13.430769 48.046154 
L 13.430769 51.193007 
L 13.430769 54.33986 
L 13.430769 57.486713 
L 13.430769 60.633566 
L 13.430769 63.78042 
L 13.430769 66.927273 
L 13.430769 70.074126 
L 13.430769 73.220979 
L 13.430769 76.367832 
L 13.430769 79.514685 
L 13.430769 82.661538 
L 13.430769 85.808392 
L 13.430769 88.955245 
L 13.430769 92.102098 
L 13.430769 95.248951 
L 13.430769 98.395804 
L 13.430769 101.542657 
L 13.430769 104.68951 
L 13.430769 107.836364 
L 13.430769 110.983217 
L 13.430769 114.13007 
L 13.430769 117.276923 
L 13.430769 120.423776 
L 13.430769 123.570629 
L 13.430769 126.717483 
L 13.430769 129.864336 
L 13.430769 133.011189 
L 13.430769 136.158042 
L 13.430769 139.304895 
L 13.430769 142.451748 
L 13.430769 145.598601 
L 13.430769 148.745455 
L 13.430769 151.892308 
L 13.430769 155.039161 
L 13.430769 158.186014 
L 13.430769 161.332867 
L 13.430769 164.47972 
L 13.430769 167.626573 
L 13.430769 170.773427 
L 13.430769 173.92028 
L 13.430769 177.067133 
L 13.430769 180.213986 
L 13.430769 183.360839 
L 13.430769 186.507692 
L 13.430769 189.654545 
L 13.430769 192.801399 
L 13.430769 195.948252 
L 13.430769 199.095105 
L 13.430769 202.241958 
L 13.430769 205.388811 
L 13.430769 208.535664 
L 13.430769 211.682517 
L 13.430769 214.829371 
L 13.430769 217.976224 
L 13.430769 221.123077 
L 13.430769 224.26993 
L 13.430769 227.416783 
L 13.430769 230.563636 
L 13.430769 233.71049 
L 13.430769 236.857343 
L 13.430769 240.004196 
L 13.430769 243.151049 
L 13.430769 246.297902 
L 13.430769 249.444755 
L 13.430769 252.591608 
L 13.430769 255.738462 
L 13.430769 258.885315 
L 13.430769 262.032168 
L 13.430769 265.179021 
L 13.430769 268.325874 
L 13.430769 271.472727 
L 13.430769 274.61958 
L 13.430769 277.766434 
L 13.430769 280.913287 
L 13.430769 284.06014 
L 13.430769 287.206993 
L 13.430769 290.353846 
L 13.430769 293.500699 
L 13.430769 296.647552 
L 13.430769 299.794406 
L 13.430769 302.941259 
L 13.430769 306.088112 
L 13.430769 309.234965 
L 13.430769 312.381818 
L 13.430769 315.528671 
L 13.430769 318.675524 
L 13.430769 321.822378 
L 13.430769 324.969231 
L 16.577622 324.969231 
z
M 164.76616 277.766434 
L 164.47972 277.710142 
L 161.332867 277.015098 
L 158.186014 276.243435 
L 155.039161 275.395153 
L 152.40038 274.61958 
L 151.892308 274.466525 
L 148.745455 273.440011 
L 145.598601 272.334967 
L 143.306107 271.472727 
L 142.451748 271.143167 
L 139.304895 269.848757 
L 136.158042 268.473807 
L 135.838204 268.325874 
L 133.011189 266.98397 
L 129.864336 265.407592 
L 129.430783 265.179021 
L 126.717483 263.70997 
L 123.765689 262.032168 
L 123.570629 261.918222 
L 120.423776 259.992722 
L 118.692381 258.885315 
L 117.276923 257.954168 
L 114.13007 255.794312 
L 114.051943 255.738462 
L 110.983217 253.480342 
L 109.821775 252.591608 
L 107.836364 251.026435 
L 105.904127 249.444755 
L 104.68951 248.4195 
L 102.265599 246.297902 
L 101.542657 245.644762 
L 98.877386 243.151049 
L 98.395804 242.685481 
L 95.714519 240.004196 
L 95.248951 239.522614 
L 92.755238 236.857343 
L 92.102098 236.134401 
L 89.9805 233.71049 
L 88.955245 232.495873 
L 87.373565 230.563636 
L 85.808392 228.578225 
L 84.919658 227.416783 
L 82.661538 224.348057 
L 82.605688 224.26993 
L 80.445832 221.123077 
L 79.514685 219.707619 
L 78.407278 217.976224 
L 76.481778 214.829371 
L 76.367832 214.634311 
L 74.69003 211.682517 
L 73.220979 208.969217 
L 72.992408 208.535664 
L 71.41603 205.388811 
L 70.074126 202.561796 
L 69.926193 202.241958 
L 68.551243 199.095105 
L 67.256833 195.948252 
L 66.927273 195.093893 
L 66.065033 192.801399 
L 64.959989 189.654545 
L 63.933475 186.507692 
L 63.78042 185.99962 
L 63.004847 183.360839 
L 62.156565 180.213986 
L 61.384902 177.067133 
L 60.689858 173.92028 
L 60.633566 173.63384 
L 60.084794 170.773427 
L 59.555867 167.626573 
L 59.101737 164.47972 
L 58.722405 161.332867 
L 58.41787 158.186014 
L 58.188134 155.039161 
L 58.033196 151.892308 
L 57.953055 148.745455 
L 57.947712 145.598601 
L 58.017168 142.451748 
L 58.161421 139.304895 
L 58.380471 136.158042 
L 58.67432 133.011189 
L 59.042967 129.864336 
L 59.486411 126.717483 
L 60.004654 123.570629 
L 60.597694 120.423776 
L 60.633566 120.254745 
L 61.280919 117.276923 
L 62.041637 114.13007 
L 62.878973 110.983217 
L 63.78042 107.879434 
L 63.793241 107.836364 
L 64.808536 104.68951 
L 65.902362 101.542657 
L 66.927273 98.791581 
L 67.078493 98.395804 
L 68.361396 95.248951 
L 69.724841 92.102098 
L 70.074126 91.340907 
L 71.19758 88.955245 
L 72.762151 85.808392 
L 73.220979 84.931849 
L 74.441435 82.661538 
L 76.217982 79.514685 
L 76.367832 79.261356 
L 78.126865 76.367832 
L 79.514685 74.184501 
L 80.144605 73.220979 
L 82.291644 70.074126 
L 82.661538 69.553729 
L 84.583202 66.927273 
L 85.808392 65.317312 
L 87.013342 63.78042 
L 88.955245 61.395537 
L 89.595028 60.633566 
L 92.102098 57.754604 
L 92.342892 57.486713 
L 95.248951 54.36539 
L 95.273511 54.33986 
L 98.395804 51.202663 
L 98.405745 51.193007 
L 101.542657 48.244454 
L 101.761141 48.046154 
L 104.68951 45.471547 
L 105.364429 44.899301 
L 107.836364 42.86706 
L 109.244134 41.752448 
L 110.983217 40.4161 
L 113.433331 38.605594 
L 114.13007 38.105481 
L 117.276923 35.936791 
L 118.000658 35.458741 
L 120.423776 33.902743 
L 123.01342 32.311888 
L 123.570629 31.978856 
L 126.717483 30.183262 
L 128.590876 29.165035 
L 129.864336 28.491133 
L 133.011189 26.908817 
L 134.880466 26.018182 
L 136.158042 25.425105 
L 139.304895 24.045109 
L 142.148052 22.871329 
L 142.451748 22.74909 
L 145.598601 21.561279 
L 148.745455 20.452281 
L 150.968641 19.724476 
L 151.892308 19.429483 
L 155.039161 18.501353 
L 158.186014 17.65011 
L 161.332867 16.875754 
L 162.677979 16.577622 
L 164.47972 16.187808 
L 167.626573 15.582025 
L 170.773427 15.051295 
L 173.92028 14.595618 
L 177.067133 14.214994 
L 180.213986 13.909422 
L 183.360839 13.678903 
L 186.507692 13.523436 
L 189.654545 13.443023 
L 192.801399 13.437662 
L 195.948252 13.507354 
L 199.095105 13.652098 
L 202.241958 13.871895 
L 205.388811 14.166745 
L 208.535664 14.536648 
L 211.682517 14.981603 
L 214.829371 15.501612 
L 217.976224 16.096672 
L 220.234765 16.577622 
L 221.123077 16.771408 
L 224.26993 17.53478 
L 227.416783 18.37504 
L 230.563636 19.292185 
L 231.932157 19.724476 
L 233.71049 20.300286 
L 236.857343 21.398026 
L 240.004196 22.574577 
L 240.748071 22.871329 
L 243.151049 23.854566 
L 246.297902 25.223014 
L 248.024462 26.018182 
L 249.444755 26.689544 
L 252.591608 28.260008 
L 254.314079 29.165035 
L 255.738462 29.933705 
L 258.885315 31.717125 
L 259.886919 32.311888 
L 262.032168 33.621215 
L 264.911531 35.458741 
L 265.179021 35.634333 
L 268.325874 37.790152 
L 269.468428 38.605594 
L 271.472727 40.078227 
L 273.663512 41.752448 
L 274.61958 42.505274 
L 277.547024 44.899301 
L 277.766434 45.084351 
L 280.913287 47.836967 
L 281.144167 48.046154 
L 284.06014 50.773565 
L 284.493597 51.193007 
L 287.206993 53.906403 
L 287.626435 54.33986 
L 290.353846 57.255833 
L 290.563033 57.486713 
L 293.315649 60.633566 
L 293.500699 60.852976 
L 295.894726 63.78042 
L 296.647552 64.736488 
L 298.321773 66.927273 
L 299.794406 68.931572 
L 300.609848 70.074126 
L 302.765667 73.220979 
L 302.941259 73.488469 
L 304.778785 76.367832 
L 306.088112 78.513081 
L 306.682875 79.514685 
L 308.466295 82.661538 
L 309.234965 84.085921 
L 310.139992 85.808392 
L 311.710456 88.955245 
L 312.381818 90.375538 
L 313.176986 92.102098 
L 314.545434 95.248951 
L 315.528671 97.651929 
L 315.825423 98.395804 
L 317.001974 101.542657 
L 318.099714 104.68951 
L 318.675524 106.467843 
L 319.107815 107.836364 
L 320.02496 110.983217 
L 320.86522 114.13007 
L 321.628592 117.276923 
L 321.822378 118.165235 
L 322.303328 120.423776 
L 322.898388 123.570629 
L 323.418397 126.717483 
L 323.863352 129.864336 
L 324.233255 133.011189 
L 324.528105 136.158042 
L 324.747902 139.304895 
L 324.892646 142.451748 
L 324.962338 145.598601 
L 324.956977 148.745455 
L 324.876564 151.892308 
L 324.721097 155.039161 
L 324.490578 158.186014 
L 324.185006 161.332867 
L 323.804382 164.47972 
L 323.348705 167.626573 
L 322.817975 170.773427 
L 322.212192 173.92028 
L 321.822378 175.722021 
L 321.524246 177.067133 
L 320.74989 180.213986 
L 319.898647 183.360839 
L 318.970517 186.507692 
L 318.675524 187.431359 
L 317.947719 189.654545 
L 316.838721 192.801399 
L 315.65091 195.948252 
L 315.528671 196.251948 
L 314.354891 199.095105 
L 312.974895 202.241958 
L 312.381818 203.519534 
L 311.491183 205.388811 
L 309.908867 208.535664 
L 309.234965 209.809124 
L 308.216738 211.682517 
L 306.421144 214.829371 
L 306.088112 215.38658 
L 304.497257 217.976224 
L 302.941259 220.399342 
L 302.463209 221.123077 
L 300.294519 224.26993 
L 299.794406 224.966669 
L 297.9839 227.416783 
L 296.647552 229.155866 
L 295.53294 230.563636 
L 293.500699 233.035571 
L 292.928453 233.71049 
L 290.353846 236.638859 
L 290.155546 236.857343 
L 287.206993 239.994255 
L 287.197337 240.004196 
L 284.06014 243.126489 
L 284.03461 243.151049 
L 280.913287 246.057108 
L 280.645396 246.297902 
L 277.766434 248.804972 
L 277.004463 249.444755 
L 274.61958 251.386658 
L 273.082688 252.591608 
L 271.472727 253.816798 
L 268.846271 255.738462 
L 268.325874 256.108356 
L 265.179021 258.255395 
L 264.215499 258.885315 
L 262.032168 260.273135 
L 259.138644 262.032168 
L 258.885315 262.182018 
L 255.738462 263.958565 
L 253.468151 265.179021 
L 252.591608 265.637849 
L 249.444755 267.20242 
L 247.059093 268.325874 
L 246.297902 268.675159 
L 243.151049 270.038604 
L 240.004196 271.321507 
L 239.608419 271.472727 
L 236.857343 272.497638 
L 233.71049 273.591464 
L 230.563636 274.606759 
L 230.520566 274.61958 
L 227.416783 275.521027 
L 224.26993 276.358363 
L 221.123077 277.119081 
L 218.145255 277.766434 
L 217.976224 277.802306 
L 214.829371 278.395346 
L 211.682517 278.913589 
L 208.535664 279.357033 
L 205.388811 279.72568 
L 202.241958 280.019529 
L 199.095105 280.238579 
L 195.948252 280.382832 
L 192.801399 280.452288 
L 189.654545 280.446945 
L 186.507692 280.366804 
L 183.360839 280.211866 
L 180.213986 279.98213 
L 177.067133 279.677595 
L 173.92028 279.298263 
L 170.773427 278.844133 
L 167.626573 278.315206 
L 164.76616 277.766434 
z
" clip-path="url(#pf13b8f5301)" style="fill: none"/>
   </g>
   <g id="matplotlib.axis_1"/>
   <g id="matplotlib.axis_2"/>
   <g id="PathCollection_6">
    <path d="M 167.626573 278.315206 
L 161.332867 277.015098 
L 155.039161 275.395153 
L 148.745455 273.440011 
L 142.451748 271.143167 
L 135.838204 268.325874 
L 129.430783 265.179021 
L 123.570629 261.918222 
L 117.276923 257.954168 
L 114.051943 255.738462 
L 109.821775 252.591608 
L 104.68951 248.4195 
L 101.542657 245.644762 
L 98.395804 242.685481 
L 95.248951 239.522614 
L 92.102098 236.134401 
L 87.373565 230.563636 
L 84.919658 227.416783 
L 82.605688 224.26993 
L 78.407278 217.976224 
L 76.367832 214.634311 
L 72.992408 208.535664 
L 69.926193 202.241958 
L 67.256833 195.948252 
L 66.065033 192.801399 
L 63.78042 185.99962 
L 62.156565 180.213986 
L 60.633566 173.63384 
L 59.555867 167.626573 
L 58.722405 161.332867 
L 58.188134 155.039161 
L 57.953055 148.745455 
L 58.017168 142.451748 
L 58.380471 136.158042 
L 59.042967 129.864336 
L 60.004654 123.570629 
L 61.280919 117.276923 
L 62.878973 110.983217 
L 64.808536 104.68951 
L 67.078493 98.395804 
L 70.074126 91.340907 
L 72.762151 85.808392 
L 74.441435 82.661538 
L 76.367832 79.261356 
L 80.144605 73.220979 
L 82.661538 69.553729 
L 87.013342 63.78042 
L 89.595028 60.633566 
L 92.342892 57.486713 
L 95.273511 54.33986 
L 98.405745 51.193007 
L 101.761141 48.046154 
L 105.364429 44.899301 
L 110.983217 40.4161 
L 114.13007 38.105481 
L 120.423776 33.902743 
L 123.570629 31.978856 
L 129.864336 28.491133 
L 136.158042 25.425105 
L 142.451748 22.74909 
L 148.745455 20.452281 
L 155.039161 18.501353 
L 161.332867 16.875754 
L 167.626573 15.582025 
L 173.92028 14.595618 
L 180.213986 13.909422 
L 186.507692 13.523436 
L 192.801399 13.437662 
L 199.095105 13.652098 
L 205.388811 14.166745 
L 211.682517 14.981603 
L 217.976224 16.096672 
L 224.26993 17.53478 
L 230.563636 19.292185 
L 233.71049 20.300286 
L 240.748071 22.871329 
L 246.297902 25.223014 
L 249.444755 26.689544 
L 255.738462 29.933705 
L 262.032168 33.621215 
L 265.179021 35.634333 
L 271.472727 40.078227 
L 274.61958 42.505274 
L 277.766434 45.084351 
L 281.144167 48.046154 
L 284.493597 51.193007 
L 287.626435 54.33986 
L 290.563033 57.486713 
L 293.500699 60.852976 
L 296.647552 64.736488 
L 300.609848 70.074126 
L 302.941259 73.488469 
L 306.682875 79.514685 
L 310.139992 85.808392 
L 313.176986 92.102098 
L 315.825423 98.395804 
L 318.099714 104.68951 
L 320.02496 110.983217 
L 321.628592 117.276923 
L 322.898388 123.570629 
L 323.863352 129.864336 
L 324.528105 136.158042 
L 324.892646 142.451748 
L 324.956977 148.745455 
L 324.721097 155.039161 
L 324.185006 161.332867 
L 323.348705 167.626573 
L 322.212192 173.92028 
L 320.74989 180.213986 
L 318.970517 186.507692 
L 317.947719 189.654545 
L 315.528671 196.251948 
L 312.974895 202.241958 
L 311.491183 205.388811 
L 308.216738 211.682517 
L 306.088112 215.38658 
L 302.463209 221.123077 
L 299.794406 224.966669 
L 295.53294 230.563636 
L 292.928453 233.71049 
L 290.155546 236.857343 
L 287.197337 240.004196 
L 284.03461 243.151049 
L 280.645396 246.297902 
L 277.004463 249.444755 
L 271.472727 253.816798 
L 268.325874 256.108356 
L 262.032168 260.273135 
L 258.885315 262.182018 
L 252.591608 265.637849 
L 246.297902 268.675159 
L 239.608419 271.472727 
L 233.71049 273.591464 
L 227.416783 275.521027 
L 221.123077 277.119081 
L 214.829371 278.395346 
L 208.535664 279.357033 
L 202.241958 280.019529 
L 195.948252 280.382832 
L 189.654545 280.446945 
L 183.360839 280.211866 
L 177.067133 279.677595 
L 170.773427 278.844133 
L 167.626573 278.315206 
L 167.626573 278.315206 
" clip-path="url(#pf13b8f5301)" style="fill: none; stroke: #add8e6; stroke-width: 1.5"/>
   </g>
   <g id="PathCollection_7">
    <path d="M 167.626573 278.315206 
L 161.332867 277.015098 
L 155.039161 275.395153 
L 148.745455 273.440011 
L 142.451748 271.143167 
L 135.838204 268.325874 
L 129.430783 265.179021 
L 123.570629 261.918222 
L 117.276923 257.954168 
L 114.051943 255.738462 
L 109.821775 252.591608 
L 104.68951 248.4195 
L 101.542657 245.644762 
L 98.395804 242.685481 
L 95.248951 239.522614 
L 92.102098 236.134401 
L 87.373565 230.563636 
L 84.919658 227.416783 
L 82.605688 224.26993 
L 78.407278 217.976224 
L 76.367832 214.634311 
L 72.992408 208.535664 
L 69.926193 202.241958 
L 67.256833 195.948252 
L 66.065033 192.801399 
L 63.78042 185.99962 
L 62.156565 180.213986 
L 60.633566 173.63384 
L 59.555867 167.626573 
L 58.722405 161.332867 
L 58.188134 155.039161 
L 57.953055 148.745455 
L 58.017168 142.451748 
L 58.380471 136.158042 
L 59.042967 129.864336 
L 60.004654 123.570629 
L 61.280919 117.276923 
L 62.878973 110.983217 
L 64.808536 104.68951 
L 67.078493 98.395804 
L 70.074126 91.340907 
L 72.762151 85.808392 
L 74.441435 82.661538 
L 76.367832 79.261356 
L 80.144605 73.220979 
L 82.661538 69.553729 
L 87.013342 63.78042 
L 89.595028 60.633566 
L 92.342892 57.486713 
L 95.273511 54.33986 
L 98.405745 51.193007 
L 101.761141 48.046154 
L 105.364429 44.899301 
L 110.983217 40.4161 
L 114.13007 38.105481 
L 120.423776 33.902743 
L 123.570629 31.978856 
L 129.864336 28.491133 
L 136.158042 25.425105 
L 142.451748 22.74909 
L 148.745455 20.452281 
L 155.039161 18.501353 
L 161.332867 16.875754 
L 167.626573 15.582025 
L 173.92028 14.595618 
L 180.213986 13.909422 
L 186.507692 13.523436 
L 192.801399 13.437662 
L 199.095105 13.652098 
L 205.388811 14.166745 
L 211.682517 14.981603 
L 217.976224 16.096672 
L 224.26993 17.53478 
L 230.563636 19.292185 
L 233.71049 20.300286 
L 240.748071 22.871329 
L 246.297902 25.223014 
L 249.444755 26.689544 
L 255.738462 29.933705 
L 262.032168 33.621215 
L 265.179021 35.634333 
L 271.472727 40.078227 
L 274.61958 42.505274 
L 277.766434 45.084351 
L 281.144167 48.046154 
L 284.493597 51.193007 
L 287.626435 54.33986 
L 290.563033 57.486713 
L 293.500699 60.852976 
L 296.647552 64.736488 
L 300.609848 70.074126 
L 302.941259 73.488469 
L 306.682875 79.514685 
L 310.139992 85.808392 
L 313.176986 92.102098 
L 315.825423 98.395804 
L 318.099714 104.68951 
L 320.02496 110.983217 
L 321.628592 117.276923 
L 322.898388 123.570629 
L 323.863352 129.864336 
L 324.528105 136.158042 
L 324.892646 142.451748 
L 324.956977 148.745455 
L 324.721097 155.039161 
L 324.185006 161.332867 
L 323.348705 167.626573 
L 322.212192 173.92028 
L 320.74989 180.213986 
L 318.970517 186.507692 
L 317.947719 189.654545 
L 315.528671 196.251948 
L 312.974895 202.241958 
L 311.491183 205.388811 
L 308.216738 211.682517 
L 306.088112 215.38658 
L 302.463209 221.123077 
L 299.794406 224.966669 
L 295.53294 230.563636 
L 292.928453 233.71049 
L 290.155546 236.857343 
L 287.197337 240.004196 
L 284.03461 243.151049 
L 280.645396 246.297902 
L 277.004463 249.444755 
L 271.472727 253.816798 
L 268.325874 256.108356 
L 262.032168 260.273135 
L 258.885315 262.182018 
L 252.591608 265.637849 
L 246.297902 268.675159 
L 239.608419 271.472727 
L 233.71049 273.591464 
L 227.416783 275.521027 
L 221.123077 277.119081 
L 214.829371 278.395346 
L 208.535664 279.357033 
L 202.241958 280.019529 
L 195.948252 280.382832 
L 189.654545 280.446945 
L 183.360839 280.211866 
L 177.067133 279.677595 
L 170.773427 278.844133 
L 167.626573 278.315206 
L 167.626573 278.315206 
" clip-path="url(#pf13b8f5301)" style="fill: none; stroke: #ffffff; stroke-width: 1.5"/>
   </g>
   <g id="PathCollection_8">
    <path d="M 167.626573 278.315206 
L 161.332867 277.015098 
L 155.039161 275.395153 
L 148.745455 273.440011 
L 142.451748 271.143167 
L 135.838204 268.325874 
L 129.430783 265.179021 
L 123.570629 261.918222 
L 117.276923 257.954168 
L 114.051943 255.738462 
L 109.821775 252.591608 
L 104.68951 248.4195 
L 101.542657 245.644762 
L 98.395804 242.685481 
L 95.248951 239.522614 
L 92.102098 236.134401 
L 87.373565 230.563636 
L 84.919658 227.416783 
L 82.605688 224.26993 
L 78.407278 217.976224 
L 76.367832 214.634311 
L 72.992408 208.535664 
L 69.926193 202.241958 
L 67.256833 195.948252 
L 66.065033 192.801399 
L 63.78042 185.99962 
L 62.156565 180.213986 
L 60.633566 173.63384 
L 59.555867 167.626573 
L 58.722405 161.332867 
L 58.188134 155.039161 
L 57.953055 148.745455 
L 58.017168 142.451748 
L 58.380471 136.158042 
L 59.042967 129.864336 
L 60.004654 123.570629 
L 61.280919 117.276923 
L 62.878973 110.983217 
L 64.808536 104.68951 
L 67.078493 98.395804 
L 70.074126 91.340907 
L 72.762151 85.808392 
L 74.441435 82.661538 
L 76.367832 79.261356 
L 80.144605 73.220979 
L 82.661538 69.553729 
L 87.013342 63.78042 
L 89.595028 60.633566 
L 92.342892 57.486713 
L 95.273511 54.33986 
L 98.405745 51.193007 
L 101.761141 48.046154 
L 105.364429 44.899301 
L 110.983217 40.4161 
L 114.13007 38.105481 
L 120.423776 33.902743 
L 123.570629 31.978856 
L 129.864336 28.491133 
L 136.158042 25.425105 
L 142.451748 22.74909 
L 148.745455 20.452281 
L 155.039161 18.501353 
L 161.332867 16.875754 
L 167.626573 15.582025 
L 173.92028 14.595618 
L 180.213986 13.909422 
L 186.507692 13.523436 
L 192.801399 13.437662 
L 199.095105 13.652098 
L 205.388811 14.166745 
L 211.682517 14.981603 
L 217.976224 16.096672 
L 224.26993 17.53478 
L 230.563636 19.292185 
L 233.71049 20.300286 
L 240.748071 22.871329 
L 246.297902 25.223014 
L 249.444755 26.689544 
L 255.738462 29.933705 
L 262.032168 33.621215 
L 265.179021 35.634333 
L 271.472727 40.078227 
L 274.61958 42.505274 
L 277.766434 45.084351 
L 281.144167 48.046154 
L 284.493597 51.193007 
L 287.626435 54.33986 
L 290.563033 57.486713 
L 293.500699 60.852976 
L 296.647552 64.736488 
L 300.609848 70.074126 
L 302.941259 73.488469 
L 306.682875 79.514685 
L 310.139992 85.808392 
L 313.176986 92.102098 
L 315.825423 98.395804 
L 318.099714 104.68951 
L 320.02496 110.983217 
L 321.628592 117.276923 
L 322.898388 123.570629 
L 323.863352 129.864336 
L 324.528105 136.158042 
L 324.892646 142.451748 
L 324.956977 148.745455 
L 324.721097 155.039161 
L 324.185006 161.332867 
L 323.348705 167.626573 
L 322.212192 173.92028 
L 320.74989 180.213986 
L 318.970517 186.507692 
L 317.947719 189.654545 
L 315.528671 196.251948 
L 312.974895 202.241958 
L 311.491183 205.388811 
L 308.216738 211.682517 
L 306.088112 215.38658 
L 302.463209 221.123077 
L 299.794406 224.966669 
L 295.53294 230.563636 
L 292.928453 233.71049 
L 290.155546 236.857343 
L 287.197337 240.004196 
L 284.03461 243.151049 
L 280.645396 246.297902 
L 277.004463 249.444755 
L 271.472727 253.816798 
L 268.325874 256.108356 
L 262.032168 260.273135 
L 258.885315 262.182018 
L 252.591608 265.637849 
L 246.297902 268.675159 
L 239.608419 271.472727 
L 233.71049 273.591464 
L 227.416783 275.521027 
L 221.123077 277.119081 
L 214.829371 278.395346 
L 208.535664 279.357033 
L 202.241958 280.019529 
L 195.948252 280.382832 
L 189.654545 280.446945 
L 183.360839 280.211866 
L 177.067133 279.677595 
L 170.773427 278.844133 
L 167.626573 278.315206 
L 167.626573 278.315206 
" clip-path="url(#pf13b8f5301)" style="fill: none; stroke: #ffffff; stroke-width: 1.5"/>
   </g>
   <g id="PathCollection_9">
    <path d="M 167.626573 278.315206 
L 161.332867 277.015098 
L 155.039161 275.395153 
L 148.745455 273.440011 
L 142.451748 271.143167 
L 135.838204 268.325874 
L 129.430783 265.179021 
L 123.570629 261.918222 
L 117.276923 257.954168 
L 114.051943 255.738462 
L 109.821775 252.591608 
L 104.68951 248.4195 
L 101.542657 245.644762 
L 98.395804 242.685481 
L 95.248951 239.522614 
L 92.102098 236.134401 
L 87.373565 230.563636 
L 84.919658 227.416783 
L 82.605688 224.26993 
L 78.407278 217.976224 
L 76.367832 214.634311 
L 72.992408 208.535664 
L 69.926193 202.241958 
L 67.256833 195.948252 
L 66.065033 192.801399 
L 63.78042 185.99962 
L 62.156565 180.213986 
L 60.633566 173.63384 
L 59.555867 167.626573 
L 58.722405 161.332867 
L 58.188134 155.039161 
L 57.953055 148.745455 
L 58.017168 142.451748 
L 58.380471 136.158042 
L 59.042967 129.864336 
L 60.004654 123.570629 
L 61.280919 117.276923 
L 62.878973 110.983217 
L 64.808536 104.68951 
L 67.078493 98.395804 
L 70.074126 91.340907 
L 72.762151 85.808392 
L 74.441435 82.661538 
L 76.367832 79.261356 
L 80.144605 73.220979 
L 82.661538 69.553729 
L 87.013342 63.78042 
L 89.595028 60.633566 
L 92.342892 57.486713 
L 95.273511 54.33986 
L 98.405745 51.193007 
L 101.761141 48.046154 
L 105.364429 44.899301 
L 110.983217 40.4161 
L 114.13007 38.105481 
L 120.423776 33.902743 
L 123.570629 31.978856 
L 129.864336 28.491133 
L 136.158042 25.425105 
L 142.451748 22.74909 
L 148.745455 20.452281 
L 155.039161 18.501353 
L 161.332867 16.875754 
L 167.626573 15.582025 
L 173.92028 14.595618 
L 180.213986 13.909422 
L 186.507692 13.523436 
L 192.801399 13.437662 
L 199.095105 13.652098 
L 205.388811 14.166745 
L 211.682517 14.981603 
L 217.976224 16.096672 
L 224.26993 17.53478 
L 230.563636 19.292185 
L 233.71049 20.300286 
L 240.748071 22.871329 
L 246.297902 25.223014 
L 249.444755 26.689544 
L 255.738462 29.933705 
L 262.032168 33.621215 
L 265.179021 35.634333 
L 271.472727 40.078227 
L 274.61958 42.505274 
L 277.766434 45.084351 
L 281.144167 48.046154 
L 284.493597 51.193007 
L 287.626435 54.33986 
L 290.563033 57.486713 
L 293.500699 60.852976 
L 296.647552 64.736488 
L 300.609848 70.074126 
L 302.941259 73.488469 
L 306.682875 79.514685 
L 310.139992 85.808392 
L 313.176986 92.102098 
L 315.825423 98.395804 
L 318.099714 104.68951 
L 320.02496 110.983217 
L 321.628592 117.276923 
L 322.898388 123.570629 
L 323.863352 129.864336 
L 324.528105 136.158042 
L 324.892646 142.451748 
L 324.956977 148.745455 
L 324.721097 155.039161 
L 324.185006 161.332867 
L 323.348705 167.626573 
L 322.212192 173.92028 
L 320.74989 180.213986 
L 318.970517 186.507692 
L 317.947719 189.654545 
L 315.528671 196.251948 
L 312.974895 202.241958 
L 311.491183 205.388811 
L 308.216738 211.682517 
L 306.088112 215.38658 
L 302.463209 221.123077 
L 299.794406 224.966669 
L 295.53294 230.563636 
L 292.928453 233.71049 
L 290.155546 236.857343 
L 287.197337 240.004196 
L 284.03461 243.151049 
L 280.645396 246.297902 
L 277.004463 249.444755 
L 271.472727 253.816798 
L 268.325874 256.108356 
L 262.032168 260.273135 
L 258.885315 262.182018 
L 252.591608 265.637849 
L 246.297902 268.675159 
L 239.608419 271.472727 
L 233.71049 273.591464 
L 227.416783 275.521027 
L 221.123077 277.119081 
L 214.829371 278.395346 
L 208.535664 279.357033 
L 202.241958 280.019529 
L 195.948252 280.382832 
L 189.654545 280.446945 
L 183.360839 280.211866 
L 177.067133 279.677595 
L 170.773427 278.844133 
L 167.626573 278.315206 
L 167.626573 278.315206 
" clip-path="url(#pf13b8f5301)" style="fill: none; stroke-dasharray: 5.55,2.4; stroke-dashoffset: 0; stroke: #ff0000; stroke-width: 1.5"/>
   </g>
   <g id="line2d_1">
    <path d="M 191.452747 146.947253 
L 285.863158 52.536842 
" clip-path="url(#pf13b8f5301)" style="fill: none; stroke: #000000; stroke-linecap: square"/>
   </g>
   <g id="patch_3">
    <path d="M 102.441758 331.2 
L 102.441758 7.2 
" style="fill: none; stroke: #000000; stroke-width: 0.8; stroke-linejoin: miter; stroke-linecap: square"/>
   </g>
   <g id="patch_4">
    <path d="M 7.2 235.958242 
L 331.2 235.958242 
" style="fill: none; stroke: #000000; stroke-width: 0.8; stroke-linejoin: miter; stroke-linecap: square"/>
   </g>
   <g id="text_1">
    <!-- $r$ -->
    <g transform="translate(226.536854 94.704073) scale(0.14 -0.14)">
     <defs>
      <path id="Cmmi10-72" d="M 494 109 
Q 494 147 500 166 
L 978 2075 
Q 1025 2253 1025 2388 
Q 1025 2663 838 2663 
Q 638 2663 541 2423 
Q 444 2184 353 1819 
Q 353 1800 334 1789 
Q 316 1778 300 1778 
L 225 1778 
Q 203 1778 187 1801 
Q 172 1825 172 1844 
Q 241 2122 305 2315 
Q 369 2509 505 2668 
Q 641 2828 844 2828 
Q 1066 2828 1233 2700 
Q 1400 2572 1441 2363 
Q 1603 2575 1811 2701 
Q 2019 2828 2266 2828 
Q 2469 2828 2623 2709 
Q 2778 2591 2778 2388 
Q 2778 2225 2676 2104 
Q 2575 1984 2406 1984 
Q 2303 1984 2233 2048 
Q 2163 2113 2163 2216 
Q 2163 2356 2266 2467 
Q 2369 2578 2503 2578 
Q 2400 2663 2253 2663 
Q 1978 2663 1775 2467 
Q 1572 2272 1409 1972 
L 953 141 
Q 931 53 854 -9 
Q 778 -72 684 -72 
Q 606 -72 550 -22 
Q 494 28 494 109 
z
" transform="scale(0.015625)"/>
     </defs>
     <use xlink:href="#Cmmi10-72" transform="translate(0 0.8125)"/>
    </g>
   </g>
   <g id="text_2">
    <!-- $B_{r}(z_0)$ -->
    <g transform="translate(127.347253 61.436264) scale(0.14 -0.14)">
     <defs>
      <path id="Cmmi10-42" d="M 319 0 
Q 256 0 256 84 
Q 259 100 268 137 
Q 278 175 293 200 
Q 309 225 341 225 
Q 522 225 656 234 
Q 791 244 884 269 
Q 959 297 1006 441 
L 1881 3956 
Q 1894 4019 1894 4044 
Q 1894 4113 1819 4122 
Q 1697 4147 1356 4147 
Q 1294 4147 1294 4231 
Q 1297 4247 1306 4286 
Q 1316 4325 1333 4348 
Q 1350 4372 1375 4372 
L 3669 4372 
Q 3878 4372 4083 4320 
Q 4288 4269 4461 4156 
Q 4634 4044 4736 3876 
Q 4838 3709 4838 3488 
Q 4838 3247 4714 3040 
Q 4591 2834 4395 2681 
Q 4200 2528 3973 2429 
Q 3747 2331 3500 2284 
Q 3675 2284 3854 2215 
Q 4034 2147 4175 2028 
Q 4316 1909 4402 1743 
Q 4488 1578 4488 1388 
Q 4488 1003 4219 684 
Q 3950 366 3542 183 
Q 3134 0 2753 0 
L 319 0 
z
M 1497 275 
Q 1497 225 1716 225 
L 2631 225 
Q 2944 225 3231 398 
Q 3519 572 3692 859 
Q 3866 1147 3866 1459 
Q 3866 1650 3786 1820 
Q 3706 1991 3556 2089 
Q 3406 2188 3213 2188 
L 1966 2188 
L 1522 416 
Q 1497 328 1497 275 
z
M 2009 2356 
L 2981 2356 
Q 3288 2356 3577 2512 
Q 3866 2669 4048 2937 
Q 4231 3206 4231 3506 
Q 4231 3784 4057 3965 
Q 3884 4147 3609 4147 
L 2731 4147 
Q 2559 4147 2500 4115 
Q 2441 4084 2400 3928 
L 2009 2356 
z
" transform="scale(0.015625)"/>
      <path id="Cmr10-28" d="M 1984 -1588 
Q 1628 -1306 1370 -942 
Q 1113 -578 948 -165 
Q 784 247 703 697 
Q 622 1147 622 1600 
Q 622 2059 703 2509 
Q 784 2959 951 3375 
Q 1119 3791 1378 4153 
Q 1638 4516 1984 4788 
Q 1984 4800 2016 4800 
L 2075 4800 
Q 2094 4800 2109 4783 
Q 2125 4766 2125 4744 
Q 2125 4716 2113 4703 
Q 1800 4397 1592 4047 
Q 1384 3697 1257 3301 
Q 1131 2906 1075 2482 
Q 1019 2059 1019 1600 
Q 1019 -434 2106 -1491 
Q 2125 -1509 2125 -1544 
Q 2125 -1559 2108 -1579 
Q 2091 -1600 2075 -1600 
L 2016 -1600 
Q 1984 -1600 1984 -1588 
z
" transform="scale(0.015625)"/>
      <path id="Cmmi10-7a" d="M 313 -72 
Q 263 -72 263 -13 
Q 263 19 275 31 
Q 447 328 689 598 
Q 931 869 1239 1145 
Q 1547 1422 1858 1700 
Q 2169 1978 2363 2194 
L 2338 2194 
Q 2197 2194 1925 2284 
Q 1653 2375 1497 2375 
Q 1328 2375 1168 2301 
Q 1009 2228 966 2075 
Q 956 2028 916 2028 
L 838 2028 
Q 788 2028 788 2094 
L 788 2113 
Q 838 2300 952 2462 
Q 1066 2625 1233 2726 
Q 1400 2828 1581 2828 
Q 1709 2828 1793 2770 
Q 1878 2713 1990 2591 
Q 2103 2469 2173 2416 
Q 2244 2363 2350 2363 
Q 2491 2363 2602 2491 
Q 2713 2619 2822 2809 
Q 2841 2828 2869 2828 
L 2944 2828 
Q 2966 2828 2980 2812 
Q 2994 2797 2994 2772 
Q 2994 2750 2981 2731 
Q 2809 2434 2579 2176 
Q 2350 1919 1979 1586 
Q 1609 1253 1354 1023 
Q 1100 794 878 550 
Q 928 563 1013 563 
Q 1169 563 1439 473 
Q 1709 384 1856 384 
Q 2016 384 2178 453 
Q 2341 522 2459 647 
Q 2578 772 2619 934 
Q 2634 978 2669 978 
L 2747 978 
Q 2772 978 2787 958 
Q 2803 938 2803 916 
Q 2803 909 2797 897 
Q 2738 653 2591 433 
Q 2444 213 2230 70 
Q 2016 -72 1772 -72 
Q 1650 -72 1565 -15 
Q 1481 41 1367 164 
Q 1253 288 1181 342 
Q 1109 397 1006 397 
Q 688 397 434 -50 
Q 413 -72 391 -72 
L 313 -72 
z
" transform="scale(0.015625)"/>
      <path id="Cmr10-30" d="M 1600 -141 
Q 816 -141 533 504 
Q 250 1150 250 2041 
Q 250 2597 351 3087 
Q 453 3578 754 3920 
Q 1056 4263 1600 4263 
Q 2022 4263 2290 4056 
Q 2559 3850 2700 3523 
Q 2841 3197 2892 2823 
Q 2944 2450 2944 2041 
Q 2944 1491 2842 1011 
Q 2741 531 2444 195 
Q 2147 -141 1600 -141 
z
M 1600 25 
Q 1956 25 2131 390 
Q 2306 756 2347 1200 
Q 2388 1644 2388 2144 
Q 2388 2625 2347 3031 
Q 2306 3438 2132 3767 
Q 1959 4097 1600 4097 
Q 1238 4097 1063 3765 
Q 888 3434 847 3029 
Q 806 2625 806 2144 
Q 806 1788 823 1472 
Q 841 1156 916 820 
Q 991 484 1158 254 
Q 1325 25 1600 25 
z
" transform="scale(0.015625)"/>
      <path id="Cmr10-29" d="M 416 -1600 
Q 359 -1600 359 -1544 
Q 359 -1516 372 -1503 
Q 1466 -434 1466 1600 
Q 1466 3634 384 4691 
Q 359 4706 359 4744 
Q 359 4766 376 4783 
Q 394 4800 416 4800 
L 475 4800 
Q 494 4800 506 4788 
Q 966 4425 1272 3906 
Q 1578 3388 1720 2800 
Q 1863 2213 1863 1600 
Q 1863 1147 1786 708 
Q 1709 269 1542 -157 
Q 1375 -584 1119 -945 
Q 863 -1306 506 -1588 
Q 494 -1600 475 -1600 
L 416 -1600 
z
" transform="scale(0.015625)"/>
     </defs>
     <use xlink:href="#Cmmi10-42"/>
     <use xlink:href="#Cmmi10-72" transform="translate(75.78125 -17.00625) scale(0.7)"/>
     <use xlink:href="#Cmr10-28" transform="translate(113.740625 0)"/>
     <use xlink:href="#Cmmi10-7a" transform="translate(152.558984 0)"/>
     <use xlink:href="#Cmr10-30" transform="translate(199.043359 -17.00625) scale(0.7)"/>
     <use xlink:href="#Cmr10-29" transform="translate(240.420703 0)"/>
    </g>
   </g>
   <g id="text_3">
    <!-- $z_0$ -->
    <g transform="translate(185.292747 133.00818) scale(0.14 -0.14)">
     <use xlink:href="#Cmmi10-7a" transform="translate(0 0.8125)"/>
     <use xlink:href="#Cmr10-30" transform="translate(46.484375 -16.19375) scale(0.7)"/>
    </g>
   </g>
  </g>
 </g>
 <defs>
  <clipPath id="pf13b8f5301">
   <rect x="7.2" y="7.2" width="324" height="324"/>
  </clipPath>
 </defs>
</svg>
