<?xml version="1.0" encoding="utf-8" standalone="no"?>
<!DOCTYPE svg PUBLIC "-//W3C//DTD SVG 1.1//EN"
  "http://www.w3.org/Graphics/SVG/1.1/DTD/svg11.dtd">
<svg xmlns:xlink="http://www.w3.org/1999/xlink" width="243.816972pt" height="338.4pt" viewBox="0 0 243.816972 338.4" xmlns="http://www.w3.org/2000/svg" version="1.1">
 <metadata>
  <rdf:RDF xmlns:dc="http://purl.org/dc/elements/1.1/" xmlns:cc="http://creativecommons.org/ns#" xmlns:rdf="http://www.w3.org/1999/02/22-rdf-syntax-ns#">
   <cc:Work>
    <dc:type rdf:resource="http://purl.org/dc/dcmitype/StillImage"/>
    <dc:date>2025-02-28T13:06:02.770918</dc:date>
    <dc:format>image/svg+xml</dc:format>
    <dc:creator>
     <cc:Agent>
      <dc:title>Matplotlib v3.6.2, https://matplotlib.org/</dc:title>
     </cc:Agent>
    </dc:creator>
   </cc:Work>
  </rdf:RDF>
 </metadata>
 <defs>
  <style type="text/css">*{stroke-linejoin: round; stroke-linecap: butt}</style>
 </defs>
 <g id="figure_1">
  <g id="patch_1">
   <path d="M 0 338.4 
L 243.816972 338.4 
L 243.816972 0 
L 0 0 
z
" style="fill: #ffffff"/>
  </g>
  <g id="axes_1">
   <g id="patch_2">
    <path d="M 7.2 331.2 
L 236.616972 331.2 
L 236.616972 7.2 
L 7.2 7.2 
z
" style="fill: #ffffff"/>
   </g>
   <g id="PathCollection_1">
    <path d="M 87.082134 151.018453 
L 87.933899 151.326558 
L 88.040459 150.992895 
L 88.725759 150.034659 
L 88.785664 149.981939 
L 89.324266 149.076424 
L 89.637429 148.675743 
L 89.948965 148.118188 
L 90.489193 147.32401 
L 90.579545 147.159953 
L 91.193423 146.201717 
L 91.340958 145.992336 
L 91.805266 145.243481 
L 92.192723 144.664391 
L 92.424525 144.285246 
L 93.044488 143.3318 
L 93.047413 143.32701 
L 93.657146 142.368775 
L 93.896253 142.004732 
L 94.272349 141.410539 
L 94.748018 140.677006 
L 94.890712 140.452304 
L 95.507022 139.494068 
L 95.599783 139.349734 
L 96.120836 138.535833 
L 96.451548 138.019614 
L 96.737079 137.577597 
L 97.303313 136.696838 
L 97.354119 136.619362 
L 97.968979 135.661126 
L 98.155078 135.364623 
L 98.584761 134.702891 
L 99.006843 134.036911 
L 99.200738 133.744655 
L 99.815764 132.786419 
L 99.858608 132.715927 
L 100.43266 131.828184 
L 100.710373 131.378285 
L 101.049175 130.869948 
L 101.562137 130.057505 
L 101.663263 129.911713 
L 102.279481 128.953477 
L 102.413902 128.724844 
L 102.898884 127.995242 
L 103.265667 127.389996 
L 103.514951 127.037006 
L 104.117432 126.08574 
L 104.1228 126.078771 
L 104.749621 125.120535 
L 104.969197 124.717911 
L 105.375013 124.1623 
L 105.820962 123.39142 
L 105.98995 123.204064 
L 106.601964 122.245829 
L 106.672727 121.9817 
L 107.391978 121.287593 
L 106.672727 120.667986 
L 106.456353 120.329357 
L 105.820962 120.058581 
L 104.969197 119.52844 
L 104.767208 119.371122 
L 104.117432 119.054047 
L 103.265667 118.579271 
L 102.998372 118.412886 
L 102.413902 118.139945 
L 101.562137 117.712542 
L 101.072205 117.454651 
L 100.710373 117.299722 
L 99.858608 116.915602 
L 99.006843 116.529269 
L 98.936744 116.496415 
L 98.155078 116.181709 
L 97.303313 115.839717 
L 96.54398 115.53818 
L 96.451548 115.505765 
L 95.599783 115.203826 
L 94.748018 114.908493 
L 93.896253 114.621384 
L 93.771431 114.579944 
L 93.044488 114.360878 
L 92.192723 114.112342 
L 91.340958 113.873675 
L 90.489193 113.645675 
L 90.39613 113.621709 
L 89.637429 113.44101 
L 88.785664 113.248565 
L 87.933899 113.067336 
L 87.082134 112.897756 
L 86.230369 112.740184 
L 85.781873 112.663473 
L 85.378604 112.59869 
L 84.526839 112.473185 
L 83.675074 112.359648 
L 82.823309 112.258282 
L 81.971544 112.169258 
L 81.119779 112.092714 
L 80.268014 112.028765 
L 79.416249 111.977503 
L 78.564485 111.938999 
L 77.71272 111.913307 
L 76.860955 111.900462 
L 76.00919 111.900484 
L 75.157425 111.913378 
L 74.30566 111.93913 
L 73.453895 111.977708 
L 72.60213 112.02906 
L 71.750365 112.093113 
L 70.8986 112.169762 
L 70.046835 112.258871 
L 69.19507 112.360265 
L 68.343305 112.473716 
L 67.491541 112.598935 
L 67.083164 112.663473 
L 66.639776 112.740533 
L 65.788011 112.898775 
L 64.936246 113.068897 
L 64.084481 113.250333 
L 63.232716 113.442334 
L 62.471021 113.621709 
L 62.380951 113.645941 
L 61.529186 113.876161 
L 60.677421 114.116143 
L 59.825656 114.36408 
L 59.09222 114.579944 
L 58.973891 114.622398 
L 58.122126 114.915289 
L 57.270361 115.21239 
L 56.418597 115.507334 
L 56.313164 115.53818 
L 55.566832 115.856707 
L 54.715067 116.206359 
L 53.913113 116.496415 
L 53.863302 116.539316 
L 53.011537 117.132871 
L 52.507388 117.454651 
L 53.011537 117.784377 
L 53.164218 118.412886 
L 53.608294 119.371122 
L 53.863302 119.81077 
L 54.057454 120.329357 
L 54.498338 121.287593 
L 54.715067 121.700825 
L 54.939513 122.245829 
L 55.380084 123.204064 
L 55.566832 123.574768 
L 55.819254 124.1623 
L 56.259538 125.120535 
L 56.418597 125.443575 
L 56.698144 126.078771 
L 57.138007 127.037006 
L 57.270361 127.310081 
L 57.576642 127.995242 
L 58.015937 128.953477 
L 58.122126 129.175328 
L 58.454945 129.911713 
L 58.893513 130.869948 
L 58.973891 131.039763 
L 59.333153 131.828184 
L 59.770816 132.786419 
L 59.825656 132.903572 
L 60.211336 133.744655 
L 60.647872 134.702891 
L 60.677421 134.76678 
L 61.089549 135.661126 
L 61.524669 136.619362 
L 61.529186 136.629268 
L 61.967856 137.577597 
L 62.380951 138.490203 
L 62.40221 138.535833 
L 62.846345 139.494068 
L 63.232716 140.352173 
L 63.280258 140.452304 
L 63.72517 141.410539 
L 64.084481 142.21594 
L 64.1588 142.368775 
L 64.604641 143.32701 
L 64.936246 144.082645 
L 65.038243 144.285246 
L 65.485548 145.243481 
L 65.788011 145.955643 
L 65.919882 146.201717 
L 66.370673 147.159953 
L 66.639776 147.849099 
L 66.810759 148.118188 
L 67.282339 149.076424 
L 67.491541 149.988332 
L 68.343305 149.812098 
L 69.19507 149.437897 
L 70.046835 149.112277 
L 70.13649 149.076424 
L 70.8986 148.86352 
L 71.750365 148.648055 
L 72.60213 148.469099 
L 73.453895 148.328128 
L 74.30566 148.224273 
L 75.157425 148.156104 
L 76.00919 148.122383 
L 76.860955 148.122378 
L 77.71272 148.155978 
L 78.564485 148.223681 
L 79.416249 148.326502 
L 80.268014 148.465757 
L 81.119779 148.642666 
L 81.971544 148.857657 
L 82.721037 149.076424 
L 82.823309 149.10986 
L 83.675074 149.407047 
L 84.526839 149.74398 
L 85.238367 150.034659 
L 85.378604 150.117987 
L 86.230369 150.579691 
L 87.070762 150.992895 
z
" clip-path="url(#p523ae5c344)" style="fill: #add8e6"/>
   </g>
   <g id="PathCollection_2">
    <path d="M 87.082134 151.018453 
L 87.933899 151.326558 
L 88.040459 150.992895 
L 88.725759 150.034659 
L 88.785664 149.981939 
L 89.324266 149.076424 
L 89.637429 148.675743 
L 89.948965 148.118188 
L 90.489193 147.32401 
L 90.579545 147.159953 
L 91.193423 146.201717 
L 91.340958 145.992336 
L 91.805266 145.243481 
L 92.192723 144.664391 
L 92.424525 144.285246 
L 93.044488 143.3318 
L 93.047413 143.32701 
L 93.657146 142.368775 
L 93.896253 142.004732 
L 94.272349 141.410539 
L 94.748018 140.677006 
L 94.890712 140.452304 
L 95.507022 139.494068 
L 95.599783 139.349734 
L 96.120836 138.535833 
L 96.451548 138.019614 
L 96.737079 137.577597 
L 97.303313 136.696838 
L 97.354119 136.619362 
L 97.968979 135.661126 
L 98.155078 135.364623 
L 98.584761 134.702891 
L 99.006843 134.036911 
L 99.200738 133.744655 
L 99.815764 132.786419 
L 99.858608 132.715927 
L 100.43266 131.828184 
L 100.710373 131.378285 
L 101.049175 130.869948 
L 101.562137 130.057505 
L 101.663263 129.911713 
L 102.279481 128.953477 
L 102.413902 128.724844 
L 102.898884 127.995242 
L 103.265667 127.389996 
L 103.514951 127.037006 
L 104.117432 126.08574 
L 104.1228 126.078771 
L 104.749621 125.120535 
L 104.969197 124.717911 
L 105.375013 124.1623 
L 105.820962 123.39142 
L 105.98995 123.204064 
L 106.601964 122.245829 
L 106.672727 121.9817 
L 107.391978 121.287593 
L 106.672727 120.667986 
L 106.456353 120.329357 
L 105.820962 120.058581 
L 104.969197 119.52844 
L 104.767208 119.371122 
L 104.117432 119.054047 
L 103.265667 118.579271 
L 102.998372 118.412886 
L 102.413902 118.139945 
L 101.562137 117.712542 
L 101.072205 117.454651 
L 100.710373 117.299722 
L 99.858608 116.915602 
L 99.006843 116.529269 
L 98.936744 116.496415 
L 98.155078 116.181709 
L 97.303313 115.839717 
L 96.54398 115.53818 
L 96.451548 115.505765 
L 95.599783 115.203826 
L 94.748018 114.908493 
L 93.896253 114.621384 
L 93.771431 114.579944 
L 93.044488 114.360878 
L 92.192723 114.112342 
L 91.340958 113.873675 
L 90.489193 113.645675 
L 90.39613 113.621709 
L 89.637429 113.44101 
L 88.785664 113.248565 
L 87.933899 113.067336 
L 87.082134 112.897756 
L 86.230369 112.740184 
L 85.781873 112.663473 
L 85.378604 112.59869 
L 84.526839 112.473185 
L 83.675074 112.359648 
L 82.823309 112.258282 
L 81.971544 112.169258 
L 81.119779 112.092714 
L 80.268014 112.028765 
L 79.416249 111.977503 
L 78.564485 111.938999 
L 77.71272 111.913307 
L 76.860955 111.900462 
L 76.00919 111.900484 
L 75.157425 111.913378 
L 74.30566 111.93913 
L 73.453895 111.977708 
L 72.60213 112.02906 
L 71.750365 112.093113 
L 70.8986 112.169762 
L 70.046835 112.258871 
L 69.19507 112.360265 
L 68.343305 112.473716 
L 67.491541 112.598935 
L 67.083164 112.663473 
L 66.639776 112.740533 
L 65.788011 112.898775 
L 64.936246 113.068897 
L 64.084481 113.250333 
L 63.232716 113.442334 
L 62.471021 113.621709 
L 62.380951 113.645941 
L 61.529186 113.876161 
L 60.677421 114.116143 
L 59.825656 114.36408 
L 59.09222 114.579944 
L 58.973891 114.622398 
L 58.122126 114.915289 
L 57.270361 115.21239 
L 56.418597 115.507334 
L 56.313164 115.53818 
L 55.566832 115.856707 
L 54.715067 116.206359 
L 53.913113 116.496415 
L 53.863302 116.539316 
L 53.011537 117.132871 
L 52.507388 117.454651 
L 53.011537 117.784377 
L 53.164218 118.412886 
L 53.608294 119.371122 
L 53.863302 119.81077 
L 54.057454 120.329357 
L 54.498338 121.287593 
L 54.715067 121.700825 
L 54.939513 122.245829 
L 55.380084 123.204064 
L 55.566832 123.574768 
L 55.819254 124.1623 
L 56.259538 125.120535 
L 56.418597 125.443575 
L 56.698144 126.078771 
L 57.138007 127.037006 
L 57.270361 127.310081 
L 57.576642 127.995242 
L 58.015937 128.953477 
L 58.122126 129.175328 
L 58.454945 129.911713 
L 58.893513 130.869948 
L 58.973891 131.039763 
L 59.333153 131.828184 
L 59.770816 132.786419 
L 59.825656 132.903572 
L 60.211336 133.744655 
L 60.647872 134.702891 
L 60.677421 134.76678 
L 61.089549 135.661126 
L 61.524669 136.619362 
L 61.529186 136.629268 
L 61.967856 137.577597 
L 62.380951 138.490203 
L 62.40221 138.535833 
L 62.846345 139.494068 
L 63.232716 140.352173 
L 63.280258 140.452304 
L 63.72517 141.410539 
L 64.084481 142.21594 
L 64.1588 142.368775 
L 64.604641 143.32701 
L 64.936246 144.082645 
L 65.038243 144.285246 
L 65.485548 145.243481 
L 65.788011 145.955643 
L 65.919882 146.201717 
L 66.370673 147.159953 
L 66.639776 147.849099 
L 66.810759 148.118188 
L 67.282339 149.076424 
L 67.491541 149.988332 
L 68.343305 149.812098 
L 69.19507 149.437897 
L 70.046835 149.112277 
L 70.13649 149.076424 
L 70.8986 148.86352 
L 71.750365 148.648055 
L 72.60213 148.469099 
L 73.453895 148.328128 
L 74.30566 148.224273 
L 75.157425 148.156104 
L 76.00919 148.122383 
L 76.860955 148.122378 
L 77.71272 148.155978 
L 78.564485 148.223681 
L 79.416249 148.326502 
L 80.268014 148.465757 
L 81.119779 148.642666 
L 81.971544 148.857657 
L 82.721037 149.076424 
L 82.823309 149.10986 
L 83.675074 149.407047 
L 84.526839 149.74398 
L 85.238367 150.034659 
L 85.378604 150.117987 
L 86.230369 150.579691 
L 87.070762 150.992895 
z
M 87.070762 150.992895 
L 86.230369 150.579691 
L 85.378604 150.117987 
L 85.238367 150.034659 
L 84.526839 149.74398 
L 83.675074 149.407047 
L 82.823309 149.10986 
L 82.721037 149.076424 
L 81.971544 148.857657 
L 81.119779 148.642666 
L 80.268014 148.465757 
L 79.416249 148.326502 
L 78.564485 148.223681 
L 77.71272 148.155978 
L 76.860955 148.122378 
L 76.00919 148.122383 
L 75.157425 148.156104 
L 74.30566 148.224273 
L 73.453895 148.328128 
L 72.60213 148.469099 
L 71.750365 148.648055 
L 70.8986 148.86352 
L 70.13649 149.076424 
L 70.046835 149.112277 
L 69.19507 149.437897 
L 68.343305 149.812098 
L 67.491541 149.988332 
L 67.282339 149.076424 
L 66.810759 148.118188 
L 66.639776 147.849099 
L 66.370673 147.159953 
L 65.919882 146.201717 
L 65.788011 145.955643 
L 65.485548 145.243481 
L 65.038243 144.285246 
L 64.936246 144.082645 
L 64.604641 143.32701 
L 64.1588 142.368775 
L 64.084481 142.21594 
L 63.72517 141.410539 
L 63.280258 140.452304 
L 63.232716 140.352173 
L 62.846345 139.494068 
L 62.40221 138.535833 
L 62.380951 138.490203 
L 61.967856 137.577597 
L 61.529186 136.629268 
L 61.524669 136.619362 
L 61.089549 135.661126 
L 60.677421 134.76678 
L 60.647872 134.702891 
L 60.211336 133.744655 
L 59.825656 132.903572 
L 59.770816 132.786419 
L 59.333153 131.828184 
L 58.973891 131.039763 
L 58.893513 130.869948 
L 58.454945 129.911713 
L 58.122126 129.175328 
L 58.015937 128.953477 
L 57.576642 127.995242 
L 57.270361 127.310081 
L 57.138007 127.037006 
L 56.698144 126.078771 
L 56.418597 125.443575 
L 56.259538 125.120535 
L 55.819254 124.1623 
L 55.566832 123.574768 
L 55.380084 123.204064 
L 54.939513 122.245829 
L 54.715067 121.700825 
L 54.498338 121.287593 
L 54.057454 120.329357 
L 53.863302 119.81077 
L 53.608294 119.371122 
L 53.164218 118.412886 
L 53.011537 117.784377 
L 52.507388 117.454651 
L 53.011537 117.132871 
L 53.863302 116.539316 
L 53.913113 116.496415 
L 54.715067 116.206359 
L 55.566832 115.856707 
L 56.313164 115.53818 
L 56.418597 115.507334 
L 57.270361 115.21239 
L 58.122126 114.915289 
L 58.973891 114.622398 
L 59.09222 114.579944 
L 59.825656 114.36408 
L 60.677421 114.116143 
L 61.529186 113.876161 
L 62.380951 113.645941 
L 62.471021 113.621709 
L 63.232716 113.442334 
L 64.084481 113.250333 
L 64.936246 113.068897 
L 65.788011 112.898775 
L 66.639776 112.740533 
L 67.083164 112.663473 
L 67.491541 112.598935 
L 68.343305 112.473716 
L 69.19507 112.360265 
L 70.046835 112.258871 
L 70.8986 112.169762 
L 71.750365 112.093113 
L 72.60213 112.02906 
L 73.453895 111.977708 
L 74.30566 111.93913 
L 75.157425 111.913378 
L 76.00919 111.900484 
L 76.860955 111.900462 
L 77.71272 111.913307 
L 78.564485 111.938999 
L 79.416249 111.977503 
L 80.268014 112.028765 
L 81.119779 112.092714 
L 81.971544 112.169258 
L 82.823309 112.258282 
L 83.675074 112.359648 
L 84.526839 112.473185 
L 85.378604 112.59869 
L 85.781873 112.663473 
L 86.230369 112.740184 
L 87.082134 112.897756 
L 87.933899 113.067336 
L 88.785664 113.248565 
L 89.637429 113.44101 
L 90.39613 113.621709 
L 90.489193 113.645675 
L 91.340958 113.873675 
L 92.192723 114.112342 
L 93.044488 114.360878 
L 93.771431 114.579944 
L 93.896253 114.621384 
L 94.748018 114.908493 
L 95.599783 115.203826 
L 96.451548 115.505765 
L 96.54398 115.53818 
L 97.303313 115.839717 
L 98.155078 116.181709 
L 98.936744 116.496415 
L 99.006843 116.529269 
L 99.858608 116.915602 
L 100.710373 117.299722 
L 101.072205 117.454651 
L 101.562137 117.712542 
L 102.413902 118.139945 
L 102.998372 118.412886 
L 103.265667 118.579271 
L 104.117432 119.054047 
L 104.767208 119.371122 
L 104.969197 119.52844 
L 105.820962 120.058581 
L 106.456353 120.329357 
L 106.672727 120.667986 
L 107.391978 121.287593 
L 106.672727 121.9817 
L 106.601964 122.245829 
L 105.98995 123.204064 
L 105.820962 123.39142 
L 105.375013 124.1623 
L 104.969197 124.717911 
L 104.749621 125.120535 
L 104.1228 126.078771 
L 104.117432 126.08574 
L 103.514951 127.037006 
L 103.265667 127.389996 
L 102.898884 127.995242 
L 102.413902 128.724844 
L 102.279481 128.953477 
L 101.663263 129.911713 
L 101.562137 130.057505 
L 101.049175 130.869948 
L 100.710373 131.378285 
L 100.43266 131.828184 
L 99.858608 132.715927 
L 99.815764 132.786419 
L 99.200738 133.744655 
L 99.006843 134.036911 
L 98.584761 134.702891 
L 98.155078 135.364623 
L 97.968979 135.661126 
L 97.354119 136.619362 
L 97.303313 136.696838 
L 96.737079 137.577597 
L 96.451548 138.019614 
L 96.120836 138.535833 
L 95.599783 139.349734 
L 95.507022 139.494068 
L 94.890712 140.452304 
L 94.748018 140.677006 
L 94.272349 141.410539 
L 93.896253 142.004732 
L 93.657146 142.368775 
L 93.047413 143.32701 
L 93.044488 143.3318 
L 92.424525 144.285246 
L 92.192723 144.664391 
L 91.805266 145.243481 
L 91.340958 145.992336 
L 91.193423 146.201717 
L 90.579545 147.159953 
L 90.489193 147.32401 
L 89.948965 148.118188 
L 89.637429 148.675743 
L 89.324266 149.076424 
L 88.785664 149.981939 
L 88.725759 150.034659 
L 88.040459 150.992895 
L 87.933899 151.326558 
L 87.082134 151.018453 
z
" clip-path="url(#p523ae5c344)" style="fill: #add8e6"/>
   </g>
   <g id="PathCollection_3">
    <path d="M 87.082134 151.018453 
L 87.933899 151.326558 
L 88.040459 150.992895 
L 88.725759 150.034659 
L 88.785664 149.981939 
L 89.324266 149.076424 
L 89.637429 148.675743 
L 89.948965 148.118188 
L 90.489193 147.32401 
L 90.579545 147.159953 
L 91.193423 146.201717 
L 91.340958 145.992336 
L 91.805266 145.243481 
L 92.192723 144.664391 
L 92.424525 144.285246 
L 93.044488 143.3318 
L 93.047413 143.32701 
L 93.657146 142.368775 
L 93.896253 142.004732 
L 94.272349 141.410539 
L 94.748018 140.677006 
L 94.890712 140.452304 
L 95.507022 139.494068 
L 95.599783 139.349734 
L 96.120836 138.535833 
L 96.451548 138.019614 
L 96.737079 137.577597 
L 97.303313 136.696838 
L 97.354119 136.619362 
L 97.968979 135.661126 
L 98.155078 135.364623 
L 98.584761 134.702891 
L 99.006843 134.036911 
L 99.200738 133.744655 
L 99.815764 132.786419 
L 99.858608 132.715927 
L 100.43266 131.828184 
L 100.710373 131.378285 
L 101.049175 130.869948 
L 101.562137 130.057505 
L 101.663263 129.911713 
L 102.279481 128.953477 
L 102.413902 128.724844 
L 102.898884 127.995242 
L 103.265667 127.389996 
L 103.514951 127.037006 
L 104.117432 126.08574 
L 104.1228 126.078771 
L 104.749621 125.120535 
L 104.969197 124.717911 
L 105.375013 124.1623 
L 105.820962 123.39142 
L 105.98995 123.204064 
L 106.601964 122.245829 
L 106.672727 121.9817 
L 107.391978 121.287593 
L 106.672727 120.667986 
L 106.456353 120.329357 
L 105.820962 120.058581 
L 104.969197 119.52844 
L 104.767208 119.371122 
L 104.117432 119.054047 
L 103.265667 118.579271 
L 102.998372 118.412886 
L 102.413902 118.139945 
L 101.562137 117.712542 
L 101.072205 117.454651 
L 100.710373 117.299722 
L 99.858608 116.915602 
L 99.006843 116.529269 
L 98.936744 116.496415 
L 98.155078 116.181709 
L 97.303313 115.839717 
L 96.54398 115.53818 
L 96.451548 115.505765 
L 95.599783 115.203826 
L 94.748018 114.908493 
L 93.896253 114.621384 
L 93.771431 114.579944 
L 93.044488 114.360878 
L 92.192723 114.112342 
L 91.340958 113.873675 
L 90.489193 113.645675 
L 90.39613 113.621709 
L 89.637429 113.44101 
L 88.785664 113.248565 
L 87.933899 113.067336 
L 87.082134 112.897756 
L 86.230369 112.740184 
L 85.781873 112.663473 
L 85.378604 112.59869 
L 84.526839 112.473185 
L 83.675074 112.359648 
L 82.823309 112.258282 
L 81.971544 112.169258 
L 81.119779 112.092714 
L 80.268014 112.028765 
L 79.416249 111.977503 
L 78.564485 111.938999 
L 77.71272 111.913307 
L 76.860955 111.900462 
L 76.00919 111.900484 
L 75.157425 111.913378 
L 74.30566 111.93913 
L 73.453895 111.977708 
L 72.60213 112.02906 
L 71.750365 112.093113 
L 70.8986 112.169762 
L 70.046835 112.258871 
L 69.19507 112.360265 
L 68.343305 112.473716 
L 67.491541 112.598935 
L 67.083164 112.663473 
L 66.639776 112.740533 
L 65.788011 112.898775 
L 64.936246 113.068897 
L 64.084481 113.250333 
L 63.232716 113.442334 
L 62.471021 113.621709 
L 62.380951 113.645941 
L 61.529186 113.876161 
L 60.677421 114.116143 
L 59.825656 114.36408 
L 59.09222 114.579944 
L 58.973891 114.622398 
L 58.122126 114.915289 
L 57.270361 115.21239 
L 56.418597 115.507334 
L 56.313164 115.53818 
L 55.566832 115.856707 
L 54.715067 116.206359 
L 53.913113 116.496415 
L 53.863302 116.539316 
L 53.011537 117.132871 
L 52.507388 117.454651 
L 53.011537 117.784377 
L 53.164218 118.412886 
L 53.608294 119.371122 
L 53.863302 119.81077 
L 54.057454 120.329357 
L 54.498338 121.287593 
L 54.715067 121.700825 
L 54.939513 122.245829 
L 55.380084 123.204064 
L 55.566832 123.574768 
L 55.819254 124.1623 
L 56.259538 125.120535 
L 56.418597 125.443575 
L 56.698144 126.078771 
L 57.138007 127.037006 
L 57.270361 127.310081 
L 57.576642 127.995242 
L 58.015937 128.953477 
L 58.122126 129.175328 
L 58.454945 129.911713 
L 58.893513 130.869948 
L 58.973891 131.039763 
L 59.333153 131.828184 
L 59.770816 132.786419 
L 59.825656 132.903572 
L 60.211336 133.744655 
L 60.647872 134.702891 
L 60.677421 134.76678 
L 61.089549 135.661126 
L 61.524669 136.619362 
L 61.529186 136.629268 
L 61.967856 137.577597 
L 62.380951 138.490203 
L 62.40221 138.535833 
L 62.846345 139.494068 
L 63.232716 140.352173 
L 63.280258 140.452304 
L 63.72517 141.410539 
L 64.084481 142.21594 
L 64.1588 142.368775 
L 64.604641 143.32701 
L 64.936246 144.082645 
L 65.038243 144.285246 
L 65.485548 145.243481 
L 65.788011 145.955643 
L 65.919882 146.201717 
L 66.370673 147.159953 
L 66.639776 147.849099 
L 66.810759 148.118188 
L 67.282339 149.076424 
L 67.491541 149.988332 
L 68.343305 149.812098 
L 69.19507 149.437897 
L 70.046835 149.112277 
L 70.13649 149.076424 
L 70.8986 148.86352 
L 71.750365 148.648055 
L 72.60213 148.469099 
L 73.453895 148.328128 
L 74.30566 148.224273 
L 75.157425 148.156104 
L 76.00919 148.122383 
L 76.860955 148.122378 
L 77.71272 148.155978 
L 78.564485 148.223681 
L 79.416249 148.326502 
L 80.268014 148.465757 
L 81.119779 148.642666 
L 81.971544 148.857657 
L 82.721037 149.076424 
L 82.823309 149.10986 
L 83.675074 149.407047 
L 84.526839 149.74398 
L 85.238367 150.034659 
L 85.378604 150.117987 
L 86.230369 150.579691 
L 87.070762 150.992895 
z
M 87.070762 150.992895 
L 86.230369 150.579691 
L 85.378604 150.117987 
L 85.238367 150.034659 
L 84.526839 149.74398 
L 83.675074 149.407047 
L 82.823309 149.10986 
L 82.721037 149.076424 
L 81.971544 148.857657 
L 81.119779 148.642666 
L 80.268014 148.465757 
L 79.416249 148.326502 
L 78.564485 148.223681 
L 77.71272 148.155978 
L 76.860955 148.122378 
L 76.00919 148.122383 
L 75.157425 148.156104 
L 74.30566 148.224273 
L 73.453895 148.328128 
L 72.60213 148.469099 
L 71.750365 148.648055 
L 70.8986 148.86352 
L 70.13649 149.076424 
L 70.046835 149.112277 
L 69.19507 149.437897 
L 68.343305 149.812098 
L 67.491541 149.988332 
L 67.282339 149.076424 
L 66.810759 148.118188 
L 66.639776 147.849099 
L 66.370673 147.159953 
L 65.919882 146.201717 
L 65.788011 145.955643 
L 65.485548 145.243481 
L 65.038243 144.285246 
L 64.936246 144.082645 
L 64.604641 143.32701 
L 64.1588 142.368775 
L 64.084481 142.21594 
L 63.72517 141.410539 
L 63.280258 140.452304 
L 63.232716 140.352173 
L 62.846345 139.494068 
L 62.40221 138.535833 
L 62.380951 138.490203 
L 61.967856 137.577597 
L 61.529186 136.629268 
L 61.524669 136.619362 
L 61.089549 135.661126 
L 60.677421 134.76678 
L 60.647872 134.702891 
L 60.211336 133.744655 
L 59.825656 132.903572 
L 59.770816 132.786419 
L 59.333153 131.828184 
L 58.973891 131.039763 
L 58.893513 130.869948 
L 58.454945 129.911713 
L 58.122126 129.175328 
L 58.015937 128.953477 
L 57.576642 127.995242 
L 57.270361 127.310081 
L 57.138007 127.037006 
L 56.698144 126.078771 
L 56.418597 125.443575 
L 56.259538 125.120535 
L 55.819254 124.1623 
L 55.566832 123.574768 
L 55.380084 123.204064 
L 54.939513 122.245829 
L 54.715067 121.700825 
L 54.498338 121.287593 
L 54.057454 120.329357 
L 53.863302 119.81077 
L 53.608294 119.371122 
L 53.164218 118.412886 
L 53.011537 117.784377 
L 52.507388 117.454651 
L 53.011537 117.132871 
L 53.863302 116.539316 
L 53.913113 116.496415 
L 54.715067 116.206359 
L 55.566832 115.856707 
L 56.313164 115.53818 
L 56.418597 115.507334 
L 57.270361 115.21239 
L 58.122126 114.915289 
L 58.973891 114.622398 
L 59.09222 114.579944 
L 59.825656 114.36408 
L 60.677421 114.116143 
L 61.529186 113.876161 
L 62.380951 113.645941 
L 62.471021 113.621709 
L 63.232716 113.442334 
L 64.084481 113.250333 
L 64.936246 113.068897 
L 65.788011 112.898775 
L 66.639776 112.740533 
L 67.083164 112.663473 
L 67.491541 112.598935 
L 68.343305 112.473716 
L 69.19507 112.360265 
L 70.046835 112.258871 
L 70.8986 112.169762 
L 71.750365 112.093113 
L 72.60213 112.02906 
L 73.453895 111.977708 
L 74.30566 111.93913 
L 75.157425 111.913378 
L 76.00919 111.900484 
L 76.860955 111.900462 
L 77.71272 111.913307 
L 78.564485 111.938999 
L 79.416249 111.977503 
L 80.268014 112.028765 
L 81.119779 112.092714 
L 81.971544 112.169258 
L 82.823309 112.258282 
L 83.675074 112.359648 
L 84.526839 112.473185 
L 85.378604 112.59869 
L 85.781873 112.663473 
L 86.230369 112.740184 
L 87.082134 112.897756 
L 87.933899 113.067336 
L 88.785664 113.248565 
L 89.637429 113.44101 
L 90.39613 113.621709 
L 90.489193 113.645675 
L 91.340958 113.873675 
L 92.192723 114.112342 
L 93.044488 114.360878 
L 93.771431 114.579944 
L 93.896253 114.621384 
L 94.748018 114.908493 
L 95.599783 115.203826 
L 96.451548 115.505765 
L 96.54398 115.53818 
L 97.303313 115.839717 
L 98.155078 116.181709 
L 98.936744 116.496415 
L 99.006843 116.529269 
L 99.858608 116.915602 
L 100.710373 117.299722 
L 101.072205 117.454651 
L 101.562137 117.712542 
L 102.413902 118.139945 
L 102.998372 118.412886 
L 103.265667 118.579271 
L 104.117432 119.054047 
L 104.767208 119.371122 
L 104.969197 119.52844 
L 105.820962 120.058581 
L 106.456353 120.329357 
L 106.672727 120.667986 
L 107.391978 121.287593 
L 106.672727 121.9817 
L 106.601964 122.245829 
L 105.98995 123.204064 
L 105.820962 123.39142 
L 105.375013 124.1623 
L 104.969197 124.717911 
L 104.749621 125.120535 
L 104.1228 126.078771 
L 104.117432 126.08574 
L 103.514951 127.037006 
L 103.265667 127.389996 
L 102.898884 127.995242 
L 102.413902 128.724844 
L 102.279481 128.953477 
L 101.663263 129.911713 
L 101.562137 130.057505 
L 101.049175 130.869948 
L 100.710373 131.378285 
L 100.43266 131.828184 
L 99.858608 132.715927 
L 99.815764 132.786419 
L 99.200738 133.744655 
L 99.006843 134.036911 
L 98.584761 134.702891 
L 98.155078 135.364623 
L 97.968979 135.661126 
L 97.354119 136.619362 
L 97.303313 136.696838 
L 96.737079 137.577597 
L 96.451548 138.019614 
L 96.120836 138.535833 
L 95.599783 139.349734 
L 95.507022 139.494068 
L 94.890712 140.452304 
L 94.748018 140.677006 
L 94.272349 141.410539 
L 93.896253 142.004732 
L 93.657146 142.368775 
L 93.047413 143.32701 
L 93.044488 143.3318 
L 92.424525 144.285246 
L 92.192723 144.664391 
L 91.805266 145.243481 
L 91.340958 145.992336 
L 91.193423 146.201717 
L 90.579545 147.159953 
L 90.489193 147.32401 
L 89.948965 148.118188 
L 89.637429 148.675743 
L 89.324266 149.076424 
L 88.785664 149.981939 
L 88.725759 150.034659 
L 88.040459 150.992895 
L 87.933899 151.326558 
L 87.082134 151.018453 
z
" clip-path="url(#p523ae5c344)" style="fill: #ffffff"/>
   </g>
   <g id="PathCollection_4">
    <path d="M 35.124473 158.658779 
L 35.976238 158.658779 
L 36.828003 158.658779 
L 37.679768 158.658779 
L 38.531533 158.658779 
L 39.383298 158.658779 
L 40.235063 158.658779 
L 41.086828 158.658779 
L 41.938593 158.658779 
L 42.790358 158.658779 
L 43.642123 158.658779 
L 44.493888 158.658779 
L 45.345653 158.658779 
L 46.197417 158.658779 
L 47.049182 158.658779 
L 47.900947 158.658779 
L 48.752712 158.658779 
L 49.604477 158.658779 
L 50.456242 158.658779 
L 51.308007 158.658779 
L 52.159772 158.658779 
L 53.011537 158.658779 
L 53.863302 158.658779 
L 54.715067 158.658779 
L 55.566832 158.658779 
L 56.418597 158.658779 
L 57.270361 158.658779 
L 58.122126 158.658779 
L 58.973891 158.658779 
L 59.825656 158.658779 
L 60.677421 158.658779 
L 61.529186 158.658779 
L 62.380951 158.658779 
L 63.232716 158.658779 
L 64.084481 158.658779 
L 64.936246 158.658779 
L 65.788011 158.658779 
L 66.639776 158.658779 
L 67.491541 158.658779 
L 68.343305 158.658779 
L 69.19507 158.658779 
L 70.046835 158.658779 
L 70.8986 158.658779 
L 71.750365 158.658779 
L 72.60213 158.658779 
L 73.453895 158.658779 
L 74.30566 158.658779 
L 75.157425 158.658779 
L 76.00919 158.658779 
L 76.860955 158.658779 
L 77.71272 158.658779 
L 78.564485 158.658779 
L 79.416249 158.658779 
L 80.268014 158.658779 
L 81.119779 158.658779 
L 81.971544 158.658779 
L 82.823309 158.658779 
L 83.675074 158.658779 
L 84.526839 158.658779 
L 85.378604 158.658779 
L 86.230369 158.658779 
L 87.082134 158.658779 
L 87.933899 158.658779 
L 88.785664 158.658779 
L 89.637429 158.658779 
L 90.489193 158.658779 
L 91.340958 158.658779 
L 92.192723 158.658779 
L 93.044488 158.658779 
L 93.896253 158.658779 
L 94.748018 158.658779 
L 95.599783 158.658779 
L 96.451548 158.658779 
L 97.303313 158.658779 
L 98.155078 158.658779 
L 99.006843 158.658779 
L 99.858608 158.658779 
L 100.710373 158.658779 
L 101.562137 158.658779 
L 102.413902 158.658779 
L 103.265667 158.658779 
L 104.117432 158.658779 
L 104.969197 158.658779 
L 105.820962 158.658779 
L 106.672727 158.658779 
L 107.524492 158.658779 
L 108.376257 158.658779 
L 109.228022 158.658779 
L 110.079787 158.658779 
L 110.931552 158.658779 
L 111.783317 158.658779 
L 112.635081 158.658779 
L 113.486846 158.658779 
L 114.338611 158.658779 
L 115.190376 158.658779 
L 116.042141 158.658779 
L 116.893906 158.658779 
L 117.745671 158.658779 
L 118.597436 158.658779 
L 118.597436 157.700543 
L 118.597436 156.742308 
L 118.597436 155.784072 
L 118.597436 154.825837 
L 118.597436 153.867601 
L 118.597436 152.909366 
L 118.597436 151.95113 
L 118.597436 150.992895 
L 118.597436 150.034659 
L 118.597436 149.076424 
L 118.597436 148.118188 
L 118.597436 147.159953 
L 118.597436 146.201717 
L 118.597436 145.243481 
L 118.597436 144.285246 
L 118.597436 143.32701 
L 118.597436 142.368775 
L 118.597436 141.410539 
L 118.597436 140.452304 
L 118.597436 139.494068 
L 118.597436 138.535833 
L 118.597436 137.577597 
L 118.597436 136.619362 
L 118.597436 135.661126 
L 118.597436 134.702891 
L 118.597436 133.744655 
L 118.597436 132.786419 
L 118.597436 131.828184 
L 118.597436 130.869948 
L 118.597436 129.911713 
L 118.597436 128.953477 
L 118.597436 127.995242 
L 118.597436 127.037006 
L 118.597436 126.078771 
L 118.597436 125.120535 
L 118.597436 124.1623 
L 118.597436 123.204064 
L 118.597436 122.245829 
L 118.597436 121.287593 
L 118.597436 120.329357 
L 118.597436 119.371122 
L 118.597436 118.412886 
L 118.597436 117.454651 
L 118.597436 116.496415 
L 118.597436 115.53818 
L 118.597436 114.579944 
L 118.597436 113.621709 
L 118.597436 112.663473 
L 118.597436 111.705238 
L 118.597436 110.747002 
L 118.597436 109.788767 
L 118.597436 108.830531 
L 118.597436 107.872295 
L 118.597436 106.91406 
L 118.597436 105.955824 
L 118.597436 104.997589 
L 118.597436 104.039353 
L 118.597436 103.081118 
L 118.597436 102.122882 
L 118.597436 101.164647 
L 118.597436 100.206411 
L 118.597436 99.248176 
L 118.597436 98.28994 
L 118.597436 97.331705 
L 118.597436 96.373469 
L 118.597436 95.415234 
L 118.597436 94.456998 
L 118.597436 93.498762 
L 118.597436 92.540527 
L 118.597436 91.582291 
L 118.597436 90.624056 
L 118.597436 89.66582 
L 118.597436 88.707585 
L 118.597436 87.749349 
L 118.597436 86.791114 
L 118.597436 85.832878 
L 118.597436 84.874643 
L 118.597436 83.916407 
L 118.597436 82.958172 
L 118.597436 81.999936 
L 118.597436 81.0417 
L 118.597436 80.083465 
L 118.597436 79.125229 
L 118.597436 78.166994 
L 118.597436 77.208758 
L 118.597436 76.250523 
L 118.597436 75.292287 
L 118.597436 74.334052 
L 118.597436 73.375816 
L 118.597436 72.417581 
L 118.597436 71.459345 
L 118.597436 70.50111 
L 118.597436 69.542874 
L 118.597436 68.584638 
L 118.597436 67.626403 
L 118.597436 66.668167 
L 118.597436 65.709932 
L 118.597436 64.751696 
L 118.597436 63.793461 
L 117.745671 63.793461 
L 116.893906 63.793461 
L 116.042141 63.793461 
L 115.190376 63.793461 
L 114.338611 63.793461 
L 113.486846 63.793461 
L 112.635081 63.793461 
L 111.783317 63.793461 
L 110.931552 63.793461 
L 110.079787 63.793461 
L 109.228022 63.793461 
L 108.376257 63.793461 
L 107.524492 63.793461 
L 106.672727 63.793461 
L 105.820962 63.793461 
L 104.969197 63.793461 
L 104.117432 63.793461 
L 103.265667 63.793461 
L 102.413902 63.793461 
L 101.562137 63.793461 
L 100.710373 63.793461 
L 99.858608 63.793461 
L 99.006843 63.793461 
L 98.155078 63.793461 
L 97.303313 63.793461 
L 96.451548 63.793461 
L 95.599783 63.793461 
L 94.748018 63.793461 
L 93.896253 63.793461 
L 93.044488 63.793461 
L 92.192723 63.793461 
L 91.340958 63.793461 
L 90.489193 63.793461 
L 89.637429 63.793461 
L 88.785664 63.793461 
L 87.933899 63.793461 
L 87.082134 63.793461 
L 86.230369 63.793461 
L 85.378604 63.793461 
L 84.526839 63.793461 
L 83.675074 63.793461 
L 82.823309 63.793461 
L 81.971544 63.793461 
L 81.119779 63.793461 
L 80.268014 63.793461 
L 79.416249 63.793461 
L 78.564485 63.793461 
L 77.71272 63.793461 
L 76.860955 63.793461 
L 76.00919 63.793461 
L 75.157425 63.793461 
L 74.30566 63.793461 
L 73.453895 63.793461 
L 72.60213 63.793461 
L 71.750365 63.793461 
L 70.8986 63.793461 
L 70.046835 63.793461 
L 69.19507 63.793461 
L 68.343305 63.793461 
L 67.491541 63.793461 
L 66.639776 63.793461 
L 65.788011 63.793461 
L 64.936246 63.793461 
L 64.084481 63.793461 
L 63.232716 63.793461 
L 62.380951 63.793461 
L 61.529186 63.793461 
L 60.677421 63.793461 
L 59.825656 63.793461 
L 58.973891 63.793461 
L 58.122126 63.793461 
L 57.270361 63.793461 
L 56.418597 63.793461 
L 55.566832 63.793461 
L 54.715067 63.793461 
L 53.863302 63.793461 
L 53.011537 63.793461 
L 52.159772 63.793461 
L 51.308007 63.793461 
L 50.456242 63.793461 
L 49.604477 63.793461 
L 48.752712 63.793461 
L 47.900947 63.793461 
L 47.049182 63.793461 
L 46.197417 63.793461 
L 45.345653 63.793461 
L 44.493888 63.793461 
L 43.642123 63.793461 
L 42.790358 63.793461 
L 41.938593 63.793461 
L 41.086828 63.793461 
L 40.235063 63.793461 
L 39.383298 63.793461 
L 38.531533 63.793461 
L 37.679768 63.793461 
L 36.828003 63.793461 
L 35.976238 63.793461 
L 35.124473 63.793461 
L 34.272709 63.793461 
L 34.272709 64.751696 
L 34.272709 65.709932 
L 34.272709 66.668167 
L 34.272709 67.626403 
L 34.272709 68.584638 
L 34.272709 69.542874 
L 34.272709 70.50111 
L 34.272709 71.459345 
L 34.272709 72.417581 
L 34.272709 73.375816 
L 34.272709 74.334052 
L 34.272709 75.292287 
L 34.272709 76.250523 
L 34.272709 77.208758 
L 34.272709 78.166994 
L 34.272709 79.125229 
L 34.272709 80.083465 
L 34.272709 81.0417 
L 34.272709 81.999936 
L 34.272709 82.958172 
L 34.272709 83.916407 
L 34.272709 84.874643 
L 34.272709 85.832878 
L 34.272709 86.791114 
L 34.272709 87.749349 
L 34.272709 88.707585 
L 34.272709 89.66582 
L 34.272709 90.624056 
L 34.272709 91.582291 
L 34.272709 92.540527 
L 34.272709 93.498762 
L 34.272709 94.456998 
L 34.272709 95.415234 
L 34.272709 96.373469 
L 34.272709 97.331705 
L 34.272709 98.28994 
L 34.272709 99.248176 
L 34.272709 100.206411 
L 34.272709 101.164647 
L 34.272709 102.122882 
L 34.272709 103.081118 
L 34.272709 104.039353 
L 34.272709 104.997589 
L 34.272709 105.955824 
L 34.272709 106.91406 
L 34.272709 107.872295 
L 34.272709 108.830531 
L 34.272709 109.788767 
L 34.272709 110.747002 
L 34.272709 111.705238 
L 34.272709 112.663473 
L 34.272709 113.621709 
L 34.272709 114.579944 
L 34.272709 115.53818 
L 34.272709 116.496415 
L 34.272709 117.454651 
L 34.272709 118.412886 
L 34.272709 119.371122 
L 34.272709 120.329357 
L 34.272709 121.287593 
L 34.272709 122.245829 
L 34.272709 123.204064 
L 34.272709 124.1623 
L 34.272709 125.120535 
L 34.272709 126.078771 
L 34.272709 127.037006 
L 34.272709 127.995242 
L 34.272709 128.953477 
L 34.272709 129.911713 
L 34.272709 130.869948 
L 34.272709 131.828184 
L 34.272709 132.786419 
L 34.272709 133.744655 
L 34.272709 134.702891 
L 34.272709 135.661126 
L 34.272709 136.619362 
L 34.272709 137.577597 
L 34.272709 138.535833 
L 34.272709 139.494068 
L 34.272709 140.452304 
L 34.272709 141.410539 
L 34.272709 142.368775 
L 34.272709 143.32701 
L 34.272709 144.285246 
L 34.272709 145.243481 
L 34.272709 146.201717 
L 34.272709 147.159953 
L 34.272709 148.118188 
L 34.272709 149.076424 
L 34.272709 150.034659 
L 34.272709 150.992895 
L 34.272709 151.95113 
L 34.272709 152.909366 
L 34.272709 153.867601 
L 34.272709 154.825837 
L 34.272709 155.784072 
L 34.272709 156.742308 
L 34.272709 157.700543 
L 34.272709 158.658779 
L 35.124473 158.658779 
z
M 87.070762 150.992895 
L 86.230369 150.579691 
L 85.378604 150.117987 
L 85.238367 150.034659 
L 84.526839 149.74398 
L 83.675074 149.407047 
L 82.823309 149.10986 
L 82.721037 149.076424 
L 81.971544 148.857657 
L 81.119779 148.642666 
L 80.268014 148.465757 
L 79.416249 148.326502 
L 78.564485 148.223681 
L 77.71272 148.155978 
L 76.860955 148.122378 
L 76.00919 148.122383 
L 75.157425 148.156104 
L 74.30566 148.224273 
L 73.453895 148.328128 
L 72.60213 148.469099 
L 71.750365 148.648055 
L 70.8986 148.86352 
L 70.13649 149.076424 
L 70.046835 149.112277 
L 69.19507 149.437897 
L 68.343305 149.812098 
L 67.491541 149.988332 
L 67.282339 149.076424 
L 66.810759 148.118188 
L 66.639776 147.849099 
L 66.370673 147.159953 
L 65.919882 146.201717 
L 65.788011 145.955643 
L 65.485548 145.243481 
L 65.038243 144.285246 
L 64.936246 144.082645 
L 64.604641 143.32701 
L 64.1588 142.368775 
L 64.084481 142.21594 
L 63.72517 141.410539 
L 63.280258 140.452304 
L 63.232716 140.352173 
L 62.846345 139.494068 
L 62.40221 138.535833 
L 62.380951 138.490203 
L 61.967856 137.577597 
L 61.529186 136.629268 
L 61.524669 136.619362 
L 61.089549 135.661126 
L 60.677421 134.76678 
L 60.647872 134.702891 
L 60.211336 133.744655 
L 59.825656 132.903572 
L 59.770816 132.786419 
L 59.333153 131.828184 
L 58.973891 131.039763 
L 58.893513 130.869948 
L 58.454945 129.911713 
L 58.122126 129.175328 
L 58.015937 128.953477 
L 57.576642 127.995242 
L 57.270361 127.310081 
L 57.138007 127.037006 
L 56.698144 126.078771 
L 56.418597 125.443575 
L 56.259538 125.120535 
L 55.819254 124.1623 
L 55.566832 123.574768 
L 55.380084 123.204064 
L 54.939513 122.245829 
L 54.715067 121.700825 
L 54.498338 121.287593 
L 54.057454 120.329357 
L 53.863302 119.81077 
L 53.608294 119.371122 
L 53.164218 118.412886 
L 53.011537 117.784377 
L 52.507388 117.454651 
L 53.011537 117.132871 
L 53.863302 116.539316 
L 53.913113 116.496415 
L 54.715067 116.206359 
L 55.566832 115.856707 
L 56.313164 115.53818 
L 56.418597 115.507334 
L 57.270361 115.21239 
L 58.122126 114.915289 
L 58.973891 114.622398 
L 59.09222 114.579944 
L 59.825656 114.36408 
L 60.677421 114.116143 
L 61.529186 113.876161 
L 62.380951 113.645941 
L 62.471021 113.621709 
L 63.232716 113.442334 
L 64.084481 113.250333 
L 64.936246 113.068897 
L 65.788011 112.898775 
L 66.639776 112.740533 
L 67.083164 112.663473 
L 67.491541 112.598935 
L 68.343305 112.473716 
L 69.19507 112.360265 
L 70.046835 112.258871 
L 70.8986 112.169762 
L 71.750365 112.093113 
L 72.60213 112.02906 
L 73.453895 111.977708 
L 74.30566 111.93913 
L 75.157425 111.913378 
L 76.00919 111.900484 
L 76.860955 111.900462 
L 77.71272 111.913307 
L 78.564485 111.938999 
L 79.416249 111.977503 
L 80.268014 112.028765 
L 81.119779 112.092714 
L 81.971544 112.169258 
L 82.823309 112.258282 
L 83.675074 112.359648 
L 84.526839 112.473185 
L 85.378604 112.59869 
L 85.781873 112.663473 
L 86.230369 112.740184 
L 87.082134 112.897756 
L 87.933899 113.067336 
L 88.785664 113.248565 
L 89.637429 113.44101 
L 90.39613 113.621709 
L 90.489193 113.645675 
L 91.340958 113.873675 
L 92.192723 114.112342 
L 93.044488 114.360878 
L 93.771431 114.579944 
L 93.896253 114.621384 
L 94.748018 114.908493 
L 95.599783 115.203826 
L 96.451548 115.505765 
L 96.54398 115.53818 
L 97.303313 115.839717 
L 98.155078 116.181709 
L 98.936744 116.496415 
L 99.006843 116.529269 
L 99.858608 116.915602 
L 100.710373 117.299722 
L 101.072205 117.454651 
L 101.562137 117.712542 
L 102.413902 118.139945 
L 102.998372 118.412886 
L 103.265667 118.579271 
L 104.117432 119.054047 
L 104.767208 119.371122 
L 104.969197 119.52844 
L 105.820962 120.058581 
L 106.456353 120.329357 
L 106.672727 120.667986 
L 107.391978 121.287593 
L 106.672727 121.9817 
L 106.601964 122.245829 
L 105.98995 123.204064 
L 105.820962 123.39142 
L 105.375013 124.1623 
L 104.969197 124.717911 
L 104.749621 125.120535 
L 104.1228 126.078771 
L 104.117432 126.08574 
L 103.514951 127.037006 
L 103.265667 127.389996 
L 102.898884 127.995242 
L 102.413902 128.724844 
L 102.279481 128.953477 
L 101.663263 129.911713 
L 101.562137 130.057505 
L 101.049175 130.869948 
L 100.710373 131.378285 
L 100.43266 131.828184 
L 99.858608 132.715927 
L 99.815764 132.786419 
L 99.200738 133.744655 
L 99.006843 134.036911 
L 98.584761 134.702891 
L 98.155078 135.364623 
L 97.968979 135.661126 
L 97.354119 136.619362 
L 97.303313 136.696838 
L 96.737079 137.577597 
L 96.451548 138.019614 
L 96.120836 138.535833 
L 95.599783 139.349734 
L 95.507022 139.494068 
L 94.890712 140.452304 
L 94.748018 140.677006 
L 94.272349 141.410539 
L 93.896253 142.004732 
L 93.657146 142.368775 
L 93.047413 143.32701 
L 93.044488 143.3318 
L 92.424525 144.285246 
L 92.192723 144.664391 
L 91.805266 145.243481 
L 91.340958 145.992336 
L 91.193423 146.201717 
L 90.579545 147.159953 
L 90.489193 147.32401 
L 89.948965 148.118188 
L 89.637429 148.675743 
L 89.324266 149.076424 
L 88.785664 149.981939 
L 88.725759 150.034659 
L 88.040459 150.992895 
L 87.933899 151.326558 
L 87.082134 151.018453 
L 87.070762 150.992895 
z
" clip-path="url(#p523ae5c344)" style="fill: none"/>
   </g>
   <g id="matplotlib.axis_1">
    <g id="xtick_1">
     <g id="line2d_1">
      <defs>
       <path id="m40ee4ae15c" d="M 0 0 
L 0 3.5 
" style="stroke: #000000; stroke-width: 0.8"/>
      </defs>
      <g>
       <use xlink:href="#m40ee4ae15c" x="34.272709" y="169.19937" style="stroke: #000000; stroke-width: 0.8"/>
      </g>
     </g>
     <g id="text_1">
      <!-- −2 -->
      <g transform="translate(26.901615 183.797807) scale(0.1 -0.1)">
       <defs>
        <path id="DejaVuSans-2212" d="M 678 2272 
L 4684 2272 
L 4684 1741 
L 678 1741 
L 678 2272 
z
" transform="scale(0.015625)"/>
        <path id="DejaVuSans-32" d="M 1228 531 
L 3431 531 
L 3431 0 
L 469 0 
L 469 531 
Q 828 903 1448 1529 
Q 2069 2156 2228 2338 
Q 2531 2678 2651 2914 
Q 2772 3150 2772 3378 
Q 2772 3750 2511 3984 
Q 2250 4219 1831 4219 
Q 1534 4219 1204 4116 
Q 875 4013 500 3803 
L 500 4441 
Q 881 4594 1212 4672 
Q 1544 4750 1819 4750 
Q 2544 4750 2975 4387 
Q 3406 4025 3406 3419 
Q 3406 3131 3298 2873 
Q 3191 2616 2906 2266 
Q 2828 2175 2409 1742 
Q 1991 1309 1228 531 
z
" transform="scale(0.015625)"/>
       </defs>
       <use xlink:href="#DejaVuSans-2212"/>
       <use xlink:href="#DejaVuSans-32" x="83.789062"/>
      </g>
     </g>
    </g>
    <g id="xtick_2">
     <g id="line2d_2">
      <g>
       <use xlink:href="#m40ee4ae15c" x="76.435072" y="169.19937" style="stroke: #000000; stroke-width: 0.8"/>
      </g>
     </g>
    </g>
    <g id="xtick_3">
     <g id="line2d_3">
      <g>
       <use xlink:href="#m40ee4ae15c" x="118.597436" y="169.19937" style="stroke: #000000; stroke-width: 0.8"/>
      </g>
     </g>
     <g id="text_2">
      <!-- 2 -->
      <g transform="translate(115.416186 183.797807) scale(0.1 -0.1)">
       <use xlink:href="#DejaVuSans-32"/>
      </g>
     </g>
    </g>
    <g id="xtick_4">
     <g id="line2d_4">
      <g>
       <use xlink:href="#m40ee4ae15c" x="160.7598" y="169.19937" style="stroke: #000000; stroke-width: 0.8"/>
      </g>
     </g>
     <g id="text_3">
      <!-- 4 -->
      <g transform="translate(157.57855 183.797807) scale(0.1 -0.1)">
       <defs>
        <path id="DejaVuSans-34" d="M 2419 4116 
L 825 1625 
L 2419 1625 
L 2419 4116 
z
M 2253 4666 
L 3047 4666 
L 3047 1625 
L 3713 1625 
L 3713 1100 
L 3047 1100 
L 3047 0 
L 2419 0 
L 2419 1100 
L 313 1100 
L 313 1709 
L 2253 4666 
z
" transform="scale(0.015625)"/>
       </defs>
       <use xlink:href="#DejaVuSans-34"/>
      </g>
     </g>
    </g>
    <g id="xtick_5">
     <g id="line2d_5">
      <g>
       <use xlink:href="#m40ee4ae15c" x="202.922163" y="169.19937" style="stroke: #000000; stroke-width: 0.8"/>
      </g>
     </g>
     <g id="text_4">
      <!-- 6 -->
      <g transform="translate(199.740913 183.797807) scale(0.1 -0.1)">
       <defs>
        <path id="DejaVuSans-36" d="M 2113 2584 
Q 1688 2584 1439 2293 
Q 1191 2003 1191 1497 
Q 1191 994 1439 701 
Q 1688 409 2113 409 
Q 2538 409 2786 701 
Q 3034 994 3034 1497 
Q 3034 2003 2786 2293 
Q 2538 2584 2113 2584 
z
M 3366 4563 
L 3366 3988 
Q 3128 4100 2886 4159 
Q 2644 4219 2406 4219 
Q 1781 4219 1451 3797 
Q 1122 3375 1075 2522 
Q 1259 2794 1537 2939 
Q 1816 3084 2150 3084 
Q 2853 3084 3261 2657 
Q 3669 2231 3669 1497 
Q 3669 778 3244 343 
Q 2819 -91 2113 -91 
Q 1303 -91 875 529 
Q 447 1150 447 2328 
Q 447 3434 972 4092 
Q 1497 4750 2381 4750 
Q 2619 4750 2861 4703 
Q 3103 4656 3366 4563 
z
" transform="scale(0.015625)"/>
       </defs>
       <use xlink:href="#DejaVuSans-36"/>
      </g>
     </g>
    </g>
    <g id="xtick_6">
     <g id="line2d_6">
      <defs>
       <path id="m9ff6a3ec2b" d="M 0 0 
L 0 2 
" style="stroke: #000000; stroke-width: 0.6"/>
      </defs>
      <g>
       <use xlink:href="#m9ff6a3ec2b" x="13.191527" y="169.19937" style="stroke: #000000; stroke-width: 0.6"/>
      </g>
     </g>
    </g>
    <g id="xtick_7">
     <g id="line2d_7">
      <g>
       <use xlink:href="#m9ff6a3ec2b" x="23.732118" y="169.19937" style="stroke: #000000; stroke-width: 0.6"/>
      </g>
     </g>
    </g>
    <g id="xtick_8">
     <g id="line2d_8">
      <g>
       <use xlink:href="#m9ff6a3ec2b" x="44.813299" y="169.19937" style="stroke: #000000; stroke-width: 0.6"/>
      </g>
     </g>
    </g>
    <g id="xtick_9">
     <g id="line2d_9">
      <g>
       <use xlink:href="#m9ff6a3ec2b" x="55.35389" y="169.19937" style="stroke: #000000; stroke-width: 0.6"/>
      </g>
     </g>
    </g>
    <g id="xtick_10">
     <g id="line2d_10">
      <g>
       <use xlink:href="#m9ff6a3ec2b" x="65.894481" y="169.19937" style="stroke: #000000; stroke-width: 0.6"/>
      </g>
     </g>
    </g>
    <g id="xtick_11">
     <g id="line2d_11">
      <g>
       <use xlink:href="#m9ff6a3ec2b" x="86.975663" y="169.19937" style="stroke: #000000; stroke-width: 0.6"/>
      </g>
     </g>
    </g>
    <g id="xtick_12">
     <g id="line2d_12">
      <g>
       <use xlink:href="#m9ff6a3ec2b" x="97.516254" y="169.19937" style="stroke: #000000; stroke-width: 0.6"/>
      </g>
     </g>
    </g>
    <g id="xtick_13">
     <g id="line2d_13">
      <g>
       <use xlink:href="#m9ff6a3ec2b" x="108.056845" y="169.19937" style="stroke: #000000; stroke-width: 0.6"/>
      </g>
     </g>
    </g>
    <g id="xtick_14">
     <g id="line2d_14">
      <g>
       <use xlink:href="#m9ff6a3ec2b" x="129.138027" y="169.19937" style="stroke: #000000; stroke-width: 0.6"/>
      </g>
     </g>
    </g>
    <g id="xtick_15">
     <g id="line2d_15">
      <g>
       <use xlink:href="#m9ff6a3ec2b" x="139.678618" y="169.19937" style="stroke: #000000; stroke-width: 0.6"/>
      </g>
     </g>
    </g>
    <g id="xtick_16">
     <g id="line2d_16">
      <g>
       <use xlink:href="#m9ff6a3ec2b" x="150.219209" y="169.19937" style="stroke: #000000; stroke-width: 0.6"/>
      </g>
     </g>
    </g>
    <g id="xtick_17">
     <g id="line2d_17">
      <g>
       <use xlink:href="#m9ff6a3ec2b" x="171.30039" y="169.19937" style="stroke: #000000; stroke-width: 0.6"/>
      </g>
     </g>
    </g>
    <g id="xtick_18">
     <g id="line2d_18">
      <g>
       <use xlink:href="#m9ff6a3ec2b" x="181.840981" y="169.19937" style="stroke: #000000; stroke-width: 0.6"/>
      </g>
     </g>
    </g>
    <g id="xtick_19">
     <g id="line2d_19">
      <g>
       <use xlink:href="#m9ff6a3ec2b" x="192.381572" y="169.19937" style="stroke: #000000; stroke-width: 0.6"/>
      </g>
     </g>
    </g>
    <g id="xtick_20">
     <g id="line2d_20">
      <g>
       <use xlink:href="#m9ff6a3ec2b" x="213.462754" y="169.19937" style="stroke: #000000; stroke-width: 0.6"/>
      </g>
     </g>
    </g>
    <g id="xtick_21">
     <g id="line2d_21">
      <g>
       <use xlink:href="#m9ff6a3ec2b" x="224.003345" y="169.19937" style="stroke: #000000; stroke-width: 0.6"/>
      </g>
     </g>
    </g>
    <g id="xtick_22">
     <g id="line2d_22">
      <g>
       <use xlink:href="#m9ff6a3ec2b" x="234.543936" y="169.19937" style="stroke: #000000; stroke-width: 0.6"/>
      </g>
     </g>
    </g>
   </g>
   <g id="matplotlib.axis_2">
    <g id="ytick_1">
     <g id="line2d_23">
      <defs>
       <path id="m501e662810" d="M 0 0 
L -3.5 0 
" style="stroke: #000000; stroke-width: 0.8"/>
      </defs>
      <g>
       <use xlink:href="#m501e662810" x="76.435072" y="295.686461" style="stroke: #000000; stroke-width: 0.8"/>
      </g>
     </g>
     <g id="text_5">
      <!-- −6 -->
      <g transform="translate(54.692885 299.48568) scale(0.1 -0.1)">
       <use xlink:href="#DejaVuSans-2212"/>
       <use xlink:href="#DejaVuSans-36" x="83.789062"/>
      </g>
     </g>
    </g>
    <g id="ytick_2">
     <g id="line2d_24">
      <g>
       <use xlink:href="#m501e662810" x="76.435072" y="253.524097" style="stroke: #000000; stroke-width: 0.8"/>
      </g>
     </g>
     <g id="text_6">
      <!-- −4 -->
      <g transform="translate(54.692885 257.323316) scale(0.1 -0.1)">
       <use xlink:href="#DejaVuSans-2212"/>
       <use xlink:href="#DejaVuSans-34" x="83.789062"/>
      </g>
     </g>
    </g>
    <g id="ytick_3">
     <g id="line2d_25">
      <g>
       <use xlink:href="#m501e662810" x="76.435072" y="211.361734" style="stroke: #000000; stroke-width: 0.8"/>
      </g>
     </g>
     <g id="text_7">
      <!-- −2 -->
      <g transform="translate(54.692885 215.160952) scale(0.1 -0.1)">
       <use xlink:href="#DejaVuSans-2212"/>
       <use xlink:href="#DejaVuSans-32" x="83.789062"/>
      </g>
     </g>
    </g>
    <g id="ytick_4">
     <g id="line2d_26">
      <g>
       <use xlink:href="#m501e662810" x="76.435072" y="169.19937" style="stroke: #000000; stroke-width: 0.8"/>
      </g>
     </g>
    </g>
    <g id="ytick_5">
     <g id="line2d_27">
      <g>
       <use xlink:href="#m501e662810" x="76.435072" y="127.037006" style="stroke: #000000; stroke-width: 0.8"/>
      </g>
     </g>
     <g id="text_8">
      <!-- 2 -->
      <g transform="translate(63.072572 130.836225) scale(0.1 -0.1)">
       <use xlink:href="#DejaVuSans-32"/>
      </g>
     </g>
    </g>
    <g id="ytick_6">
     <g id="line2d_28">
      <g>
       <use xlink:href="#m501e662810" x="76.435072" y="84.874643" style="stroke: #000000; stroke-width: 0.8"/>
      </g>
     </g>
     <g id="text_9">
      <!-- 4 -->
      <g transform="translate(63.072572 88.673861) scale(0.1 -0.1)">
       <use xlink:href="#DejaVuSans-34"/>
      </g>
     </g>
    </g>
    <g id="ytick_7">
     <g id="line2d_29">
      <g>
       <use xlink:href="#m501e662810" x="76.435072" y="42.712279" style="stroke: #000000; stroke-width: 0.8"/>
      </g>
     </g>
     <g id="text_10">
      <!-- 6 -->
      <g transform="translate(63.072572 46.511498) scale(0.1 -0.1)">
       <use xlink:href="#DejaVuSans-36"/>
      </g>
     </g>
    </g>
    <g id="ytick_8">
     <g id="line2d_30">
      <defs>
       <path id="mf3efaecd32" d="M 0 0 
L -2 0 
" style="stroke: #000000; stroke-width: 0.6"/>
      </defs>
      <g>
       <use xlink:href="#mf3efaecd32" x="76.435072" y="327.308234" style="stroke: #000000; stroke-width: 0.6"/>
      </g>
     </g>
    </g>
    <g id="ytick_9">
     <g id="line2d_31">
      <g>
       <use xlink:href="#mf3efaecd32" x="76.435072" y="316.767643" style="stroke: #000000; stroke-width: 0.6"/>
      </g>
     </g>
    </g>
    <g id="ytick_10">
     <g id="line2d_32">
      <g>
       <use xlink:href="#mf3efaecd32" x="76.435072" y="306.227052" style="stroke: #000000; stroke-width: 0.6"/>
      </g>
     </g>
    </g>
    <g id="ytick_11">
     <g id="line2d_33">
      <g>
       <use xlink:href="#mf3efaecd32" x="76.435072" y="285.14587" style="stroke: #000000; stroke-width: 0.6"/>
      </g>
     </g>
    </g>
    <g id="ytick_12">
     <g id="line2d_34">
      <g>
       <use xlink:href="#mf3efaecd32" x="76.435072" y="274.605279" style="stroke: #000000; stroke-width: 0.6"/>
      </g>
     </g>
    </g>
    <g id="ytick_13">
     <g id="line2d_35">
      <g>
       <use xlink:href="#mf3efaecd32" x="76.435072" y="264.064688" style="stroke: #000000; stroke-width: 0.6"/>
      </g>
     </g>
    </g>
    <g id="ytick_14">
     <g id="line2d_36">
      <g>
       <use xlink:href="#mf3efaecd32" x="76.435072" y="242.983506" style="stroke: #000000; stroke-width: 0.6"/>
      </g>
     </g>
    </g>
    <g id="ytick_15">
     <g id="line2d_37">
      <g>
       <use xlink:href="#mf3efaecd32" x="76.435072" y="232.442915" style="stroke: #000000; stroke-width: 0.6"/>
      </g>
     </g>
    </g>
    <g id="ytick_16">
     <g id="line2d_38">
      <g>
       <use xlink:href="#mf3efaecd32" x="76.435072" y="221.902324" style="stroke: #000000; stroke-width: 0.6"/>
      </g>
     </g>
    </g>
    <g id="ytick_17">
     <g id="line2d_39">
      <g>
       <use xlink:href="#mf3efaecd32" x="76.435072" y="200.821143" style="stroke: #000000; stroke-width: 0.6"/>
      </g>
     </g>
    </g>
    <g id="ytick_18">
     <g id="line2d_40">
      <g>
       <use xlink:href="#mf3efaecd32" x="76.435072" y="190.280552" style="stroke: #000000; stroke-width: 0.6"/>
      </g>
     </g>
    </g>
    <g id="ytick_19">
     <g id="line2d_41">
      <g>
       <use xlink:href="#mf3efaecd32" x="76.435072" y="179.739961" style="stroke: #000000; stroke-width: 0.6"/>
      </g>
     </g>
    </g>
    <g id="ytick_20">
     <g id="line2d_42">
      <g>
       <use xlink:href="#mf3efaecd32" x="76.435072" y="158.658779" style="stroke: #000000; stroke-width: 0.6"/>
      </g>
     </g>
    </g>
    <g id="ytick_21">
     <g id="line2d_43">
      <g>
       <use xlink:href="#mf3efaecd32" x="76.435072" y="148.118188" style="stroke: #000000; stroke-width: 0.6"/>
      </g>
     </g>
    </g>
    <g id="ytick_22">
     <g id="line2d_44">
      <g>
       <use xlink:href="#mf3efaecd32" x="76.435072" y="137.577597" style="stroke: #000000; stroke-width: 0.6"/>
      </g>
     </g>
    </g>
    <g id="ytick_23">
     <g id="line2d_45">
      <g>
       <use xlink:href="#mf3efaecd32" x="76.435072" y="116.496415" style="stroke: #000000; stroke-width: 0.6"/>
      </g>
     </g>
    </g>
    <g id="ytick_24">
     <g id="line2d_46">
      <g>
       <use xlink:href="#mf3efaecd32" x="76.435072" y="105.955824" style="stroke: #000000; stroke-width: 0.6"/>
      </g>
     </g>
    </g>
    <g id="ytick_25">
     <g id="line2d_47">
      <g>
       <use xlink:href="#mf3efaecd32" x="76.435072" y="95.415234" style="stroke: #000000; stroke-width: 0.6"/>
      </g>
     </g>
    </g>
    <g id="ytick_26">
     <g id="line2d_48">
      <g>
       <use xlink:href="#mf3efaecd32" x="76.435072" y="74.334052" style="stroke: #000000; stroke-width: 0.6"/>
      </g>
     </g>
    </g>
    <g id="ytick_27">
     <g id="line2d_49">
      <g>
       <use xlink:href="#mf3efaecd32" x="76.435072" y="63.793461" style="stroke: #000000; stroke-width: 0.6"/>
      </g>
     </g>
    </g>
    <g id="ytick_28">
     <g id="line2d_50">
      <g>
       <use xlink:href="#mf3efaecd32" x="76.435072" y="53.25287" style="stroke: #000000; stroke-width: 0.6"/>
      </g>
     </g>
    </g>
    <g id="ytick_29">
     <g id="line2d_51">
      <g>
       <use xlink:href="#mf3efaecd32" x="76.435072" y="32.171688" style="stroke: #000000; stroke-width: 0.6"/>
      </g>
     </g>
    </g>
    <g id="ytick_30">
     <g id="line2d_52">
      <g>
       <use xlink:href="#mf3efaecd32" x="76.435072" y="21.631097" style="stroke: #000000; stroke-width: 0.6"/>
      </g>
     </g>
    </g>
    <g id="ytick_31">
     <g id="line2d_53">
      <g>
       <use xlink:href="#mf3efaecd32" x="76.435072" y="11.090506" style="stroke: #000000; stroke-width: 0.6"/>
      </g>
     </g>
    </g>
   </g>
   <g id="PathCollection_5">
    <path d="M 87.082134 151.018453 
L 87.070762 150.992895 
L 83.675074 149.407047 
L 81.971544 148.857657 
L 79.416249 148.326502 
L 76.860955 148.122378 
L 74.30566 148.224273 
L 72.60213 148.469099 
L 70.046835 149.112277 
L 67.491541 149.988332 
L 67.282339 149.076424 
L 64.936246 144.082645 
L 61.967856 137.577597 
L 53.164218 118.412886 
L 53.011537 117.784377 
L 52.507388 117.454651 
L 53.913113 116.496415 
L 60.677421 114.116143 
L 64.084481 113.250333 
L 67.491541 112.598935 
L 70.8986 112.169762 
L 74.30566 111.93913 
L 77.71272 111.913307 
L 81.119779 112.092714 
L 84.526839 112.473185 
L 87.933899 113.067336 
L 91.340958 113.873675 
L 94.748018 114.908493 
L 98.155078 116.181709 
L 101.072205 117.454651 
L 106.456353 120.329357 
L 106.672727 120.667986 
L 107.391978 121.287593 
L 106.672727 121.9817 
L 106.601964 122.245829 
L 89.637429 148.675743 
L 89.324266 149.076424 
L 88.725759 150.034659 
L 87.933899 151.326558 
L 87.082134 151.018453 
L 87.082134 151.018453 
" clip-path="url(#p523ae5c344)" style="fill: none; stroke: #add8e6; stroke-width: 1.5"/>
   </g>
   <g id="PathCollection_6">
    <path d="M 87.082134 151.018453 
L 87.070762 150.992895 
L 83.675074 149.407047 
L 81.971544 148.857657 
L 79.416249 148.326502 
L 76.860955 148.122378 
L 74.30566 148.224273 
L 72.60213 148.469099 
L 70.046835 149.112277 
L 67.491541 149.988332 
L 67.282339 149.076424 
L 64.936246 144.082645 
L 61.967856 137.577597 
L 53.164218 118.412886 
L 53.011537 117.784377 
L 52.507388 117.454651 
L 53.913113 116.496415 
L 60.677421 114.116143 
L 64.084481 113.250333 
L 67.491541 112.598935 
L 70.8986 112.169762 
L 74.30566 111.93913 
L 77.71272 111.913307 
L 81.119779 112.092714 
L 84.526839 112.473185 
L 87.933899 113.067336 
L 91.340958 113.873675 
L 94.748018 114.908493 
L 98.155078 116.181709 
L 101.072205 117.454651 
L 106.456353 120.329357 
L 106.672727 120.667986 
L 107.391978 121.287593 
L 106.672727 121.9817 
L 106.601964 122.245829 
L 89.637429 148.675743 
L 89.324266 149.076424 
L 88.725759 150.034659 
L 87.933899 151.326558 
L 87.082134 151.018453 
L 87.082134 151.018453 
" clip-path="url(#p523ae5c344)" style="fill: none; stroke: #ffffff; stroke-width: 1.5"/>
   </g>
   <g id="PathCollection_7">
    <path d="M 87.082134 151.018453 
L 87.070762 150.992895 
L 83.675074 149.407047 
L 81.971544 148.857657 
L 79.416249 148.326502 
L 76.860955 148.122378 
L 74.30566 148.224273 
L 72.60213 148.469099 
L 70.046835 149.112277 
L 67.491541 149.988332 
L 67.282339 149.076424 
L 64.936246 144.082645 
L 61.967856 137.577597 
L 53.164218 118.412886 
L 53.011537 117.784377 
L 52.507388 117.454651 
L 53.913113 116.496415 
L 60.677421 114.116143 
L 64.084481 113.250333 
L 67.491541 112.598935 
L 70.8986 112.169762 
L 74.30566 111.93913 
L 77.71272 111.913307 
L 81.119779 112.092714 
L 84.526839 112.473185 
L 87.933899 113.067336 
L 91.340958 113.873675 
L 94.748018 114.908493 
L 98.155078 116.181709 
L 101.072205 117.454651 
L 106.456353 120.329357 
L 106.672727 120.667986 
L 107.391978 121.287593 
L 106.672727 121.9817 
L 106.601964 122.245829 
L 89.637429 148.675743 
L 89.324266 149.076424 
L 88.725759 150.034659 
L 87.933899 151.326558 
L 87.082134 151.018453 
L 87.082134 151.018453 
" clip-path="url(#p523ae5c344)" style="fill: none; stroke: #ffffff; stroke-width: 1.5"/>
   </g>
   <g id="line2d_54">
    <path d="M 75.247794 171.793621 
L 76.042549 172.025267 
L 76.833029 172.024507 
L 77.563809 171.819622 
L 78.26356 171.389438 
L 78.808676 170.782333 
L 79.157647 170.052219 
L 79.286627 169.291049 
L 79.201886 168.503303 
L 78.923208 167.803322 
L 78.453735 167.183243 
L 77.796112 166.691914 
L 77.048884 166.413153 
L 76.266486 166.351327 
L 75.462115 166.51737 
L 75.247794 166.605119 
L 75.247794 166.605119 
" clip-path="url(#p523ae5c344)" style="fill: none; stroke: #0000ff; stroke-width: 1.5; stroke-linecap: square"/>
   </g>
   <g id="line2d_55">
    <path d="M 73.207715 176.251275 
L 74.503792 176.710385 
L 75.837055 176.931612 
L 77.159958 176.920752 
L 78.504404 176.67353 
L 79.795253 176.188961 
L 80.938992 175.51284 
L 81.908163 174.693956 
L 82.752768 173.69736 
L 83.469952 172.463672 
L 83.911015 171.262251 
L 84.148702 170.002559 
L 84.172555 168.673485 
L 83.953562 167.297397 
L 83.505704 166.013251 
L 82.827259 164.807884 
L 81.973348 163.770494 
L 80.986981 162.920411 
L 79.812816 162.218249 
L 78.696328 161.78102 
L 77.376273 161.501361 
L 76.104187 161.451098 
L 74.906349 161.596199 
L 73.558458 161.997267 
L 73.207715 162.147465 
L 73.207715 162.147465 
" clip-path="url(#p523ae5c344)" style="fill: none; stroke: #0000ff; stroke-width: 1.5; stroke-linecap: square"/>
   </g>
   <g id="line2d_56">
    <path d="M 67.662205 188.368434 
L 69.664327 189.163669 
L 71.515659 189.698531 
L 73.280943 190.043259 
L 75.657169 190.266194 
L 77.551726 190.250957 
L 79.963978 189.983091 
L 81.823343 189.580311 
L 83.843643 188.935867 
L 85.846662 188.063044 
L 87.780359 186.967338 
L 89.570569 185.688001 
L 91.296839 184.150762 
L 92.585314 182.748758 
L 93.813232 181.133179 
L 95.055769 179.082987 
L 95.841098 177.434805 
L 96.631304 175.243247 
L 97.140463 173.162075 
L 97.449029 170.881583 
L 97.499656 168.362993 
L 97.343824 166.508582 
L 96.988533 164.511994 
L 96.425185 162.505221 
L 95.65668 160.542233 
L 94.546488 158.410818 
L 93.521883 156.852017 
L 92.196858 155.2 
L 90.477376 153.475823 
L 88.885126 152.187245 
L 87.098619 151.014074 
L 85.152893 150.005209 
L 83.547264 149.354145 
L 81.374471 148.705015 
L 79.415779 148.329976 
L 77.043966 148.126983 
L 74.825105 148.179755 
L 72.836189 148.427652 
L 70.636267 148.931413 
L 68.953146 149.490565 
L 67.662205 150.030306 
L 67.662205 150.030306 
" clip-path="url(#p523ae5c344)" style="fill: none; stroke: #0000ff; stroke-width: 1.5; stroke-linecap: square"/>
   </g>
   <g id="line2d_57">
    <path d="M 52.587947 221.306289 
L 56.062368 222.760264 
L 59.911688 224.070074 
L 63.549306 225.036396 
L 66.496357 225.635514 
L 69.830303 226.122067 
L 74.218745 226.461088 
L 78.028002 226.481819 
L 82.38314 226.19443 
L 85.957895 225.707177 
L 90.075544 224.85684 
L 93.696776 223.842302 
L 97.164674 222.623148 
L 100.888907 221.024329 
L 103.772983 219.562601 
L 106.395623 218.04793 
L 109.354898 216.104609 
L 112.35557 213.848382 
L 115.359705 211.255159 
L 118.229278 208.404736 
L 120.709651 205.580383 
L 123.008425 202.587081 
L 124.975666 199.656343 
L 126.889274 196.369022 
L 128.62539 192.863417 
L 130.025924 189.493137 
L 131.202262 186.062684 
L 132.223794 182.292686 
L 132.84667 179.276476 
L 133.43907 175.061164 
L 133.697649 171.393394 
L 133.728538 168.070131 
L 133.550637 164.548699 
L 133.1704 161.142136 
L 132.54018 157.536036 
L 131.5587 153.540439 
L 130.570782 150.407314 
L 129.41499 147.360305 
L 127.986037 144.173094 
L 126.579429 141.462032 
L 124.819502 138.494917 
L 122.89363 135.652107 
L 120.618918 132.708218 
L 117.899275 129.64515 
L 115.348774 127.133466 
L 113.402679 125.413385 
L 110.020575 122.768449 
L 107.185813 120.844346 
L 104.114615 119.023087 
L 100.553726 117.217575 
L 97.771633 116.01509 
L 94.368518 114.7732 
L 90.605738 113.674523 
L 87.504469 112.974065 
L 84.547515 112.47191 
L 80.870127 112.066658 
L 77.350624 111.902091 
L 73.229529 111.984504 
L 70.707437 112.181735 
L 66.861359 112.700162 
L 64.006397 113.258826 
L 60.407522 114.18179 
L 56.347046 115.531059 
L 53.475934 116.695137 
L 52.587947 117.092451 
L 52.587947 117.092451 
" clip-path="url(#p523ae5c344)" style="fill: none; stroke: #0000ff; stroke-width: 1.5; stroke-linecap: square"/>
   </g>
   <g id="line2d_58">
    <path d="M 11.611865 310.840662 
L 17.0997 313.225817 
L 22.7599 315.429599 
L 29.954951 317.873181 
L 36.234451 319.692605 
L 40.089374 320.66981 
L 47.383269 322.236282 
L 49.407919 322.606791 
L 57.219341 323.779639 
L 62.77118 324.368961 
L 65.229539 324.56584 
L 73.438692 324.940583 
L 79.582925 324.937595 
L 83.97193 324.786965 
L 91.385546 324.250288 
L 99.630847 323.232678 
L 105.041212 322.320213 
L 111.021989 321.081064 
L 116.999482 319.594957 
L 122.281071 318.069946 
L 128.484936 316.015975 
L 134.325673 313.812586 
L 137.768361 312.386421 
L 143.763521 309.667102 
L 149.260805 306.897288 
L 154.967539 303.724295 
L 160.35247 300.432652 
L 166.208171 296.498602 
L 170.827284 293.1123 
L 175.540441 289.37603 
L 179.385212 286.09921 
L 184.432832 281.452601 
L 187.528011 278.390317 
L 192.106485 273.527833 
L 195.302942 269.870783 
L 199.0129 265.318982 
L 202.533096 260.652048 
L 205.964002 255.724281 
L 209.263164 250.568909 
L 212.043943 245.844905 
L 215.215506 239.940412 
L 217.342564 235.602552 
L 220.181529 229.20987 
L 222.277938 223.918309 
L 224.103767 218.780217 
L 226.093403 212.404554 
L 227.680571 206.47004 
L 229.050152 200.391377 
L 230.170063 194.296312 
L 230.927927 189.105689 
L 231.59092 183.018448 
L 232.03358 176.507472 
L 232.200577 170.387382 
L 232.137237 164.601582 
L 231.82468 158.319401 
L 231.384167 153.228084 
L 230.689888 147.525522 
L 229.67166 141.219876 
L 228.727581 136.468715 
L 227.415313 130.868302 
L 225.8343 125.106574 
L 224.189573 119.87482 
L 222.111462 114.038755 
L 219.896888 108.511552 
L 217.994463 104.197502 
L 215.440201 98.900877 
L 212.398016 93.183703 
L 209.113607 87.586195 
L 206.75843 83.875714 
L 202.773379 78.078922 
L 199.30421 73.452418 
L 195.290855 68.513687 
L 192.210306 64.986131 
L 187.727652 60.211914 
L 183.349347 55.913705 
L 180.243809 53.061306 
L 176.204063 49.573067 
L 170.539078 45.067424 
L 166.431403 42.057857 
L 160.977626 38.36795 
L 155.949959 35.252789 
L 151.961898 32.96427 
L 145.474636 29.564695 
L 140.769109 27.335225 
L 135.329297 24.99197 
L 128.961371 22.552543 
L 124.036591 20.880796 
L 118.533914 19.226068 
L 112.460067 17.652336 
L 106.218575 16.303174 
L 99.508419 15.147676 
L 92.661091 14.276744 
L 86.305279 13.742357 
L 80.514861 13.482771 
L 75.766564 13.430769 
L 68.762708 13.618398 
L 62.050349 14.094942 
L 56.609438 14.69614 
L 50.427275 15.615848 
L 45.450173 16.542107 
L 38.039802 18.235444 
L 31.946122 19.917632 
L 26.111639 21.782085 
L 18.534059 24.590323 
L 11.611865 27.558078 
L 11.611865 27.558078 
" clip-path="url(#p523ae5c344)" style="fill: none; stroke: #0000ff; stroke-width: 1.5; stroke-linecap: square"/>
   </g>
   <g id="line2d_59">
    <path d="M 75.247794 171.793621 
L 11.611865 310.840662 
L 11.611865 310.840662 
" clip-path="url(#p523ae5c344)" style="fill: none; stroke: #ff0000; stroke-width: 1.5; stroke-linecap: square"/>
   </g>
   <g id="line2d_60">
    <path d="M 77.97657 171.60011 
L 160.597981 300.275335 
L 160.597981 300.275335 
" clip-path="url(#p523ae5c344)" style="fill: none; stroke: #ff0000; stroke-width: 1.5; stroke-linecap: square"/>
   </g>
   <g id="line2d_61">
    <path d="M 79.2881 169.19937 
L 232.205107 169.19937 
L 232.205107 169.19937 
" clip-path="url(#p523ae5c344)" style="fill: none; stroke: #ff0000; stroke-width: 1.5; stroke-linecap: square"/>
   </g>
   <g id="line2d_62">
    <path d="M 77.97657 166.79863 
L 160.597981 38.123405 
L 160.597981 38.123405 
" clip-path="url(#p523ae5c344)" style="fill: none; stroke: #ff0000; stroke-width: 1.5; stroke-linecap: square"/>
   </g>
   <g id="line2d_63">
    <path d="M 75.247794 166.605119 
L 11.611865 27.558078 
L 11.611865 27.558078 
" clip-path="url(#p523ae5c344)" style="fill: none; stroke: #ff0000; stroke-width: 1.5; stroke-linecap: square"/>
   </g>
   <g id="patch_3">
    <path d="M 76.435072 331.2 
L 76.435072 7.2 
" style="fill: none; stroke: #000000; stroke-width: 0.8; stroke-linejoin: miter; stroke-linecap: square"/>
   </g>
   <g id="patch_4">
    <path d="M 7.2 169.19937 
L 236.616972 169.19937 
" style="fill: none; stroke: #000000; stroke-width: 0.8; stroke-linejoin: miter; stroke-linecap: square"/>
   </g>
   <g id="text_11">
    <!-- $f(R)$ -->
    <g transform="translate(76.9819 128.428888) scale(0.14 -0.14)">
     <defs>
      <path id="Cmmi10-66" d="M 622 -1056 
Q 741 -1147 909 -1147 
Q 1138 -1147 1281 -641 
Q 1341 -397 1606 966 
L 1900 2534 
L 1350 2534 
Q 1288 2534 1288 2619 
Q 1313 2759 1369 2759 
L 1941 2759 
L 2016 3175 
Q 2053 3369 2084 3508 
Q 2116 3647 2152 3765 
Q 2188 3884 2259 4031 
Q 2369 4241 2555 4377 
Q 2741 4513 2956 4513 
Q 3097 4513 3230 4461 
Q 3363 4409 3447 4306 
Q 3531 4203 3531 4063 
Q 3531 3900 3423 3779 
Q 3316 3659 3163 3659 
Q 3059 3659 2986 3723 
Q 2913 3788 2913 3891 
Q 2913 4031 3008 4136 
Q 3103 4241 3244 4256 
Q 3125 4347 2950 4347 
Q 2853 4347 2767 4256 
Q 2681 4166 2656 4063 
Q 2616 3900 2478 3181 
L 2400 2759 
L 3059 2759 
Q 3122 2759 3122 2675 
Q 3119 2659 3109 2620 
Q 3100 2581 3083 2557 
Q 3066 2534 3041 2534 
L 2356 2534 
L 2059 972 
Q 2003 631 1929 279 
Q 1856 -72 1723 -442 
Q 1591 -813 1384 -1063 
Q 1178 -1313 897 -1313 
Q 681 -1313 511 -1189 
Q 341 -1066 341 -863 
Q 341 -700 445 -579 
Q 550 -459 709 -459 
Q 816 -459 887 -523 
Q 959 -588 959 -691 
Q 959 -828 857 -942 
Q 756 -1056 622 -1056 
z
" transform="scale(0.015625)"/>
      <path id="Cmr10-28" d="M 1984 -1588 
Q 1628 -1306 1370 -942 
Q 1113 -578 948 -165 
Q 784 247 703 697 
Q 622 1147 622 1600 
Q 622 2059 703 2509 
Q 784 2959 951 3375 
Q 1119 3791 1378 4153 
Q 1638 4516 1984 4788 
Q 1984 4800 2016 4800 
L 2075 4800 
Q 2094 4800 2109 4783 
Q 2125 4766 2125 4744 
Q 2125 4716 2113 4703 
Q 1800 4397 1592 4047 
Q 1384 3697 1257 3301 
Q 1131 2906 1075 2482 
Q 1019 2059 1019 1600 
Q 1019 -434 2106 -1491 
Q 2125 -1509 2125 -1544 
Q 2125 -1559 2108 -1579 
Q 2091 -1600 2075 -1600 
L 2016 -1600 
Q 1984 -1600 1984 -1588 
z
" transform="scale(0.015625)"/>
      <path id="Cmmi10-52" d="M 313 0 
Q 250 0 250 84 
Q 253 100 262 139 
Q 272 178 289 201 
Q 306 225 331 225 
Q 722 225 878 269 
Q 959 297 997 441 
L 1875 3956 
Q 1888 4019 1888 4044 
Q 1888 4113 1813 4122 
Q 1691 4147 1350 4147 
Q 1288 4147 1288 4231 
Q 1291 4247 1300 4286 
Q 1309 4325 1326 4348 
Q 1344 4372 1369 4372 
L 3309 4372 
Q 3541 4372 3791 4319 
Q 4041 4266 4250 4152 
Q 4459 4038 4593 3848 
Q 4728 3659 4728 3406 
Q 4728 3084 4515 2831 
Q 4303 2578 3978 2408 
Q 3653 2238 3347 2169 
Q 3597 2078 3756 1879 
Q 3916 1681 3916 1422 
Q 3916 1388 3914 1370 
Q 3913 1353 3909 1331 
L 3859 763 
Q 3853 638 3847 550 
Q 3841 463 3841 409 
Q 3841 234 3892 129 
Q 3944 25 4097 25 
Q 4297 25 4448 211 
Q 4600 397 4647 616 
Q 4675 672 4709 672 
L 4769 672 
Q 4831 672 4831 588 
Q 4784 403 4682 237 
Q 4581 72 4426 -34 
Q 4272 -141 4091 -141 
Q 3716 -141 3452 26 
Q 3188 194 3188 550 
Q 3188 684 3213 788 
L 3353 1356 
Q 3378 1434 3378 1538 
Q 3378 1803 3198 1954 
Q 3019 2106 2747 2106 
L 1959 2106 
L 1538 416 
Q 1522 363 1522 325 
Q 1522 259 1600 250 
Q 1722 225 2059 225 
Q 2125 225 2125 141 
Q 2103 50 2090 25 
Q 2078 0 2016 0 
L 313 0 
z
M 1997 2272 
L 2706 2272 
Q 3403 2272 3756 2625 
Q 3919 2788 4014 3039 
Q 4109 3291 4109 3541 
Q 4109 3778 3970 3912 
Q 3831 4047 3626 4097 
Q 3422 4147 3175 4147 
L 2747 4147 
Q 2572 4147 2515 4117 
Q 2459 4088 2413 3928 
L 1997 2272 
z
" transform="scale(0.015625)"/>
      <path id="Cmr10-29" d="M 416 -1600 
Q 359 -1600 359 -1544 
Q 359 -1516 372 -1503 
Q 1466 -434 1466 1600 
Q 1466 3634 384 4691 
Q 359 4706 359 4744 
Q 359 4766 376 4783 
Q 394 4800 416 4800 
L 475 4800 
Q 494 4800 506 4788 
Q 966 4425 1272 3906 
Q 1578 3388 1720 2800 
Q 1863 2213 1863 1600 
Q 1863 1147 1786 708 
Q 1709 269 1542 -157 
Q 1375 -584 1119 -945 
Q 863 -1306 506 -1588 
Q 494 -1600 475 -1600 
L 416 -1600 
z
" transform="scale(0.015625)"/>
     </defs>
     <use xlink:href="#Cmmi10-66"/>
     <use xlink:href="#Cmr10-28" transform="translate(48.876953 0)"/>
     <use xlink:href="#Cmmi10-52" transform="translate(87.695312 0)"/>
     <use xlink:href="#Cmr10-29" transform="translate(163.574219 0)"/>
    </g>
   </g>
  </g>
 </g>
 <defs>
  <clipPath id="p523ae5c344">
   <rect x="7.2" y="7.2" width="229.416972" height="324"/>
  </clipPath>
 </defs>
</svg>
