<?xml version="1.0" encoding="utf-8" standalone="no"?>
<!DOCTYPE svg PUBLIC "-//W3C//DTD SVG 1.1//EN"
  "http://www.w3.org/Graphics/SVG/1.1/DTD/svg11.dtd">
<svg xmlns:xlink="http://www.w3.org/1999/xlink" width="243.826719pt" height="338.4pt" viewBox="0 0 243.826719 338.4" xmlns="http://www.w3.org/2000/svg" version="1.1">
 <metadata>
  <rdf:RDF xmlns:dc="http://purl.org/dc/elements/1.1/" xmlns:cc="http://creativecommons.org/ns#" xmlns:rdf="http://www.w3.org/1999/02/22-rdf-syntax-ns#">
   <cc:Work>
    <dc:type rdf:resource="http://purl.org/dc/dcmitype/StillImage"/>
    <dc:date>2025-01-25T13:58:09.235939</dc:date>
    <dc:format>image/svg+xml</dc:format>
    <dc:creator>
     <cc:Agent>
      <dc:title>Matplotlib v3.6.2, https://matplotlib.org/</dc:title>
     </cc:Agent>
    </dc:creator>
   </cc:Work>
  </rdf:RDF>
 </metadata>
 <defs>
  <style type="text/css">*{stroke-linejoin: round; stroke-linecap: butt}</style>
 </defs>
 <g id="figure_1">
  <g id="patch_1">
   <path d="M 0 338.4 
L 243.826719 338.4 
L 243.826719 0 
L 0 0 
z
" style="fill: #ffffff"/>
  </g>
  <g id="axes_1">
   <g id="patch_2">
    <path d="M 7.2 331.2 
L 236.626719 331.2 
L 236.626719 7.2 
L 7.2 7.2 
z
" style="fill: #ffffff"/>
   </g>
   <g id="PathCollection_1">
    <path d="M 87.085528 151.01115 
L 87.937329 151.319268 
L 88.043893 150.985591 
L 88.729223 150.027314 
L 88.78913 149.974592 
L 89.327755 149.069038 
L 89.640931 148.668341 
L 89.95248 148.110762 
L 90.492732 147.31655 
L 90.583088 147.152486 
L 91.196992 146.194209 
L 91.344533 145.984819 
L 91.80886 145.235933 
L 92.196334 144.656818 
L 92.428146 144.277657 
L 93.048135 143.32417 
L 93.05106 143.319381 
L 93.660819 142.361104 
L 93.899936 141.997046 
L 94.276048 141.402828 
L 94.751738 140.669264 
L 94.894437 140.444552 
L 95.510774 139.486276 
L 95.603539 139.341935 
L 96.124613 138.527999 
L 96.45534 138.011758 
L 96.740883 137.569723 
L 97.307141 136.688926 
L 97.357949 136.611447 
L 97.972835 135.653171 
L 98.158942 135.356655 
L 98.588643 134.694894 
L 99.010743 134.028886 
L 99.204646 133.736618 
L 99.819698 132.778342 
L 99.862544 132.707847 
L 100.436621 131.820066 
L 100.714345 131.370148 
L 101.053162 130.861789 
L 101.566146 130.049312 
L 101.667276 129.903513 
L 102.283521 128.945237 
L 102.417948 128.716594 
L 102.90295 127.986961 
L 103.269749 127.38169 
L 103.519043 127.028684 
L 104.12155 126.077378 
L 104.126918 126.070408 
L 104.753765 125.112132 
L 104.973351 124.70949 
L 105.379184 124.153856 
L 105.825152 123.382944 
L 105.994147 123.195579 
L 106.606187 122.237303 
L 106.676953 121.973164 
L 107.396235 121.279027 
L 106.676953 120.659394 
L 106.46057 120.320751 
L 105.825152 120.049962 
L 104.973351 119.519799 
L 104.771354 119.362474 
L 104.12155 119.045386 
L 103.269749 118.57059 
L 103.002442 118.404198 
L 102.417948 118.131245 
L 101.566146 117.703824 
L 101.076193 117.445922 
L 100.714345 117.290986 
L 99.862544 116.90685 
L 99.010743 116.520501 
L 98.940642 116.487646 
L 98.158942 116.172926 
L 97.307141 115.830919 
L 96.547776 115.529369 
L 96.45534 115.496954 
L 95.603539 115.195001 
L 94.751738 114.899656 
L 93.899936 114.612535 
L 93.775109 114.571093 
L 93.048135 114.352018 
L 92.196334 114.103471 
L 91.344533 113.864794 
L 90.492732 113.636785 
L 90.399665 113.612817 
L 89.640931 113.43211 
L 88.78913 113.239657 
L 87.937329 113.058421 
L 87.085528 112.888834 
L 86.233726 112.731254 
L 85.785211 112.654541 
L 85.381925 112.589755 
L 84.530124 112.464244 
L 83.678323 112.350702 
L 82.826522 112.249333 
L 81.974721 112.160304 
L 81.12292 112.083757 
L 80.271119 112.019806 
L 79.419318 111.968542 
L 78.567516 111.930036 
L 77.715715 111.904342 
L 76.863914 111.891497 
L 76.012113 111.891519 
L 75.160312 111.904414 
L 74.308511 111.930166 
L 73.45671 111.968746 
L 72.604909 112.020101 
L 71.753108 112.084156 
L 70.901306 112.160808 
L 70.049505 112.249922 
L 69.197704 112.35132 
L 68.345903 112.464776 
L 67.494102 112.59 
L 67.085708 112.654541 
L 66.642301 112.731604 
L 65.7905 112.889852 
L 64.938699 113.059982 
L 64.086898 113.241425 
L 63.235096 113.433435 
L 62.47337 113.612817 
L 62.383295 113.63705 
L 61.531494 113.86728 
L 60.679693 114.107272 
L 59.827892 114.355219 
L 59.094424 114.571093 
L 58.976091 114.613548 
L 58.12429 114.906452 
L 57.272489 115.203566 
L 56.420688 115.498522 
L 56.31525 115.529369 
L 55.568886 115.84791 
L 54.717085 116.197577 
L 53.915098 116.487646 
L 53.865284 116.530548 
L 53.013483 117.124129 
L 52.509313 117.445922 
L 53.013483 117.775662 
L 53.16617 118.404198 
L 53.610266 119.362474 
L 53.865284 119.802141 
L 54.059445 120.320751 
L 54.500347 121.279027 
L 54.717085 121.692276 
L 54.941541 122.237303 
L 55.382131 123.195579 
L 55.568886 123.566299 
L 55.821319 124.153856 
L 56.261622 125.112132 
L 56.420688 125.435185 
L 56.700247 126.070408 
L 57.140129 127.028684 
L 57.272489 127.301771 
L 57.578783 127.986961 
L 58.018096 128.945237 
L 58.12429 129.167097 
L 58.457122 129.903513 
L 58.89571 130.861789 
L 58.976091 131.031611 
L 59.335368 131.820066 
L 59.77305 132.778342 
L 59.827892 132.895499 
L 60.213588 133.736618 
L 60.650142 134.694894 
L 60.679693 134.758786 
L 61.091838 135.653171 
L 61.526977 136.611447 
L 61.531494 136.621354 
L 61.970182 137.569723 
L 62.383295 138.482368 
L 62.404555 138.527999 
L 62.848709 139.486276 
L 63.235096 140.344417 
L 63.282641 140.444552 
L 63.727571 141.402828 
L 64.086898 142.208263 
L 64.161219 142.361104 
L 64.60708 143.319381 
L 64.938699 144.075047 
L 65.0407 144.277657 
L 65.488024 145.235933 
L 65.7905 145.948124 
L 65.922376 146.194209 
L 66.373187 147.152486 
L 66.642301 147.841661 
L 66.813292 148.110762 
L 67.284892 149.069038 
L 67.494102 149.980985 
L 68.345903 149.804744 
L 69.197704 149.430527 
L 70.049505 149.104893 
L 70.139163 149.069038 
L 70.901306 148.856126 
L 71.753108 148.640652 
L 72.604909 148.461688 
L 73.45671 148.320711 
L 74.308511 148.216851 
L 75.160312 148.14868 
L 76.012113 148.114957 
L 76.863914 148.114952 
L 77.715715 148.148553 
L 78.567516 148.216259 
L 79.419318 148.319085 
L 80.271119 148.458346 
L 81.12292 148.635262 
L 81.974721 148.850262 
L 82.724245 149.069038 
L 82.826522 149.102475 
L 83.678323 149.399675 
L 84.530124 149.736623 
L 85.241682 150.027314 
L 85.381925 150.110646 
L 86.233726 150.572369 
L 87.074156 150.985591 
z
" clip-path="url(#p375a37045a)" style="fill: #add8e6"/>
   </g>
   <g id="PathCollection_2">
    <path d="M 87.085528 151.01115 
L 87.937329 151.319268 
L 88.043893 150.985591 
L 88.729223 150.027314 
L 88.78913 149.974592 
L 89.327755 149.069038 
L 89.640931 148.668341 
L 89.95248 148.110762 
L 90.492732 147.31655 
L 90.583088 147.152486 
L 91.196992 146.194209 
L 91.344533 145.984819 
L 91.80886 145.235933 
L 92.196334 144.656818 
L 92.428146 144.277657 
L 93.048135 143.32417 
L 93.05106 143.319381 
L 93.660819 142.361104 
L 93.899936 141.997046 
L 94.276048 141.402828 
L 94.751738 140.669264 
L 94.894437 140.444552 
L 95.510774 139.486276 
L 95.603539 139.341935 
L 96.124613 138.527999 
L 96.45534 138.011758 
L 96.740883 137.569723 
L 97.307141 136.688926 
L 97.357949 136.611447 
L 97.972835 135.653171 
L 98.158942 135.356655 
L 98.588643 134.694894 
L 99.010743 134.028886 
L 99.204646 133.736618 
L 99.819698 132.778342 
L 99.862544 132.707847 
L 100.436621 131.820066 
L 100.714345 131.370148 
L 101.053162 130.861789 
L 101.566146 130.049312 
L 101.667276 129.903513 
L 102.283521 128.945237 
L 102.417948 128.716594 
L 102.90295 127.986961 
L 103.269749 127.38169 
L 103.519043 127.028684 
L 104.12155 126.077378 
L 104.126918 126.070408 
L 104.753765 125.112132 
L 104.973351 124.70949 
L 105.379184 124.153856 
L 105.825152 123.382944 
L 105.994147 123.195579 
L 106.606187 122.237303 
L 106.676953 121.973164 
L 107.396235 121.279027 
L 106.676953 120.659394 
L 106.46057 120.320751 
L 105.825152 120.049962 
L 104.973351 119.519799 
L 104.771354 119.362474 
L 104.12155 119.045386 
L 103.269749 118.57059 
L 103.002442 118.404198 
L 102.417948 118.131245 
L 101.566146 117.703824 
L 101.076193 117.445922 
L 100.714345 117.290986 
L 99.862544 116.90685 
L 99.010743 116.520501 
L 98.940642 116.487646 
L 98.158942 116.172926 
L 97.307141 115.830919 
L 96.547776 115.529369 
L 96.45534 115.496954 
L 95.603539 115.195001 
L 94.751738 114.899656 
L 93.899936 114.612535 
L 93.775109 114.571093 
L 93.048135 114.352018 
L 92.196334 114.103471 
L 91.344533 113.864794 
L 90.492732 113.636785 
L 90.399665 113.612817 
L 89.640931 113.43211 
L 88.78913 113.239657 
L 87.937329 113.058421 
L 87.085528 112.888834 
L 86.233726 112.731254 
L 85.785211 112.654541 
L 85.381925 112.589755 
L 84.530124 112.464244 
L 83.678323 112.350702 
L 82.826522 112.249333 
L 81.974721 112.160304 
L 81.12292 112.083757 
L 80.271119 112.019806 
L 79.419318 111.968542 
L 78.567516 111.930036 
L 77.715715 111.904342 
L 76.863914 111.891497 
L 76.012113 111.891519 
L 75.160312 111.904414 
L 74.308511 111.930166 
L 73.45671 111.968746 
L 72.604909 112.020101 
L 71.753108 112.084156 
L 70.901306 112.160808 
L 70.049505 112.249922 
L 69.197704 112.35132 
L 68.345903 112.464776 
L 67.494102 112.59 
L 67.085708 112.654541 
L 66.642301 112.731604 
L 65.7905 112.889852 
L 64.938699 113.059982 
L 64.086898 113.241425 
L 63.235096 113.433435 
L 62.47337 113.612817 
L 62.383295 113.63705 
L 61.531494 113.86728 
L 60.679693 114.107272 
L 59.827892 114.355219 
L 59.094424 114.571093 
L 58.976091 114.613548 
L 58.12429 114.906452 
L 57.272489 115.203566 
L 56.420688 115.498522 
L 56.31525 115.529369 
L 55.568886 115.84791 
L 54.717085 116.197577 
L 53.915098 116.487646 
L 53.865284 116.530548 
L 53.013483 117.124129 
L 52.509313 117.445922 
L 53.013483 117.775662 
L 53.16617 118.404198 
L 53.610266 119.362474 
L 53.865284 119.802141 
L 54.059445 120.320751 
L 54.500347 121.279027 
L 54.717085 121.692276 
L 54.941541 122.237303 
L 55.382131 123.195579 
L 55.568886 123.566299 
L 55.821319 124.153856 
L 56.261622 125.112132 
L 56.420688 125.435185 
L 56.700247 126.070408 
L 57.140129 127.028684 
L 57.272489 127.301771 
L 57.578783 127.986961 
L 58.018096 128.945237 
L 58.12429 129.167097 
L 58.457122 129.903513 
L 58.89571 130.861789 
L 58.976091 131.031611 
L 59.335368 131.820066 
L 59.77305 132.778342 
L 59.827892 132.895499 
L 60.213588 133.736618 
L 60.650142 134.694894 
L 60.679693 134.758786 
L 61.091838 135.653171 
L 61.526977 136.611447 
L 61.531494 136.621354 
L 61.970182 137.569723 
L 62.383295 138.482368 
L 62.404555 138.527999 
L 62.848709 139.486276 
L 63.235096 140.344417 
L 63.282641 140.444552 
L 63.727571 141.402828 
L 64.086898 142.208263 
L 64.161219 142.361104 
L 64.60708 143.319381 
L 64.938699 144.075047 
L 65.0407 144.277657 
L 65.488024 145.235933 
L 65.7905 145.948124 
L 65.922376 146.194209 
L 66.373187 147.152486 
L 66.642301 147.841661 
L 66.813292 148.110762 
L 67.284892 149.069038 
L 67.494102 149.980985 
L 68.345903 149.804744 
L 69.197704 149.430527 
L 70.049505 149.104893 
L 70.139163 149.069038 
L 70.901306 148.856126 
L 71.753108 148.640652 
L 72.604909 148.461688 
L 73.45671 148.320711 
L 74.308511 148.216851 
L 75.160312 148.14868 
L 76.012113 148.114957 
L 76.863914 148.114952 
L 77.715715 148.148553 
L 78.567516 148.216259 
L 79.419318 148.319085 
L 80.271119 148.458346 
L 81.12292 148.635262 
L 81.974721 148.850262 
L 82.724245 149.069038 
L 82.826522 149.102475 
L 83.678323 149.399675 
L 84.530124 149.736623 
L 85.241682 150.027314 
L 85.381925 150.110646 
L 86.233726 150.572369 
L 87.074156 150.985591 
z
M 87.074156 150.985591 
L 86.233726 150.572369 
L 85.381925 150.110646 
L 85.241682 150.027314 
L 84.530124 149.736623 
L 83.678323 149.399675 
L 82.826522 149.102475 
L 82.724245 149.069038 
L 81.974721 148.850262 
L 81.12292 148.635262 
L 80.271119 148.458346 
L 79.419318 148.319085 
L 78.567516 148.216259 
L 77.715715 148.148553 
L 76.863914 148.114952 
L 76.012113 148.114957 
L 75.160312 148.14868 
L 74.308511 148.216851 
L 73.45671 148.320711 
L 72.604909 148.461688 
L 71.753108 148.640652 
L 70.901306 148.856126 
L 70.139163 149.069038 
L 70.049505 149.104893 
L 69.197704 149.430527 
L 68.345903 149.804744 
L 67.494102 149.980985 
L 67.284892 149.069038 
L 66.813292 148.110762 
L 66.642301 147.841661 
L 66.373187 147.152486 
L 65.922376 146.194209 
L 65.7905 145.948124 
L 65.488024 145.235933 
L 65.0407 144.277657 
L 64.938699 144.075047 
L 64.60708 143.319381 
L 64.161219 142.361104 
L 64.086898 142.208263 
L 63.727571 141.402828 
L 63.282641 140.444552 
L 63.235096 140.344417 
L 62.848709 139.486276 
L 62.404555 138.527999 
L 62.383295 138.482368 
L 61.970182 137.569723 
L 61.531494 136.621354 
L 61.526977 136.611447 
L 61.091838 135.653171 
L 60.679693 134.758786 
L 60.650142 134.694894 
L 60.213588 133.736618 
L 59.827892 132.895499 
L 59.77305 132.778342 
L 59.335368 131.820066 
L 58.976091 131.031611 
L 58.89571 130.861789 
L 58.457122 129.903513 
L 58.12429 129.167097 
L 58.018096 128.945237 
L 57.578783 127.986961 
L 57.272489 127.301771 
L 57.140129 127.028684 
L 56.700247 126.070408 
L 56.420688 125.435185 
L 56.261622 125.112132 
L 55.821319 124.153856 
L 55.568886 123.566299 
L 55.382131 123.195579 
L 54.941541 122.237303 
L 54.717085 121.692276 
L 54.500347 121.279027 
L 54.059445 120.320751 
L 53.865284 119.802141 
L 53.610266 119.362474 
L 53.16617 118.404198 
L 53.013483 117.775662 
L 52.509313 117.445922 
L 53.013483 117.124129 
L 53.865284 116.530548 
L 53.915098 116.487646 
L 54.717085 116.197577 
L 55.568886 115.84791 
L 56.31525 115.529369 
L 56.420688 115.498522 
L 57.272489 115.203566 
L 58.12429 114.906452 
L 58.976091 114.613548 
L 59.094424 114.571093 
L 59.827892 114.355219 
L 60.679693 114.107272 
L 61.531494 113.86728 
L 62.383295 113.63705 
L 62.47337 113.612817 
L 63.235096 113.433435 
L 64.086898 113.241425 
L 64.938699 113.059982 
L 65.7905 112.889852 
L 66.642301 112.731604 
L 67.085708 112.654541 
L 67.494102 112.59 
L 68.345903 112.464776 
L 69.197704 112.35132 
L 70.049505 112.249922 
L 70.901306 112.160808 
L 71.753108 112.084156 
L 72.604909 112.020101 
L 73.45671 111.968746 
L 74.308511 111.930166 
L 75.160312 111.904414 
L 76.012113 111.891519 
L 76.863914 111.891497 
L 77.715715 111.904342 
L 78.567516 111.930036 
L 79.419318 111.968542 
L 80.271119 112.019806 
L 81.12292 112.083757 
L 81.974721 112.160304 
L 82.826522 112.249333 
L 83.678323 112.350702 
L 84.530124 112.464244 
L 85.381925 112.589755 
L 85.785211 112.654541 
L 86.233726 112.731254 
L 87.085528 112.888834 
L 87.937329 113.058421 
L 88.78913 113.239657 
L 89.640931 113.43211 
L 90.399665 113.612817 
L 90.492732 113.636785 
L 91.344533 113.864794 
L 92.196334 114.103471 
L 93.048135 114.352018 
L 93.775109 114.571093 
L 93.899936 114.612535 
L 94.751738 114.899656 
L 95.603539 115.195001 
L 96.45534 115.496954 
L 96.547776 115.529369 
L 97.307141 115.830919 
L 98.158942 116.172926 
L 98.940642 116.487646 
L 99.010743 116.520501 
L 99.862544 116.90685 
L 100.714345 117.290986 
L 101.076193 117.445922 
L 101.566146 117.703824 
L 102.417948 118.131245 
L 103.002442 118.404198 
L 103.269749 118.57059 
L 104.12155 119.045386 
L 104.771354 119.362474 
L 104.973351 119.519799 
L 105.825152 120.049962 
L 106.46057 120.320751 
L 106.676953 120.659394 
L 107.396235 121.279027 
L 106.676953 121.973164 
L 106.606187 122.237303 
L 105.994147 123.195579 
L 105.825152 123.382944 
L 105.379184 124.153856 
L 104.973351 124.70949 
L 104.753765 125.112132 
L 104.126918 126.070408 
L 104.12155 126.077378 
L 103.519043 127.028684 
L 103.269749 127.38169 
L 102.90295 127.986961 
L 102.417948 128.716594 
L 102.283521 128.945237 
L 101.667276 129.903513 
L 101.566146 130.049312 
L 101.053162 130.861789 
L 100.714345 131.370148 
L 100.436621 131.820066 
L 99.862544 132.707847 
L 99.819698 132.778342 
L 99.204646 133.736618 
L 99.010743 134.028886 
L 98.588643 134.694894 
L 98.158942 135.356655 
L 97.972835 135.653171 
L 97.357949 136.611447 
L 97.307141 136.688926 
L 96.740883 137.569723 
L 96.45534 138.011758 
L 96.124613 138.527999 
L 95.603539 139.341935 
L 95.510774 139.486276 
L 94.894437 140.444552 
L 94.751738 140.669264 
L 94.276048 141.402828 
L 93.899936 141.997046 
L 93.660819 142.361104 
L 93.05106 143.319381 
L 93.048135 143.32417 
L 92.428146 144.277657 
L 92.196334 144.656818 
L 91.80886 145.235933 
L 91.344533 145.984819 
L 91.196992 146.194209 
L 90.583088 147.152486 
L 90.492732 147.31655 
L 89.95248 148.110762 
L 89.640931 148.668341 
L 89.327755 149.069038 
L 88.78913 149.974592 
L 88.729223 150.027314 
L 88.043893 150.985591 
L 87.937329 151.319268 
L 87.085528 151.01115 
z
" clip-path="url(#p375a37045a)" style="fill: #add8e6"/>
   </g>
   <g id="PathCollection_3">
    <path d="M 87.085528 151.01115 
L 87.937329 151.319268 
L 88.043893 150.985591 
L 88.729223 150.027314 
L 88.78913 149.974592 
L 89.327755 149.069038 
L 89.640931 148.668341 
L 89.95248 148.110762 
L 90.492732 147.31655 
L 90.583088 147.152486 
L 91.196992 146.194209 
L 91.344533 145.984819 
L 91.80886 145.235933 
L 92.196334 144.656818 
L 92.428146 144.277657 
L 93.048135 143.32417 
L 93.05106 143.319381 
L 93.660819 142.361104 
L 93.899936 141.997046 
L 94.276048 141.402828 
L 94.751738 140.669264 
L 94.894437 140.444552 
L 95.510774 139.486276 
L 95.603539 139.341935 
L 96.124613 138.527999 
L 96.45534 138.011758 
L 96.740883 137.569723 
L 97.307141 136.688926 
L 97.357949 136.611447 
L 97.972835 135.653171 
L 98.158942 135.356655 
L 98.588643 134.694894 
L 99.010743 134.028886 
L 99.204646 133.736618 
L 99.819698 132.778342 
L 99.862544 132.707847 
L 100.436621 131.820066 
L 100.714345 131.370148 
L 101.053162 130.861789 
L 101.566146 130.049312 
L 101.667276 129.903513 
L 102.283521 128.945237 
L 102.417948 128.716594 
L 102.90295 127.986961 
L 103.269749 127.38169 
L 103.519043 127.028684 
L 104.12155 126.077378 
L 104.126918 126.070408 
L 104.753765 125.112132 
L 104.973351 124.70949 
L 105.379184 124.153856 
L 105.825152 123.382944 
L 105.994147 123.195579 
L 106.606187 122.237303 
L 106.676953 121.973164 
L 107.396235 121.279027 
L 106.676953 120.659394 
L 106.46057 120.320751 
L 105.825152 120.049962 
L 104.973351 119.519799 
L 104.771354 119.362474 
L 104.12155 119.045386 
L 103.269749 118.57059 
L 103.002442 118.404198 
L 102.417948 118.131245 
L 101.566146 117.703824 
L 101.076193 117.445922 
L 100.714345 117.290986 
L 99.862544 116.90685 
L 99.010743 116.520501 
L 98.940642 116.487646 
L 98.158942 116.172926 
L 97.307141 115.830919 
L 96.547776 115.529369 
L 96.45534 115.496954 
L 95.603539 115.195001 
L 94.751738 114.899656 
L 93.899936 114.612535 
L 93.775109 114.571093 
L 93.048135 114.352018 
L 92.196334 114.103471 
L 91.344533 113.864794 
L 90.492732 113.636785 
L 90.399665 113.612817 
L 89.640931 113.43211 
L 88.78913 113.239657 
L 87.937329 113.058421 
L 87.085528 112.888834 
L 86.233726 112.731254 
L 85.785211 112.654541 
L 85.381925 112.589755 
L 84.530124 112.464244 
L 83.678323 112.350702 
L 82.826522 112.249333 
L 81.974721 112.160304 
L 81.12292 112.083757 
L 80.271119 112.019806 
L 79.419318 111.968542 
L 78.567516 111.930036 
L 77.715715 111.904342 
L 76.863914 111.891497 
L 76.012113 111.891519 
L 75.160312 111.904414 
L 74.308511 111.930166 
L 73.45671 111.968746 
L 72.604909 112.020101 
L 71.753108 112.084156 
L 70.901306 112.160808 
L 70.049505 112.249922 
L 69.197704 112.35132 
L 68.345903 112.464776 
L 67.494102 112.59 
L 67.085708 112.654541 
L 66.642301 112.731604 
L 65.7905 112.889852 
L 64.938699 113.059982 
L 64.086898 113.241425 
L 63.235096 113.433435 
L 62.47337 113.612817 
L 62.383295 113.63705 
L 61.531494 113.86728 
L 60.679693 114.107272 
L 59.827892 114.355219 
L 59.094424 114.571093 
L 58.976091 114.613548 
L 58.12429 114.906452 
L 57.272489 115.203566 
L 56.420688 115.498522 
L 56.31525 115.529369 
L 55.568886 115.84791 
L 54.717085 116.197577 
L 53.915098 116.487646 
L 53.865284 116.530548 
L 53.013483 117.124129 
L 52.509313 117.445922 
L 53.013483 117.775662 
L 53.16617 118.404198 
L 53.610266 119.362474 
L 53.865284 119.802141 
L 54.059445 120.320751 
L 54.500347 121.279027 
L 54.717085 121.692276 
L 54.941541 122.237303 
L 55.382131 123.195579 
L 55.568886 123.566299 
L 55.821319 124.153856 
L 56.261622 125.112132 
L 56.420688 125.435185 
L 56.700247 126.070408 
L 57.140129 127.028684 
L 57.272489 127.301771 
L 57.578783 127.986961 
L 58.018096 128.945237 
L 58.12429 129.167097 
L 58.457122 129.903513 
L 58.89571 130.861789 
L 58.976091 131.031611 
L 59.335368 131.820066 
L 59.77305 132.778342 
L 59.827892 132.895499 
L 60.213588 133.736618 
L 60.650142 134.694894 
L 60.679693 134.758786 
L 61.091838 135.653171 
L 61.526977 136.611447 
L 61.531494 136.621354 
L 61.970182 137.569723 
L 62.383295 138.482368 
L 62.404555 138.527999 
L 62.848709 139.486276 
L 63.235096 140.344417 
L 63.282641 140.444552 
L 63.727571 141.402828 
L 64.086898 142.208263 
L 64.161219 142.361104 
L 64.60708 143.319381 
L 64.938699 144.075047 
L 65.0407 144.277657 
L 65.488024 145.235933 
L 65.7905 145.948124 
L 65.922376 146.194209 
L 66.373187 147.152486 
L 66.642301 147.841661 
L 66.813292 148.110762 
L 67.284892 149.069038 
L 67.494102 149.980985 
L 68.345903 149.804744 
L 69.197704 149.430527 
L 70.049505 149.104893 
L 70.139163 149.069038 
L 70.901306 148.856126 
L 71.753108 148.640652 
L 72.604909 148.461688 
L 73.45671 148.320711 
L 74.308511 148.216851 
L 75.160312 148.14868 
L 76.012113 148.114957 
L 76.863914 148.114952 
L 77.715715 148.148553 
L 78.567516 148.216259 
L 79.419318 148.319085 
L 80.271119 148.458346 
L 81.12292 148.635262 
L 81.974721 148.850262 
L 82.724245 149.069038 
L 82.826522 149.102475 
L 83.678323 149.399675 
L 84.530124 149.736623 
L 85.241682 150.027314 
L 85.381925 150.110646 
L 86.233726 150.572369 
L 87.074156 150.985591 
z
M 87.074156 150.985591 
L 86.233726 150.572369 
L 85.381925 150.110646 
L 85.241682 150.027314 
L 84.530124 149.736623 
L 83.678323 149.399675 
L 82.826522 149.102475 
L 82.724245 149.069038 
L 81.974721 148.850262 
L 81.12292 148.635262 
L 80.271119 148.458346 
L 79.419318 148.319085 
L 78.567516 148.216259 
L 77.715715 148.148553 
L 76.863914 148.114952 
L 76.012113 148.114957 
L 75.160312 148.14868 
L 74.308511 148.216851 
L 73.45671 148.320711 
L 72.604909 148.461688 
L 71.753108 148.640652 
L 70.901306 148.856126 
L 70.139163 149.069038 
L 70.049505 149.104893 
L 69.197704 149.430527 
L 68.345903 149.804744 
L 67.494102 149.980985 
L 67.284892 149.069038 
L 66.813292 148.110762 
L 66.642301 147.841661 
L 66.373187 147.152486 
L 65.922376 146.194209 
L 65.7905 145.948124 
L 65.488024 145.235933 
L 65.0407 144.277657 
L 64.938699 144.075047 
L 64.60708 143.319381 
L 64.161219 142.361104 
L 64.086898 142.208263 
L 63.727571 141.402828 
L 63.282641 140.444552 
L 63.235096 140.344417 
L 62.848709 139.486276 
L 62.404555 138.527999 
L 62.383295 138.482368 
L 61.970182 137.569723 
L 61.531494 136.621354 
L 61.526977 136.611447 
L 61.091838 135.653171 
L 60.679693 134.758786 
L 60.650142 134.694894 
L 60.213588 133.736618 
L 59.827892 132.895499 
L 59.77305 132.778342 
L 59.335368 131.820066 
L 58.976091 131.031611 
L 58.89571 130.861789 
L 58.457122 129.903513 
L 58.12429 129.167097 
L 58.018096 128.945237 
L 57.578783 127.986961 
L 57.272489 127.301771 
L 57.140129 127.028684 
L 56.700247 126.070408 
L 56.420688 125.435185 
L 56.261622 125.112132 
L 55.821319 124.153856 
L 55.568886 123.566299 
L 55.382131 123.195579 
L 54.941541 122.237303 
L 54.717085 121.692276 
L 54.500347 121.279027 
L 54.059445 120.320751 
L 53.865284 119.802141 
L 53.610266 119.362474 
L 53.16617 118.404198 
L 53.013483 117.775662 
L 52.509313 117.445922 
L 53.013483 117.124129 
L 53.865284 116.530548 
L 53.915098 116.487646 
L 54.717085 116.197577 
L 55.568886 115.84791 
L 56.31525 115.529369 
L 56.420688 115.498522 
L 57.272489 115.203566 
L 58.12429 114.906452 
L 58.976091 114.613548 
L 59.094424 114.571093 
L 59.827892 114.355219 
L 60.679693 114.107272 
L 61.531494 113.86728 
L 62.383295 113.63705 
L 62.47337 113.612817 
L 63.235096 113.433435 
L 64.086898 113.241425 
L 64.938699 113.059982 
L 65.7905 112.889852 
L 66.642301 112.731604 
L 67.085708 112.654541 
L 67.494102 112.59 
L 68.345903 112.464776 
L 69.197704 112.35132 
L 70.049505 112.249922 
L 70.901306 112.160808 
L 71.753108 112.084156 
L 72.604909 112.020101 
L 73.45671 111.968746 
L 74.308511 111.930166 
L 75.160312 111.904414 
L 76.012113 111.891519 
L 76.863914 111.891497 
L 77.715715 111.904342 
L 78.567516 111.930036 
L 79.419318 111.968542 
L 80.271119 112.019806 
L 81.12292 112.083757 
L 81.974721 112.160304 
L 82.826522 112.249333 
L 83.678323 112.350702 
L 84.530124 112.464244 
L 85.381925 112.589755 
L 85.785211 112.654541 
L 86.233726 112.731254 
L 87.085528 112.888834 
L 87.937329 113.058421 
L 88.78913 113.239657 
L 89.640931 113.43211 
L 90.399665 113.612817 
L 90.492732 113.636785 
L 91.344533 113.864794 
L 92.196334 114.103471 
L 93.048135 114.352018 
L 93.775109 114.571093 
L 93.899936 114.612535 
L 94.751738 114.899656 
L 95.603539 115.195001 
L 96.45534 115.496954 
L 96.547776 115.529369 
L 97.307141 115.830919 
L 98.158942 116.172926 
L 98.940642 116.487646 
L 99.010743 116.520501 
L 99.862544 116.90685 
L 100.714345 117.290986 
L 101.076193 117.445922 
L 101.566146 117.703824 
L 102.417948 118.131245 
L 103.002442 118.404198 
L 103.269749 118.57059 
L 104.12155 119.045386 
L 104.771354 119.362474 
L 104.973351 119.519799 
L 105.825152 120.049962 
L 106.46057 120.320751 
L 106.676953 120.659394 
L 107.396235 121.279027 
L 106.676953 121.973164 
L 106.606187 122.237303 
L 105.994147 123.195579 
L 105.825152 123.382944 
L 105.379184 124.153856 
L 104.973351 124.70949 
L 104.753765 125.112132 
L 104.126918 126.070408 
L 104.12155 126.077378 
L 103.519043 127.028684 
L 103.269749 127.38169 
L 102.90295 127.986961 
L 102.417948 128.716594 
L 102.283521 128.945237 
L 101.667276 129.903513 
L 101.566146 130.049312 
L 101.053162 130.861789 
L 100.714345 131.370148 
L 100.436621 131.820066 
L 99.862544 132.707847 
L 99.819698 132.778342 
L 99.204646 133.736618 
L 99.010743 134.028886 
L 98.588643 134.694894 
L 98.158942 135.356655 
L 97.972835 135.653171 
L 97.357949 136.611447 
L 97.307141 136.688926 
L 96.740883 137.569723 
L 96.45534 138.011758 
L 96.124613 138.527999 
L 95.603539 139.341935 
L 95.510774 139.486276 
L 94.894437 140.444552 
L 94.751738 140.669264 
L 94.276048 141.402828 
L 93.899936 141.997046 
L 93.660819 142.361104 
L 93.05106 143.319381 
L 93.048135 143.32417 
L 92.428146 144.277657 
L 92.196334 144.656818 
L 91.80886 145.235933 
L 91.344533 145.984819 
L 91.196992 146.194209 
L 90.583088 147.152486 
L 90.492732 147.31655 
L 89.95248 148.110762 
L 89.640931 148.668341 
L 89.327755 149.069038 
L 88.78913 149.974592 
L 88.729223 150.027314 
L 88.043893 150.985591 
L 87.937329 151.319268 
L 87.085528 151.01115 
z
" clip-path="url(#p375a37045a)" style="fill: #ffffff"/>
   </g>
   <g id="PathCollection_4">
    <path d="M 35.12566 158.651801 
L 35.977461 158.651801 
L 36.829262 158.651801 
L 37.681063 158.651801 
L 38.532864 158.651801 
L 39.384665 158.651801 
L 40.236467 158.651801 
L 41.088268 158.651801 
L 41.940069 158.651801 
L 42.79187 158.651801 
L 43.643671 158.651801 
L 44.495472 158.651801 
L 45.347273 158.651801 
L 46.199074 158.651801 
L 47.050875 158.651801 
L 47.902677 158.651801 
L 48.754478 158.651801 
L 49.606279 158.651801 
L 50.45808 158.651801 
L 51.309881 158.651801 
L 52.161682 158.651801 
L 53.013483 158.651801 
L 53.865284 158.651801 
L 54.717085 158.651801 
L 55.568886 158.651801 
L 56.420688 158.651801 
L 57.272489 158.651801 
L 58.12429 158.651801 
L 58.976091 158.651801 
L 59.827892 158.651801 
L 60.679693 158.651801 
L 61.531494 158.651801 
L 62.383295 158.651801 
L 63.235096 158.651801 
L 64.086898 158.651801 
L 64.938699 158.651801 
L 65.7905 158.651801 
L 66.642301 158.651801 
L 67.494102 158.651801 
L 68.345903 158.651801 
L 69.197704 158.651801 
L 70.049505 158.651801 
L 70.901306 158.651801 
L 71.753108 158.651801 
L 72.604909 158.651801 
L 73.45671 158.651801 
L 74.308511 158.651801 
L 75.160312 158.651801 
L 76.012113 158.651801 
L 76.863914 158.651801 
L 77.715715 158.651801 
L 78.567516 158.651801 
L 79.419318 158.651801 
L 80.271119 158.651801 
L 81.12292 158.651801 
L 81.974721 158.651801 
L 82.826522 158.651801 
L 83.678323 158.651801 
L 84.530124 158.651801 
L 85.381925 158.651801 
L 86.233726 158.651801 
L 87.085528 158.651801 
L 87.937329 158.651801 
L 88.78913 158.651801 
L 89.640931 158.651801 
L 90.492732 158.651801 
L 91.344533 158.651801 
L 92.196334 158.651801 
L 93.048135 158.651801 
L 93.899936 158.651801 
L 94.751738 158.651801 
L 95.603539 158.651801 
L 96.45534 158.651801 
L 97.307141 158.651801 
L 98.158942 158.651801 
L 99.010743 158.651801 
L 99.862544 158.651801 
L 100.714345 158.651801 
L 101.566146 158.651801 
L 102.417948 158.651801 
L 103.269749 158.651801 
L 104.12155 158.651801 
L 104.973351 158.651801 
L 105.825152 158.651801 
L 106.676953 158.651801 
L 107.528754 158.651801 
L 108.380555 158.651801 
L 109.232356 158.651801 
L 110.084158 158.651801 
L 110.935959 158.651801 
L 111.78776 158.651801 
L 112.639561 158.651801 
L 113.491362 158.651801 
L 114.343163 158.651801 
L 115.194964 158.651801 
L 116.046765 158.651801 
L 116.898566 158.651801 
L 117.750368 158.651801 
L 118.602169 158.651801 
L 118.602169 157.693524 
L 118.602169 156.735248 
L 118.602169 155.776972 
L 118.602169 154.818696 
L 118.602169 153.860419 
L 118.602169 152.902143 
L 118.602169 151.943867 
L 118.602169 150.985591 
L 118.602169 150.027314 
L 118.602169 149.069038 
L 118.602169 148.110762 
L 118.602169 147.152486 
L 118.602169 146.194209 
L 118.602169 145.235933 
L 118.602169 144.277657 
L 118.602169 143.319381 
L 118.602169 142.361104 
L 118.602169 141.402828 
L 118.602169 140.444552 
L 118.602169 139.486276 
L 118.602169 138.527999 
L 118.602169 137.569723 
L 118.602169 136.611447 
L 118.602169 135.653171 
L 118.602169 134.694894 
L 118.602169 133.736618 
L 118.602169 132.778342 
L 118.602169 131.820066 
L 118.602169 130.861789 
L 118.602169 129.903513 
L 118.602169 128.945237 
L 118.602169 127.986961 
L 118.602169 127.028684 
L 118.602169 126.070408 
L 118.602169 125.112132 
L 118.602169 124.153856 
L 118.602169 123.195579 
L 118.602169 122.237303 
L 118.602169 121.279027 
L 118.602169 120.320751 
L 118.602169 119.362474 
L 118.602169 118.404198 
L 118.602169 117.445922 
L 118.602169 116.487646 
L 118.602169 115.529369 
L 118.602169 114.571093 
L 118.602169 113.612817 
L 118.602169 112.654541 
L 118.602169 111.696264 
L 118.602169 110.737988 
L 118.602169 109.779712 
L 118.602169 108.821436 
L 118.602169 107.863159 
L 118.602169 106.904883 
L 118.602169 105.946607 
L 118.602169 104.988331 
L 118.602169 104.030054 
L 118.602169 103.071778 
L 118.602169 102.113502 
L 118.602169 101.155226 
L 118.602169 100.196949 
L 118.602169 99.238673 
L 118.602169 98.280397 
L 118.602169 97.322121 
L 118.602169 96.363844 
L 118.602169 95.405568 
L 118.602169 94.447292 
L 118.602169 93.489016 
L 118.602169 92.530739 
L 118.602169 91.572463 
L 118.602169 90.614187 
L 118.602169 89.655911 
L 118.602169 88.697634 
L 118.602169 87.739358 
L 118.602169 86.781082 
L 118.602169 85.822806 
L 118.602169 84.864529 
L 118.602169 83.906253 
L 118.602169 82.947977 
L 118.602169 81.989701 
L 118.602169 81.031424 
L 118.602169 80.073148 
L 118.602169 79.114872 
L 118.602169 78.156596 
L 118.602169 77.198319 
L 118.602169 76.240043 
L 118.602169 75.281767 
L 118.602169 74.323491 
L 118.602169 73.365214 
L 118.602169 72.406938 
L 118.602169 71.448662 
L 118.602169 70.490386 
L 118.602169 69.532109 
L 118.602169 68.573833 
L 118.602169 67.615557 
L 118.602169 66.657281 
L 118.602169 65.699004 
L 118.602169 64.740728 
L 118.602169 63.782452 
L 117.750368 63.782452 
L 116.898566 63.782452 
L 116.046765 63.782452 
L 115.194964 63.782452 
L 114.343163 63.782452 
L 113.491362 63.782452 
L 112.639561 63.782452 
L 111.78776 63.782452 
L 110.935959 63.782452 
L 110.084158 63.782452 
L 109.232356 63.782452 
L 108.380555 63.782452 
L 107.528754 63.782452 
L 106.676953 63.782452 
L 105.825152 63.782452 
L 104.973351 63.782452 
L 104.12155 63.782452 
L 103.269749 63.782452 
L 102.417948 63.782452 
L 101.566146 63.782452 
L 100.714345 63.782452 
L 99.862544 63.782452 
L 99.010743 63.782452 
L 98.158942 63.782452 
L 97.307141 63.782452 
L 96.45534 63.782452 
L 95.603539 63.782452 
L 94.751738 63.782452 
L 93.899936 63.782452 
L 93.048135 63.782452 
L 92.196334 63.782452 
L 91.344533 63.782452 
L 90.492732 63.782452 
L 89.640931 63.782452 
L 88.78913 63.782452 
L 87.937329 63.782452 
L 87.085528 63.782452 
L 86.233726 63.782452 
L 85.381925 63.782452 
L 84.530124 63.782452 
L 83.678323 63.782452 
L 82.826522 63.782452 
L 81.974721 63.782452 
L 81.12292 63.782452 
L 80.271119 63.782452 
L 79.419318 63.782452 
L 78.567516 63.782452 
L 77.715715 63.782452 
L 76.863914 63.782452 
L 76.012113 63.782452 
L 75.160312 63.782452 
L 74.308511 63.782452 
L 73.45671 63.782452 
L 72.604909 63.782452 
L 71.753108 63.782452 
L 70.901306 63.782452 
L 70.049505 63.782452 
L 69.197704 63.782452 
L 68.345903 63.782452 
L 67.494102 63.782452 
L 66.642301 63.782452 
L 65.7905 63.782452 
L 64.938699 63.782452 
L 64.086898 63.782452 
L 63.235096 63.782452 
L 62.383295 63.782452 
L 61.531494 63.782452 
L 60.679693 63.782452 
L 59.827892 63.782452 
L 58.976091 63.782452 
L 58.12429 63.782452 
L 57.272489 63.782452 
L 56.420688 63.782452 
L 55.568886 63.782452 
L 54.717085 63.782452 
L 53.865284 63.782452 
L 53.013483 63.782452 
L 52.161682 63.782452 
L 51.309881 63.782452 
L 50.45808 63.782452 
L 49.606279 63.782452 
L 48.754478 63.782452 
L 47.902677 63.782452 
L 47.050875 63.782452 
L 46.199074 63.782452 
L 45.347273 63.782452 
L 44.495472 63.782452 
L 43.643671 63.782452 
L 42.79187 63.782452 
L 41.940069 63.782452 
L 41.088268 63.782452 
L 40.236467 63.782452 
L 39.384665 63.782452 
L 38.532864 63.782452 
L 37.681063 63.782452 
L 36.829262 63.782452 
L 35.977461 63.782452 
L 35.12566 63.782452 
L 34.273859 63.782452 
L 34.273859 64.740728 
L 34.273859 65.699004 
L 34.273859 66.657281 
L 34.273859 67.615557 
L 34.273859 68.573833 
L 34.273859 69.532109 
L 34.273859 70.490386 
L 34.273859 71.448662 
L 34.273859 72.406938 
L 34.273859 73.365214 
L 34.273859 74.323491 
L 34.273859 75.281767 
L 34.273859 76.240043 
L 34.273859 77.198319 
L 34.273859 78.156596 
L 34.273859 79.114872 
L 34.273859 80.073148 
L 34.273859 81.031424 
L 34.273859 81.989701 
L 34.273859 82.947977 
L 34.273859 83.906253 
L 34.273859 84.864529 
L 34.273859 85.822806 
L 34.273859 86.781082 
L 34.273859 87.739358 
L 34.273859 88.697634 
L 34.273859 89.655911 
L 34.273859 90.614187 
L 34.273859 91.572463 
L 34.273859 92.530739 
L 34.273859 93.489016 
L 34.273859 94.447292 
L 34.273859 95.405568 
L 34.273859 96.363844 
L 34.273859 97.322121 
L 34.273859 98.280397 
L 34.273859 99.238673 
L 34.273859 100.196949 
L 34.273859 101.155226 
L 34.273859 102.113502 
L 34.273859 103.071778 
L 34.273859 104.030054 
L 34.273859 104.988331 
L 34.273859 105.946607 
L 34.273859 106.904883 
L 34.273859 107.863159 
L 34.273859 108.821436 
L 34.273859 109.779712 
L 34.273859 110.737988 
L 34.273859 111.696264 
L 34.273859 112.654541 
L 34.273859 113.612817 
L 34.273859 114.571093 
L 34.273859 115.529369 
L 34.273859 116.487646 
L 34.273859 117.445922 
L 34.273859 118.404198 
L 34.273859 119.362474 
L 34.273859 120.320751 
L 34.273859 121.279027 
L 34.273859 122.237303 
L 34.273859 123.195579 
L 34.273859 124.153856 
L 34.273859 125.112132 
L 34.273859 126.070408 
L 34.273859 127.028684 
L 34.273859 127.986961 
L 34.273859 128.945237 
L 34.273859 129.903513 
L 34.273859 130.861789 
L 34.273859 131.820066 
L 34.273859 132.778342 
L 34.273859 133.736618 
L 34.273859 134.694894 
L 34.273859 135.653171 
L 34.273859 136.611447 
L 34.273859 137.569723 
L 34.273859 138.527999 
L 34.273859 139.486276 
L 34.273859 140.444552 
L 34.273859 141.402828 
L 34.273859 142.361104 
L 34.273859 143.319381 
L 34.273859 144.277657 
L 34.273859 145.235933 
L 34.273859 146.194209 
L 34.273859 147.152486 
L 34.273859 148.110762 
L 34.273859 149.069038 
L 34.273859 150.027314 
L 34.273859 150.985591 
L 34.273859 151.943867 
L 34.273859 152.902143 
L 34.273859 153.860419 
L 34.273859 154.818696 
L 34.273859 155.776972 
L 34.273859 156.735248 
L 34.273859 157.693524 
L 34.273859 158.651801 
L 35.12566 158.651801 
z
M 87.074156 150.985591 
L 86.233726 150.572369 
L 85.381925 150.110646 
L 85.241682 150.027314 
L 84.530124 149.736623 
L 83.678323 149.399675 
L 82.826522 149.102475 
L 82.724245 149.069038 
L 81.974721 148.850262 
L 81.12292 148.635262 
L 80.271119 148.458346 
L 79.419318 148.319085 
L 78.567516 148.216259 
L 77.715715 148.148553 
L 76.863914 148.114952 
L 76.012113 148.114957 
L 75.160312 148.14868 
L 74.308511 148.216851 
L 73.45671 148.320711 
L 72.604909 148.461688 
L 71.753108 148.640652 
L 70.901306 148.856126 
L 70.139163 149.069038 
L 70.049505 149.104893 
L 69.197704 149.430527 
L 68.345903 149.804744 
L 67.494102 149.980985 
L 67.284892 149.069038 
L 66.813292 148.110762 
L 66.642301 147.841661 
L 66.373187 147.152486 
L 65.922376 146.194209 
L 65.7905 145.948124 
L 65.488024 145.235933 
L 65.0407 144.277657 
L 64.938699 144.075047 
L 64.60708 143.319381 
L 64.161219 142.361104 
L 64.086898 142.208263 
L 63.727571 141.402828 
L 63.282641 140.444552 
L 63.235096 140.344417 
L 62.848709 139.486276 
L 62.404555 138.527999 
L 62.383295 138.482368 
L 61.970182 137.569723 
L 61.531494 136.621354 
L 61.526977 136.611447 
L 61.091838 135.653171 
L 60.679693 134.758786 
L 60.650142 134.694894 
L 60.213588 133.736618 
L 59.827892 132.895499 
L 59.77305 132.778342 
L 59.335368 131.820066 
L 58.976091 131.031611 
L 58.89571 130.861789 
L 58.457122 129.903513 
L 58.12429 129.167097 
L 58.018096 128.945237 
L 57.578783 127.986961 
L 57.272489 127.301771 
L 57.140129 127.028684 
L 56.700247 126.070408 
L 56.420688 125.435185 
L 56.261622 125.112132 
L 55.821319 124.153856 
L 55.568886 123.566299 
L 55.382131 123.195579 
L 54.941541 122.237303 
L 54.717085 121.692276 
L 54.500347 121.279027 
L 54.059445 120.320751 
L 53.865284 119.802141 
L 53.610266 119.362474 
L 53.16617 118.404198 
L 53.013483 117.775662 
L 52.509313 117.445922 
L 53.013483 117.124129 
L 53.865284 116.530548 
L 53.915098 116.487646 
L 54.717085 116.197577 
L 55.568886 115.84791 
L 56.31525 115.529369 
L 56.420688 115.498522 
L 57.272489 115.203566 
L 58.12429 114.906452 
L 58.976091 114.613548 
L 59.094424 114.571093 
L 59.827892 114.355219 
L 60.679693 114.107272 
L 61.531494 113.86728 
L 62.383295 113.63705 
L 62.47337 113.612817 
L 63.235096 113.433435 
L 64.086898 113.241425 
L 64.938699 113.059982 
L 65.7905 112.889852 
L 66.642301 112.731604 
L 67.085708 112.654541 
L 67.494102 112.59 
L 68.345903 112.464776 
L 69.197704 112.35132 
L 70.049505 112.249922 
L 70.901306 112.160808 
L 71.753108 112.084156 
L 72.604909 112.020101 
L 73.45671 111.968746 
L 74.308511 111.930166 
L 75.160312 111.904414 
L 76.012113 111.891519 
L 76.863914 111.891497 
L 77.715715 111.904342 
L 78.567516 111.930036 
L 79.419318 111.968542 
L 80.271119 112.019806 
L 81.12292 112.083757 
L 81.974721 112.160304 
L 82.826522 112.249333 
L 83.678323 112.350702 
L 84.530124 112.464244 
L 85.381925 112.589755 
L 85.785211 112.654541 
L 86.233726 112.731254 
L 87.085528 112.888834 
L 87.937329 113.058421 
L 88.78913 113.239657 
L 89.640931 113.43211 
L 90.399665 113.612817 
L 90.492732 113.636785 
L 91.344533 113.864794 
L 92.196334 114.103471 
L 93.048135 114.352018 
L 93.775109 114.571093 
L 93.899936 114.612535 
L 94.751738 114.899656 
L 95.603539 115.195001 
L 96.45534 115.496954 
L 96.547776 115.529369 
L 97.307141 115.830919 
L 98.158942 116.172926 
L 98.940642 116.487646 
L 99.010743 116.520501 
L 99.862544 116.90685 
L 100.714345 117.290986 
L 101.076193 117.445922 
L 101.566146 117.703824 
L 102.417948 118.131245 
L 103.002442 118.404198 
L 103.269749 118.57059 
L 104.12155 119.045386 
L 104.771354 119.362474 
L 104.973351 119.519799 
L 105.825152 120.049962 
L 106.46057 120.320751 
L 106.676953 120.659394 
L 107.396235 121.279027 
L 106.676953 121.973164 
L 106.606187 122.237303 
L 105.994147 123.195579 
L 105.825152 123.382944 
L 105.379184 124.153856 
L 104.973351 124.70949 
L 104.753765 125.112132 
L 104.126918 126.070408 
L 104.12155 126.077378 
L 103.519043 127.028684 
L 103.269749 127.38169 
L 102.90295 127.986961 
L 102.417948 128.716594 
L 102.283521 128.945237 
L 101.667276 129.903513 
L 101.566146 130.049312 
L 101.053162 130.861789 
L 100.714345 131.370148 
L 100.436621 131.820066 
L 99.862544 132.707847 
L 99.819698 132.778342 
L 99.204646 133.736618 
L 99.010743 134.028886 
L 98.588643 134.694894 
L 98.158942 135.356655 
L 97.972835 135.653171 
L 97.357949 136.611447 
L 97.307141 136.688926 
L 96.740883 137.569723 
L 96.45534 138.011758 
L 96.124613 138.527999 
L 95.603539 139.341935 
L 95.510774 139.486276 
L 94.894437 140.444552 
L 94.751738 140.669264 
L 94.276048 141.402828 
L 93.899936 141.997046 
L 93.660819 142.361104 
L 93.05106 143.319381 
L 93.048135 143.32417 
L 92.428146 144.277657 
L 92.196334 144.656818 
L 91.80886 145.235933 
L 91.344533 145.984819 
L 91.196992 146.194209 
L 90.583088 147.152486 
L 90.492732 147.31655 
L 89.95248 148.110762 
L 89.640931 148.668341 
L 89.327755 149.069038 
L 88.78913 149.974592 
L 88.729223 150.027314 
L 88.043893 150.985591 
L 87.937329 151.319268 
L 87.085528 151.01115 
L 87.074156 150.985591 
z
" clip-path="url(#p375a37045a)" style="fill: none"/>
   </g>
   <g id="matplotlib.axis_1">
    <g id="xtick_1">
     <g id="line2d_1">
      <defs>
       <path id="m3321b9ca42" d="M 0 0 
L 0 3.5 
" style="stroke: #000000; stroke-width: 0.8"/>
      </defs>
      <g>
       <use xlink:href="#m3321b9ca42" x="34.273859" y="169.192839" style="stroke: #000000; stroke-width: 0.8"/>
      </g>
     </g>
     <g id="text_1">
      <!-- −2 -->
      <g transform="translate(26.902765 183.791277) scale(0.1 -0.1)">
       <defs>
        <path id="DejaVuSans-2212" d="M 678 2272 
L 4684 2272 
L 4684 1741 
L 678 1741 
L 678 2272 
z
" transform="scale(0.015625)"/>
        <path id="DejaVuSans-32" d="M 1228 531 
L 3431 531 
L 3431 0 
L 469 0 
L 469 531 
Q 828 903 1448 1529 
Q 2069 2156 2228 2338 
Q 2531 2678 2651 2914 
Q 2772 3150 2772 3378 
Q 2772 3750 2511 3984 
Q 2250 4219 1831 4219 
Q 1534 4219 1204 4116 
Q 875 4013 500 3803 
L 500 4441 
Q 881 4594 1212 4672 
Q 1544 4750 1819 4750 
Q 2544 4750 2975 4387 
Q 3406 4025 3406 3419 
Q 3406 3131 3298 2873 
Q 3191 2616 2906 2266 
Q 2828 2175 2409 1742 
Q 1991 1309 1228 531 
z
" transform="scale(0.015625)"/>
       </defs>
       <use xlink:href="#DejaVuSans-2212"/>
       <use xlink:href="#DejaVuSans-32" x="83.789062"/>
      </g>
     </g>
    </g>
    <g id="xtick_2">
     <g id="line2d_2">
      <g>
       <use xlink:href="#m3321b9ca42" x="76.438014" y="169.192839" style="stroke: #000000; stroke-width: 0.8"/>
      </g>
     </g>
    </g>
    <g id="xtick_3">
     <g id="line2d_3">
      <g>
       <use xlink:href="#m3321b9ca42" x="118.602169" y="169.192839" style="stroke: #000000; stroke-width: 0.8"/>
      </g>
     </g>
     <g id="text_2">
      <!-- 2 -->
      <g transform="translate(115.420919 183.791277) scale(0.1 -0.1)">
       <use xlink:href="#DejaVuSans-32"/>
      </g>
     </g>
    </g>
    <g id="xtick_4">
     <g id="line2d_4">
      <g>
       <use xlink:href="#m3321b9ca42" x="160.766324" y="169.192839" style="stroke: #000000; stroke-width: 0.8"/>
      </g>
     </g>
     <g id="text_3">
      <!-- 4 -->
      <g transform="translate(157.585074 183.791277) scale(0.1 -0.1)">
       <defs>
        <path id="DejaVuSans-34" d="M 2419 4116 
L 825 1625 
L 2419 1625 
L 2419 4116 
z
M 2253 4666 
L 3047 4666 
L 3047 1625 
L 3713 1625 
L 3713 1100 
L 3047 1100 
L 3047 0 
L 2419 0 
L 2419 1100 
L 313 1100 
L 313 1709 
L 2253 4666 
z
" transform="scale(0.015625)"/>
       </defs>
       <use xlink:href="#DejaVuSans-34"/>
      </g>
     </g>
    </g>
    <g id="xtick_5">
     <g id="line2d_5">
      <g>
       <use xlink:href="#m3321b9ca42" x="202.930479" y="169.192839" style="stroke: #000000; stroke-width: 0.8"/>
      </g>
     </g>
     <g id="text_4">
      <!-- 6 -->
      <g transform="translate(199.749229 183.791277) scale(0.1 -0.1)">
       <defs>
        <path id="DejaVuSans-36" d="M 2113 2584 
Q 1688 2584 1439 2293 
Q 1191 2003 1191 1497 
Q 1191 994 1439 701 
Q 1688 409 2113 409 
Q 2538 409 2786 701 
Q 3034 994 3034 1497 
Q 3034 2003 2786 2293 
Q 2538 2584 2113 2584 
z
M 3366 4563 
L 3366 3988 
Q 3128 4100 2886 4159 
Q 2644 4219 2406 4219 
Q 1781 4219 1451 3797 
Q 1122 3375 1075 2522 
Q 1259 2794 1537 2939 
Q 1816 3084 2150 3084 
Q 2853 3084 3261 2657 
Q 3669 2231 3669 1497 
Q 3669 778 3244 343 
Q 2819 -91 2113 -91 
Q 1303 -91 875 529 
Q 447 1150 447 2328 
Q 447 3434 972 4092 
Q 1497 4750 2381 4750 
Q 2619 4750 2861 4703 
Q 3103 4656 3366 4563 
z
" transform="scale(0.015625)"/>
       </defs>
       <use xlink:href="#DejaVuSans-36"/>
      </g>
     </g>
    </g>
    <g id="xtick_6">
     <g id="line2d_6">
      <defs>
       <path id="m8ce6d09d06" d="M 0 0 
L 0 2 
" style="stroke: #000000; stroke-width: 0.6"/>
      </defs>
      <g>
       <use xlink:href="#m8ce6d09d06" x="13.191781" y="169.192839" style="stroke: #000000; stroke-width: 0.6"/>
      </g>
     </g>
    </g>
    <g id="xtick_7">
     <g id="line2d_7">
      <g>
       <use xlink:href="#m8ce6d09d06" x="23.73282" y="169.192839" style="stroke: #000000; stroke-width: 0.6"/>
      </g>
     </g>
    </g>
    <g id="xtick_8">
     <g id="line2d_8">
      <g>
       <use xlink:href="#m8ce6d09d06" x="44.814897" y="169.192839" style="stroke: #000000; stroke-width: 0.6"/>
      </g>
     </g>
    </g>
    <g id="xtick_9">
     <g id="line2d_9">
      <g>
       <use xlink:href="#m8ce6d09d06" x="55.355936" y="169.192839" style="stroke: #000000; stroke-width: 0.6"/>
      </g>
     </g>
    </g>
    <g id="xtick_10">
     <g id="line2d_10">
      <g>
       <use xlink:href="#m8ce6d09d06" x="65.896975" y="169.192839" style="stroke: #000000; stroke-width: 0.6"/>
      </g>
     </g>
    </g>
    <g id="xtick_11">
     <g id="line2d_11">
      <g>
       <use xlink:href="#m8ce6d09d06" x="86.979052" y="169.192839" style="stroke: #000000; stroke-width: 0.6"/>
      </g>
     </g>
    </g>
    <g id="xtick_12">
     <g id="line2d_12">
      <g>
       <use xlink:href="#m8ce6d09d06" x="97.520091" y="169.192839" style="stroke: #000000; stroke-width: 0.6"/>
      </g>
     </g>
    </g>
    <g id="xtick_13">
     <g id="line2d_13">
      <g>
       <use xlink:href="#m8ce6d09d06" x="108.06113" y="169.192839" style="stroke: #000000; stroke-width: 0.6"/>
      </g>
     </g>
    </g>
    <g id="xtick_14">
     <g id="line2d_14">
      <g>
       <use xlink:href="#m8ce6d09d06" x="129.143207" y="169.192839" style="stroke: #000000; stroke-width: 0.6"/>
      </g>
     </g>
    </g>
    <g id="xtick_15">
     <g id="line2d_15">
      <g>
       <use xlink:href="#m8ce6d09d06" x="139.684246" y="169.192839" style="stroke: #000000; stroke-width: 0.6"/>
      </g>
     </g>
    </g>
    <g id="xtick_16">
     <g id="line2d_16">
      <g>
       <use xlink:href="#m8ce6d09d06" x="150.225285" y="169.192839" style="stroke: #000000; stroke-width: 0.6"/>
      </g>
     </g>
    </g>
    <g id="xtick_17">
     <g id="line2d_17">
      <g>
       <use xlink:href="#m8ce6d09d06" x="171.307362" y="169.192839" style="stroke: #000000; stroke-width: 0.6"/>
      </g>
     </g>
    </g>
    <g id="xtick_18">
     <g id="line2d_18">
      <g>
       <use xlink:href="#m8ce6d09d06" x="181.848401" y="169.192839" style="stroke: #000000; stroke-width: 0.6"/>
      </g>
     </g>
    </g>
    <g id="xtick_19">
     <g id="line2d_19">
      <g>
       <use xlink:href="#m8ce6d09d06" x="192.38944" y="169.192839" style="stroke: #000000; stroke-width: 0.6"/>
      </g>
     </g>
    </g>
    <g id="xtick_20">
     <g id="line2d_20">
      <g>
       <use xlink:href="#m8ce6d09d06" x="213.471517" y="169.192839" style="stroke: #000000; stroke-width: 0.6"/>
      </g>
     </g>
    </g>
    <g id="xtick_21">
     <g id="line2d_21">
      <g>
       <use xlink:href="#m8ce6d09d06" x="224.012556" y="169.192839" style="stroke: #000000; stroke-width: 0.6"/>
      </g>
     </g>
    </g>
    <g id="xtick_22">
     <g id="line2d_22">
      <g>
       <use xlink:href="#m8ce6d09d06" x="234.553595" y="169.192839" style="stroke: #000000; stroke-width: 0.6"/>
      </g>
     </g>
    </g>
   </g>
   <g id="matplotlib.axis_2">
    <g id="ytick_1">
     <g id="line2d_23">
      <defs>
       <path id="m6cca37d11e" d="M 0 0 
L -3.5 0 
" style="stroke: #000000; stroke-width: 0.8"/>
      </defs>
      <g>
       <use xlink:href="#m6cca37d11e" x="76.438014" y="295.685304" style="stroke: #000000; stroke-width: 0.8"/>
      </g>
     </g>
     <g id="text_5">
      <!-- −6 -->
      <g transform="translate(54.695826 299.484523) scale(0.1 -0.1)">
       <use xlink:href="#DejaVuSans-2212"/>
       <use xlink:href="#DejaVuSans-36" x="83.789062"/>
      </g>
     </g>
    </g>
    <g id="ytick_2">
     <g id="line2d_24">
      <g>
       <use xlink:href="#m6cca37d11e" x="76.438014" y="253.521149" style="stroke: #000000; stroke-width: 0.8"/>
      </g>
     </g>
     <g id="text_6">
      <!-- −4 -->
      <g transform="translate(54.695826 257.320368) scale(0.1 -0.1)">
       <use xlink:href="#DejaVuSans-2212"/>
       <use xlink:href="#DejaVuSans-34" x="83.789062"/>
      </g>
     </g>
    </g>
    <g id="ytick_3">
     <g id="line2d_25">
      <g>
       <use xlink:href="#m6cca37d11e" x="76.438014" y="211.356994" style="stroke: #000000; stroke-width: 0.8"/>
      </g>
     </g>
     <g id="text_7">
      <!-- −2 -->
      <g transform="translate(54.695826 215.156213) scale(0.1 -0.1)">
       <use xlink:href="#DejaVuSans-2212"/>
       <use xlink:href="#DejaVuSans-32" x="83.789062"/>
      </g>
     </g>
    </g>
    <g id="ytick_4">
     <g id="line2d_26">
      <g>
       <use xlink:href="#m6cca37d11e" x="76.438014" y="169.192839" style="stroke: #000000; stroke-width: 0.8"/>
      </g>
     </g>
    </g>
    <g id="ytick_5">
     <g id="line2d_27">
      <g>
       <use xlink:href="#m6cca37d11e" x="76.438014" y="127.028684" style="stroke: #000000; stroke-width: 0.8"/>
      </g>
     </g>
     <g id="text_8">
      <!-- 2 -->
      <g transform="translate(63.075514 130.827903) scale(0.1 -0.1)">
       <use xlink:href="#DejaVuSans-32"/>
      </g>
     </g>
    </g>
    <g id="ytick_6">
     <g id="line2d_28">
      <g>
       <use xlink:href="#m6cca37d11e" x="76.438014" y="84.864529" style="stroke: #000000; stroke-width: 0.8"/>
      </g>
     </g>
     <g id="text_9">
      <!-- 4 -->
      <g transform="translate(63.075514 88.663748) scale(0.1 -0.1)">
       <use xlink:href="#DejaVuSans-34"/>
      </g>
     </g>
    </g>
    <g id="ytick_7">
     <g id="line2d_29">
      <g>
       <use xlink:href="#m6cca37d11e" x="76.438014" y="42.700375" style="stroke: #000000; stroke-width: 0.8"/>
      </g>
     </g>
     <g id="text_10">
      <!-- 6 -->
      <g transform="translate(63.075514 46.499593) scale(0.1 -0.1)">
       <use xlink:href="#DejaVuSans-36"/>
      </g>
     </g>
    </g>
    <g id="ytick_8">
     <g id="line2d_30">
      <defs>
       <path id="mab0bf6f6d6" d="M 0 0 
L -2 0 
" style="stroke: #000000; stroke-width: 0.6"/>
      </defs>
      <g>
       <use xlink:href="#mab0bf6f6d6" x="76.438014" y="327.30842" style="stroke: #000000; stroke-width: 0.6"/>
      </g>
     </g>
    </g>
    <g id="ytick_9">
     <g id="line2d_31">
      <g>
       <use xlink:href="#mab0bf6f6d6" x="76.438014" y="316.767382" style="stroke: #000000; stroke-width: 0.6"/>
      </g>
     </g>
    </g>
    <g id="ytick_10">
     <g id="line2d_32">
      <g>
       <use xlink:href="#mab0bf6f6d6" x="76.438014" y="306.226343" style="stroke: #000000; stroke-width: 0.6"/>
      </g>
     </g>
    </g>
    <g id="ytick_11">
     <g id="line2d_33">
      <g>
       <use xlink:href="#mab0bf6f6d6" x="76.438014" y="285.144265" style="stroke: #000000; stroke-width: 0.6"/>
      </g>
     </g>
    </g>
    <g id="ytick_12">
     <g id="line2d_34">
      <g>
       <use xlink:href="#mab0bf6f6d6" x="76.438014" y="274.603227" style="stroke: #000000; stroke-width: 0.6"/>
      </g>
     </g>
    </g>
    <g id="ytick_13">
     <g id="line2d_35">
      <g>
       <use xlink:href="#mab0bf6f6d6" x="76.438014" y="264.062188" style="stroke: #000000; stroke-width: 0.6"/>
      </g>
     </g>
    </g>
    <g id="ytick_14">
     <g id="line2d_36">
      <g>
       <use xlink:href="#mab0bf6f6d6" x="76.438014" y="242.98011" style="stroke: #000000; stroke-width: 0.6"/>
      </g>
     </g>
    </g>
    <g id="ytick_15">
     <g id="line2d_37">
      <g>
       <use xlink:href="#mab0bf6f6d6" x="76.438014" y="232.439072" style="stroke: #000000; stroke-width: 0.6"/>
      </g>
     </g>
    </g>
    <g id="ytick_16">
     <g id="line2d_38">
      <g>
       <use xlink:href="#mab0bf6f6d6" x="76.438014" y="221.898033" style="stroke: #000000; stroke-width: 0.6"/>
      </g>
     </g>
    </g>
    <g id="ytick_17">
     <g id="line2d_39">
      <g>
       <use xlink:href="#mab0bf6f6d6" x="76.438014" y="200.815956" style="stroke: #000000; stroke-width: 0.6"/>
      </g>
     </g>
    </g>
    <g id="ytick_18">
     <g id="line2d_40">
      <g>
       <use xlink:href="#mab0bf6f6d6" x="76.438014" y="190.274917" style="stroke: #000000; stroke-width: 0.6"/>
      </g>
     </g>
    </g>
    <g id="ytick_19">
     <g id="line2d_41">
      <g>
       <use xlink:href="#mab0bf6f6d6" x="76.438014" y="179.733878" style="stroke: #000000; stroke-width: 0.6"/>
      </g>
     </g>
    </g>
    <g id="ytick_20">
     <g id="line2d_42">
      <g>
       <use xlink:href="#mab0bf6f6d6" x="76.438014" y="158.651801" style="stroke: #000000; stroke-width: 0.6"/>
      </g>
     </g>
    </g>
    <g id="ytick_21">
     <g id="line2d_43">
      <g>
       <use xlink:href="#mab0bf6f6d6" x="76.438014" y="148.110762" style="stroke: #000000; stroke-width: 0.6"/>
      </g>
     </g>
    </g>
    <g id="ytick_22">
     <g id="line2d_44">
      <g>
       <use xlink:href="#mab0bf6f6d6" x="76.438014" y="137.569723" style="stroke: #000000; stroke-width: 0.6"/>
      </g>
     </g>
    </g>
    <g id="ytick_23">
     <g id="line2d_45">
      <g>
       <use xlink:href="#mab0bf6f6d6" x="76.438014" y="116.487646" style="stroke: #000000; stroke-width: 0.6"/>
      </g>
     </g>
    </g>
    <g id="ytick_24">
     <g id="line2d_46">
      <g>
       <use xlink:href="#mab0bf6f6d6" x="76.438014" y="105.946607" style="stroke: #000000; stroke-width: 0.6"/>
      </g>
     </g>
    </g>
    <g id="ytick_25">
     <g id="line2d_47">
      <g>
       <use xlink:href="#mab0bf6f6d6" x="76.438014" y="95.405568" style="stroke: #000000; stroke-width: 0.6"/>
      </g>
     </g>
    </g>
    <g id="ytick_26">
     <g id="line2d_48">
      <g>
       <use xlink:href="#mab0bf6f6d6" x="76.438014" y="74.323491" style="stroke: #000000; stroke-width: 0.6"/>
      </g>
     </g>
    </g>
    <g id="ytick_27">
     <g id="line2d_49">
      <g>
       <use xlink:href="#mab0bf6f6d6" x="76.438014" y="63.782452" style="stroke: #000000; stroke-width: 0.6"/>
      </g>
     </g>
    </g>
    <g id="ytick_28">
     <g id="line2d_50">
      <g>
       <use xlink:href="#mab0bf6f6d6" x="76.438014" y="53.241413" style="stroke: #000000; stroke-width: 0.6"/>
      </g>
     </g>
    </g>
    <g id="ytick_29">
     <g id="line2d_51">
      <g>
       <use xlink:href="#mab0bf6f6d6" x="76.438014" y="32.159336" style="stroke: #000000; stroke-width: 0.6"/>
      </g>
     </g>
    </g>
    <g id="ytick_30">
     <g id="line2d_52">
      <g>
       <use xlink:href="#mab0bf6f6d6" x="76.438014" y="21.618297" style="stroke: #000000; stroke-width: 0.6"/>
      </g>
     </g>
    </g>
    <g id="ytick_31">
     <g id="line2d_53">
      <g>
       <use xlink:href="#mab0bf6f6d6" x="76.438014" y="11.077258" style="stroke: #000000; stroke-width: 0.6"/>
      </g>
     </g>
    </g>
   </g>
   <g id="PathCollection_5">
    <path d="M 87.085528 151.01115 
L 87.074156 150.985591 
L 83.678323 149.399675 
L 81.974721 148.850262 
L 79.419318 148.319085 
L 76.863914 148.114952 
L 74.308511 148.216851 
L 72.604909 148.461688 
L 70.049505 149.104893 
L 67.494102 149.980985 
L 67.284892 149.069038 
L 64.938699 144.075047 
L 61.970182 137.569723 
L 53.16617 118.404198 
L 53.013483 117.775662 
L 52.509313 117.445922 
L 53.915098 116.487646 
L 60.679693 114.107272 
L 64.086898 113.241425 
L 67.494102 112.59 
L 70.901306 112.160808 
L 74.308511 111.930166 
L 77.715715 111.904342 
L 81.12292 112.083757 
L 84.530124 112.464244 
L 87.937329 113.058421 
L 91.344533 113.864794 
L 94.751738 114.899656 
L 98.158942 116.172926 
L 101.076193 117.445922 
L 106.46057 120.320751 
L 106.676953 120.659394 
L 107.396235 121.279027 
L 106.676953 121.973164 
L 106.606187 122.237303 
L 89.640931 148.668341 
L 89.327755 149.069038 
L 88.729223 150.027314 
L 87.937329 151.319268 
L 87.085528 151.01115 
L 87.085528 151.01115 
" clip-path="url(#p375a37045a)" style="fill: none; stroke: #add8e6; stroke-width: 1.5"/>
   </g>
   <g id="PathCollection_6">
    <path d="M 87.085528 151.01115 
L 87.074156 150.985591 
L 83.678323 149.399675 
L 81.974721 148.850262 
L 79.419318 148.319085 
L 76.863914 148.114952 
L 74.308511 148.216851 
L 72.604909 148.461688 
L 70.049505 149.104893 
L 67.494102 149.980985 
L 67.284892 149.069038 
L 64.938699 144.075047 
L 61.970182 137.569723 
L 53.16617 118.404198 
L 53.013483 117.775662 
L 52.509313 117.445922 
L 53.915098 116.487646 
L 60.679693 114.107272 
L 64.086898 113.241425 
L 67.494102 112.59 
L 70.901306 112.160808 
L 74.308511 111.930166 
L 77.715715 111.904342 
L 81.12292 112.083757 
L 84.530124 112.464244 
L 87.937329 113.058421 
L 91.344533 113.864794 
L 94.751738 114.899656 
L 98.158942 116.172926 
L 101.076193 117.445922 
L 106.46057 120.320751 
L 106.676953 120.659394 
L 107.396235 121.279027 
L 106.676953 121.973164 
L 106.606187 122.237303 
L 89.640931 148.668341 
L 89.327755 149.069038 
L 88.729223 150.027314 
L 87.937329 151.319268 
L 87.085528 151.01115 
L 87.085528 151.01115 
" clip-path="url(#p375a37045a)" style="fill: none; stroke: #ffffff; stroke-width: 1.5"/>
   </g>
   <g id="PathCollection_7">
    <path d="M 87.085528 151.01115 
L 87.074156 150.985591 
L 83.678323 149.399675 
L 81.974721 148.850262 
L 79.419318 148.319085 
L 76.863914 148.114952 
L 74.308511 148.216851 
L 72.604909 148.461688 
L 70.049505 149.104893 
L 67.494102 149.980985 
L 67.284892 149.069038 
L 64.938699 144.075047 
L 61.970182 137.569723 
L 53.16617 118.404198 
L 53.013483 117.775662 
L 52.509313 117.445922 
L 53.915098 116.487646 
L 60.679693 114.107272 
L 64.086898 113.241425 
L 67.494102 112.59 
L 70.901306 112.160808 
L 74.308511 111.930166 
L 77.715715 111.904342 
L 81.12292 112.083757 
L 84.530124 112.464244 
L 87.937329 113.058421 
L 91.344533 113.864794 
L 94.751738 114.899656 
L 98.158942 116.172926 
L 101.076193 117.445922 
L 106.46057 120.320751 
L 106.676953 120.659394 
L 107.396235 121.279027 
L 106.676953 121.973164 
L 106.606187 122.237303 
L 89.640931 148.668341 
L 89.327755 149.069038 
L 88.729223 150.027314 
L 87.937329 151.319268 
L 87.085528 151.01115 
L 87.085528 151.01115 
" clip-path="url(#p375a37045a)" style="fill: none; stroke: #ffffff; stroke-width: 1.5"/>
   </g>
   <g id="line2d_54">
    <path d="M 75.250685 171.7872 
L 75.992687 172.01102 
L 76.839144 172.01765 
L 77.627643 171.786146 
L 78.319072 171.338085 
L 78.797816 170.79652 
L 79.150831 170.076629 
L 79.290338 169.261434 
L 79.19881 168.472795 
L 78.884744 167.725199 
L 78.382132 167.104572 
L 77.723483 166.645679 
L 76.988881 166.393374 
L 76.171081 166.352205 
L 75.420297 166.527373 
L 75.250685 166.598478 
L 75.250685 166.598478 
" clip-path="url(#p375a37045a)" style="fill: none; stroke: #0000ff; stroke-width: 1.5; stroke-linecap: square"/>
   </g>
   <g id="line2d_55">
    <path d="M 73.210519 176.245044 
L 74.465506 176.693474 
L 75.876792 176.92817 
L 77.259625 176.90486 
L 78.653749 176.625256 
L 79.98631 176.089208 
L 81.067432 175.415282 
L 82.040551 174.55585 
L 82.857843 173.544402 
L 83.452131 172.502289 
L 83.939498 171.162111 
L 84.157939 169.936522 
L 84.162505 168.498192 
L 83.928818 167.183322 
L 83.46727 165.915667 
L 82.808303 164.769071 
L 82.035057 163.824095 
L 81.020378 162.935664 
L 79.814237 162.210617 
L 78.565058 161.734556 
L 77.307465 161.486066 
L 75.943058 161.452986 
L 74.578398 161.663421 
L 73.41611 162.050122 
L 73.210519 162.140635 
L 73.210519 162.140635 
" clip-path="url(#p375a37045a)" style="fill: none; stroke: #0000ff; stroke-width: 1.5; stroke-linecap: square"/>
   </g>
   <g id="line2d_56">
    <path d="M 67.664774 188.362718 
L 69.540041 189.114485 
L 71.621163 189.717262 
L 73.719873 190.098956 
L 76.095447 190.272133 
L 78.386216 190.184707 
L 80.528833 189.874212 
L 82.623427 189.347111 
L 84.378177 188.722504 
L 86.437154 187.752774 
L 88.153968 186.719688 
L 89.813252 185.488759 
L 91.422559 184.022451 
L 92.947582 182.303451 
L 94.177663 180.584013 
L 95.16831 178.869098 
L 96.057325 176.908837 
L 96.7963 174.669531 
L 97.205348 172.822139 
L 97.469157 170.657419 
L 97.513749 168.675768 
L 97.347793 166.50302 
L 96.982118 164.460635 
L 96.358885 162.29263 
L 95.432224 160.045493 
L 94.428429 158.201982 
L 93.155019 156.347773 
L 91.752445 154.704147 
L 90.136491 153.167681 
L 88.359859 151.805384 
L 86.774651 150.818729 
L 84.701264 149.797668 
L 82.465102 148.990656 
L 80.198619 148.44888 
L 78.145385 148.180013 
L 75.664946 148.124941 
L 73.452188 148.323272 
L 71.253672 148.758148 
L 68.98248 149.473078 
L 67.664774 150.022961 
L 67.664774 150.022961 
" clip-path="url(#p375a37045a)" style="fill: none; stroke: #0000ff; stroke-width: 1.5; stroke-linecap: square"/>
   </g>
   <g id="line2d_57">
    <path d="M 52.589875 221.301973 
L 55.400058 222.49856 
L 58.882814 223.744745 
L 63.232816 224.957687 
L 67.374722 225.778634 
L 70.924429 226.234016 
L 75.15159 226.485427 
L 78.32178 226.468898 
L 81.777248 226.2506 
L 85.459758 225.785273 
L 89.107303 225.081877 
L 92.808148 224.112 
L 96.098007 223.022015 
L 99.82732 221.509527 
L 103.5604 219.675229 
L 106.295076 218.107574 
L 109.952917 215.677748 
L 111.95385 214.167508 
L 114.945798 211.633929 
L 117.235664 209.43768 
L 120.118125 206.289245 
L 122.342354 203.498626 
L 124.322132 200.676275 
L 126.292772 197.452325 
L 127.795431 194.619423 
L 129.30712 191.305123 
L 130.681173 187.680001 
L 131.850506 183.80623 
L 132.611504 180.534553 
L 133.116746 177.65551 
L 133.55539 173.851249 
L 133.739376 169.998686 
L 133.693373 166.759886 
L 133.426516 163.159092 
L 133.005854 160.01815 
L 132.422854 156.953837 
L 131.445312 153.121354 
L 130.295125 149.609503 
L 129.171832 146.759832 
L 127.787231 143.7497 
L 126.304054 140.953266 
L 124.752686 138.374211 
L 122.691508 135.35928 
L 120.420266 132.455162 
L 117.469397 129.186327 
L 115.322506 127.09662 
L 112.347455 124.53181 
L 109.525033 122.402406 
L 106.380559 120.330385 
L 103.771763 118.82458 
L 100.831214 117.336622 
L 96.76039 115.610226 
L 92.301584 114.125221 
L 90.234199 113.571254 
L 86.213801 112.725774 
L 82.268258 112.183158 
L 78.230123 111.91384 
L 74.394292 111.922265 
L 71.425636 112.105437 
L 68.354149 112.458841 
L 65.147387 113.009059 
L 61.138309 113.965903 
L 57.418764 115.133949 
L 55.0213 116.038161 
L 52.589875 117.083706 
L 52.589875 117.083706 
" clip-path="url(#p375a37045a)" style="fill: none; stroke: #0000ff; stroke-width: 1.5; stroke-linecap: square"/>
   </g>
   <g id="line2d_58">
    <path d="M 11.612052 310.840149 
L 16.785613 313.095434 
L 23.634013 315.746936 
L 28.892456 317.536311 
L 35.57414 319.514193 
L 40.286885 320.716638 
L 47.478081 322.253899 
L 53.353215 323.24951 
L 59.19059 324.01174 
L 66.237093 324.635134 
L 70.705707 324.863987 
L 79.085473 324.946994 
L 85.082827 324.729436 
L 90.442395 324.338716 
L 96.911411 323.618244 
L 102.930928 322.700139 
L 107.623591 321.815988 
L 112.419555 320.756998 
L 119.548553 318.885348 
L 123.995588 317.532459 
L 130.582008 315.257187 
L 135.732478 313.243289 
L 140.502061 311.186372 
L 146.817304 308.164495 
L 153.083643 304.809259 
L 157.727382 302.077768 
L 163.408397 298.431061 
L 169.069955 294.43536 
L 174.143104 290.51918 
L 178.841204 286.580881 
L 183.833081 282.031951 
L 187.408474 278.517689 
L 191.615777 274.075863 
L 195.650837 269.465809 
L 199.28164 264.983283 
L 203.02261 259.982188 
L 205.691104 256.141125 
L 209.27495 250.560609 
L 212.354188 245.305644 
L 214.932417 240.506694 
L 217.634234 234.995522 
L 219.781002 230.1777 
L 221.857526 225.045602 
L 224.149518 218.666845 
L 225.7741 213.522275 
L 227.043859 208.995415 
L 228.497985 203.017841 
L 229.629138 197.45669 
L 230.624105 191.396776 
L 231.288712 186.152405 
L 231.84596 179.904327 
L 232.157212 173.42333 
L 232.198001 166.914222 
L 231.989553 160.821208 
L 231.537363 154.682239 
L 231.011878 149.872226 
L 230.146494 143.893258 
L 229.134398 138.367852 
L 227.851462 132.582276 
L 226.330334 126.782251 
L 224.574521 121.006317 
L 222.586434 115.27619 
L 220.614537 110.205588 
L 218.457896 105.187224 
L 215.612363 99.215228 
L 212.754871 93.800001 
L 209.606448 88.368748 
L 206.493293 83.449093 
L 203.088484 78.495408 
L 199.030748 73.081512 
L 195.599352 68.858692 
L 191.028167 63.668139 
L 186.968067 59.422748 
L 183.450185 55.990539 
L 179.609808 52.479744 
L 174.29218 47.986701 
L 170.406841 44.950233 
L 164.922095 40.986237 
L 159.855933 37.633665 
L 155.229333 34.811689 
L 149.087166 31.394195 
L 145.395641 29.510302 
L 139.675182 26.829128 
L 132.539219 23.868993 
L 127.048993 21.867029 
L 121.034919 19.93641 
L 115.081722 18.285486 
L 109.91814 17.056562 
L 103.73151 15.825859 
L 97.466004 14.841975 
L 90.820992 14.081603 
L 84.008912 13.600272 
L 78.569486 13.430769 
L 73.513786 13.443635 
L 66.445986 13.736977 
L 59.679313 14.320274 
L 52.978398 15.1928 
L 46.44342 16.33117 
L 39.072046 17.964039 
L 35.548508 18.878455 
L 28.97014 20.824492 
L 23.078944 22.839926 
L 17.119665 25.152223 
L 11.612052 27.545529 
L 11.612052 27.545529 
" clip-path="url(#p375a37045a)" style="fill: none; stroke: #0000ff; stroke-width: 1.5; stroke-linecap: square"/>
   </g>
   <g id="line2d_59">
    <path d="M 75.250685 171.7872 
L 11.612052 310.840149 
L 11.612052 310.840149 
" clip-path="url(#p375a37045a)" style="fill: none; stroke: #ff0000; stroke-width: 1.5; stroke-linecap: square"/>
   </g>
   <g id="line2d_60">
    <path d="M 77.979577 171.593681 
L 160.604499 300.274373 
L 160.604499 300.274373 
" clip-path="url(#p375a37045a)" style="fill: none; stroke: #ff0000; stroke-width: 1.5; stroke-linecap: square"/>
   </g>
   <g id="line2d_61">
    <path d="M 79.291163 169.192839 
L 232.214667 169.192839 
L 232.214667 169.192839 
" clip-path="url(#p375a37045a)" style="fill: none; stroke: #ff0000; stroke-width: 1.5; stroke-linecap: square"/>
   </g>
   <g id="line2d_62">
    <path d="M 77.979577 166.791997 
L 160.604499 38.111306 
L 160.604499 38.111306 
" clip-path="url(#p375a37045a)" style="fill: none; stroke: #ff0000; stroke-width: 1.5; stroke-linecap: square"/>
   </g>
   <g id="line2d_63">
    <path d="M 75.250685 166.598478 
L 11.612052 27.545529 
L 11.612052 27.545529 
" clip-path="url(#p375a37045a)" style="fill: none; stroke: #ff0000; stroke-width: 1.5; stroke-linecap: square"/>
   </g>
   <g id="patch_3">
    <path d="M 76.438014 331.2 
L 76.438014 7.2 
" style="fill: none; stroke: #000000; stroke-width: 0.8; stroke-linejoin: miter; stroke-linecap: square"/>
   </g>
   <g id="patch_4">
    <path d="M 7.2 169.192839 
L 236.626719 169.192839 
" style="fill: none; stroke: #000000; stroke-width: 0.8; stroke-linejoin: miter; stroke-linecap: square"/>
   </g>
   <g id="text_11">
    <!-- $f(R)$ -->
    <g transform="translate(76.985468 128.420477) scale(0.14 -0.14)">
     <defs>
      <path id="Cmmi10-66" d="M 622 -1056 
Q 741 -1147 909 -1147 
Q 1138 -1147 1281 -641 
Q 1341 -397 1606 966 
L 1900 2534 
L 1350 2534 
Q 1288 2534 1288 2619 
Q 1313 2759 1369 2759 
L 1941 2759 
L 2016 3175 
Q 2053 3369 2084 3508 
Q 2116 3647 2152 3765 
Q 2188 3884 2259 4031 
Q 2369 4241 2555 4377 
Q 2741 4513 2956 4513 
Q 3097 4513 3230 4461 
Q 3363 4409 3447 4306 
Q 3531 4203 3531 4063 
Q 3531 3900 3423 3779 
Q 3316 3659 3163 3659 
Q 3059 3659 2986 3723 
Q 2913 3788 2913 3891 
Q 2913 4031 3008 4136 
Q 3103 4241 3244 4256 
Q 3125 4347 2950 4347 
Q 2853 4347 2767 4256 
Q 2681 4166 2656 4063 
Q 2616 3900 2478 3181 
L 2400 2759 
L 3059 2759 
Q 3122 2759 3122 2675 
Q 3119 2659 3109 2620 
Q 3100 2581 3083 2557 
Q 3066 2534 3041 2534 
L 2356 2534 
L 2059 972 
Q 2003 631 1929 279 
Q 1856 -72 1723 -442 
Q 1591 -813 1384 -1063 
Q 1178 -1313 897 -1313 
Q 681 -1313 511 -1189 
Q 341 -1066 341 -863 
Q 341 -700 445 -579 
Q 550 -459 709 -459 
Q 816 -459 887 -523 
Q 959 -588 959 -691 
Q 959 -828 857 -942 
Q 756 -1056 622 -1056 
z
" transform="scale(0.015625)"/>
      <path id="Cmr10-28" d="M 1984 -1588 
Q 1628 -1306 1370 -942 
Q 1113 -578 948 -165 
Q 784 247 703 697 
Q 622 1147 622 1600 
Q 622 2059 703 2509 
Q 784 2959 951 3375 
Q 1119 3791 1378 4153 
Q 1638 4516 1984 4788 
Q 1984 4800 2016 4800 
L 2075 4800 
Q 2094 4800 2109 4783 
Q 2125 4766 2125 4744 
Q 2125 4716 2113 4703 
Q 1800 4397 1592 4047 
Q 1384 3697 1257 3301 
Q 1131 2906 1075 2482 
Q 1019 2059 1019 1600 
Q 1019 -434 2106 -1491 
Q 2125 -1509 2125 -1544 
Q 2125 -1559 2108 -1579 
Q 2091 -1600 2075 -1600 
L 2016 -1600 
Q 1984 -1600 1984 -1588 
z
" transform="scale(0.015625)"/>
      <path id="Cmmi10-52" d="M 313 0 
Q 250 0 250 84 
Q 253 100 262 139 
Q 272 178 289 201 
Q 306 225 331 225 
Q 722 225 878 269 
Q 959 297 997 441 
L 1875 3956 
Q 1888 4019 1888 4044 
Q 1888 4113 1813 4122 
Q 1691 4147 1350 4147 
Q 1288 4147 1288 4231 
Q 1291 4247 1300 4286 
Q 1309 4325 1326 4348 
Q 1344 4372 1369 4372 
L 3309 4372 
Q 3541 4372 3791 4319 
Q 4041 4266 4250 4152 
Q 4459 4038 4593 3848 
Q 4728 3659 4728 3406 
Q 4728 3084 4515 2831 
Q 4303 2578 3978 2408 
Q 3653 2238 3347 2169 
Q 3597 2078 3756 1879 
Q 3916 1681 3916 1422 
Q 3916 1388 3914 1370 
Q 3913 1353 3909 1331 
L 3859 763 
Q 3853 638 3847 550 
Q 3841 463 3841 409 
Q 3841 234 3892 129 
Q 3944 25 4097 25 
Q 4297 25 4448 211 
Q 4600 397 4647 616 
Q 4675 672 4709 672 
L 4769 672 
Q 4831 672 4831 588 
Q 4784 403 4682 237 
Q 4581 72 4426 -34 
Q 4272 -141 4091 -141 
Q 3716 -141 3452 26 
Q 3188 194 3188 550 
Q 3188 684 3213 788 
L 3353 1356 
Q 3378 1434 3378 1538 
Q 3378 1803 3198 1954 
Q 3019 2106 2747 2106 
L 1959 2106 
L 1538 416 
Q 1522 363 1522 325 
Q 1522 259 1600 250 
Q 1722 225 2059 225 
Q 2125 225 2125 141 
Q 2103 50 2090 25 
Q 2078 0 2016 0 
L 313 0 
z
M 1997 2272 
L 2706 2272 
Q 3403 2272 3756 2625 
Q 3919 2788 4014 3039 
Q 4109 3291 4109 3541 
Q 4109 3778 3970 3912 
Q 3831 4047 3626 4097 
Q 3422 4147 3175 4147 
L 2747 4147 
Q 2572 4147 2515 4117 
Q 2459 4088 2413 3928 
L 1997 2272 
z
" transform="scale(0.015625)"/>
      <path id="Cmr10-29" d="M 416 -1600 
Q 359 -1600 359 -1544 
Q 359 -1516 372 -1503 
Q 1466 -434 1466 1600 
Q 1466 3634 384 4691 
Q 359 4706 359 4744 
Q 359 4766 376 4783 
Q 394 4800 416 4800 
L 475 4800 
Q 494 4800 506 4788 
Q 966 4425 1272 3906 
Q 1578 3388 1720 2800 
Q 1863 2213 1863 1600 
Q 1863 1147 1786 708 
Q 1709 269 1542 -157 
Q 1375 -584 1119 -945 
Q 863 -1306 506 -1588 
Q 494 -1600 475 -1600 
L 416 -1600 
z
" transform="scale(0.015625)"/>
     </defs>
     <use xlink:href="#Cmmi10-66"/>
     <use xlink:href="#Cmr10-28" transform="translate(48.876953 0)"/>
     <use xlink:href="#Cmmi10-52" transform="translate(87.695312 0)"/>
     <use xlink:href="#Cmr10-29" transform="translate(163.574219 0)"/>
    </g>
   </g>
  </g>
 </g>
 <defs>
  <clipPath id="p375a37045a">
   <rect x="7.2" y="7.2" width="229.426719" height="324"/>
  </clipPath>
 </defs>
</svg>
