<?xml version="1.0" encoding="utf-8" standalone="no"?>
<!DOCTYPE svg PUBLIC "-//W3C//DTD SVG 1.1//EN"
  "http://www.w3.org/Graphics/SVG/1.1/DTD/svg11.dtd">
<svg xmlns:xlink="http://www.w3.org/1999/xlink" width="338.4pt" height="338.4pt" viewBox="0 0 338.4 338.4" xmlns="http://www.w3.org/2000/svg" version="1.1">
 <metadata>
  <rdf:RDF xmlns:dc="http://purl.org/dc/elements/1.1/" xmlns:cc="http://creativecommons.org/ns#" xmlns:rdf="http://www.w3.org/1999/02/22-rdf-syntax-ns#">
   <cc:Work>
    <dc:type rdf:resource="http://purl.org/dc/dcmitype/StillImage"/>
    <dc:date>2025-02-25T19:41:56.981297</dc:date>
    <dc:format>image/svg+xml</dc:format>
    <dc:creator>
     <cc:Agent>
      <dc:title>Matplotlib v3.6.2, https://matplotlib.org/</dc:title>
     </cc:Agent>
    </dc:creator>
   </cc:Work>
  </rdf:RDF>
 </metadata>
 <defs>
  <style type="text/css">*{stroke-linejoin: round; stroke-linecap: butt}</style>
 </defs>
 <g id="figure_1">
  <g id="patch_1">
   <path d="M -0 338.4 
L 338.4 338.4 
L 338.4 0 
L -0 0 
z
" style="fill: #ffffff"/>
  </g>
  <g id="axes_1">
   <g id="patch_2">
    <path d="M 7.2 331.2 
L 331.2 331.2 
L 331.2 7.2 
L 7.2 7.2 
z
" style="fill: #ffffff"/>
   </g>
   <g id="PathCollection_1">
    <path d="M 169.2 173.072983 
C 170.227127 173.072983 171.212324 172.664901 171.938613 171.938613 
C 172.664901 171.212324 173.072983 170.227127 173.072983 169.2 
C 173.072983 168.172873 172.664901 167.187676 171.938613 166.461387 
C 171.212324 165.735099 170.227127 165.327017 169.2 165.327017 
C 168.172873 165.327017 167.187676 165.735099 166.461387 166.461387 
C 165.735099 167.187676 165.327017 168.172873 165.327017 169.2 
C 165.327017 170.227127 165.735099 171.212324 166.461387 171.938613 
C 167.187676 172.664901 168.172873 173.072983 169.2 173.072983 
z
" clip-path="url(#p5bd214d7e8)" style="fill: #0000ff"/>
   </g>
   <g id="PathCollection_2">
    <path d="M 222.161538 120.111445 
C 223.188666 120.111445 224.173863 119.703363 224.900151 118.977074 
C 225.62644 118.250786 226.034522 117.265589 226.034522 116.238462 
C 226.034522 115.211334 225.62644 114.226137 224.900151 113.499849 
C 224.173863 112.77356 223.188666 112.365478 222.161538 112.365478 
C 221.134411 112.365478 220.149214 112.77356 219.422926 113.499849 
C 218.696637 114.226137 218.288555 115.211334 218.288555 116.238462 
C 218.288555 117.265589 218.696637 118.250786 219.422926 118.977074 
C 220.149214 119.703363 221.134411 120.111445 222.161538 120.111445 
z
" clip-path="url(#p5bd214d7e8)" style="fill: #0000ff"/>
   </g>
   <g id="matplotlib.axis_1"/>
   <g id="matplotlib.axis_2"/>
   <g id="line2d_1">
    <path d="M 169.2 169.2 
L 169.2 324.969231 
" clip-path="url(#p5bd214d7e8)" style="fill: none; stroke-dasharray: 3.7,1.6; stroke-dashoffset: 0; stroke: #000000"/>
   </g>
   <g id="line2d_2">
    <path d="M 169.2 169.2 
L 257.316384 257.316384 
" clip-path="url(#p5bd214d7e8)" style="fill: none; stroke-dasharray: 3.7,1.6; stroke-dashoffset: 0; stroke: #000000"/>
   </g>
   <g id="patch_3">
    <path d="M 106.892308 331.2 
L 106.892308 7.2 
" style="fill: none; stroke: #000000; stroke-width: 0.8; stroke-linejoin: miter; stroke-linecap: square"/>
   </g>
   <g id="patch_4">
    <path d="M 7.2 231.507692 
L 331.2 231.507692 
" style="fill: none; stroke: #000000; stroke-width: 0.8; stroke-linejoin: miter; stroke-linecap: square"/>
   </g>
   <g id="text_1">
    <!-- $w$ -->
    <g transform="translate(210.890769 132.563125) scale(0.14 -0.14)">
     <defs>
      <path id="Cmmi10-77" d="M 691 744 
Q 691 878 727 1053 
Q 763 1228 806 1364 
Q 850 1500 954 1781 
Q 1059 2063 1069 2088 
Q 1153 2322 1153 2472 
Q 1153 2663 1013 2663 
Q 759 2663 595 2402 
Q 431 2141 353 1819 
Q 341 1778 300 1778 
L 225 1778 
Q 172 1778 172 1838 
L 172 1856 
Q 275 2238 487 2533 
Q 700 2828 1025 2828 
Q 1253 2828 1411 2678 
Q 1569 2528 1569 2297 
Q 1569 2178 1516 2047 
Q 1441 1853 1339 1581 
Q 1238 1309 1181 1087 
Q 1125 866 1125 659 
Q 1125 409 1256 253 
Q 1388 97 1638 97 
Q 1978 97 2203 616 
Q 2194 653 2194 722 
Q 2194 894 2247 1113 
L 2606 2553 
Q 2628 2638 2706 2698 
Q 2784 2759 2875 2759 
Q 2950 2759 3008 2709 
Q 3066 2659 3066 2578 
Q 3066 2541 3059 2528 
L 2700 1100 
Q 2638 844 2638 641 
Q 2638 400 2748 248 
Q 2859 97 3097 97 
Q 3509 97 3775 641 
Q 3875 834 3998 1212 
Q 4122 1591 4122 1791 
Q 4122 1975 4062 2083 
Q 4003 2191 3898 2316 
Q 3794 2441 3794 2503 
Q 3794 2625 3898 2729 
Q 4003 2834 4128 2834 
Q 4281 2834 4348 2693 
Q 4416 2553 4416 2375 
Q 4416 2159 4344 1826 
Q 4272 1494 4162 1158 
Q 4053 822 3956 622 
Q 3606 -72 3084 -72 
Q 2816 -72 2594 31 
Q 2372 134 2266 359 
Q 2163 175 1995 51 
Q 1828 -72 1625 -72 
Q 1203 -72 947 129 
Q 691 331 691 744 
z
" transform="scale(0.015625)"/>
     </defs>
     <use xlink:href="#Cmmi10-77" transform="translate(0 0.71875)"/>
    </g>
   </g>
   <g id="text_2">
    <!-- $z_0$ -->
    <g transform="translate(147.463077 163.716971) scale(0.14 -0.14)">
     <defs>
      <path id="Cmmi10-7a" d="M 313 -72 
Q 263 -72 263 -13 
Q 263 19 275 31 
Q 447 328 689 598 
Q 931 869 1239 1145 
Q 1547 1422 1858 1700 
Q 2169 1978 2363 2194 
L 2338 2194 
Q 2197 2194 1925 2284 
Q 1653 2375 1497 2375 
Q 1328 2375 1168 2301 
Q 1009 2228 966 2075 
Q 956 2028 916 2028 
L 838 2028 
Q 788 2028 788 2094 
L 788 2113 
Q 838 2300 952 2462 
Q 1066 2625 1233 2726 
Q 1400 2828 1581 2828 
Q 1709 2828 1793 2770 
Q 1878 2713 1990 2591 
Q 2103 2469 2173 2416 
Q 2244 2363 2350 2363 
Q 2491 2363 2602 2491 
Q 2713 2619 2822 2809 
Q 2841 2828 2869 2828 
L 2944 2828 
Q 2966 2828 2980 2812 
Q 2994 2797 2994 2772 
Q 2994 2750 2981 2731 
Q 2809 2434 2579 2176 
Q 2350 1919 1979 1586 
Q 1609 1253 1354 1023 
Q 1100 794 878 550 
Q 928 563 1013 563 
Q 1169 563 1439 473 
Q 1709 384 1856 384 
Q 2016 384 2178 453 
Q 2341 522 2459 647 
Q 2578 772 2619 934 
Q 2634 978 2669 978 
L 2747 978 
Q 2772 978 2787 958 
Q 2803 938 2803 916 
Q 2803 909 2797 897 
Q 2738 653 2591 433 
Q 2444 213 2230 70 
Q 2016 -72 1772 -72 
Q 1650 -72 1565 -15 
Q 1481 41 1367 164 
Q 1253 288 1181 342 
Q 1109 397 1006 397 
Q 688 397 434 -50 
Q 413 -72 391 -72 
L 313 -72 
z
" transform="scale(0.015625)"/>
      <path id="Cmr10-30" d="M 1600 -141 
Q 816 -141 533 504 
Q 250 1150 250 2041 
Q 250 2597 351 3087 
Q 453 3578 754 3920 
Q 1056 4263 1600 4263 
Q 2022 4263 2290 4056 
Q 2559 3850 2700 3523 
Q 2841 3197 2892 2823 
Q 2944 2450 2944 2041 
Q 2944 1491 2842 1011 
Q 2741 531 2444 195 
Q 2147 -141 1600 -141 
z
M 1600 25 
Q 1956 25 2131 390 
Q 2306 756 2347 1200 
Q 2388 1644 2388 2144 
Q 2388 2625 2347 3031 
Q 2306 3438 2132 3767 
Q 1959 4097 1600 4097 
Q 1238 4097 1063 3765 
Q 888 3434 847 3029 
Q 806 2625 806 2144 
Q 806 1788 823 1472 
Q 841 1156 916 820 
Q 991 484 1158 254 
Q 1325 25 1600 25 
z
" transform="scale(0.015625)"/>
     </defs>
     <use xlink:href="#Cmmi10-7a" transform="translate(0 0.8125)"/>
     <use xlink:href="#Cmr10-30" transform="translate(46.484375 -16.19375) scale(0.7)"/>
    </g>
   </g>
   <g id="text_3">
    <!-- $R$ -->
    <g transform="translate(173.226154 266.524663) scale(0.14 -0.14)">
     <defs>
      <path id="Cmmi10-52" d="M 313 0 
Q 250 0 250 84 
Q 253 100 262 139 
Q 272 178 289 201 
Q 306 225 331 225 
Q 722 225 878 269 
Q 959 297 997 441 
L 1875 3956 
Q 1888 4019 1888 4044 
Q 1888 4113 1813 4122 
Q 1691 4147 1350 4147 
Q 1288 4147 1288 4231 
Q 1291 4247 1300 4286 
Q 1309 4325 1326 4348 
Q 1344 4372 1369 4372 
L 3309 4372 
Q 3541 4372 3791 4319 
Q 4041 4266 4250 4152 
Q 4459 4038 4593 3848 
Q 4728 3659 4728 3406 
Q 4728 3084 4515 2831 
Q 4303 2578 3978 2408 
Q 3653 2238 3347 2169 
Q 3597 2078 3756 1879 
Q 3916 1681 3916 1422 
Q 3916 1388 3914 1370 
Q 3913 1353 3909 1331 
L 3859 763 
Q 3853 638 3847 550 
Q 3841 463 3841 409 
Q 3841 234 3892 129 
Q 3944 25 4097 25 
Q 4297 25 4448 211 
Q 4600 397 4647 616 
Q 4675 672 4709 672 
L 4769 672 
Q 4831 672 4831 588 
Q 4784 403 4682 237 
Q 4581 72 4426 -34 
Q 4272 -141 4091 -141 
Q 3716 -141 3452 26 
Q 3188 194 3188 550 
Q 3188 684 3213 788 
L 3353 1356 
Q 3378 1434 3378 1538 
Q 3378 1803 3198 1954 
Q 3019 2106 2747 2106 
L 1959 2106 
L 1538 416 
Q 1522 363 1522 325 
Q 1522 259 1600 250 
Q 1722 225 2059 225 
Q 2125 225 2125 141 
Q 2103 50 2090 25 
Q 2078 0 2016 0 
L 313 0 
z
M 1997 2272 
L 2706 2272 
Q 3403 2272 3756 2625 
Q 3919 2788 4014 3039 
Q 4109 3291 4109 3541 
Q 4109 3778 3970 3912 
Q 3831 4047 3626 4097 
Q 3422 4147 3175 4147 
L 2747 4147 
Q 2572 4147 2515 4117 
Q 2459 4088 2413 3928 
L 1997 2272 
z
" transform="scale(0.015625)"/>
     </defs>
     <use xlink:href="#Cmmi10-52" transform="translate(0 0.6875)"/>
    </g>
   </g>
   <g id="text_4">
    <!-- $R'$ -->
    <g transform="translate(217.80973 204.659778) scale(0.14 -0.14)">
     <defs>
      <path id="Cmsy10-30" d="M 225 347 
Q 184 359 184 409 
L 966 3316 
Q 1003 3434 1093 3506 
Q 1184 3578 1300 3578 
Q 1450 3578 1564 3479 
Q 1678 3381 1678 3231 
Q 1678 3166 1644 3084 
L 488 319 
Q 466 275 428 275 
Q 394 275 320 306 
Q 247 338 225 347 
z
" transform="scale(0.015625)"/>
     </defs>
     <use xlink:href="#Cmmi10-52" transform="translate(0 0.601562)"/>
     <use xlink:href="#Cmsy10-30" transform="translate(87.248437 38.865625) scale(0.7)"/>
    </g>
   </g>
   <g id="text_5">
    <!-- $\gamma$ -->
    <g transform="translate(261.968022 270.350522) scale(0.16 -0.16)">
     <defs>
      <path id="Cmmi10-b0" d="M 1888 -1253 
Q 1888 -1109 1952 -834 
Q 2016 -559 2108 -248 
Q 2200 63 2266 263 
Q 2291 581 2291 744 
Q 2291 1156 2209 1511 
Q 2128 1866 1903 2105 
Q 1678 2344 1275 2344 
Q 1063 2344 852 2253 
Q 641 2163 489 2000 
Q 338 1838 281 1631 
Q 269 1594 231 1594 
L 153 1594 
Q 103 1594 103 1650 
L 103 1672 
Q 175 1959 358 2226 
Q 541 2494 805 2661 
Q 1069 2828 1363 2828 
Q 1663 2828 1881 2625 
Q 2100 2422 2231 2109 
Q 2363 1797 2420 1478 
Q 2478 1159 2478 878 
Q 2800 1753 3200 2534 
L 3297 2741 
Q 3316 2759 3341 2759 
L 3419 2759 
Q 3469 2759 3469 2700 
Q 3469 2688 3456 2663 
L 3359 2463 
Q 3081 1909 2848 1340 
Q 2616 772 2450 244 
Q 2425 28 2354 -347 
Q 2284 -722 2184 -1045 
Q 2084 -1369 1984 -1381 
Q 1888 -1381 1888 -1253 
z
" transform="scale(0.015625)"/>
     </defs>
     <use xlink:href="#Cmmi10-b0" transform="translate(0 0.8125)"/>
    </g>
   </g>
   <g id="text_6">
    <!-- $\alpha$ -->
    <g transform="translate(254.491001 158.102925) scale(0.16 -0.16)">
     <defs>
      <path id="Cmmi10-ae" d="M 1288 -72 
Q 984 -72 748 72 
Q 513 216 384 459 
Q 256 703 256 1013 
Q 256 1447 498 1872 
Q 741 2297 1142 2562 
Q 1544 2828 1984 2828 
Q 2309 2828 2556 2658 
Q 2803 2488 2931 2205 
Q 3059 1922 3059 1600 
L 3066 1172 
Q 3284 1475 3436 1801 
Q 3588 2128 3669 2478 
Q 3681 2516 3719 2516 
L 3794 2516 
Q 3853 2516 3853 2456 
Q 3853 2450 3847 2438 
Q 3772 2144 3659 1873 
Q 3547 1603 3395 1350 
Q 3244 1097 3066 891 
Q 3066 97 3250 97 
Q 3369 97 3445 167 
Q 3522 238 3580 341 
Q 3638 444 3653 447 
L 3731 447 
Q 3781 447 3781 384 
Q 3781 225 3598 76 
Q 3416 -72 3238 -72 
Q 3006 -72 2853 78 
Q 2700 228 2644 469 
Q 2344 213 1994 70 
Q 1644 -72 1288 -72 
z
M 1300 97 
Q 1984 97 2613 659 
Q 2609 697 2603 751 
Q 2597 806 2597 813 
L 2597 1503 
Q 2597 2663 1972 2663 
Q 1597 2663 1315 2342 
Q 1034 2022 892 1576 
Q 750 1131 750 763 
Q 750 484 892 290 
Q 1034 97 1300 97 
z
" transform="scale(0.015625)"/>
     </defs>
     <use xlink:href="#Cmmi10-ae" transform="translate(0 0.8125)"/>
    </g>
   </g>
   <g id="patch_5">
    <path d="M 169.2 293.815385 
C 202.248386 293.815385 233.947645 280.685122 257.316384 257.316384 
C 280.685122 233.947645 293.815385 202.248386 293.815385 169.2 
C 293.815385 136.151614 280.685122 104.452355 257.316384 81.083616 
C 233.947645 57.714878 202.248386 44.584615 169.2 44.584615 
C 136.151614 44.584615 104.452355 57.714878 81.083616 81.083616 
C 57.714878 104.452355 44.584615 136.151614 44.584615 169.2 
C 44.584615 202.248386 57.714878 233.947645 81.083616 257.316384 
C 104.452355 280.685122 136.151614 293.815385 169.2 293.815385 
L 169.2 293.815385 
z
" clip-path="url(#p5bd214d7e8)" style="fill: none; stroke: #008000; stroke-linejoin: miter"/>
   </g>
   <g id="patch_6">
    <path d="M 169.2 324.969231 
C 210.510483 324.969231 250.134557 308.556402 279.345479 279.345479 
C 308.556402 250.134557 324.969231 210.510483 324.969231 169.2 
C 324.969231 127.889517 308.556402 88.265443 279.345479 59.054521 
C 250.134557 29.843598 210.510483 13.430769 169.2 13.430769 
C 127.889517 13.430769 88.265443 29.843598 59.054521 59.054521 
C 29.843598 88.265443 13.430769 127.889517 13.430769 169.2 
C 13.430769 210.510483 29.843598 250.134557 59.054521 279.345479 
C 88.265443 308.556402 127.889517 324.969231 169.2 324.969231 
L 169.2 324.969231 
z
" clip-path="url(#p5bd214d7e8)" style="fill: none; stroke: #ff0000; stroke-linejoin: miter"/>
   </g>
  </g>
 </g>
 <defs>
  <clipPath id="p5bd214d7e8">
   <rect x="7.2" y="7.2" width="324" height="324"/>
  </clipPath>
 </defs>
</svg>
