<?xml version="1.0" encoding="utf-8" standalone="no"?>
<!DOCTYPE svg PUBLIC "-//W3C//DTD SVG 1.1//EN"
  "http://www.w3.org/Graphics/SVG/1.1/DTD/svg11.dtd">
<svg xmlns:xlink="http://www.w3.org/1999/xlink" width="243.816969pt" height="338.4pt" viewBox="0 0 243.816969 338.4" xmlns="http://www.w3.org/2000/svg" version="1.1">
 <metadata>
  <rdf:RDF xmlns:dc="http://purl.org/dc/elements/1.1/" xmlns:cc="http://creativecommons.org/ns#" xmlns:rdf="http://www.w3.org/1999/02/22-rdf-syntax-ns#">
   <cc:Work>
    <dc:type rdf:resource="http://purl.org/dc/dcmitype/StillImage"/>
    <dc:date>2025-02-09T17:43:04.008667</dc:date>
    <dc:format>image/svg+xml</dc:format>
    <dc:creator>
     <cc:Agent>
      <dc:title>Matplotlib v3.6.2, https://matplotlib.org/</dc:title>
     </cc:Agent>
    </dc:creator>
   </cc:Work>
  </rdf:RDF>
 </metadata>
 <defs>
  <style type="text/css">*{stroke-linejoin: round; stroke-linecap: butt}</style>
 </defs>
 <g id="figure_1">
  <g id="patch_1">
   <path d="M 0 338.4 
L 243.816969 338.4 
L 243.816969 0 
L 0 0 
z
" style="fill: #ffffff"/>
  </g>
  <g id="axes_1">
   <g id="patch_2">
    <path d="M 7.2 331.2 
L 236.616969 331.2 
L 236.616969 7.2 
L 7.2 7.2 
z
" style="fill: #ffffff"/>
   </g>
   <g id="PathCollection_1">
    <path d="M 87.082133 151.01939 
L 87.933897 151.327495 
L 88.040458 150.993832 
L 88.725758 150.035596 
L 88.785662 149.982876 
L 89.324264 149.077361 
L 89.637427 148.67668 
L 89.948963 148.119125 
L 90.489192 147.324947 
L 90.579544 147.160889 
L 91.193422 146.202654 
L 91.340957 145.993272 
L 91.805264 145.244418 
L 92.192722 144.665328 
L 92.424524 144.286183 
L 93.044487 143.332737 
L 93.047411 143.327947 
L 93.657144 142.369712 
L 93.896252 142.005669 
L 94.272347 141.411476 
L 94.748017 140.677943 
L 94.89071 140.453241 
L 95.507021 139.495005 
L 95.599782 139.350671 
L 96.120834 138.53677 
L 96.451547 138.020551 
L 96.737077 137.578534 
L 97.303312 136.697775 
L 97.354117 136.620299 
L 97.968978 135.662063 
L 98.155076 135.36556 
L 98.584759 134.703828 
L 99.006841 134.037848 
L 99.200736 133.745592 
L 99.815762 132.787357 
L 99.858606 132.716865 
L 100.432658 131.829121 
L 100.710371 131.379222 
L 101.049174 130.870886 
L 101.562136 130.058443 
L 101.663262 129.91265 
L 102.27948 128.954415 
L 102.413901 128.725781 
L 102.898883 127.996179 
L 103.265666 127.390934 
L 103.514949 127.037943 
L 104.117431 126.086677 
L 104.122799 126.079708 
L 104.74962 125.121472 
L 104.969196 124.718848 
L 105.375011 124.163237 
L 105.820961 123.392358 
L 105.989949 123.205001 
L 106.601962 122.246766 
L 106.672726 121.982638 
L 107.391977 121.28853 
L 106.672726 120.668924 
L 106.456352 120.330295 
L 105.820961 120.059518 
L 104.969196 119.529378 
L 104.767207 119.372059 
L 104.117431 119.054985 
L 103.265666 118.580208 
L 102.998371 118.413824 
L 102.413901 118.140882 
L 101.562136 117.713479 
L 101.072204 117.455588 
L 100.710371 117.300659 
L 99.858606 116.91654 
L 99.006841 116.530206 
L 98.936743 116.497353 
L 98.155076 116.182647 
L 97.303312 115.840654 
L 96.543979 115.539117 
L 96.451547 115.506703 
L 95.599782 115.204763 
L 94.748017 114.909431 
L 93.896252 114.622322 
L 93.771429 114.580882 
L 93.044487 114.361816 
L 92.192722 114.11328 
L 91.340957 113.874612 
L 90.489192 113.646613 
L 90.396129 113.622646 
L 89.637427 113.441947 
L 88.785662 113.249502 
L 87.933897 113.068274 
L 87.082133 112.898694 
L 86.230368 112.741121 
L 85.781872 112.664411 
L 85.378603 112.599627 
L 84.526838 112.474122 
L 83.675073 112.360585 
L 82.823308 112.25922 
L 81.971543 112.170195 
L 81.119778 112.093652 
L 80.268013 112.029703 
L 79.416248 111.978441 
L 78.564483 111.939937 
L 77.712719 111.914244 
L 76.860954 111.901399 
L 76.009189 111.901422 
L 75.157424 111.914316 
L 74.305659 111.940067 
L 73.453894 111.978645 
L 72.602129 112.029998 
L 71.750364 112.09405 
L 70.898599 112.170699 
L 70.046834 112.259809 
L 69.195069 112.361203 
L 68.343305 112.474654 
L 67.49154 112.599873 
L 67.083163 112.664411 
L 66.639775 112.741471 
L 65.78801 112.899712 
L 64.936245 113.069835 
L 64.08448 113.25127 
L 63.232715 113.443272 
L 62.471021 113.622646 
L 62.38095 113.646878 
L 61.529185 113.877099 
L 60.67742 114.11708 
L 59.825655 114.365017 
L 59.092219 114.580882 
L 58.973891 114.623335 
L 58.122126 114.916226 
L 57.270361 115.213327 
L 56.418596 115.508271 
L 56.313163 115.539117 
L 55.566831 115.857645 
L 54.715066 116.207296 
L 53.913112 116.497353 
L 53.863301 116.540254 
L 53.011536 117.133809 
L 52.507387 117.455588 
L 53.011536 117.785314 
L 53.164217 118.413824 
L 53.608293 119.372059 
L 53.863301 119.811708 
L 54.057454 120.330295 
L 54.498337 121.28853 
L 54.715066 121.701762 
L 54.939512 122.246766 
L 55.380084 123.205001 
L 55.566831 123.575705 
L 55.819253 124.163237 
L 56.259537 125.121472 
L 56.418596 125.444512 
L 56.698143 126.079708 
L 57.138006 127.037943 
L 57.270361 127.311018 
L 57.576642 127.996179 
L 58.015936 128.954415 
L 58.122126 129.176265 
L 58.454944 129.91265 
L 58.893513 130.870886 
L 58.973891 131.0407 
L 59.333152 131.829121 
L 59.770815 132.787357 
L 59.825655 132.904509 
L 60.211335 133.745592 
L 60.647871 134.703828 
L 60.67742 134.767717 
L 61.089548 135.662063 
L 61.524668 136.620299 
L 61.529185 136.630205 
L 61.967855 137.578534 
L 62.38095 138.49114 
L 62.402209 138.53677 
L 62.846344 139.495005 
L 63.232715 140.35311 
L 63.280257 140.453241 
L 63.725169 141.411476 
L 64.08448 142.216877 
L 64.158799 142.369712 
L 64.604641 143.327947 
L 64.936245 144.083582 
L 65.038242 144.286183 
L 65.485547 145.244418 
L 65.78801 145.95658 
L 65.919881 146.202654 
L 66.370672 147.160889 
L 66.639775 147.850036 
L 66.810758 148.119125 
L 67.282339 149.077361 
L 67.49154 149.989269 
L 68.343305 149.813035 
L 69.195069 149.438834 
L 70.046834 149.113214 
L 70.136489 149.077361 
L 70.898599 148.864457 
L 71.750364 148.648992 
L 72.602129 148.470036 
L 73.453894 148.329065 
L 74.305659 148.22521 
L 75.157424 148.157041 
L 76.009189 148.12332 
L 76.860954 148.123315 
L 77.712719 148.156914 
L 78.564483 148.224618 
L 79.416248 148.327439 
L 80.268013 148.466694 
L 81.119778 148.643603 
L 81.971543 148.858594 
L 82.721036 149.077361 
L 82.823308 149.110796 
L 83.675073 149.407984 
L 84.526838 149.744917 
L 85.238366 150.035596 
L 85.378603 150.118924 
L 86.230368 150.580628 
L 87.070761 150.993832 
z
" clip-path="url(#pd5343f2132)" style="fill: #add8e6"/>
   </g>
   <g id="PathCollection_2">
    <path d="M 87.082133 151.01939 
L 87.933897 151.327495 
L 88.040458 150.993832 
L 88.725758 150.035596 
L 88.785662 149.982876 
L 89.324264 149.077361 
L 89.637427 148.67668 
L 89.948963 148.119125 
L 90.489192 147.324947 
L 90.579544 147.160889 
L 91.193422 146.202654 
L 91.340957 145.993272 
L 91.805264 145.244418 
L 92.192722 144.665328 
L 92.424524 144.286183 
L 93.044487 143.332737 
L 93.047411 143.327947 
L 93.657144 142.369712 
L 93.896252 142.005669 
L 94.272347 141.411476 
L 94.748017 140.677943 
L 94.89071 140.453241 
L 95.507021 139.495005 
L 95.599782 139.350671 
L 96.120834 138.53677 
L 96.451547 138.020551 
L 96.737077 137.578534 
L 97.303312 136.697775 
L 97.354117 136.620299 
L 97.968978 135.662063 
L 98.155076 135.36556 
L 98.584759 134.703828 
L 99.006841 134.037848 
L 99.200736 133.745592 
L 99.815762 132.787357 
L 99.858606 132.716865 
L 100.432658 131.829121 
L 100.710371 131.379222 
L 101.049174 130.870886 
L 101.562136 130.058443 
L 101.663262 129.91265 
L 102.27948 128.954415 
L 102.413901 128.725781 
L 102.898883 127.996179 
L 103.265666 127.390934 
L 103.514949 127.037943 
L 104.117431 126.086677 
L 104.122799 126.079708 
L 104.74962 125.121472 
L 104.969196 124.718848 
L 105.375011 124.163237 
L 105.820961 123.392358 
L 105.989949 123.205001 
L 106.601962 122.246766 
L 106.672726 121.982638 
L 107.391977 121.28853 
L 106.672726 120.668924 
L 106.456352 120.330295 
L 105.820961 120.059518 
L 104.969196 119.529378 
L 104.767207 119.372059 
L 104.117431 119.054985 
L 103.265666 118.580208 
L 102.998371 118.413824 
L 102.413901 118.140882 
L 101.562136 117.713479 
L 101.072204 117.455588 
L 100.710371 117.300659 
L 99.858606 116.91654 
L 99.006841 116.530206 
L 98.936743 116.497353 
L 98.155076 116.182647 
L 97.303312 115.840654 
L 96.543979 115.539117 
L 96.451547 115.506703 
L 95.599782 115.204763 
L 94.748017 114.909431 
L 93.896252 114.622322 
L 93.771429 114.580882 
L 93.044487 114.361816 
L 92.192722 114.11328 
L 91.340957 113.874612 
L 90.489192 113.646613 
L 90.396129 113.622646 
L 89.637427 113.441947 
L 88.785662 113.249502 
L 87.933897 113.068274 
L 87.082133 112.898694 
L 86.230368 112.741121 
L 85.781872 112.664411 
L 85.378603 112.599627 
L 84.526838 112.474122 
L 83.675073 112.360585 
L 82.823308 112.25922 
L 81.971543 112.170195 
L 81.119778 112.093652 
L 80.268013 112.029703 
L 79.416248 111.978441 
L 78.564483 111.939937 
L 77.712719 111.914244 
L 76.860954 111.901399 
L 76.009189 111.901422 
L 75.157424 111.914316 
L 74.305659 111.940067 
L 73.453894 111.978645 
L 72.602129 112.029998 
L 71.750364 112.09405 
L 70.898599 112.170699 
L 70.046834 112.259809 
L 69.195069 112.361203 
L 68.343305 112.474654 
L 67.49154 112.599873 
L 67.083163 112.664411 
L 66.639775 112.741471 
L 65.78801 112.899712 
L 64.936245 113.069835 
L 64.08448 113.25127 
L 63.232715 113.443272 
L 62.471021 113.622646 
L 62.38095 113.646878 
L 61.529185 113.877099 
L 60.67742 114.11708 
L 59.825655 114.365017 
L 59.092219 114.580882 
L 58.973891 114.623335 
L 58.122126 114.916226 
L 57.270361 115.213327 
L 56.418596 115.508271 
L 56.313163 115.539117 
L 55.566831 115.857645 
L 54.715066 116.207296 
L 53.913112 116.497353 
L 53.863301 116.540254 
L 53.011536 117.133809 
L 52.507387 117.455588 
L 53.011536 117.785314 
L 53.164217 118.413824 
L 53.608293 119.372059 
L 53.863301 119.811708 
L 54.057454 120.330295 
L 54.498337 121.28853 
L 54.715066 121.701762 
L 54.939512 122.246766 
L 55.380084 123.205001 
L 55.566831 123.575705 
L 55.819253 124.163237 
L 56.259537 125.121472 
L 56.418596 125.444512 
L 56.698143 126.079708 
L 57.138006 127.037943 
L 57.270361 127.311018 
L 57.576642 127.996179 
L 58.015936 128.954415 
L 58.122126 129.176265 
L 58.454944 129.91265 
L 58.893513 130.870886 
L 58.973891 131.0407 
L 59.333152 131.829121 
L 59.770815 132.787357 
L 59.825655 132.904509 
L 60.211335 133.745592 
L 60.647871 134.703828 
L 60.67742 134.767717 
L 61.089548 135.662063 
L 61.524668 136.620299 
L 61.529185 136.630205 
L 61.967855 137.578534 
L 62.38095 138.49114 
L 62.402209 138.53677 
L 62.846344 139.495005 
L 63.232715 140.35311 
L 63.280257 140.453241 
L 63.725169 141.411476 
L 64.08448 142.216877 
L 64.158799 142.369712 
L 64.604641 143.327947 
L 64.936245 144.083582 
L 65.038242 144.286183 
L 65.485547 145.244418 
L 65.78801 145.95658 
L 65.919881 146.202654 
L 66.370672 147.160889 
L 66.639775 147.850036 
L 66.810758 148.119125 
L 67.282339 149.077361 
L 67.49154 149.989269 
L 68.343305 149.813035 
L 69.195069 149.438834 
L 70.046834 149.113214 
L 70.136489 149.077361 
L 70.898599 148.864457 
L 71.750364 148.648992 
L 72.602129 148.470036 
L 73.453894 148.329065 
L 74.305659 148.22521 
L 75.157424 148.157041 
L 76.009189 148.12332 
L 76.860954 148.123315 
L 77.712719 148.156914 
L 78.564483 148.224618 
L 79.416248 148.327439 
L 80.268013 148.466694 
L 81.119778 148.643603 
L 81.971543 148.858594 
L 82.721036 149.077361 
L 82.823308 149.110796 
L 83.675073 149.407984 
L 84.526838 149.744917 
L 85.238366 150.035596 
L 85.378603 150.118924 
L 86.230368 150.580628 
L 87.070761 150.993832 
z
M 87.070761 150.993832 
L 86.230368 150.580628 
L 85.378603 150.118924 
L 85.238366 150.035596 
L 84.526838 149.744917 
L 83.675073 149.407984 
L 82.823308 149.110796 
L 82.721036 149.077361 
L 81.971543 148.858594 
L 81.119778 148.643603 
L 80.268013 148.466694 
L 79.416248 148.327439 
L 78.564483 148.224618 
L 77.712719 148.156914 
L 76.860954 148.123315 
L 76.009189 148.12332 
L 75.157424 148.157041 
L 74.305659 148.22521 
L 73.453894 148.329065 
L 72.602129 148.470036 
L 71.750364 148.648992 
L 70.898599 148.864457 
L 70.136489 149.077361 
L 70.046834 149.113214 
L 69.195069 149.438834 
L 68.343305 149.813035 
L 67.49154 149.989269 
L 67.282339 149.077361 
L 66.810758 148.119125 
L 66.639775 147.850036 
L 66.370672 147.160889 
L 65.919881 146.202654 
L 65.78801 145.95658 
L 65.485547 145.244418 
L 65.038242 144.286183 
L 64.936245 144.083582 
L 64.604641 143.327947 
L 64.158799 142.369712 
L 64.08448 142.216877 
L 63.725169 141.411476 
L 63.280257 140.453241 
L 63.232715 140.35311 
L 62.846344 139.495005 
L 62.402209 138.53677 
L 62.38095 138.49114 
L 61.967855 137.578534 
L 61.529185 136.630205 
L 61.524668 136.620299 
L 61.089548 135.662063 
L 60.67742 134.767717 
L 60.647871 134.703828 
L 60.211335 133.745592 
L 59.825655 132.904509 
L 59.770815 132.787357 
L 59.333152 131.829121 
L 58.973891 131.0407 
L 58.893513 130.870886 
L 58.454944 129.91265 
L 58.122126 129.176265 
L 58.015936 128.954415 
L 57.576642 127.996179 
L 57.270361 127.311018 
L 57.138006 127.037943 
L 56.698143 126.079708 
L 56.418596 125.444512 
L 56.259537 125.121472 
L 55.819253 124.163237 
L 55.566831 123.575705 
L 55.380084 123.205001 
L 54.939512 122.246766 
L 54.715066 121.701762 
L 54.498337 121.28853 
L 54.057454 120.330295 
L 53.863301 119.811708 
L 53.608293 119.372059 
L 53.164217 118.413824 
L 53.011536 117.785314 
L 52.507387 117.455588 
L 53.011536 117.133809 
L 53.863301 116.540254 
L 53.913112 116.497353 
L 54.715066 116.207296 
L 55.566831 115.857645 
L 56.313163 115.539117 
L 56.418596 115.508271 
L 57.270361 115.213327 
L 58.122126 114.916226 
L 58.973891 114.623335 
L 59.092219 114.580882 
L 59.825655 114.365017 
L 60.67742 114.11708 
L 61.529185 113.877099 
L 62.38095 113.646878 
L 62.471021 113.622646 
L 63.232715 113.443272 
L 64.08448 113.25127 
L 64.936245 113.069835 
L 65.78801 112.899712 
L 66.639775 112.741471 
L 67.083163 112.664411 
L 67.49154 112.599873 
L 68.343305 112.474654 
L 69.195069 112.361203 
L 70.046834 112.259809 
L 70.898599 112.170699 
L 71.750364 112.09405 
L 72.602129 112.029998 
L 73.453894 111.978645 
L 74.305659 111.940067 
L 75.157424 111.914316 
L 76.009189 111.901422 
L 76.860954 111.901399 
L 77.712719 111.914244 
L 78.564483 111.939937 
L 79.416248 111.978441 
L 80.268013 112.029703 
L 81.119778 112.093652 
L 81.971543 112.170195 
L 82.823308 112.25922 
L 83.675073 112.360585 
L 84.526838 112.474122 
L 85.378603 112.599627 
L 85.781872 112.664411 
L 86.230368 112.741121 
L 87.082133 112.898694 
L 87.933897 113.068274 
L 88.785662 113.249502 
L 89.637427 113.441947 
L 90.396129 113.622646 
L 90.489192 113.646613 
L 91.340957 113.874612 
L 92.192722 114.11328 
L 93.044487 114.361816 
L 93.771429 114.580882 
L 93.896252 114.622322 
L 94.748017 114.909431 
L 95.599782 115.204763 
L 96.451547 115.506703 
L 96.543979 115.539117 
L 97.303312 115.840654 
L 98.155076 116.182647 
L 98.936743 116.497353 
L 99.006841 116.530206 
L 99.858606 116.91654 
L 100.710371 117.300659 
L 101.072204 117.455588 
L 101.562136 117.713479 
L 102.413901 118.140882 
L 102.998371 118.413824 
L 103.265666 118.580208 
L 104.117431 119.054985 
L 104.767207 119.372059 
L 104.969196 119.529378 
L 105.820961 120.059518 
L 106.456352 120.330295 
L 106.672726 120.668924 
L 107.391977 121.28853 
L 106.672726 121.982638 
L 106.601962 122.246766 
L 105.989949 123.205001 
L 105.820961 123.392358 
L 105.375011 124.163237 
L 104.969196 124.718848 
L 104.74962 125.121472 
L 104.122799 126.079708 
L 104.117431 126.086677 
L 103.514949 127.037943 
L 103.265666 127.390934 
L 102.898883 127.996179 
L 102.413901 128.725781 
L 102.27948 128.954415 
L 101.663262 129.91265 
L 101.562136 130.058443 
L 101.049174 130.870886 
L 100.710371 131.379222 
L 100.432658 131.829121 
L 99.858606 132.716865 
L 99.815762 132.787357 
L 99.200736 133.745592 
L 99.006841 134.037848 
L 98.584759 134.703828 
L 98.155076 135.36556 
L 97.968978 135.662063 
L 97.354117 136.620299 
L 97.303312 136.697775 
L 96.737077 137.578534 
L 96.451547 138.020551 
L 96.120834 138.53677 
L 95.599782 139.350671 
L 95.507021 139.495005 
L 94.89071 140.453241 
L 94.748017 140.677943 
L 94.272347 141.411476 
L 93.896252 142.005669 
L 93.657144 142.369712 
L 93.047411 143.327947 
L 93.044487 143.332737 
L 92.424524 144.286183 
L 92.192722 144.665328 
L 91.805264 145.244418 
L 91.340957 145.993272 
L 91.193422 146.202654 
L 90.579544 147.160889 
L 90.489192 147.324947 
L 89.948963 148.119125 
L 89.637427 148.67668 
L 89.324264 149.077361 
L 88.785662 149.982876 
L 88.725758 150.035596 
L 88.040458 150.993832 
L 87.933897 151.327495 
L 87.082133 151.01939 
z
" clip-path="url(#pd5343f2132)" style="fill: #add8e6"/>
   </g>
   <g id="PathCollection_3">
    <path d="M 87.082133 151.01939 
L 87.933897 151.327495 
L 88.040458 150.993832 
L 88.725758 150.035596 
L 88.785662 149.982876 
L 89.324264 149.077361 
L 89.637427 148.67668 
L 89.948963 148.119125 
L 90.489192 147.324947 
L 90.579544 147.160889 
L 91.193422 146.202654 
L 91.340957 145.993272 
L 91.805264 145.244418 
L 92.192722 144.665328 
L 92.424524 144.286183 
L 93.044487 143.332737 
L 93.047411 143.327947 
L 93.657144 142.369712 
L 93.896252 142.005669 
L 94.272347 141.411476 
L 94.748017 140.677943 
L 94.89071 140.453241 
L 95.507021 139.495005 
L 95.599782 139.350671 
L 96.120834 138.53677 
L 96.451547 138.020551 
L 96.737077 137.578534 
L 97.303312 136.697775 
L 97.354117 136.620299 
L 97.968978 135.662063 
L 98.155076 135.36556 
L 98.584759 134.703828 
L 99.006841 134.037848 
L 99.200736 133.745592 
L 99.815762 132.787357 
L 99.858606 132.716865 
L 100.432658 131.829121 
L 100.710371 131.379222 
L 101.049174 130.870886 
L 101.562136 130.058443 
L 101.663262 129.91265 
L 102.27948 128.954415 
L 102.413901 128.725781 
L 102.898883 127.996179 
L 103.265666 127.390934 
L 103.514949 127.037943 
L 104.117431 126.086677 
L 104.122799 126.079708 
L 104.74962 125.121472 
L 104.969196 124.718848 
L 105.375011 124.163237 
L 105.820961 123.392358 
L 105.989949 123.205001 
L 106.601962 122.246766 
L 106.672726 121.982638 
L 107.391977 121.28853 
L 106.672726 120.668924 
L 106.456352 120.330295 
L 105.820961 120.059518 
L 104.969196 119.529378 
L 104.767207 119.372059 
L 104.117431 119.054985 
L 103.265666 118.580208 
L 102.998371 118.413824 
L 102.413901 118.140882 
L 101.562136 117.713479 
L 101.072204 117.455588 
L 100.710371 117.300659 
L 99.858606 116.91654 
L 99.006841 116.530206 
L 98.936743 116.497353 
L 98.155076 116.182647 
L 97.303312 115.840654 
L 96.543979 115.539117 
L 96.451547 115.506703 
L 95.599782 115.204763 
L 94.748017 114.909431 
L 93.896252 114.622322 
L 93.771429 114.580882 
L 93.044487 114.361816 
L 92.192722 114.11328 
L 91.340957 113.874612 
L 90.489192 113.646613 
L 90.396129 113.622646 
L 89.637427 113.441947 
L 88.785662 113.249502 
L 87.933897 113.068274 
L 87.082133 112.898694 
L 86.230368 112.741121 
L 85.781872 112.664411 
L 85.378603 112.599627 
L 84.526838 112.474122 
L 83.675073 112.360585 
L 82.823308 112.25922 
L 81.971543 112.170195 
L 81.119778 112.093652 
L 80.268013 112.029703 
L 79.416248 111.978441 
L 78.564483 111.939937 
L 77.712719 111.914244 
L 76.860954 111.901399 
L 76.009189 111.901422 
L 75.157424 111.914316 
L 74.305659 111.940067 
L 73.453894 111.978645 
L 72.602129 112.029998 
L 71.750364 112.09405 
L 70.898599 112.170699 
L 70.046834 112.259809 
L 69.195069 112.361203 
L 68.343305 112.474654 
L 67.49154 112.599873 
L 67.083163 112.664411 
L 66.639775 112.741471 
L 65.78801 112.899712 
L 64.936245 113.069835 
L 64.08448 113.25127 
L 63.232715 113.443272 
L 62.471021 113.622646 
L 62.38095 113.646878 
L 61.529185 113.877099 
L 60.67742 114.11708 
L 59.825655 114.365017 
L 59.092219 114.580882 
L 58.973891 114.623335 
L 58.122126 114.916226 
L 57.270361 115.213327 
L 56.418596 115.508271 
L 56.313163 115.539117 
L 55.566831 115.857645 
L 54.715066 116.207296 
L 53.913112 116.497353 
L 53.863301 116.540254 
L 53.011536 117.133809 
L 52.507387 117.455588 
L 53.011536 117.785314 
L 53.164217 118.413824 
L 53.608293 119.372059 
L 53.863301 119.811708 
L 54.057454 120.330295 
L 54.498337 121.28853 
L 54.715066 121.701762 
L 54.939512 122.246766 
L 55.380084 123.205001 
L 55.566831 123.575705 
L 55.819253 124.163237 
L 56.259537 125.121472 
L 56.418596 125.444512 
L 56.698143 126.079708 
L 57.138006 127.037943 
L 57.270361 127.311018 
L 57.576642 127.996179 
L 58.015936 128.954415 
L 58.122126 129.176265 
L 58.454944 129.91265 
L 58.893513 130.870886 
L 58.973891 131.0407 
L 59.333152 131.829121 
L 59.770815 132.787357 
L 59.825655 132.904509 
L 60.211335 133.745592 
L 60.647871 134.703828 
L 60.67742 134.767717 
L 61.089548 135.662063 
L 61.524668 136.620299 
L 61.529185 136.630205 
L 61.967855 137.578534 
L 62.38095 138.49114 
L 62.402209 138.53677 
L 62.846344 139.495005 
L 63.232715 140.35311 
L 63.280257 140.453241 
L 63.725169 141.411476 
L 64.08448 142.216877 
L 64.158799 142.369712 
L 64.604641 143.327947 
L 64.936245 144.083582 
L 65.038242 144.286183 
L 65.485547 145.244418 
L 65.78801 145.95658 
L 65.919881 146.202654 
L 66.370672 147.160889 
L 66.639775 147.850036 
L 66.810758 148.119125 
L 67.282339 149.077361 
L 67.49154 149.989269 
L 68.343305 149.813035 
L 69.195069 149.438834 
L 70.046834 149.113214 
L 70.136489 149.077361 
L 70.898599 148.864457 
L 71.750364 148.648992 
L 72.602129 148.470036 
L 73.453894 148.329065 
L 74.305659 148.22521 
L 75.157424 148.157041 
L 76.009189 148.12332 
L 76.860954 148.123315 
L 77.712719 148.156914 
L 78.564483 148.224618 
L 79.416248 148.327439 
L 80.268013 148.466694 
L 81.119778 148.643603 
L 81.971543 148.858594 
L 82.721036 149.077361 
L 82.823308 149.110796 
L 83.675073 149.407984 
L 84.526838 149.744917 
L 85.238366 150.035596 
L 85.378603 150.118924 
L 86.230368 150.580628 
L 87.070761 150.993832 
z
M 87.070761 150.993832 
L 86.230368 150.580628 
L 85.378603 150.118924 
L 85.238366 150.035596 
L 84.526838 149.744917 
L 83.675073 149.407984 
L 82.823308 149.110796 
L 82.721036 149.077361 
L 81.971543 148.858594 
L 81.119778 148.643603 
L 80.268013 148.466694 
L 79.416248 148.327439 
L 78.564483 148.224618 
L 77.712719 148.156914 
L 76.860954 148.123315 
L 76.009189 148.12332 
L 75.157424 148.157041 
L 74.305659 148.22521 
L 73.453894 148.329065 
L 72.602129 148.470036 
L 71.750364 148.648992 
L 70.898599 148.864457 
L 70.136489 149.077361 
L 70.046834 149.113214 
L 69.195069 149.438834 
L 68.343305 149.813035 
L 67.49154 149.989269 
L 67.282339 149.077361 
L 66.810758 148.119125 
L 66.639775 147.850036 
L 66.370672 147.160889 
L 65.919881 146.202654 
L 65.78801 145.95658 
L 65.485547 145.244418 
L 65.038242 144.286183 
L 64.936245 144.083582 
L 64.604641 143.327947 
L 64.158799 142.369712 
L 64.08448 142.216877 
L 63.725169 141.411476 
L 63.280257 140.453241 
L 63.232715 140.35311 
L 62.846344 139.495005 
L 62.402209 138.53677 
L 62.38095 138.49114 
L 61.967855 137.578534 
L 61.529185 136.630205 
L 61.524668 136.620299 
L 61.089548 135.662063 
L 60.67742 134.767717 
L 60.647871 134.703828 
L 60.211335 133.745592 
L 59.825655 132.904509 
L 59.770815 132.787357 
L 59.333152 131.829121 
L 58.973891 131.0407 
L 58.893513 130.870886 
L 58.454944 129.91265 
L 58.122126 129.176265 
L 58.015936 128.954415 
L 57.576642 127.996179 
L 57.270361 127.311018 
L 57.138006 127.037943 
L 56.698143 126.079708 
L 56.418596 125.444512 
L 56.259537 125.121472 
L 55.819253 124.163237 
L 55.566831 123.575705 
L 55.380084 123.205001 
L 54.939512 122.246766 
L 54.715066 121.701762 
L 54.498337 121.28853 
L 54.057454 120.330295 
L 53.863301 119.811708 
L 53.608293 119.372059 
L 53.164217 118.413824 
L 53.011536 117.785314 
L 52.507387 117.455588 
L 53.011536 117.133809 
L 53.863301 116.540254 
L 53.913112 116.497353 
L 54.715066 116.207296 
L 55.566831 115.857645 
L 56.313163 115.539117 
L 56.418596 115.508271 
L 57.270361 115.213327 
L 58.122126 114.916226 
L 58.973891 114.623335 
L 59.092219 114.580882 
L 59.825655 114.365017 
L 60.67742 114.11708 
L 61.529185 113.877099 
L 62.38095 113.646878 
L 62.471021 113.622646 
L 63.232715 113.443272 
L 64.08448 113.25127 
L 64.936245 113.069835 
L 65.78801 112.899712 
L 66.639775 112.741471 
L 67.083163 112.664411 
L 67.49154 112.599873 
L 68.343305 112.474654 
L 69.195069 112.361203 
L 70.046834 112.259809 
L 70.898599 112.170699 
L 71.750364 112.09405 
L 72.602129 112.029998 
L 73.453894 111.978645 
L 74.305659 111.940067 
L 75.157424 111.914316 
L 76.009189 111.901422 
L 76.860954 111.901399 
L 77.712719 111.914244 
L 78.564483 111.939937 
L 79.416248 111.978441 
L 80.268013 112.029703 
L 81.119778 112.093652 
L 81.971543 112.170195 
L 82.823308 112.25922 
L 83.675073 112.360585 
L 84.526838 112.474122 
L 85.378603 112.599627 
L 85.781872 112.664411 
L 86.230368 112.741121 
L 87.082133 112.898694 
L 87.933897 113.068274 
L 88.785662 113.249502 
L 89.637427 113.441947 
L 90.396129 113.622646 
L 90.489192 113.646613 
L 91.340957 113.874612 
L 92.192722 114.11328 
L 93.044487 114.361816 
L 93.771429 114.580882 
L 93.896252 114.622322 
L 94.748017 114.909431 
L 95.599782 115.204763 
L 96.451547 115.506703 
L 96.543979 115.539117 
L 97.303312 115.840654 
L 98.155076 116.182647 
L 98.936743 116.497353 
L 99.006841 116.530206 
L 99.858606 116.91654 
L 100.710371 117.300659 
L 101.072204 117.455588 
L 101.562136 117.713479 
L 102.413901 118.140882 
L 102.998371 118.413824 
L 103.265666 118.580208 
L 104.117431 119.054985 
L 104.767207 119.372059 
L 104.969196 119.529378 
L 105.820961 120.059518 
L 106.456352 120.330295 
L 106.672726 120.668924 
L 107.391977 121.28853 
L 106.672726 121.982638 
L 106.601962 122.246766 
L 105.989949 123.205001 
L 105.820961 123.392358 
L 105.375011 124.163237 
L 104.969196 124.718848 
L 104.74962 125.121472 
L 104.122799 126.079708 
L 104.117431 126.086677 
L 103.514949 127.037943 
L 103.265666 127.390934 
L 102.898883 127.996179 
L 102.413901 128.725781 
L 102.27948 128.954415 
L 101.663262 129.91265 
L 101.562136 130.058443 
L 101.049174 130.870886 
L 100.710371 131.379222 
L 100.432658 131.829121 
L 99.858606 132.716865 
L 99.815762 132.787357 
L 99.200736 133.745592 
L 99.006841 134.037848 
L 98.584759 134.703828 
L 98.155076 135.36556 
L 97.968978 135.662063 
L 97.354117 136.620299 
L 97.303312 136.697775 
L 96.737077 137.578534 
L 96.451547 138.020551 
L 96.120834 138.53677 
L 95.599782 139.350671 
L 95.507021 139.495005 
L 94.89071 140.453241 
L 94.748017 140.677943 
L 94.272347 141.411476 
L 93.896252 142.005669 
L 93.657144 142.369712 
L 93.047411 143.327947 
L 93.044487 143.332737 
L 92.424524 144.286183 
L 92.192722 144.665328 
L 91.805264 145.244418 
L 91.340957 145.993272 
L 91.193422 146.202654 
L 90.579544 147.160889 
L 90.489192 147.324947 
L 89.948963 148.119125 
L 89.637427 148.67668 
L 89.324264 149.077361 
L 88.785662 149.982876 
L 88.725758 150.035596 
L 88.040458 150.993832 
L 87.933897 151.327495 
L 87.082133 151.01939 
z
" clip-path="url(#pd5343f2132)" style="fill: #ffffff"/>
   </g>
   <g id="PathCollection_4">
    <path d="M 35.124473 158.659716 
L 35.976238 158.659716 
L 36.828003 158.659716 
L 37.679768 158.659716 
L 38.531533 158.659716 
L 39.383298 158.659716 
L 40.235063 158.659716 
L 41.086827 158.659716 
L 41.938592 158.659716 
L 42.790357 158.659716 
L 43.642122 158.659716 
L 44.493887 158.659716 
L 45.345652 158.659716 
L 46.197417 158.659716 
L 47.049182 158.659716 
L 47.900947 158.659716 
L 48.752712 158.659716 
L 49.604477 158.659716 
L 50.456241 158.659716 
L 51.308006 158.659716 
L 52.159771 158.659716 
L 53.011536 158.659716 
L 53.863301 158.659716 
L 54.715066 158.659716 
L 55.566831 158.659716 
L 56.418596 158.659716 
L 57.270361 158.659716 
L 58.122126 158.659716 
L 58.973891 158.659716 
L 59.825655 158.659716 
L 60.67742 158.659716 
L 61.529185 158.659716 
L 62.38095 158.659716 
L 63.232715 158.659716 
L 64.08448 158.659716 
L 64.936245 158.659716 
L 65.78801 158.659716 
L 66.639775 158.659716 
L 67.49154 158.659716 
L 68.343305 158.659716 
L 69.195069 158.659716 
L 70.046834 158.659716 
L 70.898599 158.659716 
L 71.750364 158.659716 
L 72.602129 158.659716 
L 73.453894 158.659716 
L 74.305659 158.659716 
L 75.157424 158.659716 
L 76.009189 158.659716 
L 76.860954 158.659716 
L 77.712719 158.659716 
L 78.564483 158.659716 
L 79.416248 158.659716 
L 80.268013 158.659716 
L 81.119778 158.659716 
L 81.971543 158.659716 
L 82.823308 158.659716 
L 83.675073 158.659716 
L 84.526838 158.659716 
L 85.378603 158.659716 
L 86.230368 158.659716 
L 87.082133 158.659716 
L 87.933897 158.659716 
L 88.785662 158.659716 
L 89.637427 158.659716 
L 90.489192 158.659716 
L 91.340957 158.659716 
L 92.192722 158.659716 
L 93.044487 158.659716 
L 93.896252 158.659716 
L 94.748017 158.659716 
L 95.599782 158.659716 
L 96.451547 158.659716 
L 97.303312 158.659716 
L 98.155076 158.659716 
L 99.006841 158.659716 
L 99.858606 158.659716 
L 100.710371 158.659716 
L 101.562136 158.659716 
L 102.413901 158.659716 
L 103.265666 158.659716 
L 104.117431 158.659716 
L 104.969196 158.659716 
L 105.820961 158.659716 
L 106.672726 158.659716 
L 107.52449 158.659716 
L 108.376255 158.659716 
L 109.22802 158.659716 
L 110.079785 158.659716 
L 110.93155 158.659716 
L 111.783315 158.659716 
L 112.63508 158.659716 
L 113.486845 158.659716 
L 114.33861 158.659716 
L 115.190375 158.659716 
L 116.04214 158.659716 
L 116.893904 158.659716 
L 117.745669 158.659716 
L 118.597434 158.659716 
L 118.597434 157.70148 
L 118.597434 156.743245 
L 118.597434 155.785009 
L 118.597434 154.826774 
L 118.597434 153.868538 
L 118.597434 152.910303 
L 118.597434 151.952067 
L 118.597434 150.993832 
L 118.597434 150.035596 
L 118.597434 149.077361 
L 118.597434 148.119125 
L 118.597434 147.160889 
L 118.597434 146.202654 
L 118.597434 145.244418 
L 118.597434 144.286183 
L 118.597434 143.327947 
L 118.597434 142.369712 
L 118.597434 141.411476 
L 118.597434 140.453241 
L 118.597434 139.495005 
L 118.597434 138.53677 
L 118.597434 137.578534 
L 118.597434 136.620299 
L 118.597434 135.662063 
L 118.597434 134.703828 
L 118.597434 133.745592 
L 118.597434 132.787357 
L 118.597434 131.829121 
L 118.597434 130.870886 
L 118.597434 129.91265 
L 118.597434 128.954415 
L 118.597434 127.996179 
L 118.597434 127.037943 
L 118.597434 126.079708 
L 118.597434 125.121472 
L 118.597434 124.163237 
L 118.597434 123.205001 
L 118.597434 122.246766 
L 118.597434 121.28853 
L 118.597434 120.330295 
L 118.597434 119.372059 
L 118.597434 118.413824 
L 118.597434 117.455588 
L 118.597434 116.497353 
L 118.597434 115.539117 
L 118.597434 114.580882 
L 118.597434 113.622646 
L 118.597434 112.664411 
L 118.597434 111.706175 
L 118.597434 110.74794 
L 118.597434 109.789704 
L 118.597434 108.831469 
L 118.597434 107.873233 
L 118.597434 106.914997 
L 118.597434 105.956762 
L 118.597434 104.998526 
L 118.597434 104.040291 
L 118.597434 103.082055 
L 118.597434 102.12382 
L 118.597434 101.165584 
L 118.597434 100.207349 
L 118.597434 99.249113 
L 118.597434 98.290878 
L 118.597434 97.332642 
L 118.597434 96.374407 
L 118.597434 95.416171 
L 118.597434 94.457936 
L 118.597434 93.4997 
L 118.597434 92.541465 
L 118.597434 91.583229 
L 118.597434 90.624994 
L 118.597434 89.666758 
L 118.597434 88.708523 
L 118.597434 87.750287 
L 118.597434 86.792051 
L 118.597434 85.833816 
L 118.597434 84.87558 
L 118.597434 83.917345 
L 118.597434 82.959109 
L 118.597434 82.000874 
L 118.597434 81.042638 
L 118.597434 80.084403 
L 118.597434 79.126167 
L 118.597434 78.167932 
L 118.597434 77.209696 
L 118.597434 76.251461 
L 118.597434 75.293225 
L 118.597434 74.33499 
L 118.597434 73.376754 
L 118.597434 72.418519 
L 118.597434 71.460283 
L 118.597434 70.502048 
L 118.597434 69.543812 
L 118.597434 68.585577 
L 118.597434 67.627341 
L 118.597434 66.669105 
L 118.597434 65.71087 
L 118.597434 64.752634 
L 118.597434 63.794399 
L 117.745669 63.794399 
L 116.893904 63.794399 
L 116.04214 63.794399 
L 115.190375 63.794399 
L 114.33861 63.794399 
L 113.486845 63.794399 
L 112.63508 63.794399 
L 111.783315 63.794399 
L 110.93155 63.794399 
L 110.079785 63.794399 
L 109.22802 63.794399 
L 108.376255 63.794399 
L 107.52449 63.794399 
L 106.672726 63.794399 
L 105.820961 63.794399 
L 104.969196 63.794399 
L 104.117431 63.794399 
L 103.265666 63.794399 
L 102.413901 63.794399 
L 101.562136 63.794399 
L 100.710371 63.794399 
L 99.858606 63.794399 
L 99.006841 63.794399 
L 98.155076 63.794399 
L 97.303312 63.794399 
L 96.451547 63.794399 
L 95.599782 63.794399 
L 94.748017 63.794399 
L 93.896252 63.794399 
L 93.044487 63.794399 
L 92.192722 63.794399 
L 91.340957 63.794399 
L 90.489192 63.794399 
L 89.637427 63.794399 
L 88.785662 63.794399 
L 87.933897 63.794399 
L 87.082133 63.794399 
L 86.230368 63.794399 
L 85.378603 63.794399 
L 84.526838 63.794399 
L 83.675073 63.794399 
L 82.823308 63.794399 
L 81.971543 63.794399 
L 81.119778 63.794399 
L 80.268013 63.794399 
L 79.416248 63.794399 
L 78.564483 63.794399 
L 77.712719 63.794399 
L 76.860954 63.794399 
L 76.009189 63.794399 
L 75.157424 63.794399 
L 74.305659 63.794399 
L 73.453894 63.794399 
L 72.602129 63.794399 
L 71.750364 63.794399 
L 70.898599 63.794399 
L 70.046834 63.794399 
L 69.195069 63.794399 
L 68.343305 63.794399 
L 67.49154 63.794399 
L 66.639775 63.794399 
L 65.78801 63.794399 
L 64.936245 63.794399 
L 64.08448 63.794399 
L 63.232715 63.794399 
L 62.38095 63.794399 
L 61.529185 63.794399 
L 60.67742 63.794399 
L 59.825655 63.794399 
L 58.973891 63.794399 
L 58.122126 63.794399 
L 57.270361 63.794399 
L 56.418596 63.794399 
L 55.566831 63.794399 
L 54.715066 63.794399 
L 53.863301 63.794399 
L 53.011536 63.794399 
L 52.159771 63.794399 
L 51.308006 63.794399 
L 50.456241 63.794399 
L 49.604477 63.794399 
L 48.752712 63.794399 
L 47.900947 63.794399 
L 47.049182 63.794399 
L 46.197417 63.794399 
L 45.345652 63.794399 
L 44.493887 63.794399 
L 43.642122 63.794399 
L 42.790357 63.794399 
L 41.938592 63.794399 
L 41.086827 63.794399 
L 40.235063 63.794399 
L 39.383298 63.794399 
L 38.531533 63.794399 
L 37.679768 63.794399 
L 36.828003 63.794399 
L 35.976238 63.794399 
L 35.124473 63.794399 
L 34.272708 63.794399 
L 34.272708 64.752634 
L 34.272708 65.71087 
L 34.272708 66.669105 
L 34.272708 67.627341 
L 34.272708 68.585577 
L 34.272708 69.543812 
L 34.272708 70.502048 
L 34.272708 71.460283 
L 34.272708 72.418519 
L 34.272708 73.376754 
L 34.272708 74.33499 
L 34.272708 75.293225 
L 34.272708 76.251461 
L 34.272708 77.209696 
L 34.272708 78.167932 
L 34.272708 79.126167 
L 34.272708 80.084403 
L 34.272708 81.042638 
L 34.272708 82.000874 
L 34.272708 82.959109 
L 34.272708 83.917345 
L 34.272708 84.87558 
L 34.272708 85.833816 
L 34.272708 86.792051 
L 34.272708 87.750287 
L 34.272708 88.708523 
L 34.272708 89.666758 
L 34.272708 90.624994 
L 34.272708 91.583229 
L 34.272708 92.541465 
L 34.272708 93.4997 
L 34.272708 94.457936 
L 34.272708 95.416171 
L 34.272708 96.374407 
L 34.272708 97.332642 
L 34.272708 98.290878 
L 34.272708 99.249113 
L 34.272708 100.207349 
L 34.272708 101.165584 
L 34.272708 102.12382 
L 34.272708 103.082055 
L 34.272708 104.040291 
L 34.272708 104.998526 
L 34.272708 105.956762 
L 34.272708 106.914997 
L 34.272708 107.873233 
L 34.272708 108.831469 
L 34.272708 109.789704 
L 34.272708 110.74794 
L 34.272708 111.706175 
L 34.272708 112.664411 
L 34.272708 113.622646 
L 34.272708 114.580882 
L 34.272708 115.539117 
L 34.272708 116.497353 
L 34.272708 117.455588 
L 34.272708 118.413824 
L 34.272708 119.372059 
L 34.272708 120.330295 
L 34.272708 121.28853 
L 34.272708 122.246766 
L 34.272708 123.205001 
L 34.272708 124.163237 
L 34.272708 125.121472 
L 34.272708 126.079708 
L 34.272708 127.037943 
L 34.272708 127.996179 
L 34.272708 128.954415 
L 34.272708 129.91265 
L 34.272708 130.870886 
L 34.272708 131.829121 
L 34.272708 132.787357 
L 34.272708 133.745592 
L 34.272708 134.703828 
L 34.272708 135.662063 
L 34.272708 136.620299 
L 34.272708 137.578534 
L 34.272708 138.53677 
L 34.272708 139.495005 
L 34.272708 140.453241 
L 34.272708 141.411476 
L 34.272708 142.369712 
L 34.272708 143.327947 
L 34.272708 144.286183 
L 34.272708 145.244418 
L 34.272708 146.202654 
L 34.272708 147.160889 
L 34.272708 148.119125 
L 34.272708 149.077361 
L 34.272708 150.035596 
L 34.272708 150.993832 
L 34.272708 151.952067 
L 34.272708 152.910303 
L 34.272708 153.868538 
L 34.272708 154.826774 
L 34.272708 155.785009 
L 34.272708 156.743245 
L 34.272708 157.70148 
L 34.272708 158.659716 
L 35.124473 158.659716 
z
M 87.070761 150.993832 
L 86.230368 150.580628 
L 85.378603 150.118924 
L 85.238366 150.035596 
L 84.526838 149.744917 
L 83.675073 149.407984 
L 82.823308 149.110796 
L 82.721036 149.077361 
L 81.971543 148.858594 
L 81.119778 148.643603 
L 80.268013 148.466694 
L 79.416248 148.327439 
L 78.564483 148.224618 
L 77.712719 148.156914 
L 76.860954 148.123315 
L 76.009189 148.12332 
L 75.157424 148.157041 
L 74.305659 148.22521 
L 73.453894 148.329065 
L 72.602129 148.470036 
L 71.750364 148.648992 
L 70.898599 148.864457 
L 70.136489 149.077361 
L 70.046834 149.113214 
L 69.195069 149.438834 
L 68.343305 149.813035 
L 67.49154 149.989269 
L 67.282339 149.077361 
L 66.810758 148.119125 
L 66.639775 147.850036 
L 66.370672 147.160889 
L 65.919881 146.202654 
L 65.78801 145.95658 
L 65.485547 145.244418 
L 65.038242 144.286183 
L 64.936245 144.083582 
L 64.604641 143.327947 
L 64.158799 142.369712 
L 64.08448 142.216877 
L 63.725169 141.411476 
L 63.280257 140.453241 
L 63.232715 140.35311 
L 62.846344 139.495005 
L 62.402209 138.53677 
L 62.38095 138.49114 
L 61.967855 137.578534 
L 61.529185 136.630205 
L 61.524668 136.620299 
L 61.089548 135.662063 
L 60.67742 134.767717 
L 60.647871 134.703828 
L 60.211335 133.745592 
L 59.825655 132.904509 
L 59.770815 132.787357 
L 59.333152 131.829121 
L 58.973891 131.0407 
L 58.893513 130.870886 
L 58.454944 129.91265 
L 58.122126 129.176265 
L 58.015936 128.954415 
L 57.576642 127.996179 
L 57.270361 127.311018 
L 57.138006 127.037943 
L 56.698143 126.079708 
L 56.418596 125.444512 
L 56.259537 125.121472 
L 55.819253 124.163237 
L 55.566831 123.575705 
L 55.380084 123.205001 
L 54.939512 122.246766 
L 54.715066 121.701762 
L 54.498337 121.28853 
L 54.057454 120.330295 
L 53.863301 119.811708 
L 53.608293 119.372059 
L 53.164217 118.413824 
L 53.011536 117.785314 
L 52.507387 117.455588 
L 53.011536 117.133809 
L 53.863301 116.540254 
L 53.913112 116.497353 
L 54.715066 116.207296 
L 55.566831 115.857645 
L 56.313163 115.539117 
L 56.418596 115.508271 
L 57.270361 115.213327 
L 58.122126 114.916226 
L 58.973891 114.623335 
L 59.092219 114.580882 
L 59.825655 114.365017 
L 60.67742 114.11708 
L 61.529185 113.877099 
L 62.38095 113.646878 
L 62.471021 113.622646 
L 63.232715 113.443272 
L 64.08448 113.25127 
L 64.936245 113.069835 
L 65.78801 112.899712 
L 66.639775 112.741471 
L 67.083163 112.664411 
L 67.49154 112.599873 
L 68.343305 112.474654 
L 69.195069 112.361203 
L 70.046834 112.259809 
L 70.898599 112.170699 
L 71.750364 112.09405 
L 72.602129 112.029998 
L 73.453894 111.978645 
L 74.305659 111.940067 
L 75.157424 111.914316 
L 76.009189 111.901422 
L 76.860954 111.901399 
L 77.712719 111.914244 
L 78.564483 111.939937 
L 79.416248 111.978441 
L 80.268013 112.029703 
L 81.119778 112.093652 
L 81.971543 112.170195 
L 82.823308 112.25922 
L 83.675073 112.360585 
L 84.526838 112.474122 
L 85.378603 112.599627 
L 85.781872 112.664411 
L 86.230368 112.741121 
L 87.082133 112.898694 
L 87.933897 113.068274 
L 88.785662 113.249502 
L 89.637427 113.441947 
L 90.396129 113.622646 
L 90.489192 113.646613 
L 91.340957 113.874612 
L 92.192722 114.11328 
L 93.044487 114.361816 
L 93.771429 114.580882 
L 93.896252 114.622322 
L 94.748017 114.909431 
L 95.599782 115.204763 
L 96.451547 115.506703 
L 96.543979 115.539117 
L 97.303312 115.840654 
L 98.155076 116.182647 
L 98.936743 116.497353 
L 99.006841 116.530206 
L 99.858606 116.91654 
L 100.710371 117.300659 
L 101.072204 117.455588 
L 101.562136 117.713479 
L 102.413901 118.140882 
L 102.998371 118.413824 
L 103.265666 118.580208 
L 104.117431 119.054985 
L 104.767207 119.372059 
L 104.969196 119.529378 
L 105.820961 120.059518 
L 106.456352 120.330295 
L 106.672726 120.668924 
L 107.391977 121.28853 
L 106.672726 121.982638 
L 106.601962 122.246766 
L 105.989949 123.205001 
L 105.820961 123.392358 
L 105.375011 124.163237 
L 104.969196 124.718848 
L 104.74962 125.121472 
L 104.122799 126.079708 
L 104.117431 126.086677 
L 103.514949 127.037943 
L 103.265666 127.390934 
L 102.898883 127.996179 
L 102.413901 128.725781 
L 102.27948 128.954415 
L 101.663262 129.91265 
L 101.562136 130.058443 
L 101.049174 130.870886 
L 100.710371 131.379222 
L 100.432658 131.829121 
L 99.858606 132.716865 
L 99.815762 132.787357 
L 99.200736 133.745592 
L 99.006841 134.037848 
L 98.584759 134.703828 
L 98.155076 135.36556 
L 97.968978 135.662063 
L 97.354117 136.620299 
L 97.303312 136.697775 
L 96.737077 137.578534 
L 96.451547 138.020551 
L 96.120834 138.53677 
L 95.599782 139.350671 
L 95.507021 139.495005 
L 94.89071 140.453241 
L 94.748017 140.677943 
L 94.272347 141.411476 
L 93.896252 142.005669 
L 93.657144 142.369712 
L 93.047411 143.327947 
L 93.044487 143.332737 
L 92.424524 144.286183 
L 92.192722 144.665328 
L 91.805264 145.244418 
L 91.340957 145.993272 
L 91.193422 146.202654 
L 90.579544 147.160889 
L 90.489192 147.324947 
L 89.948963 148.119125 
L 89.637427 148.67668 
L 89.324264 149.077361 
L 88.785662 149.982876 
L 88.725758 150.035596 
L 88.040458 150.993832 
L 87.933897 151.327495 
L 87.082133 151.01939 
L 87.070761 150.993832 
z
" clip-path="url(#pd5343f2132)" style="fill: none"/>
   </g>
   <g id="matplotlib.axis_1">
    <g id="xtick_1">
     <g id="line2d_1">
      <defs>
       <path id="md4a22d8cd5" d="M 0 0 
L 0 3.5 
" style="stroke: #000000; stroke-width: 0.8"/>
      </defs>
      <g>
       <use xlink:href="#md4a22d8cd5" x="34.272708" y="169.200307" style="stroke: #000000; stroke-width: 0.8"/>
      </g>
     </g>
     <g id="text_1">
      <!-- −2 -->
      <g transform="translate(26.901614 183.798744) scale(0.1 -0.1)">
       <defs>
        <path id="DejaVuSans-2212" d="M 678 2272 
L 4684 2272 
L 4684 1741 
L 678 1741 
L 678 2272 
z
" transform="scale(0.015625)"/>
        <path id="DejaVuSans-32" d="M 1228 531 
L 3431 531 
L 3431 0 
L 469 0 
L 469 531 
Q 828 903 1448 1529 
Q 2069 2156 2228 2338 
Q 2531 2678 2651 2914 
Q 2772 3150 2772 3378 
Q 2772 3750 2511 3984 
Q 2250 4219 1831 4219 
Q 1534 4219 1204 4116 
Q 875 4013 500 3803 
L 500 4441 
Q 881 4594 1212 4672 
Q 1544 4750 1819 4750 
Q 2544 4750 2975 4387 
Q 3406 4025 3406 3419 
Q 3406 3131 3298 2873 
Q 3191 2616 2906 2266 
Q 2828 2175 2409 1742 
Q 1991 1309 1228 531 
z
" transform="scale(0.015625)"/>
       </defs>
       <use xlink:href="#DejaVuSans-2212"/>
       <use xlink:href="#DejaVuSans-32" x="83.789062"/>
      </g>
     </g>
    </g>
    <g id="xtick_2">
     <g id="line2d_2">
      <g>
       <use xlink:href="#md4a22d8cd5" x="76.435071" y="169.200307" style="stroke: #000000; stroke-width: 0.8"/>
      </g>
     </g>
    </g>
    <g id="xtick_3">
     <g id="line2d_3">
      <g>
       <use xlink:href="#md4a22d8cd5" x="118.597434" y="169.200307" style="stroke: #000000; stroke-width: 0.8"/>
      </g>
     </g>
     <g id="text_2">
      <!-- 2 -->
      <g transform="translate(115.416184 183.798744) scale(0.1 -0.1)">
       <use xlink:href="#DejaVuSans-32"/>
      </g>
     </g>
    </g>
    <g id="xtick_4">
     <g id="line2d_4">
      <g>
       <use xlink:href="#md4a22d8cd5" x="160.759797" y="169.200307" style="stroke: #000000; stroke-width: 0.8"/>
      </g>
     </g>
     <g id="text_3">
      <!-- 4 -->
      <g transform="translate(157.578547 183.798744) scale(0.1 -0.1)">
       <defs>
        <path id="DejaVuSans-34" d="M 2419 4116 
L 825 1625 
L 2419 1625 
L 2419 4116 
z
M 2253 4666 
L 3047 4666 
L 3047 1625 
L 3713 1625 
L 3713 1100 
L 3047 1100 
L 3047 0 
L 2419 0 
L 2419 1100 
L 313 1100 
L 313 1709 
L 2253 4666 
z
" transform="scale(0.015625)"/>
       </defs>
       <use xlink:href="#DejaVuSans-34"/>
      </g>
     </g>
    </g>
    <g id="xtick_5">
     <g id="line2d_5">
      <g>
       <use xlink:href="#md4a22d8cd5" x="202.92216" y="169.200307" style="stroke: #000000; stroke-width: 0.8"/>
      </g>
     </g>
     <g id="text_4">
      <!-- 6 -->
      <g transform="translate(199.74091 183.798744) scale(0.1 -0.1)">
       <defs>
        <path id="DejaVuSans-36" d="M 2113 2584 
Q 1688 2584 1439 2293 
Q 1191 2003 1191 1497 
Q 1191 994 1439 701 
Q 1688 409 2113 409 
Q 2538 409 2786 701 
Q 3034 994 3034 1497 
Q 3034 2003 2786 2293 
Q 2538 2584 2113 2584 
z
M 3366 4563 
L 3366 3988 
Q 3128 4100 2886 4159 
Q 2644 4219 2406 4219 
Q 1781 4219 1451 3797 
Q 1122 3375 1075 2522 
Q 1259 2794 1537 2939 
Q 1816 3084 2150 3084 
Q 2853 3084 3261 2657 
Q 3669 2231 3669 1497 
Q 3669 778 3244 343 
Q 2819 -91 2113 -91 
Q 1303 -91 875 529 
Q 447 1150 447 2328 
Q 447 3434 972 4092 
Q 1497 4750 2381 4750 
Q 2619 4750 2861 4703 
Q 3103 4656 3366 4563 
z
" transform="scale(0.015625)"/>
       </defs>
       <use xlink:href="#DejaVuSans-36"/>
      </g>
     </g>
    </g>
    <g id="xtick_6">
     <g id="line2d_6">
      <defs>
       <path id="m25a516f985" d="M 0 0 
L 0 2 
" style="stroke: #000000; stroke-width: 0.6"/>
      </defs>
      <g>
       <use xlink:href="#m25a516f985" x="13.191527" y="169.200307" style="stroke: #000000; stroke-width: 0.6"/>
      </g>
     </g>
    </g>
    <g id="xtick_7">
     <g id="line2d_7">
      <g>
       <use xlink:href="#m25a516f985" x="23.732117" y="169.200307" style="stroke: #000000; stroke-width: 0.6"/>
      </g>
     </g>
    </g>
    <g id="xtick_8">
     <g id="line2d_8">
      <g>
       <use xlink:href="#m25a516f985" x="44.813299" y="169.200307" style="stroke: #000000; stroke-width: 0.6"/>
      </g>
     </g>
    </g>
    <g id="xtick_9">
     <g id="line2d_9">
      <g>
       <use xlink:href="#m25a516f985" x="55.35389" y="169.200307" style="stroke: #000000; stroke-width: 0.6"/>
      </g>
     </g>
    </g>
    <g id="xtick_10">
     <g id="line2d_10">
      <g>
       <use xlink:href="#m25a516f985" x="65.89448" y="169.200307" style="stroke: #000000; stroke-width: 0.6"/>
      </g>
     </g>
    </g>
    <g id="xtick_11">
     <g id="line2d_11">
      <g>
       <use xlink:href="#m25a516f985" x="86.975662" y="169.200307" style="stroke: #000000; stroke-width: 0.6"/>
      </g>
     </g>
    </g>
    <g id="xtick_12">
     <g id="line2d_12">
      <g>
       <use xlink:href="#m25a516f985" x="97.516253" y="169.200307" style="stroke: #000000; stroke-width: 0.6"/>
      </g>
     </g>
    </g>
    <g id="xtick_13">
     <g id="line2d_13">
      <g>
       <use xlink:href="#m25a516f985" x="108.056843" y="169.200307" style="stroke: #000000; stroke-width: 0.6"/>
      </g>
     </g>
    </g>
    <g id="xtick_14">
     <g id="line2d_14">
      <g>
       <use xlink:href="#m25a516f985" x="129.138025" y="169.200307" style="stroke: #000000; stroke-width: 0.6"/>
      </g>
     </g>
    </g>
    <g id="xtick_15">
     <g id="line2d_15">
      <g>
       <use xlink:href="#m25a516f985" x="139.678616" y="169.200307" style="stroke: #000000; stroke-width: 0.6"/>
      </g>
     </g>
    </g>
    <g id="xtick_16">
     <g id="line2d_16">
      <g>
       <use xlink:href="#m25a516f985" x="150.219207" y="169.200307" style="stroke: #000000; stroke-width: 0.6"/>
      </g>
     </g>
    </g>
    <g id="xtick_17">
     <g id="line2d_17">
      <g>
       <use xlink:href="#m25a516f985" x="171.300388" y="169.200307" style="stroke: #000000; stroke-width: 0.6"/>
      </g>
     </g>
    </g>
    <g id="xtick_18">
     <g id="line2d_18">
      <g>
       <use xlink:href="#m25a516f985" x="181.840979" y="169.200307" style="stroke: #000000; stroke-width: 0.6"/>
      </g>
     </g>
    </g>
    <g id="xtick_19">
     <g id="line2d_19">
      <g>
       <use xlink:href="#m25a516f985" x="192.38157" y="169.200307" style="stroke: #000000; stroke-width: 0.6"/>
      </g>
     </g>
    </g>
    <g id="xtick_20">
     <g id="line2d_20">
      <g>
       <use xlink:href="#m25a516f985" x="213.462751" y="169.200307" style="stroke: #000000; stroke-width: 0.6"/>
      </g>
     </g>
    </g>
    <g id="xtick_21">
     <g id="line2d_21">
      <g>
       <use xlink:href="#m25a516f985" x="224.003342" y="169.200307" style="stroke: #000000; stroke-width: 0.6"/>
      </g>
     </g>
    </g>
    <g id="xtick_22">
     <g id="line2d_22">
      <g>
       <use xlink:href="#m25a516f985" x="234.543933" y="169.200307" style="stroke: #000000; stroke-width: 0.6"/>
      </g>
     </g>
    </g>
   </g>
   <g id="matplotlib.axis_2">
    <g id="ytick_1">
     <g id="line2d_23">
      <defs>
       <path id="m02dc132cf0" d="M 0 0 
L -3.5 0 
" style="stroke: #000000; stroke-width: 0.8"/>
      </defs>
      <g>
       <use xlink:href="#m02dc132cf0" x="76.435071" y="295.687396" style="stroke: #000000; stroke-width: 0.8"/>
      </g>
     </g>
     <g id="text_5">
      <!-- −6 -->
      <g transform="translate(54.692884 299.486614) scale(0.1 -0.1)">
       <use xlink:href="#DejaVuSans-2212"/>
       <use xlink:href="#DejaVuSans-36" x="83.789062"/>
      </g>
     </g>
    </g>
    <g id="ytick_2">
     <g id="line2d_24">
      <g>
       <use xlink:href="#m02dc132cf0" x="76.435071" y="253.525033" style="stroke: #000000; stroke-width: 0.8"/>
      </g>
     </g>
     <g id="text_6">
      <!-- −4 -->
      <g transform="translate(54.692884 257.324251) scale(0.1 -0.1)">
       <use xlink:href="#DejaVuSans-2212"/>
       <use xlink:href="#DejaVuSans-34" x="83.789062"/>
      </g>
     </g>
    </g>
    <g id="ytick_3">
     <g id="line2d_25">
      <g>
       <use xlink:href="#m02dc132cf0" x="76.435071" y="211.36267" style="stroke: #000000; stroke-width: 0.8"/>
      </g>
     </g>
     <g id="text_7">
      <!-- −2 -->
      <g transform="translate(54.692884 215.161888) scale(0.1 -0.1)">
       <use xlink:href="#DejaVuSans-2212"/>
       <use xlink:href="#DejaVuSans-32" x="83.789062"/>
      </g>
     </g>
    </g>
    <g id="ytick_4">
     <g id="line2d_26">
      <g>
       <use xlink:href="#m02dc132cf0" x="76.435071" y="169.200307" style="stroke: #000000; stroke-width: 0.8"/>
      </g>
     </g>
    </g>
    <g id="ytick_5">
     <g id="line2d_27">
      <g>
       <use xlink:href="#m02dc132cf0" x="76.435071" y="127.037943" style="stroke: #000000; stroke-width: 0.8"/>
      </g>
     </g>
     <g id="text_8">
      <!-- 2 -->
      <g transform="translate(63.072571 130.837162) scale(0.1 -0.1)">
       <use xlink:href="#DejaVuSans-32"/>
      </g>
     </g>
    </g>
    <g id="ytick_6">
     <g id="line2d_28">
      <g>
       <use xlink:href="#m02dc132cf0" x="76.435071" y="84.87558" style="stroke: #000000; stroke-width: 0.8"/>
      </g>
     </g>
     <g id="text_9">
      <!-- 4 -->
      <g transform="translate(63.072571 88.674799) scale(0.1 -0.1)">
       <use xlink:href="#DejaVuSans-34"/>
      </g>
     </g>
    </g>
    <g id="ytick_7">
     <g id="line2d_29">
      <g>
       <use xlink:href="#m02dc132cf0" x="76.435071" y="42.713217" style="stroke: #000000; stroke-width: 0.8"/>
      </g>
     </g>
     <g id="text_10">
      <!-- 6 -->
      <g transform="translate(63.072571 46.512436) scale(0.1 -0.1)">
       <use xlink:href="#DejaVuSans-36"/>
      </g>
     </g>
    </g>
    <g id="ytick_8">
     <g id="line2d_30">
      <defs>
       <path id="m6e58221e6a" d="M 0 0 
L -2 0 
" style="stroke: #000000; stroke-width: 0.6"/>
      </defs>
      <g>
       <use xlink:href="#m6e58221e6a" x="76.435071" y="327.309168" style="stroke: #000000; stroke-width: 0.6"/>
      </g>
     </g>
    </g>
    <g id="ytick_9">
     <g id="line2d_31">
      <g>
       <use xlink:href="#m6e58221e6a" x="76.435071" y="316.768577" style="stroke: #000000; stroke-width: 0.6"/>
      </g>
     </g>
    </g>
    <g id="ytick_10">
     <g id="line2d_32">
      <g>
       <use xlink:href="#m6e58221e6a" x="76.435071" y="306.227986" style="stroke: #000000; stroke-width: 0.6"/>
      </g>
     </g>
    </g>
    <g id="ytick_11">
     <g id="line2d_33">
      <g>
       <use xlink:href="#m6e58221e6a" x="76.435071" y="285.146805" style="stroke: #000000; stroke-width: 0.6"/>
      </g>
     </g>
    </g>
    <g id="ytick_12">
     <g id="line2d_34">
      <g>
       <use xlink:href="#m6e58221e6a" x="76.435071" y="274.606214" style="stroke: #000000; stroke-width: 0.6"/>
      </g>
     </g>
    </g>
    <g id="ytick_13">
     <g id="line2d_35">
      <g>
       <use xlink:href="#m6e58221e6a" x="76.435071" y="264.065623" style="stroke: #000000; stroke-width: 0.6"/>
      </g>
     </g>
    </g>
    <g id="ytick_14">
     <g id="line2d_36">
      <g>
       <use xlink:href="#m6e58221e6a" x="76.435071" y="242.984442" style="stroke: #000000; stroke-width: 0.6"/>
      </g>
     </g>
    </g>
    <g id="ytick_15">
     <g id="line2d_37">
      <g>
       <use xlink:href="#m6e58221e6a" x="76.435071" y="232.443851" style="stroke: #000000; stroke-width: 0.6"/>
      </g>
     </g>
    </g>
    <g id="ytick_16">
     <g id="line2d_38">
      <g>
       <use xlink:href="#m6e58221e6a" x="76.435071" y="221.90326" style="stroke: #000000; stroke-width: 0.6"/>
      </g>
     </g>
    </g>
    <g id="ytick_17">
     <g id="line2d_39">
      <g>
       <use xlink:href="#m6e58221e6a" x="76.435071" y="200.822079" style="stroke: #000000; stroke-width: 0.6"/>
      </g>
     </g>
    </g>
    <g id="ytick_18">
     <g id="line2d_40">
      <g>
       <use xlink:href="#m6e58221e6a" x="76.435071" y="190.281488" style="stroke: #000000; stroke-width: 0.6"/>
      </g>
     </g>
    </g>
    <g id="ytick_19">
     <g id="line2d_41">
      <g>
       <use xlink:href="#m6e58221e6a" x="76.435071" y="179.740897" style="stroke: #000000; stroke-width: 0.6"/>
      </g>
     </g>
    </g>
    <g id="ytick_20">
     <g id="line2d_42">
      <g>
       <use xlink:href="#m6e58221e6a" x="76.435071" y="158.659716" style="stroke: #000000; stroke-width: 0.6"/>
      </g>
     </g>
    </g>
    <g id="ytick_21">
     <g id="line2d_43">
      <g>
       <use xlink:href="#m6e58221e6a" x="76.435071" y="148.119125" style="stroke: #000000; stroke-width: 0.6"/>
      </g>
     </g>
    </g>
    <g id="ytick_22">
     <g id="line2d_44">
      <g>
       <use xlink:href="#m6e58221e6a" x="76.435071" y="137.578534" style="stroke: #000000; stroke-width: 0.6"/>
      </g>
     </g>
    </g>
    <g id="ytick_23">
     <g id="line2d_45">
      <g>
       <use xlink:href="#m6e58221e6a" x="76.435071" y="116.497353" style="stroke: #000000; stroke-width: 0.6"/>
      </g>
     </g>
    </g>
    <g id="ytick_24">
     <g id="line2d_46">
      <g>
       <use xlink:href="#m6e58221e6a" x="76.435071" y="105.956762" style="stroke: #000000; stroke-width: 0.6"/>
      </g>
     </g>
    </g>
    <g id="ytick_25">
     <g id="line2d_47">
      <g>
       <use xlink:href="#m6e58221e6a" x="76.435071" y="95.416171" style="stroke: #000000; stroke-width: 0.6"/>
      </g>
     </g>
    </g>
    <g id="ytick_26">
     <g id="line2d_48">
      <g>
       <use xlink:href="#m6e58221e6a" x="76.435071" y="74.33499" style="stroke: #000000; stroke-width: 0.6"/>
      </g>
     </g>
    </g>
    <g id="ytick_27">
     <g id="line2d_49">
      <g>
       <use xlink:href="#m6e58221e6a" x="76.435071" y="63.794399" style="stroke: #000000; stroke-width: 0.6"/>
      </g>
     </g>
    </g>
    <g id="ytick_28">
     <g id="line2d_50">
      <g>
       <use xlink:href="#m6e58221e6a" x="76.435071" y="53.253808" style="stroke: #000000; stroke-width: 0.6"/>
      </g>
     </g>
    </g>
    <g id="ytick_29">
     <g id="line2d_51">
      <g>
       <use xlink:href="#m6e58221e6a" x="76.435071" y="32.172627" style="stroke: #000000; stroke-width: 0.6"/>
      </g>
     </g>
    </g>
    <g id="ytick_30">
     <g id="line2d_52">
      <g>
       <use xlink:href="#m6e58221e6a" x="76.435071" y="21.632036" style="stroke: #000000; stroke-width: 0.6"/>
      </g>
     </g>
    </g>
    <g id="ytick_31">
     <g id="line2d_53">
      <g>
       <use xlink:href="#m6e58221e6a" x="76.435071" y="11.091445" style="stroke: #000000; stroke-width: 0.6"/>
      </g>
     </g>
    </g>
   </g>
   <g id="PathCollection_5">
    <path d="M 87.082133 151.01939 
L 87.070761 150.993832 
L 83.675073 149.407984 
L 81.971543 148.858594 
L 79.416248 148.327439 
L 76.860954 148.123315 
L 74.305659 148.22521 
L 72.602129 148.470036 
L 70.046834 149.113214 
L 67.49154 149.989269 
L 67.282339 149.077361 
L 64.936245 144.083582 
L 61.967855 137.578534 
L 53.164217 118.413824 
L 53.011536 117.785314 
L 52.507387 117.455588 
L 53.913112 116.497353 
L 60.67742 114.11708 
L 64.08448 113.25127 
L 67.49154 112.599873 
L 70.898599 112.170699 
L 74.305659 111.940067 
L 77.712719 111.914244 
L 81.119778 112.093652 
L 84.526838 112.474122 
L 87.933897 113.068274 
L 91.340957 113.874612 
L 94.748017 114.909431 
L 98.155076 116.182647 
L 101.072204 117.455588 
L 106.456352 120.330295 
L 106.672726 120.668924 
L 107.391977 121.28853 
L 106.672726 121.982638 
L 106.601962 122.246766 
L 89.637427 148.67668 
L 89.324264 149.077361 
L 88.725758 150.035596 
L 87.933897 151.327495 
L 87.082133 151.01939 
L 87.082133 151.01939 
" clip-path="url(#pd5343f2132)" style="fill: none; stroke: #add8e6; stroke-width: 1.5"/>
   </g>
   <g id="PathCollection_6">
    <path d="M 87.082133 151.01939 
L 87.070761 150.993832 
L 83.675073 149.407984 
L 81.971543 148.858594 
L 79.416248 148.327439 
L 76.860954 148.123315 
L 74.305659 148.22521 
L 72.602129 148.470036 
L 70.046834 149.113214 
L 67.49154 149.989269 
L 67.282339 149.077361 
L 64.936245 144.083582 
L 61.967855 137.578534 
L 53.164217 118.413824 
L 53.011536 117.785314 
L 52.507387 117.455588 
L 53.913112 116.497353 
L 60.67742 114.11708 
L 64.08448 113.25127 
L 67.49154 112.599873 
L 70.898599 112.170699 
L 74.305659 111.940067 
L 77.712719 111.914244 
L 81.119778 112.093652 
L 84.526838 112.474122 
L 87.933897 113.068274 
L 91.340957 113.874612 
L 94.748017 114.909431 
L 98.155076 116.182647 
L 101.072204 117.455588 
L 106.456352 120.330295 
L 106.672726 120.668924 
L 107.391977 121.28853 
L 106.672726 121.982638 
L 106.601962 122.246766 
L 89.637427 148.67668 
L 89.324264 149.077361 
L 88.725758 150.035596 
L 87.933897 151.327495 
L 87.082133 151.01939 
L 87.082133 151.01939 
" clip-path="url(#pd5343f2132)" style="fill: none; stroke: #ffffff; stroke-width: 1.5"/>
   </g>
   <g id="PathCollection_7">
    <path d="M 87.082133 151.01939 
L 87.070761 150.993832 
L 83.675073 149.407984 
L 81.971543 148.858594 
L 79.416248 148.327439 
L 76.860954 148.123315 
L 74.305659 148.22521 
L 72.602129 148.470036 
L 70.046834 149.113214 
L 67.49154 149.989269 
L 67.282339 149.077361 
L 64.936245 144.083582 
L 61.967855 137.578534 
L 53.164217 118.413824 
L 53.011536 117.785314 
L 52.507387 117.455588 
L 53.913112 116.497353 
L 60.67742 114.11708 
L 64.08448 113.25127 
L 67.49154 112.599873 
L 70.898599 112.170699 
L 74.305659 111.940067 
L 77.712719 111.914244 
L 81.119778 112.093652 
L 84.526838 112.474122 
L 87.933897 113.068274 
L 91.340957 113.874612 
L 94.748017 114.909431 
L 98.155076 116.182647 
L 101.072204 117.455588 
L 106.456352 120.330295 
L 106.672726 120.668924 
L 107.391977 121.28853 
L 106.672726 121.982638 
L 106.601962 122.246766 
L 89.637427 148.67668 
L 89.324264 149.077361 
L 88.725758 150.035596 
L 87.933897 151.327495 
L 87.082133 151.01939 
L 87.082133 151.01939 
" clip-path="url(#pd5343f2132)" style="fill: none; stroke: #ffffff; stroke-width: 1.5"/>
   </g>
   <g id="line2d_54">
    <path d="M 75.247793 171.794557 
L 75.998496 172.019734 
L 76.78945 172.03124 
L 77.537018 171.831937 
L 78.229101 171.418689 
L 78.787802 170.81413 
L 79.151217 170.073414 
L 79.286415 169.2983 
L 79.204682 168.515453 
L 78.892804 167.751405 
L 78.374716 167.108048 
L 77.733671 166.659951 
L 76.985366 166.400853 
L 76.195153 166.357384 
L 75.387613 166.546517 
L 75.247793 166.606056 
L 75.247793 166.606056 
" clip-path="url(#pd5343f2132)" style="fill: none; stroke: #0000ff; stroke-width: 1.5; stroke-linecap: square"/>
   </g>
   <g id="line2d_55">
    <path d="M 73.207714 176.252211 
L 74.479062 176.70492 
L 75.867518 176.934844 
L 77.258973 176.911751 
L 78.576084 176.654249 
L 79.780187 176.19712 
L 80.996997 175.471991 
L 81.943343 174.659623 
L 82.823187 173.597711 
L 83.491854 172.416983 
L 83.936645 171.167942 
L 84.161367 169.870785 
L 84.161043 168.526097 
L 83.955575 167.306313 
L 83.480502 165.95884 
L 82.837989 164.824483 
L 82.027432 163.82716 
L 81.104271 163.008072 
L 79.977474 162.301279 
L 78.825334 161.822513 
L 77.698483 161.548576 
L 76.431898 161.444974 
L 75.087627 161.562926 
L 73.780354 161.913492 
L 73.207714 162.148402 
L 73.207714 162.148402 
" clip-path="url(#pd5343f2132)" style="fill: none; stroke: #0000ff; stroke-width: 1.5; stroke-linecap: square"/>
   </g>
   <g id="line2d_56">
    <path d="M 67.662204 188.369371 
L 69.56189 189.129571 
L 71.503715 189.696598 
L 73.653069 190.097117 
L 75.986029 190.276705 
L 78.090862 190.216362 
L 80.309635 189.922371 
L 82.390082 189.422919 
L 84.416401 188.712215 
L 86.507816 187.719379 
L 88.48721 186.496611 
L 90.26063 185.114769 
L 91.807905 183.625707 
L 93.14675 182.050832 
L 94.441254 180.16359 
L 95.523098 178.148126 
L 96.348584 176.118994 
L 96.988398 173.888268 
L 97.364572 171.724631 
L 97.512646 169.590223 
L 97.419432 167.182186 
L 97.110739 165.085335 
L 96.597168 163.043517 
L 95.786616 160.837655 
L 94.883769 158.99924 
L 93.613246 156.980383 
L 92.28107 155.296331 
L 91.039953 153.997884 
L 89.226143 152.443078 
L 87.640479 151.343794 
L 85.485236 150.160592 
L 83.31967 149.274983 
L 81.227361 148.671055 
L 78.902289 148.263997 
L 77.073663 148.128799 
L 75.218316 148.154268 
L 72.691904 148.454104 
L 70.51777 148.966628 
L 68.409984 149.706354 
L 67.662204 150.031242 
L 67.662204 150.031242 
" clip-path="url(#pd5343f2132)" style="fill: none; stroke: #0000ff; stroke-width: 1.5; stroke-linecap: square"/>
   </g>
   <g id="line2d_57">
    <path d="M 52.587946 221.307225 
L 56.477553 222.917285 
L 59.644503 223.989842 
L 62.835141 224.867696 
L 66.620721 225.65821 
L 70.323344 226.178049 
L 74.131097 226.458564 
L 78.128802 226.479863 
L 81.371936 226.291844 
L 85.897316 225.718288 
L 89.749166 224.936751 
L 93.003183 224.057521 
L 96.399183 222.914835 
L 100.064787 221.406177 
L 103.365119 219.782802 
L 106.892367 217.740697 
L 110.054382 215.606753 
L 113.112317 213.229797 
L 115.102524 211.492675 
L 117.846168 208.810121 
L 120.317452 206.053434 
L 122.372372 203.457871 
L 124.696865 200.097161 
L 126.39124 197.275162 
L 127.863611 194.477206 
L 129.301421 191.31287 
L 130.513547 188.156435 
L 131.648485 184.539644 
L 132.488836 181.107943 
L 133.148225 177.412163 
L 133.551212 173.843888 
L 133.726271 170.439171 
L 133.719451 167.678408 
L 133.500924 163.974911 
L 133.079745 160.52867 
L 132.380379 156.793096 
L 131.56533 153.56474 
L 130.524925 150.276668 
L 129.017946 146.42186 
L 127.744647 143.682787 
L 126.161884 140.721183 
L 124.039376 137.299735 
L 121.656006 134.00253 
L 119.440591 131.327604 
L 117.141712 128.866874 
L 114.866742 126.693566 
L 111.771074 124.087301 
L 108.740491 121.869807 
L 105.576213 119.858537 
L 102.681241 118.259607 
L 99.358163 116.680328 
L 96.158551 115.396954 
L 92.889175 114.308788 
L 89.255802 113.348313 
L 86.452041 112.778 
L 82.865243 112.257623 
L 78.976402 111.952093 
L 75.573832 111.902186 
L 72.57126 112.026123 
L 68.42652 112.458087 
L 65.999647 112.853894 
L 62.091579 113.719854 
L 59.040214 114.599617 
L 55.849478 115.720874 
L 52.587946 117.093388 
L 52.587946 117.093388 
" clip-path="url(#pd5343f2132)" style="fill: none; stroke: #0000ff; stroke-width: 1.5; stroke-linecap: square"/>
   </g>
   <g id="line2d_58">
    <path d="M 11.611865 310.841597 
L 16.966689 313.171883 
L 21.222637 314.857061 
L 27.365083 317.039542 
L 33.313867 318.882854 
L 38.509149 320.282826 
L 45.655066 321.899011 
L 50.846228 322.854185 
L 57.97117 323.872177 
L 61.612239 324.263477 
L 69.188392 324.801684 
L 75.274057 324.966013 
L 81.996269 324.871037 
L 88.833477 324.476134 
L 92.716717 324.117094 
L 100.882711 323.039886 
L 107.167406 321.908613 
L 111.168265 321.048614 
L 116.758509 319.660678 
L 121.086026 318.433665 
L 128.362051 316.060417 
L 132.218346 314.639398 
L 138.781494 311.94913 
L 144.198639 309.458647 
L 150.569628 306.198009 
L 154.467838 304.0157 
L 159.864419 300.744394 
L 165.940639 296.687782 
L 170.301449 293.512037 
L 174.956931 289.855792 
L 179.644222 285.87153 
L 183.203289 282.623632 
L 187.409513 278.51168 
L 191.372849 274.336459 
L 195.048433 270.171459 
L 198.92278 265.43473 
L 202.351831 260.902394 
L 205.395551 256.570197 
L 208.588159 251.661597 
L 211.939556 246.030234 
L 214.675153 240.991551 
L 217.622487 235.006208 
L 220.167585 229.244187 
L 222.213561 224.090517 
L 223.987758 219.125328 
L 226.009517 212.695001 
L 227.620031 206.715785 
L 229.040792 200.438058 
L 230.107517 194.677407 
L 230.794056 190.119364 
L 231.537077 183.611097 
L 231.997629 177.237335 
L 232.187069 171.570577 
L 232.163383 165.595303 
L 231.912532 159.657643 
L 231.431275 153.692894 
L 230.745766 147.927965 
L 229.954146 142.814767 
L 228.914852 137.35349 
L 227.719962 132.089862 
L 226.133281 126.133508 
L 224.772755 121.658379 
L 222.484473 115.035047 
L 220.243102 109.337518 
L 218.123908 104.481093 
L 215.69957 99.417052 
L 213.095031 94.444982 
L 210.560931 89.988205 
L 207.475935 84.98276 
L 204.421118 80.409119 
L 200.595278 75.133595 
L 196.162674 69.552907 
L 192.420531 65.221096 
L 188.064207 60.557593 
L 184.382828 56.898994 
L 179.321187 52.244117 
L 175.309375 48.83347 
L 169.842393 44.543276 
L 164.915358 40.999129 
L 160.276997 37.918797 
L 155.214258 34.819717 
L 151.23248 32.563376 
L 146.801828 30.229725 
L 140.97774 27.430962 
L 135.698342 25.144179 
L 130.061274 22.952115 
L 124.410747 21.002339 
L 117.868662 19.041854 
L 111.406142 17.406607 
L 104.685826 16.013499 
L 96.879834 14.777786 
L 89.091176 13.945271 
L 80.90213 13.494338 
L 76.82801 13.430769 
L 67.720506 13.674233 
L 62.542636 14.051013 
L 56.855932 14.665649 
L 49.404787 15.793439 
L 45.535896 16.525672 
L 38.730819 18.062315 
L 33.057645 19.591811 
L 27.843092 21.20327 
L 21.795218 23.327795 
L 16.53201 25.409047 
L 11.611865 27.559016 
L 11.611865 27.559016 
" clip-path="url(#pd5343f2132)" style="fill: none; stroke: #0000ff; stroke-width: 1.5; stroke-linecap: square"/>
   </g>
   <g id="line2d_59">
    <path d="M 75.247793 171.794557 
L 11.611865 310.841597 
L 11.611865 310.841597 
" clip-path="url(#pd5343f2132)" style="fill: none; stroke: #ff0000; stroke-width: 1.5; stroke-linecap: square"/>
   </g>
   <g id="line2d_60">
    <path d="M 77.976569 171.601047 
L 160.597979 300.27627 
L 160.597979 300.27627 
" clip-path="url(#pd5343f2132)" style="fill: none; stroke: #ff0000; stroke-width: 1.5; stroke-linecap: square"/>
   </g>
   <g id="line2d_61">
    <path d="M 79.288099 169.200307 
L 232.205104 169.200307 
L 232.205104 169.200307 
" clip-path="url(#pd5343f2132)" style="fill: none; stroke: #ff0000; stroke-width: 1.5; stroke-linecap: square"/>
   </g>
   <g id="line2d_62">
    <path d="M 77.976569 166.799567 
L 160.597979 38.124344 
L 160.597979 38.124344 
" clip-path="url(#pd5343f2132)" style="fill: none; stroke: #ff0000; stroke-width: 1.5; stroke-linecap: square"/>
   </g>
   <g id="line2d_63">
    <path d="M 75.247793 166.606056 
L 11.611865 27.559016 
L 11.611865 27.559016 
" clip-path="url(#pd5343f2132)" style="fill: none; stroke: #ff0000; stroke-width: 1.5; stroke-linecap: square"/>
   </g>
   <g id="patch_3">
    <path d="M 76.435071 331.2 
L 76.435071 7.2 
" style="fill: none; stroke: #000000; stroke-width: 0.8; stroke-linejoin: miter; stroke-linecap: square"/>
   </g>
   <g id="patch_4">
    <path d="M 7.2 169.200307 
L 236.616969 169.200307 
" style="fill: none; stroke: #000000; stroke-width: 0.8; stroke-linejoin: miter; stroke-linecap: square"/>
   </g>
   <g id="text_11">
    <!-- $f(R)$ -->
    <g transform="translate(76.981898 128.429825) scale(0.14 -0.14)">
     <defs>
      <path id="Cmmi10-66" d="M 622 -1056 
Q 741 -1147 909 -1147 
Q 1138 -1147 1281 -641 
Q 1341 -397 1606 966 
L 1900 2534 
L 1350 2534 
Q 1288 2534 1288 2619 
Q 1313 2759 1369 2759 
L 1941 2759 
L 2016 3175 
Q 2053 3369 2084 3508 
Q 2116 3647 2152 3765 
Q 2188 3884 2259 4031 
Q 2369 4241 2555 4377 
Q 2741 4513 2956 4513 
Q 3097 4513 3230 4461 
Q 3363 4409 3447 4306 
Q 3531 4203 3531 4063 
Q 3531 3900 3423 3779 
Q 3316 3659 3163 3659 
Q 3059 3659 2986 3723 
Q 2913 3788 2913 3891 
Q 2913 4031 3008 4136 
Q 3103 4241 3244 4256 
Q 3125 4347 2950 4347 
Q 2853 4347 2767 4256 
Q 2681 4166 2656 4063 
Q 2616 3900 2478 3181 
L 2400 2759 
L 3059 2759 
Q 3122 2759 3122 2675 
Q 3119 2659 3109 2620 
Q 3100 2581 3083 2557 
Q 3066 2534 3041 2534 
L 2356 2534 
L 2059 972 
Q 2003 631 1929 279 
Q 1856 -72 1723 -442 
Q 1591 -813 1384 -1063 
Q 1178 -1313 897 -1313 
Q 681 -1313 511 -1189 
Q 341 -1066 341 -863 
Q 341 -700 445 -579 
Q 550 -459 709 -459 
Q 816 -459 887 -523 
Q 959 -588 959 -691 
Q 959 -828 857 -942 
Q 756 -1056 622 -1056 
z
" transform="scale(0.015625)"/>
      <path id="Cmr10-28" d="M 1984 -1588 
Q 1628 -1306 1370 -942 
Q 1113 -578 948 -165 
Q 784 247 703 697 
Q 622 1147 622 1600 
Q 622 2059 703 2509 
Q 784 2959 951 3375 
Q 1119 3791 1378 4153 
Q 1638 4516 1984 4788 
Q 1984 4800 2016 4800 
L 2075 4800 
Q 2094 4800 2109 4783 
Q 2125 4766 2125 4744 
Q 2125 4716 2113 4703 
Q 1800 4397 1592 4047 
Q 1384 3697 1257 3301 
Q 1131 2906 1075 2482 
Q 1019 2059 1019 1600 
Q 1019 -434 2106 -1491 
Q 2125 -1509 2125 -1544 
Q 2125 -1559 2108 -1579 
Q 2091 -1600 2075 -1600 
L 2016 -1600 
Q 1984 -1600 1984 -1588 
z
" transform="scale(0.015625)"/>
      <path id="Cmmi10-52" d="M 313 0 
Q 250 0 250 84 
Q 253 100 262 139 
Q 272 178 289 201 
Q 306 225 331 225 
Q 722 225 878 269 
Q 959 297 997 441 
L 1875 3956 
Q 1888 4019 1888 4044 
Q 1888 4113 1813 4122 
Q 1691 4147 1350 4147 
Q 1288 4147 1288 4231 
Q 1291 4247 1300 4286 
Q 1309 4325 1326 4348 
Q 1344 4372 1369 4372 
L 3309 4372 
Q 3541 4372 3791 4319 
Q 4041 4266 4250 4152 
Q 4459 4038 4593 3848 
Q 4728 3659 4728 3406 
Q 4728 3084 4515 2831 
Q 4303 2578 3978 2408 
Q 3653 2238 3347 2169 
Q 3597 2078 3756 1879 
Q 3916 1681 3916 1422 
Q 3916 1388 3914 1370 
Q 3913 1353 3909 1331 
L 3859 763 
Q 3853 638 3847 550 
Q 3841 463 3841 409 
Q 3841 234 3892 129 
Q 3944 25 4097 25 
Q 4297 25 4448 211 
Q 4600 397 4647 616 
Q 4675 672 4709 672 
L 4769 672 
Q 4831 672 4831 588 
Q 4784 403 4682 237 
Q 4581 72 4426 -34 
Q 4272 -141 4091 -141 
Q 3716 -141 3452 26 
Q 3188 194 3188 550 
Q 3188 684 3213 788 
L 3353 1356 
Q 3378 1434 3378 1538 
Q 3378 1803 3198 1954 
Q 3019 2106 2747 2106 
L 1959 2106 
L 1538 416 
Q 1522 363 1522 325 
Q 1522 259 1600 250 
Q 1722 225 2059 225 
Q 2125 225 2125 141 
Q 2103 50 2090 25 
Q 2078 0 2016 0 
L 313 0 
z
M 1997 2272 
L 2706 2272 
Q 3403 2272 3756 2625 
Q 3919 2788 4014 3039 
Q 4109 3291 4109 3541 
Q 4109 3778 3970 3912 
Q 3831 4047 3626 4097 
Q 3422 4147 3175 4147 
L 2747 4147 
Q 2572 4147 2515 4117 
Q 2459 4088 2413 3928 
L 1997 2272 
z
" transform="scale(0.015625)"/>
      <path id="Cmr10-29" d="M 416 -1600 
Q 359 -1600 359 -1544 
Q 359 -1516 372 -1503 
Q 1466 -434 1466 1600 
Q 1466 3634 384 4691 
Q 359 4706 359 4744 
Q 359 4766 376 4783 
Q 394 4800 416 4800 
L 475 4800 
Q 494 4800 506 4788 
Q 966 4425 1272 3906 
Q 1578 3388 1720 2800 
Q 1863 2213 1863 1600 
Q 1863 1147 1786 708 
Q 1709 269 1542 -157 
Q 1375 -584 1119 -945 
Q 863 -1306 506 -1588 
Q 494 -1600 475 -1600 
L 416 -1600 
z
" transform="scale(0.015625)"/>
     </defs>
     <use xlink:href="#Cmmi10-66"/>
     <use xlink:href="#Cmr10-28" transform="translate(48.876953 0)"/>
     <use xlink:href="#Cmmi10-52" transform="translate(87.695312 0)"/>
     <use xlink:href="#Cmr10-29" transform="translate(163.574219 0)"/>
    </g>
   </g>
  </g>
 </g>
 <defs>
  <clipPath id="pd5343f2132">
   <rect x="7.2" y="7.2" width="229.416969" height="324"/>
  </clipPath>
 </defs>
</svg>
