<?xml version="1.0" encoding="utf-8" standalone="no"?>
<!DOCTYPE svg PUBLIC "-//W3C//DTD SVG 1.1//EN"
  "http://www.w3.org/Graphics/SVG/1.1/DTD/svg11.dtd">
<svg xmlns:xlink="http://www.w3.org/1999/xlink" width="327.77486pt" height="338.4pt" viewBox="0 0 327.77486 338.4" xmlns="http://www.w3.org/2000/svg" version="1.1">
 <metadata>
  <rdf:RDF xmlns:dc="http://purl.org/dc/elements/1.1/" xmlns:cc="http://creativecommons.org/ns#" xmlns:rdf="http://www.w3.org/1999/02/22-rdf-syntax-ns#">
   <cc:Work>
    <dc:type rdf:resource="http://purl.org/dc/dcmitype/StillImage"/>
    <dc:date>2025-03-04T14:13:12.318674</dc:date>
    <dc:format>image/svg+xml</dc:format>
    <dc:creator>
     <cc:Agent>
      <dc:title>Matplotlib v3.6.2, https://matplotlib.org/</dc:title>
     </cc:Agent>
    </dc:creator>
   </cc:Work>
  </rdf:RDF>
 </metadata>
 <defs>
  <style type="text/css">*{stroke-linejoin: round; stroke-linecap: butt}</style>
 </defs>
 <g id="figure_1">
  <g id="patch_1">
   <path d="M 0 338.4 
L 327.77486 338.4 
L 327.77486 0 
L 0 0 
z
" style="fill: #ffffff"/>
  </g>
  <g id="axes_1">
   <g id="patch_2">
    <path d="M 8.906375 331.2 
L 320.57486 331.2 
L 320.57486 7.2 
L 8.906375 7.2 
z
" style="fill: #ffffff"/>
   </g>
   <g id="matplotlib.axis_1">
    <g id="xtick_1">
     <g id="line2d_1">
      <defs>
       <path id="m6d8b6e5c84" d="M 0 0 
L 0 3.5 
" style="stroke: #000000; stroke-width: 0.8"/>
      </defs>
      <g>
       <use xlink:href="#m6d8b6e5c84" x="14.9" y="169.2" style="stroke: #000000; stroke-width: 0.8"/>
      </g>
     </g>
     <g id="text_1">
      <!-- $-R$ -->
      <g transform="translate(7.2 183.798438) scale(0.1 -0.1)">
       <defs>
        <path id="Cmsy10-a1" d="M 653 1472 
Q 600 1472 565 1512 
Q 531 1553 531 1600 
Q 531 1647 565 1687 
Q 600 1728 653 1728 
L 4325 1728 
Q 4375 1728 4408 1687 
Q 4441 1647 4441 1600 
Q 4441 1553 4408 1512 
Q 4375 1472 4325 1472 
L 653 1472 
z
" transform="scale(0.015625)"/>
        <path id="Cmmi10-52" d="M 313 0 
Q 250 0 250 84 
Q 253 100 262 139 
Q 272 178 289 201 
Q 306 225 331 225 
Q 722 225 878 269 
Q 959 297 997 441 
L 1875 3956 
Q 1888 4019 1888 4044 
Q 1888 4113 1813 4122 
Q 1691 4147 1350 4147 
Q 1288 4147 1288 4231 
Q 1291 4247 1300 4286 
Q 1309 4325 1326 4348 
Q 1344 4372 1369 4372 
L 3309 4372 
Q 3541 4372 3791 4319 
Q 4041 4266 4250 4152 
Q 4459 4038 4593 3848 
Q 4728 3659 4728 3406 
Q 4728 3084 4515 2831 
Q 4303 2578 3978 2408 
Q 3653 2238 3347 2169 
Q 3597 2078 3756 1879 
Q 3916 1681 3916 1422 
Q 3916 1388 3914 1370 
Q 3913 1353 3909 1331 
L 3859 763 
Q 3853 638 3847 550 
Q 3841 463 3841 409 
Q 3841 234 3892 129 
Q 3944 25 4097 25 
Q 4297 25 4448 211 
Q 4600 397 4647 616 
Q 4675 672 4709 672 
L 4769 672 
Q 4831 672 4831 588 
Q 4784 403 4682 237 
Q 4581 72 4426 -34 
Q 4272 -141 4091 -141 
Q 3716 -141 3452 26 
Q 3188 194 3188 550 
Q 3188 684 3213 788 
L 3353 1356 
Q 3378 1434 3378 1538 
Q 3378 1803 3198 1954 
Q 3019 2106 2747 2106 
L 1959 2106 
L 1538 416 
Q 1522 363 1522 325 
Q 1522 259 1600 250 
Q 1722 225 2059 225 
Q 2125 225 2125 141 
Q 2103 50 2090 25 
Q 2078 0 2016 0 
L 313 0 
z
M 1997 2272 
L 2706 2272 
Q 3403 2272 3756 2625 
Q 3919 2788 4014 3039 
Q 4109 3291 4109 3541 
Q 4109 3778 3970 3912 
Q 3831 4047 3626 4097 
Q 3422 4147 3175 4147 
L 2747 4147 
Q 2572 4147 2515 4117 
Q 2459 4088 2413 3928 
L 1997 2272 
z
" transform="scale(0.015625)"/>
       </defs>
       <use xlink:href="#Cmsy10-a1" transform="translate(0 0.6875)"/>
       <use xlink:href="#Cmmi10-52" transform="translate(77.685547 0.6875)"/>
      </g>
     </g>
    </g>
    <g id="xtick_2">
     <g id="line2d_2">
      <g>
       <use xlink:href="#m6d8b6e5c84" x="123.938462" y="169.2" style="stroke: #000000; stroke-width: 0.8"/>
      </g>
     </g>
     <g id="text_2">
      <!-- $-\delta$ -->
      <g transform="translate(117.788462 183.798438) scale(0.1 -0.1)">
       <defs>
        <path id="Cmmi10-b1" d="M 1281 -97 
Q 1059 -97 868 -14 
Q 678 69 536 225 
Q 394 381 325 573 
Q 256 766 256 991 
Q 256 1391 445 1767 
Q 634 2144 961 2419 
Q 1288 2694 1672 2791 
Q 1484 3138 1386 3389 
Q 1288 3641 1288 3903 
Q 1288 4097 1378 4245 
Q 1469 4394 1628 4478 
Q 1788 4563 1984 4563 
Q 2175 4563 2741 4434 
Q 2888 4400 2888 4263 
Q 2888 4156 2809 4068 
Q 2731 3981 2625 3981 
Q 2547 3981 2484 4017 
Q 2422 4053 2287 4143 
Q 2153 4234 2047 4282 
Q 1941 4331 1825 4331 
Q 1694 4331 1589 4251 
Q 1484 4172 1484 4044 
Q 1484 3841 1664 3577 
Q 1844 3313 2175 2900 
Q 2553 2419 2553 1838 
Q 2553 1550 2470 1215 
Q 2388 881 2230 584 
Q 2072 288 1826 95 
Q 1581 -97 1281 -97 
z
M 1294 78 
Q 1544 78 1723 337 
Q 1903 597 1995 955 
Q 2088 1313 2088 1556 
Q 2088 2034 1753 2631 
Q 1416 2538 1172 2238 
Q 928 1938 803 1547 
Q 678 1156 678 806 
Q 678 500 837 289 
Q 997 78 1294 78 
z
" transform="scale(0.015625)"/>
       </defs>
       <use xlink:href="#Cmsy10-a1" transform="translate(0 0.703125)"/>
       <use xlink:href="#Cmmi10-b1" transform="translate(77.685547 0.703125)"/>
      </g>
     </g>
    </g>
    <g id="xtick_3">
     <g id="line2d_3">
      <g>
       <use xlink:href="#m6d8b6e5c84" x="217.4" y="169.2" style="stroke: #000000; stroke-width: 0.8"/>
      </g>
     </g>
     <g id="text_3">
      <!-- $\delta$ -->
      <g transform="translate(215.15 183.798438) scale(0.1 -0.1)">
       <use xlink:href="#Cmmi10-b1" transform="translate(0 0.703125)"/>
      </g>
     </g>
    </g>
   </g>
   <g id="matplotlib.axis_2"/>
   <g id="line2d_4">
    <path d="M 213.842832 151.316909 
L 212.824668 149.033594 
L 211.27544 146.072083 
L 209.541405 143.263175 
L 207.226367 140.090885 
L 205.788943 138.371919 
L 203.145645 135.5987 
L 200.582191 133.297638 
L 198.305062 131.516773 
L 195.866644 129.844503 
L 192.681215 127.978193 
L 189.250391 126.322205 
L 187.003417 125.416908 
L 183.279288 124.202764 
L 180.968168 123.618242 
L 178.146256 123.071279 
L 175.712153 122.74213 
L 173.432354 122.550992 
L 170.016063 122.473796 
L 166.240617 122.679551 
L 164.338365 122.900055 
L 161.772389 123.323961 
L 157.500172 124.363177 
L 154.339409 125.41528 
L 150.574431 127.010383 
L 147.449878 128.646006 
L 145.557493 129.78978 
L 143.027203 131.521318 
L 139.698028 134.206438 
L 137.779387 136.003269 
L 135.642208 138.266645 
L 134.629137 139.453128 
L 132.22308 142.63577 
L 129.908548 146.345427 
L 128.258393 149.5764 
L 127.242279 151.941244 
L 125.858003 155.944109 
L 125.049385 159.07111 
L 124.486747 162.062567 
L 124.0421 166.089452 
L 123.94536 170.002906 
L 124.074693 172.765646 
L 124.388847 175.672313 
L 125.081892 179.474207 
L 125.895823 182.583077 
L 126.643978 184.869778 
L 127.491792 187.073825 
L 128.757132 189.867383 
L 130.27113 192.689535 
L 131.923144 195.324807 
L 134.112795 198.309995 
L 136.381901 200.951281 
L 138.171475 202.780659 
L 140.966908 205.276818 
L 143.475771 207.203691 
L 145.422338 208.523774 
L 148.577801 210.379285 
L 150.959948 211.571086 
L 154.987608 213.221035 
L 157.278254 213.971046 
L 160.968674 214.912843 
L 163.5807 215.390015 
L 166.706933 215.762485 
L 168.386164 215.874965 
L 172.559453 215.892525 
L 176.076615 215.616861 
L 178.9727 215.187142 
L 183.004096 214.27345 
L 186.483486 213.173562 
L 189.961173 211.762727 
L 193.53603 209.953826 
L 196.514276 208.133256 
L 199.600145 205.898324 
L 202.716268 203.21106 
L 204.545955 201.38901 
L 206.939726 198.665505 
L 209.387466 195.366067 
L 211.049461 192.720243 
L 212.818464 189.37937 
L 213.842832 187.083091 
L 213.842832 187.083091 
" clip-path="url(#pc39f7c15e4)" style="fill: none; stroke: #0000ff; stroke-linecap: square"/>
   </g>
   <g id="line2d_5">
    <path d="M 314.581235 109.589696 
L 311.860772 103.404848 
L 308.031295 95.744458 
L 304.755824 89.923024 
L 300.855197 83.668325 
L 298.768508 80.573658 
L 295.390304 75.879545 
L 290.276518 69.409468 
L 284.6519 63.030304 
L 278.673093 56.953757 
L 272.747284 51.538944 
L 266.203956 46.166795 
L 259.552429 41.278812 
L 255.96253 38.857734 
L 250.791344 35.616692 
L 247.432217 33.658504 
L 241.082166 30.253709 
L 237.602067 28.544219 
L 228.810704 24.688332 
L 221.288393 21.884849 
L 215.9974 20.17178 
L 209.045731 18.232131 
L 204.934417 17.246223 
L 200.442129 16.302558 
L 192.530301 14.972419 
L 188.339754 14.43629 
L 179.219657 13.66562 
L 175.301347 13.499657 
L 170.605128 13.430782 
L 165.086333 13.530849 
L 160.790795 13.744316 
L 154.037251 14.321239 
L 146.405252 15.332159 
L 138.968372 16.690627 
L 136.068281 17.322327 
L 129.043868 19.095428 
L 123.032485 20.893582 
L 120.545425 21.715569 
L 113.986287 24.110038 
L 106.378197 27.317245 
L 101.178546 29.79018 
L 94.232472 33.474265 
L 87.914327 37.231522 
L 81.862287 41.225862 
L 78.328498 43.751834 
L 72.549189 48.218552 
L 69.464126 50.787248 
L 65.797856 54.021669 
L 60.413189 59.165195 
L 55.102278 64.757037 
L 52.959265 67.178349 
L 49.389864 71.448435 
L 46.638758 74.963621 
L 41.190524 82.601399 
L 37.038957 89.156242 
L 32.584562 97.112015 
L 29.550741 103.248311 
L 27.823599 107.077711 
L 24.723252 114.75898 
L 23.068869 119.418612 
L 20.445612 128.006339 
L 18.868412 134.263418 
L 17.329735 141.794666 
L 16.266217 148.614504 
L 15.782187 152.645336 
L 15.254316 158.699646 
L 14.942224 165.573329 
L 14.970244 173.877466 
L 15.414978 181.855834 
L 15.852298 186.397984 
L 16.696808 192.791236 
L 18.150922 200.857838 
L 19.814435 208.018603 
L 21.603638 214.405113 
L 22.942965 218.606514 
L 24.501615 223.043118 
L 27.106869 229.64751 
L 28.527343 232.916066 
L 32.954967 241.993096 
L 36.864158 248.951211 
L 40.732778 255.110252 
L 45.570623 262.013747 
L 48.280401 265.558849 
L 54.10042 272.523597 
L 60.477946 279.299655 
L 64.356445 283.049219 
L 69.784775 287.886056 
L 75.941604 292.855692 
L 82.89731 297.88622 
L 88.137174 301.307959 
L 93.415803 304.462564 
L 97.150569 306.528291 
L 104.307311 310.12604 
L 111.310097 313.215785 
L 119.462659 316.311999 
L 124.97494 318.116369 
L 133.421523 320.450327 
L 142.51131 322.403083 
L 146.566245 323.093143 
L 152.501347 323.906113 
L 159.063012 324.536245 
L 167.311259 324.933032 
L 174.601164 324.919598 
L 179.38595 324.725149 
L 185.551905 324.256632 
L 191.943715 323.50959 
L 199.464028 322.284659 
L 206.368087 320.823365 
L 214.267948 318.743322 
L 222.764747 315.999559 
L 229.997084 313.228674 
L 238.506835 309.421656 
L 243.700313 306.788205 
L 247.392561 304.763947 
L 252.52943 301.725322 
L 258.15217 298.082849 
L 260.805526 296.241338 
L 265.394817 292.857255 
L 269.719205 289.421279 
L 274.997695 284.870328 
L 277.735477 282.340939 
L 281.037381 279.122358 
L 285.166047 274.81502 
L 289.474718 269.943781 
L 294.661201 263.487032 
L 298.59335 258.078979 
L 302.819428 251.664408 
L 306.772092 244.963213 
L 309.958256 238.932494 
L 312.616317 233.348874 
L 314.581235 228.810304 
L 314.581235 228.810304 
" clip-path="url(#pc39f7c15e4)" style="fill: none; stroke: #0000ff; stroke-linecap: square"/>
   </g>
   <g id="line2d_6">
    <path d="M 213.842832 151.316909 
L 314.581235 109.589696 
" clip-path="url(#pc39f7c15e4)" style="fill: none; stroke: #0000ff; stroke-width: 1.25; stroke-linecap: square"/>
   </g>
   <g id="line2d_7">
    <path d="M 213.842832 187.083091 
L 314.581235 228.810304 
" clip-path="url(#pc39f7c15e4)" style="fill: none; stroke: #0000ff; stroke-width: 1.25; stroke-linecap: square"/>
   </g>
   <g id="patch_3">
    <path d="M 280.81471 59.054521 
Q 280.261238 58.506556 281.296791 59.531805 
" clip-path="url(#pc39f7c15e4)" style="fill: none; stroke: #0000ff; stroke-width: 2; stroke-linecap: round"/>
    <path d="M 283.449905 65.88508 
L 281.296791 59.531805 
L 287.671279 61.621279 
L 283.449905 65.88508 
z
" clip-path="url(#pc39f7c15e4)" style="fill: #0000ff; stroke: #0000ff; stroke-width: 2; stroke-linecap: round"/>
   </g>
   <g id="patch_4">
    <path d="M 170.669231 13.430769 
Q 169.890398 13.434663 171.347604 13.427377 
" clip-path="url(#pc39f7c15e4)" style="fill: none; stroke: #0000ff; stroke-width: 2; stroke-linecap: round"/>
    <path d="M 177.362529 16.39734 
L 171.347604 13.427377 
L 177.33253 10.397415 
L 177.362529 16.39734 
z
" clip-path="url(#pc39f7c15e4)" style="fill: #0000ff; stroke: #0000ff; stroke-width: 2; stroke-linecap: round"/>
   </g>
   <g id="patch_5">
    <path d="M 60.523751 59.054521 
Q 59.975787 59.607992 61.001036 58.57244 
" clip-path="url(#pc39f7c15e4)" style="fill: none; stroke: #0000ff; stroke-width: 2; stroke-linecap: round"/>
    <path d="M 67.354311 56.419326 
L 61.001036 58.57244 
L 63.09051 52.197952 
L 67.354311 56.419326 
z
" clip-path="url(#pc39f7c15e4)" style="fill: #0000ff; stroke: #0000ff; stroke-width: 2; stroke-linecap: round"/>
   </g>
   <g id="patch_6">
    <path d="M 14.9 169.2 
Q 14.903894 169.978833 14.896608 168.521626 
" clip-path="url(#pc39f7c15e4)" style="fill: none; stroke: #0000ff; stroke-width: 2; stroke-linecap: round"/>
    <path d="M 17.866571 162.506701 
L 14.896608 168.521626 
L 11.866646 162.536701 
L 17.866571 162.506701 
z
" clip-path="url(#pc39f7c15e4)" style="fill: #0000ff; stroke: #0000ff; stroke-width: 2; stroke-linecap: round"/>
   </g>
   <g id="patch_7">
    <path d="M 60.523751 279.345479 
Q 61.077223 279.893444 60.04167 278.868195 
" clip-path="url(#pc39f7c15e4)" style="fill: none; stroke: #0000ff; stroke-width: 2; stroke-linecap: round"/>
    <path d="M 57.888557 272.51492 
L 60.04167 278.868195 
L 53.667182 276.778721 
L 57.888557 272.51492 
z
" clip-path="url(#pc39f7c15e4)" style="fill: #0000ff; stroke: #0000ff; stroke-width: 2; stroke-linecap: round"/>
   </g>
   <g id="patch_8">
    <path d="M 170.669231 324.969231 
Q 171.448064 324.965337 169.990857 324.972623 
" clip-path="url(#pc39f7c15e4)" style="fill: none; stroke: #0000ff; stroke-width: 2; stroke-linecap: round"/>
    <path d="M 163.975932 322.00266 
L 169.990857 324.972623 
L 164.005932 328.002585 
L 163.975932 322.00266 
z
" clip-path="url(#pc39f7c15e4)" style="fill: #0000ff; stroke: #0000ff; stroke-width: 2; stroke-linecap: round"/>
   </g>
   <g id="patch_9">
    <path d="M 280.81471 279.345479 
Q 281.362675 278.792008 280.337426 279.82756 
" clip-path="url(#pc39f7c15e4)" style="fill: none; stroke: #0000ff; stroke-width: 2; stroke-linecap: round"/>
    <path d="M 273.984151 281.980674 
L 280.337426 279.82756 
L 278.247952 286.202048 
L 273.984151 281.980674 
z
" clip-path="url(#pc39f7c15e4)" style="fill: #0000ff; stroke: #0000ff; stroke-width: 2; stroke-linecap: round"/>
   </g>
   <g id="patch_10">
    <path d="M 170.669231 122.469231 
Q 170.902881 122.470399 168.900491 122.460387 
" clip-path="url(#pc39f7c15e4)" style="fill: none; stroke: #0000ff; stroke-width: 2; stroke-linecap: round"/>
    <path d="M 162.915566 119.430425 
L 168.900491 122.460387 
L 162.885566 125.43035 
L 162.915566 119.430425 
z
" clip-path="url(#pc39f7c15e4)" style="fill: #0000ff; stroke: #0000ff; stroke-width: 2; stroke-linecap: round"/>
   </g>
   <g id="patch_11">
    <path d="M 123.938462 169.2 
Q 123.93963 168.96635 123.929618 170.96874 
" clip-path="url(#pc39f7c15e4)" style="fill: none; stroke: #0000ff; stroke-width: 2; stroke-linecap: round"/>
    <path d="M 120.899655 176.953665 
L 123.929618 170.96874 
L 126.89958 176.983665 
L 120.899655 176.953665 
z
" clip-path="url(#pc39f7c15e4)" style="fill: #0000ff; stroke: #0000ff; stroke-width: 2; stroke-linecap: round"/>
   </g>
   <g id="patch_12">
    <path d="M 170.669231 215.930769 
Q 170.435581 215.929601 172.437971 215.939613 
" clip-path="url(#pc39f7c15e4)" style="fill: none; stroke: #0000ff; stroke-width: 2; stroke-linecap: round"/>
    <path d="M 178.422896 218.969575 
L 172.437971 215.939613 
L 178.452896 212.96965 
L 178.422896 218.969575 
z
" clip-path="url(#pc39f7c15e4)" style="fill: #0000ff; stroke: #0000ff; stroke-width: 2; stroke-linecap: round"/>
   </g>
   <g id="patch_13">
    <path d="M 264.212033 130.453302 
Q 264.931593 130.155251 263.585296 130.712906 
" clip-path="url(#pc39f7c15e4)" style="fill: none; stroke: #0000ff; stroke-width: 2; stroke-linecap: round"/>
    <path d="M 256.893969 130.237368 
L 263.585296 130.712906 
L 259.190069 135.780645 
L 256.893969 130.237368 
z
" clip-path="url(#pc39f7c15e4)" style="fill: #0000ff; stroke: #0000ff; stroke-width: 2; stroke-linecap: round"/>
   </g>
   <g id="patch_14">
    <path d="M 264.212033 207.946698 
Q 263.492473 207.648646 264.838771 208.206301 
" clip-path="url(#pc39f7c15e4)" style="fill: none; stroke: #0000ff; stroke-width: 2; stroke-linecap: round"/>
    <path d="M 269.233998 213.27404 
L 264.838771 208.206301 
L 271.530098 207.730763 
L 269.233998 213.27404 
z
" clip-path="url(#pc39f7c15e4)" style="fill: #0000ff; stroke: #0000ff; stroke-width: 2; stroke-linecap: round"/>
   </g>
   <g id="patch_15">
    <path d="M 170.669231 331.2 
L 170.669231 7.2 
" style="fill: none; stroke: #000000; stroke-width: 0.8; stroke-linejoin: miter; stroke-linecap: square"/>
   </g>
   <g id="patch_16">
    <path d="M 8.906375 169.2 
L 320.57486 169.2 
" style="fill: none; stroke: #000000; stroke-width: 0.8; stroke-linejoin: miter; stroke-linecap: square"/>
   </g>
   <g id="text_4">
    <!-- $\gamma_R$ -->
    <g transform="translate(239.593846 25.441731) scale(0.16 -0.16)">
     <defs>
      <path id="Cmmi10-b0" d="M 1888 -1253 
Q 1888 -1109 1952 -834 
Q 2016 -559 2108 -248 
Q 2200 63 2266 263 
Q 2291 581 2291 744 
Q 2291 1156 2209 1511 
Q 2128 1866 1903 2105 
Q 1678 2344 1275 2344 
Q 1063 2344 852 2253 
Q 641 2163 489 2000 
Q 338 1838 281 1631 
Q 269 1594 231 1594 
L 153 1594 
Q 103 1594 103 1650 
L 103 1672 
Q 175 1959 358 2226 
Q 541 2494 805 2661 
Q 1069 2828 1363 2828 
Q 1663 2828 1881 2625 
Q 2100 2422 2231 2109 
Q 2363 1797 2420 1478 
Q 2478 1159 2478 878 
Q 2800 1753 3200 2534 
L 3297 2741 
Q 3316 2759 3341 2759 
L 3419 2759 
Q 3469 2759 3469 2700 
Q 3469 2688 3456 2663 
L 3359 2463 
Q 3081 1909 2848 1340 
Q 2616 772 2450 244 
Q 2425 28 2354 -347 
Q 2284 -722 2184 -1045 
Q 2084 -1369 1984 -1381 
Q 1888 -1381 1888 -1253 
z
" transform="scale(0.015625)"/>
     </defs>
     <use xlink:href="#Cmmi10-b0" transform="translate(0 0.8125)"/>
     <use xlink:href="#Cmmi10-52" transform="translate(51.708984 -16.19375) scale(0.7)"/>
    </g>
   </g>
   <g id="text_5">
    <!-- $\gamma_\delta$ -->
    <g transform="translate(140.103846 118.903269) scale(0.16 -0.16)">
     <use xlink:href="#Cmmi10-b0" transform="translate(0 0.8125)"/>
     <use xlink:href="#Cmmi10-b1" transform="translate(51.708984 -16.19375) scale(0.7)"/>
    </g>
   </g>
   <g id="text_6">
    <!-- $\gamma_\alpha$ -->
    <g transform="translate(240.39511 119.098879) scale(0.16 -0.16)">
     <defs>
      <path id="Cmmi10-ae" d="M 1288 -72 
Q 984 -72 748 72 
Q 513 216 384 459 
Q 256 703 256 1013 
Q 256 1447 498 1872 
Q 741 2297 1142 2562 
Q 1544 2828 1984 2828 
Q 2309 2828 2556 2658 
Q 2803 2488 2931 2205 
Q 3059 1922 3059 1600 
L 3066 1172 
Q 3284 1475 3436 1801 
Q 3588 2128 3669 2478 
Q 3681 2516 3719 2516 
L 3794 2516 
Q 3853 2516 3853 2456 
Q 3853 2450 3847 2438 
Q 3772 2144 3659 1873 
Q 3547 1603 3395 1350 
Q 3244 1097 3066 891 
Q 3066 97 3250 97 
Q 3369 97 3445 167 
Q 3522 238 3580 341 
Q 3638 444 3653 447 
L 3731 447 
Q 3781 447 3781 384 
Q 3781 225 3598 76 
Q 3416 -72 3238 -72 
Q 3006 -72 2853 78 
Q 2700 228 2644 469 
Q 2344 213 1994 70 
Q 1644 -72 1288 -72 
z
M 1300 97 
Q 1984 97 2613 659 
Q 2609 697 2603 751 
Q 2597 806 2597 813 
L 2597 1503 
Q 2597 2663 1972 2663 
Q 1597 2663 1315 2342 
Q 1034 2022 892 1576 
Q 750 1131 750 763 
Q 750 484 892 290 
Q 1034 97 1300 97 
z
" transform="scale(0.015625)"/>
     </defs>
     <use xlink:href="#Cmmi10-b0" transform="translate(0 0.8125)"/>
     <use xlink:href="#Cmmi10-ae" transform="translate(51.708984 -16.19375) scale(0.7)"/>
    </g>
   </g>
   <g id="text_7">
    <!-- $\gamma_{-\alpha}$ -->
    <g transform="translate(248.456649 221.515351) scale(0.16 -0.16)">
     <use xlink:href="#Cmmi10-b0" transform="translate(0 0.8125)"/>
     <use xlink:href="#Cmsy10-a1" transform="translate(51.708984 -16.19375) scale(0.7)"/>
     <use xlink:href="#Cmmi10-ae" transform="translate(106.088867 -16.19375) scale(0.7)"/>
    </g>
   </g>
  </g>
 </g>
 <defs>
  <clipPath id="pc39f7c15e4">
   <rect x="8.906375" y="7.2" width="311.668484" height="324"/>
  </clipPath>
 </defs>
</svg>
