<?xml version="1.0" encoding="utf-8" standalone="no"?>
<!DOCTYPE svg PUBLIC "-//W3C//DTD SVG 1.1//EN"
  "http://www.w3.org/Graphics/SVG/1.1/DTD/svg11.dtd">
<svg xmlns:xlink="http://www.w3.org/1999/xlink" width="452.049726pt" height="245.694818pt" viewBox="0 0 452.049726 245.694818" xmlns="http://www.w3.org/2000/svg" version="1.1">
 <metadata>
  <rdf:RDF xmlns:dc="http://purl.org/dc/elements/1.1/" xmlns:cc="http://creativecommons.org/ns#" xmlns:rdf="http://www.w3.org/1999/02/22-rdf-syntax-ns#">
   <cc:Work>
    <dc:type rdf:resource="http://purl.org/dc/dcmitype/StillImage"/>
    <dc:date>2025-03-01T17:34:18.963954</dc:date>
    <dc:format>image/svg+xml</dc:format>
    <dc:creator>
     <cc:Agent>
      <dc:title>Matplotlib v3.6.2, https://matplotlib.org/</dc:title>
     </cc:Agent>
    </dc:creator>
   </cc:Work>
  </rdf:RDF>
 </metadata>
 <defs>
  <style type="text/css">*{stroke-linejoin: round; stroke-linecap: butt}</style>
 </defs>
 <g id="figure_1">
  <g id="patch_1">
   <path d="M 0 245.694818 
L 452.049726 245.694818 
L 452.049726 0 
L 0 0 
z
" style="fill: #ffffff"/>
  </g>
  <g id="axes_1">
   <g id="patch_2">
    <path d="M 7.2 226.024863 
L 444.849726 226.024863 
L 444.849726 7.2 
L 7.2 7.2 
z
" style="fill: #ffffff"/>
   </g>
   <g id="matplotlib.axis_1">
    <g id="xtick_1">
     <g id="line2d_1">
      <defs>
       <path id="mb1409bc08e" d="M 0 0 
L 0 3.5 
" style="stroke: #000000; stroke-width: 0.8"/>
      </defs>
      <g>
       <use xlink:href="#mb1409bc08e" x="15.616341" y="221.816693" style="stroke: #000000; stroke-width: 0.8"/>
      </g>
     </g>
     <g id="text_1">
      <!-- $-R$ -->
      <g transform="translate(7.916341 236.41513) scale(0.1 -0.1)">
       <defs>
        <path id="Cmsy10-a1" d="M 653 1472 
Q 600 1472 565 1512 
Q 531 1553 531 1600 
Q 531 1647 565 1687 
Q 600 1728 653 1728 
L 4325 1728 
Q 4375 1728 4408 1687 
Q 4441 1647 4441 1600 
Q 4441 1553 4408 1512 
Q 4375 1472 4325 1472 
L 653 1472 
z
" transform="scale(0.015625)"/>
        <path id="Cmmi10-52" d="M 313 0 
Q 250 0 250 84 
Q 253 100 262 139 
Q 272 178 289 201 
Q 306 225 331 225 
Q 722 225 878 269 
Q 959 297 997 441 
L 1875 3956 
Q 1888 4019 1888 4044 
Q 1888 4113 1813 4122 
Q 1691 4147 1350 4147 
Q 1288 4147 1288 4231 
Q 1291 4247 1300 4286 
Q 1309 4325 1326 4348 
Q 1344 4372 1369 4372 
L 3309 4372 
Q 3541 4372 3791 4319 
Q 4041 4266 4250 4152 
Q 4459 4038 4593 3848 
Q 4728 3659 4728 3406 
Q 4728 3084 4515 2831 
Q 4303 2578 3978 2408 
Q 3653 2238 3347 2169 
Q 3597 2078 3756 1879 
Q 3916 1681 3916 1422 
Q 3916 1388 3914 1370 
Q 3913 1353 3909 1331 
L 3859 763 
Q 3853 638 3847 550 
Q 3841 463 3841 409 
Q 3841 234 3892 129 
Q 3944 25 4097 25 
Q 4297 25 4448 211 
Q 4600 397 4647 616 
Q 4675 672 4709 672 
L 4769 672 
Q 4831 672 4831 588 
Q 4784 403 4682 237 
Q 4581 72 4426 -34 
Q 4272 -141 4091 -141 
Q 3716 -141 3452 26 
Q 3188 194 3188 550 
Q 3188 684 3213 788 
L 3353 1356 
Q 3378 1434 3378 1538 
Q 3378 1803 3198 1954 
Q 3019 2106 2747 2106 
L 1959 2106 
L 1538 416 
Q 1522 363 1522 325 
Q 1522 259 1600 250 
Q 1722 225 2059 225 
Q 2125 225 2125 141 
Q 2103 50 2090 25 
Q 2078 0 2016 0 
L 313 0 
z
M 1997 2272 
L 2706 2272 
Q 3403 2272 3756 2625 
Q 3919 2788 4014 3039 
Q 4109 3291 4109 3541 
Q 4109 3778 3970 3912 
Q 3831 4047 3626 4097 
Q 3422 4147 3175 4147 
L 2747 4147 
Q 2572 4147 2515 4117 
Q 2459 4088 2413 3928 
L 1997 2272 
z
" transform="scale(0.015625)"/>
       </defs>
       <use xlink:href="#Cmsy10-a1" transform="translate(0 0.6875)"/>
       <use xlink:href="#Cmmi10-52" transform="translate(77.685547 0.6875)"/>
      </g>
     </g>
    </g>
    <g id="xtick_2">
     <g id="line2d_2">
      <g>
       <use xlink:href="#mb1409bc08e" x="162.902306" y="221.816693" style="stroke: #000000; stroke-width: 0.8"/>
      </g>
     </g>
     <g id="text_2">
      <!-- $-\delta$ -->
      <g transform="translate(156.752306 236.41513) scale(0.1 -0.1)">
       <defs>
        <path id="Cmmi10-b1" d="M 1281 -97 
Q 1059 -97 868 -14 
Q 678 69 536 225 
Q 394 381 325 573 
Q 256 766 256 991 
Q 256 1391 445 1767 
Q 634 2144 961 2419 
Q 1288 2694 1672 2791 
Q 1484 3138 1386 3389 
Q 1288 3641 1288 3903 
Q 1288 4097 1378 4245 
Q 1469 4394 1628 4478 
Q 1788 4563 1984 4563 
Q 2175 4563 2741 4434 
Q 2888 4400 2888 4263 
Q 2888 4156 2809 4068 
Q 2731 3981 2625 3981 
Q 2547 3981 2484 4017 
Q 2422 4053 2287 4143 
Q 2153 4234 2047 4282 
Q 1941 4331 1825 4331 
Q 1694 4331 1589 4251 
Q 1484 4172 1484 4044 
Q 1484 3841 1664 3577 
Q 1844 3313 2175 2900 
Q 2553 2419 2553 1838 
Q 2553 1550 2470 1215 
Q 2388 881 2230 584 
Q 2072 288 1826 95 
Q 1581 -97 1281 -97 
z
M 1294 78 
Q 1544 78 1723 337 
Q 1903 597 1995 955 
Q 2088 1313 2088 1556 
Q 2088 2034 1753 2631 
Q 1416 2538 1172 2238 
Q 928 1938 803 1547 
Q 678 1156 678 806 
Q 678 500 837 289 
Q 997 78 1294 78 
z
" transform="scale(0.015625)"/>
       </defs>
       <use xlink:href="#Cmsy10-a1" transform="translate(0 0.703125)"/>
       <use xlink:href="#Cmmi10-b1" transform="translate(77.685547 0.703125)"/>
      </g>
     </g>
    </g>
    <g id="xtick_3">
     <g id="line2d_3">
      <g>
       <use xlink:href="#mb1409bc08e" x="289.14742" y="221.816693" style="stroke: #000000; stroke-width: 0.8"/>
      </g>
     </g>
     <g id="text_3">
      <!-- $\delta$ -->
      <g transform="translate(286.89742 236.41513) scale(0.1 -0.1)">
       <use xlink:href="#Cmmi10-b1" transform="translate(0 0.703125)"/>
      </g>
     </g>
    </g>
    <g id="xtick_4">
     <g id="line2d_4">
      <g>
       <use xlink:href="#mb1409bc08e" x="436.433385" y="221.816693" style="stroke: #000000; stroke-width: 0.8"/>
      </g>
     </g>
     <g id="text_4">
      <!-- $R$ -->
      <g transform="translate(432.633385 236.41513) scale(0.1 -0.1)">
       <use xlink:href="#Cmmi10-52" transform="translate(0 0.6875)"/>
      </g>
     </g>
    </g>
   </g>
   <g id="matplotlib.axis_2"/>
   <g id="line2d_5">
    <path d="M 289.14742 221.816693 
L 289.030651 217.979012 
L 288.704683 214.353632 
L 288.071016 210.209277 
L 287.116762 205.93472 
L 285.951703 201.986641 
L 284.572904 198.224658 
L 283.201841 195.072527 
L 281.512193 191.723282 
L 279.415348 188.143065 
L 277.51742 185.306779 
L 275.436092 182.535811 
L 272.726601 179.350178 
L 270.100109 176.630081 
L 267.093413 173.880992 
L 263.857802 171.288226 
L 261.485633 169.596093 
L 258.047552 167.41996 
L 254.224556 165.343385 
L 251.062053 163.871923 
L 248.045264 162.659621 
L 244.209527 161.370227 
L 240.20882 160.30838 
L 236.743737 159.610882 
L 232.804614 159.059286 
L 228.50371 158.742827 
L 225.183706 158.699741 
L 221.742499 158.839566 
L 217.882132 159.22154 
L 213.81934 159.885421 
L 211.017724 160.504027 
L 206.587984 161.761177 
L 203.361886 162.902801 
L 199.302158 164.629682 
L 196.276749 166.143478 
L 193.136475 167.93895 
L 189.611377 170.255901 
L 186.471426 172.623372 
L 183.827437 174.871678 
L 181.104772 177.469849 
L 178.496769 180.277104 
L 175.614279 183.826823 
L 173.210049 187.24716 
L 171.120275 190.672778 
L 169.429628 193.862507 
L 167.765421 197.520713 
L 166.362353 201.204996 
L 165.134156 205.180017 
L 164.31884 208.519176 
L 163.725049 211.658429 
L 163.175726 215.947866 
L 162.92815 220.010601 
L 162.902306 221.816693 
L 162.902306 221.816693 
" clip-path="url(#pf04adb3a43)" style="fill: none; stroke: #0000ff; stroke-linecap: square"/>
   </g>
   <g id="line2d_6">
    <path d="M 436.433385 221.816693 
L 436.312444 214.683711 
L 435.988679 208.144007 
L 435.637846 203.537096 
L 434.930175 196.710578 
L 433.701609 188.021493 
L 432.495796 181.301266 
L 431.413118 176.1285 
L 429.733794 169.143951 
L 427.53388 161.270327 
L 426.364361 157.50626 
L 423.965096 150.462573 
L 420.885075 142.436318 
L 417.994912 135.681644 
L 415.378419 130.072608 
L 413.987448 127.255533 
L 410.94522 121.436377 
L 406.610596 113.832716 
L 402.957824 107.946269 
L 398.710052 101.602003 
L 394.833569 96.216665 
L 392.355015 92.952319 
L 386.625615 85.878675 
L 384.103778 82.95416 
L 379.4731 77.853556 
L 373.731175 71.96813 
L 369.845467 68.234857 
L 363.594156 62.611053 
L 357.086399 57.212258 
L 349.647554 51.554611 
L 342.852704 46.822402 
L 336.83979 42.954181 
L 331.29472 39.635455 
L 326.565444 36.983422 
L 320.892095 34.008401 
L 312.770396 30.12173 
L 305.840967 27.134553 
L 297.976007 24.092695 
L 293.31138 22.457041 
L 287.258579 20.51548 
L 281.712626 18.911248 
L 274.404185 17.045632 
L 266.71333 15.37979 
L 260.709567 14.286653 
L 251.400657 12.943968 
L 244.870747 12.253865 
L 236.12874 11.650906 
L 228.412462 11.421717 
L 221.827992 11.450031 
L 216.02027 11.646156 
L 205.870573 12.375649 
L 199.034802 13.14642 
L 191.256258 14.300692 
L 185.94197 15.261354 
L 175.984268 17.445254 
L 170.198256 18.949406 
L 161.954993 21.400132 
L 156.773871 23.130895 
L 150.911024 25.272404 
L 143.033105 28.466973 
L 138.106159 30.656949 
L 131.345157 33.913794 
L 125.40608 37.025982 
L 119.405229 40.422096 
L 112.707689 44.528892 
L 105.404919 49.414328 
L 101.288005 52.369171 
L 94.120804 57.88663 
L 91.336334 60.166619 
L 84.007662 66.565732 
L 80.603855 69.74935 
L 76.085045 74.203017 
L 70.545922 80.049118 
L 65.672285 85.586018 
L 60.806812 91.529541 
L 56.311275 97.44208 
L 53.137866 101.892415 
L 49.001608 108.086691 
L 44.662301 115.142575 
L 41.537415 120.642942 
L 38.04608 127.287738 
L 36.357158 130.72384 
L 33.669614 136.545336 
L 30.157804 144.954208 
L 27.248436 152.826272 
L 24.446804 161.500591 
L 22.029449 170.264609 
L 21.092658 174.124582 
L 19.27698 182.739091 
L 18.173121 189.11502 
L 17.298839 195.261218 
L 16.555537 201.958508 
L 15.888771 211.113006 
L 15.628171 219.585504 
L 15.616341 221.816693 
L 15.616341 221.816693 
" clip-path="url(#pf04adb3a43)" style="fill: none; stroke: #0000ff; stroke-linecap: square"/>
   </g>
   <g id="line2d_7">
    <path d="M 15.616341 221.816693 
L 436.433385 221.816693 
" clip-path="url(#pf04adb3a43)" style="fill: none; stroke: #0000ff; stroke-width: 1.25; stroke-linecap: square"/>
   </g>
   <g id="patch_3">
    <path d="M 408.243988 116.612431 
Q 407.71342 115.703981 408.310555 116.726408 
" clip-path="url(#pf04adb3a43)" style="fill: none; stroke: #0000ff; stroke-width: 2; stroke-linecap: round"/>
    <path d="M 408.745954 123.420467 
L 408.310555 116.726408 
L 413.927042 120.394524 
L 408.745954 123.420467 
z
" clip-path="url(#pf04adb3a43)" style="fill: #0000ff; stroke: #0000ff; stroke-width: 2; stroke-linecap: round"/>
   </g>
   <g id="patch_4">
    <path d="M 331.229124 39.597567 
Q 330.315414 39.07611 331.343761 39.662991 
" clip-path="url(#pf04adb3a43)" style="fill: none; stroke: #0000ff; stroke-width: 2; stroke-linecap: round"/>
    <path d="M 335.067857 45.242516 
L 331.343761 39.662991 
L 338.041839 40.031429 
L 335.067857 45.242516 
z
" clip-path="url(#pf04adb3a43)" style="fill: #0000ff; stroke: #0000ff; stroke-width: 2; stroke-linecap: round"/>
   </g>
   <g id="patch_5">
    <path d="M 226.024863 11.40817 
Q 224.972838 11.413431 226.156853 11.40751 
" clip-path="url(#pf04adb3a43)" style="fill: none; stroke: #0000ff; stroke-width: 2; stroke-linecap: round"/>
    <path d="M 232.171778 14.377473 
L 226.156853 11.40751 
L 232.141778 8.377548 
L 232.171778 14.377473 
z
" clip-path="url(#pf04adb3a43)" style="fill: #0000ff; stroke: #0000ff; stroke-width: 2; stroke-linecap: round"/>
   </g>
   <g id="patch_6">
    <path d="M 120.820602 39.597567 
Q 119.912152 40.128135 120.934579 39.531001 
" clip-path="url(#pf04adb3a43)" style="fill: none; stroke: #0000ff; stroke-width: 2; stroke-linecap: round"/>
    <path d="M 127.628638 39.095601 
L 120.934579 39.531001 
L 124.602695 33.914514 
L 127.628638 39.095601 
z
" clip-path="url(#pf04adb3a43)" style="fill: #0000ff; stroke: #0000ff; stroke-width: 2; stroke-linecap: round"/>
   </g>
   <g id="patch_7">
    <path d="M 43.805738 116.612431 
Q 43.284281 117.526142 43.871161 116.497795 
" clip-path="url(#pf04adb3a43)" style="fill: none; stroke: #0000ff; stroke-width: 2; stroke-linecap: round"/>
    <path d="M 49.450687 112.773698 
L 43.871161 116.497795 
L 44.239599 109.799717 
L 49.450687 112.773698 
z
" clip-path="url(#pf04adb3a43)" style="fill: #0000ff; stroke: #0000ff; stroke-width: 2; stroke-linecap: round"/>
   </g>
   <g id="patch_8">
    <path d="M 280.690601 190.255414 
Q 280.847038 190.529527 279.895137 188.861583 
" clip-path="url(#pf04adb3a43)" style="fill: none; stroke: #0000ff; stroke-width: 2; stroke-linecap: round"/>
    <path d="M 279.526699 182.163505 
L 279.895137 188.861583 
L 274.315612 185.137486 
L 279.526699 182.163505 
z
" clip-path="url(#pf04adb3a43)" style="fill: #0000ff; stroke: #0000ff; stroke-width: 2; stroke-linecap: round"/>
   </g>
   <g id="patch_9">
    <path d="M 257.586141 167.150955 
Q 257.858676 167.310125 256.200334 166.341593 
" clip-path="url(#pf04adb3a43)" style="fill: none; stroke: #0000ff; stroke-width: 2; stroke-linecap: round"/>
    <path d="M 252.532218 160.725106 
L 256.200334 166.341593 
L 249.506275 165.906194 
L 252.532218 160.725106 
z
" clip-path="url(#pf04adb3a43)" style="fill: #0000ff; stroke: #0000ff; stroke-width: 2; stroke-linecap: round"/>
   </g>
   <g id="patch_10">
    <path d="M 226.024863 158.694136 
Q 226.340471 158.695714 224.420038 158.686112 
" clip-path="url(#pf04adb3a43)" style="fill: none; stroke: #0000ff; stroke-width: 2; stroke-linecap: round"/>
    <path d="M 218.435113 155.656149 
L 224.420038 158.686112 
L 218.405113 161.656074 
L 218.435113 155.656149 
z
" clip-path="url(#pf04adb3a43)" style="fill: #0000ff; stroke: #0000ff; stroke-width: 2; stroke-linecap: round"/>
   </g>
   <g id="patch_11">
    <path d="M 194.463585 167.150955 
Q 194.737698 166.994518 193.069753 167.946418 
" clip-path="url(#pf04adb3a43)" style="fill: none; stroke: #0000ff; stroke-width: 2; stroke-linecap: round"/>
    <path d="M 186.371675 168.314856 
L 193.069753 167.946418 
L 189.345657 173.525944 
L 186.371675 168.314856 
z
" clip-path="url(#pf04adb3a43)" style="fill: #0000ff; stroke: #0000ff; stroke-width: 2; stroke-linecap: round"/>
   </g>
   <g id="patch_12">
    <path d="M 171.359125 190.255414 
Q 171.518296 189.982879 170.549764 191.641221 
" clip-path="url(#pf04adb3a43)" style="fill: none; stroke: #0000ff; stroke-width: 2; stroke-linecap: round"/>
    <path d="M 164.933277 195.309337 
L 170.549764 191.641221 
L 170.114364 198.33528 
L 164.933277 195.309337 
z
" clip-path="url(#pf04adb3a43)" style="fill: #0000ff; stroke: #0000ff; stroke-width: 2; stroke-linecap: round"/>
   </g>
   <g id="patch_13">
    <path d="M 89.259324 221.816693 
Q 90.311366 221.816693 89.127341 221.816693 
" clip-path="url(#pf04adb3a43)" style="fill: none; stroke: #0000ff; stroke-width: 2; stroke-linecap: round"/>
    <path d="M 83.127341 218.816693 
L 89.127341 221.816693 
L 83.127341 224.816693 
L 83.127341 218.816693 
z
" clip-path="url(#pf04adb3a43)" style="fill: #0000ff; stroke: #0000ff; stroke-width: 2; stroke-linecap: round"/>
   </g>
   <g id="patch_14">
    <path d="M 362.790402 221.816693 
Q 363.842445 221.816693 362.65842 221.816693 
" clip-path="url(#pf04adb3a43)" style="fill: none; stroke: #0000ff; stroke-width: 2; stroke-linecap: round"/>
    <path d="M 356.65842 218.816693 
L 362.65842 221.816693 
L 356.65842 224.816693 
L 356.65842 218.816693 
z
" clip-path="url(#pf04adb3a43)" style="fill: #0000ff; stroke: #0000ff; stroke-width: 2; stroke-linecap: round"/>
   </g>
   <g id="patch_15">
    <path d="M 226.024863 226.024863 
L 226.024863 7.2 
" style="fill: none; stroke: #000000; stroke-width: 0.8; stroke-linejoin: miter; stroke-linecap: square"/>
   </g>
   <g id="patch_16">
    <path d="M 7.2 221.816693 
L 444.849726 221.816693 
" style="fill: none; stroke: #000000; stroke-width: 0.8; stroke-linejoin: miter; stroke-linecap: square"/>
   </g>
   <g id="text_5">
    <!-- $\gamma_R$ -->
    <g transform="translate(322.269124 26.151097) scale(0.16 -0.16)">
     <defs>
      <path id="Cmmi10-b0" d="M 1888 -1253 
Q 1888 -1109 1952 -834 
Q 2016 -559 2108 -248 
Q 2200 63 2266 263 
Q 2291 581 2291 744 
Q 2291 1156 2209 1511 
Q 2128 1866 1903 2105 
Q 1678 2344 1275 2344 
Q 1063 2344 852 2253 
Q 641 2163 489 2000 
Q 338 1838 281 1631 
Q 269 1594 231 1594 
L 153 1594 
Q 103 1594 103 1650 
L 103 1672 
Q 175 1959 358 2226 
Q 541 2494 805 2661 
Q 1069 2828 1363 2828 
Q 1663 2828 1881 2625 
Q 2100 2422 2231 2109 
Q 2363 1797 2420 1478 
Q 2478 1159 2478 878 
Q 2800 1753 3200 2534 
L 3297 2741 
Q 3316 2759 3341 2759 
L 3419 2759 
Q 3469 2759 3469 2700 
Q 3469 2688 3456 2663 
L 3359 2463 
Q 3081 1909 2848 1340 
Q 2616 772 2450 244 
Q 2425 28 2354 -347 
Q 2284 -722 2184 -1045 
Q 2084 -1369 1984 -1381 
Q 1888 -1381 1888 -1253 
z
" transform="scale(0.015625)"/>
     </defs>
     <use xlink:href="#Cmmi10-b0" transform="translate(0 0.8125)"/>
     <use xlink:href="#Cmmi10-52" transform="translate(51.708984 -16.19375) scale(0.7)"/>
    </g>
   </g>
   <g id="text_6">
    <!-- $\gamma_\delta$ -->
    <g transform="translate(187.263585 152.39621) scale(0.16 -0.16)">
     <use xlink:href="#Cmmi10-b0" transform="translate(0 0.8125)"/>
     <use xlink:href="#Cmmi10-b1" transform="translate(51.708984 -16.19375) scale(0.7)"/>
    </g>
   </g>
  </g>
 </g>
 <defs>
  <clipPath id="pf04adb3a43">
   <rect x="7.2" y="7.2" width="437.649726" height="218.824863"/>
  </clipPath>
 </defs>
</svg>
