<?xml version="1.0" encoding="utf-8" standalone="no"?>
<!DOCTYPE svg PUBLIC "-//W3C//DTD SVG 1.1//EN"
  "http://www.w3.org/Graphics/SVG/1.1/DTD/svg11.dtd">
<svg xmlns:xlink="http://www.w3.org/1999/xlink" width="327.77486pt" height="338.4pt" viewBox="0 0 327.77486 338.4" xmlns="http://www.w3.org/2000/svg" version="1.1">
 <metadata>
  <rdf:RDF xmlns:dc="http://purl.org/dc/elements/1.1/" xmlns:cc="http://creativecommons.org/ns#" xmlns:rdf="http://www.w3.org/1999/02/22-rdf-syntax-ns#">
   <cc:Work>
    <dc:type rdf:resource="http://purl.org/dc/dcmitype/StillImage"/>
    <dc:date>2025-03-01T17:34:21.900609</dc:date>
    <dc:format>image/svg+xml</dc:format>
    <dc:creator>
     <cc:Agent>
      <dc:title>Matplotlib v3.6.2, https://matplotlib.org/</dc:title>
     </cc:Agent>
    </dc:creator>
   </cc:Work>
  </rdf:RDF>
 </metadata>
 <defs>
  <style type="text/css">*{stroke-linejoin: round; stroke-linecap: butt}</style>
 </defs>
 <g id="figure_1">
  <g id="patch_1">
   <path d="M 0 338.4 
L 327.77486 338.4 
L 327.77486 0 
L 0 0 
z
" style="fill: #ffffff"/>
  </g>
  <g id="axes_1">
   <g id="patch_2">
    <path d="M 8.906375 331.2 
L 320.57486 331.2 
L 320.57486 7.2 
L 8.906375 7.2 
z
" style="fill: #ffffff"/>
   </g>
   <g id="matplotlib.axis_1">
    <g id="xtick_1">
     <g id="line2d_1">
      <defs>
       <path id="m0a979d1926" d="M 0 0 
L 0 3.5 
" style="stroke: #000000; stroke-width: 0.8"/>
      </defs>
      <g>
       <use xlink:href="#m0a979d1926" x="14.9" y="169.2" style="stroke: #000000; stroke-width: 0.8"/>
      </g>
     </g>
     <g id="text_1">
      <!-- $-R$ -->
      <g transform="translate(7.2 183.798438) scale(0.1 -0.1)">
       <defs>
        <path id="Cmsy10-a1" d="M 653 1472 
Q 600 1472 565 1512 
Q 531 1553 531 1600 
Q 531 1647 565 1687 
Q 600 1728 653 1728 
L 4325 1728 
Q 4375 1728 4408 1687 
Q 4441 1647 4441 1600 
Q 4441 1553 4408 1512 
Q 4375 1472 4325 1472 
L 653 1472 
z
" transform="scale(0.015625)"/>
        <path id="Cmmi10-52" d="M 313 0 
Q 250 0 250 84 
Q 253 100 262 139 
Q 272 178 289 201 
Q 306 225 331 225 
Q 722 225 878 269 
Q 959 297 997 441 
L 1875 3956 
Q 1888 4019 1888 4044 
Q 1888 4113 1813 4122 
Q 1691 4147 1350 4147 
Q 1288 4147 1288 4231 
Q 1291 4247 1300 4286 
Q 1309 4325 1326 4348 
Q 1344 4372 1369 4372 
L 3309 4372 
Q 3541 4372 3791 4319 
Q 4041 4266 4250 4152 
Q 4459 4038 4593 3848 
Q 4728 3659 4728 3406 
Q 4728 3084 4515 2831 
Q 4303 2578 3978 2408 
Q 3653 2238 3347 2169 
Q 3597 2078 3756 1879 
Q 3916 1681 3916 1422 
Q 3916 1388 3914 1370 
Q 3913 1353 3909 1331 
L 3859 763 
Q 3853 638 3847 550 
Q 3841 463 3841 409 
Q 3841 234 3892 129 
Q 3944 25 4097 25 
Q 4297 25 4448 211 
Q 4600 397 4647 616 
Q 4675 672 4709 672 
L 4769 672 
Q 4831 672 4831 588 
Q 4784 403 4682 237 
Q 4581 72 4426 -34 
Q 4272 -141 4091 -141 
Q 3716 -141 3452 26 
Q 3188 194 3188 550 
Q 3188 684 3213 788 
L 3353 1356 
Q 3378 1434 3378 1538 
Q 3378 1803 3198 1954 
Q 3019 2106 2747 2106 
L 1959 2106 
L 1538 416 
Q 1522 363 1522 325 
Q 1522 259 1600 250 
Q 1722 225 2059 225 
Q 2125 225 2125 141 
Q 2103 50 2090 25 
Q 2078 0 2016 0 
L 313 0 
z
M 1997 2272 
L 2706 2272 
Q 3403 2272 3756 2625 
Q 3919 2788 4014 3039 
Q 4109 3291 4109 3541 
Q 4109 3778 3970 3912 
Q 3831 4047 3626 4097 
Q 3422 4147 3175 4147 
L 2747 4147 
Q 2572 4147 2515 4117 
Q 2459 4088 2413 3928 
L 1997 2272 
z
" transform="scale(0.015625)"/>
       </defs>
       <use xlink:href="#Cmsy10-a1" transform="translate(0 0.6875)"/>
       <use xlink:href="#Cmmi10-52" transform="translate(77.685547 0.6875)"/>
      </g>
     </g>
    </g>
    <g id="xtick_2">
     <g id="line2d_2">
      <g>
       <use xlink:href="#m0a979d1926" x="123.938462" y="169.2" style="stroke: #000000; stroke-width: 0.8"/>
      </g>
     </g>
     <g id="text_2">
      <!-- $-\delta$ -->
      <g transform="translate(117.788462 183.798438) scale(0.1 -0.1)">
       <defs>
        <path id="Cmmi10-b1" d="M 1281 -97 
Q 1059 -97 868 -14 
Q 678 69 536 225 
Q 394 381 325 573 
Q 256 766 256 991 
Q 256 1391 445 1767 
Q 634 2144 961 2419 
Q 1288 2694 1672 2791 
Q 1484 3138 1386 3389 
Q 1288 3641 1288 3903 
Q 1288 4097 1378 4245 
Q 1469 4394 1628 4478 
Q 1788 4563 1984 4563 
Q 2175 4563 2741 4434 
Q 2888 4400 2888 4263 
Q 2888 4156 2809 4068 
Q 2731 3981 2625 3981 
Q 2547 3981 2484 4017 
Q 2422 4053 2287 4143 
Q 2153 4234 2047 4282 
Q 1941 4331 1825 4331 
Q 1694 4331 1589 4251 
Q 1484 4172 1484 4044 
Q 1484 3841 1664 3577 
Q 1844 3313 2175 2900 
Q 2553 2419 2553 1838 
Q 2553 1550 2470 1215 
Q 2388 881 2230 584 
Q 2072 288 1826 95 
Q 1581 -97 1281 -97 
z
M 1294 78 
Q 1544 78 1723 337 
Q 1903 597 1995 955 
Q 2088 1313 2088 1556 
Q 2088 2034 1753 2631 
Q 1416 2538 1172 2238 
Q 928 1938 803 1547 
Q 678 1156 678 806 
Q 678 500 837 289 
Q 997 78 1294 78 
z
" transform="scale(0.015625)"/>
       </defs>
       <use xlink:href="#Cmsy10-a1" transform="translate(0 0.703125)"/>
       <use xlink:href="#Cmmi10-b1" transform="translate(77.685547 0.703125)"/>
      </g>
     </g>
    </g>
    <g id="xtick_3">
     <g id="line2d_3">
      <g>
       <use xlink:href="#m0a979d1926" x="217.4" y="169.2" style="stroke: #000000; stroke-width: 0.8"/>
      </g>
     </g>
     <g id="text_3">
      <!-- $\delta$ -->
      <g transform="translate(215.15 183.798438) scale(0.1 -0.1)">
       <use xlink:href="#Cmmi10-b1" transform="translate(0 0.703125)"/>
      </g>
     </g>
    </g>
   </g>
   <g id="matplotlib.axis_2"/>
   <g id="line2d_4">
    <path d="M 213.842832 151.316909 
L 212.479927 148.328237 
L 210.575159 144.883715 
L 208.283287 141.470096 
L 206.818351 139.585715 
L 204.514379 136.977792 
L 202.020409 134.546451 
L 199.357752 132.311878 
L 197.383271 130.857793 
L 193.730535 128.555923 
L 190.526393 126.898016 
L 187.505507 125.607517 
L 183.870025 124.37251 
L 181.733199 123.79787 
L 179.502638 123.311704 
L 176.375233 122.818901 
L 172.885628 122.521821 
L 169.217464 122.491787 
L 165.898527 122.713387 
L 162.431391 123.201057 
L 159.229792 123.891016 
L 156.61377 124.633097 
L 152.560341 126.120621 
L 149.388899 127.595766 
L 146.019024 129.49947 
L 143.947505 130.863148 
L 141.987773 132.306386 
L 139.762446 134.14953 
L 136.901981 136.896167 
L 135.344958 138.606528 
L 133.289717 141.154738 
L 131.111859 144.320708 
L 129.727893 146.670649 
L 128.632791 148.786707 
L 127.236122 151.956746 
L 126.138927 155.029016 
L 125.30659 157.975225 
L 124.581312 161.475459 
L 124.164177 164.612546 
L 123.95458 167.972726 
L 124.055345 172.503101 
L 124.525593 176.584411 
L 125.138358 179.721615 
L 126.185281 183.515829 
L 127.166377 186.266531 
L 128.778441 189.910541 
L 130.232493 192.622959 
L 132.059517 195.525933 
L 133.308057 197.269689 
L 135.336802 199.784052 
L 137.323344 201.93861 
L 140.138365 204.578397 
L 142.864066 206.758456 
L 145.52887 208.591967 
L 147.554351 209.813632 
L 150.012328 211.117266 
L 153.770086 212.76815 
L 156.855572 213.842442 
L 160.485792 214.807701 
L 163.245661 215.337354 
L 166.743108 215.765549 
L 168.836908 215.894833 
L 172.269976 215.903345 
L 175.562603 215.67386 
L 179.096373 215.164639 
L 182.500891 214.408148 
L 186.679657 213.102518 
L 189.639052 211.907267 
L 192.535329 210.499377 
L 195.125716 209.02016 
L 198.270661 206.908432 
L 200.438167 205.221872 
L 203.089328 202.855639 
L 205.614186 200.226036 
L 207.302385 198.21339 
L 209.175607 195.676854 
L 211.041503 192.733899 
L 212.404632 190.221918 
L 213.842832 187.083091 
L 213.842832 187.083091 
" clip-path="url(#pe065fa6ea1)" style="fill: none; stroke: #0000ff; stroke-linecap: square"/>
   </g>
   <g id="line2d_5">
    <path d="M 314.581235 109.589696 
L 312.042186 103.79556 
L 309.454323 98.46987 
L 305.409249 91.038752 
L 301.934909 85.33478 
L 298.332557 79.946829 
L 294.798051 75.093203 
L 291.962913 71.466199 
L 287.621478 66.310617 
L 285.854683 64.336446 
L 281.823314 60.072446 
L 279.162063 57.426306 
L 273.290867 52.012744 
L 268.210384 47.751342 
L 263.231322 43.915075 
L 259.263334 41.078424 
L 254.01989 37.606988 
L 248.541122 34.292543 
L 241.03185 30.228222 
L 234.543623 27.129189 
L 227.755506 24.268256 
L 218.788001 21.049275 
L 212.113949 19.045451 
L 204.693713 17.192145 
L 200.33914 16.28254 
L 194.876404 15.323212 
L 187.916166 14.388513 
L 179.580941 13.685902 
L 171.096811 13.431356 
L 165.584816 13.513771 
L 156.967387 14.034563 
L 149.428312 14.885786 
L 144.549315 15.636322 
L 137.145273 17.080976 
L 130.241997 18.768314 
L 124.378614 20.467919 
L 119.94881 21.919682 
L 112.329792 24.768137 
L 105.941413 27.515975 
L 99.841803 30.464537 
L 96.855712 32.029968 
L 88.016196 37.167697 
L 82.253728 40.955109 
L 77.704628 44.213457 
L 72.389805 48.347992 
L 66.40685 53.470102 
L 59.772142 59.811294 
L 58.275258 61.349881 
L 53.750639 66.272375 
L 49.96298 70.741612 
L 44.508673 77.83498 
L 41.009523 82.872638 
L 36.969084 89.273009 
L 33.049871 96.227641 
L 31.182404 99.864019 
L 27.799065 107.134155 
L 24.829848 114.474068 
L 21.652354 123.834554 
L 19.296327 132.453608 
L 18.335062 136.667644 
L 16.933063 144.115266 
L 15.833791 152.169446 
L 15.400761 156.71979 
L 15.036032 162.691487 
L 14.909935 170.959242 
L 15.004461 174.903756 
L 15.587153 183.815148 
L 16.111708 188.591371 
L 17.139925 195.521201 
L 18.852447 204.067142 
L 20.884008 211.960264 
L 22.935134 218.583092 
L 25.057035 224.527585 
L 27.065698 229.549637 
L 29.208647 234.414695 
L 31.643338 239.455636 
L 34.399482 244.662632 
L 38.154741 251.077733 
L 40.437686 254.66226 
L 43.222573 258.762283 
L 48.521119 265.86381 
L 52.726551 270.952531 
L 56.350544 275.007803 
L 61.537455 280.349938 
L 65.911463 284.48167 
L 70.75412 288.703238 
L 76.741612 293.464458 
L 83.083232 298.012833 
L 88.054812 301.256469 
L 92.357442 303.852579 
L 97.140213 306.522747 
L 101.821455 308.92844 
L 110.208556 312.756818 
L 115.555041 314.8931 
L 122.90522 317.46548 
L 126.537566 318.586912 
L 132.020952 320.098522 
L 138.675998 321.648307 
L 146.049253 323.01128 
L 150.358449 323.639391 
L 159.504127 324.568574 
L 165.266136 324.875495 
L 174.772476 324.915178 
L 182.364446 324.52957 
L 191.104384 323.622983 
L 195.219763 323.02238 
L 199.643311 322.250828 
L 207.531723 320.544673 
L 215.293556 318.440487 
L 222.220704 316.191493 
L 226.387631 314.663099 
L 230.524989 313.010088 
L 237.214477 310.039566 
L 242.13245 307.609037 
L 245.695921 305.710252 
L 252.286048 301.87535 
L 258.766181 297.663927 
L 261.597685 295.675569 
L 266.235679 292.208566 
L 272.691468 286.909458 
L 277.43408 282.625395 
L 280.886871 279.273271 
L 286.155983 273.731637 
L 290.734022 268.439605 
L 294.715521 263.415557 
L 296.984378 260.351176 
L 299.918074 256.141301 
L 303.937968 249.844262 
L 308.158395 242.417368 
L 310.465678 237.909581 
L 312.997202 232.499304 
L 314.581235 228.810304 
L 314.581235 228.810304 
" clip-path="url(#pe065fa6ea1)" style="fill: none; stroke: #0000ff; stroke-linecap: square"/>
   </g>
   <g id="line2d_6">
    <path d="M 213.842832 151.316909 
L 314.581235 109.589696 
" clip-path="url(#pe065fa6ea1)" style="fill: none; stroke: #0000ff; stroke-width: 1.25; stroke-linecap: square"/>
   </g>
   <g id="line2d_7">
    <path d="M 213.842832 187.083091 
L 314.581235 228.810304 
" clip-path="url(#pe065fa6ea1)" style="fill: none; stroke: #0000ff; stroke-width: 1.25; stroke-linecap: square"/>
   </g>
   <g id="patch_3">
    <path d="M 280.81471 59.054521 
Q 280.261238 58.506556 281.296791 59.531805 
" clip-path="url(#pe065fa6ea1)" style="fill: none; stroke: #0000ff; stroke-width: 2; stroke-linecap: round"/>
    <path d="M 283.449905 65.88508 
L 281.296791 59.531805 
L 287.671279 61.621279 
L 283.449905 65.88508 
z
" clip-path="url(#pe065fa6ea1)" style="fill: #0000ff; stroke: #0000ff; stroke-width: 2; stroke-linecap: round"/>
   </g>
   <g id="patch_4">
    <path d="M 170.669231 13.430769 
Q 169.890398 13.434663 171.347604 13.427377 
" clip-path="url(#pe065fa6ea1)" style="fill: none; stroke: #0000ff; stroke-width: 2; stroke-linecap: round"/>
    <path d="M 177.362529 16.39734 
L 171.347604 13.427377 
L 177.33253 10.397415 
L 177.362529 16.39734 
z
" clip-path="url(#pe065fa6ea1)" style="fill: #0000ff; stroke: #0000ff; stroke-width: 2; stroke-linecap: round"/>
   </g>
   <g id="patch_5">
    <path d="M 60.523751 59.054521 
Q 59.975787 59.607992 61.001036 58.57244 
" clip-path="url(#pe065fa6ea1)" style="fill: none; stroke: #0000ff; stroke-width: 2; stroke-linecap: round"/>
    <path d="M 67.354311 56.419326 
L 61.001036 58.57244 
L 63.09051 52.197952 
L 67.354311 56.419326 
z
" clip-path="url(#pe065fa6ea1)" style="fill: #0000ff; stroke: #0000ff; stroke-width: 2; stroke-linecap: round"/>
   </g>
   <g id="patch_6">
    <path d="M 14.9 169.2 
Q 14.903894 169.978833 14.896608 168.521626 
" clip-path="url(#pe065fa6ea1)" style="fill: none; stroke: #0000ff; stroke-width: 2; stroke-linecap: round"/>
    <path d="M 17.866571 162.506701 
L 14.896608 168.521626 
L 11.866646 162.536701 
L 17.866571 162.506701 
z
" clip-path="url(#pe065fa6ea1)" style="fill: #0000ff; stroke: #0000ff; stroke-width: 2; stroke-linecap: round"/>
   </g>
   <g id="patch_7">
    <path d="M 60.523751 279.345479 
Q 61.077223 279.893444 60.04167 278.868195 
" clip-path="url(#pe065fa6ea1)" style="fill: none; stroke: #0000ff; stroke-width: 2; stroke-linecap: round"/>
    <path d="M 57.888557 272.51492 
L 60.04167 278.868195 
L 53.667182 276.778721 
L 57.888557 272.51492 
z
" clip-path="url(#pe065fa6ea1)" style="fill: #0000ff; stroke: #0000ff; stroke-width: 2; stroke-linecap: round"/>
   </g>
   <g id="patch_8">
    <path d="M 170.669231 324.969231 
Q 171.448064 324.965337 169.990857 324.972623 
" clip-path="url(#pe065fa6ea1)" style="fill: none; stroke: #0000ff; stroke-width: 2; stroke-linecap: round"/>
    <path d="M 163.975932 322.00266 
L 169.990857 324.972623 
L 164.005932 328.002585 
L 163.975932 322.00266 
z
" clip-path="url(#pe065fa6ea1)" style="fill: #0000ff; stroke: #0000ff; stroke-width: 2; stroke-linecap: round"/>
   </g>
   <g id="patch_9">
    <path d="M 280.81471 279.345479 
Q 281.362675 278.792008 280.337426 279.82756 
" clip-path="url(#pe065fa6ea1)" style="fill: none; stroke: #0000ff; stroke-width: 2; stroke-linecap: round"/>
    <path d="M 273.984151 281.980674 
L 280.337426 279.82756 
L 278.247952 286.202048 
L 273.984151 281.980674 
z
" clip-path="url(#pe065fa6ea1)" style="fill: #0000ff; stroke: #0000ff; stroke-width: 2; stroke-linecap: round"/>
   </g>
   <g id="patch_10">
    <path d="M 170.669231 122.469231 
Q 170.435581 122.470399 172.437971 122.460387 
" clip-path="url(#pe065fa6ea1)" style="fill: none; stroke: #0000ff; stroke-width: 2; stroke-linecap: round"/>
    <path d="M 178.452896 125.43035 
L 172.437971 122.460387 
L 178.422896 119.430425 
L 178.452896 125.43035 
z
" clip-path="url(#pe065fa6ea1)" style="fill: #0000ff; stroke: #0000ff; stroke-width: 2; stroke-linecap: round"/>
   </g>
   <g id="patch_11">
    <path d="M 123.938462 169.2 
Q 123.93963 169.43365 123.929618 167.43126 
" clip-path="url(#pe065fa6ea1)" style="fill: none; stroke: #0000ff; stroke-width: 2; stroke-linecap: round"/>
    <path d="M 126.89958 161.416335 
L 123.929618 167.43126 
L 120.899655 161.446335 
L 126.89958 161.416335 
z
" clip-path="url(#pe065fa6ea1)" style="fill: #0000ff; stroke: #0000ff; stroke-width: 2; stroke-linecap: round"/>
   </g>
   <g id="patch_12">
    <path d="M 170.669231 215.930769 
Q 170.902881 215.929601 168.900491 215.939613 
" clip-path="url(#pe065fa6ea1)" style="fill: none; stroke: #0000ff; stroke-width: 2; stroke-linecap: round"/>
    <path d="M 162.885566 212.96965 
L 168.900491 215.939613 
L 162.915566 218.969575 
L 162.885566 212.96965 
z
" clip-path="url(#pe065fa6ea1)" style="fill: #0000ff; stroke: #0000ff; stroke-width: 2; stroke-linecap: round"/>
   </g>
   <g id="patch_13">
    <path d="M 264.212033 130.453302 
Q 264.931593 130.155251 263.585296 130.712906 
" clip-path="url(#pe065fa6ea1)" style="fill: none; stroke: #0000ff; stroke-width: 2; stroke-linecap: round"/>
    <path d="M 256.893969 130.237368 
L 263.585296 130.712906 
L 259.190069 135.780645 
L 256.893969 130.237368 
z
" clip-path="url(#pe065fa6ea1)" style="fill: #0000ff; stroke: #0000ff; stroke-width: 2; stroke-linecap: round"/>
   </g>
   <g id="patch_14">
    <path d="M 264.212033 207.946698 
Q 264.931593 208.244749 263.585296 207.687094 
" clip-path="url(#pe065fa6ea1)" style="fill: none; stroke: #0000ff; stroke-width: 2; stroke-linecap: round"/>
    <path d="M 259.190069 202.619355 
L 263.585296 207.687094 
L 256.893969 208.162632 
L 259.190069 202.619355 
z
" clip-path="url(#pe065fa6ea1)" style="fill: #0000ff; stroke: #0000ff; stroke-width: 2; stroke-linecap: round"/>
   </g>
   <g id="patch_15">
    <path d="M 170.669231 331.2 
L 170.669231 7.2 
" style="fill: none; stroke: #000000; stroke-width: 0.8; stroke-linejoin: miter; stroke-linecap: square"/>
   </g>
   <g id="patch_16">
    <path d="M 8.906375 169.2 
L 320.57486 169.2 
" style="fill: none; stroke: #000000; stroke-width: 0.8; stroke-linejoin: miter; stroke-linecap: square"/>
   </g>
   <g id="text_4">
    <!-- $\gamma_R$ -->
    <g transform="translate(239.593846 25.441731) scale(0.16 -0.16)">
     <defs>
      <path id="Cmmi10-b0" d="M 1888 -1253 
Q 1888 -1109 1952 -834 
Q 2016 -559 2108 -248 
Q 2200 63 2266 263 
Q 2291 581 2291 744 
Q 2291 1156 2209 1511 
Q 2128 1866 1903 2105 
Q 1678 2344 1275 2344 
Q 1063 2344 852 2253 
Q 641 2163 489 2000 
Q 338 1838 281 1631 
Q 269 1594 231 1594 
L 153 1594 
Q 103 1594 103 1650 
L 103 1672 
Q 175 1959 358 2226 
Q 541 2494 805 2661 
Q 1069 2828 1363 2828 
Q 1663 2828 1881 2625 
Q 2100 2422 2231 2109 
Q 2363 1797 2420 1478 
Q 2478 1159 2478 878 
Q 2800 1753 3200 2534 
L 3297 2741 
Q 3316 2759 3341 2759 
L 3419 2759 
Q 3469 2759 3469 2700 
Q 3469 2688 3456 2663 
L 3359 2463 
Q 3081 1909 2848 1340 
Q 2616 772 2450 244 
Q 2425 28 2354 -347 
Q 2284 -722 2184 -1045 
Q 2084 -1369 1984 -1381 
Q 1888 -1381 1888 -1253 
z
" transform="scale(0.015625)"/>
     </defs>
     <use xlink:href="#Cmmi10-b0" transform="translate(0 0.8125)"/>
     <use xlink:href="#Cmmi10-52" transform="translate(51.708984 -16.19375) scale(0.7)"/>
    </g>
   </g>
   <g id="text_5">
    <!-- $\gamma_\delta$ -->
    <g transform="translate(140.103846 118.903269) scale(0.16 -0.16)">
     <use xlink:href="#Cmmi10-b0" transform="translate(0 0.8125)"/>
     <use xlink:href="#Cmmi10-b1" transform="translate(51.708984 -16.19375) scale(0.7)"/>
    </g>
   </g>
   <g id="text_6">
    <!-- $\gamma_\alpha$ -->
    <g transform="translate(240.39511 119.098879) scale(0.16 -0.16)">
     <defs>
      <path id="Cmmi10-ae" d="M 1288 -72 
Q 984 -72 748 72 
Q 513 216 384 459 
Q 256 703 256 1013 
Q 256 1447 498 1872 
Q 741 2297 1142 2562 
Q 1544 2828 1984 2828 
Q 2309 2828 2556 2658 
Q 2803 2488 2931 2205 
Q 3059 1922 3059 1600 
L 3066 1172 
Q 3284 1475 3436 1801 
Q 3588 2128 3669 2478 
Q 3681 2516 3719 2516 
L 3794 2516 
Q 3853 2516 3853 2456 
Q 3853 2450 3847 2438 
Q 3772 2144 3659 1873 
Q 3547 1603 3395 1350 
Q 3244 1097 3066 891 
Q 3066 97 3250 97 
Q 3369 97 3445 167 
Q 3522 238 3580 341 
Q 3638 444 3653 447 
L 3731 447 
Q 3781 447 3781 384 
Q 3781 225 3598 76 
Q 3416 -72 3238 -72 
Q 3006 -72 2853 78 
Q 2700 228 2644 469 
Q 2344 213 1994 70 
Q 1644 -72 1288 -72 
z
M 1300 97 
Q 1984 97 2613 659 
Q 2609 697 2603 751 
Q 2597 806 2597 813 
L 2597 1503 
Q 2597 2663 1972 2663 
Q 1597 2663 1315 2342 
Q 1034 2022 892 1576 
Q 750 1131 750 763 
Q 750 484 892 290 
Q 1034 97 1300 97 
z
" transform="scale(0.015625)"/>
     </defs>
     <use xlink:href="#Cmmi10-b0" transform="translate(0 0.8125)"/>
     <use xlink:href="#Cmmi10-ae" transform="translate(51.708984 -16.19375) scale(0.7)"/>
    </g>
   </g>
   <g id="text_7">
    <!-- $\gamma_{-\alpha}$ -->
    <g transform="translate(248.456649 221.515351) scale(0.16 -0.16)">
     <use xlink:href="#Cmmi10-b0" transform="translate(0 0.8125)"/>
     <use xlink:href="#Cmsy10-a1" transform="translate(51.708984 -16.19375) scale(0.7)"/>
     <use xlink:href="#Cmmi10-ae" transform="translate(106.088867 -16.19375) scale(0.7)"/>
    </g>
   </g>
  </g>
 </g>
 <defs>
  <clipPath id="pe065fa6ea1">
   <rect x="8.906375" y="7.2" width="311.668484" height="324"/>
  </clipPath>
 </defs>
</svg>
